<svg xmlns="http://www.w3.org/2000/svg" xmlns:xlink="http://www.w3.org/1999/xlink" contentStyleType="text/css" data-diagram-type="DESCRIPTION" height="1810px" preserveAspectRatio="none" style="width:432px;height:1810px;background:#FFFFFF;" version="1.1" viewBox="0 0 432 1810" width="432px" zoomAndPan="magnify"><title>Caso de Uso Diferenciaci&#243;n Num&#233;rica e Integraci&#243;n</title><defs/><g><g class="title" data-source-line="1"><text fill="#000000" font-family="sans-serif" font-size="14" font-weight="bold" lengthAdjust="spacing" textLength="404.4824" x="10" y="22.9951">Caso de Uso Diferenciaci&#243;n Num&#233;rica e Integraci&#243;n</text></g><g class="cluster" data-entity="##3" data-source-line="7" data-uid="ent0004" id="cluster_##3"><rect fill="none" height="1760" rx="2.5" ry="2.5" style="stroke:#181818;stroke-width:1;" width="304.14" x="117.7412" y="44.2969"/></g><!--entity pm3--><g class="entity" data-entity="pm3" data-source-line="8" data-uid="ent0005" id="entity_pm3"><ellipse cx="269.8092" cy="86.3005" fill="#F1F1F1" rx="116.7179" ry="25.7436" style="stroke:#181818;stroke-width:0.5;"/><text fill="#000000" font-family="sans-serif" font-size="14" lengthAdjust="spacing" textLength="212.3379" x="163.6402" y="90.9489">Abrir Punto Medio de 3 Puntos</text></g><!--entity ex3--><g class="entity" data-entity="ex3" data-source-line="9" data-uid="ent0006" id="entity_ex3"><ellipse cx="269.8161" cy="170.2938" fill="#F1F1F1" rx="103.9848" ry="23.197" style="stroke:#181818;stroke-width:0.5;"/><text fill="#000000" font-family="sans-serif" font-size="14" lengthAdjust="spacing" textLength="184.8027" x="177.4147" y="174.9423">Abrir Extremo de 3 Puntos</text></g><!--entity pm5--><g class="entity" data-entity="pm5" data-source-line="10" data-uid="ent0007" id="entity_pm5"><ellipse cx="269.8092" cy="254.3005" fill="#F1F1F1" rx="116.7179" ry="25.7436" style="stroke:#181818;stroke-width:0.5;"/><text fill="#000000" font-family="sans-serif" font-size="14" lengthAdjust="spacing" textLength="212.3379" x="163.6402" y="258.9489">Abrir Punto Medio de 5 Puntos</text></g><!--entity ex5--><g class="entity" data-entity="ex5" data-source-line="11" data-uid="ent0008" id="entity_ex5"><ellipse cx="269.8161" cy="338.2938" fill="#F1F1F1" rx="103.9848" ry="23.197" style="stroke:#181818;stroke-width:0.5;"/><text fill="#000000" font-family="sans-serif" font-size="14" lengthAdjust="spacing" textLength="184.8027" x="177.4147" y="342.9423">Abrir Extremo de 5 Puntos</text></g><!--entity pm2--><g class="entity" data-entity="pm2" data-source-line="12" data-uid="ent0009" id="entity_pm2"><ellipse cx="269.8126" cy="422.2951" fill="#F1F1F1" rx="116.9414" ry="25.7883" style="stroke:#181818;stroke-width:0.5;"/><text fill="#000000" font-family="sans-serif" font-size="14" lengthAdjust="spacing" textLength="212.8164" x="163.4044" y="426.9436">Abrir Punto Medio 2&#186; Derivada</text></g><!--entity ncc1--><g class="entity" data-entity="ncc1" data-source-line="13" data-uid="ent0010" id="entity_ncc1"><ellipse cx="269.8109" cy="510.2968" fill="#F1F1F1" rx="125.1497" ry="27.4299" style="stroke:#181818;stroke-width:0.5;"/><text fill="#000000" font-family="sans-serif" font-size="14" lengthAdjust="spacing" textLength="230.3096" x="154.6561" y="514.9453">Abrir Newton Cotes Cerrado n=1</text></g><!--entity ncc2--><g class="entity" data-entity="ncc2" data-source-line="14" data-uid="ent0011" id="entity_ncc2"><ellipse cx="269.8109" cy="600.2968" fill="#F1F1F1" rx="125.1497" ry="27.4299" style="stroke:#181818;stroke-width:0.5;"/><text fill="#000000" font-family="sans-serif" font-size="14" lengthAdjust="spacing" textLength="230.3096" x="154.6561" y="604.9453">Abrir Newton Cotes Cerrado n=2</text></g><!--entity ncc3--><g class="entity" data-entity="ncc3" data-source-line="15" data-uid="ent0012" id="entity_ncc3"><ellipse cx="269.8109" cy="690.2968" fill="#F1F1F1" rx="125.1497" ry="27.4299" style="stroke:#181818;stroke-width:0.5;"/><text fill="#000000" font-family="sans-serif" font-size="14" lengthAdjust="spacing" textLength="230.3096" x="154.6561" y="694.9453">Abrir Newton Cotes Cerrado n=3</text></g><!--entity ncc4--><g class="entity" data-entity="ncc4" data-source-line="16" data-uid="ent0013" id="entity_ncc4"><ellipse cx="269.8109" cy="780.2968" fill="#F1F1F1" rx="125.1497" ry="27.4299" style="stroke:#181818;stroke-width:0.5;"/><text fill="#000000" font-family="sans-serif" font-size="14" lengthAdjust="spacing" textLength="230.3096" x="154.6561" y="784.9453">Abrir Newton Cotes Cerrado n=4</text></g><!--entity nca0--><g class="entity" data-entity="nca0" data-source-line="17" data-uid="ent0014" id="entity_nca0"><ellipse cx="269.8144" cy="869.3015" fill="#F1F1F1" rx="122.7232" ry="26.9446" style="stroke:#181818;stroke-width:0.5;"/><text fill="#000000" font-family="sans-serif" font-size="14" lengthAdjust="spacing" textLength="225.1553" x="157.2368" y="873.95">Abrir Newton Cotes Abierto n=0</text></g><!--entity nca1--><g class="entity" data-entity="nca1" data-source-line="18" data-uid="ent0015" id="entity_nca1"><ellipse cx="269.8144" cy="958.3015" fill="#F1F1F1" rx="122.7232" ry="26.9446" style="stroke:#181818;stroke-width:0.5;"/><text fill="#000000" font-family="sans-serif" font-size="14" lengthAdjust="spacing" textLength="225.1553" x="157.2368" y="962.95">Abrir Newton Cotes Abierto n=1</text></g><!--entity nca2--><g class="entity" data-entity="nca2" data-source-line="19" data-uid="ent0016" id="entity_nca2"><ellipse cx="269.8144" cy="1047.3015" fill="#F1F1F1" rx="122.7232" ry="26.9446" style="stroke:#181818;stroke-width:0.5;"/><text fill="#000000" font-family="sans-serif" font-size="14" lengthAdjust="spacing" textLength="225.1553" x="157.2368" y="1051.95">Abrir Newton Cotes Abierto n=2</text></g><!--entity nca3--><g class="entity" data-entity="nca3" data-source-line="20" data-uid="ent0017" id="entity_nca3"><ellipse cx="269.8144" cy="1136.3015" fill="#F1F1F1" rx="122.7232" ry="26.9446" style="stroke:#181818;stroke-width:0.5;"/><text fill="#000000" font-family="sans-serif" font-size="14" lengthAdjust="spacing" textLength="225.1553" x="157.2368" y="1140.95">Abrir Newton Cotes Abierto n=3</text></g><!--entity simpson--><g class="entity" data-entity="simpson" data-source-line="21" data-uid="ent0018" id="entity_simpson"><ellipse cx="269.8118" cy="1225.293" fill="#F1F1F1" rx="123.4306" ry="27.0861" style="stroke:#181818;stroke-width:0.5;"/><text fill="#000000" font-family="sans-serif" font-size="14" lengthAdjust="spacing" textLength="226.6592" x="156.4822" y="1229.9414">Abrir Regla Simpson Compuesta</text></g><!--entity trapezoidal--><g class="entity" data-entity="trapezoidal" data-source-line="22" data-uid="ent0019" id="entity_trapezoidal"><ellipse cx="269.8146" cy="1316.2976" fill="#F1F1F1" rx="133.6034" ry="29.1207" style="stroke:#181818;stroke-width:0.5;"/><text fill="#000000" font-family="sans-serif" font-size="14" lengthAdjust="spacing" textLength="248.1719" x="145.7287" y="1320.946">Abrir Regla Trapezoidal Compuesta</text></g><!--entity pmc--><g class="entity" data-entity="pmc" data-source-line="23" data-uid="ent0020" id="entity_pmc"><ellipse cx="269.8086" cy="1410.3004" fill="#F1F1F1" rx="136.0674" ry="29.6135" style="stroke:#181818;stroke-width:0.5;"/><text fill="#000000" font-family="sans-serif" font-size="14" lengthAdjust="spacing" textLength="253.3535" x="143.1318" y="1414.9488">Abrir Regla Punto Medio Compuesta</text></g><!--entity inr--><g class="entity" data-entity="inr" data-source-line="24" data-uid="ent0021" id="entity_inr"><ellipse cx="269.8124" cy="1500.2991" fill="#F1F1F1" rx="114.7612" ry="25.3522" style="stroke:#181818;stroke-width:0.5;"/><text fill="#000000" font-family="sans-serif" font-size="14" lengthAdjust="spacing" textLength="208.1406" x="165.7421" y="1504.9475">Abrir Integraci&#243;n de Romberg</text></g><!--entity ids--><g class="entity" data-entity="ids" data-source-line="25" data-uid="ent0022" id="entity_ids"><ellipse cx="269.8121" cy="1587.2971" fill="#F1F1F1" rx="122.2509" ry="26.8502" style="stroke:#181818;stroke-width:0.5;"/><text fill="#000000" font-family="sans-serif" font-size="14" lengthAdjust="spacing" textLength="224.1504" x="157.7369" y="1591.9455">Abrir Integral Doble de Simpson</text></g><!--entity idg--><g class="entity" data-entity="idg" data-source-line="26" data-uid="ent0023" id="entity_idg"><ellipse cx="269.8119" cy="1675.297" fill="#F1F1F1" rx="117.9507" ry="25.9901" style="stroke:#181818;stroke-width:0.5;"/><text fill="#000000" font-family="sans-serif" font-size="14" lengthAdjust="spacing" textLength="214.9766" x="162.3236" y="1679.9454">Abrir Integral Doble Gaussiana</text></g><!--entity itg--><g class="entity" data-entity="itg" data-source-line="27" data-uid="ent0024" id="entity_itg"><ellipse cx="269.8151" cy="1762.2997" fill="#F1F1F1" rx="117.4139" ry="25.8828" style="stroke:#181818;stroke-width:0.5;"/><text fill="#000000" font-family="sans-serif" font-size="14" lengthAdjust="spacing" textLength="213.8281" x="162.9011" y="1766.9481">Abrir Integral Triple Gaussiana</text></g><!--entity user--><g class="entity" data-entity="user" data-source-line="5" data-uid="ent0002" id="entity_user"><ellipse cx="41.173" cy="892.6469" fill="#F1F1F1" rx="8" ry="8" style="stroke:#181818;stroke-width:0.5;"/><path d="M41.173,900.6469 L41.173,927.6469 M28.173,908.6469 L54.173,908.6469 M41.173,927.6469 L28.173,942.6469 M41.173,927.6469 L54.173,942.6469" fill="none" style="stroke:#181818;stroke-width:0.5;"/><text fill="#000000" font-family="sans-serif" font-size="14" lengthAdjust="spacing" textLength="49.1436" x="16.6012" y="957.142">Cliente</text></g><!--link user to pm3--><g class="link" data-entity-1="user" data-entity-2="pm3" data-source-line="30" data-uid="lnk25" id="link_user_pm3"><path d="M42.7312,883.7469 C45.2812,732.4969 58.0312,185.1569 109.7412,129.2969 C124.0312,113.8669 137.5187,105.6227 157.6287,99.0427" fill="none" id="user-to-pm3" style="stroke:#181818;stroke-width:1;"/><polygon fill="#181818" points="163.3312,97.1769,153.5335,96.174,158.5791,98.7318,156.0214,103.7773,163.3312,97.1769" style="stroke:#181818;stroke-width:1;"/><text fill="#000000" font-family="sans-serif" font-size="13" lengthAdjust="spacing" textLength="4.1323" x="96.7412" y="144.3638">&#160;</text></g><!--link user to ex3--><g class="link" data-entity-1="user" data-entity-2="ex3" data-source-line="31" data-uid="lnk26" id="link_user_ex3"><path d="M43.1412,883.7069 C47.0312,742.6669 63.6112,260.7869 109.7412,211.2969 C125.7912,194.0869 142.2198,185.285 164.9698,179.125" fill="none" id="user-to-ex3" style="stroke:#181818;stroke-width:1;"/><polygon fill="#181818" points="170.7612,177.5569,161.0286,176.0481,165.935,178.8637,163.1195,183.7701,170.7612,177.5569" style="stroke:#181818;stroke-width:1;"/><text fill="#000000" font-family="sans-serif" font-size="13" lengthAdjust="spacing" textLength="4.1323" x="96.7412" y="224.3638">&#160;</text></g><!--link user to pm5--><g class="link" data-entity-1="user" data-entity-2="pm5" data-source-line="32" data-uid="lnk27" id="link_user_pm5"><path d="M43.7012,884.0169 C49.2112,754.8269 69.8612,340.5869 109.7412,297.2969 C123.9912,281.8369 137.469,273.5736 157.569,266.9936" fill="none" id="user-to-pm5" style="stroke:#181818;stroke-width:1;"/><polygon fill="#181818" points="163.2712,265.1269,153.4734,264.1254,158.5194,266.6825,155.9623,271.7284,163.2712,265.1269" style="stroke:#181818;stroke-width:1;"/><text fill="#000000" font-family="sans-serif" font-size="13" lengthAdjust="spacing" textLength="4.1323" x="96.7412" y="308.3638">&#160;</text></g><!--link user to ex5--><g class="link" data-entity-1="user" data-entity-2="ex5" data-source-line="33" data-uid="lnk28" id="link_user_ex5"><path d="M44.3912,883.7969 C51.5212,766.0169 75.4112,416.2869 109.7412,379.2969 C125.7512,362.0469 142.1698,353.235 164.9198,347.075" fill="none" id="user-to-ex5" style="stroke:#181818;stroke-width:1;"/><polygon fill="#181818" points="170.7112,345.5069,160.9786,343.9981,165.885,346.8137,163.0695,351.7201,170.7112,345.5069" style="stroke:#181818;stroke-width:1;"/><text fill="#000000" font-family="sans-serif" font-size="13" lengthAdjust="spacing" textLength="4.1323" x="96.7412" y="394.3638">&#160;</text></g><!--link user to pm2--><g class="link" data-entity-1="user" data-entity-2="pm2" data-source-line="34" data-uid="lnk29" id="link_user_pm2"><path d="M42.5212,883.7769 C44.2012,785.0169 53.9712,526.2369 109.7412,465.2969 C123.9412,449.7869 137.3898,441.5061 157.4898,434.9161" fill="none" id="user-to-pm2" style="stroke:#181818;stroke-width:1;"/><polygon fill="#181818" points="163.1912,433.0469,153.3929,432.0498,158.4401,434.6046,155.8853,439.6517,163.1912,433.0469" style="stroke:#181818;stroke-width:1;"/><text fill="#000000" font-family="sans-serif" font-size="13" lengthAdjust="spacing" textLength="4.1323" x="96.7412" y="478.3638">&#160;</text></g><!--link user to ncc1--><g class="link" data-entity-1="user" data-entity-2="ncc1" data-source-line="35" data-uid="lnk30" id="link_user_ncc1"><path d="M44.2212,883.8569 C49.4612,799.7569 66.1812,603.1369 109.7412,555.2969 C123.1712,540.5469 135.3874,532.5234 154.2874,525.7034" fill="none" id="user-to-ncc1" style="stroke:#181818;stroke-width:1;"/><polygon fill="#181818" points="159.9312,523.6669,150.1078,522.9592,155.228,525.364,152.8232,530.4842,159.9312,523.6669" style="stroke:#181818;stroke-width:1;"/><text fill="#000000" font-family="sans-serif" font-size="13" lengthAdjust="spacing" textLength="4.1323" x="96.7412" y="565.3638">&#160;</text></g><!--link user to ncc2--><g class="link" data-entity-1="user" data-entity-2="ncc2" data-source-line="36" data-uid="lnk31" id="link_user_ncc2"><path d="M46.7512,883.8369 C55.5812,816.0569 77.0212,679.2369 109.7412,645.2969 C123.6912,630.8369 136.2469,622.924 155.3469,616.144" fill="none" id="user-to-ncc2" style="stroke:#181818;stroke-width:1;"/><polygon fill="#181818" points="161.0012,614.1369,151.1816,613.378,156.2893,615.8095,153.8578,620.9171,161.0012,614.1369" style="stroke:#181818;stroke-width:1;"/><text fill="#000000" font-family="sans-serif" font-size="13" lengthAdjust="spacing" textLength="4.1323" x="96.7412" y="656.3638">&#160;</text></g><!--link user to ncc3--><g class="link" data-entity-1="user" data-entity-2="ncc3" data-source-line="37" data-uid="lnk32" id="link_user_ncc3"><path d="M45.8112,883.6869 C51.8512,841.3869 67.8112,774.3469 109.7412,735.2969 C124.7612,721.3069 138.1217,713.5615 157.7617,706.8715" fill="none" id="user-to-ncc3" style="stroke:#181818;stroke-width:1;"/><polygon fill="#181818" points="163.4412,704.9369,153.6321,704.0525,158.7083,706.5491,156.2117,711.6252,163.4412,704.9369" style="stroke:#181818;stroke-width:1;"/><text fill="#000000" font-family="sans-serif" font-size="13" lengthAdjust="spacing" textLength="4.1323" x="96.7412" y="743.3638">&#160;</text></g><!--link user to ncc4--><g class="link" data-entity-1="user" data-entity-2="ncc4" data-source-line="38" data-uid="lnk33" id="link_user_ncc4"><path d="M60.7312,883.7869 C72.2512,863.6569 88.8512,840.1869 109.7412,825.2969 C127.5112,812.6369 143.0112,805.3165 164.1012,798.7665" fill="none" id="user-to-ncc4" style="stroke:#181818;stroke-width:1;"/><polygon fill="#181818" points="169.8312,796.9869,160.0498,795.8363,165.0562,798.4699,162.4226,803.4763,169.8312,796.9869" style="stroke:#181818;stroke-width:1;"/><text fill="#000000" font-family="sans-serif" font-size="13" lengthAdjust="spacing" textLength="4.1323" x="96.7412" y="829.3638">&#160;</text></g><!--link user to nca0--><g class="link" data-entity-1="user" data-entity-2="nca0" data-source-line="39" data-uid="lnk34" id="link_user_nca0"><path d="M66.0012,916.7269 C94.0112,910.1769 136.2188,900.3029 178.5188,890.4129" fill="none" id="user-to-nca0" style="stroke:#181818;stroke-width:1;"/><polygon fill="#181818" points="184.3612,889.0469,174.6869,887.2009,179.4925,890.1852,176.5082,894.9908,184.3612,889.0469" style="stroke:#181818;stroke-width:1;"/><text fill="#000000" font-family="sans-serif" font-size="13" lengthAdjust="spacing" textLength="4.1323" x="96.7412" y="906.3638">&#160;</text></g><!--link user to nca1--><g class="link" data-entity-1="user" data-entity-2="nca1" data-source-line="40" data-uid="lnk35" id="link_user_nca1"><path d="M65.9812,929.8069 C75.2012,932.4869 85.8912,935.3369 95.7412,937.2969 C115.4812,941.2369 130.694,943.7528 151.214,946.4928" fill="none" id="user-to-nca1" style="stroke:#181818;stroke-width:1;"/><polygon fill="#181818" points="157.1612,947.2869,148.7698,942.1309,152.2052,946.6251,147.711,950.0605,157.1612,947.2869" style="stroke:#181818;stroke-width:1;"/><text fill="#000000" font-family="sans-serif" font-size="13" lengthAdjust="spacing" textLength="4.1323" x="96.7412" y="933.3638">&#160;</text></g><!--link user to nca2--><g class="link" data-entity-1="user" data-entity-2="nca2" data-source-line="41" data-uid="lnk36" id="link_user_nca2"><path d="M66.0112,959.2869 C77.5612,974.5769 92.6312,991.2669 109.7412,1002.2969 C128.9212,1014.6569 145.7803,1021.976 167.8303,1028.536" fill="none" id="user-to-nca2" style="stroke:#181818;stroke-width:1;"/><polygon fill="#181818" points="173.5812,1030.2469,166.0955,1023.8466,168.7888,1028.8211,163.8143,1031.5144,173.5812,1030.2469" style="stroke:#181818;stroke-width:1;"/><text fill="#000000" font-family="sans-serif" font-size="13" lengthAdjust="spacing" textLength="4.1323" x="96.7412" y="988.3638">&#160;</text></g><!--link user to nca3--><g class="link" data-entity-1="user" data-entity-2="nca3" data-source-line="42" data-uid="lnk37" id="link_user_nca3"><path d="M47.5612,960.7769 C54.9612,999.1869 71.9412,1057.2569 109.7412,1091.2969 C125.4212,1105.4169 139.5143,1113.2439 159.7543,1119.9339" fill="none" id="user-to-nca3" style="stroke:#181818;stroke-width:1;"/><polygon fill="#181818" points="165.4512,1121.8169,158.1612,1115.1945,160.7038,1120.2477,155.6506,1122.7903,165.4512,1121.8169" style="stroke:#181818;stroke-width:1;"/><text fill="#000000" font-family="sans-serif" font-size="13" lengthAdjust="spacing" textLength="4.1323" x="96.7412" y="1073.3638">&#160;</text></g><!--link user to simpson--><g class="link" data-entity-1="user" data-entity-2="simpson" data-source-line="43" data-uid="lnk38" id="link_user_simpson"><path d="M47.5312,960.9169 C57.1712,1024.9769 79.3112,1149.2669 109.7412,1180.2969 C124.1112,1194.9469 137.1909,1202.9653 156.7609,1209.7353" fill="none" id="user-to-simpson" style="stroke:#181818;stroke-width:1;"/><polygon fill="#181818" points="162.4312,1211.6969,155.2335,1204.9743,157.706,1210.0622,152.6181,1212.5347,162.4312,1211.6969" style="stroke:#181818;stroke-width:1;"/><text fill="#000000" font-family="sans-serif" font-size="13" lengthAdjust="spacing" textLength="4.1323" x="96.7412" y="1159.3638">&#160;</text></g><!--link user to trapezoidal--><g class="link" data-entity-1="user" data-entity-2="trapezoidal" data-source-line="44" data-uid="lnk39" id="link_user_trapezoidal"><path d="M44.6812,960.8669 C50.6912,1041.7469 68.6412,1225.3269 109.7412,1270.2969 C122.3512,1284.0869 133.2245,1291.6587 150.7645,1298.5287" fill="none" id="user-to-trapezoidal" style="stroke:#181818;stroke-width:1;"/><polygon fill="#181818" points="156.3512,1300.7169,149.4299,1293.7101,151.6956,1298.8934,146.5123,1301.1591,156.3512,1300.7169" style="stroke:#181818;stroke-width:1;"/><text fill="#000000" font-family="sans-serif" font-size="13" lengthAdjust="spacing" textLength="4.1323" x="96.7412" y="1248.3638">&#160;</text></g><!--link user to pmc--><g class="link" data-entity-1="user" data-entity-2="pmc" data-source-line="45" data-uid="lnk40" id="link_user_pmc"><path d="M42.8612,960.7769 C45.3612,1056.8969 56.9012,1304.0469 109.7412,1363.2969 C122.1112,1377.1569 132.7766,1384.7731 150.1366,1391.7731" fill="none" id="user-to-pmc" style="stroke:#181818;stroke-width:1;"/><polygon fill="#181818" points="155.7012,1394.0169,148.8501,1386.9414,151.064,1392.147,145.8584,1394.3609,155.7012,1394.0169" style="stroke:#181818;stroke-width:1;"/><text fill="#000000" font-family="sans-serif" font-size="13" lengthAdjust="spacing" textLength="4.1323" x="96.7412" y="1343.3638">&#160;</text></g><!--link user to inr--><g class="link" data-entity-1="user" data-entity-2="inr" data-source-line="46" data-uid="lnk41" id="link_user_inr"><path d="M41.5512,960.8469 C40.5812,1071.0869 43.8212,1384.3769 109.7412,1457.2969 C124.1312,1473.2169 138.0272,1481.6664 158.5672,1488.2464" fill="none" id="user-to-inr" style="stroke:#181818;stroke-width:1;"/><polygon fill="#181818" points="164.2812,1490.0769,156.9306,1483.5219,159.5196,1488.5515,154.49,1491.1405,164.2812,1490.0769" style="stroke:#181818;stroke-width:1;"/><text fill="#000000" font-family="sans-serif" font-size="13" lengthAdjust="spacing" textLength="4.1323" x="96.7412" y="1434.3638">&#160;</text></g><!--link user to ids--><g class="link" data-entity-1="user" data-entity-2="ids" data-source-line="47" data-uid="lnk42" id="link_user_ids"><path d="M43.7412,960.7869 C49.3212,1089.6569 70.1212,1500.3569 109.7412,1543.2969 C123.4412,1558.1469 135.9968,1566.1683 155.2068,1572.8783" fill="none" id="user-to-ids" style="stroke:#181818;stroke-width:1;"/><polygon fill="#181818" points="160.8712,1574.8569,153.6937,1568.1128,156.1509,1573.2081,151.0556,1575.6653,160.8712,1574.8569" style="stroke:#181818;stroke-width:1;"/><text fill="#000000" font-family="sans-serif" font-size="13" lengthAdjust="spacing" textLength="4.1323" x="96.7412" y="1510.3638">&#160;</text></g><!--link user to idg--><g class="link" data-entity-1="user" data-entity-2="idg" data-source-line="48" data-uid="lnk43" id="link_user_idg"><path d="M43.1812,960.7569 C47.2112,1101.2869 64.2312,1581.4969 109.7412,1631.2969 C123.9512,1646.8469 137.42,1655.187 157.52,1661.897" fill="none" id="user-to-idg" style="stroke:#181818;stroke-width:1;"/><polygon fill="#181818" points="163.2112,1663.7969,155.9409,1657.1528,158.4685,1662.2136,153.4077,1664.7412,163.2112,1663.7969" style="stroke:#181818;stroke-width:1;"/><text fill="#000000" font-family="sans-serif" font-size="13" lengthAdjust="spacing" textLength="4.1323" x="96.7412" y="1603.3638">&#160;</text></g><!--link user to itg--><g class="link" data-entity-1="user" data-entity-2="itg" data-source-line="49" data-uid="lnk44" id="link_user_itg"><path d="M42.7412,960.7169 C45.3312,1112.0869 58.2312,1661.7969 109.7412,1718.2969 C124.0312,1733.9669 137.656,1742.3588 157.896,1749.0688" fill="none" id="user-to-itg" style="stroke:#181818;stroke-width:1;"/><polygon fill="#181818" points="163.5912,1750.9569,156.3071,1744.328,158.8452,1749.3835,153.7897,1751.9215,163.5912,1750.9569" style="stroke:#181818;stroke-width:1;"/><text fill="#000000" font-family="sans-serif" font-size="13" lengthAdjust="spacing" textLength="4.1323" x="96.7412" y="1687.3638">&#160;</text></g><!--SRC=[bPJFRjim3CRlVWeYzmA97LyAR42H34CFBOgsUm16Pbm2jcHGSbjiw0FjlDkEwujD_eV6SjhKlXZuo1y_YoBjs1K46xG6Ce8V_hNbFGbfnQZuzO-6wxfy_Isi40WkjQDSka0K5RHtu0m8vmyECXPIZeqFe796O5Cm-Nn02xKbYQ8cZZhtVl0h0lzuMQ4bM5piX0LkQkshNL76xSSadM0NJOMgJ8uXtvwTK3bDf-Va4mxfs24zuP2E7T9J3l6_lx0buKVCiBU8Zp7NzEICXernP6538fWPq5zMBQELMis0uW6QuvGCK383MW_G-YHqiMCIrq3B7iBb36Xe1AvcG4CZC9u13Ot0eusufRn0kEEoiYrRLZLPrrsjxTJtiNl1YduQph08KFSMUHy_dAinNfNg67QugitmtffoHvAt26lv02bWQtP-IJtKdxM3Cli9w3lMrZ9gx9dyG-PUk9f2BezUegZvPy3PsTTczSzXiNWJ_7AF1R-wOKOQPiHZeLchYJBDIIRAEbHmEL4cbN5I6OFA_VoCnOF928-ZneA_qK38R2ZaWU1QuJy0]--></g></svg>