<svg xmlns="http://www.w3.org/2000/svg" xmlns:xlink="http://www.w3.org/1999/xlink" contentStyleType="text/css" data-diagram-type="DESCRIPTION" height="1533px" preserveAspectRatio="none" style="width:432px;height:1533px;background:#FFFFFF;" version="1.1" viewBox="0 0 432 1533" width="432px" zoomAndPan="magnify"><title>Caso de Uso Diferenciaci&#243;n Num&#233;rica e Integraci&#243;n</title><defs/><g><g class="title" data-source-line="1"><text fill="#000000" font-family="sans-serif" font-size="14" font-weight="bold" lengthAdjust="spacing" textLength="404.4824" x="10" y="22.9951">Caso de Uso Diferenciaci&#243;n Num&#233;rica e Integraci&#243;n</text></g><g class="cluster" data-entity="##3" data-source-line="7" data-uid="ent0004" id="cluster_##3"><rect fill="none" height="1483" rx="2.5" ry="2.5" style="stroke:#181818;stroke-width:1;" width="304.14" x="119.7712" y="44.2969"/></g><!--entity listarOper--><g class="entity" data-entity="listarOper" data-source-line="8" data-uid="ent0005" id="entity_listarOper"><ellipse cx="271.8377" cy="78.2982" fill="#F1F1F1" rx="80.1565" ry="18.4313" style="stroke:#181818;stroke-width:0.5;"/><text fill="#000000" font-family="sans-serif" font-size="14" lengthAdjust="spacing" textLength="131.0449" x="206.3152" y="82.9466">Listar Operaciones</text></g><!--entity pm3--><g class="entity" data-entity="pm3" data-source-line="9" data-uid="ent0006" id="entity_pm3"><ellipse cx="271.8392" cy="157.3005" fill="#F1F1F1" rx="116.7179" ry="25.7436" style="stroke:#181818;stroke-width:0.5;"/><text fill="#000000" font-family="sans-serif" font-size="14" lengthAdjust="spacing" textLength="212.3379" x="165.6702" y="161.9489">Abrir Punto Medio de 3 Puntos</text></g><!--entity ex3--><g class="entity" data-entity="ex3" data-source-line="10" data-uid="ent0007" id="entity_ex3"><ellipse cx="271.8461" cy="241.2938" fill="#F1F1F1" rx="103.9848" ry="23.197" style="stroke:#181818;stroke-width:0.5;"/><text fill="#000000" font-family="sans-serif" font-size="14" lengthAdjust="spacing" textLength="184.8027" x="179.4447" y="245.9423">Abrir Extremo de 3 Puntos</text></g><!--entity pm5--><g class="entity" data-entity="pm5" data-source-line="11" data-uid="ent0008" id="entity_pm5"><ellipse cx="271.8392" cy="325.3005" fill="#F1F1F1" rx="116.7179" ry="25.7436" style="stroke:#181818;stroke-width:0.5;"/><text fill="#000000" font-family="sans-serif" font-size="14" lengthAdjust="spacing" textLength="212.3379" x="165.6702" y="329.9489">Abrir Punto Medio de 5 Puntos</text></g><!--entity ex5--><g class="entity" data-entity="ex5" data-source-line="12" data-uid="ent0009" id="entity_ex5"><ellipse cx="271.8461" cy="409.2938" fill="#F1F1F1" rx="103.9848" ry="23.197" style="stroke:#181818;stroke-width:0.5;"/><text fill="#000000" font-family="sans-serif" font-size="14" lengthAdjust="spacing" textLength="184.8027" x="179.4447" y="413.9423">Abrir Extremo de 5 Puntos</text></g><!--entity pm2--><g class="entity" data-entity="pm2" data-source-line="13" data-uid="ent0010" id="entity_pm2"><ellipse cx="271.8426" cy="493.2951" fill="#F1F1F1" rx="116.9414" ry="25.7883" style="stroke:#181818;stroke-width:0.5;"/><text fill="#000000" font-family="sans-serif" font-size="14" lengthAdjust="spacing" textLength="212.8164" x="165.4344" y="497.9436">Abrir Punto Medio 2&#186; Derivada</text></g><!--entity ncc1--><g class="entity" data-entity="ncc1" data-source-line="14" data-uid="ent0011" id="entity_ncc1"><ellipse cx="271.8409" cy="581.2968" fill="#F1F1F1" rx="125.1497" ry="27.4299" style="stroke:#181818;stroke-width:0.5;"/><text fill="#000000" font-family="sans-serif" font-size="14" lengthAdjust="spacing" textLength="230.3096" x="156.6861" y="585.9453">Abrir Newton Cotes Cerrado n=1</text></g><!--entity ncc2--><g class="entity" data-entity="ncc2" data-source-line="15" data-uid="ent0012" id="entity_ncc2"><ellipse cx="271.8409" cy="671.2968" fill="#F1F1F1" rx="125.1497" ry="27.4299" style="stroke:#181818;stroke-width:0.5;"/><text fill="#000000" font-family="sans-serif" font-size="14" lengthAdjust="spacing" textLength="230.3096" x="156.6861" y="675.9453">Abrir Newton Cotes Cerrado n=2</text></g><!--entity ncc3--><g class="entity" data-entity="ncc3" data-source-line="16" data-uid="ent0013" id="entity_ncc3"><ellipse cx="271.8409" cy="761.2968" fill="#F1F1F1" rx="125.1497" ry="27.4299" style="stroke:#181818;stroke-width:0.5;"/><text fill="#000000" font-family="sans-serif" font-size="14" lengthAdjust="spacing" textLength="230.3096" x="156.6861" y="765.9453">Abrir Newton Cotes Cerrado n=3</text></g><!--entity ncc4--><g class="entity" data-entity="ncc4" data-source-line="17" data-uid="ent0014" id="entity_ncc4"><ellipse cx="271.8409" cy="851.2968" fill="#F1F1F1" rx="125.1497" ry="27.4299" style="stroke:#181818;stroke-width:0.5;"/><text fill="#000000" font-family="sans-serif" font-size="14" lengthAdjust="spacing" textLength="230.3096" x="156.6861" y="855.9453">Abrir Newton Cotes Cerrado n=4</text></g><!--entity nca0--><g class="entity" data-entity="nca0" data-source-line="18" data-uid="ent0015" id="entity_nca0"><ellipse cx="271.8444" cy="940.3015" fill="#F1F1F1" rx="122.7232" ry="26.9446" style="stroke:#181818;stroke-width:0.5;"/><text fill="#000000" font-family="sans-serif" font-size="14" lengthAdjust="spacing" textLength="225.1553" x="159.2668" y="944.95">Abrir Newton Cotes Abierto n=0</text></g><!--entity nca1--><g class="entity" data-entity="nca1" data-source-line="19" data-uid="ent0016" id="entity_nca1"><ellipse cx="271.8444" cy="1029.3015" fill="#F1F1F1" rx="122.7232" ry="26.9446" style="stroke:#181818;stroke-width:0.5;"/><text fill="#000000" font-family="sans-serif" font-size="14" lengthAdjust="spacing" textLength="225.1553" x="159.2668" y="1033.95">Abrir Newton Cotes Abierto n=1</text></g><!--entity nca2--><g class="entity" data-entity="nca2" data-source-line="20" data-uid="ent0017" id="entity_nca2"><ellipse cx="271.8444" cy="1118.3015" fill="#F1F1F1" rx="122.7232" ry="26.9446" style="stroke:#181818;stroke-width:0.5;"/><text fill="#000000" font-family="sans-serif" font-size="14" lengthAdjust="spacing" textLength="225.1553" x="159.2668" y="1122.95">Abrir Newton Cotes Abierto n=2</text></g><!--entity nca3--><g class="entity" data-entity="nca3" data-source-line="21" data-uid="ent0018" id="entity_nca3"><ellipse cx="271.8444" cy="1207.3015" fill="#F1F1F1" rx="122.7232" ry="26.9446" style="stroke:#181818;stroke-width:0.5;"/><text fill="#000000" font-family="sans-serif" font-size="14" lengthAdjust="spacing" textLength="225.1553" x="159.2668" y="1211.95">Abrir Newton Cotes Abierto n=3</text></g><!--entity simpson--><g class="entity" data-entity="simpson" data-source-line="22" data-uid="ent0019" id="entity_simpson"><ellipse cx="271.8418" cy="1296.293" fill="#F1F1F1" rx="123.4306" ry="27.0861" style="stroke:#181818;stroke-width:0.5;"/><text fill="#000000" font-family="sans-serif" font-size="14" lengthAdjust="spacing" textLength="226.6592" x="158.5122" y="1300.9414">Abrir Regla Simpson Compuesta</text></g><!--entity trapezoidal--><g class="entity" data-entity="trapezoidal" data-source-line="23" data-uid="ent0020" id="entity_trapezoidal"><ellipse cx="271.8446" cy="1387.2976" fill="#F1F1F1" rx="133.6034" ry="29.1207" style="stroke:#181818;stroke-width:0.5;"/><text fill="#000000" font-family="sans-serif" font-size="14" lengthAdjust="spacing" textLength="248.1719" x="147.7587" y="1391.946">Abrir Regla Trapezoidal Compuesta</text></g><!--entity pmc--><g class="entity" data-entity="pmc" data-source-line="24" data-uid="ent0021" id="entity_pmc"><ellipse cx="271.8386" cy="1481.3004" fill="#F1F1F1" rx="136.0674" ry="29.6135" style="stroke:#181818;stroke-width:0.5;"/><text fill="#000000" font-family="sans-serif" font-size="14" lengthAdjust="spacing" textLength="253.3535" x="145.1618" y="1485.9488">Abrir Regla Punto Medio Compuesta</text></g><!--entity user--><g class="entity" data-entity="user" data-source-line="5" data-uid="ent0002" id="entity_user"><ellipse cx="41.1733" cy="731.6469" fill="#F1F1F1" rx="8" ry="8" style="stroke:#181818;stroke-width:0.5;"/><path d="M41.1733,739.6469 L41.1733,766.6469 M28.1733,747.6469 L54.1733,747.6469 M41.1733,766.6469 L28.1733,781.6469 M41.1733,766.6469 L54.1733,781.6469" fill="none" style="stroke:#181818;stroke-width:0.5;"/><text fill="#000000" font-family="sans-serif" font-size="14" lengthAdjust="spacing" textLength="53.2041" x="14.5712" y="796.142">Usuario</text></g><!--link user to listarOper--><g class="link" data-entity-1="user" data-entity-2="listarOper" data-source-line="27" data-uid="lnk22" id="link_user_listarOper"><path d="M43.6212,723.0069 C49.0012,590.7169 69.6612,158.6369 111.7712,114.2969 C132.2512,92.7369 156.7544,83.6753 185.5344,79.4653" fill="none" id="user-to-listarOper" style="stroke:#181818;stroke-width:1;"/><polygon fill="#181818" points="191.4712,78.5969,181.987,75.9417,186.5239,79.3206,183.145,83.8574,191.4712,78.5969" style="stroke:#181818;stroke-width:1;"/><text fill="#000000" font-family="sans-serif" font-size="13" lengthAdjust="spacing" textLength="4.1323" x="98.7712" y="126.3638">&#160;</text></g><!--link user to pm3--><g class="link" data-entity-1="user" data-entity-2="pm3" data-source-line="28" data-uid="lnk23" id="link_user_pm3"><path d="M44.3512,722.7769 C51.5012,602.3069 75.9212,238.4069 111.7712,200.2969 C126.1812,184.9869 139.7276,176.7793 159.8476,170.2093" fill="none" id="user-to-pm3" style="stroke:#181818;stroke-width:1;"/><polygon fill="#181818" points="165.5512,168.3469,155.7541,167.3382,160.7982,169.8989,158.2374,174.943,165.5512,168.3469" style="stroke:#181818;stroke-width:1;"/><text fill="#000000" font-family="sans-serif" font-size="13" lengthAdjust="spacing" textLength="4.1323" x="98.7712" y="216.3638">&#160;</text></g><!--link user to ex3--><g class="link" data-entity-1="user" data-entity-2="ex3" data-source-line="29" data-uid="lnk24" id="link_user_ex3"><path d="M42.3212,722.7269 C43.5412,620.4969 52.4012,345.9869 111.7712,282.2969 C127.8212,265.0869 144.2498,256.285 166.9998,250.125" fill="none" id="user-to-ex3" style="stroke:#181818;stroke-width:1;"/><polygon fill="#181818" points="172.7912,248.5569,163.0586,247.0481,167.965,249.8637,165.1495,254.7701,172.7912,248.5569" style="stroke:#181818;stroke-width:1;"/><text fill="#000000" font-family="sans-serif" font-size="13" lengthAdjust="spacing" textLength="4.1323" x="98.7712" y="289.3638">&#160;</text></g><!--link user to pm5--><g class="link" data-entity-1="user" data-entity-2="pm5" data-source-line="30" data-uid="lnk25" id="link_user_pm5"><path d="M43.7812,722.6969 C48.2812,633.9869 63.9512,419.2769 111.7712,368.2969 C126.1612,352.9669 139.6979,344.7502 159.8079,338.1802" fill="none" id="user-to-pm5" style="stroke:#181818;stroke-width:1;"/><polygon fill="#181818" points="165.5112,336.3169,155.714,335.3096,160.7584,337.8696,158.1984,342.9141,165.5112,336.3169" style="stroke:#181818;stroke-width:1;"/><text fill="#000000" font-family="sans-serif" font-size="13" lengthAdjust="spacing" textLength="4.1323" x="98.7712" y="379.3638">&#160;</text></g><!--link user to ex5--><g class="link" data-entity-1="user" data-entity-2="ex5" data-source-line="31" data-uid="lnk26" id="link_user_ex5"><path d="M45.8112,722.7669 C53.6112,648.3869 74.3412,488.9469 111.7712,450.2969 C128.1412,433.3969 144.6889,424.692 167.4489,418.542" fill="none" id="user-to-ex5" style="stroke:#181818;stroke-width:1;"/><polygon fill="#181818" points="173.2412,416.9769,163.5094,415.4631,168.4143,418.2812,165.5962,423.1861,173.2412,416.9769" style="stroke:#181818;stroke-width:1;"/><text fill="#000000" font-family="sans-serif" font-size="13" lengthAdjust="spacing" textLength="4.1323" x="98.7712" y="458.3638">&#160;</text></g><!--link user to pm2--><g class="link" data-entity-1="user" data-entity-2="pm2" data-source-line="32" data-uid="lnk27" id="link_user_pm2"><path d="M43.2012,722.8969 C46.6612,672.8769 60.2712,585.9769 111.7712,536.2969 C127.1112,521.4969 141.2823,513.4919 161.7623,506.9919" fill="none" id="user-to-pm2" style="stroke:#181818;stroke-width:1;"/><polygon fill="#181818" points="167.4812,505.1769,157.6929,504.0869,162.7155,506.6894,160.1129,511.7121,167.4812,505.1769" style="stroke:#181818;stroke-width:1;"/><text fill="#000000" font-family="sans-serif" font-size="13" lengthAdjust="spacing" textLength="4.1323" x="98.7712" y="542.3638">&#160;</text></g><!--link user to ncc1--><g class="link" data-entity-1="user" data-entity-2="ncc1" data-source-line="33" data-uid="lnk28" id="link_user_ncc1"><path d="M52.7512,722.6769 C63.0212,692.2569 81.5612,650.9969 111.7712,626.2969 C128.1112,612.9469 142.4658,605.4137 162.7758,598.8037" fill="none" id="user-to-ncc1" style="stroke:#181818;stroke-width:1;"/><polygon fill="#181818" points="168.4812,596.9469,158.6851,595.9285,163.7267,598.4943,161.161,603.5358,168.4812,596.9469" style="stroke:#181818;stroke-width:1;"/><text fill="#000000" font-family="sans-serif" font-size="13" lengthAdjust="spacing" textLength="4.1323" x="98.7712" y="631.3638">&#160;</text></g><!--link user to ncc2--><g class="link" data-entity-1="user" data-entity-2="ncc2" data-source-line="34" data-uid="lnk29" id="link_user_ncc2"><path d="M68.2112,741.8169 C80.8512,733.0569 96.5712,723.1769 111.7712,716.2969 C134.2612,706.1269 153.8163,699.3349 177.5463,692.6449" fill="none" id="user-to-ncc2" style="stroke:#181818;stroke-width:1;"/><polygon fill="#181818" points="183.3212,691.0169,173.5735,689.609,178.5088,692.3736,175.7442,697.3089,183.3212,691.0169" style="stroke:#181818;stroke-width:1;"/><text fill="#000000" font-family="sans-serif" font-size="13" lengthAdjust="spacing" textLength="4.1323" x="98.7712" y="716.3638">&#160;</text></g><!--link user to ncc3--><g class="link" data-entity-1="user" data-entity-2="ncc3" data-source-line="35" data-uid="lnk30" id="link_user_ncc3"><path d="M67.9612,761.2969 C87.7012,761.2969 110.5112,761.2969 140.2612,761.2969" fill="none" id="user-to-ncc3" style="stroke:#181818;stroke-width:1;"/><polygon fill="#181818" points="146.2612,761.2969,137.2612,757.2969,141.2612,761.2969,137.2612,765.2969,146.2612,761.2969" style="stroke:#181818;stroke-width:1;"/><text fill="#000000" font-family="sans-serif" font-size="13" lengthAdjust="spacing" textLength="4.1323" x="98.7712" y="757.3638">&#160;</text></g><!--link user to ncc4--><g class="link" data-entity-1="user" data-entity-2="ncc4" data-source-line="36" data-uid="lnk31" id="link_user_ncc4"><path d="M68.2112,780.7769 C80.8512,789.5369 96.5712,799.4169 111.7712,806.2969 C134.2612,816.4669 153.8163,823.2588 177.5463,829.9488" fill="none" id="user-to-ncc4" style="stroke:#181818;stroke-width:1;"/><polygon fill="#181818" points="183.3212,831.5769,175.7442,825.2848,178.5088,830.2202,173.5735,832.9847,183.3212,831.5769" style="stroke:#181818;stroke-width:1;"/><text fill="#000000" font-family="sans-serif" font-size="13" lengthAdjust="spacing" textLength="4.1323" x="98.7712" y="796.3638">&#160;</text></g><!--link user to nca0--><g class="link" data-entity-1="user" data-entity-2="nca0" data-source-line="37" data-uid="lnk32" id="link_user_nca0"><path d="M52.6112,799.6569 C62.8312,830.1369 81.3812,871.6069 111.7712,896.2969 C128.2312,909.6669 142.742,917.1727 163.202,923.6627" fill="none" id="user-to-nca0" style="stroke:#181818;stroke-width:1;"/><polygon fill="#181818" points="168.9212,925.4769,161.5519,918.9429,164.1552,923.9651,159.133,926.5684,168.9212,925.4769" style="stroke:#181818;stroke-width:1;"/><text fill="#000000" font-family="sans-serif" font-size="13" lengthAdjust="spacing" textLength="4.1323" x="98.7712" y="881.3638">&#160;</text></g><!--link user to nca1--><g class="link" data-entity-1="user" data-entity-2="nca1" data-source-line="38" data-uid="lnk33" id="link_user_nca1"><path d="M43.4212,799.6969 C47.1512,849.2469 61.0612,934.9269 111.7712,984.2969 C126.6812,998.8069 140.2286,1006.7912 160.1186,1013.5312" fill="none" id="user-to-nca1" style="stroke:#181818;stroke-width:1;"/><polygon fill="#181818" points="165.8012,1015.4569,158.5611,1008.78,161.0657,1013.8522,155.9936,1016.3568,165.8012,1015.4569" style="stroke:#181818;stroke-width:1;"/><text fill="#000000" font-family="sans-serif" font-size="13" lengthAdjust="spacing" textLength="4.1323" x="98.7712" y="967.3638">&#160;</text></g><!--link user to nca2--><g class="link" data-entity-1="user" data-entity-2="nca2" data-source-line="39" data-uid="lnk34" id="link_user_nca2"><path d="M45.8712,799.8769 C53.7812,874.3569 74.7012,1034.0769 111.7712,1073.2969 C125.8712,1088.2069 138.8358,1096.3214 158.3658,1103.1314" fill="none" id="user-to-nca2" style="stroke:#181818;stroke-width:1;"/><polygon fill="#181818" points="164.0312,1105.1069,156.85,1098.3666,159.31,1103.4606,154.216,1105.9206,164.0312,1105.1069" style="stroke:#181818;stroke-width:1;"/><text fill="#000000" font-family="sans-serif" font-size="13" lengthAdjust="spacing" textLength="4.1323" x="98.7712" y="1048.3638">&#160;</text></g><!--link user to nca3--><g class="link" data-entity-1="user" data-entity-2="nca3" data-source-line="40" data-uid="lnk35" id="link_user_nca3"><path d="M43.7212,799.9269 C48.1012,889.8469 63.6012,1109.5169 111.7712,1162.2969 C125.6112,1177.4569 138.4585,1185.6735 157.9585,1192.5035" fill="none" id="user-to-nca3" style="stroke:#181818;stroke-width:1;"/><polygon fill="#181818" points="163.6212,1194.4869,156.4494,1187.7366,158.9023,1192.834,153.8049,1195.2869,163.6212,1194.4869" style="stroke:#181818;stroke-width:1;"/><text fill="#000000" font-family="sans-serif" font-size="13" lengthAdjust="spacing" textLength="4.1323" x="98.7712" y="1138.3638">&#160;</text></g><!--link user to simpson--><g class="link" data-entity-1="user" data-entity-2="simpson" data-source-line="41" data-uid="lnk36" id="link_user_simpson"><path d="M42.2712,799.9069 C43.3412,903.6669 51.8312,1185.1669 111.7712,1251.2969 C125.3612,1266.2869 137.8786,1274.425 157.0686,1281.255" fill="none" id="user-to-simpson" style="stroke:#181818;stroke-width:1;"/><polygon fill="#181818" points="162.7212,1283.2669,155.5835,1276.4807,158.0107,1281.5903,152.901,1284.0175,162.7212,1283.2669" style="stroke:#181818;stroke-width:1;"/><text fill="#000000" font-family="sans-serif" font-size="13" lengthAdjust="spacing" textLength="4.1323" x="98.7712" y="1229.3638">&#160;</text></g><!--link user to trapezoidal--><g class="link" data-entity-1="user" data-entity-2="trapezoidal" data-source-line="42" data-uid="lnk37" id="link_user_trapezoidal"><path d="M44.2412,799.7569 C51.1912,922.7969 75.3612,1301.0769 111.7712,1341.2969 C124.3112,1355.1469 135.156,1362.7448 152.686,1369.6248" fill="none" id="user-to-trapezoidal" style="stroke:#181818;stroke-width:1;"/><polygon fill="#181818" points="158.2712,1371.8169,151.3547,1364.8053,153.6168,1369.9902,148.432,1372.2523,158.2712,1371.8169" style="stroke:#181818;stroke-width:1;"/><text fill="#000000" font-family="sans-serif" font-size="13" lengthAdjust="spacing" textLength="4.1323" x="98.7712" y="1310.3638">&#160;</text></g><!--link user to pmc--><g class="link" data-entity-1="user" data-entity-2="pmc" data-source-line="43" data-uid="lnk38" id="link_user_pmc"><path d="M43.5812,799.5969 C48.9012,935.1069 69.6812,1386.3569 111.7712,1434.2969 C123.9412,1448.1469 134.4043,1455.744 151.5943,1462.744" fill="none" id="user-to-pmc" style="stroke:#181818;stroke-width:1;"/><polygon fill="#181818" points="157.1512,1465.0069,150.3244,1457.908,152.5204,1463.1212,147.3072,1465.3172,157.1512,1465.0069" style="stroke:#181818;stroke-width:1;"/><text fill="#000000" font-family="sans-serif" font-size="13" lengthAdjust="spacing" textLength="4.1323" x="98.7712" y="1407.3638">&#160;</text></g><!--SRC=[bPFFJeD048VlFCM4UvCMoiL4awRrOABL-ES1ncMAcy0kcLsqqVX0dhrvj2_c0YKjqAR2fSatyysF3hjMsfHWZaP3JF3aVXPoHKnAI1HoywrWMMIRBvO2WU1AMKguBdXUIYiBLWFBvCL2B9c4bTeLK5ZDRbY1B3MWWS8GUrvPHvMuFFZmm3qE2pG4_hKq5XbkSog7QqN6BxMqmYLjjy-UMJBS5Sg5tr0igtSFQr2RUHOUKYxNbYdhjzCw_4T2r4w8JYH4xOJeL4Bm-mCBOlcACMuZWaFEajwiLZ3NbWpCYHbZ3UfyKZbAYCa0AMYa8KbX8uK3f6aZJKzAisT9R4jfl9LmF41g5e6J0LAp20m6ICqYyE0YxYb94HvabflApVA2t7ck75FJuzeZOqxlMiQOTbIxgnpNzyzLMyypuNrwNdaZOJIwsBjZP-3xE-vkK1kuEzBjYBeTKRSZQ8FoTFP8loViaMcNuBX7UfEnDnaxaxUVeGtt5jpzEw84Vm00]--></g></svg>