<svg xmlns="http://www.w3.org/2000/svg" xmlns:xlink="http://www.w3.org/1999/xlink" contentStyleType="text/css" data-diagram-type="DESCRIPTION" height="1881px" preserveAspectRatio="none" style="width:432px;height:1881px;background:#FFFFFF;" version="1.1" viewBox="0 0 432 1881" width="432px" zoomAndPan="magnify"><title>Caso de Uso Diferenciaci&#243;n Num&#233;rica e Integraci&#243;n</title><defs/><g><g class="title" data-source-line="1"><text fill="#000000" font-family="sans-serif" font-size="14" font-weight="bold" lengthAdjust="spacing" textLength="404.4824" x="10" y="22.9951">Caso de Uso Diferenciaci&#243;n Num&#233;rica e Integraci&#243;n</text></g><g class="cluster" data-entity="##3" data-source-line="7" data-uid="ent0004" id="cluster_##3"><rect fill="none" height="1831" rx="2.5" ry="2.5" style="stroke:#181818;stroke-width:1;" width="304.14" x="119.7712" y="44.2969"/></g><!--entity listarOper--><g class="entity" data-entity="listarOper" data-source-line="8" data-uid="ent0005" id="entity_listarOper"><ellipse cx="271.8377" cy="78.2982" fill="#F1F1F1" rx="80.1565" ry="18.4313" style="stroke:#181818;stroke-width:0.5;"/><text fill="#000000" font-family="sans-serif" font-size="14" lengthAdjust="spacing" textLength="131.0449" x="206.3152" y="82.9466">Listar Operaciones</text></g><!--entity pm3--><g class="entity" data-entity="pm3" data-source-line="9" data-uid="ent0006" id="entity_pm3"><ellipse cx="271.8392" cy="157.3005" fill="#F1F1F1" rx="116.7179" ry="25.7436" style="stroke:#181818;stroke-width:0.5;"/><text fill="#000000" font-family="sans-serif" font-size="14" lengthAdjust="spacing" textLength="212.3379" x="165.6702" y="161.9489">Abrir Punto Medio de 3 Puntos</text></g><!--entity ex3--><g class="entity" data-entity="ex3" data-source-line="10" data-uid="ent0007" id="entity_ex3"><ellipse cx="271.8461" cy="241.2938" fill="#F1F1F1" rx="103.9848" ry="23.197" style="stroke:#181818;stroke-width:0.5;"/><text fill="#000000" font-family="sans-serif" font-size="14" lengthAdjust="spacing" textLength="184.8027" x="179.4447" y="245.9423">Abrir Extremo de 3 Puntos</text></g><!--entity pm5--><g class="entity" data-entity="pm5" data-source-line="11" data-uid="ent0008" id="entity_pm5"><ellipse cx="271.8392" cy="325.3005" fill="#F1F1F1" rx="116.7179" ry="25.7436" style="stroke:#181818;stroke-width:0.5;"/><text fill="#000000" font-family="sans-serif" font-size="14" lengthAdjust="spacing" textLength="212.3379" x="165.6702" y="329.9489">Abrir Punto Medio de 5 Puntos</text></g><!--entity ex5--><g class="entity" data-entity="ex5" data-source-line="12" data-uid="ent0009" id="entity_ex5"><ellipse cx="271.8461" cy="409.2938" fill="#F1F1F1" rx="103.9848" ry="23.197" style="stroke:#181818;stroke-width:0.5;"/><text fill="#000000" font-family="sans-serif" font-size="14" lengthAdjust="spacing" textLength="184.8027" x="179.4447" y="413.9423">Abrir Extremo de 5 Puntos</text></g><!--entity pm2--><g class="entity" data-entity="pm2" data-source-line="13" data-uid="ent0010" id="entity_pm2"><ellipse cx="271.8426" cy="493.2951" fill="#F1F1F1" rx="116.9414" ry="25.7883" style="stroke:#181818;stroke-width:0.5;"/><text fill="#000000" font-family="sans-serif" font-size="14" lengthAdjust="spacing" textLength="212.8164" x="165.4344" y="497.9436">Abrir Punto Medio 2&#186; Derivada</text></g><!--entity ncc1--><g class="entity" data-entity="ncc1" data-source-line="14" data-uid="ent0011" id="entity_ncc1"><ellipse cx="271.8409" cy="581.2968" fill="#F1F1F1" rx="125.1497" ry="27.4299" style="stroke:#181818;stroke-width:0.5;"/><text fill="#000000" font-family="sans-serif" font-size="14" lengthAdjust="spacing" textLength="230.3096" x="156.6861" y="585.9453">Abrir Newton Cotes Cerrado n=1</text></g><!--entity ncc2--><g class="entity" data-entity="ncc2" data-source-line="15" data-uid="ent0012" id="entity_ncc2"><ellipse cx="271.8409" cy="671.2968" fill="#F1F1F1" rx="125.1497" ry="27.4299" style="stroke:#181818;stroke-width:0.5;"/><text fill="#000000" font-family="sans-serif" font-size="14" lengthAdjust="spacing" textLength="230.3096" x="156.6861" y="675.9453">Abrir Newton Cotes Cerrado n=2</text></g><!--entity ncc3--><g class="entity" data-entity="ncc3" data-source-line="16" data-uid="ent0013" id="entity_ncc3"><ellipse cx="271.8409" cy="761.2968" fill="#F1F1F1" rx="125.1497" ry="27.4299" style="stroke:#181818;stroke-width:0.5;"/><text fill="#000000" font-family="sans-serif" font-size="14" lengthAdjust="spacing" textLength="230.3096" x="156.6861" y="765.9453">Abrir Newton Cotes Cerrado n=3</text></g><!--entity ncc4--><g class="entity" data-entity="ncc4" data-source-line="17" data-uid="ent0014" id="entity_ncc4"><ellipse cx="271.8409" cy="851.2968" fill="#F1F1F1" rx="125.1497" ry="27.4299" style="stroke:#181818;stroke-width:0.5;"/><text fill="#000000" font-family="sans-serif" font-size="14" lengthAdjust="spacing" textLength="230.3096" x="156.6861" y="855.9453">Abrir Newton Cotes Cerrado n=4</text></g><!--entity nca0--><g class="entity" data-entity="nca0" data-source-line="18" data-uid="ent0015" id="entity_nca0"><ellipse cx="271.8444" cy="940.3015" fill="#F1F1F1" rx="122.7232" ry="26.9446" style="stroke:#181818;stroke-width:0.5;"/><text fill="#000000" font-family="sans-serif" font-size="14" lengthAdjust="spacing" textLength="225.1553" x="159.2668" y="944.95">Abrir Newton Cotes Abierto n=0</text></g><!--entity nca1--><g class="entity" data-entity="nca1" data-source-line="19" data-uid="ent0016" id="entity_nca1"><ellipse cx="271.8444" cy="1029.3015" fill="#F1F1F1" rx="122.7232" ry="26.9446" style="stroke:#181818;stroke-width:0.5;"/><text fill="#000000" font-family="sans-serif" font-size="14" lengthAdjust="spacing" textLength="225.1553" x="159.2668" y="1033.95">Abrir Newton Cotes Abierto n=1</text></g><!--entity nca2--><g class="entity" data-entity="nca2" data-source-line="20" data-uid="ent0017" id="entity_nca2"><ellipse cx="271.8444" cy="1118.3015" fill="#F1F1F1" rx="122.7232" ry="26.9446" style="stroke:#181818;stroke-width:0.5;"/><text fill="#000000" font-family="sans-serif" font-size="14" lengthAdjust="spacing" textLength="225.1553" x="159.2668" y="1122.95">Abrir Newton Cotes Abierto n=2</text></g><!--entity nca3--><g class="entity" data-entity="nca3" data-source-line="21" data-uid="ent0018" id="entity_nca3"><ellipse cx="271.8444" cy="1207.3015" fill="#F1F1F1" rx="122.7232" ry="26.9446" style="stroke:#181818;stroke-width:0.5;"/><text fill="#000000" font-family="sans-serif" font-size="14" lengthAdjust="spacing" textLength="225.1553" x="159.2668" y="1211.95">Abrir Newton Cotes Abierto n=3</text></g><!--entity simpson--><g class="entity" data-entity="simpson" data-source-line="22" data-uid="ent0019" id="entity_simpson"><ellipse cx="271.8418" cy="1296.293" fill="#F1F1F1" rx="123.4306" ry="27.0861" style="stroke:#181818;stroke-width:0.5;"/><text fill="#000000" font-family="sans-serif" font-size="14" lengthAdjust="spacing" textLength="226.6592" x="158.5122" y="1300.9414">Abrir Regla Simpson Compuesta</text></g><!--entity trapezoidal--><g class="entity" data-entity="trapezoidal" data-source-line="23" data-uid="ent0020" id="entity_trapezoidal"><ellipse cx="271.8446" cy="1387.2976" fill="#F1F1F1" rx="133.6034" ry="29.1207" style="stroke:#181818;stroke-width:0.5;"/><text fill="#000000" font-family="sans-serif" font-size="14" lengthAdjust="spacing" textLength="248.1719" x="147.7587" y="1391.946">Abrir Regla Trapezoidal Compuesta</text></g><!--entity pmc--><g class="entity" data-entity="pmc" data-source-line="24" data-uid="ent0021" id="entity_pmc"><ellipse cx="271.8386" cy="1481.3004" fill="#F1F1F1" rx="136.0674" ry="29.6135" style="stroke:#181818;stroke-width:0.5;"/><text fill="#000000" font-family="sans-serif" font-size="14" lengthAdjust="spacing" textLength="253.3535" x="145.1618" y="1485.9488">Abrir Regla Punto Medio Compuesta</text></g><!--entity inr--><g class="entity" data-entity="inr" data-source-line="25" data-uid="ent0022" id="entity_inr"><ellipse cx="271.8424" cy="1571.2991" fill="#F1F1F1" rx="114.7612" ry="25.3522" style="stroke:#181818;stroke-width:0.5;"/><text fill="#000000" font-family="sans-serif" font-size="14" lengthAdjust="spacing" textLength="208.1406" x="167.7721" y="1575.9475">Abrir Integraci&#243;n de Romberg</text></g><!--entity ids--><g class="entity" data-entity="ids" data-source-line="26" data-uid="ent0023" id="entity_ids"><ellipse cx="271.8421" cy="1658.2971" fill="#F1F1F1" rx="122.2509" ry="26.8502" style="stroke:#181818;stroke-width:0.5;"/><text fill="#000000" font-family="sans-serif" font-size="14" lengthAdjust="spacing" textLength="224.1504" x="159.7669" y="1662.9455">Abrir Integral Doble de Simpson</text></g><!--entity idg--><g class="entity" data-entity="idg" data-source-line="27" data-uid="ent0024" id="entity_idg"><ellipse cx="271.8419" cy="1746.297" fill="#F1F1F1" rx="117.9507" ry="25.9901" style="stroke:#181818;stroke-width:0.5;"/><text fill="#000000" font-family="sans-serif" font-size="14" lengthAdjust="spacing" textLength="214.9766" x="164.3536" y="1750.9454">Abrir Integral Doble Gaussiana</text></g><!--entity itg--><g class="entity" data-entity="itg" data-source-line="28" data-uid="ent0025" id="entity_itg"><ellipse cx="271.8451" cy="1833.2997" fill="#F1F1F1" rx="117.4139" ry="25.8828" style="stroke:#181818;stroke-width:0.5;"/><text fill="#000000" font-family="sans-serif" font-size="14" lengthAdjust="spacing" textLength="213.8281" x="164.9311" y="1837.9481">Abrir Integral Triple Gaussiana</text></g><!--entity user--><g class="entity" data-entity="user" data-source-line="5" data-uid="ent0002" id="entity_user"><ellipse cx="41.1733" cy="910.6469" fill="#F1F1F1" rx="8" ry="8" style="stroke:#181818;stroke-width:0.5;"/><path d="M41.1733,918.6469 L41.1733,945.6469 M28.1733,926.6469 L54.1733,926.6469 M41.1733,945.6469 L28.1733,960.6469 M41.1733,945.6469 L54.1733,960.6469" fill="none" style="stroke:#181818;stroke-width:0.5;"/><text fill="#000000" font-family="sans-serif" font-size="14" lengthAdjust="spacing" textLength="53.2041" x="14.5712" y="975.142">Usuario</text></g><!--link user to listarOper--><g class="link" data-entity-1="user" data-entity-2="listarOper" data-source-line="31" data-uid="lnk26" id="link_user_listarOper"><path d="M42.6412,901.6869 C44.8812,746.2569 56.8612,171.8669 111.7712,114.2969 C132.2912,92.7869 156.8047,83.7373 185.5847,79.5173" fill="none" id="user-to-listarOper" style="stroke:#181818;stroke-width:1;"/><polygon fill="#181818" points="191.5212,78.6469,182.0361,75.9949,186.5741,79.3723,183.1967,83.9103,191.5212,78.6469" style="stroke:#181818;stroke-width:1;"/><text fill="#000000" font-family="sans-serif" font-size="13" lengthAdjust="spacing" textLength="4.1323" x="98.7712" y="130.3638">&#160;</text></g><!--link user to pm3--><g class="link" data-entity-1="user" data-entity-2="pm3" data-source-line="32" data-uid="lnk27" id="link_user_pm3"><path d="M43.0912,902.1269 C46.9112,757.9669 63.6612,252.1369 111.7712,200.2969 C126.0812,184.8869 139.5787,176.6427 159.6887,170.0627" fill="none" id="user-to-pm3" style="stroke:#181818;stroke-width:1;"/><polygon fill="#181818" points="165.3912,168.1969,155.5935,167.194,160.6391,169.7518,158.0814,174.7973,165.3912,168.1969" style="stroke:#181818;stroke-width:1;"/><text fill="#000000" font-family="sans-serif" font-size="13" lengthAdjust="spacing" textLength="4.1323" x="98.7712" y="214.3638">&#160;</text></g><!--link user to ex3--><g class="link" data-entity-1="user" data-entity-2="ex3" data-source-line="33" data-uid="lnk28" id="link_user_ex3"><path d="M43.6012,901.8669 C48.9412,768.0269 69.5812,328.0569 111.7712,282.2969 C127.7212,264.9969 144.1204,256.1674 166.8704,249.9974" fill="none" id="user-to-ex3" style="stroke:#181818;stroke-width:1;"/><polygon fill="#181818" points="172.6612,248.4269,162.928,246.9221,167.8355,249.7356,165.022,254.6432,172.6612,248.4269" style="stroke:#181818;stroke-width:1;"/><text fill="#000000" font-family="sans-serif" font-size="13" lengthAdjust="spacing" textLength="4.1323" x="98.7712" y="294.3638">&#160;</text></g><!--link user to pm5--><g class="link" data-entity-1="user" data-entity-2="pm5" data-source-line="34" data-uid="lnk29" id="link_user_pm5"><path d="M44.2512,901.8869 C51.1812,779.9369 75.2012,407.2869 111.7712,368.2969 C126.1612,352.9669 139.6979,344.7502 159.8079,338.1802" fill="none" id="user-to-pm5" style="stroke:#181818;stroke-width:1;"/><polygon fill="#181818" points="165.5112,336.3169,155.714,335.3096,160.7584,337.8696,158.1984,342.9141,165.5112,336.3169" style="stroke:#181818;stroke-width:1;"/><text fill="#000000" font-family="sans-serif" font-size="13" lengthAdjust="spacing" textLength="4.1323" x="98.7712" y="384.3638">&#160;</text></g><!--link user to ex5--><g class="link" data-entity-1="user" data-entity-2="ex5" data-source-line="35" data-uid="lnk30" id="link_user_ex5"><path d="M42.1712,901.9669 C42.9812,798.2869 50.8412,515.6569 111.7712,450.2969 C127.8212,433.0869 144.2498,424.285 166.9998,418.125" fill="none" id="user-to-ex5" style="stroke:#181818;stroke-width:1;"/><polygon fill="#181818" points="172.7912,416.5569,163.0586,415.0481,167.965,417.8637,165.1495,422.7701,172.7912,416.5569" style="stroke:#181818;stroke-width:1;"/><text fill="#000000" font-family="sans-serif" font-size="13" lengthAdjust="spacing" textLength="4.1323" x="98.7712" y="458.3638">&#160;</text></g><!--link user to pm2--><g class="link" data-entity-1="user" data-entity-2="pm2" data-source-line="36" data-uid="lnk31" id="link_user_pm2"><path d="M43.6312,901.6869 C47.8412,811.2569 63.0112,589.3469 111.7712,536.2969 C126.0012,520.8169 139.4687,512.5427 159.5787,505.9627" fill="none" id="user-to-pm2" style="stroke:#181818;stroke-width:1;"/><polygon fill="#181818" points="165.2812,504.0969,155.4835,503.094,160.5291,505.6518,157.9714,510.6973,165.2812,504.0969" style="stroke:#181818;stroke-width:1;"/><text fill="#000000" font-family="sans-serif" font-size="13" lengthAdjust="spacing" textLength="4.1323" x="98.7712" y="547.3638">&#160;</text></g><!--link user to ncc1--><g class="link" data-entity-1="user" data-entity-2="ncc1" data-source-line="37" data-uid="lnk32" id="link_user_ncc1"><path d="M45.8112,901.7669 C53.6312,826.9369 74.4512,665.8369 111.7712,626.2969 C125.5712,611.6869 138.0594,603.7211 157.1394,596.9211" fill="none" id="user-to-ncc1" style="stroke:#181818;stroke-width:1;"/><polygon fill="#181818" points="162.7912,594.9069,152.9707,594.1604,158.0814,596.5854,155.6564,601.6961,162.7912,594.9069" style="stroke:#181818;stroke-width:1;"/><text fill="#000000" font-family="sans-serif" font-size="13" lengthAdjust="spacing" textLength="4.1323" x="98.7712" y="634.3638">&#160;</text></g><!--link user to ncc2--><g class="link" data-entity-1="user" data-entity-2="ncc2" data-source-line="38" data-uid="lnk33" id="link_user_ncc2"><path d="M43.3712,901.7269 C47.0312,851.9569 60.8912,765.8969 111.7712,716.2969 C126.3712,702.0769 139.4311,694.2388 158.8811,687.5088" fill="none" id="user-to-ncc2" style="stroke:#181818;stroke-width:1;"/><polygon fill="#181818" points="164.5512,685.5469,154.738,684.7097,159.8261,687.1818,157.3539,692.2699,164.5512,685.5469" style="stroke:#181818;stroke-width:1;"/><text fill="#000000" font-family="sans-serif" font-size="13" lengthAdjust="spacing" textLength="4.1323" x="98.7712" y="722.3638">&#160;</text></g><!--link user to ncc3--><g class="link" data-entity-1="user" data-entity-2="ncc3" data-source-line="39" data-uid="lnk34" id="link_user_ncc3"><path d="M52.9312,901.6469 C63.2612,871.4869 81.8012,830.7269 111.7712,806.2969 C128.1312,792.9769 142.4949,785.4412 162.8049,778.8412" fill="none" id="user-to-ncc3" style="stroke:#181818;stroke-width:1;"/><polygon fill="#181818" points="168.5112,776.9869,158.7156,775.9642,163.756,778.5321,161.188,783.5725,168.5112,776.9869" style="stroke:#181818;stroke-width:1;"/><text fill="#000000" font-family="sans-serif" font-size="13" lengthAdjust="spacing" textLength="4.1323" x="98.7712" y="811.3638">&#160;</text></g><!--link user to ncc4--><g class="link" data-entity-1="user" data-entity-2="ncc4" data-source-line="40" data-uid="lnk35" id="link_user_ncc4"><path d="M68.2712,921.2769 C80.9212,912.7269 96.6312,903.0569 111.7712,896.2969 C134.4412,886.1769 154.1863,879.3947 178.0263,872.6747" fill="none" id="user-to-ncc4" style="stroke:#181818;stroke-width:1;"/><polygon fill="#181818" points="183.8012,871.0469,174.0535,869.6387,178.9887,872.4034,176.224,877.3386,183.8012,871.0469" style="stroke:#181818;stroke-width:1;"/><text fill="#000000" font-family="sans-serif" font-size="13" lengthAdjust="spacing" textLength="4.1323" x="98.7712" y="896.3638">&#160;</text></g><!--link user to nca0--><g class="link" data-entity-1="user" data-entity-2="nca0" data-source-line="41" data-uid="lnk36" id="link_user_nca0"><path d="M67.9612,940.2969 C88.2212,940.2969 112.0512,940.2969 142.6312,940.2969" fill="none" id="user-to-nca0" style="stroke:#181818;stroke-width:1;"/><polygon fill="#181818" points="148.6312,940.2969,139.6312,936.2969,143.6312,940.2969,139.6312,944.2969,148.6312,940.2969" style="stroke:#181818;stroke-width:1;"/><text fill="#000000" font-family="sans-serif" font-size="13" lengthAdjust="spacing" textLength="4.1323" x="98.7712" y="936.3638">&#160;</text></g><!--link user to nca1--><g class="link" data-entity-1="user" data-entity-2="nca1" data-source-line="42" data-uid="lnk37" id="link_user_nca1"><path d="M68.2712,959.3169 C80.9212,967.8669 96.6312,977.5369 111.7712,984.2969 C134.8412,994.5869 155.0624,1001.5126 179.2624,1008.2726" fill="none" id="user-to-nca1" style="stroke:#181818;stroke-width:1;"/><polygon fill="#181818" points="185.0412,1009.8869,177.4492,1003.613,180.2256,1008.5417,175.2969,1011.318,185.0412,1009.8869" style="stroke:#181818;stroke-width:1;"/><text fill="#000000" font-family="sans-serif" font-size="13" lengthAdjust="spacing" textLength="4.1323" x="98.7712" y="975.3638">&#160;</text></g><!--link user to nca2--><g class="link" data-entity-1="user" data-entity-2="nca2" data-source-line="43" data-uid="lnk38" id="link_user_nca2"><path d="M53.0012,978.6569 C63.3812,1008.5969 81.9412,1049.0569 111.7712,1073.2969 C128.4812,1086.8669 143.3361,1094.5199 164.0761,1101.1499" fill="none" id="user-to-nca2" style="stroke:#181818;stroke-width:1;"/><polygon fill="#181818" points="169.7912,1102.9769,162.4365,1096.4264,165.0286,1101.4544,160.0006,1104.0465,169.7912,1102.9769" style="stroke:#181818;stroke-width:1;"/><text fill="#000000" font-family="sans-serif" font-size="13" lengthAdjust="spacing" textLength="4.1323" x="98.7712" y="1059.3638">&#160;</text></g><!--link user to nca3--><g class="link" data-entity-1="user" data-entity-2="nca3" data-source-line="44" data-uid="lnk39" id="link_user_nca3"><path d="M43.4812,978.5369 C47.2612,1027.8669 61.2412,1113.1669 111.7712,1162.2969 C126.6912,1176.7969 140.2383,1184.7721 160.1383,1191.5121" fill="none" id="user-to-nca3" style="stroke:#181818;stroke-width:1;"/><polygon fill="#181818" points="165.8212,1193.4369,158.58,1186.7611,161.0855,1191.8329,156.0137,1194.3383,165.8212,1193.4369" style="stroke:#181818;stroke-width:1;"/><text fill="#000000" font-family="sans-serif" font-size="13" lengthAdjust="spacing" textLength="4.1323" x="98.7712" y="1145.3638">&#160;</text></g><!--link user to simpson--><g class="link" data-entity-1="user" data-entity-2="simpson" data-source-line="45" data-uid="lnk40" id="link_user_simpson"><path d="M45.8912,978.7469 C53.8312,1052.9969 74.8012,1212.2069 111.7712,1251.2969 C125.7812,1266.0969 138.5896,1274.1703 157.9696,1280.9703" fill="none" id="user-to-simpson" style="stroke:#181818;stroke-width:1;"/><polygon fill="#181818" points="163.6312,1282.9569,156.4632,1276.2027,158.9132,1281.3014,153.8145,1283.7515,163.6312,1282.9569" style="stroke:#181818;stroke-width:1;"/><text fill="#000000" font-family="sans-serif" font-size="13" lengthAdjust="spacing" textLength="4.1323" x="98.7712" y="1226.3638">&#160;</text></g><!--link user to trapezoidal--><g class="link" data-entity-1="user" data-entity-2="trapezoidal" data-source-line="46" data-uid="lnk41" id="link_user_trapezoidal"><path d="M43.7512,978.8969 C48.1912,1068.7669 63.8212,1288.3269 111.7712,1341.2969 C124.3112,1355.1469 135.156,1362.7448 152.686,1369.6248" fill="none" id="user-to-trapezoidal" style="stroke:#181818;stroke-width:1;"/><polygon fill="#181818" points="158.2712,1371.8169,151.3547,1364.8053,153.6168,1369.9902,148.432,1372.2523,158.2712,1371.8169" style="stroke:#181818;stroke-width:1;"/><text fill="#000000" font-family="sans-serif" font-size="13" lengthAdjust="spacing" textLength="4.1323" x="98.7712" y="1317.3638">&#160;</text></g><!--link user to pmc--><g class="link" data-entity-1="user" data-entity-2="pmc" data-source-line="47" data-uid="lnk42" id="link_user_pmc"><path d="M42.2912,978.7869 C43.3912,1082.9269 51.9512,1366.9569 111.7712,1434.2969 C124.1112,1448.1869 134.7666,1455.8131 152.1266,1462.8131" fill="none" id="user-to-pmc" style="stroke:#181818;stroke-width:1;"/><polygon fill="#181818" points="157.6912,1465.0569,150.8401,1457.9814,153.054,1463.187,147.8484,1465.4009,157.6912,1465.0569" style="stroke:#181818;stroke-width:1;"/><text fill="#000000" font-family="sans-serif" font-size="13" lengthAdjust="spacing" textLength="4.1323" x="98.7712" y="1412.3638">&#160;</text></g><!--link user to inr--><g class="link" data-entity-1="user" data-entity-2="inr" data-source-line="48" data-uid="lnk43" id="link_user_inr"><path d="M44.1612,978.8669 C50.9112,1103.1869 74.6512,1487.6369 111.7712,1528.2969 C126.2412,1544.1369 140.167,1552.5572 160.717,1559.1372" fill="none" id="user-to-inr" style="stroke:#181818;stroke-width:1;"/><polygon fill="#181818" points="166.4312,1560.9669,159.0797,1554.4129,161.6694,1559.4422,156.6401,1562.0319,166.4312,1560.9669" style="stroke:#181818;stroke-width:1;"/><text fill="#000000" font-family="sans-serif" font-size="13" lengthAdjust="spacing" textLength="4.1323" x="98.7712" y="1496.3638">&#160;</text></g><!--link user to ids--><g class="link" data-entity-1="user" data-entity-2="ids" data-source-line="49" data-uid="lnk44" id="link_user_ids"><path d="M43.5312,978.6969 C48.6612,1114.5669 68.8812,1566.9469 111.7712,1614.2969 C125.3412,1629.2669 137.8293,1637.3412 157.0193,1644.0712" fill="none" id="user-to-ids" style="stroke:#181818;stroke-width:1;"/><polygon fill="#181818" points="162.6812,1646.0569,155.5121,1639.3038,157.963,1644.4022,152.8646,1646.853,162.6812,1646.0569" style="stroke:#181818;stroke-width:1;"/><text fill="#000000" font-family="sans-serif" font-size="13" lengthAdjust="spacing" textLength="4.1323" x="98.7712" y="1587.3638">&#160;</text></g><!--link user to idg--><g class="link" data-entity-1="user" data-entity-2="idg" data-source-line="50" data-uid="lnk45" id="link_user_idg"><path d="M43.0112,978.8169 C46.5812,1126.1369 62.6312,1648.3969 111.7712,1702.2969 C125.9612,1717.8569 139.4302,1726.2161 159.5202,1732.9261" fill="none" id="user-to-idg" style="stroke:#181818;stroke-width:1;"/><polygon fill="#181818" points="165.2112,1734.8269,157.9419,1728.1817,160.4687,1733.2429,155.4076,1735.7697,165.2112,1734.8269" style="stroke:#181818;stroke-width:1;"/><text fill="#000000" font-family="sans-serif" font-size="13" lengthAdjust="spacing" textLength="4.1323" x="98.7712" y="1672.3638">&#160;</text></g><!--link user to itg--><g class="link" data-entity-1="user" data-entity-2="itg" data-source-line="51" data-uid="lnk46" id="link_user_itg"><path d="M42.6212,978.8269 C44.8012,1136.7169 56.6312,1728.6869 111.7712,1789.2969 C126.0412,1804.9769 139.6557,1813.3896 159.9057,1820.0996" fill="none" id="user-to-itg" style="stroke:#181818;stroke-width:1;"/><polygon fill="#181818" points="165.6012,1821.9869,158.3162,1815.359,160.855,1820.4142,155.7999,1822.953,165.6012,1821.9869" style="stroke:#181818;stroke-width:1;"/><text fill="#000000" font-family="sans-serif" font-size="13" lengthAdjust="spacing" textLength="4.1323" x="98.7712" y="1766.3638">&#160;</text></g><!--SRC=[bPJFJjj048VlVefHxaY97LygKGab25LgQKNX0IRhmOnaxrgpwnQrue5wviQnl1ZhVo9U1u9zYVJjVFEBrxFhs1K46xG6Ce8R_xFbMnBIYb7nywE6oxfy_YUi40Y-Q4UvT0jHLD2j0sT0EBzpaB6GScpy0Yfdn3UhKTW0MgWjIHGrwwXpdmT_8_2FnmejmU8hMuS2tojgcXjDTj5eHOiREYu_smaB_AYr3_z66RV_FUb0PrPbSaWvltT2vRISxfCF9AJZXFH8GZfEI8ybnF-VO4l2lp33FY8-v5pIRsSqR8mZ2niImSo0FbsrZbPgDKEA1sbEKZ98oGnfFKZhezBPZabS8orx2PSpf64ZS3L36ZO2undIi15uS2EkA2yGVd9PsTOjgvhyFBUExUZRshLWHNyCPrW4gdjTULlVdwknNfNgaBP_iflXlJBbZYHl5TRoZbB0rkpycVPI_wwTbDaFI1TOMykeiNVoTvrhuMegkJnwYABcYe6JayzxbyOdM2nUkRyIni0V-h0Y3IlIi28UW-QuJSYq9fcGTKXmEI6JpZZfZ47dVgx6S6zYmjTHO-2_T00o6u8y0Au5Bm00]--></g></svg>