<svg xmlns="http://www.w3.org/2000/svg" xmlns:xlink="http://www.w3.org/1999/xlink" contentStyleType="text/css" data-diagram-type="STATE" height="371px" preserveAspectRatio="none" style="width:735px;height:371px;background:#FFFFFF;" version="1.1" viewBox="0 0 735 371" width="735px" zoomAndPan="magnify"><title>Detalle Caso de Uso Listar M&#243;dulos</title><defs/><g><g class="title" data-source-line="12"><text fill="#000000" font-family="sans-serif" font-size="14" font-weight="bold" lengthAdjust="spacing" textLength="278.6123" x="221.6036" y="22.9951">Detalle Caso de Uso Listar M&#243;dulos</text></g><g id="INICIO"><rect fill="#FAF4B4" height="50" rx="12.5" ry="12.5" style="stroke:#C90000;stroke-width:0.5;" width="63.6543" x="7" y="44.2969"/><line style="stroke:#C90000;stroke-width:0.5;" x1="7" x2="70.6543" y1="70.5938" y2="70.5938"/><text fill="#000000" font-family="sans-serif" font-size="14" lengthAdjust="spacing" textLength="43.6543" x="17" y="62.292">INICIO</text></g><g id=":listar_modulos"><rect fill="#FAF4B4" height="50" rx="12.5" ry="12.5" style="stroke:#C90000;stroke-width:0.5;" width="126.3262" x="176.66" y="204.2969"/><line style="stroke:#C90000;stroke-width:0.5;" x1="176.66" x2="302.9862" y1="230.5938" y2="230.5938"/><text fill="#000000" font-family="sans-serif" font-size="14" lengthAdjust="spacing" textLength="106.3262" x="186.66" y="222.292">:listar_modulos</text></g><g id="ECUACIONES_UNA_VARIABLE"><rect fill="#FAF4B4" height="50" rx="12.5" ry="12.5" style="stroke:#C90000;stroke-width:0.5;" width="224.709" x="127.47" y="44.2969"/><line style="stroke:#C90000;stroke-width:0.5;" x1="127.47" x2="352.179" y1="70.5938" y2="70.5938"/><text fill="#000000" font-family="sans-serif" font-size="14" lengthAdjust="spacing" textLength="204.709" x="137.47" y="62.292">ECUACIONES_UNA_VARIABLE</text></g><g id="DIFERENCIACION_NUMERICA_E_INTEGRACION"><rect fill="#FAF4B4" height="50" rx="12.5" ry="12.5" style="stroke:#C90000;stroke-width:0.5;" width="341.9795" x="386.84" y="44.2969"/><line style="stroke:#C90000;stroke-width:0.5;" x1="386.84" x2="728.8195" y1="70.5938" y2="70.5938"/><text fill="#000000" font-family="sans-serif" font-size="14" lengthAdjust="spacing" textLength="321.9795" x="396.84" y="62.292">DIFERENCIACION_NUMERICA_E_INTEGRACION</text></g><g id="ESTADO_PRINCIPAL"><rect fill="#FAF4B4" height="50" rx="12.5" ry="12.5" style="stroke:#C90000;stroke-width:0.5;" width="157.1563" x="161.25" y="315.2969"/><line style="stroke:#C90000;stroke-width:0.5;" x1="161.25" x2="318.4063" y1="341.5938" y2="341.5938"/><text fill="#000000" font-family="sans-serif" font-size="14" lengthAdjust="spacing" textLength="137.1563" x="171.25" y="333.292">ESTADO_PRINCIPAL</text></g><!--link INICIO to :listar_modulos--><g class="link" data-entity-1="INICIO" data-entity-2=":listar_modulos" data-source-line="15" data-uid="lnk4" id="link_INICIO_:listar_modulos"><path d="M46.33,94.6769 C55.79,125.4169 70.83,174.2969 70.83,174.2969 C70.83,174.2969 122.7445,190.8912 170.7045,206.2112" fill="none" id="INICIO-to-:listar_modulos" style="stroke:#008000;stroke-width:1;"/><polygon fill="#008000" points="176.42,208.0369,169.0639,201.488,171.6571,206.5154,166.6296,209.1086,176.42,208.0369" style="stroke:#008000;stroke-width:1;"/><path d="M75.83,129.2969 L75.83,169.2969 L226.83,169.2969 L226.83,139.2969 L216.83,129.2969 L75.83,129.2969" fill="#F5F5F5" style="stroke:#181818;stroke-width:0.5;"/><path d="M216.83,129.2969 L216.83,139.2969 L226.83,139.2969 L216.83,129.2969" fill="#F5F5F5" style="stroke:#181818;stroke-width:0.5;"/><text fill="#000000" font-family="sans-serif" font-size="13" font-weight="bold" lengthAdjust="spacing" textLength="130.9648" x="81.83" y="146.3638">Sisteme requiere:</text><text fill="#000000" font-family="sans-serif" font-size="13" lengthAdjust="spacing" textLength="102.9907" x="81.83" y="161.4966">- Listar M&#243;dulos</text></g><!--link ECUACIONES_UNA_VARIABLE to :listar_modulos--><g class="link" data-entity-1="ECUACIONES_UNA_VARIABLE" data-entity-2=":listar_modulos" data-source-line="21" data-uid="lnk6" id="link_ECUACIONES_UNA_VARIABLE_:listar_modulos"><path d="M239.83,94.6369 C239.83,124.3269 239.83,168.2269 239.83,197.9269" fill="none" id="ECUACIONES_UNA_VARIABLE-to-:listar_modulos" style="stroke:#008000;stroke-width:1;"/><polygon fill="#008000" points="239.83,203.9269,243.83,194.9269,239.83,198.9269,235.83,194.9269,239.83,203.9269" style="stroke:#008000;stroke-width:1;"/><path d="M244.83,129.2969 L244.83,169.2969 L395.83,169.2969 L395.83,139.2969 L385.83,129.2969 L244.83,129.2969" fill="#F5F5F5" style="stroke:#181818;stroke-width:0.5;"/><path d="M385.83,129.2969 L385.83,139.2969 L395.83,139.2969 L385.83,129.2969" fill="#F5F5F5" style="stroke:#181818;stroke-width:0.5;"/><text fill="#000000" font-family="sans-serif" font-size="13" font-weight="bold" lengthAdjust="spacing" textLength="130.9648" x="250.83" y="146.3638">Sisteme requiere:</text><text fill="#000000" font-family="sans-serif" font-size="13" lengthAdjust="spacing" textLength="102.9907" x="250.83" y="161.4966">- Listar M&#243;dulos</text></g><!--link DIFERENCIACION_NUMERICA_E_INTEGRACION to :listar_modulos--><g class="link" data-entity-1="DIFERENCIACION_NUMERICA_E_INTEGRACION" data-entity-2=":listar_modulos" data-source-line="27" data-uid="lnk8" id="link_DIFERENCIACION_NUMERICA_E_INTEGRACION_:listar_modulos"><path d="M522.89,94.6769 C478.85,125.4169 408.83,174.2969 408.83,174.2969 C408.83,174.2969 356.9054,190.8908 308.9554,206.2108" fill="none" id="DIFERENCIACION_NUMERICA_E_INTEGRACION-to-:listar_modulos" style="stroke:#008000;stroke-width:1;"/><polygon fill="#008000" points="303.24,208.0369,313.0304,209.108,308.0028,206.5152,310.5957,201.4875,303.24,208.0369" style="stroke:#008000;stroke-width:1;"/><path d="M483.83,129.2969 L483.83,169.2969 L634.83,169.2969 L634.83,139.2969 L624.83,129.2969 L483.83,129.2969" fill="#F5F5F5" style="stroke:#181818;stroke-width:0.5;"/><path d="M624.83,129.2969 L624.83,139.2969 L634.83,139.2969 L624.83,129.2969" fill="#F5F5F5" style="stroke:#181818;stroke-width:0.5;"/><text fill="#000000" font-family="sans-serif" font-size="13" font-weight="bold" lengthAdjust="spacing" textLength="130.9648" x="489.83" y="146.3638">Sisteme requiere:</text><text fill="#000000" font-family="sans-serif" font-size="13" lengthAdjust="spacing" textLength="102.9907" x="489.83" y="161.4966">- Listar M&#243;dulos</text></g><!--link :listar_modulos to ESTADO_PRINCIPAL--><g class="link" data-entity-1=":listar_modulos" data-entity-2="ESTADO_PRINCIPAL" data-source-line="33" data-uid="lnk10" id="link_:listar_modulos_ESTADO_PRINCIPAL"><path d="M239.83,254.7569 C239.83,272.7069 239.83,290.9869 239.83,308.9169" fill="none" id=":listar_modulos-to-ESTADO_PRINCIPAL" style="stroke:#008000;stroke-width:1;"/><polygon fill="#008000" points="239.83,314.9169,243.83,305.9169,239.83,309.9169,235.83,305.9169,239.83,314.9169" style="stroke:#008000;stroke-width:1;"/></g><!--SRC=[jO-zQiCm58LtFSM5R0P3XtHeXeAYg4NWAC6EkvGYrFWc6CkIAyj3A7sgFa9VhB9RId_e66cuwDp3EP_wfhQTzhg5FkY0y4m0bdhV7BqRRCMSSHvc1tsOFyx7ZVCL-azrVtKH3taXfFyAiUxVZCln_dIRsc8uTGYTCwVnGKYeWq5OOT0cJgPx1nL26KTMHq8FwxVNQZ2k9uG8APZOfFUpeqUq3-arBCnaKgtxy4mupev5JOHAaYBkiKNm-3JKw76H955F_uIZhQQ_4C9PIMEBv8Kg9LLtD1TqcV4pjwx43S-vP6BgLh9SyrmmghWISiTlyqa-CyEloEzjlDZHrKPjSn4HjpHx1m00]--></g></svg>