<svg xmlns="http://www.w3.org/2000/svg" xmlns:xlink="http://www.w3.org/1999/xlink" contentStyleType="text/css" data-diagram-type="STATE" height="590px" preserveAspectRatio="none" style="width:393px;height:590px;background:#FFFFFF;" version="1.1" viewBox="0 0 393 590" width="393px" zoomAndPan="magnify"><title>Diagrama de Contexto General</title><defs/><g><g class="title" data-source-line="9"><text fill="#000000" font-family="sans-serif" font-size="14" font-weight="bold" lengthAdjust="spacing" textLength="243.4004" x="64.5898" y="22.9951">Diagrama de Contexto General</text></g><path d="M19.5,158.2969 L367.08,158.2969 A12.5,12.5 0 0 1 379.58,170.7969 L379.58,184.5937 L7,184.5937 L7,170.7969 A12.5,12.5 0 0 1 19.5,158.2969" fill="#FAF4B4"/><rect fill="none" height="309.2969" rx="12.5" ry="12.5" style="stroke:#C90000;stroke-width:0.5;" width="372.58" x="7" y="158.2969"/><line style="stroke:#C90000;stroke-width:0.5;" x1="7" x2="379.58" y1="184.5937" y2="184.5937"/><text fill="#000000" font-family="sans-serif" font-size="14" lengthAdjust="spacing" textLength="32.293" x="177.1435" y="176.292">WEB</text><ellipse cx="97.58" cy="205.5937" fill="#222222" rx="10" ry="10" style="stroke:#222222;stroke-width:1;"/><g id="WEB.ESTADO_PRINCIPAL"><rect fill="#FAF4B4" height="50" rx="12.5" ry="12.5" style="stroke:#C90000;stroke-width:0.5;" width="157.1563" x="19" y="286.5937"/><line style="stroke:#C90000;stroke-width:0.5;" x1="19" x2="176.1563" y1="312.8906" y2="312.8906"/><text fill="#000000" font-family="sans-serif" font-size="14" lengthAdjust="spacing" textLength="137.1563" x="29" y="304.5889">ESTADO_PRINCIPAL</text></g><g id="WEB.OPERACION"><rect fill="#FAF4B4" height="50" rx="12.5" ry="12.5" style="stroke:#C90000;stroke-width:0.5;" width="103.0088" x="46.07" y="407.5937"/><line style="stroke:#C90000;stroke-width:0.5;" x1="46.07" x2="149.0788" y1="433.8906" y2="433.8906"/><text fill="#000000" font-family="sans-serif" font-size="14" lengthAdjust="spacing" textLength="83.0088" x="56.07" y="425.5889">OPERACION</text></g><!--link *start*WEB to ESTADO_PRINCIPAL--><g class="link" data-entity-1="*start*WEB" data-entity-2="ESTADO_PRINCIPAL" data-source-line="17" data-uid="lnk6" id="link_*start*WEB_ESTADO_PRINCIPAL"><path d="M97.58,215.8237 C97.58,231.5337 97.58,257.9537 97.58,280.4637" fill="none" id="*start*WEB-to-ESTADO_PRINCIPAL" style="stroke:#218C00;stroke-width:1;"/><polygon fill="#218C00" points="97.58,286.4637,101.58,277.4637,97.58,281.4637,93.58,277.4637,97.58,286.4637" style="stroke:#218C00;stroke-width:1;"/><path d="M102.58,238.5937 L102.58,263.5937 L314.58,263.5937 L314.58,248.5937 L304.58,238.5937 L102.58,238.5937" fill="#F5F5F5" style="stroke:#C90000;stroke-width:0.5;"/><path d="M304.58,238.5937 L304.58,248.5937 L314.58,248.5937 L304.58,238.5937" fill="#F5F5F5" style="stroke:#C90000;stroke-width:0.5;"/><text fill="#000000" font-family="sans-serif" font-size="13" lengthAdjust="spacing" textLength="191.6421" x="108.58" y="255.6606">Listar M&#243;dulos y Operaciones</text></g><!--link ESTADO_PRINCIPAL to OPERACION--><g class="link" data-entity-1="ESTADO_PRINCIPAL" data-entity-2="OPERACION" data-source-line="22" data-uid="lnk8" id="link_ESTADO_PRINCIPAL_OPERACION"><path d="M52.79,337.0237 C35.85,346.2637 20.58,354.5937 20.58,354.5937 C20.58,354.5937 20.58,389.5937 20.58,389.5937 C20.58,389.5937 30.5826,395.0506 47.5226,404.2906" fill="none" id="ESTADO_PRINCIPAL-to-OPERACION" style="stroke:#218C00;stroke-width:1;"/><polygon fill="#218C00" points="52.79,407.1637,46.8043,399.3425,48.4005,404.7695,42.9735,406.3657,52.79,407.1637" style="stroke:#218C00;stroke-width:1;"/><path d="M25.58,359.5937 L25.58,384.5937 L148.58,384.5937 L148.58,369.5937 L138.58,359.5937 L25.58,359.5937" fill="#F5F5F5" style="stroke:#C90000;stroke-width:0.5;"/><path d="M138.58,359.5937 L138.58,369.5937 L148.58,369.5937 L138.58,359.5937" fill="#F5F5F5" style="stroke:#C90000;stroke-width:0.5;"/><text fill="#000000" font-family="sans-serif" font-size="13" lengthAdjust="spacing" textLength="102.3242" x="31.58" y="376.6606">Abrir Operaci&#243;n</text></g><!--link OPERACION to ESTADO_PRINCIPAL--><g class="link" data-entity-1="OPERACION" data-entity-2="ESTADO_PRINCIPAL" data-source-line="27" data-uid="lnk9" id="link_OPERACION_ESTADO_PRINCIPAL"><path d="M130.15,407.1637 C142.47,397.9237 153.58,389.5937 153.58,389.5937 C153.58,389.5937 153.58,354.5937 153.58,354.5937 C153.58,354.5937 147.27,349.8638 134.95,340.6238" fill="none" id="OPERACION-to-ESTADO_PRINCIPAL" style="stroke:#218C00;stroke-width:1;"/><polygon fill="#218C00" points="130.15,337.0237,134.95,345.6238,134.15,340.0237,139.75,339.2238,130.15,337.0237" style="stroke:#218C00;stroke-width:1;"/><path d="M158.58,359.5937 L158.58,384.5937 L370.58,384.5937 L370.58,369.5937 L360.58,359.5937 L158.58,359.5937" fill="#F5F5F5" style="stroke:#C90000;stroke-width:0.5;"/><path d="M360.58,359.5937 L360.58,369.5937 L370.58,369.5937 L360.58,359.5937" fill="#F5F5F5" style="stroke:#C90000;stroke-width:0.5;"/><text fill="#000000" font-family="sans-serif" font-size="13" lengthAdjust="spacing" textLength="191.6421" x="164.58" y="376.6606">Listar M&#243;dulos y Operaciones</text></g><!--link OPERACION to OPERACION--><g class="link" data-entity-1="OPERACION" data-entity-2="OPERACION" data-source-line="32" data-uid="lnk10" id="link_OPERACION_OPERACION"><path d="M149.41,421.7137 C159.73,422.9437 167.08,426.5637 167.08,432.5937 C167.08,438.6238 165.6878,441.5337 155.3678,442.7637" fill="none" id="OPERACION-to-OPERACION" style="stroke:#218C00;stroke-width:1;"/><polygon fill="#218C00" points="149.41,443.4737,158.8201,446.3805,154.3749,442.882,157.8734,438.4367,149.41,443.4737" style="stroke:#218C00;stroke-width:1;"/><path d="M172.08,420.0937 L172.08,445.0937 L307.08,445.0937 L307.08,430.0937 L297.08,420.0937 L172.08,420.0937" fill="#F5F5F5" style="stroke:#C90000;stroke-width:0.5;"/><path d="M297.08,420.0937 L297.08,430.0937 L307.08,430.0937 L297.08,420.0937" fill="#F5F5F5" style="stroke:#C90000;stroke-width:0.5;"/><text fill="#000000" font-family="sans-serif" font-size="13" lengthAdjust="spacing" textLength="106.6089" x="178.08" y="437.1606">Crear Operaci&#243;n</text></g><ellipse cx="193.29" cy="53.2969" fill="#222222" rx="10" ry="10" style="stroke:#222222;stroke-width:1;"/><ellipse cx="193.29" cy="573.5969" fill="none" rx="11" ry="11" style="stroke:#222222;stroke-width:1;"/><ellipse cx="193.29" cy="573.5969" fill="#222222" rx="6" ry="6" style="stroke:#222222;stroke-width:1;"/><!--link *start* to WEB--><g class="link" data-entity-1="*start*" data-entity-2="WEB" data-source-line="11" data-uid="lnk3" id="link_*start*_WEB"><path d="M193.29,63.7769 C193.29,80.5669 193.29,111.6269 193.29,152.1169" fill="none" id="*start*-to-WEB" style="stroke:#218C00;stroke-width:1;"/><polygon fill="#218C00" points="193.29,158.1169,197.29,149.1169,193.29,153.1169,189.29,149.1169,193.29,158.1169" style="stroke:#218C00;stroke-width:1;"/><path d="M198.29,98.2969 L198.29,123.2969 L292.29,123.2969 L292.29,108.2969 L282.29,98.2969 L198.29,98.2969" fill="#F5F5F5" style="stroke:#C90000;stroke-width:0.5;"/><path d="M282.29,98.2969 L282.29,108.2969 L292.29,108.2969 L282.29,98.2969" fill="#F5F5F5" style="stroke:#C90000;stroke-width:0.5;"/><text fill="#000000" font-family="sans-serif" font-size="13" lengthAdjust="spacing" textLength="65.5649" x="204.29" y="115.3638">Abrir WEB</text></g><!--link WEB to *end*--><g class="link" data-entity-1="WEB" data-entity-2="*end*" data-source-line="40" data-uid="lnk12" id="link_WEB_*end*"><path d="M193.29,467.7669 C193.29,507.9069 193.29,538.7769 193.29,556.1369" fill="none" id="WEB-to-*end*" style="stroke:#218C00;stroke-width:1;"/><polygon fill="#218C00" points="193.29,562.1369,197.29,553.1369,193.29,557.1369,189.29,553.1369,193.29,562.1369" style="stroke:#218C00;stroke-width:1;"/><path d="M198.29,502.5969 L198.29,527.5969 L294.29,527.5969 L294.29,512.5969 L284.29,502.5969 L198.29,502.5969" fill="#F5F5F5" style="stroke:#C90000;stroke-width:0.5;"/><path d="M284.29,502.5969 L284.29,512.5969 L294.29,512.5969 L284.29,502.5969" fill="#F5F5F5" style="stroke:#C90000;stroke-width:0.5;"/><text fill="#000000" font-family="sans-serif" font-size="13" lengthAdjust="spacing" textLength="75.1943" x="204.29" y="519.6638">Cerrar WEB</text></g><!--SRC=[hL31IiD05Bo_htZWJGXOgQ0N8KsA16eJse874TachtL9t0qlMpI8NzLFw8-v6qARfgKdTq-xCszctbIvLALWyObA6ng9D5-ptgWiq8Lcl5hTkGlLCKjpHjmoqeSRUpeCmQo_Ml1sS9yUWPKHvrp4QhWSdj0ksXHIaQbBmb8NjNlq8om-P9ehgYeS01Xf2i9GYhN51MQ4WLQ6let69rB4eW1ulNv3ptl4b_48t9gebNF90T5VicG780Afh6a1OEvIDhy_- -7nVE67yNioYwP1bFYJlj94sjqOdtVRR5Fe2ckCIskVIcsZThJxEbvcnUDaFFE3A9xY-O2jr6whzae8S9XgHFuhOKSsl9WjO1BTR9qERJhu1N0Lkl9iYIV3n2oQwlT3Vm00]--></g></svg>