<svg xmlns="http://www.w3.org/2000/svg" xmlns:xlink="http://www.w3.org/1999/xlink" contentStyleType="text/css" data-diagram-type="STATE" height="917px" preserveAspectRatio="none" style="width:373px;height:917px;background:#FFFFFF;" version="1.1" viewBox="0 0 373 917" width="373px" zoomAndPan="magnify"><title>Detalle Caso de Uso Abrir M&#233;todo Bisecci&#243;n</title><defs/><g><g class="title" data-source-line="12"><text fill="#000000" font-family="sans-serif" font-size="14" font-weight="bold" lengthAdjust="spacing" textLength="345.2217" x="10" y="22.9951">Detalle Caso de Uso Abrir M&#233;todo Bisecci&#243;n</text></g><path d="M46.1108,204.2969 L277.1108,204.2969 A12.5,12.5 0 0 1 289.6108,216.7969 L289.6108,230.5938 L33.6108,230.5938 L33.6108,216.7969 A12.5,12.5 0 0 1 46.1108,204.2969" fill="#FAF4B4"/><rect fill="none" height="485.2969" rx="12.5" ry="12.5" style="stroke:#C90000;stroke-width:0.5;" width="256" x="33.6108" y="204.2969"/><line style="stroke:#C90000;stroke-width:0.5;" x1="33.6108" x2="289.6108" y1="230.5938" y2="230.5938"/><text fill="#000000" font-family="sans-serif" font-size="14" lengthAdjust="spacing" textLength="105.2734" x="108.9741" y="222.292">abrir_biseccion</text><g id="abrir_biseccion.1"><rect fill="#FAF4B4" height="50" rx="12.5" ry="12.5" style="stroke:#C90000;stroke-width:0.5;" width="50" x="45.6108" y="298.5938"/><line style="stroke:#C90000;stroke-width:0.5;" x1="45.6108" x2="95.6108" y1="324.8906" y2="324.8906"/><text fill="#000000" font-family="sans-serif" font-size="14" lengthAdjust="spacing" textLength="4.4502" x="68.3857" y="316.5889">&#160;</text></g><g id="abrir_biseccion.2"><rect fill="#FAF4B4" height="50" rx="12.5" ry="12.5" style="stroke:#C90000;stroke-width:0.5;" width="50" x="45.6108" y="434.5938"/><line style="stroke:#C90000;stroke-width:0.5;" x1="45.6108" x2="95.6108" y1="460.8906" y2="460.8906"/><text fill="#000000" font-family="sans-serif" font-size="14" lengthAdjust="spacing" textLength="4.4502" x="68.3857" y="452.5889">&#160;</text></g><g id="abrir_biseccion.3"><rect fill="#FAF4B4" height="50" rx="12.5" ry="12.5" style="stroke:#C90000;stroke-width:0.5;" width="50" x="45.6108" y="570.5938"/><line style="stroke:#C90000;stroke-width:0.5;" x1="45.6108" x2="95.6108" y1="596.8906" y2="596.8906"/><text fill="#000000" font-family="sans-serif" font-size="14" lengthAdjust="spacing" textLength="4.4502" x="68.3857" y="588.5889">&#160;</text></g><ellipse cx="70.6108" cy="251.5938" fill="#222222" rx="10" ry="10" style="stroke:#222222;stroke-width:1;"/><ellipse cx="70.6108" cy="668.5938" fill="none" rx="11" ry="11" style="stroke:#222222;stroke-width:1;"/><ellipse cx="70.6108" cy="668.5938" fill="#222222" rx="6" ry="6" style="stroke:#222222;stroke-width:1;"/><!--link *start*abrir_biseccion to 1--><g class="link" data-entity-1="*start*abrir_biseccion" data-entity-2="1" data-source-line="26" data-uid="lnk5" id="link_*start*abrir_biseccion_1"><path d="M70.6108,262.0338 C70.6108,271.2938 70.6108,279.7838 70.6108,292.2738" fill="none" id="*start*abrir_biseccion-to-1" style="stroke:#008000;stroke-width:1;"/><polygon fill="#008000" points="70.6108,298.2738,74.6108,289.2738,70.6108,293.2738,66.6108,289.2738,70.6108,298.2738" style="stroke:#008000;stroke-width:1;"/></g><!--link 1 to 2--><g class="link" data-entity-1="1" data-entity-2="2" data-source-line="27" data-uid="lnk6" id="link_1_2"><path d="M70.6108,348.8638 C70.6108,373.1438 70.6108,404.2838 70.6108,428.5037" fill="none" id="1-to-2" style="stroke:#008000;stroke-width:1;"/><polygon fill="#008000" points="70.6108,434.5037,74.6108,425.5037,70.6108,429.5037,66.6108,425.5037,70.6108,434.5037" style="stroke:#008000;stroke-width:1;"/><path d="M75.6108,371.5938 L75.6108,411.5938 L280.6108,411.5938 L280.6108,381.5938 L270.6108,371.5938 L75.6108,371.5938" fill="#F5F5F5" style="stroke:#181818;stroke-width:0.5;"/><path d="M270.6108,371.5938 L270.6108,381.5938 L280.6108,381.5938 L270.6108,371.5938" fill="#F5F5F5" style="stroke:#181818;stroke-width:0.5;"/><text fill="#000000" font-family="sans-serif" font-size="13" font-weight="bold" lengthAdjust="spacing" textLength="130.9204" x="81.6108" y="388.6606">Sistema requiere:</text><text fill="#000000" font-family="sans-serif" font-size="13" lengthAdjust="spacing" textLength="184.5518" x="81.6108" y="403.7935">- M&#233;todo bisecci&#243;n conocido</text></g><!--link 2 to 3--><g class="link" data-entity-1="2" data-entity-2="3" data-source-line="32" data-uid="lnk7" id="link_2_3"><path d="M70.6108,484.8638 C70.6108,509.1438 70.6108,540.2838 70.6108,564.5038" fill="none" id="2-to-3" style="stroke:#008000;stroke-width:1;"/><polygon fill="#008000" points="70.6108,570.5038,74.6108,561.5038,70.6108,565.5038,66.6108,561.5038,70.6108,570.5038" style="stroke:#008000;stroke-width:1;"/><path d="M75.6108,507.5938 L75.6108,547.5938 L280.6108,547.5938 L280.6108,517.5938 L270.6108,507.5938 L75.6108,507.5938" fill="#F5F5F5" style="stroke:#181818;stroke-width:0.5;"/><path d="M270.6108,507.5938 L270.6108,517.5938 L280.6108,517.5938 L270.6108,507.5938" fill="#F5F5F5" style="stroke:#181818;stroke-width:0.5;"/><text fill="#000000" font-family="sans-serif" font-size="13" font-weight="bold" lengthAdjust="spacing" textLength="139.5596" x="81.6108" y="524.6606">Cliente Selecciona:</text><text fill="#000000" font-family="sans-serif" font-size="13" lengthAdjust="spacing" textLength="184.5518" x="81.6108" y="539.7935">- M&#233;todo bisecci&#243;n conocido</text></g><!--link 3 to *end*abrir_biseccion--><g class="link" data-entity-1="3" data-entity-2="*end*abrir_biseccion" data-source-line="38" data-uid="lnk9" id="link_3_*end*abrir_biseccion"><path d="M70.6108,621.0238 C70.6108,633.3838 70.6108,641.7238 70.6108,651.1938" fill="none" id="3-to-*end*abrir_biseccion" style="stroke:#008000;stroke-width:1;"/><polygon fill="#008000" points="70.6108,657.1938,74.6108,648.1938,70.6108,652.1938,66.6108,648.1938,70.6108,657.1938" style="stroke:#008000;stroke-width:1;"/></g><g id="ECUACIONES_UNA_VARIABLE"><rect fill="#FAF4B4" height="50" rx="12.5" ry="12.5" style="stroke:#C90000;stroke-width:0.5;" width="224.709" x="49.2608" y="44.2969"/><line style="stroke:#C90000;stroke-width:0.5;" x1="49.2608" x2="273.9698" y1="70.5938" y2="70.5938"/><text fill="#000000" font-family="sans-serif" font-size="14" lengthAdjust="spacing" textLength="204.709" x="59.2608" y="62.292">ECUACIONES_UNA_VARIABLE</text></g><g id=":abrirBiseccion"><rect fill="#FAF4B4" height="50" rx="12.5" ry="12.5" style="stroke:#C90000;stroke-width:0.5;" width="123.708" x="99.7608" y="750.5969"/><line style="stroke:#C90000;stroke-width:0.5;" x1="99.7608" x2="223.4688" y1="776.8938" y2="776.8938"/><text fill="#000000" font-family="sans-serif" font-size="14" lengthAdjust="spacing" textLength="103.708" x="109.7608" y="768.592">:abrirBiseccion</text></g><g id="BISECCION"><rect fill="#FAF4B4" height="50" rx="12.5" ry="12.5" style="stroke:#C90000;stroke-width:0.5;" width="96.6377" x="113.2908" y="861.5969"/><line style="stroke:#C90000;stroke-width:0.5;" x1="113.2908" x2="209.9285" y1="887.8938" y2="887.8938"/><text fill="#000000" font-family="sans-serif" font-size="14" lengthAdjust="spacing" textLength="76.6377" x="123.2908" y="879.592">BISECCION</text></g><!--link ECUACIONES_UNA_VARIABLE to abrir_biseccion--><g class="link" data-entity-1="ECUACIONES_UNA_VARIABLE" data-entity-2="abrir_biseccion" data-source-line="15" data-uid="lnk3" id="link_ECUACIONES_UNA_VARIABLE_abrir_biseccion"><path d="M161.6108,94.6569 C161.6108,119.0469 161.6108,153.2969 161.6108,198.0169" fill="none" id="ECUACIONES_UNA_VARIABLE-to-abrir_biseccion" style="stroke:#008000;stroke-width:1;"/><polygon fill="#008000" points="161.6108,204.0169,165.6108,195.0169,161.6108,199.0169,157.6108,195.0169,161.6108,204.0169" style="stroke:#008000;stroke-width:1;"/><path d="M166.6108,129.2969 L166.6108,169.2969 L345.6108,169.2969 L345.6108,139.2969 L335.6108,129.2969 L166.6108,129.2969" fill="#F5F5F5" style="stroke:#181818;stroke-width:0.5;"/><path d="M335.6108,129.2969 L335.6108,139.2969 L345.6108,139.2969 L335.6108,129.2969" fill="#F5F5F5" style="stroke:#181818;stroke-width:0.5;"/><text fill="#000000" font-family="sans-serif" font-size="13" font-weight="bold" lengthAdjust="spacing" textLength="114.0103" x="172.6108" y="146.3638">Cliente solicita:</text><text fill="#000000" font-family="sans-serif" font-size="13" lengthAdjust="spacing" textLength="158.4058" x="172.6108" y="161.4966">- Abrir M&#233;todo Bisecci&#243;n</text></g><!--link abrir_biseccion to :abrirBiseccion--><g class="link" data-entity-1="abrir_biseccion" data-entity-2=":abrirBiseccion" data-source-line="41" data-uid="lnk11" id="link_abrir_biseccion_:abrirBiseccion"><path d="M161.6108,690.0569 C161.6108,714.2169 161.6108,729.3469 161.6108,744.4469" fill="none" id="abrir_biseccion-to-:abrirBiseccion" style="stroke:#008000;stroke-width:1;"/><polygon fill="#008000" points="161.6108,750.4469,165.6108,741.4469,161.6108,745.4469,157.6108,741.4469,161.6108,750.4469" style="stroke:#008000;stroke-width:1;"/></g><!--link :abrirBiseccion to BISECCION--><g class="link" data-entity-1=":abrirBiseccion" data-entity-2="BISECCION" data-source-line="43" data-uid="lnk13" id="link_:abrirBiseccion_BISECCION"><path d="M161.6108,801.0569 C161.6108,819.0069 161.6108,837.2869 161.6108,855.2169" fill="none" id=":abrirBiseccion-to-BISECCION" style="stroke:#008000;stroke-width:1;"/><polygon fill="#008000" points="161.6108,861.2169,165.6108,852.2169,161.6108,856.2169,157.6108,852.2169,161.6108,861.2169" style="stroke:#008000;stroke-width:1;"/></g><!--SRC=[ZLBBQiCm4BphAvRaPZ0qZnwQGy5sVGYqATIabn22R6-2YA9D9UKGIZ-evtv2VgoItJgnQQ0hWz3iQcTcBRCLQiyrtu6nt2AyCu2O5zkDfeCg4vAaeR_cwt4-zXdI9UeVjBYxSS4-63DD4qLNUzpwrQwMGg4zxX7s98_-m9WLLY8yeENIxGat12N2t6rHheM6fzEdfP8W5WQBGfo-56CiJUPHCdsUfTbgFejMhz7BD8eVKmWN_Or6LClm7hY_lihhQwHOfPIKrx1rUeCWaGALmmn9KGZB9q7WyF0wBwgoykiSLQFhCFWfr8a1S0Czw3N0i0kCpe3x5i6o9NtWi44B6JgaOy1746J2MDnnqFXs4AYnDk4ZR2paZGKeI54XId8rZHjmyYwvHdzndSULeQpzyb-k_pEvmwZ5vPpx5zAPv6N5fCh5pMza7Q3LBfvcQU8VnZS0]--></g></svg>