<svg xmlns="http://www.w3.org/2000/svg" xmlns:xlink="http://www.w3.org/1999/xlink" contentStyleType="text/css" data-diagram-type="STATE" height="917px" preserveAspectRatio="none" style="width:411px;height:917px;background:#FFFFFF;" version="1.1" viewBox="0 0 411 917" width="411px" zoomAndPan="magnify"><title>Detalle Caso de Uso Abrir M&#233;todo Falsa Posici&#243;n</title><defs/><g><g class="title" data-source-line="12"><text fill="#000000" font-family="sans-serif" font-size="14" font-weight="bold" lengthAdjust="spacing" textLength="383.0996" x="10" y="22.9951">Detalle Caso de Uso Abrir M&#233;todo Falsa Posici&#243;n</text></g><path d="M43.0498,204.2969 L302.0498,204.2969 A12.5,12.5 0 0 1 314.5498,216.7969 L314.5498,230.5938 L30.5498,230.5938 L30.5498,216.7969 A12.5,12.5 0 0 1 43.0498,204.2969" fill="#FAF4B4" style="stroke:#FAF4B4;stroke-width:1;"/><rect fill="none" height="485.2969" rx="12.5" ry="12.5" style="stroke:#C90000;stroke-width:0.5;" width="284" x="30.5498" y="204.2969"/><line style="stroke:#C90000;stroke-width:0.5;" x1="30.5498" x2="314.5498" y1="230.5938" y2="230.5938"/><text fill="#000000" font-family="sans-serif" font-size="14" lengthAdjust="spacing" textLength="137.7988" x="103.6504" y="222.292">abrir_falsa_posicion</text><g id="abrir_falsa_posicion.1"><rect fill="#FAF4B4" height="50" rx="12.5" ry="12.5" style="stroke:#C90000;stroke-width:0.5;" width="50" x="42.5498" y="298.5938"/><line style="stroke:#C90000;stroke-width:0.5;" x1="42.5498" x2="92.5498" y1="324.8906" y2="324.8906"/><text fill="#000000" font-family="sans-serif" font-size="14" lengthAdjust="spacing" textLength="4.4502" x="65.3247" y="316.5889">&#160;</text></g><g id="abrir_falsa_posicion.2"><rect fill="#FAF4B4" height="50" rx="12.5" ry="12.5" style="stroke:#C90000;stroke-width:0.5;" width="50" x="42.5498" y="434.5938"/><line style="stroke:#C90000;stroke-width:0.5;" x1="42.5498" x2="92.5498" y1="460.8906" y2="460.8906"/><text fill="#000000" font-family="sans-serif" font-size="14" lengthAdjust="spacing" textLength="4.4502" x="65.3247" y="452.5889">&#160;</text></g><g id="abrir_falsa_posicion.3"><rect fill="#FAF4B4" height="50" rx="12.5" ry="12.5" style="stroke:#C90000;stroke-width:0.5;" width="50" x="42.5498" y="570.5938"/><line style="stroke:#C90000;stroke-width:0.5;" x1="42.5498" x2="92.5498" y1="596.8906" y2="596.8906"/><text fill="#000000" font-family="sans-serif" font-size="14" lengthAdjust="spacing" textLength="4.4502" x="65.3247" y="588.5889">&#160;</text></g><ellipse cx="67.5498" cy="251.5938" fill="#222222" rx="10" ry="10" style="stroke:#222222;stroke-width:1;"/><ellipse cx="67.5498" cy="668.5938" fill="none" rx="11" ry="11" style="stroke:#222222;stroke-width:1;"/><ellipse cx="67.5498" cy="668.5938" fill="#222222" rx="6" ry="6" style="stroke:#222222;stroke-width:1;"/><!--link *start*abrir_falsa_posicion to 1--><g class="link" data-entity-1="*start*abrir_falsa_posicion" data-entity-2="1" data-source-line="26" data-uid="lnk5" id="link_*start*abrir_falsa_posicion_1"><path d="M67.5498,262.0338 C67.5498,271.2938 67.5498,279.7838 67.5498,292.2738" fill="none" id="*start*abrir_falsa_posicion-to-1" style="stroke:#008000;stroke-width:1;"/><polygon fill="#008000" points="67.5498,298.2738,71.5498,289.2738,67.5498,293.2738,63.5498,289.2738,67.5498,298.2738" style="stroke:#008000;stroke-width:1;"/></g><!--link 1 to 2--><g class="link" data-entity-1="1" data-entity-2="2" data-source-line="27" data-uid="lnk6" id="link_1_2"><path d="M67.5498,348.8638 C67.5498,373.1438 67.5498,404.2838 67.5498,428.5037" fill="none" id="1-to-2" style="stroke:#008000;stroke-width:1;"/><polygon fill="#008000" points="67.5498,434.5037,71.5498,425.5037,67.5498,429.5037,63.5498,425.5037,67.5498,434.5037" style="stroke:#008000;stroke-width:1;"/><path d="M72.5498,371.5938 L72.5498,411.5938 L305.5498,411.5938 L305.5498,381.5938 L295.5498,371.5938 L72.5498,371.5938" fill="#F5F5F5" style="stroke:#181818;stroke-width:0.5;"/><path d="M295.5498,371.5938 L295.5498,381.5938 L305.5498,381.5938 L295.5498,371.5938" fill="#F5F5F5" style="stroke:#181818;stroke-width:0.5;"/><text fill="#000000" font-family="sans-serif" font-size="13" font-weight="bold" lengthAdjust="spacing" textLength="130.9204" x="78.5498" y="388.6606">Sistema requiere:</text><text fill="#000000" font-family="sans-serif" font-size="13" lengthAdjust="spacing" textLength="212.3862" x="78.5498" y="403.7935">- M&#233;todo falsa posici&#243;n conocido</text></g><!--link 2 to 3--><g class="link" data-entity-1="2" data-entity-2="3" data-source-line="32" data-uid="lnk7" id="link_2_3"><path d="M67.5498,484.8638 C67.5498,509.1438 67.5498,540.2838 67.5498,564.5038" fill="none" id="2-to-3" style="stroke:#008000;stroke-width:1;"/><polygon fill="#008000" points="67.5498,570.5038,71.5498,561.5038,67.5498,565.5038,63.5498,561.5038,67.5498,570.5038" style="stroke:#008000;stroke-width:1;"/><path d="M72.5498,507.5938 L72.5498,547.5938 L305.5498,547.5938 L305.5498,517.5938 L295.5498,507.5938 L72.5498,507.5938" fill="#F5F5F5" style="stroke:#181818;stroke-width:0.5;"/><path d="M295.5498,507.5938 L295.5498,517.5938 L305.5498,517.5938 L295.5498,507.5938" fill="#F5F5F5" style="stroke:#181818;stroke-width:0.5;"/><text fill="#000000" font-family="sans-serif" font-size="13" font-weight="bold" lengthAdjust="spacing" textLength="144.1235" x="78.5498" y="524.6606">Usuario Selecciona:</text><text fill="#000000" font-family="sans-serif" font-size="13" lengthAdjust="spacing" textLength="212.3862" x="78.5498" y="539.7935">- M&#233;todo falsa posici&#243;n conocido</text></g><!--link 3 to *end*abrir_falsa_posicion--><g class="link" data-entity-1="3" data-entity-2="*end*abrir_falsa_posicion" data-source-line="38" data-uid="lnk9" id="link_3_*end*abrir_falsa_posicion"><path d="M67.5498,621.0238 C67.5498,633.3838 67.5498,641.7238 67.5498,651.1938" fill="none" id="3-to-*end*abrir_falsa_posicion" style="stroke:#008000;stroke-width:1;"/><polygon fill="#008000" points="67.5498,657.1938,71.5498,648.1938,67.5498,652.1938,63.5498,648.1938,67.5498,657.1938" style="stroke:#008000;stroke-width:1;"/></g><g id="ECUACIONES_UNA_VARIABLE"><rect fill="#FAF4B4" height="50" rx="12.5" ry="12.5" style="stroke:#C90000;stroke-width:0.5;" width="224.709" x="60.1998" y="44.2969"/><line style="stroke:#C90000;stroke-width:0.5;" x1="60.1998" x2="284.9088" y1="70.5938" y2="70.5938"/><text fill="#000000" font-family="sans-serif" font-size="14" lengthAdjust="spacing" textLength="204.709" x="70.1998" y="62.292">ECUACIONES_UNA_VARIABLE</text></g><g id=":abrirFalsaPosicion"><rect fill="#FAF4B4" height="50" rx="12.5" ry="12.5" style="stroke:#C90000;stroke-width:0.5;" width="151.1953" x="96.9498" y="750.5969"/><line style="stroke:#C90000;stroke-width:0.5;" x1="96.9498" x2="248.1451" y1="776.8938" y2="776.8938"/><text fill="#000000" font-family="sans-serif" font-size="14" lengthAdjust="spacing" textLength="131.1953" x="106.9498" y="768.592">:abrirFalsaPosicion</text></g><g id="FALSA_POSICION"><rect fill="#FAF4B4" height="50" rx="12.5" ry="12.5" style="stroke:#C90000;stroke-width:0.5;" width="138.7676" x="103.1698" y="861.5969"/><line style="stroke:#C90000;stroke-width:0.5;" x1="103.1698" x2="241.9374" y1="887.8938" y2="887.8938"/><text fill="#000000" font-family="sans-serif" font-size="14" lengthAdjust="spacing" textLength="118.7676" x="113.1698" y="879.592">FALSA_POSICION</text></g><!--link ECUACIONES_UNA_VARIABLE to abrir_falsa_posicion--><g class="link" data-entity-1="ECUACIONES_UNA_VARIABLE" data-entity-2="abrir_falsa_posicion" data-source-line="15" data-uid="lnk3" id="link_ECUACIONES_UNA_VARIABLE_abrir_falsa_posicion"><path d="M172.5498,94.6569 C172.5498,119.0469 172.5498,153.2969 172.5498,198.0169" fill="none" id="ECUACIONES_UNA_VARIABLE-to-abrir_falsa_posicion" style="stroke:#008000;stroke-width:1;"/><polygon fill="#008000" points="172.5498,204.0169,176.5498,195.0169,172.5498,199.0169,168.5498,195.0169,172.5498,204.0169" style="stroke:#008000;stroke-width:1;"/><path d="M177.5498,129.2969 L177.5498,169.2969 L386.5498,169.2969 L386.5498,139.2969 L376.5498,129.2969 L177.5498,129.2969" fill="#F5F5F5" style="stroke:#181818;stroke-width:0.5;"/><path d="M376.5498,129.2969 L376.5498,139.2969 L386.5498,139.2969 L376.5498,129.2969" fill="#F5F5F5" style="stroke:#181818;stroke-width:0.5;"/><text fill="#000000" font-family="sans-serif" font-size="13" font-weight="bold" lengthAdjust="spacing" textLength="118.5742" x="183.5498" y="146.3638">Usuario solicita:</text><text fill="#000000" font-family="sans-serif" font-size="13" lengthAdjust="spacing" textLength="188.062" x="183.5498" y="161.4966">- Abrir M&#233;todo Falsa Posici&#243;n</text></g><!--link abrir_falsa_posicion to :abrirFalsaPosicion--><g class="link" data-entity-1="abrir_falsa_posicion" data-entity-2=":abrirFalsaPosicion" data-source-line="41" data-uid="lnk11" id="link_abrir_falsa_posicion_:abrirFalsaPosicion"><path d="M172.5498,690.0569 C172.5498,714.2169 172.5498,729.3469 172.5498,744.4469" fill="none" id="abrir_falsa_posicion-to-:abrirFalsaPosicion" style="stroke:#008000;stroke-width:1;"/><polygon fill="#008000" points="172.5498,750.4469,176.5498,741.4469,172.5498,745.4469,168.5498,741.4469,172.5498,750.4469" style="stroke:#008000;stroke-width:1;"/></g><!--link :abrirFalsaPosicion to FALSA_POSICION--><g class="link" data-entity-1=":abrirFalsaPosicion" data-entity-2="FALSA_POSICION" data-source-line="43" data-uid="lnk13" id="link_:abrirFalsaPosicion_FALSA_POSICION"><path d="M172.5498,801.0569 C172.5498,819.0069 172.5498,837.2869 172.5498,855.2169" fill="none" id=":abrirFalsaPosicion-to-FALSA_POSICION" style="stroke:#008000;stroke-width:1;"/><polygon fill="#008000" points="172.5498,861.2169,176.5498,852.2169,172.5498,856.2169,168.5498,852.2169,172.5498,861.2169" style="stroke:#008000;stroke-width:1;"/></g><!--SRC=[bL9DQm8n4BtdLmnwMrYe7ptKGs7TAWXMfOkzY2nnTvJWcjacyI2bFwZd_WJ_M9ErhgviAPq4GbucyzwRH6-5pBdYEz266uHt1j3doNQZQ2_Ja39Iq5ppTNVLTIUaKbG_QF9mPuDzCARB8f9-hN7lHZKx4nBD8KV8AJku3MD6c0pX2GtFx1foJP0YpEqIh9HGy7pyD9GI37ccESn8YqGSloHZR13EWt0qdGoYU3u9ujVWPHJqnmFm5ysDGfHB_n6ugn6ltTquB-wIP8LcaaxDrYhtlBdUSoK8D6Ksm_2UvrdS_qC1ohImRmqMdQpZSfqvdRQ0QsX0emJQjq3d0jYvy9OL9osBjIf8so8tLbnuNYIqmHq7XMzxWGfFTbpufPb29kHdCv2Gf4IaP1DBNs0rNXDswWWltOimmyIPvcV2VzBPJQT2Q7lW_azTOw_JUaL2yJopynkp6h1IUnYCeo2UJQEH-qFV]--></g></svg>