<svg xmlns="http://www.w3.org/2000/svg" xmlns:xlink="http://www.w3.org/1999/xlink" contentStyleType="text/css" data-diagram-type="STATE" height="896px" preserveAspectRatio="none" style="width:526px;height:896px;background:#FFFFFF;" version="1.1" viewBox="0 0 526 896" width="526px" zoomAndPan="magnify"><title>Detalle Caso de Uso Crear Operaci&#243;n Steffensen</title><defs/><g><g class="title" data-source-line="14"><text fill="#000000" font-family="sans-serif" font-size="14" font-weight="bold" lengthAdjust="spacing" textLength="381.2881" x="65.606" y="22.9951">Detalle Caso de Uso Crear Operaci&#243;n Steffensen</text></g><g id="STEFFENSEN"><rect fill="#FAF4B4" height="50" rx="12.5" ry="12.5" style="stroke:#C90000;stroke-width:0.5;" width="109.9131" x="339.54" y="44.2969"/><line style="stroke:#C90000;stroke-width:0.5;" x1="339.54" x2="449.4531" y1="70.5938" y2="70.5938"/><text fill="#000000" font-family="sans-serif" font-size="14" lengthAdjust="spacing" textLength="89.9131" x="349.54" y="62.292">STEFFENSEN</text></g><path d="M19.5,204.2969 L475.5,204.2969 A12.5,12.5 0 0 1 488,216.7969 L488,230.5938 L7,230.5938 L7,216.7969 A12.5,12.5 0 0 1 19.5,204.2969" fill="#FAF4B4"/><rect fill="none" height="575.2969" rx="12.5" ry="12.5" style="stroke:#C90000;stroke-width:0.5;" width="481" x="7" y="204.2969"/><line style="stroke:#C90000;stroke-width:0.5;" x1="7" x2="488" y1="230.5938" y2="230.5938"/><text fill="#000000" font-family="sans-serif" font-size="14" lengthAdjust="spacing" textLength="116.9219" x="189.0391" y="222.292">crear_steffensen</text><g id="crear_steffensen.1"><rect fill="#FAF4B4" height="50" rx="12.5" ry="12.5" style="stroke:#C90000;stroke-width:0.5;" width="50" x="157" y="298.5938"/><line style="stroke:#C90000;stroke-width:0.5;" x1="157" x2="207" y1="324.8906" y2="324.8906"/><text fill="#000000" font-family="sans-serif" font-size="14" lengthAdjust="spacing" textLength="4.4502" x="179.7749" y="316.5889">&#160;</text></g><g id="crear_steffensen.2"><rect fill="#FAF4B4" height="50" rx="12.5" ry="12.5" style="stroke:#C90000;stroke-width:0.5;" width="50" x="19" y="479.5938"/><line style="stroke:#C90000;stroke-width:0.5;" x1="19" x2="69" y1="505.8906" y2="505.8906"/><text fill="#000000" font-family="sans-serif" font-size="14" lengthAdjust="spacing" textLength="4.4502" x="41.7749" y="497.5889">&#160;</text></g><g id="crear_steffensen.3"><rect fill="#FAF4B4" height="50" rx="12.5" ry="12.5" style="stroke:#C90000;stroke-width:0.5;" width="50" x="152" y="660.5938"/><line style="stroke:#C90000;stroke-width:0.5;" x1="152" x2="202" y1="686.8906" y2="686.8906"/><text fill="#000000" font-family="sans-serif" font-size="14" lengthAdjust="spacing" textLength="4.4502" x="174.7749" y="678.5889">&#160;</text></g><ellipse cx="182" cy="251.5938" fill="#222222" rx="10" ry="10" style="stroke:#222222;stroke-width:1;"/><ellipse cx="177" cy="758.5938" fill="none" rx="11" ry="11" style="stroke:#222222;stroke-width:1;"/><ellipse cx="177" cy="758.5938" fill="#222222" rx="6" ry="6" style="stroke:#222222;stroke-width:1;"/><!--link *start*crear_steffensen to 1--><g class="link" data-entity-1=".start.crear_steffensen" data-entity-2="1" data-source-line="29" data-uid="lnk4" id="link_.start.crear_steffensen_1"><path d="M182,262.0338 C182,271.2938 182,279.7838 182,292.2738" fill="none" id="*start*crear_steffensen-to-1" style="stroke:#008000;stroke-width:1;"/><polygon fill="#008000" points="182,298.2738,186,289.2738,182,293.2738,178,289.2738,182,298.2738" style="stroke:#008000;stroke-width:1;"/></g><!--link 1 to 2--><g class="link" data-entity-1="1" data-entity-2="2" data-source-line="30" data-uid="lnk5" id="link_1_2"><path d="M156.6,332.9938 C119.54,345.2538 55,366.5938 55,366.5938 C55,366.5938 49.6096,433.7129 46.4496,473.1229" fill="none" id="1-to-2" style="stroke:#008000;stroke-width:1;"/><polygon fill="#008000" points="45.97,479.1038,50.6765,470.4522,46.3696,474.1197,42.7021,469.8128,45.97,479.1038" style="stroke:#008000;stroke-width:1;"/><path d="M60,371.5938 L60,456.5938 L301,456.5938 L301,381.5938 L291,371.5938 L60,371.5938" fill="#F5F5F5" style="stroke:#181818;stroke-width:0.5;"/><path d="M291,371.5938 L291,381.5938 L301,381.5938 L291,371.5938" fill="#F5F5F5" style="stroke:#181818;stroke-width:0.5;"/><text fill="#000000" font-family="sans-serif" font-size="13" font-weight="bold" lengthAdjust="spacing" textLength="220.5874" x="66" y="388.6606">Sistema requiere Par&#225;metros:</text><text fill="#000000" font-family="sans-serif" font-size="13" lengthAdjust="spacing" textLength="56.8306" x="66" y="403.7935">- funcion</text><text fill="#000000" font-family="sans-serif" font-size="13" lengthAdjust="spacing" textLength="25.3462" x="66" y="418.9263">- p0</text><text fill="#000000" font-family="sans-serif" font-size="13" lengthAdjust="spacing" textLength="34.2393" x="66" y="434.0591">- TOL</text><text fill="#000000" font-family="sans-serif" font-size="13" lengthAdjust="spacing" textLength="26.8188" x="66" y="449.1919">- N0</text></g><!--link 2 to 3--><g class="link" data-entity-1="2" data-entity-2="3" data-source-line="38" data-uid="lnk6" id="link_2_3"><path d="M39.35,530.0238 C37.59,539.2638 36,547.5938 36,547.5938 C36,547.5938 36,642.5938 36,642.5938 C36,642.5938 105.4897,663.2907 146.0397,675.3707" fill="none" id="2-to-3" style="stroke:#008000;stroke-width:1;"/><polygon fill="#008000" points="151.79,677.0838,144.3066,670.6807,146.9981,675.6562,142.0226,678.3477,151.79,677.0838" style="stroke:#008000;stroke-width:1;"/><path d="M41,552.5938 L41,637.5938 L301,637.5938 L301,562.5938 L291,552.5938 L41,552.5938" fill="#F5F5F5" style="stroke:#181818;stroke-width:0.5;"/><path d="M291,552.5938 L291,562.5938 L301,562.5938 L291,552.5938" fill="#F5F5F5" style="stroke:#181818;stroke-width:0.5;"/><text fill="#000000" font-family="sans-serif" font-size="13" font-weight="bold" lengthAdjust="spacing" textLength="239.5859" x="47" y="569.6606">Cliente Proporciona Par&#225;metros:</text><text fill="#000000" font-family="sans-serif" font-size="13" lengthAdjust="spacing" textLength="56.8306" x="55.2646" y="584.7935">- funcion</text><text fill="#000000" font-family="sans-serif" font-size="13" lengthAdjust="spacing" textLength="25.3462" x="55.2646" y="599.9263">- p0</text><text fill="#000000" font-family="sans-serif" font-size="13" lengthAdjust="spacing" textLength="34.2393" x="55.2646" y="615.0591">- TOL</text><text fill="#000000" font-family="sans-serif" font-size="13" lengthAdjust="spacing" textLength="26.8188" x="55.2646" y="630.1919">- N0</text></g><!--link 3 to 1--><g class="link" data-entity-1="3" data-entity-2="1" data-source-line="46" data-uid="lnk7" id="link_3_1"><path d="M202.49,676.2938 C240.08,664.0538 306,642.5938 306,642.5938 C306,642.5938 306,366.5938 306,366.5938 C306,366.5938 249.3528,347.4088 213.0728,335.1188" fill="none" id="3-to-1" style="stroke:#FF0000;stroke-width:1;"/><polygon fill="#FF0000" points="207.39,333.1938,214.6308,339.8699,212.1257,334.798,217.1976,332.2928,207.39,333.1938" style="stroke:#FF0000;stroke-width:1;"/><path d="M311,492.0938 L311,517.0938 L479,517.0938 L479,502.0938 L469,492.0938 L311,492.0938" fill="#F5F5F5" style="stroke:#181818;stroke-width:0.5;"/><path d="M469,492.0938 L469,502.0938 L479,502.0938 L469,492.0938" fill="#F5F5F5" style="stroke:#181818;stroke-width:0.5;"/><text fill="#000000" font-family="sans-serif" font-size="13" lengthAdjust="spacing" textLength="147.1577" x="317" y="509.1606">[Par&#225;metros Inv&#225;lidos]</text></g><!--link 3 to *end*crear_steffensen--><g class="link" data-entity-1="3" data-entity-2=".end.crear_steffensen" data-source-line="50" data-uid="lnk9" id="link_3_.end.crear_steffensen"><path d="M177,711.0238 C177,723.3838 177,731.7238 177,741.1938" fill="none" id="3-to-*end*crear_steffensen" style="stroke:#008000;stroke-width:1;"/><polygon fill="#008000" points="177,747.1938,181,738.1938,177,742.1938,173,738.1938,177,747.1938" style="stroke:#008000;stroke-width:1;"/></g><g id=".calcularResultadoSteffensen"><rect fill="#FAF4B4" height="50" rx="12.5" ry="12.5" style="stroke:#C90000;stroke-width:0.5;" width="224.709" x="282.15" y="840.5969"/><line style="stroke:#C90000;stroke-width:0.5;" x1="282.15" x2="506.859" y1="866.8938" y2="866.8938"/><text fill="#000000" font-family="sans-serif" font-size="14" lengthAdjust="spacing" textLength="204.709" x="292.15" y="858.592">:calcularResultadoSteffensen</text></g><!--link STEFFENSEN to crear_steffensen--><g class="link" data-entity-1="STEFFENSEN" data-entity-2="crear_steffensen" data-source-line="18" data-uid="lnk2" id="link_STEFFENSEN_crear_steffensen"><path d="M351.45,94.7769 C326.31,109.0569 299.5,124.2969 299.5,124.2969 C299.5,124.2969 295.6426,151.5263 289.0626,197.9163" fill="none" id="STEFFENSEN-to-crear_steffensen" style="stroke:#008000;stroke-width:1;"/><polygon fill="#008000" points="288.22,203.8569,293.4443,195.5078,288.9222,198.9064,285.5236,194.3843,288.22,203.8569" style="stroke:#008000;stroke-width:1;"/><path d="M304.5,129.2969 L304.5,169.2969 L510.5,169.2969 L510.5,139.2969 L500.5,129.2969 L304.5,129.2969" fill="#F5F5F5" style="stroke:#181818;stroke-width:0.5;"/><path d="M500.5,129.2969 L500.5,139.2969 L510.5,139.2969 L500.5,129.2969" fill="#F5F5F5" style="stroke:#181818;stroke-width:0.5;"/><text fill="#000000" font-family="sans-serif" font-size="13" font-weight="bold" lengthAdjust="spacing" textLength="114.0103" x="310.5" y="146.3638">Cliente solicita:</text><text fill="#000000" font-family="sans-serif" font-size="13" lengthAdjust="spacing" textLength="185.5547" x="310.5" y="161.4966">- Crear operaci&#243;n steffensen</text></g><!--link crear_steffensen to :calcularResultadoSteffensen--><g class="link" data-entity-1="crear_steffensen" data-entity-2=".calcularResultadoSteffensen" data-source-line="53" data-uid="lnk11" id="link_crear_steffensen_.calcularResultadoSteffensen"><path d="M360.96,779.7969 C370.61,804.1969 376.7347,819.6768 382.6747,834.7068" fill="none" id="crear_steffensen-to-:calcularResultadoSteffensen" style="stroke:#008000;stroke-width:1;"/><polygon fill="#008000" points="384.88,840.2869,385.2921,830.4466,383.0423,835.6369,377.8521,833.387,384.88,840.2869" style="stroke:#008000;stroke-width:1;"/></g><!--link :calcularResultadoSteffensen to STEFFENSEN--><g class="link" data-entity-1=".calcularResultadoSteffensen" data-entity-2="STEFFENSEN" data-source-line="55" data-uid="lnk12" id="link_.calcularResultadoSteffensen_STEFFENSEN"><path d="M426.31,840.2369 C459.11,815.1269 505.5,779.5969 505.5,779.5969 C505.5,779.5969 519.5,174.2969 519.5,174.2969 C519.5,174.2969 519.5,124.2969 519.5,124.2969 C519.5,124.2969 488.6885,110.9853 455.1985,96.5253" fill="none" id=":calcularResultadoSteffensen-to-STEFFENSEN" style="stroke:#008000;stroke-width:1;"/><polygon fill="#008000" points="449.69,94.1469,456.3671,101.3868,454.2804,96.1289,459.5383,94.0422,449.69,94.1469" style="stroke:#008000;stroke-width:1;"/></g><!--SRC=[hP9DJiCm48NtESK8Tf4gqHyMi611QIKaL125LLMXgJD1LbrF63j8276Ode4Zz6BOfKtI5bZXHBBznXb_RpAU2_0CC_QU5v1f8UKrsoHnSsqB55o0y-W9tXE0IrJpP-7IPdqsB72SOzwRzMA49IFPgEhi98paevd4ygyvJkEpUzfeI_wj82ZOlCLDadZj3S4LUJHXxgDZo0WUmzGNGe7RWWILNdrQ67lASxAEeeqr_FXXC1mEHkF129AaiMbDZf-5o4vR5w1YcYTNVxj6PXjXvW4yJVj6amsQOwELzdYUfa5lRG2u1cWa8PkjlMz9zczPr-Gxr0PqS0H7bT3P5xgr4Dv9Ejqnq0vQUqVf16NFHHnfEjQ1O84Wz59g4e8xbDLoGLxOVRkAemLvQLNiXks-EAcM3xStrNeKvSef1F0cHVSdYhgQTy85Ixm6_ncZ6p64icrn3Y0cZVlWshwkbaPdxAO_fAdSXAh7NZtuZyqpvmgDAWtAFRdIUCousP9_HPjPwZxz0W00]--></g></svg>