<svg xmlns="http://www.w3.org/2000/svg" xmlns:xlink="http://www.w3.org/1999/xlink" contentStyleType="text/css" data-diagram-type="STATE" height="1007px" preserveAspectRatio="none" style="width:503px;height:1007px;background:#FFFFFF;" version="1.1" viewBox="0 0 503 1007" width="503px" zoomAndPan="magnify"><title>Detalle Caso de Uso Crear Operaci&#243;n Steffensen</title><defs/><g><g class="title" data-source-line="12"><text fill="#000000" font-family="sans-serif" font-size="14" font-weight="bold" lengthAdjust="spacing" textLength="381.2881" x="50.856" y="22.9951">Detalle Caso de Uso Crear Operaci&#243;n Steffensen</text></g><path d="M19.5,204.2969 L477.5,204.2969 A12.5,12.5 0 0 1 490,216.7969 L490,230.5938 L7,230.5938 L7,216.7969 A12.5,12.5 0 0 1 19.5,204.2969" fill="#FAF4B4" style="stroke:#FAF4B4;stroke-width:1;"/><rect fill="none" height="575.2969" rx="12.5" ry="12.5" style="stroke:#C90000;stroke-width:0.5;" width="483" x="7" y="204.2969"/><line style="stroke:#C90000;stroke-width:0.5;" x1="7" x2="490" y1="230.5938" y2="230.5938"/><text fill="#000000" font-family="sans-serif" font-size="14" lengthAdjust="spacing" textLength="116.9219" x="190.0391" y="222.292">crear_steffensen</text><g id="crear_steffensen.1"><rect fill="#FAF4B4" height="50" rx="12.5" ry="12.5" style="stroke:#C90000;stroke-width:0.5;" width="50" x="158" y="298.5938"/><line style="stroke:#C90000;stroke-width:0.5;" x1="158" x2="208" y1="324.8906" y2="324.8906"/><text fill="#000000" font-family="sans-serif" font-size="14" lengthAdjust="spacing" textLength="4.4502" x="180.7749" y="316.5889">&#160;</text></g><g id="crear_steffensen.2"><rect fill="#FAF4B4" height="50" rx="12.5" ry="12.5" style="stroke:#C90000;stroke-width:0.5;" width="50" x="19" y="479.5938"/><line style="stroke:#C90000;stroke-width:0.5;" x1="19" x2="69" y1="505.8906" y2="505.8906"/><text fill="#000000" font-family="sans-serif" font-size="14" lengthAdjust="spacing" textLength="4.4502" x="41.7749" y="497.5889">&#160;</text></g><g id="crear_steffensen.3"><rect fill="#FAF4B4" height="50" rx="12.5" ry="12.5" style="stroke:#C90000;stroke-width:0.5;" width="50" x="152" y="660.5938"/><line style="stroke:#C90000;stroke-width:0.5;" x1="152" x2="202" y1="686.8906" y2="686.8906"/><text fill="#000000" font-family="sans-serif" font-size="14" lengthAdjust="spacing" textLength="4.4502" x="174.7749" y="678.5889">&#160;</text></g><ellipse cx="183" cy="251.5938" fill="#222222" rx="10" ry="10" style="stroke:#222222;stroke-width:1;"/><ellipse cx="177" cy="758.5938" fill="none" rx="11" ry="11" style="stroke:#222222;stroke-width:1;"/><ellipse cx="177" cy="758.5938" fill="#222222" rx="6" ry="6" style="stroke:#222222;stroke-width:1;"/><!--link *start*crear_steffensen to 1--><g class="link" data-entity-1="*start*crear_steffensen" data-entity-2="1" data-source-line="26" data-uid="lnk5" id="link_*start*crear_steffensen_1"><path d="M183,262.0338 C183,271.2938 183,279.7838 183,292.2738" fill="none" id="*start*crear_steffensen-to-1" style="stroke:#008000;stroke-width:1;"/><polygon fill="#008000" points="183,298.2738,187,289.2738,183,293.2738,179,289.2738,183,298.2738" style="stroke:#008000;stroke-width:1;"/></g><!--link 1 to 2--><g class="link" data-entity-1="1" data-entity-2="2" data-source-line="27" data-uid="lnk6" id="link_1_2"><path d="M157.5,333.0938 C120.68,345.3638 57,366.5938 57,366.5938 C57,366.5938 50.6269,433.7206 46.8869,473.1306" fill="none" id="1-to-2" style="stroke:#008000;stroke-width:1;"/><polygon fill="#008000" points="46.32,479.1038,51.1524,470.5219,46.7924,474.1261,43.1882,469.7661,46.32,479.1038" style="stroke:#008000;stroke-width:1;"/><path d="M62,371.5938 L62,456.5938 L303,456.5938 L303,381.5938 L293,371.5938 L62,371.5938" fill="#F5F5F5" style="stroke:#181818;stroke-width:0.5;"/><path d="M293,371.5938 L293,381.5938 L303,381.5938 L293,371.5938" fill="#F5F5F5" style="stroke:#181818;stroke-width:0.5;"/><text fill="#000000" font-family="sans-serif" font-size="13" font-weight="bold" lengthAdjust="spacing" textLength="220.5874" x="68" y="388.6606">Sistema requiere Par&#225;metros:</text><text fill="#000000" font-family="sans-serif" font-size="13" lengthAdjust="spacing" textLength="56.8306" x="68" y="403.7935">- funcion</text><text fill="#000000" font-family="sans-serif" font-size="13" lengthAdjust="spacing" textLength="25.3462" x="68" y="418.9263">- p0</text><text fill="#000000" font-family="sans-serif" font-size="13" lengthAdjust="spacing" textLength="34.2393" x="68" y="434.0591">- TOL</text><text fill="#000000" font-family="sans-serif" font-size="13" lengthAdjust="spacing" textLength="26.8188" x="68" y="449.1919">- N0</text></g><!--link 2 to 3--><g class="link" data-entity-1="2" data-entity-2="3" data-source-line="35" data-uid="lnk7" id="link_2_3"><path d="M37.6,530.0238 C35.18,539.2638 33,547.5938 33,547.5938 C33,547.5938 33,642.5938 33,642.5938 C33,642.5938 104.4901,663.4434 145.8301,675.5034" fill="none" id="2-to-3" style="stroke:#008000;stroke-width:1;"/><polygon fill="#008000" points="151.59,677.1838,144.0704,670.8233,146.7901,675.7835,141.8299,678.5032,151.59,677.1838" style="stroke:#008000;stroke-width:1;"/><path d="M38,552.5938 L38,637.5938 L303,637.5938 L303,562.5938 L293,552.5938 L38,552.5938" fill="#F5F5F5" style="stroke:#181818;stroke-width:0.5;"/><path d="M293,552.5938 L293,562.5938 L303,562.5938 L293,552.5938" fill="#F5F5F5" style="stroke:#181818;stroke-width:0.5;"/><text fill="#000000" font-family="sans-serif" font-size="13" font-weight="bold" lengthAdjust="spacing" textLength="244.1499" x="44" y="569.6606">Usuario Proporciona Par&#225;metros:</text><text fill="#000000" font-family="sans-serif" font-size="13" lengthAdjust="spacing" textLength="56.8306" x="52.2646" y="584.7935">- funcion</text><text fill="#000000" font-family="sans-serif" font-size="13" lengthAdjust="spacing" textLength="25.3462" x="52.2646" y="599.9263">- p0</text><text fill="#000000" font-family="sans-serif" font-size="13" lengthAdjust="spacing" textLength="34.2393" x="52.2646" y="615.0591">- TOL</text><text fill="#000000" font-family="sans-serif" font-size="13" lengthAdjust="spacing" textLength="26.8188" x="52.2646" y="630.1919">- N0</text></g><!--link 3 to 1--><g class="link" data-entity-1="3" data-entity-2="1" data-source-line="43" data-uid="lnk8" id="link_3_1"><path d="M202.26,676.4938 C240.33,664.2938 308,642.5938 308,642.5938 C308,642.5938 308,366.5938 308,366.5938 C308,366.5938 250.5076,347.2747 213.9876,335.0047" fill="none" id="3-to-1" style="stroke:#FF0000;stroke-width:1;"/><polygon fill="#FF0000" points="208.3,333.0938,215.5574,339.7518,213.0396,334.6862,218.1053,332.1684,208.3,333.0938" style="stroke:#FF0000;stroke-width:1;"/><path d="M313,492.0938 L313,517.0938 L481,517.0938 L481,502.0938 L471,492.0938 L313,492.0938" fill="#F5F5F5" style="stroke:#181818;stroke-width:0.5;"/><path d="M471,492.0938 L471,502.0938 L481,502.0938 L471,492.0938" fill="#F5F5F5" style="stroke:#181818;stroke-width:0.5;"/><text fill="#000000" font-family="sans-serif" font-size="13" lengthAdjust="spacing" textLength="147.1577" x="319" y="509.1606">[Par&#225;metros Inv&#225;lidos]</text></g><!--link 3 to *end*crear_steffensen--><g class="link" data-entity-1="3" data-entity-2="*end*crear_steffensen" data-source-line="47" data-uid="lnk10" id="link_3_*end*crear_steffensen"><path d="M177,711.0238 C177,723.3838 177,731.7238 177,741.1938" fill="none" id="3-to-*end*crear_steffensen" style="stroke:#008000;stroke-width:1;"/><polygon fill="#008000" points="177,747.1938,181,738.1938,177,742.1938,173,738.1938,177,747.1938" style="stroke:#008000;stroke-width:1;"/></g><g id="STEFFENSEN"><rect fill="#FAF4B4" height="50" rx="12.5" ry="12.5" style="stroke:#C90000;stroke-width:0.5;" width="109.9131" x="193.54" y="44.2969"/><line style="stroke:#C90000;stroke-width:0.5;" x1="193.54" x2="303.4531" y1="70.5938" y2="70.5938"/><text fill="#000000" font-family="sans-serif" font-size="14" lengthAdjust="spacing" textLength="89.9131" x="203.54" y="62.292">STEFFENSEN</text></g><g id=":abrirResultadoSteffensen"><rect fill="#FAF4B4" height="50" rx="12.5" ry="12.5" style="stroke:#C90000;stroke-width:0.5;" width="202.6152" x="147.19" y="840.5969"/><line style="stroke:#C90000;stroke-width:0.5;" x1="147.19" x2="349.8052" y1="866.8938" y2="866.8938"/><text fill="#000000" font-family="sans-serif" font-size="14" lengthAdjust="spacing" textLength="182.6152" x="157.19" y="858.592">:abrirResultadoSteffensen</text></g><g id="RESULTADO_STEFFENSEN"><rect fill="#FAF4B4" height="50" rx="12.5" ry="12.5" style="stroke:#C90000;stroke-width:0.5;" width="202.3486" x="147.33" y="951.5969"/><line style="stroke:#C90000;stroke-width:0.5;" x1="147.33" x2="349.6786" y1="977.8938" y2="977.8938"/><text fill="#000000" font-family="sans-serif" font-size="14" lengthAdjust="spacing" textLength="182.3486" x="157.33" y="969.592">RESULTADO_STEFFENSEN</text></g><!--link STEFFENSEN to crear_steffensen--><g class="link" data-entity-1="STEFFENSEN" data-entity-2="crear_steffensen" data-source-line="15" data-uid="lnk3" id="link_STEFFENSEN_crear_steffensen"><path d="M248.5,94.7369 C248.5,118.8469 248.5,152.5769 248.5,197.8069" fill="none" id="STEFFENSEN-to-crear_steffensen" style="stroke:#008000;stroke-width:1;"/><polygon fill="#008000" points="248.5,203.8069,252.5,194.8069,248.5,198.8069,244.5,194.8069,248.5,203.8069" style="stroke:#008000;stroke-width:1;"/><path d="M253.5,129.2969 L253.5,169.2969 L459.5,169.2969 L459.5,139.2969 L449.5,129.2969 L253.5,129.2969" fill="#F5F5F5" style="stroke:#181818;stroke-width:0.5;"/><path d="M449.5,129.2969 L449.5,139.2969 L459.5,139.2969 L449.5,129.2969" fill="#F5F5F5" style="stroke:#181818;stroke-width:0.5;"/><text fill="#000000" font-family="sans-serif" font-size="13" font-weight="bold" lengthAdjust="spacing" textLength="118.5742" x="259.5" y="146.3638">Usuario solicita:</text><text fill="#000000" font-family="sans-serif" font-size="13" lengthAdjust="spacing" textLength="185.5547" x="259.5" y="161.4966">- Crear operaci&#243;n steffensen</text></g><!--link crear_steffensen to :abrirResultadoSteffensen--><g class="link" data-entity-1="crear_steffensen" data-entity-2=":abrirResultadoSteffensen" data-source-line="50" data-uid="lnk12" id="link_crear_steffensen_:abrirResultadoSteffensen"><path d="M248.5,779.7969 C248.5,804.1969 248.5,819.2569 248.5,834.2869" fill="none" id="crear_steffensen-to-:abrirResultadoSteffensen" style="stroke:#008000;stroke-width:1;"/><polygon fill="#008000" points="248.5,840.2869,252.5,831.2869,248.5,835.2869,244.5,831.2869,248.5,840.2869" style="stroke:#008000;stroke-width:1;"/></g><!--link :abrirResultadoSteffensen to RESULTADO_STEFFENSEN--><g class="link" data-entity-1=":abrirResultadoSteffensen" data-entity-2="RESULTADO_STEFFENSEN" data-source-line="52" data-uid="lnk14" id="link_:abrirResultadoSteffensen_RESULTADO_STEFFENSEN"><path d="M248.5,891.0569 C248.5,909.0069 248.5,927.2869 248.5,945.2169" fill="none" id=":abrirResultadoSteffensen-to-RESULTADO_STEFFENSEN" style="stroke:#008000;stroke-width:1;"/><polygon fill="#008000" points="248.5,951.2169,252.5,942.2169,248.5,946.2169,244.5,942.2169,248.5,951.2169" style="stroke:#008000;stroke-width:1;"/></g><!--SRC=[hLB1IiD04BtlLmps5YZOLWzw4BIj84XRJ7igHSPaKfQcEt5s8nJnO_m6Fw4_vcwjILhrvYQmksycyzwRZ5rfKw3W6gn3H_2g06umMIs5IvFsEMU1LeRPsTDPYB2a97iqkJZrIxqfPQiYXl-iSHwUm-nS6tARWg3WV1CkIZdjSe81ESpztaVBa1BC_DONGe5nGOA9tduOY1rb6HbBHYaLJuUtjyDHF1n1UzvQ2f5PjAyW2HyzsZfp9v1De5vvcL4qioMAPh2SwqGxl8mYZxVtT5pJDOgGINTElPTTquvPTXtu2dK0BPp0IGLqZu5U3VXt7YqE37GyrZb0kXuvSX5M5CNQArWZ23sNceHWWh9zNvCJjb-kmcf3Lff4iwdknMbrd8xlg_Cem9LJyCARAdg_gQYxEH4kM08D_hECNf0Xb7utvuU8UOCFxipBzZtNATl5BsKgDxxhOJ9__CTcpYK-YPO7icNkCENczFqPEYZmC8ndzzFhmVYn7jPF]--></g></svg>