<svg xmlns="http://www.w3.org/2000/svg" xmlns:xlink="http://www.w3.org/1999/xlink" contentStyleType="text/css" data-diagram-type="STATE" height="917px" preserveAspectRatio="none" style="width:384px;height:917px;background:#FFFFFF;" version="1.1" viewBox="0 0 384 917" width="384px" zoomAndPan="magnify"><title>Detalle Caso de Uso Abrir M&#233;todo Steffensen</title><defs/><g><g class="title" data-source-line="12"><text fill="#000000" font-family="sans-serif" font-size="14" font-weight="bold" lengthAdjust="spacing" textLength="356.6514" x="10" y="22.9951">Detalle Caso de Uso Abrir M&#233;todo Steffensen</text></g><path d="M45.8257,204.2969 L284.8257,204.2969 A12.5,12.5 0 0 1 297.3257,216.7969 L297.3257,230.5938 L33.3257,230.5938 L33.3257,216.7969 A12.5,12.5 0 0 1 45.8257,204.2969" fill="#FAF4B4"/><rect fill="none" height="485.2969" rx="12.5" ry="12.5" style="stroke:#C90000;stroke-width:0.5;" width="264" x="33.3257" y="204.2969"/><line style="stroke:#C90000;stroke-width:0.5;" x1="33.3257" x2="297.3257" y1="230.5938" y2="230.5938"/><text fill="#000000" font-family="sans-serif" font-size="14" lengthAdjust="spacing" textLength="113.3877" x="108.6318" y="222.292">abrir_steffensen</text><g id="abrir_steffensen.1"><rect fill="#FAF4B4" height="50" rx="12.5" ry="12.5" style="stroke:#C90000;stroke-width:0.5;" width="50" x="45.3257" y="298.5938"/><line style="stroke:#C90000;stroke-width:0.5;" x1="45.3257" x2="95.3257" y1="324.8906" y2="324.8906"/><text fill="#000000" font-family="sans-serif" font-size="14" lengthAdjust="spacing" textLength="4.4502" x="68.1006" y="316.5889">&#160;</text></g><g id="abrir_steffensen.2"><rect fill="#FAF4B4" height="50" rx="12.5" ry="12.5" style="stroke:#C90000;stroke-width:0.5;" width="50" x="45.3257" y="434.5938"/><line style="stroke:#C90000;stroke-width:0.5;" x1="45.3257" x2="95.3257" y1="460.8906" y2="460.8906"/><text fill="#000000" font-family="sans-serif" font-size="14" lengthAdjust="spacing" textLength="4.4502" x="68.1006" y="452.5889">&#160;</text></g><g id="abrir_steffensen.3"><rect fill="#FAF4B4" height="50" rx="12.5" ry="12.5" style="stroke:#C90000;stroke-width:0.5;" width="50" x="45.3257" y="570.5938"/><line style="stroke:#C90000;stroke-width:0.5;" x1="45.3257" x2="95.3257" y1="596.8906" y2="596.8906"/><text fill="#000000" font-family="sans-serif" font-size="14" lengthAdjust="spacing" textLength="4.4502" x="68.1006" y="588.5889">&#160;</text></g><ellipse cx="70.3257" cy="251.5938" fill="#222222" rx="10" ry="10" style="stroke:#222222;stroke-width:1;"/><ellipse cx="70.3257" cy="668.5938" fill="none" rx="11" ry="11" style="stroke:#222222;stroke-width:1;"/><ellipse cx="70.3257" cy="668.5938" fill="#222222" rx="6" ry="6" style="stroke:#222222;stroke-width:1;"/><!--link *start*abrir_steffensen to 1--><g class="link" data-entity-1=".start.abrir_steffensen" data-entity-2="1" data-source-line="26" data-uid="lnk5" id="link_.start.abrir_steffensen_1"><path d="M70.3257,262.0338 C70.3257,271.2938 70.3257,279.7838 70.3257,292.2738" fill="none" id="*start*abrir_steffensen-to-1" style="stroke:#008000;stroke-width:1;"/><polygon fill="#008000" points="70.3257,298.2738,74.3257,289.2738,70.3257,293.2738,66.3257,289.2738,70.3257,298.2738" style="stroke:#008000;stroke-width:1;"/></g><!--link 1 to 2--><g class="link" data-entity-1="1" data-entity-2="2" data-source-line="27" data-uid="lnk6" id="link_1_2"><path d="M70.3257,348.8638 C70.3257,373.1438 70.3257,404.2838 70.3257,428.5037" fill="none" id="1-to-2" style="stroke:#008000;stroke-width:1;"/><polygon fill="#008000" points="70.3257,434.5037,74.3257,425.5037,70.3257,429.5037,66.3257,425.5037,70.3257,434.5037" style="stroke:#008000;stroke-width:1;"/><path d="M75.3257,371.5938 L75.3257,411.5938 L288.3257,411.5938 L288.3257,381.5938 L278.3257,371.5938 L75.3257,371.5938" fill="#F5F5F5" style="stroke:#181818;stroke-width:0.5;"/><path d="M278.3257,371.5938 L278.3257,381.5938 L288.3257,381.5938 L278.3257,371.5938" fill="#F5F5F5" style="stroke:#181818;stroke-width:0.5;"/><text fill="#000000" font-family="sans-serif" font-size="13" font-weight="bold" lengthAdjust="spacing" textLength="130.9204" x="81.3257" y="388.6606">Sistema requiere:</text><text fill="#000000" font-family="sans-serif" font-size="13" lengthAdjust="spacing" textLength="192.0864" x="81.3257" y="403.7935">- M&#233;todo steffensen conocido</text></g><!--link 2 to 3--><g class="link" data-entity-1="2" data-entity-2="3" data-source-line="32" data-uid="lnk7" id="link_2_3"><path d="M70.3257,484.8638 C70.3257,509.1438 70.3257,540.2838 70.3257,564.5038" fill="none" id="2-to-3" style="stroke:#008000;stroke-width:1;"/><polygon fill="#008000" points="70.3257,570.5038,74.3257,561.5038,70.3257,565.5038,66.3257,561.5038,70.3257,570.5038" style="stroke:#008000;stroke-width:1;"/><path d="M75.3257,507.5938 L75.3257,547.5938 L288.3257,547.5938 L288.3257,517.5938 L278.3257,507.5938 L75.3257,507.5938" fill="#F5F5F5" style="stroke:#181818;stroke-width:0.5;"/><path d="M278.3257,507.5938 L278.3257,517.5938 L288.3257,517.5938 L278.3257,507.5938" fill="#F5F5F5" style="stroke:#181818;stroke-width:0.5;"/><text fill="#000000" font-family="sans-serif" font-size="13" font-weight="bold" lengthAdjust="spacing" textLength="139.5596" x="81.3257" y="524.6606">Cliente Selecciona:</text><text fill="#000000" font-family="sans-serif" font-size="13" lengthAdjust="spacing" textLength="192.0864" x="81.3257" y="539.7935">- M&#233;todo steffensen conocido</text></g><!--link 3 to *end*abrir_steffensen--><g class="link" data-entity-1="3" data-entity-2=".end.abrir_steffensen" data-source-line="38" data-uid="lnk9" id="link_3_.end.abrir_steffensen"><path d="M70.3257,621.0238 C70.3257,633.3838 70.3257,641.7238 70.3257,651.1938" fill="none" id="3-to-*end*abrir_steffensen" style="stroke:#008000;stroke-width:1;"/><polygon fill="#008000" points="70.3257,657.1938,74.3257,648.1938,70.3257,652.1938,66.3257,648.1938,70.3257,657.1938" style="stroke:#008000;stroke-width:1;"/></g><g id="ECUACIONES_UNA_VARIABLE"><rect fill="#FAF4B4" height="50" rx="12.5" ry="12.5" style="stroke:#C90000;stroke-width:0.5;" width="224.709" x="52.9757" y="44.2969"/><line style="stroke:#C90000;stroke-width:0.5;" x1="52.9757" x2="277.6847" y1="70.5938" y2="70.5938"/><text fill="#000000" font-family="sans-serif" font-size="14" lengthAdjust="spacing" textLength="204.709" x="62.9757" y="62.292">ECUACIONES_UNA_VARIABLE</text></g><g id=".abrirSteffensen"><rect fill="#FAF4B4" height="50" rx="12.5" ry="12.5" style="stroke:#C90000;stroke-width:0.5;" width="132.6973" x="98.9757" y="750.5969"/><line style="stroke:#C90000;stroke-width:0.5;" x1="98.9757" x2="231.6729" y1="776.8938" y2="776.8938"/><text fill="#000000" font-family="sans-serif" font-size="14" lengthAdjust="spacing" textLength="112.6973" x="108.9757" y="768.592">:abrirSteffensen</text></g><g id="STEFFENSEN"><rect fill="#FAF4B4" height="50" rx="12.5" ry="12.5" style="stroke:#C90000;stroke-width:0.5;" width="109.9131" x="110.3657" y="861.5969"/><line style="stroke:#C90000;stroke-width:0.5;" x1="110.3657" x2="220.2788" y1="887.8938" y2="887.8938"/><text fill="#000000" font-family="sans-serif" font-size="14" lengthAdjust="spacing" textLength="89.9131" x="120.3657" y="879.592">STEFFENSEN</text></g><!--link ECUACIONES_UNA_VARIABLE to abrir_steffensen--><g class="link" data-entity-1="ECUACIONES_UNA_VARIABLE" data-entity-2="abrir_steffensen" data-source-line="15" data-uid="lnk3" id="link_ECUACIONES_UNA_VARIABLE_abrir_steffensen"><path d="M165.3257,94.6569 C165.3257,119.0469 165.3257,153.2969 165.3257,198.0169" fill="none" id="ECUACIONES_UNA_VARIABLE-to-abrir_steffensen" style="stroke:#008000;stroke-width:1;"/><polygon fill="#008000" points="165.3257,204.0169,169.3257,195.0169,165.3257,199.0169,161.3257,195.0169,165.3257,204.0169" style="stroke:#008000;stroke-width:1;"/><path d="M170.3257,129.2969 L170.3257,169.2969 L357.3257,169.2969 L357.3257,139.2969 L347.3257,129.2969 L170.3257,129.2969" fill="#F5F5F5" style="stroke:#181818;stroke-width:0.5;"/><path d="M347.3257,129.2969 L347.3257,139.2969 L357.3257,139.2969 L347.3257,129.2969" fill="#F5F5F5" style="stroke:#181818;stroke-width:0.5;"/><text fill="#000000" font-family="sans-serif" font-size="13" font-weight="bold" lengthAdjust="spacing" textLength="114.0103" x="176.3257" y="146.3638">Cliente solicita:</text><text fill="#000000" font-family="sans-serif" font-size="13" lengthAdjust="spacing" textLength="166.7529" x="176.3257" y="161.4966">- Abrir M&#233;todo Steffensen</text></g><!--link abrir_steffensen to :abrirSteffensen--><g class="link" data-entity-1="abrir_steffensen" data-entity-2=".abrirSteffensen" data-source-line="41" data-uid="lnk11" id="link_abrir_steffensen_.abrirSteffensen"><path d="M165.3257,690.0569 C165.3257,714.2169 165.3257,729.3469 165.3257,744.4469" fill="none" id="abrir_steffensen-to-:abrirSteffensen" style="stroke:#008000;stroke-width:1;"/><polygon fill="#008000" points="165.3257,750.4469,169.3257,741.4469,165.3257,745.4469,161.3257,741.4469,165.3257,750.4469" style="stroke:#008000;stroke-width:1;"/></g><!--link :abrirSteffensen to STEFFENSEN--><g class="link" data-entity-1=".abrirSteffensen" data-entity-2="STEFFENSEN" data-source-line="43" data-uid="lnk13" id="link_.abrirSteffensen_STEFFENSEN"><path d="M165.3257,801.0569 C165.3257,819.0069 165.3257,837.2869 165.3257,855.2169" fill="none" id=":abrirSteffensen-to-STEFFENSEN" style="stroke:#008000;stroke-width:1;"/><polygon fill="#008000" points="165.3257,861.2169,169.3257,852.2169,165.3257,856.2169,161.3257,852.2169,165.3257,861.2169" style="stroke:#008000;stroke-width:1;"/></g><!--SRC=[ZLBBQiCm4BphAvRcPZ0qZnwQGy5n7GYqBjHDBo44nLu74KLA9UKGIZ-etz4VwyffxTWqq9L0Q7QrCxF8ReNQSyDtO1rt2EyCOCBpxSReWofYBRM1NidBqNhaCzeKQ7xG_FQQWdqmPkicIb_iSUDNkreAXUwuHzXhUVGNnfnm4k4U7PTqnjngA13cT4Hh8mmyVdqwNMZ879ObAekACPR4yoYUFQL9jfgdqUerUfv5auS4maLlOn3LChm3xf-lRFEiaggL5x4bmK4GIu6ACAkbo8NZuo0WFBnCZAge39EbQdPT2Z-7KwOFtC8LNDN0e0iC6u3s8bYsnFS9wxUG0I4T1pw281CaOCV1uDj1eC6J2nzXxQ6H2BbMEXU5ffhQ3f2ySwxXNrpDl3AKcET2A_xBzNyckWnRNEJS_v7kACzBnbNo_0DqaLR7x2MPJfCqIz9l]--></g></svg>