<svg xmlns="http://www.w3.org/2000/svg" xmlns:xlink="http://www.w3.org/1999/xlink" contentStyleType="text/css" data-diagram-type="STATE" height="1037px" preserveAspectRatio="none" style="width:503px;height:1037px;background:#FFFFFF;" version="1.1" viewBox="0 0 503 1037" width="503px" zoomAndPan="magnify"><title>Detalle Caso de Uso Crear Operaci&#243;n Falsa Posici&#243;n</title><defs/><g><g class="title" data-source-line="12"><text fill="#000000" font-family="sans-serif" font-size="14" font-weight="bold" lengthAdjust="spacing" textLength="407.7363" x="37.6318" y="22.9951">Detalle Caso de Uso Crear Operaci&#243;n Falsa Posici&#243;n</text></g><path d="M19.5,204.2969 L477.5,204.2969 A12.5,12.5 0 0 1 490,216.7969 L490,230.5938 L7,230.5938 L7,216.7969 A12.5,12.5 0 0 1 19.5,204.2969" fill="#FAF4B4" style="stroke:#FAF4B4;stroke-width:1;"/><rect fill="none" height="605.2969" rx="12.5" ry="12.5" style="stroke:#C90000;stroke-width:0.5;" width="483" x="7" y="204.2969"/><line style="stroke:#C90000;stroke-width:0.5;" x1="7" x2="490" y1="230.5938" y2="230.5938"/><text fill="#000000" font-family="sans-serif" font-size="14" lengthAdjust="spacing" textLength="141.333" x="177.8335" y="222.292">crear_falsa_posicion</text><g id="crear_falsa_posicion.1"><rect fill="#FAF4B4" height="50" rx="12.5" ry="12.5" style="stroke:#C90000;stroke-width:0.5;" width="50" x="158" y="298.5938"/><line style="stroke:#C90000;stroke-width:0.5;" x1="158" x2="208" y1="324.8906" y2="324.8906"/><text fill="#000000" font-family="sans-serif" font-size="14" lengthAdjust="spacing" textLength="4.4502" x="180.7749" y="316.5889">&#160;</text></g><g id="crear_falsa_posicion.2"><rect fill="#FAF4B4" height="50" rx="12.5" ry="12.5" style="stroke:#C90000;stroke-width:0.5;" width="50" x="19" y="494.5938"/><line style="stroke:#C90000;stroke-width:0.5;" x1="19" x2="69" y1="520.8906" y2="520.8906"/><text fill="#000000" font-family="sans-serif" font-size="14" lengthAdjust="spacing" textLength="4.4502" x="41.7749" y="512.5889">&#160;</text></g><g id="crear_falsa_posicion.3"><rect fill="#FAF4B4" height="50" rx="12.5" ry="12.5" style="stroke:#C90000;stroke-width:0.5;" width="50" x="152" y="690.5938"/><line style="stroke:#C90000;stroke-width:0.5;" x1="152" x2="202" y1="716.8906" y2="716.8906"/><text fill="#000000" font-family="sans-serif" font-size="14" lengthAdjust="spacing" textLength="4.4502" x="174.7749" y="708.5889">&#160;</text></g><ellipse cx="183" cy="251.5938" fill="#222222" rx="10" ry="10" style="stroke:#222222;stroke-width:1;"/><ellipse cx="177" cy="788.5938" fill="none" rx="11" ry="11" style="stroke:#222222;stroke-width:1;"/><ellipse cx="177" cy="788.5938" fill="#222222" rx="6" ry="6" style="stroke:#222222;stroke-width:1;"/><!--link *start*crear_falsa_posicion to 1--><g class="link" data-entity-1="*start*crear_falsa_posicion" data-entity-2="1" data-source-line="26" data-uid="lnk5" id="link_*start*crear_falsa_posicion_1"><path d="M183,262.0338 C183,271.2938 183,279.7838 183,292.2738" fill="none" id="*start*crear_falsa_posicion-to-1" style="stroke:#008000;stroke-width:1;"/><polygon fill="#008000" points="183,298.2738,187,289.2738,183,293.2738,179,289.2738,183,298.2738" style="stroke:#008000;stroke-width:1;"/></g><!--link 1 to 2--><g class="link" data-entity-1="1" data-entity-2="2" data-source-line="27" data-uid="lnk6" id="link_1_2"><path d="M157.5,333.0938 C120.68,345.3638 57,366.5938 57,366.5938 C57,366.5938 50.2706,445.2255 46.6006,488.1955" fill="none" id="1-to-2" style="stroke:#008000;stroke-width:1;"/><polygon fill="#008000" points="46.09,494.1738,50.8414,485.5468,46.5155,489.1919,42.8704,484.866,46.09,494.1738" style="stroke:#008000;stroke-width:1;"/><path d="M62,371.5938 L62,471.5938 L303,471.5938 L303,381.5938 L293,371.5938 L62,371.5938" fill="#F5F5F5" style="stroke:#181818;stroke-width:0.5;"/><path d="M293,371.5938 L293,381.5938 L303,381.5938 L293,371.5938" fill="#F5F5F5" style="stroke:#181818;stroke-width:0.5;"/><text fill="#000000" font-family="sans-serif" font-size="13" font-weight="bold" lengthAdjust="spacing" textLength="220.5874" x="68" y="388.6606">Sistema requiere Par&#225;metros:</text><text fill="#000000" font-family="sans-serif" font-size="13" lengthAdjust="spacing" textLength="56.8306" x="68" y="403.7935">- funcion</text><text fill="#000000" font-family="sans-serif" font-size="13" lengthAdjust="spacing" textLength="25.3462" x="68" y="418.9263">- p0</text><text fill="#000000" font-family="sans-serif" font-size="13" lengthAdjust="spacing" textLength="25.3462" x="68" y="434.0591">- p1</text><text fill="#000000" font-family="sans-serif" font-size="13" lengthAdjust="spacing" textLength="34.2393" x="68" y="449.1919">- TOL</text><text fill="#000000" font-family="sans-serif" font-size="13" lengthAdjust="spacing" textLength="26.8188" x="68" y="464.3247">- N0</text></g><!--link 2 to 3--><g class="link" data-entity-1="2" data-entity-2="3" data-source-line="36" data-uid="lnk7" id="link_2_3"><path d="M37.6,545.0238 C35.18,554.2638 33,562.5938 33,562.5938 C33,562.5938 33,672.5938 33,672.5938 C33,672.5938 104.4901,693.4434 145.8301,705.5034" fill="none" id="2-to-3" style="stroke:#008000;stroke-width:1;"/><polygon fill="#008000" points="151.59,707.1838,144.0704,700.8233,146.7901,705.7835,141.8299,708.5032,151.59,707.1838" style="stroke:#008000;stroke-width:1;"/><path d="M38,567.5938 L38,667.5938 L303,667.5938 L303,577.5938 L293,567.5938 L38,567.5938" fill="#F5F5F5" style="stroke:#181818;stroke-width:0.5;"/><path d="M293,567.5938 L293,577.5938 L303,577.5938 L293,567.5938" fill="#F5F5F5" style="stroke:#181818;stroke-width:0.5;"/><text fill="#000000" font-family="sans-serif" font-size="13" font-weight="bold" lengthAdjust="spacing" textLength="244.1499" x="44" y="584.6606">Usuario Proporciona Par&#225;metros:</text><text fill="#000000" font-family="sans-serif" font-size="13" lengthAdjust="spacing" textLength="56.8306" x="52.2646" y="599.7935">- funcion</text><text fill="#000000" font-family="sans-serif" font-size="13" lengthAdjust="spacing" textLength="25.3462" x="52.2646" y="614.9263">- p0</text><text fill="#000000" font-family="sans-serif" font-size="13" lengthAdjust="spacing" textLength="25.3462" x="52.2646" y="630.0591">- p1</text><text fill="#000000" font-family="sans-serif" font-size="13" lengthAdjust="spacing" textLength="34.2393" x="52.2646" y="645.1919">- TOL</text><text fill="#000000" font-family="sans-serif" font-size="13" lengthAdjust="spacing" textLength="26.8188" x="52.2646" y="660.3247">- N0</text></g><!--link 3 to 1--><g class="link" data-entity-1="3" data-entity-2="1" data-source-line="45" data-uid="lnk8" id="link_3_1"><path d="M202.26,706.4938 C240.33,694.2938 308,672.5938 308,672.5938 C308,672.5938 308,366.5938 308,366.5938 C308,366.5938 250.5076,347.2747 213.9876,335.0047" fill="none" id="3-to-1" style="stroke:#FF0000;stroke-width:1;"/><polygon fill="#FF0000" points="208.3,333.0938,215.5574,339.7518,213.0396,334.6862,218.1053,332.1684,208.3,333.0938" style="stroke:#FF0000;stroke-width:1;"/><path d="M313,507.0938 L313,532.0938 L481,532.0938 L481,517.0938 L471,507.0938 L313,507.0938" fill="#F5F5F5" style="stroke:#181818;stroke-width:0.5;"/><path d="M471,507.0938 L471,517.0938 L481,517.0938 L471,507.0938" fill="#F5F5F5" style="stroke:#181818;stroke-width:0.5;"/><text fill="#000000" font-family="sans-serif" font-size="13" lengthAdjust="spacing" textLength="147.1577" x="319" y="524.1606">[Par&#225;metros Inv&#225;lidos]</text></g><!--link 3 to *end*crear_falsa_posicion--><g class="link" data-entity-1="3" data-entity-2="*end*crear_falsa_posicion" data-source-line="49" data-uid="lnk10" id="link_3_*end*crear_falsa_posicion"><path d="M177,741.0238 C177,753.3838 177,761.7238 177,771.1938" fill="none" id="3-to-*end*crear_falsa_posicion" style="stroke:#008000;stroke-width:1;"/><polygon fill="#008000" points="177,777.1938,181,768.1938,177,772.1938,173,768.1938,177,777.1938" style="stroke:#008000;stroke-width:1;"/></g><g id="FALSA_POSICION"><rect fill="#FAF4B4" height="50" rx="12.5" ry="12.5" style="stroke:#C90000;stroke-width:0.5;" width="138.7676" x="179.12" y="44.2969"/><line style="stroke:#C90000;stroke-width:0.5;" x1="179.12" x2="317.8876" y1="70.5938" y2="70.5938"/><text fill="#000000" font-family="sans-serif" font-size="14" lengthAdjust="spacing" textLength="118.7676" x="189.12" y="62.292">FALSA_POSICION</text></g><g id=":abrirResultadoFalsaPosicion"><rect fill="#FAF4B4" height="50" rx="12.5" ry="12.5" style="stroke:#C90000;stroke-width:0.5;" width="221.1133" x="137.94" y="870.5969"/><line style="stroke:#C90000;stroke-width:0.5;" x1="137.94" x2="359.0533" y1="896.8938" y2="896.8938"/><text fill="#000000" font-family="sans-serif" font-size="14" lengthAdjust="spacing" textLength="201.1133" x="147.94" y="888.592">:abrirResultadoFalsaPosicion</text></g><g id="RESULTADO_FALSA_POSICION"><rect fill="#FAF4B4" height="50" rx="12.5" ry="12.5" style="stroke:#C90000;stroke-width:0.5;" width="231.2031" x="132.9" y="981.5969"/><line style="stroke:#C90000;stroke-width:0.5;" x1="132.9" x2="364.1031" y1="1007.8938" y2="1007.8938"/><text fill="#000000" font-family="sans-serif" font-size="14" lengthAdjust="spacing" textLength="211.2031" x="142.9" y="999.592">RESULTADO_FALSA_POSICION</text></g><!--link FALSA_POSICION to crear_falsa_posicion--><g class="link" data-entity-1="FALSA_POSICION" data-entity-2="crear_falsa_posicion" data-source-line="15" data-uid="lnk3" id="link_FALSA_POSICION_crear_falsa_posicion"><path d="M248.5,94.6569 C248.5,118.7169 248.5,152.4269 248.5,197.9469" fill="none" id="FALSA_POSICION-to-crear_falsa_posicion" style="stroke:#008000;stroke-width:1;"/><polygon fill="#008000" points="248.5,203.9469,252.5,194.9469,248.5,198.9469,244.5,194.9469,248.5,203.9469" style="stroke:#008000;stroke-width:1;"/><path d="M253.5,129.2969 L253.5,169.2969 L479.5,169.2969 L479.5,139.2969 L469.5,129.2969 L253.5,129.2969" fill="#F5F5F5" style="stroke:#181818;stroke-width:0.5;"/><path d="M469.5,129.2969 L469.5,139.2969 L479.5,139.2969 L469.5,129.2969" fill="#F5F5F5" style="stroke:#181818;stroke-width:0.5;"/><text fill="#000000" font-family="sans-serif" font-size="13" font-weight="bold" lengthAdjust="spacing" textLength="118.5742" x="259.5" y="146.3638">Usuario solicita:</text><text fill="#000000" font-family="sans-serif" font-size="13" lengthAdjust="spacing" textLength="205.8545" x="259.5" y="161.4966">- Crear operaci&#243;n falsa posici&#243;n</text></g><!--link crear_falsa_posicion to :abrirResultadoFalsaPosicion--><g class="link" data-entity-1="crear_falsa_posicion" data-entity-2=":abrirResultadoFalsaPosicion" data-source-line="52" data-uid="lnk12" id="link_crear_falsa_posicion_:abrirResultadoFalsaPosicion"><path d="M248.5,809.7469 C248.5,834.2569 248.5,849.3369 248.5,864.3469" fill="none" id="crear_falsa_posicion-to-:abrirResultadoFalsaPosicion" style="stroke:#008000;stroke-width:1;"/><polygon fill="#008000" points="248.5,870.3469,252.5,861.3469,248.5,865.3469,244.5,861.3469,248.5,870.3469" style="stroke:#008000;stroke-width:1;"/></g><!--link :abrirResultadoFalsaPosicion to RESULTADO_FALSA_POSICION--><g class="link" data-entity-1=":abrirResultadoFalsaPosicion" data-entity-2="RESULTADO_FALSA_POSICION" data-source-line="54" data-uid="lnk14" id="link_:abrirResultadoFalsaPosicion_RESULTADO_FALSA_POSICION"><path d="M248.5,921.0569 C248.5,939.0069 248.5,957.2869 248.5,975.2169" fill="none" id=":abrirResultadoFalsaPosicion-to-RESULTADO_FALSA_POSICION" style="stroke:#008000;stroke-width:1;"/><polygon fill="#008000" points="248.5,981.2169,252.5,972.2169,248.5,976.2169,244.5,972.2169,248.5,981.2169" style="stroke:#008000;stroke-width:1;"/></g><!--SRC=[jLB1JYCn3BtdAoouZLI9KlQm791A0QbInOmeFLLLPJekYfh6WvDP2Qtu6Bw1J-YFaGGwxR1TRcH6YltYsEyvTYjjAnHSW_Fe2VugW4jSh1w5QriEsB30yHANPmzdyOIb9Fb45xzFmb8lIhacYUN_vlWLltQqqPRySqLGiNcEZb9UUqDmHHvDs0Ve64g2ITW6GYYGLoIuq9it2pTe74B1JYTVANNJ7utxyo8V3mV3_1Owq-D78RAppWKiuktvCbwPL-aAMvNOieqyLe5pbarSZQ8P79iGuV4yomBU-QpDkzef4LHDRR9bqXxKfJOUAfVwyd7S1NHm14SDSFeLwEs0y4-pMKjDDs3T5d8Qa2zouigoiNQUrWX2JxKc8IXGDgzhyiBkGrvS7LZMDlLawrSdExFRcFVvgB5lOqGZ78A6VKAzGuHs7Iw4AvPO4N-EKIyo4YgtBVk7ptIlD0pjdyshqIMxsO4qZR3m5d6A3xxmVjmvFeYMEtAryLXocjPYEtdgkzDMchlhyMHqtx_Av-tfVWS0]--></g></svg>