<svg xmlns="http://www.w3.org/2000/svg" xmlns:xlink="http://www.w3.org/1999/xlink" contentStyleType="text/css" data-diagram-type="STATE" height="917px" preserveAspectRatio="none" style="width:353px;height:917px;background:#FFFFFF;" version="1.1" viewBox="0 0 353 917" width="353px" zoomAndPan="magnify"><title>Detalle Caso de Uso Abrir M&#233;todo Horner</title><defs/><g><g class="title" data-source-line="12"><text fill="#000000" font-family="sans-serif" font-size="14" font-weight="bold" lengthAdjust="spacing" textLength="325.5479" x="10" y="22.9951">Detalle Caso de Uso Abrir M&#233;todo Horner</text></g><path d="M49.2739,204.2969 L262.2739,204.2969 A12.5,12.5 0 0 1 274.7739,216.7969 L274.7739,230.5938 L36.7739,230.5938 L36.7739,216.7969 A12.5,12.5 0 0 1 49.2739,204.2969" fill="#FAF4B4"/><rect fill="none" height="485.2969" rx="12.5" ry="12.5" style="stroke:#C90000;stroke-width:0.5;" width="238" x="36.7739" y="204.2969"/><line style="stroke:#C90000;stroke-width:0.5;" x1="36.7739" x2="274.7739" y1="230.5938" y2="230.5938"/><text fill="#000000" font-family="sans-serif" font-size="14" lengthAdjust="spacing" textLength="86.3037" x="112.6221" y="222.292">abrir_horner</text><g id="abrir_horner.1"><rect fill="#FAF4B4" height="50" rx="12.5" ry="12.5" style="stroke:#C90000;stroke-width:0.5;" width="50" x="48.7739" y="298.5938"/><line style="stroke:#C90000;stroke-width:0.5;" x1="48.7739" x2="98.7739" y1="324.8906" y2="324.8906"/><text fill="#000000" font-family="sans-serif" font-size="14" lengthAdjust="spacing" textLength="4.4502" x="71.5488" y="316.5889">&#160;</text></g><g id="abrir_horner.2"><rect fill="#FAF4B4" height="50" rx="12.5" ry="12.5" style="stroke:#C90000;stroke-width:0.5;" width="50" x="48.7739" y="434.5938"/><line style="stroke:#C90000;stroke-width:0.5;" x1="48.7739" x2="98.7739" y1="460.8906" y2="460.8906"/><text fill="#000000" font-family="sans-serif" font-size="14" lengthAdjust="spacing" textLength="4.4502" x="71.5488" y="452.5889">&#160;</text></g><g id="abrir_horner.3"><rect fill="#FAF4B4" height="50" rx="12.5" ry="12.5" style="stroke:#C90000;stroke-width:0.5;" width="50" x="48.7739" y="570.5938"/><line style="stroke:#C90000;stroke-width:0.5;" x1="48.7739" x2="98.7739" y1="596.8906" y2="596.8906"/><text fill="#000000" font-family="sans-serif" font-size="14" lengthAdjust="spacing" textLength="4.4502" x="71.5488" y="588.5889">&#160;</text></g><ellipse cx="73.7739" cy="251.5938" fill="#222222" rx="10" ry="10" style="stroke:#222222;stroke-width:1;"/><ellipse cx="73.7739" cy="668.5938" fill="none" rx="11" ry="11" style="stroke:#222222;stroke-width:1;"/><ellipse cx="73.7739" cy="668.5938" fill="#222222" rx="6" ry="6" style="stroke:#222222;stroke-width:1;"/><!--link *start*abrir_horner to 1--><g class="link" data-entity-1=".start.abrir_horner" data-entity-2="1" data-source-line="26" data-uid="lnk5" id="link_.start.abrir_horner_1"><path d="M73.7739,262.0338 C73.7739,271.2938 73.7739,279.7838 73.7739,292.2738" fill="none" id="*start*abrir_horner-to-1" style="stroke:#008000;stroke-width:1;"/><polygon fill="#008000" points="73.7739,298.2738,77.7739,289.2738,73.7739,293.2738,69.7739,289.2738,73.7739,298.2738" style="stroke:#008000;stroke-width:1;"/></g><!--link 1 to 2--><g class="link" data-entity-1="1" data-entity-2="2" data-source-line="27" data-uid="lnk6" id="link_1_2"><path d="M73.7739,348.8638 C73.7739,373.1438 73.7739,404.2838 73.7739,428.5037" fill="none" id="1-to-2" style="stroke:#008000;stroke-width:1;"/><polygon fill="#008000" points="73.7739,434.5037,77.7739,425.5037,73.7739,429.5037,69.7739,425.5037,73.7739,434.5037" style="stroke:#008000;stroke-width:1;"/><path d="M78.7739,371.5938 L78.7739,411.5938 L265.7739,411.5938 L265.7739,381.5938 L255.7739,371.5938 L78.7739,371.5938" fill="#F5F5F5" style="stroke:#181818;stroke-width:0.5;"/><path d="M255.7739,371.5938 L255.7739,381.5938 L265.7739,381.5938 L255.7739,371.5938" fill="#F5F5F5" style="stroke:#181818;stroke-width:0.5;"/><text fill="#000000" font-family="sans-serif" font-size="13" font-weight="bold" lengthAdjust="spacing" textLength="130.9204" x="84.7739" y="388.6606">Sistema requiere:</text><text fill="#000000" font-family="sans-serif" font-size="13" lengthAdjust="spacing" textLength="166.937" x="84.7739" y="403.7935">- M&#233;todo horner conocido</text></g><!--link 2 to 3--><g class="link" data-entity-1="2" data-entity-2="3" data-source-line="32" data-uid="lnk7" id="link_2_3"><path d="M73.7739,484.8638 C73.7739,509.1438 73.7739,540.2838 73.7739,564.5038" fill="none" id="2-to-3" style="stroke:#008000;stroke-width:1;"/><polygon fill="#008000" points="73.7739,570.5038,77.7739,561.5038,73.7739,565.5038,69.7739,561.5038,73.7739,570.5038" style="stroke:#008000;stroke-width:1;"/><path d="M78.7739,507.5938 L78.7739,547.5938 L265.7739,547.5938 L265.7739,517.5938 L255.7739,507.5938 L78.7739,507.5938" fill="#F5F5F5" style="stroke:#181818;stroke-width:0.5;"/><path d="M255.7739,507.5938 L255.7739,517.5938 L265.7739,517.5938 L255.7739,507.5938" fill="#F5F5F5" style="stroke:#181818;stroke-width:0.5;"/><text fill="#000000" font-family="sans-serif" font-size="13" font-weight="bold" lengthAdjust="spacing" textLength="139.5596" x="84.7739" y="524.6606">Cliente Selecciona:</text><text fill="#000000" font-family="sans-serif" font-size="13" lengthAdjust="spacing" textLength="166.937" x="84.7739" y="539.7935">- M&#233;todo horner conocido</text></g><!--link 3 to *end*abrir_horner--><g class="link" data-entity-1="3" data-entity-2=".end.abrir_horner" data-source-line="38" data-uid="lnk9" id="link_3_.end.abrir_horner"><path d="M73.7739,621.0238 C73.7739,633.3838 73.7739,641.7238 73.7739,651.1938" fill="none" id="3-to-*end*abrir_horner" style="stroke:#008000;stroke-width:1;"/><polygon fill="#008000" points="73.7739,657.1938,77.7739,648.1938,73.7739,652.1938,69.7739,648.1938,73.7739,657.1938" style="stroke:#008000;stroke-width:1;"/></g><g id="ECUACIONES_UNA_VARIABLE"><rect fill="#FAF4B4" height="50" rx="12.5" ry="12.5" style="stroke:#C90000;stroke-width:0.5;" width="224.709" x="43.4239" y="44.2969"/><line style="stroke:#C90000;stroke-width:0.5;" x1="43.4239" x2="268.1329" y1="70.5938" y2="70.5938"/><text fill="#000000" font-family="sans-serif" font-size="14" lengthAdjust="spacing" textLength="204.709" x="53.4239" y="62.292">ECUACIONES_UNA_VARIABLE</text></g><g id=".abrirHorner"><rect fill="#FAF4B4" height="50" rx="12.5" ry="12.5" style="stroke:#C90000;stroke-width:0.5;" width="105.6748" x="102.9339" y="750.5969"/><line style="stroke:#C90000;stroke-width:0.5;" x1="102.9339" x2="208.6087" y1="776.8938" y2="776.8938"/><text fill="#000000" font-family="sans-serif" font-size="14" lengthAdjust="spacing" textLength="85.6748" x="112.9339" y="768.592">:abrirHorner</text></g><g id="HORNER"><rect fill="#FAF4B4" height="50" rx="12.5" ry="12.5" style="stroke:#C90000;stroke-width:0.5;" width="80.3203" x="115.6139" y="861.5969"/><line style="stroke:#C90000;stroke-width:0.5;" x1="115.6139" x2="195.9342" y1="887.8938" y2="887.8938"/><text fill="#000000" font-family="sans-serif" font-size="14" lengthAdjust="spacing" textLength="60.3203" x="125.6139" y="879.592">HORNER</text></g><!--link ECUACIONES_UNA_VARIABLE to abrir_horner--><g class="link" data-entity-1="ECUACIONES_UNA_VARIABLE" data-entity-2="abrir_horner" data-source-line="15" data-uid="lnk3" id="link_ECUACIONES_UNA_VARIABLE_abrir_horner"><path d="M155.7739,94.6569 C155.7739,119.0469 155.7739,153.2969 155.7739,198.0169" fill="none" id="ECUACIONES_UNA_VARIABLE-to-abrir_horner" style="stroke:#008000;stroke-width:1;"/><polygon fill="#008000" points="155.7739,204.0169,159.7739,195.0169,155.7739,199.0169,151.7739,195.0169,155.7739,204.0169" style="stroke:#008000;stroke-width:1;"/><path d="M160.7739,129.2969 L160.7739,169.2969 L322.7739,169.2969 L322.7739,139.2969 L312.7739,129.2969 L160.7739,129.2969" fill="#F5F5F5" style="stroke:#181818;stroke-width:0.5;"/><path d="M312.7739,129.2969 L312.7739,139.2969 L322.7739,139.2969 L312.7739,129.2969" fill="#F5F5F5" style="stroke:#181818;stroke-width:0.5;"/><text fill="#000000" font-family="sans-serif" font-size="13" font-weight="bold" lengthAdjust="spacing" textLength="114.0103" x="166.7739" y="146.3638">Cliente solicita:</text><text fill="#000000" font-family="sans-serif" font-size="13" lengthAdjust="spacing" textLength="141.6606" x="166.7739" y="161.4966">- Abrir M&#233;todo Horner</text></g><!--link abrir_horner to :abrirHorner--><g class="link" data-entity-1="abrir_horner" data-entity-2=".abrirHorner" data-source-line="41" data-uid="lnk11" id="link_abrir_horner_.abrirHorner"><path d="M155.7739,690.0569 C155.7739,714.2169 155.7739,729.3469 155.7739,744.4469" fill="none" id="abrir_horner-to-:abrirHorner" style="stroke:#008000;stroke-width:1;"/><polygon fill="#008000" points="155.7739,750.4469,159.7739,741.4469,155.7739,745.4469,151.7739,741.4469,155.7739,750.4469" style="stroke:#008000;stroke-width:1;"/></g><!--link :abrirHorner to HORNER--><g class="link" data-entity-1=".abrirHorner" data-entity-2="HORNER" data-source-line="43" data-uid="lnk13" id="link_.abrirHorner_HORNER"><path d="M155.7739,801.0569 C155.7739,819.0069 155.7739,837.2869 155.7739,855.2169" fill="none" id=":abrirHorner-to-HORNER" style="stroke:#008000;stroke-width:1;"/><polygon fill="#008000" points="155.7739,861.2169,159.7739,852.2169,155.7739,856.2169,151.7739,852.2169,155.7739,861.2169" style="stroke:#008000;stroke-width:1;"/></g><!--SRC=[ZLBHQi8m57tFLrpqhL1OrJtCXq7j2WgRWk9UH2IsLnUCkIw93pBsGVkE_TYITjPM7Ems4EwvpJtdtCJiX3fmpVTWBBS87mnWmBFTLjDHvGb9qj3Uy4rltVCLqZdgNpHxk7F1FXapLHD5V_Quzr_pRoaKsjC1uK3ov1F6hB0IuGajbsvFk2784UPkYzTQQ7Zv_hAK4mn9AzICiJIPnybeCavdg_auNht6qr4yU4uXNBIt6b4jmqVW_kZghJnII2JboNTEQ10aKg1oc24fCc5vFmWS7jucH9KN9fsDObxrrjvtYKR03RIWLG6TQw1x0TnQ1Ck6uCXXKGFfEEHAkOyWc0bZSSz1u_jHeCPIlO-mqbxAWumKPI8dLwziW9DMv-dUuhdCQ8OIiqoGucUU_x6ufDlWSOxzMwYFhrxk5uNp9TUpHfVXP3fEfpy0]--></g></svg>