<svg xmlns="http://www.w3.org/2000/svg" xmlns:xlink="http://www.w3.org/1999/xlink" contentStyleType="text/css" data-diagram-type="STATE" height="917px" preserveAspectRatio="none" style="width:359px;height:917px;background:#FFFFFF;" version="1.1" viewBox="0 0 359 917" width="359px" zoomAndPan="magnify"><title>Detalle Caso de Uso Abrir M&#233;todo Newton</title><defs/><g><g class="title" data-source-line="12"><text fill="#000000" font-family="sans-serif" font-size="14" font-weight="bold" lengthAdjust="spacing" textLength="331.3652" x="10" y="22.9951">Detalle Caso de Uso Abrir M&#233;todo Newton</text></g><path d="M48.4326,204.2969 L266.4326,204.2969 A12.5,12.5 0 0 1 278.9326,216.7969 L278.9326,230.5938 L35.9326,230.5938 L35.9326,216.7969 A12.5,12.5 0 0 1 48.4326,204.2969" fill="#FAF4B4" style="stroke:#FAF4B4;stroke-width:1;"/><rect fill="none" height="485.2969" rx="12.5" ry="12.5" style="stroke:#C90000;stroke-width:0.5;" width="243" x="35.9326" y="204.2969"/><line style="stroke:#C90000;stroke-width:0.5;" x1="35.9326" x2="278.9326" y1="230.5938" y2="230.5938"/><text fill="#000000" font-family="sans-serif" font-size="14" lengthAdjust="spacing" textLength="91.7314" x="111.5669" y="222.292">abrir_newton</text><g id="abrir_newton.1"><rect fill="#FAF4B4" height="50" rx="12.5" ry="12.5" style="stroke:#C90000;stroke-width:0.5;" width="50" x="47.9326" y="298.5938"/><line style="stroke:#C90000;stroke-width:0.5;" x1="47.9326" x2="97.9326" y1="324.8906" y2="324.8906"/><text fill="#000000" font-family="sans-serif" font-size="14" lengthAdjust="spacing" textLength="4.4502" x="70.7075" y="316.5889">&#160;</text></g><g id="abrir_newton.2"><rect fill="#FAF4B4" height="50" rx="12.5" ry="12.5" style="stroke:#C90000;stroke-width:0.5;" width="50" x="47.9326" y="434.5938"/><line style="stroke:#C90000;stroke-width:0.5;" x1="47.9326" x2="97.9326" y1="460.8906" y2="460.8906"/><text fill="#000000" font-family="sans-serif" font-size="14" lengthAdjust="spacing" textLength="4.4502" x="70.7075" y="452.5889">&#160;</text></g><g id="abrir_newton.3"><rect fill="#FAF4B4" height="50" rx="12.5" ry="12.5" style="stroke:#C90000;stroke-width:0.5;" width="50" x="47.9326" y="570.5938"/><line style="stroke:#C90000;stroke-width:0.5;" x1="47.9326" x2="97.9326" y1="596.8906" y2="596.8906"/><text fill="#000000" font-family="sans-serif" font-size="14" lengthAdjust="spacing" textLength="4.4502" x="70.7075" y="588.5889">&#160;</text></g><ellipse cx="72.9326" cy="251.5938" fill="#222222" rx="10" ry="10" style="stroke:#222222;stroke-width:1;"/><ellipse cx="72.9326" cy="668.5938" fill="none" rx="11" ry="11" style="stroke:#222222;stroke-width:1;"/><ellipse cx="72.9326" cy="668.5938" fill="#222222" rx="6" ry="6" style="stroke:#222222;stroke-width:1;"/><!--link *start*abrir_newton to 1--><g class="link" data-entity-1="*start*abrir_newton" data-entity-2="1" data-source-line="26" data-uid="lnk5" id="link_*start*abrir_newton_1"><path d="M72.9326,262.0338 C72.9326,271.2938 72.9326,279.7838 72.9326,292.2738" fill="none" id="*start*abrir_newton-to-1" style="stroke:#008000;stroke-width:1;"/><polygon fill="#008000" points="72.9326,298.2738,76.9326,289.2738,72.9326,293.2738,68.9326,289.2738,72.9326,298.2738" style="stroke:#008000;stroke-width:1;"/></g><!--link 1 to 2--><g class="link" data-entity-1="1" data-entity-2="2" data-source-line="27" data-uid="lnk6" id="link_1_2"><path d="M72.9326,348.8638 C72.9326,373.1438 72.9326,404.2838 72.9326,428.5037" fill="none" id="1-to-2" style="stroke:#008000;stroke-width:1;"/><polygon fill="#008000" points="72.9326,434.5037,76.9326,425.5037,72.9326,429.5037,68.9326,425.5037,72.9326,434.5037" style="stroke:#008000;stroke-width:1;"/><path d="M77.9326,371.5938 L77.9326,411.5938 L269.9326,411.5938 L269.9326,381.5938 L259.9326,371.5938 L77.9326,371.5938" fill="#F5F5F5" style="stroke:#181818;stroke-width:0.5;"/><path d="M259.9326,371.5938 L259.9326,381.5938 L269.9326,381.5938 L259.9326,371.5938" fill="#F5F5F5" style="stroke:#181818;stroke-width:0.5;"/><text fill="#000000" font-family="sans-serif" font-size="13" font-weight="bold" lengthAdjust="spacing" textLength="130.9204" x="83.9326" y="388.6606">Sistema requiere:</text><text fill="#000000" font-family="sans-serif" font-size="13" lengthAdjust="spacing" textLength="171.9771" x="83.9326" y="403.7935">- M&#233;todo newton conocido</text></g><!--link 2 to 3--><g class="link" data-entity-1="2" data-entity-2="3" data-source-line="32" data-uid="lnk7" id="link_2_3"><path d="M72.9326,484.8638 C72.9326,509.1438 72.9326,540.2838 72.9326,564.5038" fill="none" id="2-to-3" style="stroke:#008000;stroke-width:1;"/><polygon fill="#008000" points="72.9326,570.5038,76.9326,561.5038,72.9326,565.5038,68.9326,561.5038,72.9326,570.5038" style="stroke:#008000;stroke-width:1;"/><path d="M77.9326,507.5938 L77.9326,547.5938 L269.9326,547.5938 L269.9326,517.5938 L259.9326,507.5938 L77.9326,507.5938" fill="#F5F5F5" style="stroke:#181818;stroke-width:0.5;"/><path d="M259.9326,507.5938 L259.9326,517.5938 L269.9326,517.5938 L259.9326,507.5938" fill="#F5F5F5" style="stroke:#181818;stroke-width:0.5;"/><text fill="#000000" font-family="sans-serif" font-size="13" font-weight="bold" lengthAdjust="spacing" textLength="144.1235" x="83.9326" y="524.6606">Usuario Selecciona:</text><text fill="#000000" font-family="sans-serif" font-size="13" lengthAdjust="spacing" textLength="171.9771" x="83.9326" y="539.7935">- M&#233;todo newton conocido</text></g><!--link 3 to *end*abrir_newton--><g class="link" data-entity-1="3" data-entity-2="*end*abrir_newton" data-source-line="38" data-uid="lnk9" id="link_3_*end*abrir_newton"><path d="M72.9326,621.0238 C72.9326,633.3838 72.9326,641.7238 72.9326,651.1938" fill="none" id="3-to-*end*abrir_newton" style="stroke:#008000;stroke-width:1;"/><polygon fill="#008000" points="72.9326,657.1938,76.9326,648.1938,72.9326,652.1938,68.9326,648.1938,72.9326,657.1938" style="stroke:#008000;stroke-width:1;"/></g><g id="ECUACIONES_UNA_VARIABLE"><rect fill="#FAF4B4" height="50" rx="12.5" ry="12.5" style="stroke:#C90000;stroke-width:0.5;" width="224.709" x="45.0826" y="44.2969"/><line style="stroke:#C90000;stroke-width:0.5;" x1="45.0826" x2="269.7916" y1="70.5938" y2="70.5938"/><text fill="#000000" font-family="sans-serif" font-size="14" lengthAdjust="spacing" textLength="204.709" x="55.0826" y="62.292">ECUACIONES_UNA_VARIABLE</text></g><g id=":abrirNewton"><rect fill="#FAF4B4" height="50" rx="12.5" ry="12.5" style="stroke:#C90000;stroke-width:0.5;" width="111.0479" x="101.9126" y="750.5969"/><line style="stroke:#C90000;stroke-width:0.5;" x1="101.9126" x2="212.9605" y1="776.8938" y2="776.8938"/><text fill="#000000" font-family="sans-serif" font-size="14" lengthAdjust="spacing" textLength="91.0479" x="111.9126" y="768.592">:abrirNewton</text></g><g id="NEWTON"><rect fill="#FAF4B4" height="50" rx="12.5" ry="12.5" style="stroke:#C90000;stroke-width:0.5;" width="83.2051" x="115.8326" y="861.5969"/><line style="stroke:#C90000;stroke-width:0.5;" x1="115.8326" x2="199.0377" y1="887.8938" y2="887.8938"/><text fill="#000000" font-family="sans-serif" font-size="14" lengthAdjust="spacing" textLength="63.2051" x="125.8326" y="879.592">NEWTON</text></g><!--link ECUACIONES_UNA_VARIABLE to abrir_newton--><g class="link" data-entity-1="ECUACIONES_UNA_VARIABLE" data-entity-2="abrir_newton" data-source-line="15" data-uid="lnk3" id="link_ECUACIONES_UNA_VARIABLE_abrir_newton"><path d="M157.4326,94.6569 C157.4326,119.0469 157.4326,153.2969 157.4326,198.0169" fill="none" id="ECUACIONES_UNA_VARIABLE-to-abrir_newton" style="stroke:#008000;stroke-width:1;"/><polygon fill="#008000" points="157.4326,204.0169,161.4326,195.0169,157.4326,199.0169,153.4326,195.0169,157.4326,204.0169" style="stroke:#008000;stroke-width:1;"/><path d="M162.4326,129.2969 L162.4326,169.2969 L329.4326,169.2969 L329.4326,139.2969 L319.4326,129.2969 L162.4326,129.2969" fill="#F5F5F5" style="stroke:#181818;stroke-width:0.5;"/><path d="M319.4326,129.2969 L319.4326,139.2969 L329.4326,139.2969 L319.4326,129.2969" fill="#F5F5F5" style="stroke:#181818;stroke-width:0.5;"/><text fill="#000000" font-family="sans-serif" font-size="13" font-weight="bold" lengthAdjust="spacing" textLength="118.5742" x="168.4326" y="146.3638">Usuario solicita:</text><text fill="#000000" font-family="sans-serif" font-size="13" lengthAdjust="spacing" textLength="146.6499" x="168.4326" y="161.4966">- Abrir M&#233;todo Newton</text></g><!--link abrir_newton to :abrirNewton--><g class="link" data-entity-1="abrir_newton" data-entity-2=":abrirNewton" data-source-line="41" data-uid="lnk11" id="link_abrir_newton_:abrirNewton"><path d="M157.4326,690.0569 C157.4326,714.2169 157.4326,729.3469 157.4326,744.4469" fill="none" id="abrir_newton-to-:abrirNewton" style="stroke:#008000;stroke-width:1;"/><polygon fill="#008000" points="157.4326,750.4469,161.4326,741.4469,157.4326,745.4469,153.4326,741.4469,157.4326,750.4469" style="stroke:#008000;stroke-width:1;"/></g><!--link :abrirNewton to NEWTON--><g class="link" data-entity-1=":abrirNewton" data-entity-2="NEWTON" data-source-line="43" data-uid="lnk13" id="link_:abrirNewton_NEWTON"><path d="M157.4326,801.0569 C157.4326,819.0069 157.4326,837.2869 157.4326,855.2169" fill="none" id=":abrirNewton-to-NEWTON" style="stroke:#008000;stroke-width:1;"/><polygon fill="#008000" points="157.4326,861.2169,161.4326,852.2169,157.4326,856.2169,153.4326,852.2169,157.4326,861.2169" style="stroke:#008000;stroke-width:1;"/></g><!--SRC=[ZLBBQiCm4BphAvRc9Z0qZnwQGy5nVGYq3ZHrUmWXAFOcY3ZQL58eeVI3-XtziKfsuzWXXQu5OcUjdPcLp4QgdT1Y2yOAY_3104OYswmrxLKUKK4QEYkn6Ym7la8wH_sBPhVNBjWdOwPkekZF7ZV-Q_zTI8Nsi4FOKN7m2MDMsWBX7gqet1u9Gv0Zf6uBbrfgUFp-ifGJ9FXkIJ76uYWDe_4aYQUBD0aNB-7JE1mzn13CEckDgER17GX_TA6g8wL4KfvyuuHodfgzq9B0K24pQSMGSuS7bmbHvQL9PwESLxErzrsXNH06hk2g1dhdGFy4k3NZyvRWhiEwBQJda3FbFZYVIcDnAq3ZsrwYnagzZw3MNic3Z1HbCYTNhss0azRawL_YESreYWLccIGbZZp_Ot59lyNZ7Fktq1nVipmi2yTBRcQjBady-Zn9VW00]--></g></svg>