<svg xmlns="http://www.w3.org/2000/svg" xmlns:xlink="http://www.w3.org/1999/xlink" contentStyleType="text/css" data-diagram-type="STATE" height="917px" preserveAspectRatio="none" style="width:379px;height:917px;background:#FFFFFF;" version="1.1" viewBox="0 0 379 917" width="379px" zoomAndPan="magnify"><title>Detalle Caso de Uso Abrir M&#233;todo Punto Fijo</title><defs/><g><g class="title" data-source-line="12"><text fill="#000000" font-family="sans-serif" font-size="14" font-weight="bold" lengthAdjust="spacing" textLength="351.1006" x="10" y="22.9951">Detalle Caso de Uso Abrir M&#233;todo Punto Fijo</text></g><path d="M47.3003,204.2969 L279.3003,204.2969 A12.5,12.5 0 0 1 291.8003,216.7969 L291.8003,230.5938 L34.8003,230.5938 L34.8003,216.7969 A12.5,12.5 0 0 1 47.3003,204.2969" fill="#FAF4B4" style="stroke:#FAF4B4;stroke-width:1;"/><rect fill="none" height="485.2969" rx="12.5" ry="12.5" style="stroke:#C90000;stroke-width:0.5;" width="257" x="34.8003" y="204.2969"/><line style="stroke:#C90000;stroke-width:0.5;" x1="34.8003" x2="291.8003" y1="230.5938" y2="230.5938"/><text fill="#000000" font-family="sans-serif" font-size="14" lengthAdjust="spacing" textLength="108.8281" x="108.8862" y="222.292">abrir_punto_fijo</text><g id="abrir_punto_fijo.1"><rect fill="#FAF4B4" height="50" rx="12.5" ry="12.5" style="stroke:#C90000;stroke-width:0.5;" width="50" x="46.8003" y="298.5938"/><line style="stroke:#C90000;stroke-width:0.5;" x1="46.8003" x2="96.8003" y1="324.8906" y2="324.8906"/><text fill="#000000" font-family="sans-serif" font-size="14" lengthAdjust="spacing" textLength="4.4502" x="69.5752" y="316.5889">&#160;</text></g><g id="abrir_punto_fijo.2"><rect fill="#FAF4B4" height="50" rx="12.5" ry="12.5" style="stroke:#C90000;stroke-width:0.5;" width="50" x="46.8003" y="434.5938"/><line style="stroke:#C90000;stroke-width:0.5;" x1="46.8003" x2="96.8003" y1="460.8906" y2="460.8906"/><text fill="#000000" font-family="sans-serif" font-size="14" lengthAdjust="spacing" textLength="4.4502" x="69.5752" y="452.5889">&#160;</text></g><g id="abrir_punto_fijo.3"><rect fill="#FAF4B4" height="50" rx="12.5" ry="12.5" style="stroke:#C90000;stroke-width:0.5;" width="50" x="46.8003" y="570.5938"/><line style="stroke:#C90000;stroke-width:0.5;" x1="46.8003" x2="96.8003" y1="596.8906" y2="596.8906"/><text fill="#000000" font-family="sans-serif" font-size="14" lengthAdjust="spacing" textLength="4.4502" x="69.5752" y="588.5889">&#160;</text></g><ellipse cx="71.8003" cy="251.5938" fill="#222222" rx="10" ry="10" style="stroke:#222222;stroke-width:1;"/><ellipse cx="71.8003" cy="668.5938" fill="none" rx="11" ry="11" style="stroke:#222222;stroke-width:1;"/><ellipse cx="71.8003" cy="668.5938" fill="#222222" rx="6" ry="6" style="stroke:#222222;stroke-width:1;"/><!--link *start*abrir_punto_fijo to 1--><g class="link" data-entity-1="*start*abrir_punto_fijo" data-entity-2="1" data-source-line="26" data-uid="lnk5" id="link_*start*abrir_punto_fijo_1"><path d="M71.8003,262.0338 C71.8003,271.2938 71.8003,279.7838 71.8003,292.2738" fill="none" id="*start*abrir_punto_fijo-to-1" style="stroke:#008000;stroke-width:1;"/><polygon fill="#008000" points="71.8003,298.2738,75.8003,289.2738,71.8003,293.2738,67.8003,289.2738,71.8003,298.2738" style="stroke:#008000;stroke-width:1;"/></g><!--link 1 to 2--><g class="link" data-entity-1="1" data-entity-2="2" data-source-line="27" data-uid="lnk6" id="link_1_2"><path d="M71.8003,348.8638 C71.8003,373.1438 71.8003,404.2838 71.8003,428.5037" fill="none" id="1-to-2" style="stroke:#008000;stroke-width:1;"/><polygon fill="#008000" points="71.8003,434.5037,75.8003,425.5037,71.8003,429.5037,67.8003,425.5037,71.8003,434.5037" style="stroke:#008000;stroke-width:1;"/><path d="M76.8003,371.5938 L76.8003,411.5938 L282.8003,411.5938 L282.8003,381.5938 L272.8003,371.5938 L76.8003,371.5938" fill="#F5F5F5" style="stroke:#181818;stroke-width:0.5;"/><path d="M272.8003,371.5938 L272.8003,381.5938 L282.8003,381.5938 L272.8003,371.5938" fill="#F5F5F5" style="stroke:#181818;stroke-width:0.5;"/><text fill="#000000" font-family="sans-serif" font-size="13" font-weight="bold" lengthAdjust="spacing" textLength="130.9204" x="82.8003" y="388.6606">Sistema requiere:</text><text fill="#000000" font-family="sans-serif" font-size="13" lengthAdjust="spacing" textLength="185.4849" x="82.8003" y="403.7935">- M&#233;todo punto fijo conocido</text></g><!--link 2 to 3--><g class="link" data-entity-1="2" data-entity-2="3" data-source-line="32" data-uid="lnk7" id="link_2_3"><path d="M71.8003,484.8638 C71.8003,509.1438 71.8003,540.2838 71.8003,564.5038" fill="none" id="2-to-3" style="stroke:#008000;stroke-width:1;"/><polygon fill="#008000" points="71.8003,570.5038,75.8003,561.5038,71.8003,565.5038,67.8003,561.5038,71.8003,570.5038" style="stroke:#008000;stroke-width:1;"/><path d="M76.8003,507.5938 L76.8003,547.5938 L282.8003,547.5938 L282.8003,517.5938 L272.8003,507.5938 L76.8003,507.5938" fill="#F5F5F5" style="stroke:#181818;stroke-width:0.5;"/><path d="M272.8003,507.5938 L272.8003,517.5938 L282.8003,517.5938 L272.8003,507.5938" fill="#F5F5F5" style="stroke:#181818;stroke-width:0.5;"/><text fill="#000000" font-family="sans-serif" font-size="13" font-weight="bold" lengthAdjust="spacing" textLength="144.1235" x="82.8003" y="524.6606">Usuario Selecciona:</text><text fill="#000000" font-family="sans-serif" font-size="13" lengthAdjust="spacing" textLength="185.4849" x="82.8003" y="539.7935">- M&#233;todo punto fijo conocido</text></g><!--link 3 to *end*abrir_punto_fijo--><g class="link" data-entity-1="3" data-entity-2="*end*abrir_punto_fijo" data-source-line="38" data-uid="lnk9" id="link_3_*end*abrir_punto_fijo"><path d="M71.8003,621.0238 C71.8003,633.3838 71.8003,641.7238 71.8003,651.1938" fill="none" id="3-to-*end*abrir_punto_fijo" style="stroke:#008000;stroke-width:1;"/><polygon fill="#008000" points="71.8003,657.1938,75.8003,648.1938,71.8003,652.1938,67.8003,648.1938,71.8003,657.1938" style="stroke:#008000;stroke-width:1;"/></g><g id="ECUACIONES_UNA_VARIABLE"><rect fill="#FAF4B4" height="50" rx="12.5" ry="12.5" style="stroke:#C90000;stroke-width:0.5;" width="224.709" x="50.9503" y="44.2969"/><line style="stroke:#C90000;stroke-width:0.5;" x1="50.9503" x2="275.6593" y1="70.5938" y2="70.5938"/><text fill="#000000" font-family="sans-serif" font-size="14" lengthAdjust="spacing" textLength="204.709" x="60.9503" y="62.292">ECUACIONES_UNA_VARIABLE</text></g><g id=":abrirPuntoFijo"><rect fill="#FAF4B4" height="50" rx="12.5" ry="12.5" style="stroke:#C90000;stroke-width:0.5;" width="122.2246" x="102.1903" y="750.5969"/><line style="stroke:#C90000;stroke-width:0.5;" x1="102.1903" x2="224.4149" y1="776.8938" y2="776.8938"/><text fill="#000000" font-family="sans-serif" font-size="14" lengthAdjust="spacing" textLength="102.2246" x="112.1903" y="768.592">:abrirPuntoFijo</text></g><g id="PUNTO_FIJO"><rect fill="#FAF4B4" height="50" rx="12.5" ry="12.5" style="stroke:#C90000;stroke-width:0.5;" width="103.0635" x="111.7703" y="861.5969"/><line style="stroke:#C90000;stroke-width:0.5;" x1="111.7703" x2="214.8338" y1="887.8938" y2="887.8938"/><text fill="#000000" font-family="sans-serif" font-size="14" lengthAdjust="spacing" textLength="83.0635" x="121.7703" y="879.592">PUNTO_FIJO</text></g><!--link ECUACIONES_UNA_VARIABLE to abrir_punto_fijo--><g class="link" data-entity-1="ECUACIONES_UNA_VARIABLE" data-entity-2="abrir_punto_fijo" data-source-line="15" data-uid="lnk3" id="link_ECUACIONES_UNA_VARIABLE_abrir_punto_fijo"><path d="M163.3003,94.6569 C163.3003,119.0469 163.3003,153.2969 163.3003,198.0169" fill="none" id="ECUACIONES_UNA_VARIABLE-to-abrir_punto_fijo" style="stroke:#008000;stroke-width:1;"/><polygon fill="#008000" points="163.3003,204.0169,167.3003,195.0169,163.3003,199.0169,159.3003,195.0169,163.3003,204.0169" style="stroke:#008000;stroke-width:1;"/><path d="M168.3003,129.2969 L168.3003,169.2969 L350.3003,169.2969 L350.3003,139.2969 L340.3003,129.2969 L168.3003,129.2969" fill="#F5F5F5" style="stroke:#181818;stroke-width:0.5;"/><path d="M340.3003,129.2969 L340.3003,139.2969 L350.3003,139.2969 L340.3003,129.2969" fill="#F5F5F5" style="stroke:#181818;stroke-width:0.5;"/><text fill="#000000" font-family="sans-serif" font-size="13" font-weight="bold" lengthAdjust="spacing" textLength="118.5742" x="174.3003" y="146.3638">Usuario solicita:</text><text fill="#000000" font-family="sans-serif" font-size="13" lengthAdjust="spacing" textLength="161.1606" x="174.3003" y="161.4966">- Abrir M&#233;todo Punto Fijo</text></g><!--link abrir_punto_fijo to :abrirPuntoFijo--><g class="link" data-entity-1="abrir_punto_fijo" data-entity-2=":abrirPuntoFijo" data-source-line="41" data-uid="lnk11" id="link_abrir_punto_fijo_:abrirPuntoFijo"><path d="M163.3003,690.0569 C163.3003,714.2169 163.3003,729.3469 163.3003,744.4469" fill="none" id="abrir_punto_fijo-to-:abrirPuntoFijo" style="stroke:#008000;stroke-width:1;"/><polygon fill="#008000" points="163.3003,750.4469,167.3003,741.4469,163.3003,745.4469,159.3003,741.4469,163.3003,750.4469" style="stroke:#008000;stroke-width:1;"/></g><!--link :abrirPuntoFijo to PUNTO_FIJO--><g class="link" data-entity-1=":abrirPuntoFijo" data-entity-2="PUNTO_FIJO" data-source-line="43" data-uid="lnk13" id="link_:abrirPuntoFijo_PUNTO_FIJO"><path d="M163.3003,801.0569 C163.3003,819.0069 163.3003,837.2869 163.3003,855.2169" fill="none" id=":abrirPuntoFijo-to-PUNTO_FIJO" style="stroke:#008000;stroke-width:1;"/><polygon fill="#008000" points="163.3003,861.2169,167.3003,852.2169,163.3003,856.2169,159.3003,852.2169,163.3003,861.2169" style="stroke:#008000;stroke-width:1;"/></g><!--SRC=[ZLBBRi8m4BpxArPmYnIfF7eeXqeX1Ocg1LIQNX2AJB8Wb-1DRUU0gdvGlwC_LZkqWKH5wYQIvV7kpipQUYTapXNVWpRS8BmpW25FTbj5XKn3oaX1UyCt_NNVdP1AKVsWoSsL3VR1cAwQIBhOuzfzzUnCI3I7726dxE0sZ1bXCeGxD3opQyWrGOeGsILOAw7WyUlJK4emBwGX68jNOeoDmYW89xFfQ157qo1-2PucmV1X1FwolLM8SkNV0dVbSUxAueqhAwMIT29sLh3dHRhWIX1eoaGY31zudiNzoyGeqzAmjLJEhadXvd0ywG3Nq89M1NIRGEy4s7_fhMhYEnRhr92kHHeEN7ZUGcY3UmuAtmg12eykNFYLXr8YE8cGaAH4f6HpAZjWvPrpzVxYEirhWHacYI39Vxd-psGtlHgNTUxUI7EKvoc3yh2yX-FzDu1QltaqVPx5uydzx1i0]--></g></svg>