<svg xmlns="http://www.w3.org/2000/svg" xmlns:xlink="http://www.w3.org/1999/xlink" contentStyleType="text/css" data-diagram-type="STATE" height="917px" preserveAspectRatio="none" style="width:348px;height:917px;background:#FFFFFF;" version="1.1" viewBox="0 0 348 917" width="348px" zoomAndPan="magnify"><title>Detalle Caso de Uso Abrir M&#233;todo M&#252;ller</title><defs/><g><g class="title" data-source-line="12"><text fill="#000000" font-family="sans-serif" font-size="14" font-weight="bold" lengthAdjust="spacing" textLength="320.8379" x="10" y="22.9951">Detalle Caso de Uso Abrir M&#233;todo M&#252;ller</text></g><path d="M49.1689,204.2969 L261.1689,204.2969 A12.5,12.5 0 0 1 273.6689,216.7969 L273.6689,230.5938 L36.6689,230.5938 L36.6689,216.7969 A12.5,12.5 0 0 1 49.1689,204.2969" fill="#FAF4B4" style="stroke:#FAF4B4;stroke-width:1;"/><rect fill="none" height="485.2969" rx="12.5" ry="12.5" style="stroke:#C90000;stroke-width:0.5;" width="237" x="36.6689" y="204.2969"/><line style="stroke:#C90000;stroke-width:0.5;" x1="36.6689" x2="273.6689" y1="230.5938" y2="230.5938"/><text fill="#000000" font-family="sans-serif" font-size="14" lengthAdjust="spacing" textLength="84.5264" x="112.9058" y="222.292">abrir_m&#252;ller</text><g id="abrir_m&#252;ller.1"><rect fill="#FAF4B4" height="50" rx="12.5" ry="12.5" style="stroke:#C90000;stroke-width:0.5;" width="50" x="48.6689" y="298.5938"/><line style="stroke:#C90000;stroke-width:0.5;" x1="48.6689" x2="98.6689" y1="324.8906" y2="324.8906"/><text fill="#000000" font-family="sans-serif" font-size="14" lengthAdjust="spacing" textLength="4.4502" x="71.4438" y="316.5889">&#160;</text></g><g id="abrir_m&#252;ller.2"><rect fill="#FAF4B4" height="50" rx="12.5" ry="12.5" style="stroke:#C90000;stroke-width:0.5;" width="50" x="48.6689" y="434.5938"/><line style="stroke:#C90000;stroke-width:0.5;" x1="48.6689" x2="98.6689" y1="460.8906" y2="460.8906"/><text fill="#000000" font-family="sans-serif" font-size="14" lengthAdjust="spacing" textLength="4.4502" x="71.4438" y="452.5889">&#160;</text></g><g id="abrir_m&#252;ller.3"><rect fill="#FAF4B4" height="50" rx="12.5" ry="12.5" style="stroke:#C90000;stroke-width:0.5;" width="50" x="48.6689" y="570.5938"/><line style="stroke:#C90000;stroke-width:0.5;" x1="48.6689" x2="98.6689" y1="596.8906" y2="596.8906"/><text fill="#000000" font-family="sans-serif" font-size="14" lengthAdjust="spacing" textLength="4.4502" x="71.4438" y="588.5889">&#160;</text></g><ellipse cx="73.6689" cy="251.5938" fill="#222222" rx="10" ry="10" style="stroke:#222222;stroke-width:1;"/><ellipse cx="73.6689" cy="668.5938" fill="none" rx="11" ry="11" style="stroke:#222222;stroke-width:1;"/><ellipse cx="73.6689" cy="668.5938" fill="#222222" rx="6" ry="6" style="stroke:#222222;stroke-width:1;"/><!--link *start*abrir_m?ller to 1--><g class="link" data-entity-1="*start*abrir_m&#252;ller" data-entity-2="1" data-source-line="26" data-uid="lnk5" id="link_*start*abrir_m&#252;ller_1"><path d="M73.6689,262.0338 C73.6689,271.2938 73.6689,279.7838 73.6689,292.2738" fill="none" id="*start*abrir_m&#252;ller-to-1" style="stroke:#008000;stroke-width:1;"/><polygon fill="#008000" points="73.6689,298.2738,77.6689,289.2738,73.6689,293.2738,69.6689,289.2738,73.6689,298.2738" style="stroke:#008000;stroke-width:1;"/></g><!--link 1 to 2--><g class="link" data-entity-1="1" data-entity-2="2" data-source-line="27" data-uid="lnk6" id="link_1_2"><path d="M73.6689,348.8638 C73.6689,373.1438 73.6689,404.2838 73.6689,428.5037" fill="none" id="1-to-2" style="stroke:#008000;stroke-width:1;"/><polygon fill="#008000" points="73.6689,434.5037,77.6689,425.5037,73.6689,429.5037,69.6689,425.5037,73.6689,434.5037" style="stroke:#008000;stroke-width:1;"/><path d="M78.6689,371.5938 L78.6689,411.5938 L264.6689,411.5938 L264.6689,381.5938 L254.6689,371.5938 L78.6689,371.5938" fill="#F5F5F5" style="stroke:#181818;stroke-width:0.5;"/><path d="M254.6689,371.5938 L254.6689,381.5938 L264.6689,381.5938 L254.6689,371.5938" fill="#F5F5F5" style="stroke:#181818;stroke-width:0.5;"/><text fill="#000000" font-family="sans-serif" font-size="13" font-weight="bold" lengthAdjust="spacing" textLength="130.9204" x="84.6689" y="388.6606">Sistema requiere:</text><text fill="#000000" font-family="sans-serif" font-size="13" lengthAdjust="spacing" textLength="165.2866" x="84.6689" y="403.7935">- M&#233;todo m&#252;ller conocido</text></g><!--link 2 to 3--><g class="link" data-entity-1="2" data-entity-2="3" data-source-line="32" data-uid="lnk7" id="link_2_3"><path d="M73.6689,484.8638 C73.6689,509.1438 73.6689,540.2838 73.6689,564.5038" fill="none" id="2-to-3" style="stroke:#008000;stroke-width:1;"/><polygon fill="#008000" points="73.6689,570.5038,77.6689,561.5038,73.6689,565.5038,69.6689,561.5038,73.6689,570.5038" style="stroke:#008000;stroke-width:1;"/><path d="M78.6689,507.5938 L78.6689,547.5938 L264.6689,547.5938 L264.6689,517.5938 L254.6689,507.5938 L78.6689,507.5938" fill="#F5F5F5" style="stroke:#181818;stroke-width:0.5;"/><path d="M254.6689,507.5938 L254.6689,517.5938 L264.6689,517.5938 L254.6689,507.5938" fill="#F5F5F5" style="stroke:#181818;stroke-width:0.5;"/><text fill="#000000" font-family="sans-serif" font-size="13" font-weight="bold" lengthAdjust="spacing" textLength="144.1235" x="84.6689" y="524.6606">Usuario Selecciona:</text><text fill="#000000" font-family="sans-serif" font-size="13" lengthAdjust="spacing" textLength="165.2866" x="84.6689" y="539.7935">- M&#233;todo m&#252;ller conocido</text></g><!--link 3 to *end*abrir_m?ller--><g class="link" data-entity-1="3" data-entity-2="*end*abrir_m&#252;ller" data-source-line="38" data-uid="lnk9" id="link_3_*end*abrir_m&#252;ller"><path d="M73.6689,621.0238 C73.6689,633.3838 73.6689,641.7238 73.6689,651.1938" fill="none" id="3-to-*end*abrir_m&#252;ller" style="stroke:#008000;stroke-width:1;"/><polygon fill="#008000" points="73.6689,657.1938,77.6689,648.1938,73.6689,652.1938,69.6689,648.1938,73.6689,657.1938" style="stroke:#008000;stroke-width:1;"/></g><g id="ECUACIONES_UNA_VARIABLE"><rect fill="#FAF4B4" height="50" rx="12.5" ry="12.5" style="stroke:#C90000;stroke-width:0.5;" width="224.709" x="42.8189" y="44.2969"/><line style="stroke:#C90000;stroke-width:0.5;" x1="42.8189" x2="267.5279" y1="70.5938" y2="70.5938"/><text fill="#000000" font-family="sans-serif" font-size="14" lengthAdjust="spacing" textLength="204.709" x="52.8189" y="62.292">ECUACIONES_UNA_VARIABLE</text></g><g id=":abrirM&#252;ller"><rect fill="#FAF4B4" height="50" rx="12.5" ry="12.5" style="stroke:#C90000;stroke-width:0.5;" width="100.6846" x="104.8289" y="750.5969"/><line style="stroke:#C90000;stroke-width:0.5;" x1="104.8289" x2="205.5135" y1="776.8938" y2="776.8938"/><text fill="#000000" font-family="sans-serif" font-size="14" lengthAdjust="spacing" textLength="80.6846" x="114.8289" y="768.592">:abrirM&#252;ller</text></g><g id="M&#220;LLER"><rect fill="#FAF4B4" height="50" rx="12.5" ry="12.5" style="stroke:#C90000;stroke-width:0.5;" width="76.499" x="116.9189" y="861.5969"/><line style="stroke:#C90000;stroke-width:0.5;" x1="116.9189" x2="193.418" y1="887.8938" y2="887.8938"/><text fill="#000000" font-family="sans-serif" font-size="14" lengthAdjust="spacing" textLength="56.499" x="126.9189" y="879.592">M&#220;LLER</text></g><!--link ECUACIONES_UNA_VARIABLE to abrir_m?ller--><g class="link" data-entity-1="ECUACIONES_UNA_VARIABLE" data-entity-2="abrir_m&#252;ller" data-source-line="15" data-uid="lnk3" id="link_ECUACIONES_UNA_VARIABLE_abrir_m&#252;ller"><path d="M155.1689,94.6569 C155.1689,119.0469 155.1689,153.2969 155.1689,198.0169" fill="none" id="ECUACIONES_UNA_VARIABLE-to-abrir_m&#252;ller" style="stroke:#008000;stroke-width:1;"/><polygon fill="#008000" points="155.1689,204.0169,159.1689,195.0169,155.1689,199.0169,151.1689,195.0169,155.1689,204.0169" style="stroke:#008000;stroke-width:1;"/><path d="M160.1689,129.2969 L160.1689,169.2969 L318.1689,169.2969 L318.1689,139.2969 L308.1689,129.2969 L160.1689,129.2969" fill="#F5F5F5" style="stroke:#181818;stroke-width:0.5;"/><path d="M308.1689,129.2969 L308.1689,139.2969 L318.1689,139.2969 L308.1689,129.2969" fill="#F5F5F5" style="stroke:#181818;stroke-width:0.5;"/><text fill="#000000" font-family="sans-serif" font-size="13" font-weight="bold" lengthAdjust="spacing" textLength="118.5742" x="166.1689" y="146.3638">Usuario solicita:</text><text fill="#000000" font-family="sans-serif" font-size="13" lengthAdjust="spacing" textLength="137.0269" x="166.1689" y="161.4966">- Abrir M&#233;todo M&#252;ller</text></g><!--link abrir_m?ller to :abrirM?ller--><g class="link" data-entity-1="abrir_m&#252;ller" data-entity-2=":abrirM&#252;ller" data-source-line="41" data-uid="lnk11" id="link_abrir_m&#252;ller_:abrirM&#252;ller"><path d="M155.1689,690.0569 C155.1689,714.2169 155.1689,729.3469 155.1689,744.4469" fill="none" id="abrir_m&#252;ller-to-:abrirM&#252;ller" style="stroke:#008000;stroke-width:1;"/><polygon fill="#008000" points="155.1689,750.4469,159.1689,741.4469,155.1689,745.4469,151.1689,741.4469,155.1689,750.4469" style="stroke:#008000;stroke-width:1;"/></g><!--link :abrirM?ller to M?LLER--><g class="link" data-entity-1=":abrirM&#252;ller" data-entity-2="M&#220;LLER" data-source-line="43" data-uid="lnk13" id="link_:abrirM&#252;ller_M&#220;LLER"><path d="M155.1689,801.0569 C155.1689,819.0069 155.1689,837.2869 155.1689,855.2169" fill="none" id=":abrirM&#252;ller-to-M&#220;LLER" style="stroke:#008000;stroke-width:1;"/><polygon fill="#008000" points="155.1689,861.2169,159.1689,852.2169,155.1689,856.2169,151.1689,852.2169,155.1689,861.2169" style="stroke:#008000;stroke-width:1;"/></g><!--SRC=[ZLBDQW8n4BxdAGQzBIpKdnxgeR1kzo2e1MLx4P6O7IMuPcmI3rBw9ds1laDllbYJrQwDLEXiO9Xl9lDzCrcpaMh7DT-2iTmYl360FXURjQQzAb8gIKDpnLVTPTTdI1UepwXuk7F6tXapTHD5DtlS-o-iBgL2UzWXxAWy-80nAss9y8IMbywdt10K2BbpoL9B3QFZfwM2dFzo1PenbgLvaWwUnzbqaO-JnKio6IJzOGRnhBdMY6eUFmBtTnVRyvrA92bFlt5IeoWtUwubWQ5I2cbvBueS7j-WH5LKSxf9gfK5pVti9xW5t4036ZNGlWOw5y2TMJGFDBSSrWgGjaEkj7kBegaq5hSSDBxk9MeywVSMr-hF-a2G8Y4BSWNr8E2q_IRg_4LqMTCKInH2ak8_HF-aSK4d878p-pyYsE3lVA_Ar6yTX46ZqV5ZECmctm00]--></g></svg>