<svg xmlns="http://www.w3.org/2000/svg" xmlns:xlink="http://www.w3.org/1999/xlink" contentStyleType="text/css" data-diagram-type="STATE" height="917px" preserveAspectRatio="none" style="width:362px;height:917px;background:#FFFFFF;" version="1.1" viewBox="0 0 362 917" width="362px" zoomAndPan="magnify"><title>Detalle Caso de Uso Abrir M&#233;todo Secante</title><defs/><g><g class="title" data-source-line="12"><text fill="#000000" font-family="sans-serif" font-size="14" font-weight="bold" lengthAdjust="spacing" textLength="334.4209" x="10" y="22.9951">Detalle Caso de Uso Abrir M&#233;todo Secante</text></g><path d="M47.4604,204.2969 L269.4604,204.2969 A12.5,12.5 0 0 1 281.9604,216.7969 L281.9604,230.5938 L34.9604,230.5938 L34.9604,216.7969 A12.5,12.5 0 0 1 47.4604,204.2969" fill="#FAF4B4"/><rect fill="none" height="485.2969" rx="12.5" ry="12.5" style="stroke:#C90000;stroke-width:0.5;" width="247" x="34.9604" y="204.2969"/><line style="stroke:#C90000;stroke-width:0.5;" x1="34.9604" x2="281.9604" y1="230.5938" y2="230.5938"/><text fill="#000000" font-family="sans-serif" font-size="14" lengthAdjust="spacing" textLength="95.0264" x="110.9473" y="222.292">abrir_secante</text><g id="abrir_secante.1"><rect fill="#FAF4B4" height="50" rx="12.5" ry="12.5" style="stroke:#C90000;stroke-width:0.5;" width="50" x="46.9604" y="298.5938"/><line style="stroke:#C90000;stroke-width:0.5;" x1="46.9604" x2="96.9604" y1="324.8906" y2="324.8906"/><text fill="#000000" font-family="sans-serif" font-size="14" lengthAdjust="spacing" textLength="4.4502" x="69.7354" y="316.5889">&#160;</text></g><g id="abrir_secante.2"><rect fill="#FAF4B4" height="50" rx="12.5" ry="12.5" style="stroke:#C90000;stroke-width:0.5;" width="50" x="46.9604" y="434.5938"/><line style="stroke:#C90000;stroke-width:0.5;" x1="46.9604" x2="96.9604" y1="460.8906" y2="460.8906"/><text fill="#000000" font-family="sans-serif" font-size="14" lengthAdjust="spacing" textLength="4.4502" x="69.7354" y="452.5889">&#160;</text></g><g id="abrir_secante.3"><rect fill="#FAF4B4" height="50" rx="12.5" ry="12.5" style="stroke:#C90000;stroke-width:0.5;" width="50" x="46.9604" y="570.5938"/><line style="stroke:#C90000;stroke-width:0.5;" x1="46.9604" x2="96.9604" y1="596.8906" y2="596.8906"/><text fill="#000000" font-family="sans-serif" font-size="14" lengthAdjust="spacing" textLength="4.4502" x="69.7354" y="588.5889">&#160;</text></g><ellipse cx="71.9604" cy="251.5938" fill="#222222" rx="10" ry="10" style="stroke:#222222;stroke-width:1;"/><ellipse cx="71.9604" cy="668.5938" fill="none" rx="11" ry="11" style="stroke:#222222;stroke-width:1;"/><ellipse cx="71.9604" cy="668.5938" fill="#222222" rx="6" ry="6" style="stroke:#222222;stroke-width:1;"/><!--link *start*abrir_secante to 1--><g class="link" data-entity-1=".start.abrir_secante" data-entity-2="1" data-source-line="26" data-uid="lnk5" id="link_.start.abrir_secante_1"><path d="M71.9604,262.0338 C71.9604,271.2938 71.9604,279.7838 71.9604,292.2738" fill="none" id="*start*abrir_secante-to-1" style="stroke:#008000;stroke-width:1;"/><polygon fill="#008000" points="71.9604,298.2738,75.9604,289.2738,71.9604,293.2738,67.9604,289.2738,71.9604,298.2738" style="stroke:#008000;stroke-width:1;"/></g><!--link 1 to 2--><g class="link" data-entity-1="1" data-entity-2="2" data-source-line="27" data-uid="lnk6" id="link_1_2"><path d="M71.9604,348.8638 C71.9604,373.1438 71.9604,404.2838 71.9604,428.5037" fill="none" id="1-to-2" style="stroke:#008000;stroke-width:1;"/><polygon fill="#008000" points="71.9604,434.5037,75.9604,425.5037,71.9604,429.5037,67.9604,425.5037,71.9604,434.5037" style="stroke:#008000;stroke-width:1;"/><path d="M76.9604,371.5938 L76.9604,411.5938 L272.9604,411.5938 L272.9604,381.5938 L262.9604,371.5938 L76.9604,371.5938" fill="#F5F5F5" style="stroke:#181818;stroke-width:0.5;"/><path d="M262.9604,371.5938 L262.9604,381.5938 L272.9604,381.5938 L262.9604,371.5938" fill="#F5F5F5" style="stroke:#181818;stroke-width:0.5;"/><text fill="#000000" font-family="sans-serif" font-size="13" font-weight="bold" lengthAdjust="spacing" textLength="130.9204" x="82.9604" y="388.6606">Sistema requiere:</text><text fill="#000000" font-family="sans-serif" font-size="13" lengthAdjust="spacing" textLength="175.0366" x="82.9604" y="403.7935">- M&#233;todo secante conocido</text></g><!--link 2 to 3--><g class="link" data-entity-1="2" data-entity-2="3" data-source-line="32" data-uid="lnk7" id="link_2_3"><path d="M71.9604,484.8638 C71.9604,509.1438 71.9604,540.2838 71.9604,564.5038" fill="none" id="2-to-3" style="stroke:#008000;stroke-width:1;"/><polygon fill="#008000" points="71.9604,570.5038,75.9604,561.5038,71.9604,565.5038,67.9604,561.5038,71.9604,570.5038" style="stroke:#008000;stroke-width:1;"/><path d="M76.9604,507.5938 L76.9604,547.5938 L272.9604,547.5938 L272.9604,517.5938 L262.9604,507.5938 L76.9604,507.5938" fill="#F5F5F5" style="stroke:#181818;stroke-width:0.5;"/><path d="M262.9604,507.5938 L262.9604,517.5938 L272.9604,517.5938 L262.9604,507.5938" fill="#F5F5F5" style="stroke:#181818;stroke-width:0.5;"/><text fill="#000000" font-family="sans-serif" font-size="13" font-weight="bold" lengthAdjust="spacing" textLength="139.5596" x="82.9604" y="524.6606">Cliente Selecciona:</text><text fill="#000000" font-family="sans-serif" font-size="13" lengthAdjust="spacing" textLength="175.0366" x="82.9604" y="539.7935">- M&#233;todo secante conocido</text></g><!--link 3 to *end*abrir_secante--><g class="link" data-entity-1="3" data-entity-2=".end.abrir_secante" data-source-line="38" data-uid="lnk9" id="link_3_.end.abrir_secante"><path d="M71.9604,621.0238 C71.9604,633.3838 71.9604,641.7238 71.9604,651.1938" fill="none" id="3-to-*end*abrir_secante" style="stroke:#008000;stroke-width:1;"/><polygon fill="#008000" points="71.9604,657.1938,75.9604,648.1938,71.9604,652.1938,67.9604,648.1938,71.9604,657.1938" style="stroke:#008000;stroke-width:1;"/></g><g id="ECUACIONES_UNA_VARIABLE"><rect fill="#FAF4B4" height="50" rx="12.5" ry="12.5" style="stroke:#C90000;stroke-width:0.5;" width="224.709" x="46.1104" y="44.2969"/><line style="stroke:#C90000;stroke-width:0.5;" x1="46.1104" x2="270.8194" y1="70.5938" y2="70.5938"/><text fill="#000000" font-family="sans-serif" font-size="14" lengthAdjust="spacing" textLength="204.709" x="56.1104" y="62.292">ECUACIONES_UNA_VARIABLE</text></g><g id=".abrirSecante"><rect fill="#FAF4B4" height="50" rx="12.5" ry="12.5" style="stroke:#C90000;stroke-width:0.5;" width="114.3359" x="101.2904" y="750.5969"/><line style="stroke:#C90000;stroke-width:0.5;" x1="101.2904" x2="215.6264" y1="776.8938" y2="776.8938"/><text fill="#000000" font-family="sans-serif" font-size="14" lengthAdjust="spacing" textLength="94.3359" x="111.2904" y="768.592">:abrirSecante</text></g><g id="SECANTE"><rect fill="#FAF4B4" height="50" rx="12.5" ry="12.5" style="stroke:#C90000;stroke-width:0.5;" width="84.9551" x="115.9804" y="861.5969"/><line style="stroke:#C90000;stroke-width:0.5;" x1="115.9804" x2="200.9355" y1="887.8938" y2="887.8938"/><text fill="#000000" font-family="sans-serif" font-size="14" lengthAdjust="spacing" textLength="64.9551" x="125.9804" y="879.592">SECANTE</text></g><!--link ECUACIONES_UNA_VARIABLE to abrir_secante--><g class="link" data-entity-1="ECUACIONES_UNA_VARIABLE" data-entity-2="abrir_secante" data-source-line="15" data-uid="lnk3" id="link_ECUACIONES_UNA_VARIABLE_abrir_secante"><path d="M158.4604,94.6569 C158.4604,119.0469 158.4604,153.2969 158.4604,198.0169" fill="none" id="ECUACIONES_UNA_VARIABLE-to-abrir_secante" style="stroke:#008000;stroke-width:1;"/><polygon fill="#008000" points="158.4604,204.0169,162.4604,195.0169,158.4604,199.0169,154.4604,195.0169,158.4604,204.0169" style="stroke:#008000;stroke-width:1;"/><path d="M163.4604,129.2969 L163.4604,169.2969 L333.4604,169.2969 L333.4604,139.2969 L323.4604,129.2969 L163.4604,129.2969" fill="#F5F5F5" style="stroke:#181818;stroke-width:0.5;"/><path d="M323.4604,129.2969 L323.4604,139.2969 L333.4604,139.2969 L323.4604,129.2969" fill="#F5F5F5" style="stroke:#181818;stroke-width:0.5;"/><text fill="#000000" font-family="sans-serif" font-size="13" font-weight="bold" lengthAdjust="spacing" textLength="114.0103" x="169.4604" y="146.3638">Cliente solicita:</text><text fill="#000000" font-family="sans-serif" font-size="13" lengthAdjust="spacing" textLength="149.7031" x="169.4604" y="161.4966">- Abrir M&#233;todo Secante</text></g><!--link abrir_secante to :abrirSecante--><g class="link" data-entity-1="abrir_secante" data-entity-2=".abrirSecante" data-source-line="41" data-uid="lnk11" id="link_abrir_secante_.abrirSecante"><path d="M158.4604,690.0569 C158.4604,714.2169 158.4604,729.3469 158.4604,744.4469" fill="none" id="abrir_secante-to-:abrirSecante" style="stroke:#008000;stroke-width:1;"/><polygon fill="#008000" points="158.4604,750.4469,162.4604,741.4469,158.4604,745.4469,154.4604,741.4469,158.4604,750.4469" style="stroke:#008000;stroke-width:1;"/></g><!--link :abrirSecante to SECANTE--><g class="link" data-entity-1=".abrirSecante" data-entity-2="SECANTE" data-source-line="43" data-uid="lnk13" id="link_.abrirSecante_SECANTE"><path d="M158.4604,801.0569 C158.4604,819.0069 158.4604,837.2869 158.4604,855.2169" fill="none" id=":abrirSecante-to-SECANTE" style="stroke:#008000;stroke-width:1;"/><polygon fill="#008000" points="158.4604,861.2169,162.4604,852.2169,158.4604,856.2169,154.4604,852.2169,158.4604,861.2169" style="stroke:#008000;stroke-width:1;"/></g><!--SRC=[ZL9DQm8n4BtlhnZq5bYe7ptKGs7Txa5eBNHhBo8IiwC4OsAJU93I7zJVqJ_MoMfN8nKwkn3cJMRUUxFhrb9lkUKRS9vxX8y4OCZ5UcNDJbUvKSP2UycN_KK_L8ojq1vHSNT3aNmcYMk6Q7DrncruujjAQlJxBSBMg7r8aiHBhn0Uq7D5PywTWGfXGaUsiDB2q_UNDvM14WNNdXgI8fza-UXvN9JpoJYRlsKlespuM40wRQyiefwbzy13xzmTUsgHHWVwDKbbB5SIgG3EA2cavmF624-lKAAkQf_af5vPD3nuFy0Tu0vQq6g0xYNGEm7qJjaiqjmXh1CXNK8kj8TWh9JEuuQ3nVUTH8i7_I7IHlrH7mYZZP2LeGkD4I1jvqIzluXEQofHeH3IQFvBz4yQIdeH4NaEVqIqmVFweAuqtpfAeq5baMVZr-87]--></g></svg>