<svg xmlns="http://www.w3.org/2000/svg" xmlns:xlink="http://www.w3.org/1999/xlink" contentStyleType="text/css" data-diagram-type="STATE" height="956px" preserveAspectRatio="none" style="width:526px;height:956px;background:#FFFFFF;" version="1.1" viewBox="0 0 526 956" width="526px" zoomAndPan="magnify"><title>Detalle Caso de Uso Crear Operaci&#243;n M&#252;ller</title><defs/><g><g class="title" data-source-line="14"><text fill="#000000" font-family="sans-serif" font-size="14" font-weight="bold" lengthAdjust="spacing" textLength="345.4746" x="83.5127" y="22.9951">Detalle Caso de Uso Crear Operaci&#243;n M&#252;ller</text></g><g id="M.LLER"><rect fill="#FAF4B4" height="50" rx="12.5" ry="12.5" style="stroke:#C90000;stroke-width:0.5;" width="76.499" x="356.25" y="44.2969"/><line style="stroke:#C90000;stroke-width:0.5;" x1="356.25" x2="432.749" y1="70.5938" y2="70.5938"/><text fill="#000000" font-family="sans-serif" font-size="14" lengthAdjust="spacing" textLength="56.499" x="366.25" y="62.292">M&#220;LLER</text></g><path d="M19.5,204.2969 L475.5,204.2969 A12.5,12.5 0 0 1 488,216.7969 L488,230.5938 L7,230.5938 L7,216.7969 A12.5,12.5 0 0 1 19.5,204.2969" fill="#FAF4B4"/><rect fill="none" height="635.2969" rx="12.5" ry="12.5" style="stroke:#C90000;stroke-width:0.5;" width="481" x="7" y="204.2969"/><line style="stroke:#C90000;stroke-width:0.5;" x1="7" x2="488" y1="230.5938" y2="230.5938"/><text fill="#000000" font-family="sans-serif" font-size="14" lengthAdjust="spacing" textLength="88.0605" x="203.4697" y="222.292">crear_m&#252;ller</text><g id="crear_m.ller.1"><rect fill="#FAF4B4" height="50" rx="12.5" ry="12.5" style="stroke:#C90000;stroke-width:0.5;" width="50" x="157" y="298.5938"/><line style="stroke:#C90000;stroke-width:0.5;" x1="157" x2="207" y1="324.8906" y2="324.8906"/><text fill="#000000" font-family="sans-serif" font-size="14" lengthAdjust="spacing" textLength="4.4502" x="179.7749" y="316.5889">&#160;</text></g><g id="crear_m.ller.2"><rect fill="#FAF4B4" height="50" rx="12.5" ry="12.5" style="stroke:#C90000;stroke-width:0.5;" width="50" x="19" y="509.5938"/><line style="stroke:#C90000;stroke-width:0.5;" x1="19" x2="69" y1="535.8906" y2="535.8906"/><text fill="#000000" font-family="sans-serif" font-size="14" lengthAdjust="spacing" textLength="4.4502" x="41.7749" y="527.5889">&#160;</text></g><g id="crear_m.ller.3"><rect fill="#FAF4B4" height="50" rx="12.5" ry="12.5" style="stroke:#C90000;stroke-width:0.5;" width="50" x="152" y="720.5938"/><line style="stroke:#C90000;stroke-width:0.5;" x1="152" x2="202" y1="746.8906" y2="746.8906"/><text fill="#000000" font-family="sans-serif" font-size="14" lengthAdjust="spacing" textLength="4.4502" x="174.7749" y="738.5889">&#160;</text></g><ellipse cx="182" cy="251.5938" fill="#222222" rx="10" ry="10" style="stroke:#222222;stroke-width:1;"/><ellipse cx="177" cy="818.5938" fill="none" rx="11" ry="11" style="stroke:#222222;stroke-width:1;"/><ellipse cx="177" cy="818.5938" fill="#222222" rx="6" ry="6" style="stroke:#222222;stroke-width:1;"/><!--link *start*crear_m?ller to 1--><g class="link" data-entity-1=".start.crear_m.ller" data-entity-2="1" data-source-line="29" data-uid="lnk4" id="link_.start.crear_m.ller_1"><path d="M182,262.0338 C182,271.2938 182,279.7838 182,292.2737" fill="none" id="*start*crear_m&#252;ller-to-1" style="stroke:#008000;stroke-width:1;"/><polygon fill="#008000" points="182,298.2737,186,289.2737,182,293.2737,178,289.2737,182,298.2737" style="stroke:#008000;stroke-width:1;"/></g><!--link 1 to 2--><g class="link" data-entity-1="1" data-entity-2="2" data-source-line="30" data-uid="lnk5" id="link_1_2"><path d="M156.6,332.9938 C119.54,345.2538 55,366.5938 55,366.5938 C55,366.5938 49.0442,457.0067 45.9942,503.3267" fill="none" id="1-to-2" style="stroke:#008000;stroke-width:1;"/><polygon fill="#008000" points="45.6,509.3138,50.1827,500.596,45.9285,504.3246,42.2,500.0704,45.6,509.3138" style="stroke:#008000;stroke-width:1;"/><path d="M60,371.5938 L60,486.5938 L301,486.5938 L301,381.5938 L291,371.5938 L60,371.5938" fill="#F5F5F5" style="stroke:#181818;stroke-width:0.5;"/><path d="M291,371.5938 L291,381.5938 L301,381.5938 L291,371.5938" fill="#F5F5F5" style="stroke:#181818;stroke-width:0.5;"/><text fill="#000000" font-family="sans-serif" font-size="13" font-weight="bold" lengthAdjust="spacing" textLength="220.5874" x="66" y="388.6606">Sistema requiere Par&#225;metros:</text><text fill="#000000" font-family="sans-serif" font-size="13" lengthAdjust="spacing" textLength="56.8306" x="66" y="403.7935">- funcion</text><text fill="#000000" font-family="sans-serif" font-size="13" lengthAdjust="spacing" textLength="25.3462" x="66" y="418.9263">- p0</text><text fill="#000000" font-family="sans-serif" font-size="13" lengthAdjust="spacing" textLength="25.3462" x="66" y="434.0591">- p1</text><text fill="#000000" font-family="sans-serif" font-size="13" lengthAdjust="spacing" textLength="25.3462" x="66" y="449.1919">- p2</text><text fill="#000000" font-family="sans-serif" font-size="13" lengthAdjust="spacing" textLength="34.2393" x="66" y="464.3247">- TOL</text><text fill="#000000" font-family="sans-serif" font-size="13" lengthAdjust="spacing" textLength="26.8188" x="66" y="479.4575">- N0</text></g><!--link 2 to 3--><g class="link" data-entity-1="2" data-entity-2="3" data-source-line="40" data-uid="lnk6" id="link_2_3"><path d="M39.35,560.0238 C37.59,569.2638 36,577.5938 36,577.5938 C36,577.5938 36,702.5938 36,702.5938 C36,702.5938 105.4897,723.2907 146.0397,735.3707" fill="none" id="2-to-3" style="stroke:#008000;stroke-width:1;"/><polygon fill="#008000" points="151.79,737.0838,144.3066,730.6807,146.9981,735.6562,142.0226,738.3477,151.79,737.0838" style="stroke:#008000;stroke-width:1;"/><path d="M41,582.5938 L41,697.5938 L301,697.5938 L301,592.5938 L291,582.5938 L41,582.5938" fill="#F5F5F5" style="stroke:#181818;stroke-width:0.5;"/><path d="M291,582.5938 L291,592.5938 L301,592.5938 L291,582.5938" fill="#F5F5F5" style="stroke:#181818;stroke-width:0.5;"/><text fill="#000000" font-family="sans-serif" font-size="13" font-weight="bold" lengthAdjust="spacing" textLength="239.5859" x="47" y="599.6606">Cliente Proporciona Par&#225;metros:</text><text fill="#000000" font-family="sans-serif" font-size="13" lengthAdjust="spacing" textLength="56.8306" x="55.2646" y="614.7935">- funcion</text><text fill="#000000" font-family="sans-serif" font-size="13" lengthAdjust="spacing" textLength="25.3462" x="55.2646" y="629.9263">- p0</text><text fill="#000000" font-family="sans-serif" font-size="13" lengthAdjust="spacing" textLength="25.3462" x="55.2646" y="645.0591">- p1</text><text fill="#000000" font-family="sans-serif" font-size="13" lengthAdjust="spacing" textLength="25.3462" x="55.2646" y="660.1919">- p2</text><text fill="#000000" font-family="sans-serif" font-size="13" lengthAdjust="spacing" textLength="34.2393" x="55.2646" y="675.3247">- TOL</text><text fill="#000000" font-family="sans-serif" font-size="13" lengthAdjust="spacing" textLength="26.8188" x="55.2646" y="690.4575">- N0</text></g><!--link 3 to 1--><g class="link" data-entity-1="3" data-entity-2="1" data-source-line="50" data-uid="lnk7" id="link_3_1"><path d="M202.49,736.2938 C240.08,724.0538 306,702.5938 306,702.5938 C306,702.5938 306,366.5938 306,366.5938 C306,366.5938 249.3528,347.4088 213.0728,335.1188" fill="none" id="3-to-1" style="stroke:#FF0000;stroke-width:1;"/><polygon fill="#FF0000" points="207.39,333.1938,214.6308,339.8699,212.1257,334.798,217.1976,332.2928,207.39,333.1938" style="stroke:#FF0000;stroke-width:1;"/><path d="M311,522.0938 L311,547.0938 L479,547.0938 L479,532.0938 L469,522.0938 L311,522.0938" fill="#F5F5F5" style="stroke:#181818;stroke-width:0.5;"/><path d="M469,522.0938 L469,532.0938 L479,532.0938 L469,522.0938" fill="#F5F5F5" style="stroke:#181818;stroke-width:0.5;"/><text fill="#000000" font-family="sans-serif" font-size="13" lengthAdjust="spacing" textLength="147.1577" x="317" y="539.1606">[Par&#225;metros Inv&#225;lidos]</text></g><!--link 3 to *end*crear_m?ller--><g class="link" data-entity-1="3" data-entity-2=".end.crear_m.ller" data-source-line="54" data-uid="lnk9" id="link_3_.end.crear_m.ller"><path d="M177,771.0238 C177,783.3838 177,791.7238 177,801.1938" fill="none" id="3-to-*end*crear_m&#252;ller" style="stroke:#008000;stroke-width:1;"/><polygon fill="#008000" points="177,807.1938,181,798.1938,177,802.1938,173,798.1938,177,807.1938" style="stroke:#008000;stroke-width:1;"/></g><g id=".calcularResultadoM.ller"><rect fill="#FAF4B4" height="50" rx="12.5" ry="12.5" style="stroke:#C90000;stroke-width:0.5;" width="192.6963" x="298.15" y="900.5969"/><line style="stroke:#C90000;stroke-width:0.5;" x1="298.15" x2="490.8463" y1="926.8938" y2="926.8938"/><text fill="#000000" font-family="sans-serif" font-size="14" lengthAdjust="spacing" textLength="172.6963" x="308.15" y="918.592">:calcularResultadoM&#252;ller</text></g><!--link M?LLER to crear_m?ller--><g class="link" data-entity-1="M.LLER" data-entity-2="crear_m.ller" data-source-line="18" data-uid="lnk2" id="link_M.LLER_crear_m.ller"><path d="M363.68,94.7769 C345.69,109.0569 326.5,124.2969 326.5,124.2969 C326.5,124.2969 321.1114,151.3323 311.7814,198.2023" fill="none" id="M&#220;LLER-to-crear_m&#252;ller" style="stroke:#008000;stroke-width:1;"/><polygon fill="#008000" points="310.61,204.0869,316.2901,196.041,311.5862,199.1831,308.444,194.4791,310.61,204.0869" style="stroke:#008000;stroke-width:1;"/><path d="M331.5,129.2969 L331.5,169.2969 L510.5,169.2969 L510.5,139.2969 L500.5,129.2969 L331.5,129.2969" fill="#F5F5F5" style="stroke:#181818;stroke-width:0.5;"/><path d="M500.5,129.2969 L500.5,139.2969 L510.5,139.2969 L500.5,129.2969" fill="#F5F5F5" style="stroke:#181818;stroke-width:0.5;"/><text fill="#000000" font-family="sans-serif" font-size="13" font-weight="bold" lengthAdjust="spacing" textLength="114.0103" x="337.5" y="146.3638">Cliente solicita:</text><text fill="#000000" font-family="sans-serif" font-size="13" lengthAdjust="spacing" textLength="158.7549" x="337.5" y="161.4966">- Crear operaci&#243;n m&#252;ller</text></g><!--link crear_m?ller to :calcularResultadoM?ller--><g class="link" data-entity-1="crear_m.ller" data-entity-2=".calcularResultadoM.ller" data-source-line="57" data-uid="lnk11" id="link_crear_m.ller_.calcularResultadoM.ller"><path d="M363.5,839.9069 C372.43,864.2869 378.0071,879.5426 383.4771,894.4826" fill="none" id="crear_m&#252;ller-to-:calcularResultadoM&#252;ller" style="stroke:#008000;stroke-width:1;"/><polygon fill="#008000" points="385.54,900.1169,386.2019,890.2903,383.8209,895.4217,378.6895,893.0408,385.54,900.1169" style="stroke:#008000;stroke-width:1;"/></g><!--link :calcularResultadoM?ller to M?LLER--><g class="link" data-entity-1=".calcularResultadoM.ller" data-entity-2="M.LLER" data-source-line="59" data-uid="lnk12" id="link_.calcularResultadoM.ller_M.LLER"><path d="M426.31,900.2369 C459.11,875.1269 505.5,839.5969 505.5,839.5969 C505.5,839.5969 519.5,174.2969 519.5,174.2969 C519.5,174.2969 519.5,124.2969 519.5,124.2969 C519.5,124.2969 475.2584,105.1854 438.5284,89.3254" fill="none" id=":calcularResultadoM&#252;ller-to-M&#220;LLER" style="stroke:#008000;stroke-width:1;"/><polygon fill="#008000" points="433.02,86.9469,439.6969,94.1869,437.6103,88.929,442.8683,86.8424,433.02,86.9469" style="stroke:#008000;stroke-width:1;"/></g><!--SRC=[lLAvJWCn4EttAqRGhHI99510GK6WG0g7EAeeGeDtWgnuFSlOYuGGVqB3Dz3IxOzX9zcBesLs9O-VvtXpU2x0Czopzvn3feMKrsoJn2srBL0m1-VH4xma04UebW_2fSqcR5XWUu6BtVlT-CAIaMnGjRyJ97dj1h7yPuoz-FMjZRRadmk2Wirpl2I9rzuG79D74yu9EeQCu3OS4o4Kk2X8KEdgmy9PzHbi90HSCJ-htgRJaoj8abeRpBOVXCZE1uUWelTTld5PqMGR2Im3sJIT64qsO8wDLjhZGPe6VB19octIEWBPR5LidRqNVzM1DJu4TB05Mmqm-WwCMo3yitJUupqCsB27Z0BoZN-KDBtMpbEE8FHOQXA2IvJgFISlxDRrH1d0ehGgphw-5pkjEcpLKQFUN4mR_JmQDyL3AAVBRVmRjxQxby85IqoE_q9k7Ca9PNKZVr2RTLZ0gNsgtetEsCr_2TFK62OKjxW_yAx1WKAZIeDoHQuq7ZDkDlNFfwx_Pds_0000]--></g></svg>