<svg xmlns="http://www.w3.org/2000/svg" xmlns:xlink="http://www.w3.org/1999/xlink" contentStyleType="text/css" data-diagram-type="STATE" height="896px" preserveAspectRatio="none" style="width:527px;height:896px;background:#FFFFFF;" version="1.1" viewBox="0 0 527 896" width="527px" zoomAndPan="magnify"><title>Detalle Caso de Uso Crear Operaci&#243;n Punto Fijo</title><defs/><g><g class="title" data-source-line="14"><text fill="#000000" font-family="sans-serif" font-size="14" font-weight="bold" lengthAdjust="spacing" textLength="375.7373" x="68.8813" y="22.9951">Detalle Caso de Uso Crear Operaci&#243;n Punto Fijo</text></g><g id="PUNTO_FIJO"><rect fill="#FAF4B4" height="50" rx="12.5" ry="12.5" style="stroke:#C90000;stroke-width:0.5;" width="103.0635" x="374.97" y="44.2969"/><line style="stroke:#C90000;stroke-width:0.5;" x1="374.97" x2="478.0335" y1="70.5938" y2="70.5938"/><text fill="#000000" font-family="sans-serif" font-size="14" lengthAdjust="spacing" textLength="83.0635" x="384.97" y="62.292">PUNTO_FIJO</text></g><path d="M19.5,204.2969 L477.5,204.2969 A12.5,12.5 0 0 1 490,216.7969 L490,230.5938 L7,230.5938 L7,216.7969 A12.5,12.5 0 0 1 19.5,204.2969" fill="#FAF4B4" style="stroke:#FAF4B4;stroke-width:1;"/><rect fill="none" height="575.2969" rx="12.5" ry="12.5" style="stroke:#C90000;stroke-width:0.5;" width="483" x="7" y="204.2969"/><line style="stroke:#C90000;stroke-width:0.5;" x1="7" x2="490" y1="230.5938" y2="230.5938"/><text fill="#000000" font-family="sans-serif" font-size="14" lengthAdjust="spacing" textLength="112.3623" x="192.3188" y="222.292">crear_punto_fijo</text><g id="crear_punto_fijo.1"><rect fill="#FAF4B4" height="50" rx="12.5" ry="12.5" style="stroke:#C90000;stroke-width:0.5;" width="50" x="158" y="298.5938"/><line style="stroke:#C90000;stroke-width:0.5;" x1="158" x2="208" y1="324.8906" y2="324.8906"/><text fill="#000000" font-family="sans-serif" font-size="14" lengthAdjust="spacing" textLength="4.4502" x="180.7749" y="316.5889">&#160;</text></g><g id="crear_punto_fijo.2"><rect fill="#FAF4B4" height="50" rx="12.5" ry="12.5" style="stroke:#C90000;stroke-width:0.5;" width="50" x="19" y="479.5938"/><line style="stroke:#C90000;stroke-width:0.5;" x1="19" x2="69" y1="505.8906" y2="505.8906"/><text fill="#000000" font-family="sans-serif" font-size="14" lengthAdjust="spacing" textLength="4.4502" x="41.7749" y="497.5889">&#160;</text></g><g id="crear_punto_fijo.3"><rect fill="#FAF4B4" height="50" rx="12.5" ry="12.5" style="stroke:#C90000;stroke-width:0.5;" width="50" x="152" y="660.5938"/><line style="stroke:#C90000;stroke-width:0.5;" x1="152" x2="202" y1="686.8906" y2="686.8906"/><text fill="#000000" font-family="sans-serif" font-size="14" lengthAdjust="spacing" textLength="4.4502" x="174.7749" y="678.5889">&#160;</text></g><ellipse cx="183" cy="251.5938" fill="#222222" rx="10" ry="10" style="stroke:#222222;stroke-width:1;"/><ellipse cx="177" cy="758.5938" fill="none" rx="11" ry="11" style="stroke:#222222;stroke-width:1;"/><ellipse cx="177" cy="758.5938" fill="#222222" rx="6" ry="6" style="stroke:#222222;stroke-width:1;"/><!--link *start*crear_punto_fijo to 1--><g class="link" data-entity-1="*start*crear_punto_fijo" data-entity-2="1" data-source-line="29" data-uid="lnk4" id="link_*start*crear_punto_fijo_1"><path d="M183,262.0338 C183,271.2938 183,279.7838 183,292.2738" fill="none" id="*start*crear_punto_fijo-to-1" style="stroke:#008000;stroke-width:1;"/><polygon fill="#008000" points="183,298.2738,187,289.2738,183,293.2738,179,289.2738,183,298.2738" style="stroke:#008000;stroke-width:1;"/></g><!--link 1 to 2--><g class="link" data-entity-1="1" data-entity-2="2" data-source-line="30" data-uid="lnk5" id="link_1_2"><path d="M157.5,333.0938 C120.68,345.3638 57,366.5938 57,366.5938 C57,366.5938 50.6269,433.7206 46.8869,473.1306" fill="none" id="1-to-2" style="stroke:#008000;stroke-width:1;"/><polygon fill="#008000" points="46.32,479.1038,51.1524,470.5219,46.7924,474.1261,43.1882,469.7661,46.32,479.1038" style="stroke:#008000;stroke-width:1;"/><path d="M62,371.5938 L62,456.5938 L303,456.5938 L303,381.5938 L293,371.5938 L62,371.5938" fill="#F5F5F5" style="stroke:#181818;stroke-width:0.5;"/><path d="M293,371.5938 L293,381.5938 L303,381.5938 L293,371.5938" fill="#F5F5F5" style="stroke:#181818;stroke-width:0.5;"/><text fill="#000000" font-family="sans-serif" font-size="13" font-weight="bold" lengthAdjust="spacing" textLength="220.5874" x="68" y="388.6606">Sistema requiere Par&#225;metros:</text><text fill="#000000" font-family="sans-serif" font-size="13" lengthAdjust="spacing" textLength="56.8306" x="68" y="403.7935">- funcion</text><text fill="#000000" font-family="sans-serif" font-size="13" lengthAdjust="spacing" textLength="25.3462" x="68" y="418.9263">- p0</text><text fill="#000000" font-family="sans-serif" font-size="13" lengthAdjust="spacing" textLength="34.2393" x="68" y="434.0591">- TOL</text><text fill="#000000" font-family="sans-serif" font-size="13" lengthAdjust="spacing" textLength="26.8188" x="68" y="449.1919">- N0</text></g><!--link 2 to 3--><g class="link" data-entity-1="2" data-entity-2="3" data-source-line="38" data-uid="lnk6" id="link_2_3"><path d="M37.6,530.0238 C35.18,539.2638 33,547.5938 33,547.5938 C33,547.5938 33,642.5938 33,642.5938 C33,642.5938 104.4901,663.4434 145.8301,675.5034" fill="none" id="2-to-3" style="stroke:#008000;stroke-width:1;"/><polygon fill="#008000" points="151.59,677.1838,144.0704,670.8233,146.7901,675.7835,141.8299,678.5032,151.59,677.1838" style="stroke:#008000;stroke-width:1;"/><path d="M38,552.5938 L38,637.5938 L303,637.5938 L303,562.5938 L293,552.5938 L38,552.5938" fill="#F5F5F5" style="stroke:#181818;stroke-width:0.5;"/><path d="M293,552.5938 L293,562.5938 L303,562.5938 L293,552.5938" fill="#F5F5F5" style="stroke:#181818;stroke-width:0.5;"/><text fill="#000000" font-family="sans-serif" font-size="13" font-weight="bold" lengthAdjust="spacing" textLength="244.1499" x="44" y="569.6606">Usuario Proporciona Par&#225;metros:</text><text fill="#000000" font-family="sans-serif" font-size="13" lengthAdjust="spacing" textLength="56.8306" x="52.2646" y="584.7935">- funcion</text><text fill="#000000" font-family="sans-serif" font-size="13" lengthAdjust="spacing" textLength="25.3462" x="52.2646" y="599.9263">- p0</text><text fill="#000000" font-family="sans-serif" font-size="13" lengthAdjust="spacing" textLength="34.2393" x="52.2646" y="615.0591">- TOL</text><text fill="#000000" font-family="sans-serif" font-size="13" lengthAdjust="spacing" textLength="26.8188" x="52.2646" y="630.1919">- N0</text></g><!--link 3 to 1--><g class="link" data-entity-1="3" data-entity-2="1" data-source-line="46" data-uid="lnk7" id="link_3_1"><path d="M202.26,676.4938 C240.33,664.2938 308,642.5938 308,642.5938 C308,642.5938 308,366.5938 308,366.5938 C308,366.5938 250.5076,347.2747 213.9876,335.0047" fill="none" id="3-to-1" style="stroke:#FF0000;stroke-width:1;"/><polygon fill="#FF0000" points="208.3,333.0938,215.5574,339.7518,213.0396,334.6862,218.1053,332.1684,208.3,333.0938" style="stroke:#FF0000;stroke-width:1;"/><path d="M313,492.0938 L313,517.0938 L481,517.0938 L481,502.0938 L471,492.0938 L313,492.0938" fill="#F5F5F5" style="stroke:#181818;stroke-width:0.5;"/><path d="M471,492.0938 L471,502.0938 L481,502.0938 L471,492.0938" fill="#F5F5F5" style="stroke:#181818;stroke-width:0.5;"/><text fill="#000000" font-family="sans-serif" font-size="13" lengthAdjust="spacing" textLength="147.1577" x="319" y="509.1606">[Par&#225;metros Inv&#225;lidos]</text></g><!--link 3 to *end*crear_punto_fijo--><g class="link" data-entity-1="3" data-entity-2="*end*crear_punto_fijo" data-source-line="50" data-uid="lnk9" id="link_3_*end*crear_punto_fijo"><path d="M177,711.0238 C177,723.3838 177,731.7238 177,741.1938" fill="none" id="3-to-*end*crear_punto_fijo" style="stroke:#008000;stroke-width:1;"/><polygon fill="#008000" points="177,747.1938,181,738.1938,177,742.1938,173,738.1938,177,747.1938" style="stroke:#008000;stroke-width:1;"/></g><g id=":calcularResultadoPuntoFijo"><rect fill="#FAF4B4" height="50" rx="12.5" ry="12.5" style="stroke:#C90000;stroke-width:0.5;" width="214.2363" x="288.38" y="840.5969"/><line style="stroke:#C90000;stroke-width:0.5;" x1="288.38" x2="502.6163" y1="866.8938" y2="866.8938"/><text fill="#000000" font-family="sans-serif" font-size="14" lengthAdjust="spacing" textLength="194.2363" x="298.38" y="858.592">:calcularResultadoPuntoFijo</text></g><!--link PUNTO_FIJO to crear_punto_fijo--><g class="link" data-entity-1="PUNTO_FIJO" data-entity-2="crear_punto_fijo" data-source-line="18" data-uid="lnk2" id="link_PUNTO_FIJO_crear_punto_fijo"><path d="M374.65,93.8269 C342.58,108.3769 307.5,124.2969 307.5,124.2969 C307.5,124.2969 303.1126,151.543 295.6526,197.933" fill="none" id="PUNTO_FIJO-to-crear_punto_fijo" style="stroke:#008000;stroke-width:1;"/><polygon fill="#008000" points="294.7,203.8569,300.0782,195.6061,295.4939,198.9203,292.1797,194.336,294.7,203.8569" style="stroke:#008000;stroke-width:1;"/><path d="M312.5,129.2969 L312.5,169.2969 L511.5,169.2969 L511.5,139.2969 L501.5,129.2969 L312.5,129.2969" fill="#F5F5F5" style="stroke:#181818;stroke-width:0.5;"/><path d="M501.5,129.2969 L501.5,139.2969 L511.5,139.2969 L501.5,129.2969" fill="#F5F5F5" style="stroke:#181818;stroke-width:0.5;"/><text fill="#000000" font-family="sans-serif" font-size="13" font-weight="bold" lengthAdjust="spacing" textLength="118.5742" x="318.5" y="146.3638">Usuario solicita:</text><text fill="#000000" font-family="sans-serif" font-size="13" lengthAdjust="spacing" textLength="178.9531" x="318.5" y="161.4966">- Crear operaci&#243;n punto fijo</text></g><!--link crear_punto_fijo to :calcularResultadoPuntoFijo--><g class="link" data-entity-1="crear_punto_fijo" data-entity-2=":calcularResultadoPuntoFijo" data-source-line="53" data-uid="lnk11" id="link_crear_punto_fijo_:calcularResultadoPuntoFijo"><path d="M361.96,779.7969 C371.61,804.1969 377.7347,819.6768 383.6747,834.7068" fill="none" id="crear_punto_fijo-to-:calcularResultadoPuntoFijo" style="stroke:#008000;stroke-width:1;"/><polygon fill="#008000" points="385.88,840.2869,386.2921,830.4466,384.0423,835.6369,378.8521,833.387,385.88,840.2869" style="stroke:#008000;stroke-width:1;"/></g><!--link :calcularResultadoPuntoFijo to PUNTO_FIJO--><g class="link" data-entity-1=":calcularResultadoPuntoFijo" data-entity-2="PUNTO_FIJO" data-source-line="55" data-uid="lnk12" id="link_:calcularResultadoPuntoFijo_PUNTO_FIJO"><path d="M427.59,840.2369 C460.69,815.1269 507.5,779.5969 507.5,779.5969 C507.5,779.5969 520.5,174.2969 520.5,174.2969 C520.5,174.2969 520.5,124.2969 520.5,124.2969 C520.5,124.2969 499.1733,112.0445 474.3033,97.7645" fill="none" id=":calcularResultadoPuntoFijo-to-PUNTO_FIJO" style="stroke:#008000;stroke-width:1;"/><polygon fill="#008000" points="469.1,94.7769,474.9131,102.7272,473.4361,97.2666,478.8967,95.7895,469.1,94.7769" style="stroke:#008000;stroke-width:1;"/></g><!--SRC=[hLB1JW8n4BttAoPwsuH4H0zwy226H6E4g9m88MDt89NIMQTT4sFy6B_1J-37R1TP5b5FTZTf-wPzyzvq0XSG61uu15v0ReHqCEoKydFZ2XHSW0yO25uLm3dg-KouT7cNBGliJt5wz72K8YmvoHUgJmxYK6zD4iU_SXodR_kqDOx2Iq5Gi7r96wM22PRWWWBQE7VHC-G4mpXrXL2WNv2WDiiF1uFIHKizyyYHin8_6DxSzoUzowi-ADNOj4RxCo5ouzOPw4GpATBToJJU1LLfPfVKpAFoB1lw4iKmUBP6cu2dMHRnrfS2tYYeM22nA79vPNujPITDAiegr0Rqi0TxDN3u7UXiWFYFil6MWtR4sbl8OKI-kKWZo-wC3xH047eg3Kci4ChoVK51sAzSfT62QUbqQeVrlZYeb_Vzwtfza-3QAKJXJHMTdrHigZaGBbXI6lnd6PqaGoXV5sT7nAYH3oxTy_BTcfpz-0UQsasiUchMdNTidZdLQ7LfKMx9bpPWpbLFhbhoZs2JOzEcdm00]--></g></svg>