<svg xmlns="http://www.w3.org/2000/svg" xmlns:xlink="http://www.w3.org/1999/xlink" contentStyleType="text/css" data-diagram-type="STATE" height="926px" preserveAspectRatio="none" style="width:526px;height:926px;background:#FFFFFF;" version="1.1" viewBox="0 0 526 926" width="526px" zoomAndPan="magnify"><title>Detalle Caso de Uso Crear Operaci&#243;n Bisecci&#243;n</title><defs/><g><g class="title" data-source-line="14"><text fill="#000000" font-family="sans-serif" font-size="14" font-weight="bold" lengthAdjust="spacing" textLength="369.8584" x="71.3208" y="22.9951">Detalle Caso de Uso Crear Operaci&#243;n Bisecci&#243;n</text></g><g id="BISECCION"><rect fill="#FAF4B4" height="50" rx="12.5" ry="12.5" style="stroke:#C90000;stroke-width:0.5;" width="96.6377" x="346.18" y="44.2969"/><line style="stroke:#C90000;stroke-width:0.5;" x1="346.18" x2="442.8177" y1="70.5938" y2="70.5938"/><text fill="#000000" font-family="sans-serif" font-size="14" lengthAdjust="spacing" textLength="76.6377" x="356.18" y="62.292">BISECCION</text></g><path d="M19.5,204.2969 L475.5,204.2969 A12.5,12.5 0 0 1 488,216.7969 L488,230.5938 L7,230.5938 L7,216.7969 A12.5,12.5 0 0 1 19.5,204.2969" fill="#FAF4B4"/><rect fill="none" height="605.2969" rx="12.5" ry="12.5" style="stroke:#C90000;stroke-width:0.5;" width="481" x="7" y="204.2969"/><line style="stroke:#C90000;stroke-width:0.5;" x1="7" x2="488" y1="230.5938" y2="230.5938"/><text fill="#000000" font-family="sans-serif" font-size="14" lengthAdjust="spacing" textLength="108.8076" x="193.0962" y="222.292">crear_biseccion</text><g id="crear_biseccion.1"><rect fill="#FAF4B4" height="50" rx="12.5" ry="12.5" style="stroke:#C90000;stroke-width:0.5;" width="50" x="157" y="298.5938"/><line style="stroke:#C90000;stroke-width:0.5;" x1="157" x2="207" y1="324.8906" y2="324.8906"/><text fill="#000000" font-family="sans-serif" font-size="14" lengthAdjust="spacing" textLength="4.4502" x="179.7749" y="316.5889">&#160;</text></g><g id="crear_biseccion.2"><rect fill="#FAF4B4" height="50" rx="12.5" ry="12.5" style="stroke:#C90000;stroke-width:0.5;" width="50" x="19" y="494.5938"/><line style="stroke:#C90000;stroke-width:0.5;" x1="19" x2="69" y1="520.8906" y2="520.8906"/><text fill="#000000" font-family="sans-serif" font-size="14" lengthAdjust="spacing" textLength="4.4502" x="41.7749" y="512.5889">&#160;</text></g><g id="crear_biseccion.3"><rect fill="#FAF4B4" height="50" rx="12.5" ry="12.5" style="stroke:#C90000;stroke-width:0.5;" width="50" x="152" y="690.5938"/><line style="stroke:#C90000;stroke-width:0.5;" x1="152" x2="202" y1="716.8906" y2="716.8906"/><text fill="#000000" font-family="sans-serif" font-size="14" lengthAdjust="spacing" textLength="4.4502" x="174.7749" y="708.5889">&#160;</text></g><ellipse cx="182" cy="251.5938" fill="#222222" rx="10" ry="10" style="stroke:#222222;stroke-width:1;"/><ellipse cx="177" cy="788.5938" fill="none" rx="11" ry="11" style="stroke:#222222;stroke-width:1;"/><ellipse cx="177" cy="788.5938" fill="#222222" rx="6" ry="6" style="stroke:#222222;stroke-width:1;"/><!--link *start*crear_biseccion to 1--><g class="link" data-entity-1="*start*crear_biseccion" data-entity-2="1" data-source-line="29" data-uid="lnk4" id="link_*start*crear_biseccion_1"><path d="M182,262.0338 C182,271.2938 182,279.7838 182,292.2738" fill="none" id="*start*crear_biseccion-to-1" style="stroke:#008000;stroke-width:1;"/><polygon fill="#008000" points="182,298.2738,186,289.2738,182,293.2738,178,289.2738,182,298.2738" style="stroke:#008000;stroke-width:1;"/></g><!--link 1 to 2--><g class="link" data-entity-1="1" data-entity-2="2" data-source-line="30" data-uid="lnk5" id="link_1_2"><path d="M156.6,332.9938 C119.54,345.2538 55,366.5938 55,366.5938 C55,366.5938 49.3131,445.2194 46.2031,488.1894" fill="none" id="1-to-2" style="stroke:#008000;stroke-width:1;"/><polygon fill="#008000" points="45.77,494.1738,50.4092,485.486,46.1309,489.1868,42.4301,484.9085,45.77,494.1738" style="stroke:#008000;stroke-width:1;"/><path d="M60,371.5938 L60,471.5938 L301,471.5938 L301,381.5938 L291,371.5938 L60,371.5938" fill="#F5F5F5" style="stroke:#181818;stroke-width:0.5;"/><path d="M291,371.5938 L291,381.5938 L301,381.5938 L291,371.5938" fill="#F5F5F5" style="stroke:#181818;stroke-width:0.5;"/><text fill="#000000" font-family="sans-serif" font-size="13" font-weight="bold" lengthAdjust="spacing" textLength="220.5874" x="66" y="388.6606">Sistema requiere Par&#225;metros:</text><text fill="#000000" font-family="sans-serif" font-size="13" lengthAdjust="spacing" textLength="56.8306" x="66" y="403.7935">- funcion</text><text fill="#000000" font-family="sans-serif" font-size="13" lengthAdjust="spacing" textLength="16.7896" x="66" y="418.9263">- a</text><text fill="#000000" font-family="sans-serif" font-size="13" lengthAdjust="spacing" textLength="17.0752" x="66" y="434.0591">- b</text><text fill="#000000" font-family="sans-serif" font-size="13" lengthAdjust="spacing" textLength="34.2393" x="66" y="449.1919">- TOL</text><text fill="#000000" font-family="sans-serif" font-size="13" lengthAdjust="spacing" textLength="26.8188" x="66" y="464.3247">- N0</text></g><!--link 2 to 3--><g class="link" data-entity-1="2" data-entity-2="3" data-source-line="39" data-uid="lnk6" id="link_2_3"><path d="M39.35,545.0238 C37.59,554.2638 36,562.5938 36,562.5938 C36,562.5938 36,672.5938 36,672.5938 C36,672.5938 105.4897,693.2907 146.0397,705.3707" fill="none" id="2-to-3" style="stroke:#008000;stroke-width:1;"/><polygon fill="#008000" points="151.79,707.0838,144.3066,700.6807,146.9981,705.6562,142.0226,708.3477,151.79,707.0838" style="stroke:#008000;stroke-width:1;"/><path d="M41,567.5938 L41,667.5938 L301,667.5938 L301,577.5938 L291,567.5938 L41,567.5938" fill="#F5F5F5" style="stroke:#181818;stroke-width:0.5;"/><path d="M291,567.5938 L291,577.5938 L301,577.5938 L291,567.5938" fill="#F5F5F5" style="stroke:#181818;stroke-width:0.5;"/><text fill="#000000" font-family="sans-serif" font-size="13" font-weight="bold" lengthAdjust="spacing" textLength="239.5859" x="47" y="584.6606">Cliente Proporciona Par&#225;metros:</text><text fill="#000000" font-family="sans-serif" font-size="13" lengthAdjust="spacing" textLength="56.8306" x="55.2646" y="599.7935">- funcion</text><text fill="#000000" font-family="sans-serif" font-size="13" lengthAdjust="spacing" textLength="16.7896" x="55.2646" y="614.9263">- a</text><text fill="#000000" font-family="sans-serif" font-size="13" lengthAdjust="spacing" textLength="17.0752" x="55.2646" y="630.0591">- b</text><text fill="#000000" font-family="sans-serif" font-size="13" lengthAdjust="spacing" textLength="34.2393" x="55.2646" y="645.1919">- TOL</text><text fill="#000000" font-family="sans-serif" font-size="13" lengthAdjust="spacing" textLength="26.8188" x="55.2646" y="660.3247">- N0</text></g><!--link 3 to 1--><g class="link" data-entity-1="3" data-entity-2="1" data-source-line="48" data-uid="lnk7" id="link_3_1"><path d="M202.49,706.2938 C240.08,694.0538 306,672.5938 306,672.5938 C306,672.5938 306,366.5938 306,366.5938 C306,366.5938 249.3528,347.4088 213.0728,335.1188" fill="none" id="3-to-1" style="stroke:#FF0000;stroke-width:1;"/><polygon fill="#FF0000" points="207.39,333.1938,214.6308,339.8699,212.1257,334.798,217.1976,332.2928,207.39,333.1938" style="stroke:#FF0000;stroke-width:1;"/><path d="M311,507.0938 L311,532.0938 L479,532.0938 L479,517.0938 L469,507.0938 L311,507.0938" fill="#F5F5F5" style="stroke:#181818;stroke-width:0.5;"/><path d="M469,507.0938 L469,517.0938 L479,517.0938 L469,507.0938" fill="#F5F5F5" style="stroke:#181818;stroke-width:0.5;"/><text fill="#000000" font-family="sans-serif" font-size="13" lengthAdjust="spacing" textLength="147.1577" x="317" y="524.1606">[Par&#225;metros Inv&#225;lidos]</text></g><!--link 3 to *end*crear_biseccion--><g class="link" data-entity-1="3" data-entity-2="*end*crear_biseccion" data-source-line="52" data-uid="lnk9" id="link_3_*end*crear_biseccion"><path d="M177,741.0238 C177,753.3838 177,761.7238 177,771.1938" fill="none" id="3-to-*end*crear_biseccion" style="stroke:#008000;stroke-width:1;"/><polygon fill="#008000" points="177,777.1938,181,768.1938,177,772.1938,173,768.1938,177,777.1938" style="stroke:#008000;stroke-width:1;"/></g><g id=":calcularResultadoBiseccion"><rect fill="#FAF4B4" height="50" rx="12.5" ry="12.5" style="stroke:#C90000;stroke-width:0.5;" width="215.7197" x="286.64" y="870.5969"/><line style="stroke:#C90000;stroke-width:0.5;" x1="286.64" x2="502.3597" y1="896.8938" y2="896.8938"/><text fill="#000000" font-family="sans-serif" font-size="14" lengthAdjust="spacing" textLength="195.7197" x="296.64" y="888.592">:calcularResultadoBiseccion</text></g><!--link BISECCION to crear_biseccion--><g class="link" data-entity-1="BISECCION" data-entity-2="crear_biseccion" data-source-line="18" data-uid="lnk2" id="link_BISECCION_crear_biseccion"><path d="M354.62,94.7769 C331.34,109.0569 306.5,124.2969 306.5,124.2969 C306.5,124.2969 302.3169,151.3474 295.1169,197.9074" fill="none" id="BISECCION-to-crear_biseccion" style="stroke:#008000;stroke-width:1;"/><polygon fill="#008000" points="294.2,203.8369,299.5284,195.5539,294.9641,198.8956,291.6224,194.3313,294.2,203.8369" style="stroke:#008000;stroke-width:1;"/><path d="M311.5,129.2969 L311.5,169.2969 L510.5,169.2969 L510.5,139.2969 L500.5,129.2969 L311.5,129.2969" fill="#F5F5F5" style="stroke:#181818;stroke-width:0.5;"/><path d="M500.5,129.2969 L500.5,139.2969 L510.5,139.2969 L500.5,129.2969" fill="#F5F5F5" style="stroke:#181818;stroke-width:0.5;"/><text fill="#000000" font-family="sans-serif" font-size="13" font-weight="bold" lengthAdjust="spacing" textLength="114.0103" x="317.5" y="146.3638">Cliente solicita:</text><text fill="#000000" font-family="sans-serif" font-size="13" lengthAdjust="spacing" textLength="178.02" x="317.5" y="161.4966">- Crear operaci&#243;n bisecci&#243;n</text></g><!--link crear_biseccion to :calcularResultadoBiseccion--><g class="link" data-entity-1="crear_biseccion" data-entity-2=":calcularResultadoBiseccion" data-source-line="55" data-uid="lnk11" id="link_crear_biseccion_:calcularResultadoBiseccion"><path d="M362.24,809.7469 C371.56,834.2569 377.4367,849.7289 383.1467,864.7389" fill="none" id="crear_biseccion-to-:calcularResultadoBiseccion" style="stroke:#008000;stroke-width:1;"/><polygon fill="#008000" points="385.28,870.3469,385.8186,860.5128,383.5022,865.6736,378.3414,863.3572,385.28,870.3469" style="stroke:#008000;stroke-width:1;"/></g><!--link :calcularResultadoBiseccion to BISECCION--><g class="link" data-entity-1=":calcularResultadoBiseccion" data-entity-2="BISECCION" data-source-line="57" data-uid="lnk12" id="link_:calcularResultadoBiseccion_BISECCION"><path d="M426.31,870.2369 C459.11,845.1269 505.5,809.5969 505.5,809.5969 C505.5,809.5969 519.5,174.2969 519.5,174.2969 C519.5,174.2969 519.5,124.2969 519.5,124.2969 C519.5,124.2969 483.7879,108.8765 448.6979,93.7165" fill="none" id=":calcularResultadoBiseccion-to-BISECCION" style="stroke:#008000;stroke-width:1;"/><polygon fill="#008000" points="443.19,91.3369,449.8655,98.5783,447.78,93.3199,453.0383,91.2343,443.19,91.3369" style="stroke:#008000;stroke-width:1;"/></g><!--SRC=[jL9BJWCn3Dtd51RiHgf4AInWmQ83Yqg88ZwhgaAUZ8kYfl7WP90GuZ2SWIFqOYGjJJzyTdX6oijBulVi9703WQ7Y47W6jH7ImR1Joa-DQr1m1ZvW87XL07tKqqVXrjKbMnROd-3ag3fAAomroHUhJmvYgBVD98v_pN6SlktTrZWABmr1m_ObJPGA9bY2SmfeurYYPwW9xkDG2g70i251RUOV3lh6arx0c7DXlZ-ulIZBmV1AgGoXCzf_528txfo1JZaUgkL1Tg0MVYE8ujFekYXAQyX5phCrsWGyBOh8TxxKUQrUhTN9rOl2LpPsLL8_bYjTG0zxi9U9mrsYjoRYFoh6M_wxaUjkCOUHsIaYHL7S6XzeXY3qr1eIWckK-VkCWh1V5fMY0vFM9PDvZXbL6TqDBpE-EeWmLmonWaqxlP_ihBjwBTom93tyBp-zv4UeNhNhcvlHXZ0CtFFytPgQ_VY7DBciU0_fvUvUxEQMKurMjnRbXdnh0zRSN-rJwe_5hIJvrNu2]--></g></svg>