<svg xmlns="http://www.w3.org/2000/svg" xmlns:xlink="http://www.w3.org/1999/xlink" contentStyleType="text/css" data-diagram-type="STATE" height="947px" preserveAspectRatio="none" style="width:503px;height:947px;background:#FFFFFF;" version="1.1" viewBox="0 0 503 947" width="503px" zoomAndPan="magnify"><title>Detalle Caso de Uso Crear Operaci&#243;n Horner</title><defs/><g><g class="title" data-source-line="12"><text fill="#000000" font-family="sans-serif" font-size="14" font-weight="bold" lengthAdjust="spacing" textLength="350.1846" x="66.4077" y="22.9951">Detalle Caso de Uso Crear Operaci&#243;n Horner</text></g><path d="M19.5,204.2969 L477.5,204.2969 A12.5,12.5 0 0 1 490,216.7969 L490,230.5938 L7,230.5938 L7,216.7969 A12.5,12.5 0 0 1 19.5,204.2969" fill="#FAF4B4" style="stroke:#FAF4B4;stroke-width:1;"/><rect fill="none" height="515.2969" rx="12.5" ry="12.5" style="stroke:#C90000;stroke-width:0.5;" width="483" x="7" y="204.2969"/><line style="stroke:#C90000;stroke-width:0.5;" x1="7" x2="490" y1="230.5938" y2="230.5938"/><text fill="#000000" font-family="sans-serif" font-size="14" lengthAdjust="spacing" textLength="89.8379" x="203.5811" y="222.292">crear_horner</text><g id="crear_horner.1"><rect fill="#FAF4B4" height="50" rx="12.5" ry="12.5" style="stroke:#C90000;stroke-width:0.5;" width="50" x="158" y="298.5938"/><line style="stroke:#C90000;stroke-width:0.5;" x1="158" x2="208" y1="324.8906" y2="324.8906"/><text fill="#000000" font-family="sans-serif" font-size="14" lengthAdjust="spacing" textLength="4.4502" x="180.7749" y="316.5889">&#160;</text></g><g id="crear_horner.2"><rect fill="#FAF4B4" height="50" rx="12.5" ry="12.5" style="stroke:#C90000;stroke-width:0.5;" width="50" x="19" y="449.5938"/><line style="stroke:#C90000;stroke-width:0.5;" x1="19" x2="69" y1="475.8906" y2="475.8906"/><text fill="#000000" font-family="sans-serif" font-size="14" lengthAdjust="spacing" textLength="4.4502" x="41.7749" y="467.5889">&#160;</text></g><g id="crear_horner.3"><rect fill="#FAF4B4" height="50" rx="12.5" ry="12.5" style="stroke:#C90000;stroke-width:0.5;" width="50" x="152" y="600.5938"/><line style="stroke:#C90000;stroke-width:0.5;" x1="152" x2="202" y1="626.8906" y2="626.8906"/><text fill="#000000" font-family="sans-serif" font-size="14" lengthAdjust="spacing" textLength="4.4502" x="174.7749" y="618.5889">&#160;</text></g><ellipse cx="183" cy="251.5938" fill="#222222" rx="10" ry="10" style="stroke:#222222;stroke-width:1;"/><ellipse cx="177" cy="698.5938" fill="none" rx="11" ry="11" style="stroke:#222222;stroke-width:1;"/><ellipse cx="177" cy="698.5938" fill="#222222" rx="6" ry="6" style="stroke:#222222;stroke-width:1;"/><!--link *start*crear_horner to 1--><g class="link" data-entity-1="*start*crear_horner" data-entity-2="1" data-source-line="26" data-uid="lnk5" id="link_*start*crear_horner_1"><path d="M183,262.0338 C183,271.2938 183,279.7838 183,292.2738" fill="none" id="*start*crear_horner-to-1" style="stroke:#008000;stroke-width:1;"/><polygon fill="#008000" points="183,298.2738,187,289.2738,183,293.2738,179,289.2738,183,298.2738" style="stroke:#008000;stroke-width:1;"/></g><!--link 1 to 2--><g class="link" data-entity-1="1" data-entity-2="2" data-source-line="27" data-uid="lnk6" id="link_1_2"><path d="M157.5,333.0938 C120.68,345.3638 57,366.5938 57,366.5938 C57,366.5938 51.5145,411.7876 47.6745,443.3576" fill="none" id="1-to-2" style="stroke:#008000;stroke-width:1;"/><polygon fill="#008000" points="46.95,449.3138,52.0074,440.8626,47.5537,444.3503,44.066,439.8966,46.95,449.3138" style="stroke:#008000;stroke-width:1;"/><path d="M62,371.5938 L62,426.5938 L303,426.5938 L303,381.5938 L293,371.5938 L62,371.5938" fill="#F5F5F5" style="stroke:#181818;stroke-width:0.5;"/><path d="M293,371.5938 L293,381.5938 L303,381.5938 L293,371.5938" fill="#F5F5F5" style="stroke:#181818;stroke-width:0.5;"/><text fill="#000000" font-family="sans-serif" font-size="13" font-weight="bold" lengthAdjust="spacing" textLength="220.5874" x="68" y="388.6606">Sistema requiere Par&#225;metros:</text><text fill="#000000" font-family="sans-serif" font-size="13" lengthAdjust="spacing" textLength="16.7896" x="68" y="403.7935">- a</text><text fill="#000000" font-family="sans-serif" font-size="13" lengthAdjust="spacing" textLength="24.7876" x="68" y="418.9263">- x0</text></g><!--link 2 to 3--><g class="link" data-entity-1="2" data-entity-2="3" data-source-line="33" data-uid="lnk7" id="link_2_3"><path d="M37.6,500.0238 C35.18,509.2637 33,517.5938 33,517.5938 C33,517.5938 33,582.5938 33,582.5938 C33,582.5938 104.4901,603.4434 145.8301,615.5034" fill="none" id="2-to-3" style="stroke:#008000;stroke-width:1;"/><polygon fill="#008000" points="151.59,617.1838,144.0704,610.8233,146.7901,615.7835,141.8299,618.5032,151.59,617.1838" style="stroke:#008000;stroke-width:1;"/><path d="M38,522.5938 L38,577.5938 L303,577.5938 L303,532.5938 L293,522.5938 L38,522.5938" fill="#F5F5F5" style="stroke:#181818;stroke-width:0.5;"/><path d="M293,522.5938 L293,532.5938 L303,532.5938 L293,522.5938" fill="#F5F5F5" style="stroke:#181818;stroke-width:0.5;"/><text fill="#000000" font-family="sans-serif" font-size="13" font-weight="bold" lengthAdjust="spacing" textLength="244.1499" x="44" y="539.6606">Usuario Proporciona Par&#225;metros:</text><text fill="#000000" font-family="sans-serif" font-size="13" lengthAdjust="spacing" textLength="16.7896" x="52.2646" y="554.7935">- a</text><text fill="#000000" font-family="sans-serif" font-size="13" lengthAdjust="spacing" textLength="24.7876" x="52.2646" y="569.9263">- x0</text></g><!--link 3 to 1--><g class="link" data-entity-1="3" data-entity-2="1" data-source-line="39" data-uid="lnk8" id="link_3_1"><path d="M202.26,616.4938 C240.33,604.2938 308,582.5938 308,582.5938 C308,582.5938 308,366.5938 308,366.5938 C308,366.5938 250.5076,347.2747 213.9876,335.0047" fill="none" id="3-to-1" style="stroke:#FF0000;stroke-width:1;"/><polygon fill="#FF0000" points="208.3,333.0938,215.5574,339.7518,213.0396,334.6862,218.1053,332.1684,208.3,333.0938" style="stroke:#FF0000;stroke-width:1;"/><path d="M313,462.0938 L313,487.0938 L481,487.0938 L481,472.0938 L471,462.0938 L313,462.0938" fill="#F5F5F5" style="stroke:#181818;stroke-width:0.5;"/><path d="M471,462.0938 L471,472.0938 L481,472.0938 L471,462.0938" fill="#F5F5F5" style="stroke:#181818;stroke-width:0.5;"/><text fill="#000000" font-family="sans-serif" font-size="13" lengthAdjust="spacing" textLength="147.1577" x="319" y="479.1606">[Par&#225;metros Inv&#225;lidos]</text></g><!--link 3 to *end*crear_horner--><g class="link" data-entity-1="3" data-entity-2="*end*crear_horner" data-source-line="43" data-uid="lnk10" id="link_3_*end*crear_horner"><path d="M177,651.0238 C177,663.3838 177,671.7238 177,681.1938" fill="none" id="3-to-*end*crear_horner" style="stroke:#008000;stroke-width:1;"/><polygon fill="#008000" points="177,687.1938,181,678.1938,177,682.1938,173,678.1938,177,687.1938" style="stroke:#008000;stroke-width:1;"/></g><g id="HORNER"><rect fill="#FAF4B4" height="50" rx="12.5" ry="12.5" style="stroke:#C90000;stroke-width:0.5;" width="80.3203" x="208.34" y="44.2969"/><line style="stroke:#C90000;stroke-width:0.5;" x1="208.34" x2="288.6603" y1="70.5938" y2="70.5938"/><text fill="#000000" font-family="sans-serif" font-size="14" lengthAdjust="spacing" textLength="60.3203" x="218.34" y="62.292">HORNER</text></g><g id=":abrirResultadoHorner"><rect fill="#FAF4B4" height="50" rx="12.5" ry="12.5" style="stroke:#C90000;stroke-width:0.5;" width="175.5928" x="160.7" y="780.5969"/><line style="stroke:#C90000;stroke-width:0.5;" x1="160.7" x2="336.2928" y1="806.8938" y2="806.8938"/><text fill="#000000" font-family="sans-serif" font-size="14" lengthAdjust="spacing" textLength="155.5928" x="170.7" y="798.592">:abrirResultadoHorner</text></g><g id="RESULTADO_HORNER"><rect fill="#FAF4B4" height="50" rx="12.5" ry="12.5" style="stroke:#C90000;stroke-width:0.5;" width="172.7559" x="162.12" y="891.5969"/><line style="stroke:#C90000;stroke-width:0.5;" x1="162.12" x2="334.8759" y1="917.8938" y2="917.8938"/><text fill="#000000" font-family="sans-serif" font-size="14" lengthAdjust="spacing" textLength="152.7559" x="172.12" y="909.592">RESULTADO_HORNER</text></g><!--link HORNER to crear_horner--><g class="link" data-entity-1="HORNER" data-entity-2="crear_horner" data-source-line="15" data-uid="lnk3" id="link_HORNER_crear_horner"><path d="M248.5,94.7369 C248.5,119.0369 248.5,153.1069 248.5,198.0069" fill="none" id="HORNER-to-crear_horner" style="stroke:#008000;stroke-width:1;"/><polygon fill="#008000" points="248.5,204.0069,252.5,195.0069,248.5,199.0069,244.5,195.0069,248.5,204.0069" style="stroke:#008000;stroke-width:1;"/><path d="M253.5,129.2969 L253.5,169.2969 L434.5,169.2969 L434.5,139.2969 L424.5,129.2969 L253.5,129.2969" fill="#F5F5F5" style="stroke:#181818;stroke-width:0.5;"/><path d="M424.5,129.2969 L424.5,139.2969 L434.5,139.2969 L424.5,129.2969" fill="#F5F5F5" style="stroke:#181818;stroke-width:0.5;"/><text fill="#000000" font-family="sans-serif" font-size="13" font-weight="bold" lengthAdjust="spacing" textLength="118.5742" x="259.5" y="146.3638">Usuario solicita:</text><text fill="#000000" font-family="sans-serif" font-size="13" lengthAdjust="spacing" textLength="160.4053" x="259.5" y="161.4966">- Crear operaci&#243;n horner</text></g><!--link crear_horner to :abrirResultadoHorner--><g class="link" data-entity-1="crear_horner" data-entity-2=":abrirResultadoHorner" data-source-line="46" data-uid="lnk12" id="link_crear_horner_:abrirResultadoHorner"><path d="M248.5,719.7069 C248.5,744.0869 248.5,759.3069 248.5,774.4369" fill="none" id="crear_horner-to-:abrirResultadoHorner" style="stroke:#008000;stroke-width:1;"/><polygon fill="#008000" points="248.5,780.4369,252.5,771.4369,248.5,775.4369,244.5,771.4369,248.5,780.4369" style="stroke:#008000;stroke-width:1;"/></g><!--link :abrirResultadoHorner to RESULTADO_HORNER--><g class="link" data-entity-1=":abrirResultadoHorner" data-entity-2="RESULTADO_HORNER" data-source-line="48" data-uid="lnk14" id="link_:abrirResultadoHorner_RESULTADO_HORNER"><path d="M248.5,831.0569 C248.5,849.0069 248.5,867.2869 248.5,885.2169" fill="none" id=":abrirResultadoHorner-to-RESULTADO_HORNER" style="stroke:#008000;stroke-width:1;"/><polygon fill="#008000" points="248.5,891.2169,252.5,882.2169,248.5,886.2169,244.5,882.2169,248.5,891.2169" style="stroke:#008000;stroke-width:1;"/></g><!--SRC=[bLBDJi904BxlKqpWreI47ptemKIHH1CZ1EL421dR0JUKdJgx68dnONm67u4NSxV5GX4FJflizjlfztqpEtQXJOQ2Ix0E7S6x0hZ2U34NNfcaooaBr6SuEtaw2ISi2SaMZS-QFjI7KhOaCVmdnsbugjcfDkJM6K76wJfyAEMqImckoM7grovQXeHWv9Uk40hqCnACzURBm0sB8L5AtVI7zxqXDCRrkH2PIUC2uf0yVIuoSbDiWjp2MukYaLsXQ0RBgOwrm_CeydXZAy4xYIq1cIIlp7lFcxJFdbTRm2r02pMebK3x4EZi0F-Eeqd5TCjZhGhIziY1-n1HzA2jeoM2qCjAan0CK3QVItB2jgWcH0EmtBqr_ROi1BotVQ7ECQ5TemR26KkisU3_bJf1IIZvAV6NpdYF4cxDw-OprGdRoH6Qqh3lNPYboatidv_ZasWPabsb3XF-cPMZSEN7OUzXTFTuUTsV5cFr3G00]--></g></svg>