<svg xmlns="http://www.w3.org/2000/svg" xmlns:xlink="http://www.w3.org/1999/xlink" contentStyleType="text/css" data-diagram-type="STATE" height="956px" preserveAspectRatio="none" style="width:527px;height:956px;background:#FFFFFF;" version="1.1" viewBox="0 0 527 956" width="527px" zoomAndPan="magnify"><title>Detalle Caso de Uso Crear Operaci&#243;n M&#252;ller</title><defs/><g><g class="title" data-source-line="14"><text fill="#000000" font-family="sans-serif" font-size="14" font-weight="bold" lengthAdjust="spacing" textLength="345.4746" x="84.0127" y="22.9951">Detalle Caso de Uso Crear Operaci&#243;n M&#252;ller</text></g><g id="M&#220;LLER"><rect fill="#FAF4B4" height="50" rx="12.5" ry="12.5" style="stroke:#C90000;stroke-width:0.5;" width="76.499" x="398.25" y="44.2969"/><line style="stroke:#C90000;stroke-width:0.5;" x1="398.25" x2="474.749" y1="70.5938" y2="70.5938"/><text fill="#000000" font-family="sans-serif" font-size="14" lengthAdjust="spacing" textLength="56.499" x="408.25" y="62.292">M&#220;LLER</text></g><path d="M19.5,204.2969 L477.5,204.2969 A12.5,12.5 0 0 1 490,216.7969 L490,230.5938 L7,230.5938 L7,216.7969 A12.5,12.5 0 0 1 19.5,204.2969" fill="#FAF4B4" style="stroke:#FAF4B4;stroke-width:1;"/><rect fill="none" height="635.2969" rx="12.5" ry="12.5" style="stroke:#C90000;stroke-width:0.5;" width="483" x="7" y="204.2969"/><line style="stroke:#C90000;stroke-width:0.5;" x1="7" x2="490" y1="230.5938" y2="230.5938"/><text fill="#000000" font-family="sans-serif" font-size="14" lengthAdjust="spacing" textLength="88.0605" x="204.4697" y="222.292">crear_m&#252;ller</text><g id="crear_m&#252;ller.1"><rect fill="#FAF4B4" height="50" rx="12.5" ry="12.5" style="stroke:#C90000;stroke-width:0.5;" width="50" x="158" y="298.5938"/><line style="stroke:#C90000;stroke-width:0.5;" x1="158" x2="208" y1="324.8906" y2="324.8906"/><text fill="#000000" font-family="sans-serif" font-size="14" lengthAdjust="spacing" textLength="4.4502" x="180.7749" y="316.5889">&#160;</text></g><g id="crear_m&#252;ller.2"><rect fill="#FAF4B4" height="50" rx="12.5" ry="12.5" style="stroke:#C90000;stroke-width:0.5;" width="50" x="19" y="509.5938"/><line style="stroke:#C90000;stroke-width:0.5;" x1="19" x2="69" y1="535.8906" y2="535.8906"/><text fill="#000000" font-family="sans-serif" font-size="14" lengthAdjust="spacing" textLength="4.4502" x="41.7749" y="527.5889">&#160;</text></g><g id="crear_m&#252;ller.3"><rect fill="#FAF4B4" height="50" rx="12.5" ry="12.5" style="stroke:#C90000;stroke-width:0.5;" width="50" x="152" y="720.5938"/><line style="stroke:#C90000;stroke-width:0.5;" x1="152" x2="202" y1="746.8906" y2="746.8906"/><text fill="#000000" font-family="sans-serif" font-size="14" lengthAdjust="spacing" textLength="4.4502" x="174.7749" y="738.5889">&#160;</text></g><ellipse cx="183" cy="251.5938" fill="#222222" rx="10" ry="10" style="stroke:#222222;stroke-width:1;"/><ellipse cx="177" cy="818.5938" fill="none" rx="11" ry="11" style="stroke:#222222;stroke-width:1;"/><ellipse cx="177" cy="818.5938" fill="#222222" rx="6" ry="6" style="stroke:#222222;stroke-width:1;"/><!--link *start*crear_m?ller to 1--><g class="link" data-entity-1="*start*crear_m&#252;ller" data-entity-2="1" data-source-line="29" data-uid="lnk4" id="link_*start*crear_m&#252;ller_1"><path d="M183,262.0338 C183,271.2938 183,279.7838 183,292.2737" fill="none" id="*start*crear_m&#252;ller-to-1" style="stroke:#008000;stroke-width:1;"/><polygon fill="#008000" points="183,298.2737,187,289.2737,183,293.2737,179,289.2737,183,298.2737" style="stroke:#008000;stroke-width:1;"/></g><!--link 1 to 2--><g class="link" data-entity-1="1" data-entity-2="2" data-source-line="30" data-uid="lnk5" id="link_1_2"><path d="M157.5,333.0938 C120.68,345.3638 57,366.5938 57,366.5938 C57,366.5938 49.9662,457.0119 46.3562,503.3319" fill="none" id="1-to-2" style="stroke:#008000;stroke-width:1;"/><polygon fill="#008000" points="45.89,509.3138,50.5772,500.6518,46.2785,504.3289,42.6014,500.0302,45.89,509.3138" style="stroke:#008000;stroke-width:1;"/><path d="M62,371.5938 L62,486.5938 L303,486.5938 L303,381.5938 L293,371.5938 L62,371.5938" fill="#F5F5F5" style="stroke:#181818;stroke-width:0.5;"/><path d="M293,371.5938 L293,381.5938 L303,381.5938 L293,371.5938" fill="#F5F5F5" style="stroke:#181818;stroke-width:0.5;"/><text fill="#000000" font-family="sans-serif" font-size="13" font-weight="bold" lengthAdjust="spacing" textLength="220.5874" x="68" y="388.6606">Sistema requiere Par&#225;metros:</text><text fill="#000000" font-family="sans-serif" font-size="13" lengthAdjust="spacing" textLength="56.8306" x="68" y="403.7935">- funcion</text><text fill="#000000" font-family="sans-serif" font-size="13" lengthAdjust="spacing" textLength="25.3462" x="68" y="418.9263">- p0</text><text fill="#000000" font-family="sans-serif" font-size="13" lengthAdjust="spacing" textLength="25.3462" x="68" y="434.0591">- p1</text><text fill="#000000" font-family="sans-serif" font-size="13" lengthAdjust="spacing" textLength="25.3462" x="68" y="449.1919">- p2</text><text fill="#000000" font-family="sans-serif" font-size="13" lengthAdjust="spacing" textLength="34.2393" x="68" y="464.3247">- TOL</text><text fill="#000000" font-family="sans-serif" font-size="13" lengthAdjust="spacing" textLength="26.8188" x="68" y="479.4575">- N0</text></g><!--link 2 to 3--><g class="link" data-entity-1="2" data-entity-2="3" data-source-line="40" data-uid="lnk6" id="link_2_3"><path d="M37.6,560.0238 C35.18,569.2638 33,577.5938 33,577.5938 C33,577.5938 33,702.5938 33,702.5938 C33,702.5938 104.4901,723.4434 145.8301,735.5034" fill="none" id="2-to-3" style="stroke:#008000;stroke-width:1;"/><polygon fill="#008000" points="151.59,737.1838,144.0704,730.8233,146.7901,735.7835,141.8299,738.5032,151.59,737.1838" style="stroke:#008000;stroke-width:1;"/><path d="M38,582.5938 L38,697.5938 L303,697.5938 L303,592.5938 L293,582.5938 L38,582.5938" fill="#F5F5F5" style="stroke:#181818;stroke-width:0.5;"/><path d="M293,582.5938 L293,592.5938 L303,592.5938 L293,582.5938" fill="#F5F5F5" style="stroke:#181818;stroke-width:0.5;"/><text fill="#000000" font-family="sans-serif" font-size="13" font-weight="bold" lengthAdjust="spacing" textLength="244.1499" x="44" y="599.6606">Usuario Proporciona Par&#225;metros:</text><text fill="#000000" font-family="sans-serif" font-size="13" lengthAdjust="spacing" textLength="56.8306" x="52.2646" y="614.7935">- funcion</text><text fill="#000000" font-family="sans-serif" font-size="13" lengthAdjust="spacing" textLength="25.3462" x="52.2646" y="629.9263">- p0</text><text fill="#000000" font-family="sans-serif" font-size="13" lengthAdjust="spacing" textLength="25.3462" x="52.2646" y="645.0591">- p1</text><text fill="#000000" font-family="sans-serif" font-size="13" lengthAdjust="spacing" textLength="25.3462" x="52.2646" y="660.1919">- p2</text><text fill="#000000" font-family="sans-serif" font-size="13" lengthAdjust="spacing" textLength="34.2393" x="52.2646" y="675.3247">- TOL</text><text fill="#000000" font-family="sans-serif" font-size="13" lengthAdjust="spacing" textLength="26.8188" x="52.2646" y="690.4575">- N0</text></g><!--link 3 to 1--><g class="link" data-entity-1="3" data-entity-2="1" data-source-line="50" data-uid="lnk7" id="link_3_1"><path d="M202.26,736.4938 C240.33,724.2938 308,702.5938 308,702.5938 C308,702.5938 308,366.5938 308,366.5938 C308,366.5938 250.5076,347.2747 213.9876,335.0047" fill="none" id="3-to-1" style="stroke:#FF0000;stroke-width:1;"/><polygon fill="#FF0000" points="208.3,333.0938,215.5574,339.7518,213.0396,334.6862,218.1053,332.1684,208.3,333.0938" style="stroke:#FF0000;stroke-width:1;"/><path d="M313,522.0938 L313,547.0938 L481,547.0938 L481,532.0938 L471,522.0938 L313,522.0938" fill="#F5F5F5" style="stroke:#181818;stroke-width:0.5;"/><path d="M471,522.0938 L471,532.0938 L481,532.0938 L471,522.0938" fill="#F5F5F5" style="stroke:#181818;stroke-width:0.5;"/><text fill="#000000" font-family="sans-serif" font-size="13" lengthAdjust="spacing" textLength="147.1577" x="319" y="539.1606">[Par&#225;metros Inv&#225;lidos]</text></g><!--link 3 to *end*crear_m?ller--><g class="link" data-entity-1="3" data-entity-2="*end*crear_m&#252;ller" data-source-line="54" data-uid="lnk9" id="link_3_*end*crear_m&#252;ller"><path d="M177,771.0238 C177,783.3838 177,791.7238 177,801.1938" fill="none" id="3-to-*end*crear_m&#252;ller" style="stroke:#008000;stroke-width:1;"/><polygon fill="#008000" points="177,807.1938,181,798.1938,177,802.1938,173,798.1938,177,807.1938" style="stroke:#008000;stroke-width:1;"/></g><g id=":calcularResultadoM&#252;ller"><rect fill="#FAF4B4" height="50" rx="12.5" ry="12.5" style="stroke:#C90000;stroke-width:0.5;" width="192.6963" x="299.15" y="900.5969"/><line style="stroke:#C90000;stroke-width:0.5;" x1="299.15" x2="491.8463" y1="926.8938" y2="926.8938"/><text fill="#000000" font-family="sans-serif" font-size="14" lengthAdjust="spacing" textLength="172.6963" x="309.15" y="918.592">:calcularResultadoM&#252;ller</text></g><!--link M?LLER to crear_m?ller--><g class="link" data-entity-1="M&#220;LLER" data-entity-2="crear_m&#252;ller" data-source-line="18" data-uid="lnk2" id="link_M&#220;LLER_crear_m&#252;ller"><path d="M397.76,89.4869 C366.43,105.0069 327.5,124.2969 327.5,124.2969 C327.5,124.2969 322.1114,151.3323 312.7814,198.2023" fill="none" id="M&#220;LLER-to-crear_m&#252;ller" style="stroke:#008000;stroke-width:1;"/><polygon fill="#008000" points="311.61,204.0869,317.2901,196.041,312.5862,199.1831,309.444,194.4791,311.61,204.0869" style="stroke:#008000;stroke-width:1;"/><path d="M332.5,129.2969 L332.5,169.2969 L511.5,169.2969 L511.5,139.2969 L501.5,129.2969 L332.5,129.2969" fill="#F5F5F5" style="stroke:#181818;stroke-width:0.5;"/><path d="M501.5,129.2969 L501.5,139.2969 L511.5,139.2969 L501.5,129.2969" fill="#F5F5F5" style="stroke:#181818;stroke-width:0.5;"/><text fill="#000000" font-family="sans-serif" font-size="13" font-weight="bold" lengthAdjust="spacing" textLength="118.5742" x="338.5" y="146.3638">Usuario solicita:</text><text fill="#000000" font-family="sans-serif" font-size="13" lengthAdjust="spacing" textLength="158.7549" x="338.5" y="161.4966">- Crear operaci&#243;n m&#252;ller</text></g><!--link crear_m?ller to :calcularResultadoM?ller--><g class="link" data-entity-1="crear_m&#252;ller" data-entity-2=":calcularResultadoM&#252;ller" data-source-line="57" data-uid="lnk11" id="link_crear_m&#252;ller_:calcularResultadoM&#252;ller"><path d="M364.5,839.9069 C373.43,864.2869 379.0071,879.5426 384.4771,894.4826" fill="none" id="crear_m&#252;ller-to-:calcularResultadoM&#252;ller" style="stroke:#008000;stroke-width:1;"/><polygon fill="#008000" points="386.54,900.1169,387.2019,890.2903,384.8209,895.4217,379.6895,893.0408,386.54,900.1169" style="stroke:#008000;stroke-width:1;"/></g><!--link :calcularResultadoM?ller to M?LLER--><g class="link" data-entity-1=":calcularResultadoM&#252;ller" data-entity-2="M&#220;LLER" data-source-line="59" data-uid="lnk12" id="link_:calcularResultadoM&#252;ller_M&#220;LLER"><path d="M427.59,900.2369 C460.69,875.1269 507.5,839.5969 507.5,839.5969 C507.5,839.5969 520.5,174.2969 520.5,174.2969 C520.5,174.2969 520.5,124.2969 520.5,124.2969 C520.5,124.2969 501.8375,112.3007 479.6175,98.0207" fill="none" id=":calcularResultadoM&#252;ller-to-M&#220;LLER" style="stroke:#008000;stroke-width:1;"/><polygon fill="#008000" points="474.57,94.7769,479.9787,103.0077,478.7763,97.4801,484.3038,96.2777,474.57,94.7769" style="stroke:#008000;stroke-width:1;"/></g><!--SRC=[lLAvJWCn4EttAqRGhHI99510GK6WG0g7EAeeGeDtWgnuFSlOYuGGVqB3Dz3IxOzX9zcBesLs9O-VvtXpU2x0Czopzvn3feMKrsoJn2srBL0m1-VH4xma04UebW_2fSqcR5XWUu6BtVlT-CAIaMnGjRyJ97dj1h7yPuoz-FMjZRRadmk2Wirpl2I9rzuG79D74yu9EeQCu3OS4o4Kk2X8KEdgmy9PzHbi90HSCJ-htgRJaoj8abeRpBOVXCZE1uUWelTTld5PqMGR2Im3sJIzTIMAPd1ijD8U3z8qu8DDKcwJrX78PgjYw-oz-AiEhF4Xe8Cjs6g0qNTWt0BXdwNp7kzXm8OzP1IGR_oZfEcrTfvo1A77KfCGNA9KxpbvORUk9ye05gLLSVRrlTXfrM6hZXhrvcBQwEVHk2aUGZbTRkFVkBNTlHGkM69o_1TouqXEAAiR-OFQhCC2JkrJzMvqncx-IvYcnZ2XkCNzWNSD3XGQLHgKAtAbyPXniwb_FdNzD-lx1G00]--></g></svg>