<svg xmlns="http://www.w3.org/2000/svg" xmlns:xlink="http://www.w3.org/1999/xlink" contentStyleType="text/css" data-diagram-type="CLASS" height="1218px" preserveAspectRatio="none" style="width:1694px;height:1218px;background:#FFFFFF;" version="1.1" viewBox="0 0 1694 1218" width="1694px" zoomAndPan="magnify"><title>Diagrama de Clases Librer&#237;a Numath + API</title><defs/><g><g class="title" data-source-line="1"><text fill="#000000" font-family="sans-serif" font-size="14" font-weight="bold" lengthAdjust="spacing" textLength="337.4219" x="671.4053" y="22.9951">Diagrama de Clases Librer&#237;a Numath + API</text></g><!--cluster API--><g class="cluster" data-entity="API" data-source-line="5" data-uid="ent0002" id="cluster_API"><path d="M8.5,51.4369 L35.8047,51.4369 A3.75,3.75 0 0 1 38.3047,53.9369 L45.3047,73.7337 L732.5,73.7337 A2.5,2.5 0 0 1 735,76.2337 L735,590.7269 A2.5,2.5 0 0 1 732.5,593.2269 L8.5,593.2269 A2.5,2.5 0 0 1 6,590.7269 L6,53.9369 A2.5,2.5 0 0 1 8.5,51.4369" fill="none" style="stroke:#000000;stroke-width:1.5;"/><line style="stroke:#000000;stroke-width:1.5;" x1="6" x2="45.3047" y1="73.7337" y2="73.7337"/><text fill="#000000" font-family="sans-serif" font-size="14" font-weight="bold" lengthAdjust="spacing" textLength="26.3047" x="10" y="66.432">API</text></g><!--cluster Librer?a: numath-Libary--><g class="cluster" data-entity="Librer&#237;a: numath-Libary" data-source-line="47" data-uid="ent0006" id="cluster_Librer&#237;a: numath-Libary"><path d="M761.5,43.2969 L949.9209,43.2969 A3.75,3.75 0 0 1 952.4209,45.7969 L959.4209,65.5938 L1607.5,65.5938 A2.5,2.5 0 0 1 1610,68.0938 L1610,1208.6669 A2.5,2.5 0 0 1 1607.5,1211.1669 L761.5,1211.1669 A2.5,2.5 0 0 1 759,1208.6669 L759,45.7969 A2.5,2.5 0 0 1 761.5,43.2969" fill="none" style="stroke:#000000;stroke-width:1.5;"/><line style="stroke:#000000;stroke-width:1.5;" x1="759" x2="959.4209" y1="65.5938" y2="65.5938"/><text fill="#000000" font-family="sans-serif" font-size="14" font-weight="bold" lengthAdjust="spacing" textLength="187.4209" x="763" y="58.292">Librer&#237;a: numath-Libary</text></g><!--cluster numath--><g class="cluster" data-entity="numath" data-source-line="48" data-uid="ent0007" id="cluster_numath"><path d="M793.5,339.5569 L855.1279,339.5569 A3.75,3.75 0 0 1 857.6279,342.0569 L864.6279,361.8537 L1575.5,361.8537 A2.5,2.5 0 0 1 1578,364.3537 L1578,1176.6669 A2.5,2.5 0 0 1 1575.5,1179.1669 L793.5,1179.1669 A2.5,2.5 0 0 1 791,1176.6669 L791,342.0569 A2.5,2.5 0 0 1 793.5,339.5569" fill="none" style="stroke:#000000;stroke-width:1.5;"/><line style="stroke:#000000;stroke-width:1.5;" x1="791" x2="864.6279" y1="361.8537" y2="361.8537"/><text fill="#000000" font-family="sans-serif" font-size="14" font-weight="bold" lengthAdjust="spacing" textLength="60.6279" x="795" y="354.552">numath</text></g><!--class __init__--><g class="entity" data-entity="__init__" data-source-line="6" data-uid="ent0003" id="entity___init__"><rect fill="#F1F1F1" height="64.2969" rx="2.5" ry="2.5" style="stroke:#181818;stroke-width:0.5;" width="164.5645" x="226.72" y="86.4369"/><ellipse cx="279.6814" cy="102.4369" fill="#ADD1B2" rx="11" ry="11" style="stroke:#181818;stroke-width:1;"/><path d="M282.6502,108.0775 Q282.0721,108.3744 281.4314,108.515 Q280.7908,108.6712 280.0877,108.6712 Q277.5877,108.6712 276.2596,107.0306 Q274.9471,105.3744 274.9471,102.2494 Q274.9471,99.1244 276.2596,97.4681 Q277.5877,95.8119 280.0877,95.8119 Q280.7908,95.8119 281.4314,95.9681 Q282.0877,96.1244 282.6502,96.4212 L282.6502,99.14 Q282.0252,98.5619 281.4314,98.2962 Q280.8377,98.015 280.2127,98.015 Q278.8689,98.015 278.1814,99.0931 Q277.4939,100.1556 277.4939,102.2494 Q277.4939,104.3431 278.1814,105.4212 Q278.8689,106.4837 280.2127,106.4837 Q280.8377,106.4837 281.4314,106.2181 Q282.0252,105.9369 282.6502,105.3587 L282.6502,108.0775 Z " fill="#000000"/><text fill="#000000" font-family="sans-serif" font-size="14" lengthAdjust="spacing" textLength="50.1416" x="300.1814" y="107.2836">__init__</text><line style="stroke:#181818;stroke-width:0.5;" x1="227.72" x2="390.2845" y1="118.4369" y2="118.4369"/><line style="stroke:#181818;stroke-width:0.5;" x1="227.72" x2="390.2845" y1="126.4369" y2="126.4369"/><ellipse cx="237.72" cy="140.0853" fill="#84BE84" rx="3" ry="3" style="stroke:#038048;stroke-width:1;"/><text fill="#000000" font-family="sans-serif" font-size="14" lengthAdjust="spacing" textLength="138.5645" x="246.72" y="143.432">create_app() : Flask</text></g><!--class ecuaciones_una_variable_controller--><g class="entity" data-entity="ecuaciones_una_variable_controller" data-source-line="11" data-uid="ent0004" id="entity_ecuaciones_una_variable_controller"><rect fill="#F1F1F1" height="178.375" rx="2.5" ry="2.5" style="stroke:#181818;stroke-width:0.5;" width="281.5938" x="22.2" y="317.3669"/><ellipse cx="37.2" cy="333.3669" fill="#ADD1B2" rx="11" ry="11" style="stroke:#181818;stroke-width:1;"/><path d="M40.1688,339.0075 Q39.5906,339.3044 38.95,339.445 Q38.3094,339.6012 37.6063,339.6012 Q35.1063,339.6012 33.7781,337.9606 Q32.4656,336.3044 32.4656,333.1794 Q32.4656,330.0544 33.7781,328.3981 Q35.1063,326.7419 37.6063,326.7419 Q38.3094,326.7419 38.95,326.8981 Q39.6063,327.0544 40.1688,327.3512 L40.1688,330.07 Q39.5438,329.4919 38.95,329.2262 Q38.3563,328.945 37.7313,328.945 Q36.3875,328.945 35.7,330.0231 Q35.0125,331.0856 35.0125,333.1794 Q35.0125,335.2731 35.7,336.3512 Q36.3875,337.4137 37.7313,337.4137 Q38.3563,337.4137 38.95,337.1481 Q39.5438,336.8669 40.1688,336.2887 L40.1688,339.0075 Z " fill="#000000"/><text fill="#000000" font-family="sans-serif" font-size="14" lengthAdjust="spacing" textLength="249.5938" x="51.2" y="338.2136">ecuaciones_una_variable_controller</text><line style="stroke:#181818;stroke-width:0.5;" x1="23.2" x2="302.7938" y1="349.3669" y2="349.3669"/><line style="stroke:#181818;stroke-width:0.5;" x1="23.2" x2="302.7938" y1="357.3669" y2="357.3669"/><ellipse cx="33.2" cy="371.0153" fill="#84BE84" rx="3" ry="3" style="stroke:#038048;stroke-width:1;"/><text fill="#000000" font-family="sans-serif" font-size="14" lengthAdjust="spacing" textLength="143.1992" x="42.2" y="374.362">bisection_endpoint()</text><ellipse cx="33.2" cy="387.3122" fill="#84BE84" rx="3" ry="3" style="stroke:#038048;stroke-width:1;"/><text fill="#000000" font-family="sans-serif" font-size="14" lengthAdjust="spacing" textLength="157.3086" x="42.2" y="390.6589">fixed_point_endpoint()</text><ellipse cx="33.2" cy="403.6091" fill="#84BE84" rx="3" ry="3" style="stroke:#038048;stroke-width:1;"/><text fill="#000000" font-family="sans-serif" font-size="14" lengthAdjust="spacing" textLength="131.8652" x="42.2" y="406.9557">newton_endpoint()</text><ellipse cx="33.2" cy="419.9059" fill="#84BE84" rx="3" ry="3" style="stroke:#038048;stroke-width:1;"/><text fill="#000000" font-family="sans-serif" font-size="14" lengthAdjust="spacing" textLength="126.5469" x="42.2" y="423.2526">secant_endpoint()</text><ellipse cx="33.2" cy="436.2028" fill="#84BE84" rx="3" ry="3" style="stroke:#038048;stroke-width:1;"/><text fill="#000000" font-family="sans-serif" font-size="14" lengthAdjust="spacing" textLength="175.7588" x="42.2" y="439.5495">false_position_endpoint()</text><ellipse cx="33.2" cy="452.4997" fill="#84BE84" rx="3" ry="3" style="stroke:#038048;stroke-width:1;"/><text fill="#000000" font-family="sans-serif" font-size="14" lengthAdjust="spacing" textLength="153.5215" x="42.2" y="455.8464">steffensen_endpoint()</text><ellipse cx="33.2" cy="468.7966" fill="#84BE84" rx="3" ry="3" style="stroke:#038048;stroke-width:1;"/><text fill="#000000" font-family="sans-serif" font-size="14" lengthAdjust="spacing" textLength="118.4258" x="42.2" y="472.1432">horner_method()</text><ellipse cx="33.2" cy="485.0934" fill="#84BE84" rx="3" ry="3" style="stroke:#038048;stroke-width:1;"/><text fill="#000000" font-family="sans-serif" font-size="14" lengthAdjust="spacing" textLength="124.6602" x="42.2" y="488.4401">muller_endpoint()</text></g><!--class diferenciacion_numerica_e_integracion_controller--><g class="entity" data-entity="diferenciacion_numerica_e_integracion_controller" data-source-line="23" data-uid="ent0005" id="entity_diferenciacion_numerica_e_integracion_controller"><rect fill="#F1F1F1" height="341.3438" rx="2.5" ry="2.5" style="stroke:#181818;stroke-width:0.5;" width="379.4912" x="339.25" y="235.8869"/><ellipse cx="354.25" cy="251.8869" fill="#ADD1B2" rx="11" ry="11" style="stroke:#181818;stroke-width:1;"/><path d="M357.2188,257.5275 Q356.6406,257.8244 356,257.965 Q355.3594,258.1212 354.6563,258.1212 Q352.1563,258.1212 350.8281,256.4806 Q349.5156,254.8244 349.5156,251.6994 Q349.5156,248.5744 350.8281,246.9181 Q352.1563,245.2619 354.6563,245.2619 Q355.3594,245.2619 356,245.4181 Q356.6563,245.5744 357.2188,245.8712 L357.2188,248.59 Q356.5938,248.0119 356,247.7462 Q355.4063,247.465 354.7813,247.465 Q353.4375,247.465 352.75,248.5431 Q352.0625,249.6056 352.0625,251.6994 Q352.0625,253.7931 352.75,254.8712 Q353.4375,255.9337 354.7813,255.9337 Q355.4063,255.9337 356,255.6681 Q356.5938,255.3869 357.2188,254.8087 L357.2188,257.5275 Z " fill="#000000"/><text fill="#000000" font-family="sans-serif" font-size="14" lengthAdjust="spacing" textLength="347.4912" x="368.25" y="256.7336">diferenciacion_numerica_e_integracion_controller</text><line style="stroke:#181818;stroke-width:0.5;" x1="340.25" x2="717.7412" y1="267.8869" y2="267.8869"/><line style="stroke:#181818;stroke-width:0.5;" x1="340.25" x2="717.7412" y1="275.8869" y2="275.8869"/><ellipse cx="350.25" cy="289.5353" fill="#84BE84" rx="3" ry="3" style="stroke:#038048;stroke-width:1;"/><text fill="#000000" font-family="sans-serif" font-size="14" lengthAdjust="spacing" textLength="300.5283" x="359.25" y="292.882">derivative_three_points_central_endpoint()</text><ellipse cx="350.25" cy="305.8322" fill="#84BE84" rx="3" ry="3" style="stroke:#038048;stroke-width:1;"/><text fill="#000000" font-family="sans-serif" font-size="14" lengthAdjust="spacing" textLength="298.0947" x="359.25" y="309.1789">derivative_three_points_border_endpoint()</text><ellipse cx="350.25" cy="322.1291" fill="#84BE84" rx="3" ry="3" style="stroke:#038048;stroke-width:1;"/><text fill="#000000" font-family="sans-serif" font-size="14" lengthAdjust="spacing" textLength="288.9004" x="359.25" y="325.4757">derivative_five_points_central_endpoint()</text><ellipse cx="350.25" cy="338.4259" fill="#84BE84" rx="3" ry="3" style="stroke:#038048;stroke-width:1;"/><text fill="#000000" font-family="sans-serif" font-size="14" lengthAdjust="spacing" textLength="286.4668" x="359.25" y="341.7726">derivative_five_points_border_endpoint()</text><ellipse cx="350.25" cy="354.7228" fill="#84BE84" rx="3" ry="3" style="stroke:#038048;stroke-width:1;"/><text fill="#000000" font-family="sans-serif" font-size="14" lengthAdjust="spacing" textLength="205.2422" x="359.25" y="358.0695">derivative_unified_endpoint()</text><ellipse cx="350.25" cy="371.0197" fill="#84BE84" rx="3" ry="3" style="stroke:#038048;stroke-width:1;"/><text fill="#000000" font-family="sans-serif" font-size="14" lengthAdjust="spacing" textLength="263.1152" x="359.25" y="374.3664">second_derivative_central_endpoint()</text><ellipse cx="350.25" cy="387.3166" fill="#84BE84" rx="3" ry="3" style="stroke:#038048;stroke-width:1;"/><text fill="#000000" font-family="sans-serif" font-size="14" lengthAdjust="spacing" textLength="301.6494" x="359.25" y="390.6632">second_derivative_central_data_endpoint()</text><ellipse cx="350.25" cy="403.6134" fill="#84BE84" rx="3" ry="3" style="stroke:#038048;stroke-width:1;"/><text fill="#000000" font-family="sans-serif" font-size="14" lengthAdjust="spacing" textLength="244.3643" x="359.25" y="406.9601">newton_cotes_n1_close_endpoint()</text><ellipse cx="350.25" cy="419.9103" fill="#84BE84" rx="3" ry="3" style="stroke:#038048;stroke-width:1;"/><text fill="#000000" font-family="sans-serif" font-size="14" lengthAdjust="spacing" textLength="244.3643" x="359.25" y="423.257">newton_cotes_n2_close_endpoint()</text><ellipse cx="350.25" cy="436.2072" fill="#84BE84" rx="3" ry="3" style="stroke:#038048;stroke-width:1;"/><text fill="#000000" font-family="sans-serif" font-size="14" lengthAdjust="spacing" textLength="244.3643" x="359.25" y="439.5539">newton_cotes_n3_close_endpoint()</text><ellipse cx="350.25" cy="452.5041" fill="#84BE84" rx="3" ry="3" style="stroke:#038048;stroke-width:1;"/><text fill="#000000" font-family="sans-serif" font-size="14" lengthAdjust="spacing" textLength="244.3643" x="359.25" y="455.8507">newton_cotes_n4_close_endpoint()</text><ellipse cx="350.25" cy="468.8009" fill="#84BE84" rx="3" ry="3" style="stroke:#038048;stroke-width:1;"/><text fill="#000000" font-family="sans-serif" font-size="14" lengthAdjust="spacing" textLength="243.2432" x="359.25" y="472.1476">newton_cotes_n0_open_endpoint()</text><ellipse cx="350.25" cy="485.0978" fill="#84BE84" rx="3" ry="3" style="stroke:#038048;stroke-width:1;"/><text fill="#000000" font-family="sans-serif" font-size="14" lengthAdjust="spacing" textLength="243.2432" x="359.25" y="488.4445">newton_cotes_n1_open_endpoint()</text><ellipse cx="350.25" cy="501.3947" fill="#84BE84" rx="3" ry="3" style="stroke:#038048;stroke-width:1;"/><text fill="#000000" font-family="sans-serif" font-size="14" lengthAdjust="spacing" textLength="243.2432" x="359.25" y="504.7414">newton_cotes_n2_open_endpoint()</text><ellipse cx="350.25" cy="517.6916" fill="#84BE84" rx="3" ry="3" style="stroke:#038048;stroke-width:1;"/><text fill="#000000" font-family="sans-serif" font-size="14" lengthAdjust="spacing" textLength="243.2432" x="359.25" y="521.0382">newton_cotes_n3_open_endpoint()</text><ellipse cx="350.25" cy="533.9884" fill="#84BE84" rx="3" ry="3" style="stroke:#038048;stroke-width:1;"/><text fill="#000000" font-family="sans-serif" font-size="14" lengthAdjust="spacing" textLength="252.2119" x="359.25" y="537.3351">composite_simpson_rule_endpoint()</text><ellipse cx="350.25" cy="550.2853" fill="#84BE84" rx="3" ry="3" style="stroke:#038048;stroke-width:1;"/><text fill="#000000" font-family="sans-serif" font-size="14" lengthAdjust="spacing" textLength="272.2549" x="359.25" y="553.632">composite_trapezoidal_rule_endpoint()</text><ellipse cx="350.25" cy="566.5822" fill="#84BE84" rx="3" ry="3" style="stroke:#038048;stroke-width:1;"/><text fill="#000000" font-family="sans-serif" font-size="14" lengthAdjust="spacing" textLength="255.8896" x="359.25" y="569.9289">composite_midpoint_rule_endpoint()</text></g><!--class setup--><g class="entity" data-entity="setup" data-source-line="97" data-uid="ent0012" id="entity_setup"><rect fill="#F1F1F1" height="80.5938" rx="2.5" ry="2.5" style="stroke:#181818;stroke-width:0.5;" width="238.3721" x="1332.81" y="78.2969"/><ellipse cx="1428.1679" cy="94.2969" fill="#ADD1B2" rx="11" ry="11" style="stroke:#181818;stroke-width:1;"/><path d="M1431.1367,99.9375 Q1430.5585,100.2344 1429.9179,100.375 Q1429.2773,100.5313 1428.5742,100.5313 Q1426.0742,100.5313 1424.746,98.8906 Q1423.4335,97.2344 1423.4335,94.1094 Q1423.4335,90.9844 1424.746,89.3281 Q1426.0742,87.6719 1428.5742,87.6719 Q1429.2773,87.6719 1429.9179,87.8281 Q1430.5742,87.9844 1431.1367,88.2813 L1431.1367,91 Q1430.5117,90.4219 1429.9179,90.1563 Q1429.3242,89.875 1428.6992,89.875 Q1427.3554,89.875 1426.6679,90.9531 Q1425.9804,92.0156 1425.9804,94.1094 Q1425.9804,96.2031 1426.6679,97.2813 Q1427.3554,98.3438 1428.6992,98.3438 Q1429.3242,98.3438 1429.9179,98.0781 Q1430.5117,97.7969 1431.1367,97.2188 L1431.1367,99.9375 Z " fill="#000000"/><text fill="#000000" font-family="sans-serif" font-size="14" lengthAdjust="spacing" textLength="39.1563" x="1448.6679" y="99.1436">setup</text><line style="stroke:#181818;stroke-width:0.5;" x1="1333.81" x2="1570.1821" y1="110.2969" y2="110.2969"/><line style="stroke:#181818;stroke-width:0.5;" x1="1333.81" x2="1570.1821" y1="118.2969" y2="118.2969"/><ellipse cx="1343.81" cy="131.9453" fill="#84BE84" rx="3" ry="3" style="stroke:#038048;stroke-width:1;"/><text fill="#000000" font-family="sans-serif" font-size="14" lengthAdjust="spacing" textLength="212.3721" x="1352.81" y="135.292">parse_requirements(filename)</text><ellipse cx="1343.81" cy="148.2422" fill="#84BE84" rx="3" ry="3" style="stroke:#038048;stroke-width:1;"/><text fill="#000000" font-family="sans-serif" font-size="14" lengthAdjust="spacing" textLength="50.0801" x="1352.81" y="151.5889">setup()</text></g><!--class init--><g class="entity" data-entity="init" data-source-line="51" data-uid="ent0008" id="entity_init"><rect fill="#F1F1F1" height="48" rx="2.5" ry="2.5" style="stroke:#181818;stroke-width:0.5;" width="54.1416" x="1149.93" y="382.5569"/><ellipse cx="1164.93" cy="398.5569" fill="#ADD1B2" rx="11" ry="11" style="stroke:#181818;stroke-width:1;"/><path d="M1167.8988,404.1975 Q1167.3206,404.4944 1166.68,404.635 Q1166.0394,404.7912 1165.3363,404.7912 Q1162.8363,404.7912 1161.5081,403.1506 Q1160.1956,401.4944 1160.1956,398.3694 Q1160.1956,395.2444 1161.5081,393.5881 Q1162.8363,391.9319 1165.3363,391.9319 Q1166.0394,391.9319 1166.68,392.0881 Q1167.3363,392.2444 1167.8988,392.5412 L1167.8988,395.26 Q1167.2738,394.6819 1166.68,394.4162 Q1166.0863,394.135 1165.4613,394.135 Q1164.1175,394.135 1163.43,395.2131 Q1162.7425,396.2756 1162.7425,398.3694 Q1162.7425,400.4631 1163.43,401.5412 Q1164.1175,402.6037 1165.4613,402.6037 Q1166.0863,402.6037 1166.68,402.3381 Q1167.2738,402.0569 1167.8988,401.4787 L1167.8988,404.1975 Z " fill="#000000"/><text fill="#000000" font-family="sans-serif" font-size="14" lengthAdjust="spacing" textLength="22.1416" x="1178.93" y="403.4036">init</text><line style="stroke:#181818;stroke-width:0.5;" x1="1150.93" x2="1203.0716" y1="414.5569" y2="414.5569"/><line style="stroke:#181818;stroke-width:0.5;" x1="1150.93" x2="1203.0716" y1="422.5569" y2="422.5569"/></g><!--class ecuaciones_una_variable--><g class="entity" data-entity="ecuaciones_una_variable" data-source-line="55" data-uid="ent0009" id="entity_ecuaciones_una_variable"><rect fill="#F1F1F1" height="178.375" rx="2.5" ry="2.5" style="stroke:#181818;stroke-width:0.5;" width="342.7158" x="814.64" y="737.7169"/><ellipse cx="893.9984" cy="753.7169" fill="#ADD1B2" rx="11" ry="11" style="stroke:#181818;stroke-width:1;"/><path d="M896.9671,759.3575 Q896.389,759.6544 895.7484,759.795 Q895.1078,759.9512 894.4046,759.9512 Q891.9046,759.9512 890.5765,758.3106 Q889.264,756.6544 889.264,753.5294 Q889.264,750.4044 890.5765,748.7481 Q891.9046,747.0919 894.4046,747.0919 Q895.1078,747.0919 895.7484,747.2481 Q896.4046,747.4044 896.9671,747.7012 L896.9671,750.42 Q896.3421,749.8419 895.7484,749.5762 Q895.1546,749.295 894.5296,749.295 Q893.1859,749.295 892.4984,750.3731 Q891.8109,751.4356 891.8109,753.5294 Q891.8109,755.6231 892.4984,756.7012 Q893.1859,757.7637 894.5296,757.7637 Q895.1546,757.7637 895.7484,757.4981 Q896.3421,757.2169 896.9671,756.6387 L896.9671,759.3575 Z " fill="#000000"/><text fill="#000000" font-family="sans-serif" font-size="14" lengthAdjust="spacing" textLength="175.499" x="914.4984" y="758.5636">ecuaciones_una_variable</text><line style="stroke:#181818;stroke-width:0.5;" x1="815.64" x2="1156.3558" y1="769.7169" y2="769.7169"/><line style="stroke:#181818;stroke-width:0.5;" x1="815.64" x2="1156.3558" y1="777.7169" y2="777.7169"/><ellipse cx="825.64" cy="791.3653" fill="#84BE84" rx="3" ry="3" style="stroke:#038048;stroke-width:1;"/><text fill="#000000" font-family="sans-serif" font-size="14" lengthAdjust="spacing" textLength="225.6406" x="834.64" y="794.712">bisection(funcion, a, b, TOL, N0)</text><ellipse cx="825.64" cy="807.6622" fill="#84BE84" rx="3" ry="3" style="stroke:#038048;stroke-width:1;"/><text fill="#000000" font-family="sans-serif" font-size="14" lengthAdjust="spacing" textLength="297.3223" x="834.64" y="811.0089">fixed_point_iteration(funcion, p0, TOL, N0)</text><ellipse cx="825.64" cy="823.9591" fill="#84BE84" rx="3" ry="3" style="stroke:#038048;stroke-width:1;"/><text fill="#000000" font-family="sans-serif" font-size="14" lengthAdjust="spacing" textLength="316.7158" x="834.64" y="827.3057">newton_method(funcion, p0, TOL, N0, factor)</text><ellipse cx="825.64" cy="840.2559" fill="#84BE84" rx="3" ry="3" style="stroke:#038048;stroke-width:1;"/><text fill="#000000" font-family="sans-serif" font-size="14" lengthAdjust="spacing" textLength="288.1758" x="834.64" y="843.6026">secant_method(funcion, p0, p1, TOL, N0)</text><ellipse cx="825.64" cy="856.5528" fill="#84BE84" rx="3" ry="3" style="stroke:#038048;stroke-width:1;"/><text fill="#000000" font-family="sans-serif" font-size="14" lengthAdjust="spacing" textLength="276.3223" x="834.64" y="859.8995">false_position(funcion, p0, p1, TOL, N0)</text><ellipse cx="825.64" cy="872.8497" fill="#84BE84" rx="3" ry="3" style="stroke:#038048;stroke-width:1;"/><text fill="#000000" font-family="sans-serif" font-size="14" lengthAdjust="spacing" textLength="288.4561" x="834.64" y="876.1964">steffensen_method(funcion, p0, TOL, N0)</text><ellipse cx="825.64" cy="889.1466" fill="#84BE84" rx="3" ry="3" style="stroke:#038048;stroke-width:1;"/><text fill="#000000" font-family="sans-serif" font-size="14" lengthAdjust="spacing" textLength="153.0977" x="834.64" y="892.4932">horner_method(a, x0)</text><ellipse cx="825.64" cy="905.4434" fill="#84BE84" rx="3" ry="3" style="stroke:#038048;stroke-width:1;"/><text fill="#000000" font-family="sans-serif" font-size="14" lengthAdjust="spacing" textLength="312.9834" x="834.64" y="908.7901">muller_method(funcion, p0, p1, p2, TOL, N0)</text></g><!--class diferenciacion_numerica_e_integracion--><g class="entity" data-entity="diferenciacion_numerica_e_integracion" data-source-line="67" data-uid="ent0010" id="entity_diferenciacion_numerica_e_integracion"><rect fill="#F1F1F1" height="341.3438" rx="2.5" ry="2.5" style="stroke:#181818;stroke-width:0.5;" width="353.0176" x="1192.49" y="656.2269"/><ellipse cx="1228.9195" cy="672.2269" fill="#ADD1B2" rx="11" ry="11" style="stroke:#181818;stroke-width:1;"/><path d="M1231.8882,677.8675 Q1231.3101,678.1644 1230.6695,678.305 Q1230.0289,678.4612 1229.3257,678.4612 Q1226.8257,678.4612 1225.4976,676.8206 Q1224.1851,675.1644 1224.1851,672.0394 Q1224.1851,668.9144 1225.4976,667.2581 Q1226.8257,665.6019 1229.3257,665.6019 Q1230.0289,665.6019 1230.6695,665.7581 Q1231.3257,665.9144 1231.8882,666.2112 L1231.8882,668.93 Q1231.2632,668.3519 1230.6695,668.0862 Q1230.0757,667.805 1229.4507,667.805 Q1228.107,667.805 1227.4195,668.8831 Q1226.732,669.9456 1226.732,672.0394 Q1226.732,674.1331 1227.4195,675.2112 Q1228.107,676.2737 1229.4507,676.2737 Q1230.0757,676.2737 1230.6695,676.0081 Q1231.2632,675.7269 1231.8882,675.1487 L1231.8882,677.8675 Z " fill="#000000"/><text fill="#000000" font-family="sans-serif" font-size="14" lengthAdjust="spacing" textLength="273.3965" x="1247.6816" y="677.0736">diferenciacion_numerica_e_integracion</text><line style="stroke:#181818;stroke-width:0.5;" x1="1193.49" x2="1544.5076" y1="688.2269" y2="688.2269"/><line style="stroke:#181818;stroke-width:0.5;" x1="1193.49" x2="1544.5076" y1="696.2269" y2="696.2269"/><ellipse cx="1203.49" cy="709.8753" fill="#84BE84" rx="3" ry="3" style="stroke:#038048;stroke-width:1;"/><text fill="#000000" font-family="sans-serif" font-size="14" lengthAdjust="spacing" textLength="327.0176" x="1212.49" y="713.222">derivative_three_points_central(funcion, x0, h)</text><ellipse cx="1203.49" cy="726.1722" fill="#84BE84" rx="3" ry="3" style="stroke:#038048;stroke-width:1;"/><text fill="#000000" font-family="sans-serif" font-size="14" lengthAdjust="spacing" textLength="324.584" x="1212.49" y="729.5189">derivative_three_points_border(funcion, x0, h)</text><ellipse cx="1203.49" cy="742.4691" fill="#84BE84" rx="3" ry="3" style="stroke:#038048;stroke-width:1;"/><text fill="#000000" font-family="sans-serif" font-size="14" lengthAdjust="spacing" textLength="315.3896" x="1212.49" y="745.8157">derivative_five_points_central(funcion, x0, h)</text><ellipse cx="1203.49" cy="758.7659" fill="#84BE84" rx="3" ry="3" style="stroke:#038048;stroke-width:1;"/><text fill="#000000" font-family="sans-serif" font-size="14" lengthAdjust="spacing" textLength="312.9561" x="1212.49" y="762.1126">derivative_five_points_border(funcion, x0, h)</text><ellipse cx="1203.49" cy="775.0628" fill="#84BE84" rx="3" ry="3" style="stroke:#038048;stroke-width:1;"/><text fill="#000000" font-family="sans-serif" font-size="14" lengthAdjust="spacing" textLength="201.0723" x="1212.49" y="778.4095">derivative_unified(datos, x0)</text><ellipse cx="1203.49" cy="791.3597" fill="#84BE84" rx="3" ry="3" style="stroke:#038048;stroke-width:1;"/><text fill="#000000" font-family="sans-serif" font-size="14" lengthAdjust="spacing" textLength="289.6045" x="1212.49" y="794.7064">second_derivative_central(funcion, x0, h)</text><ellipse cx="1203.49" cy="807.6566" fill="#84BE84" rx="3" ry="3" style="stroke:#038048;stroke-width:1;"/><text fill="#000000" font-family="sans-serif" font-size="14" lengthAdjust="spacing" textLength="297.4795" x="1212.49" y="811.0032">second_derivative_central_data(datos, x0)</text><ellipse cx="1203.49" cy="823.9534" fill="#84BE84" rx="3" ry="3" style="stroke:#038048;stroke-width:1;"/><text fill="#000000" font-family="sans-serif" font-size="14" lengthAdjust="spacing" textLength="262.2539" x="1212.49" y="827.3001">newton_cotes_n1_close(funcion, a, b)</text><ellipse cx="1203.49" cy="840.2503" fill="#84BE84" rx="3" ry="3" style="stroke:#038048;stroke-width:1;"/><text fill="#000000" font-family="sans-serif" font-size="14" lengthAdjust="spacing" textLength="262.2539" x="1212.49" y="843.597">newton_cotes_n2_close(funcion, a, b)</text><ellipse cx="1203.49" cy="856.5472" fill="#84BE84" rx="3" ry="3" style="stroke:#038048;stroke-width:1;"/><text fill="#000000" font-family="sans-serif" font-size="14" lengthAdjust="spacing" textLength="262.2539" x="1212.49" y="859.8939">newton_cotes_n3_close(funcion, a, b)</text><ellipse cx="1203.49" cy="872.8441" fill="#84BE84" rx="3" ry="3" style="stroke:#038048;stroke-width:1;"/><text fill="#000000" font-family="sans-serif" font-size="14" lengthAdjust="spacing" textLength="262.2539" x="1212.49" y="876.1907">newton_cotes_n4_close(funcion, a, b)</text><ellipse cx="1203.49" cy="889.1409" fill="#84BE84" rx="3" ry="3" style="stroke:#038048;stroke-width:1;"/><text fill="#000000" font-family="sans-serif" font-size="14" lengthAdjust="spacing" textLength="261.1328" x="1212.49" y="892.4876">newton_cotes_n0_open(funcion, a, b)</text><ellipse cx="1203.49" cy="905.4378" fill="#84BE84" rx="3" ry="3" style="stroke:#038048;stroke-width:1;"/><text fill="#000000" font-family="sans-serif" font-size="14" lengthAdjust="spacing" textLength="261.1328" x="1212.49" y="908.7845">newton_cotes_n1_open(funcion, a, b)</text><ellipse cx="1203.49" cy="921.7347" fill="#84BE84" rx="3" ry="3" style="stroke:#038048;stroke-width:1;"/><text fill="#000000" font-family="sans-serif" font-size="14" lengthAdjust="spacing" textLength="261.1328" x="1212.49" y="925.0814">newton_cotes_n2_open(funcion, a, b)</text><ellipse cx="1203.49" cy="938.0316" fill="#84BE84" rx="3" ry="3" style="stroke:#038048;stroke-width:1;"/><text fill="#000000" font-family="sans-serif" font-size="14" lengthAdjust="spacing" textLength="261.1328" x="1212.49" y="941.3782">newton_cotes_n3_open(funcion, a, b)</text><ellipse cx="1203.49" cy="954.3284" fill="#84BE84" rx="3" ry="3" style="stroke:#038048;stroke-width:1;"/><text fill="#000000" font-family="sans-serif" font-size="14" lengthAdjust="spacing" textLength="287.875" x="1212.49" y="957.6751">composite_simpson_rule(funcion, a, b, n)</text><ellipse cx="1203.49" cy="970.6253" fill="#84BE84" rx="3" ry="3" style="stroke:#038048;stroke-width:1;"/><text fill="#000000" font-family="sans-serif" font-size="14" lengthAdjust="spacing" textLength="307.918" x="1212.49" y="973.972">composite_trapezoidal_rule(funcion, a, b, n)</text><ellipse cx="1203.49" cy="986.9222" fill="#84BE84" rx="3" ry="3" style="stroke:#038048;stroke-width:1;"/><text fill="#000000" font-family="sans-serif" font-size="14" lengthAdjust="spacing" textLength="291.5527" x="1212.49" y="990.2689">composite_midpoint_rule(funcion, a, b, n)</text></g><!--class transformacion--><g class="entity" data-entity="transformacion" data-source-line="90" data-uid="ent0011" id="entity_transformacion"><rect fill="#F1F1F1" height="80.5938" rx="2.5" ry="2.5" style="stroke:#181818;stroke-width:0.5;" width="336.8232" x="966.59" y="1074.5769"/><ellipse cx="1077.5099" cy="1090.5769" fill="#ADD1B2" rx="11" ry="11" style="stroke:#181818;stroke-width:1;"/><path d="M1080.4787,1096.2175 Q1079.9005,1096.5144 1079.2599,1096.655 Q1078.6193,1096.8113 1077.9162,1096.8113 Q1075.4162,1096.8113 1074.088,1095.1706 Q1072.7755,1093.5144 1072.7755,1090.3894 Q1072.7755,1087.2644 1074.088,1085.6081 Q1075.4162,1083.9519 1077.9162,1083.9519 Q1078.6193,1083.9519 1079.2599,1084.1081 Q1079.9162,1084.2644 1080.4787,1084.5613 L1080.4787,1087.28 Q1079.8537,1086.7019 1079.2599,1086.4363 Q1078.6662,1086.155 1078.0412,1086.155 Q1076.6974,1086.155 1076.0099,1087.2331 Q1075.3224,1088.2956 1075.3224,1090.3894 Q1075.3224,1092.4831 1076.0099,1093.5613 Q1076.6974,1094.6238 1078.0412,1094.6238 Q1078.6662,1094.6238 1079.2599,1094.3581 Q1079.8537,1094.0769 1080.4787,1093.4988 L1080.4787,1096.2175 Z " fill="#000000"/><text fill="#000000" font-family="sans-serif" font-size="14" lengthAdjust="spacing" textLength="106.4834" x="1098.0099" y="1095.4236">transformacion</text><line style="stroke:#181818;stroke-width:0.5;" x1="967.59" x2="1302.4132" y1="1106.5769" y2="1106.5769"/><line style="stroke:#181818;stroke-width:0.5;" x1="967.59" x2="1302.4132" y1="1114.5769" y2="1114.5769"/><ellipse cx="977.59" cy="1128.2253" fill="#84BE84" rx="3" ry="3" style="stroke:#038048;stroke-width:1;"/><text fill="#000000" font-family="sans-serif" font-size="14" lengthAdjust="spacing" textLength="310.8232" x="986.59" y="1131.572">reemplazar_funciones(funcion_entrada) : str</text><ellipse cx="977.59" cy="1144.5222" fill="#84BE84" rx="3" ry="3" style="stroke:#038048;stroke-width:1;"/><text fill="#000000" font-family="sans-serif" font-size="14" lengthAdjust="spacing" textLength="287.1436" x="986.59" y="1147.8689">crear_funcion(funcion_entrada) : callable</text></g><!--link init to ecuaciones_una_variable--><g class="link" data-entity-1="init" data-entity-2="ecuaciones_una_variable" data-source-line="107" data-uid="lnk13" id="link_init_ecuaciones_una_variable"><path codeLine="107" d="M1166.32,430.9469 C1140,488.5869 1073.4219,634.4288 1028.8119,732.1388" fill="none" id="init-to-ecuaciones_una_variable" style="stroke:#181818;stroke-width:1;"/><polygon fill="#181818" points="1026.32,737.5969,1033.6966,731.0711,1028.3966,733.0485,1026.4192,727.7485,1026.32,737.5969" style="stroke:#181818;stroke-width:1;"/><text fill="#000000" font-family="sans-serif" font-size="13" lengthAdjust="spacing" textLength="122.0083" x="1082" y="622.2938">Inicializa la librer&#237;a</text></g><!--link init to diferenciacion_numerica_e_integracion--><g class="link" data-entity-1="init" data-entity-2="diferenciacion_numerica_e_integracion" data-source-line="108" data-uid="lnk14" id="link_init_diferenciacion_numerica_e_integracion"><path codeLine="108" d="M1177.31,430.8469 C1178.55,468.1769 1184.1,543.1269 1208,601.2269 C1208.91,603.4369 1221.2887,621.0572 1242.7387,651.0372" fill="none" id="init-to-diferenciacion_numerica_e_integracion" style="stroke:#181818;stroke-width:1;"/><polygon fill="#181818" points="1246.23,655.9169,1244.2462,646.2699,1243.3206,651.8505,1237.74,650.9249,1246.23,655.9169" style="stroke:#181818;stroke-width:1;"/><text fill="#000000" font-family="sans-serif" font-size="13" lengthAdjust="spacing" textLength="122.0083" x="1223" y="622.2938">Inicializa la librer&#237;a</text></g><!--link ecuaciones_una_variable to transformacion--><g class="link" data-entity-1="ecuaciones_una_variable" data-entity-2="transformacion" data-source-line="109" data-uid="lnk15" id="link_ecuaciones_una_variable_transformacion"><path codeLine="109" d="M996.23,916.4369 C1004.27,958.0169 1018.57,1006.6569 1044,1044.5769 C1051.41,1055.6269 1056.5965,1061.765 1066.9665,1070.525" fill="none" id="ecuaciones_una_variable-to-transformacion" style="stroke:#181818;stroke-width:1;"/><polygon fill="#181818" points="1071.55,1074.3969,1067.256,1065.5334,1067.7304,1071.1703,1062.0935,1071.6447,1071.55,1074.3969" style="stroke:#181818;stroke-width:1;"/><text fill="#000000" font-family="sans-serif" font-size="13" lengthAdjust="spacing" textLength="217.9976" x="1045" y="1040.6438">Transforma la funci&#243;n de entrada</text></g><!--link diferenciacion_numerica_e_integracion to transformacion--><g class="link" data-entity-1="diferenciacion_numerica_e_integracion" data-entity-2="transformacion" data-source-line="110" data-uid="lnk16" id="link_diferenciacion_numerica_e_integracion_transformacion"><path codeLine="110" d="M1302.57,997.9369 C1292.12,1014.7369 1280.3,1030.6869 1267,1044.5769 C1256.17,1055.8869 1248.197,1062.5675 1234.527,1070.9975" fill="none" id="diferenciacion_numerica_e_integracion-to-transformacion" style="stroke:#181818;stroke-width:1;"/><polygon fill="#181818" points="1229.42,1074.1469,1239.1801,1072.8275,1233.6758,1071.5224,1234.9809,1066.0181,1229.42,1074.1469" style="stroke:#181818;stroke-width:1;"/><text fill="#000000" font-family="sans-serif" font-size="13" lengthAdjust="spacing" textLength="217.9976" x="1280" y="1040.6438">Transforma la funci&#243;n de entrada</text></g><!--link setup to numath--><g class="link" data-entity-1="setup" data-entity-2="numath" data-source-line="113" data-uid="lnk17" id="link_setup_numath"><path codeLine="113" d="M1503.39,159.2769 C1525.61,179.5669 1549.38,206.2269 1562,235.8869 C1569.275,252.9819 1573.4538,271.9387 1575.6197,290.8058 C1576.7027,300.2393 1577.2824,309.6504 1577.4944,318.795 C1577.6004,323.3673 1577.6145,327.873 1577.5535,332.2816 C1577.523,334.4859 1577.6574,352.9656 1577.5915,355.1176" fill="none" id="setup-to-numath" style="stroke:#181818;stroke-width:1;"/><polygon fill="#181818" points="1577.4079,361.1148,1581.6814,352.2414,1577.5609,356.1171,1573.6852,351.9966,1577.4079,361.1148" style="stroke:#181818;stroke-width:1;"/><text fill="#000000" font-family="sans-serif" font-size="13" lengthAdjust="spacing" textLength="140.2324" x="1546" y="201.9538">Empaqueta la librer&#237;a</text></g><!--link __init__ to ecuaciones_una_variable_controller--><g class="link" data-entity-1="__init__" data-entity-2="ecuaciones_una_variable_controller" data-source-line="116" data-uid="lnk18" id="link___init___ecuaciones_una_variable_controller"><path codeLine="116" d="M289.66,151.0069 C282.62,162.7669 274.75,176.3269 268,188.8869 C245.7,230.4069 225.2537,271.9669 206.4637,311.5369" fill="none" id="__init__-to-ecuaciones_una_variable_controller" style="stroke:#181818;stroke-width:1;"/><polygon fill="#181818" points="203.89,316.9569,211.3639,310.5427,206.0347,312.4402,204.1372,307.1111,203.89,316.9569" style="stroke:#181818;stroke-width:1;"/><text fill="#000000" font-family="sans-serif" font-size="13" lengthAdjust="spacing" textLength="179.48" x="269" y="201.9538">Registra una solicitud POST</text></g><!--link __init__ to diferenciacion_numerica_e_integracion_controller--><g class="link" data-entity-1="__init__" data-entity-2="diferenciacion_numerica_e_integracion_controller" data-source-line="117" data-uid="lnk19" id="link___init___diferenciacion_numerica_e_integracion_controller"><path codeLine="117" d="M391.5,145.9169 C413.86,156.3469 436.44,170.3769 453,188.8869 C465.36,202.6969 472.986,213.3162 481.686,230.1562" fill="none" id="__init__-to-diferenciacion_numerica_e_integracion_controller" style="stroke:#181818;stroke-width:1;"/><polygon fill="#181818" points="484.44,235.4869,483.8628,225.6549,482.145,231.0447,476.7553,229.3269,484.44,235.4869" style="stroke:#181818;stroke-width:1;"/><text fill="#000000" font-family="sans-serif" font-size="13" lengthAdjust="spacing" textLength="179.48" x="465" y="201.9538">Registra una solicitud POST</text></g><!--link ecuaciones_una_variable_controller to ecuaciones_una_variable--><g class="link" data-entity-1="ecuaciones_una_variable_controller" data-entity-2="ecuaciones_una_variable" data-source-line="120" data-uid="lnk20" id="link_ecuaciones_una_variable_controller_ecuaciones_una_variable"><path codeLine="120" d="M219.28,496.1569 C246.48,532.9869 281.92,573.5269 322,601.2269 C471.54,704.5969 666.7824,762.5273 808.3524,793.9373" fill="none" id="ecuaciones_una_variable_controller-to-ecuaciones_una_variable" style="stroke:#181818;stroke-width:1;"/><polygon fill="#181818" points="814.21,795.2369,806.2901,789.3824,809.3287,794.1539,804.5573,797.1925,814.21,795.2369" style="stroke:#181818;stroke-width:1;"/><text fill="#000000" font-family="sans-serif" font-size="13" lengthAdjust="spacing" textLength="201.9697" x="355" y="622.2938">LLama a m&#233;todos de la librer&#237;a</text></g><!--link diferenciacion_numerica_e_integracion_controller to diferenciacion_numerica_e_integracion--><g class="link" data-entity-1="diferenciacion_numerica_e_integracion_controller" data-entity-2="diferenciacion_numerica_e_integracion" data-source-line="121" data-uid="lnk21" id="link_diferenciacion_numerica_e_integracion_controller_diferenciacion_numerica_e_integracion"><path codeLine="121" d="M719.05,553.8469 C745.2,570.9869 772.27,587.2969 799,601.2269 C948.77,679.2769 1020,589.1669 1175,656.2269 C1180.75,658.7169 1181.1256,658.6708 1186.7656,661.6008" fill="none" id="diferenciacion_numerica_e_integracion_controller-to-diferenciacion_numerica_e_integracion" style="stroke:#181818;stroke-width:1;"/><polygon fill="#181818" points="1192.09,664.3669,1185.9475,656.6682,1187.653,662.0618,1182.2594,663.7674,1192.09,664.3669" style="stroke:#181818;stroke-width:1;"/><text fill="#000000" font-family="sans-serif" font-size="13" lengthAdjust="spacing" textLength="201.9697" x="858" y="622.2938">LLama a m&#233;todos de la librer&#237;a</text></g><!--SRC=[hLZDRjiu4BxhAGQ-94KTRtvwoc61ehiB5CYsHPixGKiZcoX5gYILJRBmm-nn3tlg8_Z5TaZzMB8bcoaAf454VlFBcM_8Ek4amc-2hmmlE6G8xoItQE5EB0sQxNySFbG5Tsju3My_lK-IC_Xp-pshf0R6X1AEiKNv1DygX5Gh9r0XI0vvfLAn_QuWDSWTCbwMvw-IfEJfLxv2c96g6VoT0AHapNQgmXB0wxuKtC8V1FfAEnlwHpyx5tI9XgT2AxJUYqmh2i0YXP4BSWGbB6M5fH7AmHD8RG5LLchwj9rjJAj61QiKPm_S2BwKo7muHak9flLgAIocZg2irK8nXPrSF6B6mjB1diA_t8W8gU8Zw9nBYwJ9Yb53rc6Uex9ukBNMHg5X1Rgrpjh5el813B6RvAVdC1Cv6gGZ3ugOgWeq8kKCwLmThchzlOms2IKRHZnm9nwGkRL1h5DeMOg4vF8Wnac1fJRPVfnx-Dp_Ue7-FZv2VQL4BgW83Z1qq9HIreDEMf-6PjpnGtnJMgbsLBpgYgLqEdWATXq7kuc3lOc3NJ8gCtKwWXZKTHJgPWALwY9q5p8hYjAIWAaa7iFH0PJuh4L6vt0AMuXwQmH8RRVnzBaZLg6iuv9d71xyPodAMr21R7T4sQ7RhGjQuUPfvbkeGzLRDQE6vlPqIjry2- -LeAwKufbxMfQjjgvpFJ28DQmmmOP1rxiTmTkQuJsEl30SKXz6iVtNwKoVejQs-pi-FM-KpO7FOJc7-uztS_XmsQQtpwwKPCE7CkNbWKHJ2WqNZY7daFFKQTDhFK_7OnBbrQ570vQUXaEhVKVRHtpgu4CgfvmyTfORGf_oixmU-4e3qykTnH7qZnrobEf8mjy5z4W1hUDO_xJG2FM_J2ZMK3C4peckjUqVsoIpJ-WyFWaEzOzEWc5R7Pq6CT2RUEYRU6Wz6MAGLz78wsZapH7a-AJOvofrUc14Y0pcnYYU-3aGD2bNDjUcsBNi5xgbgPIRLRY_xm36KpxrBAgmqR-M-tKfFHbtVJnKtDvvWTgjA2L_vePrRD0wo49DPjpVqQqpRLHqUU_0Oz2UwKs8oQAhId_vj26IAc39MQBwnd6AhaJ7s_58KsxJEHwaEt-9g8YQ3NwhXC62D96tGb8A2jmr5maqm_lC4rukLfK90x8PoI59lvISdZKEuJm8EAsbNTIoYyNYLJVJp-0pocRE9RqlNj1TsT-NSv6kqT0Vex642NnnyUlKjAI4pIQc-6md7CN2HrLDcFVAzqg3jDntAuEoolpvXNEU9N4U_R3wvA1isWQWUWq7LzT_5s6RxxfSlDtksaGMVs-5zhBYBsmJpzdm0PIhkcfyfDvyUApIIydWIbXVnuCNL7XLYKoJmtilhwHx11yfXlwhbBp-tDhmNbWjwMXTbS6dZr_kPqDzBtsXdLBkyz9_2dQ1sSF8e7B25vmQEu_wPa6Pz0WJ-YNT_YDJUfhQ928B9phdxix_jqPtQsbxi7V2ByrCT3PZhFyF]--></g></svg>