<svg xmlns="http://www.w3.org/2000/svg" xmlns:xlink="http://www.w3.org/1999/xlink" contentStyleType="text/css" data-diagram-type="CLASS" height="616px" preserveAspectRatio="none" style="width:627px;height:616px;background:#FFFFFF;" version="1.1" viewBox="0 0 627 616" width="627px" zoomAndPan="magnify"><title>Diagrama de Objetos de la Operaci&#243;n Bisecci&#243;n</title><defs/><g><g class="title" data-source-line="1"><text fill="#000000" font-family="sans-serif" font-size="14" font-weight="bold" lengthAdjust="spacing" textLength="374.3906" x="119.3047" y="22.9951">Diagrama de Objetos de la Operaci&#243;n Bisecci&#243;n</text></g><!--cluster API--><g class="cluster" data-entity="API" data-source-line="3" data-uid="ent0002" id="cluster_API"><path d="M8.5,43.2969 L35.8047,43.2969 A3.75,3.75 0 0 1 38.3047,45.7969 L45.3047,65.5938 L539.5,65.5938 A2.5,2.5 0 0 1 542,68.0938 L542,257.9869 A2.5,2.5 0 0 1 539.5,260.4869 L8.5,260.4869 A2.5,2.5 0 0 1 6,257.9869 L6,45.7969 A2.5,2.5 0 0 1 8.5,43.2969" fill="none" style="stroke:#000000;stroke-width:1.5;"/><line style="stroke:#000000;stroke-width:1.5;" x1="6" x2="45.3047" y1="65.5938" y2="65.5938"/><text fill="#000000" font-family="sans-serif" font-size="14" font-weight="bold" lengthAdjust="spacing" textLength="26.3047" x="10" y="58.292">API</text></g><!--cluster Librer?a: numath-Libary--><g class="cluster" data-entity="Librer&#237;a: numath-Libary" data-source-line="13" data-uid="ent0005" id="cluster_Librer&#237;a: numath-Libary"><path d="M77.5,309.4869 L265.9209,309.4869 A3.75,3.75 0 0 1 268.4209,311.9869 L275.4209,331.7837 L617.5,331.7837 A2.5,2.5 0 0 1 620,334.2837 L620,607.4669 A2.5,2.5 0 0 1 617.5,609.9669 L77.5,609.9669 A2.5,2.5 0 0 1 75,607.4669 L75,311.9869 A2.5,2.5 0 0 1 77.5,309.4869" fill="none" style="stroke:#000000;stroke-width:1.5;"/><line style="stroke:#000000;stroke-width:1.5;" x1="75" x2="275.4209" y1="331.7837" y2="331.7837"/><text fill="#000000" font-family="sans-serif" font-size="14" font-weight="bold" lengthAdjust="spacing" textLength="187.4209" x="79" y="324.482">Librer&#237;a: numath-Libary</text></g><!--cluster numath--><g class="cluster" data-entity="numath" data-source-line="14" data-uid="ent0006" id="cluster_numath"><path d="M101.5,352.4869 L163.1279,352.4869 A3.75,3.75 0 0 1 165.6279,354.9869 L172.6279,374.7837 L593.5,374.7837 A2.5,2.5 0 0 1 596,377.2837 L596,583.4669 A2.5,2.5 0 0 1 593.5,585.9669 L101.5,585.9669 A2.5,2.5 0 0 1 99,583.4669 L99,354.9869 A2.5,2.5 0 0 1 101.5,352.4869" fill="none" style="stroke:#000000;stroke-width:1.5;"/><line style="stroke:#000000;stroke-width:1.5;" x1="99" x2="172.6279" y1="374.7837" y2="374.7837"/><text fill="#000000" font-family="sans-serif" font-size="14" font-weight="bold" lengthAdjust="spacing" textLength="60.6279" x="103" y="367.482">numath</text></g><g class="entity" data-entity="flask_app" data-source-line="4" data-uid="ent0003" id="entity_flask_app"><rect fill="#F1F1F1" height="44.5938" rx="2.5" ry="2.5" style="stroke:#181818;stroke-width:0.5;" width="150.5645" x="174.72" y="78.2969"/><text fill="#000000" font-family="sans-serif" font-size="14" lengthAdjust="spacing" textLength="117.8242" x="191.0901" y="93.292">flask_app : API_1</text><line style="stroke:#181818;stroke-width:0.5;" x1="175.72" x2="324.2845" y1="98.5938" y2="98.5938"/><text fill="#000000" font-family="sans-serif" font-size="14" lengthAdjust="spacing" textLength="138.5645" x="180.72" y="115.5889">create_app() : Flask</text></g><g class="entity" data-entity="operaciones" data-source-line="8" data-uid="ent0004" id="entity_operaciones"><rect fill="#F1F1F1" height="44.5938" rx="2.5" ry="2.5" style="stroke:#181818;stroke-width:0.5;" width="331.4775" x="66.26" y="199.8869"/><text fill="#000000" font-family="sans-serif" font-size="14" lengthAdjust="spacing" textLength="164.3564" x="149.8205" y="214.882">operaciones : bisecci&#243;n</text><line style="stroke:#181818;stroke-width:0.5;" x1="67.26" x2="396.7375" y1="220.1837" y2="220.1837"/><text fill="#000000" font-family="sans-serif" font-size="14" lengthAdjust="spacing" textLength="319.4775" x="72.26" y="237.1789">bisection_endpoint("x^2 - 4", 0, 3, 1e-5, 100)</text></g><g class="entity" data-entity="ecuaciones_una_variable" data-source-line="16" data-uid="ent0007" id="entity_ecuaciones_una_variable"><rect fill="#F1F1F1" height="44.5938" rx="2.5" ry="2.5" style="stroke:#181818;stroke-width:0.5;" width="323.4658" x="185.27" y="387.4869"/><text fill="#000000" font-family="sans-serif" font-size="14" lengthAdjust="spacing" textLength="254.5225" x="219.7417" y="402.482">ecuaciones_una_variable : bisecci&#243;n</text><line style="stroke:#181818;stroke-width:0.5;" x1="186.27" x2="507.7358" y1="407.7837" y2="407.7837"/><text fill="#000000" font-family="sans-serif" font-size="14" lengthAdjust="spacing" textLength="311.4658" x="191.27" y="424.7789">bisection_method("x^2 - 4", 0, 3, 1e-5, 100)</text></g><g class="entity" data-entity="transformacion" data-source-line="20" data-uid="ent0008" id="entity_transformacion"><rect fill="#F1F1F1" height="60.8906" rx="2.5" ry="2.5" style="stroke:#181818;stroke-width:0.5;" width="238.376" x="208.81" y="509.0769"/><text fill="#000000" font-family="sans-serif" font-size="14" lengthAdjust="spacing" textLength="224.376" x="215.81" y="524.072">transformacion : transformation</text><line style="stroke:#181818;stroke-width:0.5;" x1="209.81" x2="446.186" y1="529.3738" y2="529.3738"/><text fill="#000000" font-family="sans-serif" font-size="14" lengthAdjust="spacing" textLength="198.7686" x="214.81" y="546.3689">funcion_entrada = "x^2 - 4"</text><text fill="#000000" font-family="sans-serif" font-size="14" lengthAdjust="spacing" textLength="180.708" x="214.81" y="562.6657">crear_funcion() = x**2 - 4</text></g><!--link flask_app to operaciones--><g class="link" data-entity-1="flask_app" data-entity-2="operaciones" data-source-line="28" data-uid="lnk9" id="link_flask_app_operaciones"><path codeLine="28" d="M174.22,111.7669 C125.64,120.0269 68.96,133.5069 54,152.8869 C37.21,174.6369 50.02,189.4569 75,199.5669" fill="none" id="flask_app-operaciones" style="stroke:#181818;stroke-width:1;"/><polygon fill="#000000" points="55.2556,164.7668,63.9769,160.9736,60.0817,156.5717,55.2556,164.7668" style="stroke:#000000;stroke-width:1;"/><text fill="#000000" font-family="sans-serif" font-size="13" lengthAdjust="spacing" textLength="292.6714" x="68" y="165.9538">Registra una llamada de operacion bisecci&#243;n</text></g><!--link operaciones to flask_app--><g class="link" data-entity-1="operaciones" data-entity-2="flask_app" data-source-line="33" data-uid="lnk14" id="link_operaciones_flask_app"><path codeLine="33" d="M330.09,199.4269 C343.84,192.2269 356.25,182.6469 365,169.8869 C380.9,146.7169 356.07,130.1969 325.47,119.2069" fill="none" id="operaciones-flask_app" style="stroke:#181818;stroke-width:1;"/><polygon fill="#000000" points="373.7125,156.4616,371.2985,165.6607,377.1666,165.3227,373.7125,156.4616" style="stroke:#000000;stroke-width:1;"/><text fill="#000000" font-family="sans-serif" font-size="13" lengthAdjust="spacing" textLength="107.9863" x="383" y="165.9538">Env&#237;a Respuesta</text></g><!--link operaciones to ecuaciones_una_variable--><g class="link" data-entity-1="operaciones" data-entity-2="ecuaciones_una_variable" data-source-line="29" data-uid="lnk10" id="link_operaciones_ecuaciones_una_variable"><path codeLine="29" d="M159.67,244.8669 C134.97,256.3769 116.38,272.5269 129,293.4869 C157.66,341.0669 213.27,370.0369 261.15,387.0369" fill="none" id="operaciones-ecuaciones_una_variable" style="stroke:#181818;stroke-width:1;"/><polygon fill="#000000" points="136.9049,289.1229,134.042,280.0535,129.2579,283.4683,136.9049,289.1229" style="stroke:#000000;stroke-width:1;"/><text fill="#000000" font-family="sans-serif" font-size="13" lengthAdjust="spacing" textLength="260.0635" x="143" y="289.5538">LLama a m&#233;todo bisecci&#243;n de la librer&#237;a</text></g><!--link ecuaciones_una_variable to operaciones--><g class="link" data-entity-1="ecuaciones_una_variable" data-entity-2="operaciones" data-source-line="32" data-uid="lnk13" id="link_ecuaciones_una_variable_operaciones"><path codeLine="32" d="M370.3,387.1569 C397.05,359.6869 434.07,311.6169 408,276.4869 C397.92,262.8969 384.47,252.6469 369.47,244.9469" fill="none" id="ecuaciones_una_variable-operaciones" style="stroke:#181818;stroke-width:1;"/><polygon fill="#000000" points="419.9708,280.0534,417.0847,289.1154,422.9625,289.0811,419.9708,280.0534" style="stroke:#000000;stroke-width:1;"/><text fill="#000000" font-family="sans-serif" font-size="13" lengthAdjust="spacing" textLength="117" x="429" y="289.5538">Retorna resultado</text></g><!--link ecuaciones_una_variable to transformacion--><g class="link" data-entity-1="ecuaciones_una_variable" data-entity-2="transformacion" data-source-line="30" data-uid="lnk11" id="link_ecuaciones_una_variable_transformacion"><path codeLine="30" d="M211.79,432.5569 C181.97,440.1669 156.42,449.9369 147,462.0769 C121.8,494.5469 160.43,513.3969 208.38,524.2369" fill="none" id="ecuaciones_una_variable-transformacion" style="stroke:#181818;stroke-width:1;"/><polygon fill="#000000" points="151.8142,475.6398,155.0872,466.7102,149.2135,466.4918,151.8142,475.6398" style="stroke:#000000;stroke-width:1;"/><text fill="#000000" font-family="sans-serif" font-size="13" lengthAdjust="spacing" textLength="217.9976" x="161" y="475.1438">Transforma la funci&#243;n de entrada</text></g><!--link transformacion to ecuaciones_una_variable--><g class="link" data-entity-1="transformacion" data-entity-2="ecuaciones_una_variable" data-source-line="31" data-uid="lnk12" id="link_transformacion_ecuaciones_una_variable"><path codeLine="31" d="M363.57,508.6569 C371.47,500.0069 378.74,489.9469 383,479.0769 C389.35,462.8469 379.97,445.4969 369.2,432.3369" fill="none" id="transformacion-ecuaciones_una_variable" style="stroke:#181818;stroke-width:1;"/><polygon fill="#000000" points="390.3678,465.6568,386.7714,474.4612,392.6334,474.8936,390.3678,465.6568" style="stroke:#000000;stroke-width:1;"/><text fill="#000000" font-family="sans-serif" font-size="13" lengthAdjust="spacing" textLength="143.1841" x="399" y="475.1438">Funci&#243;n transformada</text></g><!--SRC=[XLDDIyD04BtdLmnxKccWzUDIgA1eGIXKnBDXaapRs6Gtx6wa8luW3vxy2VrZpcxQT6cf7h8iCs_VctapiOKj2UuAd6ki47A2QVfALXbtBH6cDMdCYlMFXDl2KEQlKLHZjiGvWRXvV13m4G4eVfPP4BCIpJB1keOXS38P2403kwZ30cIQq98Bd9moSEpIdFZaB-1IhRYIP1YKTlgUCaosf1vWEPAGp6jLI7iYLY_d4CEbw46_1nSz651ynMU_V-hbFeDM9aMgIQ-_SGYogT0kOewWVXUElKErATTpK2XbpQQKf96OlA4kC6LV3ue-1jnle2AxKFc_vGSbM8tIp9IkF3yhxmAEqQllOLhHMIEprZDEvmWZw5IxKUbaW-9fZM1rTkRpsu5v6tSJZkDmDaCGJpGl39C3jmnboNkM-qthK85BS2sYSB9CTjnSCPcufKMerbzMvIhaQTUttCxKyHuXOea3yyHp5t4qlliDwzOd9jnxzdUjuot7xbN-LrbxFe8tqYhD7ceoJMcH6pvqA_p_nBrySxq_aQaRCjR9_G80]--></g></svg>