<svg xmlns="http://www.w3.org/2000/svg" xmlns:xlink="http://www.w3.org/1999/xlink" contentStyleType="text/css" data-diagram-type="STATE" height="371px" preserveAspectRatio="none" style="width:1821px;height:371px;background:#FFFFFF;" version="1.1" viewBox="0 0 1821 371" width="1821px" zoomAndPan="magnify"><title>Detalle Caso de Uso Listar Operaciones</title><defs/><g><g class="title" data-source-line="12"><text fill="#000000" font-family="sans-serif" font-size="14" font-weight="bold" lengthAdjust="spacing" textLength="310.6045" x="748.4878" y="22.9951">Detalle Caso de Uso Listar Operaciones</text></g><g id="ESTADO_PRINCIPAL"><rect fill="#FAF4B4" height="50" rx="12.5" ry="12.5" style="stroke:#C90000;stroke-width:0.5;" width="157.1563" x="7" y="44.2969"/><line style="stroke:#C90000;stroke-width:0.5;" x1="7" x2="164.1563" y1="70.5938" y2="70.5938"/><text fill="#000000" font-family="sans-serif" font-size="14" lengthAdjust="spacing" textLength="137.1563" x="17" y="62.292">ESTADO_PRINCIPAL</text></g><g id=":listar_operaciones"><rect fill="#FAF4B4" height="50" rx="12.5" ry="12.5" style="stroke:#C90000;stroke-width:0.5;" width="151.9473" x="813.6" y="204.2969"/><line style="stroke:#C90000;stroke-width:0.5;" x1="813.6" x2="965.5473" y1="230.5938" y2="230.5938"/><text fill="#000000" font-family="sans-serif" font-size="14" lengthAdjust="spacing" textLength="131.9473" x="823.6" y="222.292">:listar_operaciones</text></g><g id="BISECCION"><rect fill="#FAF4B4" height="50" rx="12.5" ry="12.5" style="stroke:#C90000;stroke-width:0.5;" width="96.6377" x="238.26" y="44.2969"/><line style="stroke:#C90000;stroke-width:0.5;" x1="238.26" x2="334.8977" y1="70.5938" y2="70.5938"/><text fill="#000000" font-family="sans-serif" font-size="14" lengthAdjust="spacing" textLength="76.6377" x="248.26" y="62.292">BISECCION</text></g><g id="PUNTO_FIJO"><rect fill="#FAF4B4" height="50" rx="12.5" ry="12.5" style="stroke:#C90000;stroke-width:0.5;" width="103.0635" x="436.05" y="44.2969"/><line style="stroke:#C90000;stroke-width:0.5;" x1="436.05" x2="539.1135" y1="70.5938" y2="70.5938"/><text fill="#000000" font-family="sans-serif" font-size="14" lengthAdjust="spacing" textLength="83.0635" x="446.05" y="62.292">PUNTO_FIJO</text></g><g id="NEWTON"><rect fill="#FAF4B4" height="50" rx="12.5" ry="12.5" style="stroke:#C90000;stroke-width:0.5;" width="83.2051" x="646.98" y="44.2969"/><line style="stroke:#C90000;stroke-width:0.5;" x1="646.98" x2="730.1851" y1="70.5938" y2="70.5938"/><text fill="#000000" font-family="sans-serif" font-size="14" lengthAdjust="spacing" textLength="63.2051" x="656.98" y="62.292">NEWTON</text></g><g id="SECANTE"><rect fill="#FAF4B4" height="50" rx="12.5" ry="12.5" style="stroke:#C90000;stroke-width:0.5;" width="84.9551" x="847.1" y="44.2969"/><line style="stroke:#C90000;stroke-width:0.5;" x1="847.1" x2="932.0551" y1="70.5938" y2="70.5938"/><text fill="#000000" font-family="sans-serif" font-size="14" lengthAdjust="spacing" textLength="64.9551" x="857.1" y="62.292">SECANTE</text></g><g id="FALSA_POSICION"><rect fill="#FAF4B4" height="50" rx="12.5" ry="12.5" style="stroke:#C90000;stroke-width:0.5;" width="138.7676" x="1021.19" y="44.2969"/><line style="stroke:#C90000;stroke-width:0.5;" x1="1021.19" x2="1159.9576" y1="70.5938" y2="70.5938"/><text fill="#000000" font-family="sans-serif" font-size="14" lengthAdjust="spacing" textLength="118.7676" x="1031.19" y="62.292">FALSA_POSICION</text></g><g id="STEFFENSEN"><rect fill="#FAF4B4" height="50" rx="12.5" ry="12.5" style="stroke:#C90000;stroke-width:0.5;" width="109.9131" x="1236.62" y="44.2969"/><line style="stroke:#C90000;stroke-width:0.5;" x1="1236.62" x2="1346.5331" y1="70.5938" y2="70.5938"/><text fill="#000000" font-family="sans-serif" font-size="14" lengthAdjust="spacing" textLength="89.9131" x="1246.62" y="62.292">STEFFENSEN</text></g><g id="HORNER"><rect fill="#FAF4B4" height="50" rx="12.5" ry="12.5" style="stroke:#C90000;stroke-width:0.5;" width="80.3203" x="1452.42" y="44.2969"/><line style="stroke:#C90000;stroke-width:0.5;" x1="1452.42" x2="1532.7403" y1="70.5938" y2="70.5938"/><text fill="#000000" font-family="sans-serif" font-size="14" lengthAdjust="spacing" textLength="60.3203" x="1462.42" y="62.292">HORNER</text></g><g id="M&#220;LLER"><rect fill="#FAF4B4" height="50" rx="12.5" ry="12.5" style="stroke:#C90000;stroke-width:0.5;" width="76.499" x="1655.33" y="44.2969"/><line style="stroke:#C90000;stroke-width:0.5;" x1="1655.33" x2="1731.829" y1="70.5938" y2="70.5938"/><text fill="#000000" font-family="sans-serif" font-size="14" lengthAdjust="spacing" textLength="56.499" x="1665.33" y="62.292">M&#220;LLER</text></g><g id="ECUACIONES_UNA_VARIABLE"><rect fill="#FAF4B4" height="50" rx="12.5" ry="12.5" style="stroke:#C90000;stroke-width:0.5;" width="224.709" x="777.22" y="315.2969"/><line style="stroke:#C90000;stroke-width:0.5;" x1="777.22" x2="1001.929" y1="341.5938" y2="341.5938"/><text fill="#000000" font-family="sans-serif" font-size="14" lengthAdjust="spacing" textLength="204.709" x="787.22" y="333.292">ECUACIONES_UNA_VARIABLE</text></g><!--link ESTADO_PRINCIPAL to :listar_operaciones--><g class="link" data-entity-1="ESTADO_PRINCIPAL" data-entity-2=":listar_operaciones" data-source-line="15" data-uid="lnk4" id="link_ESTADO_PRINCIPAL_:listar_operaciones"><path d="M100.35,94.6769 C118.97,125.4169 148.58,174.2969 148.58,174.2969 C148.58,174.2969 618.3359,208.5308 807.4359,222.3108" fill="none" id="ESTADO_PRINCIPAL-to-:listar_operaciones" style="stroke:#008000;stroke-width:1;"/><polygon fill="#008000" points="813.42,222.7469,804.7345,218.1033,808.4332,222.3835,804.1531,226.0822,813.42,222.7469" style="stroke:#008000;stroke-width:1;"/><path d="M153.58,129.2969 L153.58,169.2969 L304.58,169.2969 L304.58,139.2969 L294.58,129.2969 L153.58,129.2969" fill="#F5F5F5" style="stroke:#181818;stroke-width:0.5;"/><path d="M294.58,129.2969 L294.58,139.2969 L304.58,139.2969 L294.58,129.2969" fill="#F5F5F5" style="stroke:#181818;stroke-width:0.5;"/><text fill="#000000" font-family="sans-serif" font-size="13" font-weight="bold" lengthAdjust="spacing" textLength="130.9648" x="159.58" y="146.3638">Sisteme requiere:</text><text fill="#000000" font-family="sans-serif" font-size="13" lengthAdjust="spacing" textLength="130.5078" x="159.58" y="161.4966">- Listar Operaciones</text></g><!--link BISECCION to :listar_operaciones--><g class="link" data-entity-1="BISECCION" data-entity-2=":listar_operaciones" data-source-line="21" data-uid="lnk6" id="link_BISECCION_:listar_operaciones"><path d="M299.94,94.6769 C316.79,125.4169 343.58,174.2969 343.58,174.2969 C343.58,174.2969 657.2591,205.3163 807.3991,220.1663" fill="none" id="BISECCION-to-:listar_operaciones" style="stroke:#008000;stroke-width:1;"/><polygon fill="#008000" points="813.37,220.7569,804.8074,215.8905,808.3943,220.2647,804.02,223.8516,813.37,220.7569" style="stroke:#008000;stroke-width:1;"/><path d="M348.58,129.2969 L348.58,169.2969 L499.58,169.2969 L499.58,139.2969 L489.58,129.2969 L348.58,129.2969" fill="#F5F5F5" style="stroke:#181818;stroke-width:0.5;"/><path d="M489.58,129.2969 L489.58,139.2969 L499.58,139.2969 L489.58,129.2969" fill="#F5F5F5" style="stroke:#181818;stroke-width:0.5;"/><text fill="#000000" font-family="sans-serif" font-size="13" font-weight="bold" lengthAdjust="spacing" textLength="130.9204" x="354.58" y="146.3638">Sistema requiere:</text><text fill="#000000" font-family="sans-serif" font-size="13" lengthAdjust="spacing" textLength="130.5078" x="354.58" y="161.4966">- Listar Operaciones</text></g><!--link PUNTO_FIJO to :listar_operaciones--><g class="link" data-entity-1="PUNTO_FIJO" data-entity-2=":listar_operaciones" data-source-line="27" data-uid="lnk8" id="link_PUNTO_FIJO_:listar_operaciones"><path d="M498.6,94.6769 C512.49,125.4169 534.58,174.2969 534.58,174.2969 C534.58,174.2969 703.1783,199.9444 807.4883,215.8144" fill="none" id="PUNTO_FIJO-to-:listar_operaciones" style="stroke:#008000;stroke-width:1;"/><polygon fill="#008000" points="813.42,216.7169,805.124,211.4087,808.4769,215.9648,803.9207,219.3177,813.42,216.7169" style="stroke:#008000;stroke-width:1;"/><path d="M539.58,129.2969 L539.58,169.2969 L690.58,169.2969 L690.58,139.2969 L680.58,129.2969 L539.58,129.2969" fill="#F5F5F5" style="stroke:#181818;stroke-width:0.5;"/><path d="M680.58,129.2969 L680.58,139.2969 L690.58,139.2969 L680.58,129.2969" fill="#F5F5F5" style="stroke:#181818;stroke-width:0.5;"/><text fill="#000000" font-family="sans-serif" font-size="13" font-weight="bold" lengthAdjust="spacing" textLength="130.9204" x="545.58" y="146.3638">Sistema requiere:</text><text fill="#000000" font-family="sans-serif" font-size="13" lengthAdjust="spacing" textLength="130.5078" x="545.58" y="161.4966">- Listar Operaciones</text></g><!--link NEWTON to :listar_operaciones--><g class="link" data-entity-1="NEWTON" data-entity-2=":listar_operaciones" data-source-line="33" data-uid="lnk10" id="link_NEWTON_:listar_operaciones"><path d="M695.38,94.6769 C703.95,125.4169 717.58,174.2969 717.58,174.2969 C717.58,174.2969 761.4755,188.0796 807.4055,202.4996" fill="none" id="NEWTON-to-:listar_operaciones" style="stroke:#008000;stroke-width:1;"/><polygon fill="#008000" points="813.13,204.2969,805.7414,197.7847,808.3596,202.7992,803.3451,205.4173,813.13,204.2969" style="stroke:#008000;stroke-width:1;"/><path d="M722.58,129.2969 L722.58,169.2969 L873.58,169.2969 L873.58,139.2969 L863.58,129.2969 L722.58,129.2969" fill="#F5F5F5" style="stroke:#181818;stroke-width:0.5;"/><path d="M863.58,129.2969 L863.58,139.2969 L873.58,139.2969 L863.58,129.2969" fill="#F5F5F5" style="stroke:#181818;stroke-width:0.5;"/><text fill="#000000" font-family="sans-serif" font-size="13" font-weight="bold" lengthAdjust="spacing" textLength="130.9204" x="728.58" y="146.3638">Sistema requiere:</text><text fill="#000000" font-family="sans-serif" font-size="13" lengthAdjust="spacing" textLength="130.5078" x="728.58" y="161.4966">- Listar Operaciones</text></g><!--link SECANTE to :listar_operaciones--><g class="link" data-entity-1="SECANTE" data-entity-2=":listar_operaciones" data-source-line="39" data-uid="lnk12" id="link_SECANTE_:listar_operaciones"><path d="M888.22,94.7669 C887.42,109.0569 886.58,124.2969 886.58,124.2969 C886.58,124.2969 886.58,174.2969 886.58,174.2969 C886.58,174.2969 887.0846,183.5463 887.8846,197.8363" fill="none" id="SECANTE-to-:listar_operaciones" style="stroke:#008000;stroke-width:1;"/><polygon fill="#008000" points="888.22,203.8269,891.7107,194.6174,887.9405,198.8347,883.7232,195.0645,888.22,203.8269" style="stroke:#008000;stroke-width:1;"/><path d="M891.58,129.2969 L891.58,169.2969 L1042.58,169.2969 L1042.58,139.2969 L1032.58,129.2969 L891.58,129.2969" fill="#F5F5F5" style="stroke:#181818;stroke-width:0.5;"/><path d="M1032.58,129.2969 L1032.58,139.2969 L1042.58,139.2969 L1032.58,129.2969" fill="#F5F5F5" style="stroke:#181818;stroke-width:0.5;"/><text fill="#000000" font-family="sans-serif" font-size="13" font-weight="bold" lengthAdjust="spacing" textLength="130.9204" x="897.58" y="146.3638">Sistema requiere:</text><text fill="#000000" font-family="sans-serif" font-size="13" lengthAdjust="spacing" textLength="130.5078" x="897.58" y="161.4966">- Listar Operaciones</text></g><!--link FALSA_POSICION to :listar_operaciones--><g class="link" data-entity-1="FALSA_POSICION" data-entity-2=":listar_operaciones" data-source-line="45" data-uid="lnk14" id="link_FALSA_POSICION_:listar_operaciones"><path d="M1081.43,94.6769 C1069.91,125.4169 1051.58,174.2969 1051.58,174.2969 C1051.58,174.2969 1011.5521,187.6395 968.6821,201.9295" fill="none" id="FALSA_POSICION-to-:listar_operaciones" style="stroke:#008000;stroke-width:1;"/><polygon fill="#008000" points="962.99,203.8269,972.7931,204.7756,967.7334,202.2457,970.2632,197.1861,962.99,203.8269" style="stroke:#008000;stroke-width:1;"/><path d="M1074.58,129.2969 L1074.58,169.2969 L1225.58,169.2969 L1225.58,139.2969 L1215.58,129.2969 L1074.58,129.2969" fill="#F5F5F5" style="stroke:#181818;stroke-width:0.5;"/><path d="M1215.58,129.2969 L1215.58,139.2969 L1225.58,139.2969 L1215.58,129.2969" fill="#F5F5F5" style="stroke:#181818;stroke-width:0.5;"/><text fill="#000000" font-family="sans-serif" font-size="13" font-weight="bold" lengthAdjust="spacing" textLength="130.9204" x="1080.58" y="146.3638">Sistema requiere:</text><text fill="#000000" font-family="sans-serif" font-size="13" lengthAdjust="spacing" textLength="130.5078" x="1080.58" y="161.4966">- Listar Operaciones</text></g><!--link STEFFENSEN to :listar_operaciones--><g class="link" data-entity-1="STEFFENSEN" data-entity-2=":listar_operaciones" data-source-line="51" data-uid="lnk16" id="link_STEFFENSEN_:listar_operaciones"><path d="M1279.15,94.6769 C1263.49,125.4169 1238.58,174.2969 1238.58,174.2969 C1238.58,174.2969 1074.3594,199.7094 971.6694,215.5994" fill="none" id="STEFFENSEN-to-:listar_operaciones" style="stroke:#008000;stroke-width:1;"/><polygon fill="#008000" points="965.74,216.5169,975.2458,219.0936,970.6812,215.7523,974.0225,211.1877,965.74,216.5169" style="stroke:#008000;stroke-width:1;"/><path d="M1267.58,129.2969 L1267.58,169.2969 L1418.58,169.2969 L1418.58,139.2969 L1408.58,129.2969 L1267.58,129.2969" fill="#F5F5F5" style="stroke:#181818;stroke-width:0.5;"/><path d="M1408.58,129.2969 L1408.58,139.2969 L1418.58,139.2969 L1408.58,129.2969" fill="#F5F5F5" style="stroke:#181818;stroke-width:0.5;"/><text fill="#000000" font-family="sans-serif" font-size="13" font-weight="bold" lengthAdjust="spacing" textLength="130.9204" x="1273.58" y="146.3638">Sistema requiere:</text><text fill="#000000" font-family="sans-serif" font-size="13" lengthAdjust="spacing" textLength="130.5078" x="1273.58" y="161.4966">- Listar Operaciones</text></g><!--link HORNER to :listar_operaciones--><g class="link" data-entity-1="HORNER" data-entity-2=":listar_operaciones" data-source-line="57" data-uid="lnk18" id="link_HORNER_:listar_operaciones"><path d="M1478.28,94.6769 C1460.25,125.4169 1431.58,174.2969 1431.58,174.2969 C1431.58,174.2969 1121.0504,205.2318 971.7704,220.1118" fill="none" id="HORNER-to-:listar_operaciones" style="stroke:#008000;stroke-width:1;"/><polygon fill="#008000" points="965.8,220.7069,975.1524,223.7945,970.7753,220.2109,974.3589,215.8339,965.8,220.7069" style="stroke:#008000;stroke-width:1;"/><path d="M1464.58,129.2969 L1464.58,169.2969 L1615.58,169.2969 L1615.58,139.2969 L1605.58,129.2969 L1464.58,129.2969" fill="#F5F5F5" style="stroke:#181818;stroke-width:0.5;"/><path d="M1605.58,129.2969 L1605.58,139.2969 L1615.58,139.2969 L1605.58,129.2969" fill="#F5F5F5" style="stroke:#181818;stroke-width:0.5;"/><text fill="#000000" font-family="sans-serif" font-size="13" font-weight="bold" lengthAdjust="spacing" textLength="130.9204" x="1470.58" y="146.3638">Sistema requiere:</text><text fill="#000000" font-family="sans-serif" font-size="13" lengthAdjust="spacing" textLength="130.5078" x="1470.58" y="161.4966">- Listar Operaciones</text></g><!--link M?LLER to :listar_operaciones--><g class="link" data-entity-1="M&#220;LLER" data-entity-2=":listar_operaciones" data-source-line="63" data-uid="lnk20" id="link_M&#220;LLER_:listar_operaciones"><path d="M1678.34,94.6769 C1659.13,125.4169 1628.58,174.2969 1628.58,174.2969 C1628.58,174.2969 1160.6741,208.4898 971.8641,222.2798" fill="none" id="M&#220;LLER-to-:listar_operaciones" style="stroke:#008000;stroke-width:1;"/><polygon fill="#008000" points="965.88,222.7169,975.1475,226.0507,970.8667,222.3527,974.5647,218.0719,965.88,222.7169" style="stroke:#008000;stroke-width:1;"/><path d="M1663.58,129.2969 L1663.58,169.2969 L1814.58,169.2969 L1814.58,139.2969 L1804.58,129.2969 L1663.58,129.2969" fill="#F5F5F5" style="stroke:#181818;stroke-width:0.5;"/><path d="M1804.58,129.2969 L1804.58,139.2969 L1814.58,139.2969 L1804.58,129.2969" fill="#F5F5F5" style="stroke:#181818;stroke-width:0.5;"/><text fill="#000000" font-family="sans-serif" font-size="13" font-weight="bold" lengthAdjust="spacing" textLength="130.9204" x="1669.58" y="146.3638">Sistema requiere:</text><text fill="#000000" font-family="sans-serif" font-size="13" lengthAdjust="spacing" textLength="130.5078" x="1669.58" y="161.4966">- Listar Operaciones</text></g><!--link :listar_operaciones to ECUACIONES_UNA_VARIABLE--><g class="link" data-entity-1=":listar_operaciones" data-entity-2="ECUACIONES_UNA_VARIABLE" data-source-line="70" data-uid="lnk22" id="link_:listar_operaciones_ECUACIONES_UNA_VARIABLE"><path d="M889.58,254.7569 C889.58,272.7069 889.58,290.9869 889.58,308.9169" fill="none" id=":listar_operaciones-to-ECUACIONES_UNA_VARIABLE" style="stroke:#008000;stroke-width:1;"/><polygon fill="#008000" points="889.58,314.9169,893.58,305.9169,889.58,309.9169,885.58,305.9169,889.58,314.9169" style="stroke:#008000;stroke-width:1;"/></g><!--SRC=[lP71IiGm48RlUOh0tWe53-l1FGXfDyL8JKhJwa6an7PsAUqcDUqU5l5DV1jVp7GHMM4zw279OPZ9pF_DPCQkrOEoQeV7IKs0Nn76aQgxhJLxtSIcDnOlDcgpV5xEByOsOB-YzTM5E-WDeV5RH9jVDIxd-pExRpLCXm7mOFh3x20qjLCFU0sJwfsDrMXm0xXq9crTXnQB0QogMwDXH0XHMP2rgBASyPXb90qV5riBe9_2QxpgZnMLEQauzcVqJEvSbq4WNGxi05jusRTWOHK4BXwUeu5kZlCX5359uvW9_a-S-XikAtaXgeJT2ZyyJXyANxEvZoIye7vW2KabgJ8XcR_boO8c2UMIUkBTY9pJt0_hxkCzJNt1q1dfKpADIpAlbSggvAIw9paZKKe_0G00]--></g></svg>