<svg xmlns="http://www.w3.org/2000/svg" xmlns:xlink="http://www.w3.org/1999/xlink" contentStyleType="text/css" data-diagram-type="STATE" height="1007px" preserveAspectRatio="none" style="width:933px;height:1007px;background:#FFFFFF;" version="1.1" viewBox="0 0 933 1007" width="933px" zoomAndPan="magnify"><title>Detalle Caso de Uso Crear Operaci&#243;n Punto Medio de 3 Puntos</title><defs/><g><g class="title" data-source-line="12"><text fill="#000000" font-family="sans-serif" font-size="14" font-weight="bold" lengthAdjust="spacing" textLength="493.541" x="212.7295" y="22.9951">Detalle Caso de Uso Crear Operaci&#243;n Punto Medio de 3 Puntos</text></g><path d="M19.5,234.2969 L414.5,234.2969 A12.5,12.5 0 0 1 427,246.7969 L427,260.5938 L7,260.5938 L7,246.7969 A12.5,12.5 0 0 1 19.5,234.2969" fill="#FAF4B4" style="stroke:#FAF4B4;stroke-width:1;"/><rect fill="none" height="545.2969" rx="12.5" ry="12.5" style="stroke:#C90000;stroke-width:0.5;" width="420" x="7" y="234.2969"/><line style="stroke:#C90000;stroke-width:0.5;" x1="7" x2="427" y1="260.5938" y2="260.5938"/><text fill="#000000" font-family="sans-serif" font-size="14" lengthAdjust="spacing" textLength="264.2705" x="84.8647" y="252.292">crear_punto_medio_3_puntos_funcion</text><g id="crear_punto_medio_3_puntos_funcion.1"><rect fill="#FAF4B4" height="50" rx="12.5" ry="12.5" style="stroke:#C90000;stroke-width:0.5;" width="50" x="158" y="328.5938"/><line style="stroke:#C90000;stroke-width:0.5;" x1="158" x2="208" y1="354.8906" y2="354.8906"/><text fill="#000000" font-family="sans-serif" font-size="14" lengthAdjust="spacing" textLength="4.4502" x="180.7749" y="346.5889">&#160;</text></g><g id="crear_punto_medio_3_puntos_funcion.2"><rect fill="#FAF4B4" height="50" rx="12.5" ry="12.5" style="stroke:#C90000;stroke-width:0.5;" width="50" x="19" y="494.5938"/><line style="stroke:#C90000;stroke-width:0.5;" x1="19" x2="69" y1="520.8906" y2="520.8906"/><text fill="#000000" font-family="sans-serif" font-size="14" lengthAdjust="spacing" textLength="4.4502" x="41.7749" y="512.5889">&#160;</text></g><g id="crear_punto_medio_3_puntos_funcion.3"><rect fill="#FAF4B4" height="50" rx="12.5" ry="12.5" style="stroke:#C90000;stroke-width:0.5;" width="50" x="152" y="660.5938"/><line style="stroke:#C90000;stroke-width:0.5;" x1="152" x2="202" y1="686.8906" y2="686.8906"/><text fill="#000000" font-family="sans-serif" font-size="14" lengthAdjust="spacing" textLength="4.4502" x="174.7749" y="678.5889">&#160;</text></g><ellipse cx="183" cy="281.5938" fill="#222222" rx="10" ry="10" style="stroke:#222222;stroke-width:1;"/><ellipse cx="177" cy="758.5938" fill="none" rx="11" ry="11" style="stroke:#222222;stroke-width:1;"/><ellipse cx="177" cy="758.5938" fill="#222222" rx="6" ry="6" style="stroke:#222222;stroke-width:1;"/><!--link *start*crear_punto_medio_3_puntos_funcion to 1--><g class="link" data-entity-1="*start*crear_punto_medio_3_puntos_funcion" data-entity-2="1" data-source-line="35" data-uid="lnk6" id="link_*start*crear_punto_medio_3_puntos_funcion_1"><path d="M183,292.0338 C183,301.2938 183,309.7838 183,322.2738" fill="none" id="*start*crear_punto_medio_3_puntos_funcion-to-1" style="stroke:#008000;stroke-width:1;"/><polygon fill="#008000" points="183,328.2738,187,319.2738,183,323.2738,179,319.2738,183,328.2738" style="stroke:#008000;stroke-width:1;"/></g><!--link 1 to 2--><g class="link" data-entity-1="1" data-entity-2="2" data-source-line="36" data-uid="lnk7" id="link_1_2"><path d="M157.5,363.0938 C120.68,375.3638 57,396.5938 57,396.5938 C57,396.5938 51.0252,452.6275 47.2352,488.2275" fill="none" id="1-to-2" style="stroke:#008000;stroke-width:1;"/><polygon fill="#008000" points="46.6,494.1938,51.5303,485.6678,47.1293,489.2218,43.5752,484.8209,46.6,494.1938" style="stroke:#008000;stroke-width:1;"/><path d="M62,401.5938 L62,471.5938 L303,471.5938 L303,411.5938 L293,401.5938 L62,401.5938" fill="#F5F5F5" style="stroke:#181818;stroke-width:0.5;"/><path d="M293,401.5938 L293,411.5938 L303,411.5938 L293,401.5938" fill="#F5F5F5" style="stroke:#181818;stroke-width:0.5;"/><text fill="#000000" font-family="sans-serif" font-size="13" font-weight="bold" lengthAdjust="spacing" textLength="220.5874" x="68" y="418.6606">Sistema requiere Par&#225;metros:</text><text fill="#000000" font-family="sans-serif" font-size="13" lengthAdjust="spacing" textLength="56.8306" x="68" y="433.7935">- funcion</text><text fill="#000000" font-family="sans-serif" font-size="13" lengthAdjust="spacing" textLength="24.7876" x="68" y="448.9263">- x0</text><text fill="#000000" font-family="sans-serif" font-size="13" lengthAdjust="spacing" textLength="17.0625" x="68" y="464.0591">- h</text></g><!--link 2 to 3--><g class="link" data-entity-1="2" data-entity-2="3" data-source-line="43" data-uid="lnk8" id="link_2_3"><path d="M37.6,545.0238 C35.18,554.2638 33,562.5938 33,562.5938 C33,562.5938 33,642.5938 33,642.5938 C33,642.5938 104.4901,663.4434 145.8301,675.5034" fill="none" id="2-to-3" style="stroke:#008000;stroke-width:1;"/><polygon fill="#008000" points="151.59,677.1838,144.0704,670.8233,146.7901,675.7835,141.8299,678.5032,151.59,677.1838" style="stroke:#008000;stroke-width:1;"/><path d="M38,567.5938 L38,637.5938 L303,637.5938 L303,577.5938 L293,567.5938 L38,567.5938" fill="#F5F5F5" style="stroke:#181818;stroke-width:0.5;"/><path d="M293,567.5938 L293,577.5938 L303,577.5938 L293,567.5938" fill="#F5F5F5" style="stroke:#181818;stroke-width:0.5;"/><text fill="#000000" font-family="sans-serif" font-size="13" font-weight="bold" lengthAdjust="spacing" textLength="244.1499" x="44" y="584.6606">Usuario Proporciona Par&#225;metros:</text><text fill="#000000" font-family="sans-serif" font-size="13" lengthAdjust="spacing" textLength="56.8306" x="52.2646" y="599.7935">- funcion</text><text fill="#000000" font-family="sans-serif" font-size="13" lengthAdjust="spacing" textLength="24.7876" x="52.2646" y="614.9263">- x0</text><text fill="#000000" font-family="sans-serif" font-size="13" lengthAdjust="spacing" textLength="17.0625" x="52.2646" y="630.0591">- h</text></g><!--link 3 to 1--><g class="link" data-entity-1="3" data-entity-2="1" data-source-line="50" data-uid="lnk9" id="link_3_1"><path d="M202.26,676.4938 C240.33,664.2938 308,642.5938 308,642.5938 C308,642.5938 308,396.5938 308,396.5938 C308,396.5938 250.5076,377.2747 213.9876,365.0047" fill="none" id="3-to-1" style="stroke:#FF0000;stroke-width:1;"/><polygon fill="#FF0000" points="208.3,363.0938,215.5574,369.7518,213.0396,364.6862,218.1053,362.1684,208.3,363.0938" style="stroke:#FF0000;stroke-width:1;"/><path d="M313,499.5938 L313,539.5938 L418,539.5938 L418,509.5938 L408,499.5938 L313,499.5938" fill="#F5F5F5" style="stroke:#181818;stroke-width:0.5;"/><path d="M408,499.5938 L408,509.5938 L418,509.5938 L408,499.5938" fill="#F5F5F5" style="stroke:#181818;stroke-width:0.5;"/><text fill="#000000" font-family="sans-serif" font-size="13" lengthAdjust="spacing" textLength="80.0186" x="319" y="516.6606">[Par&#225;metros</text><text fill="#000000" font-family="sans-serif" font-size="13" lengthAdjust="spacing" textLength="63.0068" x="327.2646" y="531.7935">Inv&#225;lidos]</text></g><!--link 3 to *end*crear_punto_medio_3_puntos_funcion--><g class="link" data-entity-1="3" data-entity-2="*end*crear_punto_medio_3_puntos_funcion" data-source-line="55" data-uid="lnk11" id="link_3_*end*crear_punto_medio_3_puntos_funcion"><path d="M177,711.0238 C177,723.3838 177,731.7238 177,741.1938" fill="none" id="3-to-*end*crear_punto_medio_3_puntos_funcion" style="stroke:#008000;stroke-width:1;"/><polygon fill="#008000" points="177,747.1938,181,738.1938,177,742.1938,173,738.1938,177,747.1938" style="stroke:#008000;stroke-width:1;"/></g><path d="M474.5,249.2969 L869.5,249.2969 A12.5,12.5 0 0 1 882,261.7969 L882,275.5938 L462,275.5938 L462,261.7969 A12.5,12.5 0 0 1 474.5,249.2969" fill="#FAF4B4" style="stroke:#FAF4B4;stroke-width:1;"/><rect fill="none" height="515.2969" rx="12.5" ry="12.5" style="stroke:#C90000;stroke-width:0.5;" width="420" x="462" y="249.2969"/><line style="stroke:#C90000;stroke-width:0.5;" x1="462" x2="882" y1="275.5938" y2="275.5938"/><text fill="#000000" font-family="sans-serif" font-size="14" lengthAdjust="spacing" textLength="251.3848" x="546.3076" y="267.292">crear_punto_medio_3_puntos_datos</text><g id="crear_punto_medio_3_puntos_datos.4"><rect fill="#FAF4B4" height="50" rx="12.5" ry="12.5" style="stroke:#C90000;stroke-width:0.5;" width="50" x="613" y="343.5938"/><line style="stroke:#C90000;stroke-width:0.5;" x1="613" x2="663" y1="369.8906" y2="369.8906"/><text fill="#000000" font-family="sans-serif" font-size="14" lengthAdjust="spacing" textLength="4.4502" x="635.7749" y="361.5889">&#160;</text></g><g id="crear_punto_medio_3_puntos_datos.5"><rect fill="#FAF4B4" height="50" rx="12.5" ry="12.5" style="stroke:#C90000;stroke-width:0.5;" width="50" x="474" y="494.5938"/><line style="stroke:#C90000;stroke-width:0.5;" x1="474" x2="524" y1="520.8906" y2="520.8906"/><text fill="#000000" font-family="sans-serif" font-size="14" lengthAdjust="spacing" textLength="4.4502" x="496.7749" y="512.5889">&#160;</text></g><g id="crear_punto_medio_3_puntos_datos.6"><rect fill="#FAF4B4" height="50" rx="12.5" ry="12.5" style="stroke:#C90000;stroke-width:0.5;" width="50" x="607" y="645.5938"/><line style="stroke:#C90000;stroke-width:0.5;" x1="607" x2="657" y1="671.8906" y2="671.8906"/><text fill="#000000" font-family="sans-serif" font-size="14" lengthAdjust="spacing" textLength="4.4502" x="629.7749" y="663.5889">&#160;</text></g><ellipse cx="638" cy="296.5938" fill="#222222" rx="10" ry="10" style="stroke:#222222;stroke-width:1;"/><ellipse cx="632" cy="743.5938" fill="none" rx="11" ry="11" style="stroke:#222222;stroke-width:1;"/><ellipse cx="632" cy="743.5938" fill="#222222" rx="6" ry="6" style="stroke:#222222;stroke-width:1;"/><!--link *start*crear_punto_medio_3_puntos_datos to 4--><g class="link" data-entity-1="*start*crear_punto_medio_3_puntos_datos" data-entity-2="4" data-source-line="64" data-uid="lnk13" id="link_*start*crear_punto_medio_3_puntos_datos_4"><path d="M638,307.0338 C638,316.2938 638,324.7838 638,337.2738" fill="none" id="*start*crear_punto_medio_3_puntos_datos-to-4" style="stroke:#008000;stroke-width:1;"/><polygon fill="#008000" points="638,343.2738,642,334.2738,638,338.2738,634,334.2738,638,343.2738" style="stroke:#008000;stroke-width:1;"/></g><!--link 4 to 5--><g class="link" data-entity-1="4" data-entity-2="5" data-source-line="65" data-uid="lnk14" id="link_4_5"><path d="M612.5,378.0938 C575.68,390.3638 512,411.5938 512,411.5938 C512,411.5938 506.5145,456.7876 502.6745,488.3576" fill="none" id="4-to-5" style="stroke:#008000;stroke-width:1;"/><polygon fill="#008000" points="501.95,494.3138,507.0074,485.8626,502.5537,489.3503,499.066,484.8966,501.95,494.3138" style="stroke:#008000;stroke-width:1;"/><path d="M517,416.5938 L517,471.5938 L758,471.5938 L758,426.5938 L748,416.5938 L517,416.5938" fill="#F5F5F5" style="stroke:#181818;stroke-width:0.5;"/><path d="M748,416.5938 L748,426.5938 L758,426.5938 L748,416.5938" fill="#F5F5F5" style="stroke:#181818;stroke-width:0.5;"/><text fill="#000000" font-family="sans-serif" font-size="13" font-weight="bold" lengthAdjust="spacing" textLength="220.5874" x="523" y="433.6606">Sistema requiere Par&#225;metros:</text><text fill="#000000" font-family="sans-serif" font-size="13" lengthAdjust="spacing" textLength="44.8652" x="523" y="448.7935">- datos</text><text fill="#000000" font-family="sans-serif" font-size="13" lengthAdjust="spacing" textLength="24.7876" x="523" y="463.9263">- x0</text></g><!--link 5 to 6--><g class="link" data-entity-1="5" data-entity-2="6" data-source-line="71" data-uid="lnk15" id="link_5_6"><path d="M492.6,545.0238 C490.18,554.2638 488,562.5938 488,562.5938 C488,562.5938 488,627.5938 488,627.5938 C488,627.5938 559.4901,648.4434 600.8301,660.5034" fill="none" id="5-to-6" style="stroke:#008000;stroke-width:1;"/><polygon fill="#008000" points="606.59,662.1838,599.0704,655.8233,601.7901,660.7835,596.8299,663.5032,606.59,662.1838" style="stroke:#008000;stroke-width:1;"/><path d="M493,567.5938 L493,622.5938 L758,622.5938 L758,577.5938 L748,567.5938 L493,567.5938" fill="#F5F5F5" style="stroke:#181818;stroke-width:0.5;"/><path d="M748,567.5938 L748,577.5938 L758,577.5938 L748,567.5938" fill="#F5F5F5" style="stroke:#181818;stroke-width:0.5;"/><text fill="#000000" font-family="sans-serif" font-size="13" font-weight="bold" lengthAdjust="spacing" textLength="244.1499" x="499" y="584.6606">Usuario Proporciona Par&#225;metros:</text><text fill="#000000" font-family="sans-serif" font-size="13" lengthAdjust="spacing" textLength="44.8652" x="507.2646" y="599.7935">- datos</text><text fill="#000000" font-family="sans-serif" font-size="13" lengthAdjust="spacing" textLength="24.7876" x="507.2646" y="614.9263">- x0</text></g><!--link 6 to 4--><g class="link" data-entity-1="6" data-entity-2="4" data-source-line="77" data-uid="lnk16" id="link_6_4"><path d="M657.26,661.4938 C695.33,649.2938 763,627.5938 763,627.5938 C763,627.5938 763,411.5938 763,411.5938 C763,411.5938 705.5076,392.2747 668.9876,380.0047" fill="none" id="6-to-4" style="stroke:#FF0000;stroke-width:1;"/><polygon fill="#FF0000" points="663.3,378.0938,670.5574,384.7518,668.0396,379.6862,673.1053,377.1684,663.3,378.0938" style="stroke:#FF0000;stroke-width:1;"/><path d="M768,499.5938 L768,539.5938 L873,539.5938 L873,509.5938 L863,499.5938 L768,499.5938" fill="#F5F5F5" style="stroke:#181818;stroke-width:0.5;"/><path d="M863,499.5938 L863,509.5938 L873,509.5938 L863,499.5938" fill="#F5F5F5" style="stroke:#181818;stroke-width:0.5;"/><text fill="#000000" font-family="sans-serif" font-size="13" lengthAdjust="spacing" textLength="80.0186" x="774" y="516.6606">[Par&#225;metros</text><text fill="#000000" font-family="sans-serif" font-size="13" lengthAdjust="spacing" textLength="63.0068" x="778.1323" y="531.7935">Inv&#225;lidos]</text></g><!--link 6 to *end*crear_punto_medio_3_puntos_datos--><g class="link" data-entity-1="6" data-entity-2="*end*crear_punto_medio_3_puntos_datos" data-source-line="82" data-uid="lnk18" id="link_6_*end*crear_punto_medio_3_puntos_datos"><path d="M632,696.0238 C632,708.3838 632,716.7238 632,726.1938" fill="none" id="6-to-*end*crear_punto_medio_3_puntos_datos" style="stroke:#008000;stroke-width:1;"/><polygon fill="#008000" points="632,732.1938,636,723.1938,632,727.1938,628,723.1938,632,732.1938" style="stroke:#008000;stroke-width:1;"/></g><g id="PUNTO_MEDIO_3_PUNTOS"><rect fill="#FAF4B4" height="50" rx="12.5" ry="12.5" style="stroke:#C90000;stroke-width:0.5;" width="203.1143" x="342.44" y="44.2969"/><line style="stroke:#C90000;stroke-width:0.5;" x1="342.44" x2="545.5543" y1="70.5938" y2="70.5938"/><text fill="#000000" font-family="sans-serif" font-size="14" lengthAdjust="spacing" textLength="183.1143" x="352.44" y="62.292">PUNTO_MEDIO_3_PUNTOS</text></g><g id=":abrirResultadoPuntoMedio3Puntos"><rect fill="#FAF4B4" height="50" rx="12.5" ry="12.5" style="stroke:#C90000;stroke-width:0.5;" width="266.2236" x="310.89" y="840.5969"/><line style="stroke:#C90000;stroke-width:0.5;" x1="310.89" x2="577.1136" y1="866.8938" y2="866.8938"/><text fill="#000000" font-family="sans-serif" font-size="14" lengthAdjust="spacing" textLength="246.2236" x="320.89" y="858.592">:abrirResultadoPuntoMedio3Puntos</text></g><g id="RESULTADO_PUNTO_MEDIO_3_PUNTOS"><rect fill="#FAF4B4" height="50" rx="12.5" ry="12.5" style="stroke:#C90000;stroke-width:0.5;" width="295.5498" x="296.23" y="951.5969"/><line style="stroke:#C90000;stroke-width:0.5;" x1="296.23" x2="591.7798" y1="977.8938" y2="977.8938"/><text fill="#000000" font-family="sans-serif" font-size="14" lengthAdjust="spacing" textLength="275.5498" x="306.23" y="969.592">RESULTADO_PUNTO_MEDIO_3_PUNTOS</text></g><!--link PUNTO_MEDIO_3_PUNTOS to crear_punto_medio_3_puntos_funcion--><g class="link" data-entity-1="PUNTO_MEDIO_3_PUNTOS" data-entity-2="crear_punto_medio_3_puntos_funcion" data-source-line="15" data-uid="lnk3" id="link_PUNTO_MEDIO_3_PUNTOS_crear_punto_medio_3_puntos_funcion"><path d="M374.66,94.7769 C334.18,109.0569 291,124.2969 291,124.2969 C291,124.2969 282.8729,166.2367 270.8829,228.0267" fill="none" id="PUNTO_MEDIO_3_PUNTOS-to-crear_punto_medio_3_puntos_funcion" style="stroke:#008000;stroke-width:1;"/><polygon fill="#008000" points="269.74,233.9169,275.3812,225.8436,270.6925,229.0084,267.5277,224.3197,269.74,233.9169" style="stroke:#008000;stroke-width:1;"/><path d="M296,129.2969 L296,199.2969 L598,199.2969 L598,139.2969 L588,129.2969 L296,129.2969" fill="#F5F5F5" style="stroke:#181818;stroke-width:0.5;"/><path d="M588,129.2969 L588,139.2969 L598,139.2969 L588,129.2969" fill="#F5F5F5" style="stroke:#181818;stroke-width:0.5;"/><text fill="#000000" font-family="sans-serif" font-size="13" font-weight="bold" lengthAdjust="spacing" textLength="118.5742" x="302" y="146.3638">Usuario solicita:</text><text fill="#000000" font-family="sans-serif" font-size="13" lengthAdjust="spacing" textLength="281.1504" x="302" y="161.4966">- Crear operaci&#243;n punto medio de 3 puntos</text><text fill="#000000" font-family="sans-serif" font-size="13" font-weight="bold" lengthAdjust="spacing" textLength="101.6958" x="302" y="176.6294">Usuario elige:</text><text fill="#000000" font-family="sans-serif" font-size="13" lengthAdjust="spacing" textLength="135.1099" x="302" y="191.7622">- Funci&#243;n de entrada</text></g><!--link PUNTO_MEDIO_3_PUNTOS to crear_punto_medio_3_puntos_datos--><g class="link" data-entity-1="PUNTO_MEDIO_3_PUNTOS" data-entity-2="crear_punto_medio_3_puntos_datos" data-source-line="22" data-uid="lnk4" id="link_PUNTO_MEDIO_3_PUNTOS_crear_punto_medio_3_puntos_datos"><path d="M517.87,94.7769 C561,109.0569 607,124.2969 607,124.2969 C607,124.2969 615.4925,174.1721 627.2325,243.0921" fill="none" id="PUNTO_MEDIO_3_PUNTOS-to-crear_punto_medio_3_puntos_datos" style="stroke:#008000;stroke-width:1;"/><polygon fill="#008000" points="628.24,249.0069,630.6719,239.463,627.4004,244.0779,622.7855,240.8064,628.24,249.0069" style="stroke:#008000;stroke-width:1;"/><path d="M624,129.2969 L624,199.2969 L926,199.2969 L926,139.2969 L916,129.2969 L624,129.2969" fill="#F5F5F5" style="stroke:#181818;stroke-width:0.5;"/><path d="M916,129.2969 L916,139.2969 L926,139.2969 L916,129.2969" fill="#F5F5F5" style="stroke:#181818;stroke-width:0.5;"/><text fill="#000000" font-family="sans-serif" font-size="13" font-weight="bold" lengthAdjust="spacing" textLength="118.5742" x="630" y="146.3638">Usuario solicita:</text><text fill="#000000" font-family="sans-serif" font-size="13" lengthAdjust="spacing" textLength="281.1504" x="630" y="161.4966">- Crear operaci&#243;n punto medio de 3 puntos</text><text fill="#000000" font-family="sans-serif" font-size="13" font-weight="bold" lengthAdjust="spacing" textLength="101.6958" x="630" y="176.6294">Usuario elige:</text><text fill="#000000" font-family="sans-serif" font-size="13" lengthAdjust="spacing" textLength="203.1694" x="630" y="191.7622">- Conjunto de datos de entrada</text></g><!--link crear_punto_medio_3_puntos_funcion to :abrirResultadoPuntoMedio3Puntos--><g class="link" data-entity-1="crear_punto_medio_3_puntos_funcion" data-entity-2=":abrirResultadoPuntoMedio3Puntos" data-source-line="87" data-uid="lnk20" id="link_crear_punto_medio_3_puntos_funcion_:abrirResultadoPuntoMedio3Puntos"><path d="M390.2,780.0769 C405.62,804.2969 415.7577,820.2256 425.3077,835.2256" fill="none" id="crear_punto_medio_3_puntos_funcion-to-:abrirResultadoPuntoMedio3Puntos" style="stroke:#008000;stroke-width:1;"/><polygon fill="#008000" points="428.53,840.2869,427.0707,830.5467,425.8447,836.0691,420.3223,834.8432,428.53,840.2869" style="stroke:#008000;stroke-width:1;"/></g><!--link crear_punto_medio_3_puntos_datos to :abrirResultadoPuntoMedio3Puntos--><g class="link" data-entity-1="crear_punto_medio_3_puntos_datos" data-entity-2=":abrirResultadoPuntoMedio3Puntos" data-source-line="88" data-uid="lnk21" id="link_crear_punto_medio_3_puntos_datos_:abrirResultadoPuntoMedio3Puntos"><path d="M507.81,764.7769 C488.21,795.4369 474.3121,817.1818 462.7521,835.2618" fill="none" id="crear_punto_medio_3_puntos_datos-to-:abrirResultadoPuntoMedio3Puntos" style="stroke:#008000;stroke-width:1;"/><polygon fill="#008000" points="459.52,840.3169,467.7382,834.889,462.2134,836.1043,460.9981,830.5796,459.52,840.3169" style="stroke:#008000;stroke-width:1;"/></g><!--link :abrirResultadoPuntoMedio3Puntos to RESULTADO_PUNTO_MEDIO_3_PUNTOS--><g class="link" data-entity-1=":abrirResultadoPuntoMedio3Puntos" data-entity-2="RESULTADO_PUNTO_MEDIO_3_PUNTOS" data-source-line="90" data-uid="lnk23" id="link_:abrirResultadoPuntoMedio3Puntos_RESULTADO_PUNTO_MEDIO_3_PUNTOS"><path d="M444,891.0569 C444,909.0069 444,927.2869 444,945.2169" fill="none" id=":abrirResultadoPuntoMedio3Puntos-to-RESULTADO_PUNTO_MEDIO_3_PUNTOS" style="stroke:#008000;stroke-width:1;"/><polygon fill="#008000" points="444,951.2169,448,942.2169,444,946.2169,440,942.2169,444,951.2169" style="stroke:#008000;stroke-width:1;"/></g><!--SRC=[lLJjQjim5FslfxYq_mo1fdO2wu_1bdHGM9VGDBz2CAfrascn9K-InyhOm_GPzWXviKfoue_CRJe2KmAsZg_EqRr7kdh3HKuLpK0RQX1-4O2FDDcibIm46ybKAZXVqLNq4BalKZ5KEpHvTs47-Ks8haY4V95Zu7xjw9GBD8yvGYxJHpSXn72J8epHqDG-HrHBO0Xp-nWff0ecEIgQyEqV0TD260ctoBYF2Kj04qAcyo_ta_ZsUdmpYSFOpsRGMvol5Q9Ozjv3uhZYtCN7cIEmONwcurKX4Yu5yPb8uVQuiVa4mLmNL5afBLEUS4ElWi3YlTs-PBqlJmHPlQ-IkKM2AL_Zdk6JatGhRJGAeoYZ10NpnJmf5qQTxd_CP2J5Dx_6HdlnpfH8UTIEc-1FKXdS1whX3CuguF8G26l0_XV1ibMbliNwBUJI8WUbSIC8PbmRp2We_5vmL0XJghPF6HebTPce6ptOdvJz_ET5zVhLlbNfWjrhKpZi4guBEbKobyenqzELGwUiaErBy9VkeY41EvORyMFxb78czRA3hSh3bfZu-tpCpV8ar5v6XzOD3e7XgrwwJXIraC6fNfOtfLNFHjw3bjZmPFzULnisF8lUwDcBbWqxBIDlk7lDTLVqGN5rXxf83MNIDrhVUCDTpptg_Z-naMCHJRQxwzdyy_s7yIJkQfNF]--></g></svg>