<svg xmlns="http://www.w3.org/2000/svg" xmlns:xlink="http://www.w3.org/1999/xlink" contentStyleType="text/css" data-diagram-type="STATE" height="917px" preserveAspectRatio="none" style="width:433px;height:917px;background:#FFFFFF;" version="1.1" viewBox="0 0 433 917" width="433px" zoomAndPan="magnify"><title>Detalle Caso de Uso Abrir Integral Triple Gaussiana</title><defs/><g><g class="title" data-source-line="12"><text fill="#000000" font-family="sans-serif" font-size="14" font-weight="bold" lengthAdjust="spacing" textLength="405.7744" x="10" y="22.9951">Detalle Caso de Uso Abrir Integral Triple Gaussiana</text></g><path d="M27.6372,204.2969 L355.6372,204.2969 A12.5,12.5 0 0 1 368.1372,216.7969 L368.1372,230.5938 L15.1372,230.5938 L15.1372,216.7969 A12.5,12.5 0 0 1 27.6372,204.2969" fill="#FAF4B4" style="stroke:#FAF4B4;stroke-width:1;"/><rect fill="none" height="485.2969" rx="12.5" ry="12.5" style="stroke:#C90000;stroke-width:0.5;" width="353" x="15.1372" y="204.2969"/><line style="stroke:#C90000;stroke-width:0.5;" x1="15.1372" x2="368.1372" y1="230.5938" y2="230.5938"/><text fill="#000000" font-family="sans-serif" font-size="14" lengthAdjust="spacing" textLength="215.2158" x="84.0293" y="222.292">abrir_integral_triple_gaussiana</text><g id="abrir_integral_triple_gaussiana.1"><rect fill="#FAF4B4" height="50" rx="12.5" ry="12.5" style="stroke:#C90000;stroke-width:0.5;" width="50" x="27.1372" y="298.5938"/><line style="stroke:#C90000;stroke-width:0.5;" x1="27.1372" x2="77.1372" y1="324.8906" y2="324.8906"/><text fill="#000000" font-family="sans-serif" font-size="14" lengthAdjust="spacing" textLength="4.4502" x="49.9121" y="316.5889">&#160;</text></g><g id="abrir_integral_triple_gaussiana.2"><rect fill="#FAF4B4" height="50" rx="12.5" ry="12.5" style="stroke:#C90000;stroke-width:0.5;" width="50" x="27.1372" y="434.5938"/><line style="stroke:#C90000;stroke-width:0.5;" x1="27.1372" x2="77.1372" y1="460.8906" y2="460.8906"/><text fill="#000000" font-family="sans-serif" font-size="14" lengthAdjust="spacing" textLength="4.4502" x="49.9121" y="452.5889">&#160;</text></g><g id="abrir_integral_triple_gaussiana.3"><rect fill="#FAF4B4" height="50" rx="12.5" ry="12.5" style="stroke:#C90000;stroke-width:0.5;" width="50" x="27.1372" y="570.5938"/><line style="stroke:#C90000;stroke-width:0.5;" x1="27.1372" x2="77.1372" y1="596.8906" y2="596.8906"/><text fill="#000000" font-family="sans-serif" font-size="14" lengthAdjust="spacing" textLength="4.4502" x="49.9121" y="588.5889">&#160;</text></g><ellipse cx="52.1372" cy="251.5938" fill="#222222" rx="10" ry="10" style="stroke:#222222;stroke-width:1;"/><ellipse cx="52.1372" cy="668.5938" fill="none" rx="11" ry="11" style="stroke:#222222;stroke-width:1;"/><ellipse cx="52.1372" cy="668.5938" fill="#222222" rx="6" ry="6" style="stroke:#222222;stroke-width:1;"/><!--link *start*abrir_integral_triple_gaussiana to 1--><g class="link" data-entity-1="*start*abrir_integral_triple_gaussiana" data-entity-2="1" data-source-line="26" data-uid="lnk5" id="link_*start*abrir_integral_triple_gaussiana_1"><path d="M52.1372,262.0338 C52.1372,271.2938 52.1372,279.7838 52.1372,292.2738" fill="none" id="*start*abrir_integral_triple_gaussiana-to-1" style="stroke:#008000;stroke-width:1;"/><polygon fill="#008000" points="52.1372,298.2738,56.1372,289.2738,52.1372,293.2738,48.1372,289.2738,52.1372,298.2738" style="stroke:#008000;stroke-width:1;"/></g><!--link 1 to 2--><g class="link" data-entity-1="1" data-entity-2="2" data-source-line="27" data-uid="lnk6" id="link_1_2"><path d="M52.1372,348.8638 C52.1372,373.1438 52.1372,404.2838 52.1372,428.5037" fill="none" id="1-to-2" style="stroke:#008000;stroke-width:1;"/><polygon fill="#008000" points="52.1372,434.5037,56.1372,425.5037,52.1372,429.5037,48.1372,425.5037,52.1372,434.5037" style="stroke:#008000;stroke-width:1;"/><path d="M57.1372,371.5938 L57.1372,411.5938 L359.1372,411.5938 L359.1372,381.5938 L349.1372,371.5938 L57.1372,371.5938" fill="#F5F5F5" style="stroke:#181818;stroke-width:0.5;"/><path d="M349.1372,371.5938 L349.1372,381.5938 L359.1372,381.5938 L349.1372,371.5938" fill="#F5F5F5" style="stroke:#181818;stroke-width:0.5;"/><text fill="#000000" font-family="sans-serif" font-size="13" font-weight="bold" lengthAdjust="spacing" textLength="130.9204" x="63.1372" y="388.6606">Sistema requiere:</text><text fill="#000000" font-family="sans-serif" font-size="13" lengthAdjust="spacing" textLength="281.9058" x="63.1372" y="403.7935">- M&#233;todo integral triple gaussiana conocido</text></g><!--link 2 to 3--><g class="link" data-entity-1="2" data-entity-2="3" data-source-line="32" data-uid="lnk7" id="link_2_3"><path d="M52.1372,484.8638 C52.1372,509.1438 52.1372,540.2838 52.1372,564.5038" fill="none" id="2-to-3" style="stroke:#008000;stroke-width:1;"/><polygon fill="#008000" points="52.1372,570.5038,56.1372,561.5038,52.1372,565.5038,48.1372,561.5038,52.1372,570.5038" style="stroke:#008000;stroke-width:1;"/><path d="M57.1372,507.5938 L57.1372,547.5938 L359.1372,547.5938 L359.1372,517.5938 L349.1372,507.5938 L57.1372,507.5938" fill="#F5F5F5" style="stroke:#181818;stroke-width:0.5;"/><path d="M349.1372,507.5938 L349.1372,517.5938 L359.1372,517.5938 L349.1372,507.5938" fill="#F5F5F5" style="stroke:#181818;stroke-width:0.5;"/><text fill="#000000" font-family="sans-serif" font-size="13" font-weight="bold" lengthAdjust="spacing" textLength="144.1235" x="63.1372" y="524.6606">Usuario Selecciona:</text><text fill="#000000" font-family="sans-serif" font-size="13" lengthAdjust="spacing" textLength="281.9058" x="63.1372" y="539.7935">- M&#233;todo integral triple gaussiana conocido</text></g><!--link 3 to *end*abrir_integral_triple_gaussiana--><g class="link" data-entity-1="3" data-entity-2="*end*abrir_integral_triple_gaussiana" data-source-line="38" data-uid="lnk9" id="link_3_*end*abrir_integral_triple_gaussiana"><path d="M52.1372,621.0238 C52.1372,633.3838 52.1372,641.7238 52.1372,651.1938" fill="none" id="3-to-*end*abrir_integral_triple_gaussiana" style="stroke:#008000;stroke-width:1;"/><polygon fill="#008000" points="52.1372,657.1938,56.1372,648.1938,52.1372,652.1938,48.1372,648.1938,52.1372,657.1938" style="stroke:#008000;stroke-width:1;"/></g><g id="DIFERENCIACION_NUMERICA_E_INTEGRACION"><rect fill="#FAF4B4" height="50" rx="12.5" ry="12.5" style="stroke:#C90000;stroke-width:0.5;" width="341.9795" x="20.6472" y="44.2969"/><line style="stroke:#C90000;stroke-width:0.5;" x1="20.6472" x2="362.6267" y1="70.5938" y2="70.5938"/><text fill="#000000" font-family="sans-serif" font-size="14" lengthAdjust="spacing" textLength="321.9795" x="30.6472" y="62.292">DIFERENCIACION_NUMERICA_E_INTEGRACION</text></g><g id=":abrirIntegralTripleGaussiana"><rect fill="#FAF4B4" height="50" rx="12.5" ry="12.5" style="stroke:#C90000;stroke-width:0.5;" width="224.1963" x="79.5372" y="750.5969"/><line style="stroke:#C90000;stroke-width:0.5;" x1="79.5372" x2="303.7335" y1="776.8938" y2="776.8938"/><text fill="#000000" font-family="sans-serif" font-size="14" lengthAdjust="spacing" textLength="204.1963" x="89.5372" y="768.592">:abrirIntegralTripleGaussiana</text></g><g id="INTEGRAL_TRIPLE_GAUSSIANA"><rect fill="#FAF4B4" height="50" rx="12.5" ry="12.5" style="stroke:#C90000;stroke-width:0.5;" width="233.6504" x="74.8072" y="861.5969"/><line style="stroke:#C90000;stroke-width:0.5;" x1="74.8072" x2="308.4576" y1="887.8938" y2="887.8938"/><text fill="#000000" font-family="sans-serif" font-size="14" lengthAdjust="spacing" textLength="213.6504" x="84.8072" y="879.592">INTEGRAL_TRIPLE_GAUSSIANA</text></g><!--link DIFERENCIACION_NUMERICA_E_INTEGRACION to abrir_integral_triple_gaussiana--><g class="link" data-entity-1="DIFERENCIACION_NUMERICA_E_INTEGRACION" data-entity-2="abrir_integral_triple_gaussiana" data-source-line="15" data-uid="lnk3" id="link_DIFERENCIACION_NUMERICA_E_INTEGRACION_abrir_integral_triple_gaussiana"><path d="M191.6372,94.6569 C191.6372,119.0469 191.6372,153.2969 191.6372,198.0169" fill="none" id="DIFERENCIACION_NUMERICA_E_INTEGRACION-to-abrir_integral_triple_gaussiana" style="stroke:#008000;stroke-width:1;"/><polygon fill="#008000" points="191.6372,204.0169,195.6372,195.0169,191.6372,199.0169,187.6372,195.0169,191.6372,204.0169" style="stroke:#008000;stroke-width:1;"/><path d="M196.6372,129.2969 L196.6372,169.2969 L424.6372,169.2969 L424.6372,139.2969 L414.6372,129.2969 L196.6372,129.2969" fill="#F5F5F5" style="stroke:#181818;stroke-width:0.5;"/><path d="M414.6372,129.2969 L414.6372,139.2969 L424.6372,139.2969 L414.6372,129.2969" fill="#F5F5F5" style="stroke:#181818;stroke-width:0.5;"/><text fill="#000000" font-family="sans-serif" font-size="13" font-weight="bold" lengthAdjust="spacing" textLength="118.5742" x="202.6372" y="146.3638">Usuario solicita:</text><text fill="#000000" font-family="sans-serif" font-size="13" lengthAdjust="spacing" textLength="207.3779" x="202.6372" y="161.4966">- Abrir Integral Triple Gaussiana</text></g><!--link abrir_integral_triple_gaussiana to :abrirIntegralTripleGaussiana--><g class="link" data-entity-1="abrir_integral_triple_gaussiana" data-entity-2=":abrirIntegralTripleGaussiana" data-source-line="41" data-uid="lnk11" id="link_abrir_integral_triple_gaussiana_:abrirIntegralTripleGaussiana"><path d="M191.6372,690.0569 C191.6372,714.2169 191.6372,729.3469 191.6372,744.4469" fill="none" id="abrir_integral_triple_gaussiana-to-:abrirIntegralTripleGaussiana" style="stroke:#008000;stroke-width:1;"/><polygon fill="#008000" points="191.6372,750.4469,195.6372,741.4469,191.6372,745.4469,187.6372,741.4469,191.6372,750.4469" style="stroke:#008000;stroke-width:1;"/></g><!--link :abrirIntegralTripleGaussiana to INTEGRAL_TRIPLE_GAUSSIANA--><g class="link" data-entity-1=":abrirIntegralTripleGaussiana" data-entity-2="INTEGRAL_TRIPLE_GAUSSIANA" data-source-line="43" data-uid="lnk13" id="link_:abrirIntegralTripleGaussiana_INTEGRAL_TRIPLE_GAUSSIANA"><path d="M191.6372,801.0569 C191.6372,819.0069 191.6372,837.2869 191.6372,855.2169" fill="none" id=":abrirIntegralTripleGaussiana-to-INTEGRAL_TRIPLE_GAUSSIANA" style="stroke:#008000;stroke-width:1;"/><polygon fill="#008000" points="191.6372,861.2169,195.6372,852.2169,191.6372,856.2169,187.6372,852.2169,191.6372,861.2169" style="stroke:#008000;stroke-width:1;"/></g><!--SRC=[dLBBRi8m4BpxArPmYuHK7ZsKGwKqf2WIf1MF4qBHaYp88jZKDWTKzOFw7VsnsW52G6sHkebaURoUtHclNdEnHOKRq0ODmJi3UC9qlL9o9x90vb91VOdBpgBZJgJAI1tHzE7E1ljWJ9SaGlxASU- -o-oS2pBxBS5MvdktOSnmanFqo61krm2rX8nWQXT_eRY2I1XQASnXelZMPlHnfpL7WOonNlGSZi8uYFmWUecJU3eCHr7W9s4InPEmFohWngo-KaHYtdW4T9G9Fr8cfg1CLYLbeKOAr-VQQlAygTwXuXAqp7dA3NOzp-ADcxsHo0fhhFZ2vHk5dO67n2QWXXhKIg1r3RJFWFrdtXog2fiMQruWBOjSwNBXUMEk3MqG5BtjE2awQ7FHWE7Nfv6PX5F7SEWOoeuXbKAcF9FsIYaMRBVLqksVIfzD7LDEQSgbm5FfVnUsc_P5QUkB6xqRlbTlT8lSqvCUNhGoR7yULtcEepT89gFeTH0cVNyw7aT-x7y3]--></g></svg>