<svg xmlns="http://www.w3.org/2000/svg" xmlns:xlink="http://www.w3.org/1999/xlink" contentStyleType="text/css" data-diagram-type="STATE" height="866px" preserveAspectRatio="none" style="width:532px;height:866px;background:#FFFFFF;" version="1.1" viewBox="0 0 532 866" width="532px" zoomAndPan="magnify"><title>Detalle Caso de Uso Crear Operaci&#243;n Newton Cotes Abierto n=1</title><defs/><g><g class="title" data-source-line="14"><text fill="#000000" font-family="sans-serif" font-size="14" font-weight="bold" lengthAdjust="spacing" textLength="504.8408" x="10" y="22.9951">Detalle Caso de Uso Crear Operaci&#243;n Newton Cotes Abierto n=1</text></g><g id="NEWTON_COTES_A1"><rect fill="#FAF4B4" height="50" rx="12.5" ry="12.5" style="stroke:#C90000;stroke-width:0.5;" width="162.7686" x="283.2198" y="44.2969"/><line style="stroke:#C90000;stroke-width:0.5;" x1="283.2198" x2="445.9883" y1="70.5938" y2="70.5938"/><text fill="#000000" font-family="sans-serif" font-size="14" lengthAdjust="spacing" textLength="142.7686" x="293.2198" y="62.292">NEWTON_COTES_A1</text></g><path d="M37.0998,204.2969 L430.0998,204.2969 A12.5,12.5 0 0 1 442.5998,216.7969 L442.5998,230.5938 L24.5998,230.5938 L24.5998,216.7969 A12.5,12.5 0 0 1 37.0998,204.2969" fill="#FAF4B4"/><rect fill="none" height="545.2969" rx="12.5" ry="12.5" style="stroke:#C90000;stroke-width:0.5;" width="418" x="24.5998" y="204.2969"/><line style="stroke:#C90000;stroke-width:0.5;" x1="24.5998" x2="442.5998" y1="230.5938" y2="230.5938"/><text fill="#000000" font-family="sans-serif" font-size="14" lengthAdjust="spacing" textLength="164.4111" x="151.3942" y="222.292">crear_newton_cotes_a1</text><g id="crear_newton_cotes_a1.1"><rect fill="#FAF4B4" height="50" rx="12.5" ry="12.5" style="stroke:#C90000;stroke-width:0.5;" width="50" x="174.5998" y="298.5938"/><line style="stroke:#C90000;stroke-width:0.5;" x1="174.5998" x2="224.5998" y1="324.8906" y2="324.8906"/><text fill="#000000" font-family="sans-serif" font-size="14" lengthAdjust="spacing" textLength="4.4502" x="197.3747" y="316.5889">&#160;</text></g><g id="crear_newton_cotes_a1.2"><rect fill="#FAF4B4" height="50" rx="12.5" ry="12.5" style="stroke:#C90000;stroke-width:0.5;" width="50" x="36.5998" y="464.5938"/><line style="stroke:#C90000;stroke-width:0.5;" x1="36.5998" x2="86.5998" y1="490.8906" y2="490.8906"/><text fill="#000000" font-family="sans-serif" font-size="14" lengthAdjust="spacing" textLength="4.4502" x="59.3747" y="482.5889">&#160;</text></g><g id="crear_newton_cotes_a1.3"><rect fill="#FAF4B4" height="50" rx="12.5" ry="12.5" style="stroke:#C90000;stroke-width:0.5;" width="50" x="169.5998" y="630.5938"/><line style="stroke:#C90000;stroke-width:0.5;" x1="169.5998" x2="219.5998" y1="656.8906" y2="656.8906"/><text fill="#000000" font-family="sans-serif" font-size="14" lengthAdjust="spacing" textLength="4.4502" x="192.3747" y="648.5889">&#160;</text></g><ellipse cx="199.5998" cy="251.5938" fill="#222222" rx="10" ry="10" style="stroke:#222222;stroke-width:1;"/><ellipse cx="194.5998" cy="728.5938" fill="none" rx="11" ry="11" style="stroke:#222222;stroke-width:1;"/><ellipse cx="194.5998" cy="728.5938" fill="#222222" rx="6" ry="6" style="stroke:#222222;stroke-width:1;"/><!--link *start*crear_newton_cotes_a1 to 1--><g class="link" data-entity-1=".start.crear_newton_cotes_a1" data-entity-2="1" data-source-line="29" data-uid="lnk4" id="link_.start.crear_newton_cotes_a1_1"><path d="M199.5998,262.0338 C199.5998,271.2938 199.5998,279.7838 199.5998,292.2738" fill="none" id="*start*crear_newton_cotes_a1-to-1" style="stroke:#008000;stroke-width:1;"/><polygon fill="#008000" points="199.5998,298.2738,203.5998,289.2738,199.5998,293.2738,195.5998,289.2738,199.5998,298.2738" style="stroke:#008000;stroke-width:1;"/></g><!--link 1 to 2--><g class="link" data-entity-1="1" data-entity-2="2" data-source-line="30" data-uid="lnk5" id="link_1_2"><path d="M174.1998,332.9938 C137.1398,345.2538 72.5998,366.5938 72.5998,366.5938 C72.5998,366.5938 67.5486,422.618 64.3386,458.218" fill="none" id="1-to-2" style="stroke:#008000;stroke-width:1;"/><polygon fill="#008000" points="63.7998,464.1938,68.5919,455.5893,64.2488,459.214,60.6242,454.8709,63.7998,464.1938" style="stroke:#008000;stroke-width:1;"/><path d="M77.5998,371.5938 L77.5998,441.5938 L318.5998,441.5938 L318.5998,381.5938 L308.5998,371.5938 L77.5998,371.5938" fill="#F5F5F5" style="stroke:#181818;stroke-width:0.5;"/><path d="M308.5998,371.5938 L308.5998,381.5938 L318.5998,381.5938 L308.5998,371.5938" fill="#F5F5F5" style="stroke:#181818;stroke-width:0.5;"/><text fill="#000000" font-family="sans-serif" font-size="13" font-weight="bold" lengthAdjust="spacing" textLength="220.5874" x="83.5998" y="388.6606">Sistema requiere Par&#225;metros:</text><text fill="#000000" font-family="sans-serif" font-size="13" lengthAdjust="spacing" textLength="56.8306" x="83.5998" y="403.7935">- funcion</text><text fill="#000000" font-family="sans-serif" font-size="13" lengthAdjust="spacing" textLength="16.7896" x="83.5998" y="418.9263">- a</text><text fill="#000000" font-family="sans-serif" font-size="13" lengthAdjust="spacing" textLength="17.0752" x="83.5998" y="434.0591">- b</text></g><!--link 2 to 3--><g class="link" data-entity-1="2" data-entity-2="3" data-source-line="37" data-uid="lnk6" id="link_2_3"><path d="M56.9498,515.0238 C55.1898,524.2638 53.5998,532.5938 53.5998,532.5938 C53.5998,532.5938 53.5998,612.5938 53.5998,612.5938 C53.5998,612.5938 123.0895,633.2907 163.6395,645.3707" fill="none" id="2-to-3" style="stroke:#008000;stroke-width:1;"/><polygon fill="#008000" points="169.3898,647.0838,161.9064,640.6807,164.5979,645.6562,159.6224,648.3477,169.3898,647.0838" style="stroke:#008000;stroke-width:1;"/><path d="M58.5998,537.5938 L58.5998,607.5938 L318.5998,607.5938 L318.5998,547.5938 L308.5998,537.5938 L58.5998,537.5938" fill="#F5F5F5" style="stroke:#181818;stroke-width:0.5;"/><path d="M308.5998,537.5938 L308.5998,547.5938 L318.5998,547.5938 L308.5998,537.5938" fill="#F5F5F5" style="stroke:#181818;stroke-width:0.5;"/><text fill="#000000" font-family="sans-serif" font-size="13" font-weight="bold" lengthAdjust="spacing" textLength="239.5859" x="64.5998" y="554.6606">Cliente Proporciona Par&#225;metros:</text><text fill="#000000" font-family="sans-serif" font-size="13" lengthAdjust="spacing" textLength="56.8306" x="72.8644" y="569.7935">- funcion</text><text fill="#000000" font-family="sans-serif" font-size="13" lengthAdjust="spacing" textLength="16.7896" x="72.8644" y="584.9263">- a</text><text fill="#000000" font-family="sans-serif" font-size="13" lengthAdjust="spacing" textLength="17.0752" x="72.8644" y="600.0591">- b</text></g><!--link 3 to 1--><g class="link" data-entity-1="3" data-entity-2="1" data-source-line="44" data-uid="lnk7" id="link_3_1"><path d="M220.0898,646.2938 C257.6798,634.0538 323.5998,612.5938 323.5998,612.5938 C323.5998,612.5938 323.5998,366.5938 323.5998,366.5938 C323.5998,366.5938 266.9526,347.4088 230.6726,335.1188" fill="none" id="3-to-1" style="stroke:#FF0000;stroke-width:1;"/><polygon fill="#FF0000" points="224.9898,333.1938,232.2306,339.8699,229.7254,334.798,234.7974,332.2928,224.9898,333.1938" style="stroke:#FF0000;stroke-width:1;"/><path d="M328.5998,469.5938 L328.5998,509.5938 L433.5998,509.5938 L433.5998,479.5938 L423.5998,469.5938 L328.5998,469.5938" fill="#F5F5F5" style="stroke:#181818;stroke-width:0.5;"/><path d="M423.5998,469.5938 L423.5998,479.5938 L433.5998,479.5938 L423.5998,469.5938" fill="#F5F5F5" style="stroke:#181818;stroke-width:0.5;"/><text fill="#000000" font-family="sans-serif" font-size="13" lengthAdjust="spacing" textLength="80.0186" x="334.5998" y="486.6606">[Par&#225;metros</text><text fill="#000000" font-family="sans-serif" font-size="13" lengthAdjust="spacing" textLength="63.0068" x="342.8644" y="501.7935">Inv&#225;lidos]</text></g><!--link 3 to *end*crear_newton_cotes_a1--><g class="link" data-entity-1="3" data-entity-2=".end.crear_newton_cotes_a1" data-source-line="49" data-uid="lnk9" id="link_3_.end.crear_newton_cotes_a1"><path d="M194.5998,681.0238 C194.5998,693.3838 194.5998,701.7238 194.5998,711.1938" fill="none" id="3-to-*end*crear_newton_cotes_a1" style="stroke:#008000;stroke-width:1;"/><polygon fill="#008000" points="194.5998,717.1938,198.5998,708.1938,194.5998,712.1938,190.5998,708.1938,194.5998,717.1938" style="stroke:#008000;stroke-width:1;"/></g><g id=".calcularResultadoNewtonCotesA1"><rect fill="#FAF4B4" height="50" rx="12.5" ry="12.5" style="stroke:#C90000;stroke-width:0.5;" width="261.2813" x="252.9598" y="810.5969"/><line style="stroke:#C90000;stroke-width:0.5;" x1="252.9598" x2="514.241" y1="836.8938" y2="836.8938"/><text fill="#000000" font-family="sans-serif" font-size="14" lengthAdjust="spacing" textLength="241.2813" x="262.9598" y="828.592">:calcularResultadoNewtonCotesA1</text></g><!--link NEWTON_COTES_A1 to crear_newton_cotes_a1--><g class="link" data-entity-1="NEWTON_COTES_A1" data-entity-2="crear_newton_cotes_a1" data-source-line="18" data-uid="lnk2" id="link_NEWTON_COTES_A1_crear_newton_cotes_a1"><path d="M286.1998,94.7769 C240.4298,109.0569 191.5998,124.2969 191.5998,124.2969 C191.5998,124.2969 191.5998,174.2969 191.5998,174.2969 C191.5998,174.2969 192.3639,179.754 194.9139,198.104" fill="none" id="NEWTON_COTES_A1-to-crear_newton_cotes_a1" style="stroke:#008000;stroke-width:1;"/><polygon fill="#008000" points="195.7398,204.0469,198.4629,194.582,195.0516,199.0945,190.5391,195.6831,195.7398,204.0469" style="stroke:#008000;stroke-width:1;"/><path d="M196.5998,129.2969 L196.5998,169.2969 L503.5998,169.2969 L503.5998,139.2969 L493.5998,129.2969 L196.5998,129.2969" fill="#F5F5F5" style="stroke:#181818;stroke-width:0.5;"/><path d="M493.5998,129.2969 L493.5998,139.2969 L503.5998,139.2969 L493.5998,129.2969" fill="#F5F5F5" style="stroke:#181818;stroke-width:0.5;"/><text fill="#000000" font-family="sans-serif" font-size="13" font-weight="bold" lengthAdjust="spacing" textLength="114.0103" x="202.5998" y="146.3638">Cliente solicita:</text><text fill="#000000" font-family="sans-serif" font-size="13" lengthAdjust="spacing" textLength="286.438" x="202.5998" y="161.4966">- Crear operaci&#243;n newton cotes abierto n=1</text></g><!--link crear_newton_cotes_a1 to :calcularResultadoNewtonCotesA1--><g class="link" data-entity-1="crear_newton_cotes_a1" data-entity-2=".calcularResultadoNewtonCotesA1" data-source-line="53" data-uid="lnk11" id="link_crear_newton_cotes_a1_.calcularResultadoNewtonCotesA1"><path d="M348.0498,750.0769 C358.2398,774.2969 364.7433,789.7563 371.0533,804.7563" fill="none" id="crear_newton_cotes_a1-to-:calcularResultadoNewtonCotesA1" style="stroke:#008000;stroke-width:1;"/><polygon fill="#008000" points="373.3798,810.2869,373.577,800.44,371.441,805.6781,366.2029,803.542,373.3798,810.2869" style="stroke:#008000;stroke-width:1;"/></g><!--link :calcularResultadoNewtonCotesA1 to NEWTON_COTES_A1--><g class="link" data-entity-1=".calcularResultadoNewtonCotesA1" data-entity-2="NEWTON_COTES_A1" data-source-line="55" data-uid="lnk12" id="link_.calcularResultadoNewtonCotesA1_NEWTON_COTES_A1"><path d="M405.4598,810.4669 C428.2198,785.3369 460.5998,749.5969 460.5998,749.5969 C460.5998,749.5969 512.5998,174.2969 512.5998,174.2969 C512.5998,174.2969 512.5998,124.2969 512.5998,124.2969 C512.5998,124.2969 476.4667,111.1124 437.3067,96.8324" fill="none" id=":calcularResultadoNewtonCotesA1-to-NEWTON_COTES_A1" style="stroke:#008000;stroke-width:1;"/><polygon fill="#008000" points="431.6698,94.7769,438.7548,101.6181,436.3672,96.4898,441.4955,94.1023,431.6698,94.7769" style="stroke:#008000;stroke-width:1;"/></g><!--SRC=[fLBDQXin4BxlKmp9RS7GZPD30YsacnnoiKEJqeCnorWx3iAoPZFIDeJIXyapz17yOXsj_pQkIm-L5YHz4j_Fx4Hk83BCE4PUGcs5JBJiiomih6zGS0aXOYJuaG5yHhDu4cvzNR9ZWTCvpizdv-c6fIRPeERoWuxiPv_4yryvBj9y_zfPJ_6r8MZOlQP3baKR7S4DHNIwbXWOQeAlkfH2A31kID3OrIyF8tg9xA5KoG3NCqkY2Vt7GXMwAAFRRu_ZKLME7syVgck53u31vFH9YFnqy0bC8gzynrYPn5XXaNLfL4AjBJHJdfVEabSiiBF6HhpASyK76s-yzxPcWeu9iEUDVDqLQMlog70guFgw00nm0YSxuEmG6Eu1_IRv5Fgv2iMATyYP8WUvqiZp1niYBH64dblrIt2FidfRKXGEwvnf363UUfDQPtl6tMwckrq-KAjztU4ntNr5xuKRbaIC_oqyJC92zRO0VyXEUWgmORdptrTlpjOSfaVOTZ6qm5bgugF_hV_mog0phKFvGg5r4MjUzslNhgaR__6WptNGkBy1]--></g></svg>