<svg xmlns="http://www.w3.org/2000/svg" xmlns:xlink="http://www.w3.org/1999/xlink" contentStyleType="text/css" data-diagram-type="STATE" height="917px" preserveAspectRatio="none" style="width:425px;height:917px;background:#FFFFFF;" version="1.1" viewBox="0 0 425 917" width="425px" zoomAndPan="magnify"><title>Detalle Caso de Uso Abrir Integraci&#243;n de Romberg</title><defs/><g><g class="title" data-source-line="12"><text fill="#000000" font-family="sans-serif" font-size="14" font-weight="bold" lengthAdjust="spacing" textLength="397.8037" x="10" y="22.9951">Detalle Caso de Uso Abrir Integraci&#243;n de Romberg</text></g><path d="M35.3969,204.2969 L339.3969,204.2969 A12.5,12.5 0 0 1 351.8969,216.7969 L351.8969,230.5938 L22.8969,230.5938 L22.8969,216.7969 A12.5,12.5 0 0 1 35.3969,204.2969" fill="#FAF4B4" style="stroke:#FAF4B4;stroke-width:1;"/><rect fill="none" height="485.2969" rx="12.5" ry="12.5" style="stroke:#C90000;stroke-width:0.5;" width="329" x="22.8969" y="204.2969"/><line style="stroke:#C90000;stroke-width:0.5;" x1="22.8969" x2="351.8969" y1="230.5938" y2="230.5938"/><text fill="#000000" font-family="sans-serif" font-size="14" lengthAdjust="spacing" textLength="186.0811" x="94.3563" y="222.292">abrir_integracion_romberg</text><g id="abrir_integracion_romberg.1"><rect fill="#FAF4B4" height="50" rx="12.5" ry="12.5" style="stroke:#C90000;stroke-width:0.5;" width="50" x="34.8969" y="298.5938"/><line style="stroke:#C90000;stroke-width:0.5;" x1="34.8969" x2="84.8969" y1="324.8906" y2="324.8906"/><text fill="#000000" font-family="sans-serif" font-size="14" lengthAdjust="spacing" textLength="4.4502" x="57.6718" y="316.5889">&#160;</text></g><g id="abrir_integracion_romberg.2"><rect fill="#FAF4B4" height="50" rx="12.5" ry="12.5" style="stroke:#C90000;stroke-width:0.5;" width="50" x="34.8969" y="434.5938"/><line style="stroke:#C90000;stroke-width:0.5;" x1="34.8969" x2="84.8969" y1="460.8906" y2="460.8906"/><text fill="#000000" font-family="sans-serif" font-size="14" lengthAdjust="spacing" textLength="4.4502" x="57.6718" y="452.5889">&#160;</text></g><g id="abrir_integracion_romberg.3"><rect fill="#FAF4B4" height="50" rx="12.5" ry="12.5" style="stroke:#C90000;stroke-width:0.5;" width="50" x="34.8969" y="570.5938"/><line style="stroke:#C90000;stroke-width:0.5;" x1="34.8969" x2="84.8969" y1="596.8906" y2="596.8906"/><text fill="#000000" font-family="sans-serif" font-size="14" lengthAdjust="spacing" textLength="4.4502" x="57.6718" y="588.5889">&#160;</text></g><ellipse cx="59.8969" cy="251.5938" fill="#222222" rx="10" ry="10" style="stroke:#222222;stroke-width:1;"/><ellipse cx="59.8969" cy="668.5938" fill="none" rx="11" ry="11" style="stroke:#222222;stroke-width:1;"/><ellipse cx="59.8969" cy="668.5938" fill="#222222" rx="6" ry="6" style="stroke:#222222;stroke-width:1;"/><!--link *start*abrir_integracion_romberg to 1--><g class="link" data-entity-1="*start*abrir_integracion_romberg" data-entity-2="1" data-source-line="26" data-uid="lnk5" id="link_*start*abrir_integracion_romberg_1"><path d="M59.8969,262.0338 C59.8969,271.2938 59.8969,279.7838 59.8969,292.2738" fill="none" id="*start*abrir_integracion_romberg-to-1" style="stroke:#008000;stroke-width:1;"/><polygon fill="#008000" points="59.8969,298.2738,63.8969,289.2738,59.8969,293.2738,55.8969,289.2738,59.8969,298.2738" style="stroke:#008000;stroke-width:1;"/></g><!--link 1 to 2--><g class="link" data-entity-1="1" data-entity-2="2" data-source-line="27" data-uid="lnk6" id="link_1_2"><path d="M59.8969,348.8638 C59.8969,373.1438 59.8969,404.2838 59.8969,428.5037" fill="none" id="1-to-2" style="stroke:#008000;stroke-width:1;"/><polygon fill="#008000" points="59.8969,434.5037,63.8969,425.5037,59.8969,429.5037,55.8969,425.5037,59.8969,434.5037" style="stroke:#008000;stroke-width:1;"/><path d="M64.8969,371.5938 L64.8969,411.5938 L342.8969,411.5938 L342.8969,381.5938 L332.8969,371.5938 L64.8969,371.5938" fill="#F5F5F5" style="stroke:#181818;stroke-width:0.5;"/><path d="M332.8969,371.5938 L332.8969,381.5938 L342.8969,381.5938 L332.8969,371.5938" fill="#F5F5F5" style="stroke:#181818;stroke-width:0.5;"/><text fill="#000000" font-family="sans-serif" font-size="13" font-weight="bold" lengthAdjust="spacing" textLength="130.9204" x="70.8969" y="388.6606">Sistema requiere:</text><text fill="#000000" font-family="sans-serif" font-size="13" lengthAdjust="spacing" textLength="257.2197" x="70.8969" y="403.7935">- M&#233;todo integraci&#243;n romberg conocido</text></g><!--link 2 to 3--><g class="link" data-entity-1="2" data-entity-2="3" data-source-line="32" data-uid="lnk7" id="link_2_3"><path d="M59.8969,484.8638 C59.8969,509.1438 59.8969,540.2838 59.8969,564.5038" fill="none" id="2-to-3" style="stroke:#008000;stroke-width:1;"/><polygon fill="#008000" points="59.8969,570.5038,63.8969,561.5038,59.8969,565.5038,55.8969,561.5038,59.8969,570.5038" style="stroke:#008000;stroke-width:1;"/><path d="M64.8969,507.5938 L64.8969,547.5938 L342.8969,547.5938 L342.8969,517.5938 L332.8969,507.5938 L64.8969,507.5938" fill="#F5F5F5" style="stroke:#181818;stroke-width:0.5;"/><path d="M332.8969,507.5938 L332.8969,517.5938 L342.8969,517.5938 L332.8969,507.5938" fill="#F5F5F5" style="stroke:#181818;stroke-width:0.5;"/><text fill="#000000" font-family="sans-serif" font-size="13" font-weight="bold" lengthAdjust="spacing" textLength="144.1235" x="70.8969" y="524.6606">Usuario Selecciona:</text><text fill="#000000" font-family="sans-serif" font-size="13" lengthAdjust="spacing" textLength="257.2197" x="70.8969" y="539.7935">- M&#233;todo integraci&#243;n romberg conocido</text></g><!--link 3 to *end*abrir_integracion_romberg--><g class="link" data-entity-1="3" data-entity-2="*end*abrir_integracion_romberg" data-source-line="38" data-uid="lnk9" id="link_3_*end*abrir_integracion_romberg"><path d="M59.8969,621.0238 C59.8969,633.3838 59.8969,641.7238 59.8969,651.1938" fill="none" id="3-to-*end*abrir_integracion_romberg" style="stroke:#008000;stroke-width:1;"/><polygon fill="#008000" points="59.8969,657.1938,63.8969,648.1938,59.8969,652.1938,55.8969,648.1938,59.8969,657.1938" style="stroke:#008000;stroke-width:1;"/></g><g id="DIFERENCIACION_NUMERICA_E_INTEGRACION"><rect fill="#FAF4B4" height="50" rx="12.5" ry="12.5" style="stroke:#C90000;stroke-width:0.5;" width="341.9795" x="16.4069" y="44.2969"/><line style="stroke:#C90000;stroke-width:0.5;" x1="16.4069" x2="358.3863" y1="70.5938" y2="70.5938"/><text fill="#000000" font-family="sans-serif" font-size="14" lengthAdjust="spacing" textLength="321.9795" x="26.4069" y="62.292">DIFERENCIACION_NUMERICA_E_INTEGRACION</text></g><g id=":abrirIntegracionRomberg"><rect fill="#FAF4B4" height="50" rx="12.5" ry="12.5" style="stroke:#C90000;stroke-width:0.5;" width="201.0088" x="86.8969" y="750.5969"/><line style="stroke:#C90000;stroke-width:0.5;" x1="86.8969" x2="287.9056" y1="776.8938" y2="776.8938"/><text fill="#000000" font-family="sans-serif" font-size="14" lengthAdjust="spacing" textLength="181.0088" x="96.8969" y="768.592">:abrirIntegracionRomberg</text></g><g id="INTEGRACION_ROMBERG"><rect fill="#FAF4B4" height="50" rx="12.5" ry="12.5" style="stroke:#C90000;stroke-width:0.5;" width="196.4014" x="89.1969" y="861.5969"/><line style="stroke:#C90000;stroke-width:0.5;" x1="89.1969" x2="285.5982" y1="887.8938" y2="887.8938"/><text fill="#000000" font-family="sans-serif" font-size="14" lengthAdjust="spacing" textLength="176.4014" x="99.1969" y="879.592">INTEGRACION_ROMBERG</text></g><!--link DIFERENCIACION_NUMERICA_E_INTEGRACION to abrir_integracion_romberg--><g class="link" data-entity-1="DIFERENCIACION_NUMERICA_E_INTEGRACION" data-entity-2="abrir_integracion_romberg" data-source-line="15" data-uid="lnk3" id="link_DIFERENCIACION_NUMERICA_E_INTEGRACION_abrir_integracion_romberg"><path d="M187.3969,94.6569 C187.3969,119.0469 187.3969,153.2969 187.3969,198.0169" fill="none" id="DIFERENCIACION_NUMERICA_E_INTEGRACION-to-abrir_integracion_romberg" style="stroke:#008000;stroke-width:1;"/><polygon fill="#008000" points="187.3969,204.0169,191.3969,195.0169,187.3969,199.0169,183.3969,195.0169,187.3969,204.0169" style="stroke:#008000;stroke-width:1;"/><path d="M192.3969,129.2969 L192.3969,169.2969 L415.3969,169.2969 L415.3969,139.2969 L405.3969,129.2969 L192.3969,129.2969" fill="#F5F5F5" style="stroke:#181818;stroke-width:0.5;"/><path d="M405.3969,129.2969 L405.3969,139.2969 L415.3969,139.2969 L405.3969,129.2969" fill="#F5F5F5" style="stroke:#181818;stroke-width:0.5;"/><text fill="#000000" font-family="sans-serif" font-size="13" font-weight="bold" lengthAdjust="spacing" textLength="118.5742" x="198.3969" y="146.3638">Usuario solicita:</text><text fill="#000000" font-family="sans-serif" font-size="13" lengthAdjust="spacing" textLength="202.0967" x="198.3969" y="161.4966">- Abrir Integraci&#243;n de Romberg</text></g><!--link abrir_integracion_romberg to :abrirIntegracionRomberg--><g class="link" data-entity-1="abrir_integracion_romberg" data-entity-2=":abrirIntegracionRomberg" data-source-line="41" data-uid="lnk11" id="link_abrir_integracion_romberg_:abrirIntegracionRomberg"><path d="M187.3969,690.0569 C187.3969,714.2169 187.3969,729.3469 187.3969,744.4469" fill="none" id="abrir_integracion_romberg-to-:abrirIntegracionRomberg" style="stroke:#008000;stroke-width:1;"/><polygon fill="#008000" points="187.3969,750.4469,191.3969,741.4469,187.3969,745.4469,183.3969,741.4469,187.3969,750.4469" style="stroke:#008000;stroke-width:1;"/></g><!--link :abrirIntegracionRomberg to INTEGRACION_ROMBERG--><g class="link" data-entity-1=":abrirIntegracionRomberg" data-entity-2="INTEGRACION_ROMBERG" data-source-line="43" data-uid="lnk13" id="link_:abrirIntegracionRomberg_INTEGRACION_ROMBERG"><path d="M187.3969,801.0569 C187.3969,819.0069 187.3969,837.2869 187.3969,855.2169" fill="none" id=":abrirIntegracionRomberg-to-INTEGRACION_ROMBERG" style="stroke:#008000;stroke-width:1;"/><polygon fill="#008000" points="187.3969,861.2169,191.3969,852.2169,187.3969,856.2169,183.3969,852.2169,187.3969,861.2169" style="stroke:#008000;stroke-width:1;"/></g><!--SRC=[dL9DQy904BtlhnZgBH2e7ptKGq5ZAZaO8TQJI5YJCIp67RjP3rBwWthkJ_2FTJTgZD9Gw2Imx9ktC_CUKso4t775jr1ehX4-6C2G9vjCqLwc7kMaeBNcwzwgPpEaKbHdD7b-DC4-6Ikg8f8QQppPxvQT2udwi4FOKNwm5yQqq3d223NFpUdnWY15c9jZi592GI0rPeedulWjRIQYxGfLnXWR1Qz-v8TUCF22QHY7yuaV1TuWzkCWVFF7KGcxYrQc4ENIVG5k2yRYKf1ahCx5IXKaxNmReyLnviMUAq5GK2uIeNdVSGpk_Z4JohGqn4WklMriQ0qxKTh02tY0Xmhet0FTAs3-XRE4kgQsmTetICSWTtfiECvC51gt71I-xmKgF6couSBa-AKf9H1rPUTX8I59YKZ9i2k5O0QjT-t-rlNgumnpJAm3_DBrFptDfNlJrRXX5wpHvpgtNxA2AwdQfAPC_NLjfU9eEXdwqVW7]--></g></svg>