<svg xmlns="http://www.w3.org/2000/svg" xmlns:xlink="http://www.w3.org/1999/xlink" contentStyleType="text/css" data-diagram-type="STATE" height="917px" preserveAspectRatio="none" style="width:444px;height:917px;background:#FFFFFF;" version="1.1" viewBox="0 0 444 917" width="444px" zoomAndPan="magnify"><title>Detalle Caso de Uso Abrir Regla Simpson Compuesta</title><defs/><g><g class="title" data-source-line="12"><text fill="#000000" font-family="sans-serif" font-size="14" font-weight="bold" lengthAdjust="spacing" textLength="416.8281" x="10" y="22.9951">Detalle Caso de Uso Abrir Regla Simpson Compuesta</text></g><path d="M37.9091,204.2969 L338.9091,204.2969 A12.5,12.5 0 0 1 351.4091,216.7969 L351.4091,230.5938 L25.4091,230.5938 L25.4091,216.7969 A12.5,12.5 0 0 1 37.9091,204.2969" fill="#FAF4B4"/><rect fill="none" height="485.2969" rx="12.5" ry="12.5" style="stroke:#C90000;stroke-width:0.5;" width="326" x="25.4091" y="204.2969"/><line style="stroke:#C90000;stroke-width:0.5;" x1="25.4091" x2="351.4091" y1="230.5938" y2="230.5938"/><text fill="#000000" font-family="sans-serif" font-size="14" lengthAdjust="spacing" textLength="182.9434" x="96.9374" y="222.292">abrir_simpson_compuesta</text><g id="abrir_simpson_compuesta.1"><rect fill="#FAF4B4" height="50" rx="12.5" ry="12.5" style="stroke:#C90000;stroke-width:0.5;" width="50" x="37.4091" y="298.5938"/><line style="stroke:#C90000;stroke-width:0.5;" x1="37.4091" x2="87.4091" y1="324.8906" y2="324.8906"/><text fill="#000000" font-family="sans-serif" font-size="14" lengthAdjust="spacing" textLength="4.4502" x="60.184" y="316.5889">&#160;</text></g><g id="abrir_simpson_compuesta.2"><rect fill="#FAF4B4" height="50" rx="12.5" ry="12.5" style="stroke:#C90000;stroke-width:0.5;" width="50" x="37.4091" y="434.5938"/><line style="stroke:#C90000;stroke-width:0.5;" x1="37.4091" x2="87.4091" y1="460.8906" y2="460.8906"/><text fill="#000000" font-family="sans-serif" font-size="14" lengthAdjust="spacing" textLength="4.4502" x="60.184" y="452.5889">&#160;</text></g><g id="abrir_simpson_compuesta.3"><rect fill="#FAF4B4" height="50" rx="12.5" ry="12.5" style="stroke:#C90000;stroke-width:0.5;" width="50" x="37.4091" y="570.5938"/><line style="stroke:#C90000;stroke-width:0.5;" x1="37.4091" x2="87.4091" y1="596.8906" y2="596.8906"/><text fill="#000000" font-family="sans-serif" font-size="14" lengthAdjust="spacing" textLength="4.4502" x="60.184" y="588.5889">&#160;</text></g><ellipse cx="62.4091" cy="251.5938" fill="#222222" rx="10" ry="10" style="stroke:#222222;stroke-width:1;"/><ellipse cx="62.4091" cy="668.5938" fill="none" rx="11" ry="11" style="stroke:#222222;stroke-width:1;"/><ellipse cx="62.4091" cy="668.5938" fill="#222222" rx="6" ry="6" style="stroke:#222222;stroke-width:1;"/><!--link *start*abrir_simpson_compuesta to 1--><g class="link" data-entity-1=".start.abrir_simpson_compuesta" data-entity-2="1" data-source-line="26" data-uid="lnk5" id="link_.start.abrir_simpson_compuesta_1"><path d="M62.4091,262.0338 C62.4091,271.2938 62.4091,279.7838 62.4091,292.2738" fill="none" id="*start*abrir_simpson_compuesta-to-1" style="stroke:#008000;stroke-width:1;"/><polygon fill="#008000" points="62.4091,298.2738,66.4091,289.2738,62.4091,293.2738,58.4091,289.2738,62.4091,298.2738" style="stroke:#008000;stroke-width:1;"/></g><!--link 1 to 2--><g class="link" data-entity-1="1" data-entity-2="2" data-source-line="27" data-uid="lnk6" id="link_1_2"><path d="M62.4091,348.8638 C62.4091,373.1438 62.4091,404.2838 62.4091,428.5037" fill="none" id="1-to-2" style="stroke:#008000;stroke-width:1;"/><polygon fill="#008000" points="62.4091,434.5037,66.4091,425.5037,62.4091,429.5037,58.4091,425.5037,62.4091,434.5037" style="stroke:#008000;stroke-width:1;"/><path d="M67.4091,371.5938 L67.4091,411.5938 L342.4091,411.5938 L342.4091,381.5938 L332.4091,371.5938 L67.4091,371.5938" fill="#F5F5F5" style="stroke:#181818;stroke-width:0.5;"/><path d="M332.4091,371.5938 L332.4091,381.5938 L342.4091,381.5938 L332.4091,371.5938" fill="#F5F5F5" style="stroke:#181818;stroke-width:0.5;"/><text fill="#000000" font-family="sans-serif" font-size="13" font-weight="bold" lengthAdjust="spacing" textLength="130.9204" x="73.4091" y="388.6606">Sistema requiere:</text><text fill="#000000" font-family="sans-serif" font-size="13" lengthAdjust="spacing" textLength="254.2935" x="73.4091" y="403.7935">- M&#233;todo simpson compuesto conocido</text></g><!--link 2 to 3--><g class="link" data-entity-1="2" data-entity-2="3" data-source-line="32" data-uid="lnk7" id="link_2_3"><path d="M62.4091,484.8638 C62.4091,509.1438 62.4091,540.2838 62.4091,564.5038" fill="none" id="2-to-3" style="stroke:#008000;stroke-width:1;"/><polygon fill="#008000" points="62.4091,570.5038,66.4091,561.5038,62.4091,565.5038,58.4091,561.5038,62.4091,570.5038" style="stroke:#008000;stroke-width:1;"/><path d="M67.4091,507.5938 L67.4091,547.5938 L342.4091,547.5938 L342.4091,517.5938 L332.4091,507.5938 L67.4091,507.5938" fill="#F5F5F5" style="stroke:#181818;stroke-width:0.5;"/><path d="M332.4091,507.5938 L332.4091,517.5938 L342.4091,517.5938 L332.4091,507.5938" fill="#F5F5F5" style="stroke:#181818;stroke-width:0.5;"/><text fill="#000000" font-family="sans-serif" font-size="13" font-weight="bold" lengthAdjust="spacing" textLength="139.5596" x="73.4091" y="524.6606">Cliente Selecciona:</text><text fill="#000000" font-family="sans-serif" font-size="13" lengthAdjust="spacing" textLength="254.2935" x="73.4091" y="539.7935">- M&#233;todo simpson compuesto conocido</text></g><!--link 3 to *end*abrir_simpson_compuesta--><g class="link" data-entity-1="3" data-entity-2=".end.abrir_simpson_compuesta" data-source-line="38" data-uid="lnk9" id="link_3_.end.abrir_simpson_compuesta"><path d="M62.4091,621.0238 C62.4091,633.3838 62.4091,641.7238 62.4091,651.1938" fill="none" id="3-to-*end*abrir_simpson_compuesta" style="stroke:#008000;stroke-width:1;"/><polygon fill="#008000" points="62.4091,657.1938,66.4091,648.1938,62.4091,652.1938,58.4091,648.1938,62.4091,657.1938" style="stroke:#008000;stroke-width:1;"/></g><g id="DIFERENCIACION_NUMERICA_E_INTEGRACION"><rect fill="#FAF4B4" height="50" rx="12.5" ry="12.5" style="stroke:#C90000;stroke-width:0.5;" width="341.9795" x="17.4191" y="44.2969"/><line style="stroke:#C90000;stroke-width:0.5;" x1="17.4191" x2="359.3986" y1="70.5938" y2="70.5938"/><text fill="#000000" font-family="sans-serif" font-size="14" lengthAdjust="spacing" textLength="321.9795" x="27.4191" y="62.292">DIFERENCIACION_NUMERICA_E_INTEGRACION</text></g><g id=".abrirSimpsonCompuesta"><rect fill="#FAF4B4" height="50" rx="12.5" ry="12.5" style="stroke:#C90000;stroke-width:0.5;" width="197.3311" x="89.7391" y="750.5969"/><line style="stroke:#C90000;stroke-width:0.5;" x1="89.7391" x2="287.0701" y1="776.8938" y2="776.8938"/><text fill="#000000" font-family="sans-serif" font-size="14" lengthAdjust="spacing" textLength="177.3311" x="99.7391" y="768.592">:abrirSimpsonCompuesta</text></g><g id="SIMPSON_COMPUESTA"><rect fill="#FAF4B4" height="50" rx="12.5" ry="12.5" style="stroke:#C90000;stroke-width:0.5;" width="178.3408" x="99.2391" y="861.5969"/><line style="stroke:#C90000;stroke-width:0.5;" x1="99.2391" x2="277.5799" y1="887.8938" y2="887.8938"/><text fill="#000000" font-family="sans-serif" font-size="14" lengthAdjust="spacing" textLength="158.3408" x="109.2391" y="879.592">SIMPSON_COMPUESTA</text></g><!--link DIFERENCIACION_NUMERICA_E_INTEGRACION to abrir_simpson_compuesta--><g class="link" data-entity-1="DIFERENCIACION_NUMERICA_E_INTEGRACION" data-entity-2="abrir_simpson_compuesta" data-source-line="15" data-uid="lnk3" id="link_DIFERENCIACION_NUMERICA_E_INTEGRACION_abrir_simpson_compuesta"><path d="M188.4091,94.6569 C188.4091,119.0469 188.4091,153.2969 188.4091,198.0169" fill="none" id="DIFERENCIACION_NUMERICA_E_INTEGRACION-to-abrir_simpson_compuesta" style="stroke:#008000;stroke-width:1;"/><polygon fill="#008000" points="188.4091,204.0169,192.4091,195.0169,188.4091,199.0169,184.4091,195.0169,188.4091,204.0169" style="stroke:#008000;stroke-width:1;"/><path d="M193.4091,129.2969 L193.4091,169.2969 L433.4091,169.2969 L433.4091,139.2969 L423.4091,129.2969 L193.4091,129.2969" fill="#F5F5F5" style="stroke:#181818;stroke-width:0.5;"/><path d="M423.4091,129.2969 L423.4091,139.2969 L433.4091,139.2969 L423.4091,129.2969" fill="#F5F5F5" style="stroke:#181818;stroke-width:0.5;"/><text fill="#000000" font-family="sans-serif" font-size="13" font-weight="bold" lengthAdjust="spacing" textLength="114.0103" x="199.4091" y="146.3638">Cliente solicita:</text><text fill="#000000" font-family="sans-serif" font-size="13" lengthAdjust="spacing" textLength="219.2925" x="199.4091" y="161.4966">- Abrir Regla Simpson Compuesta</text></g><!--link abrir_simpson_compuesta to :abrirSimpsonCompuesta--><g class="link" data-entity-1="abrir_simpson_compuesta" data-entity-2=".abrirSimpsonCompuesta" data-source-line="41" data-uid="lnk11" id="link_abrir_simpson_compuesta_.abrirSimpsonCompuesta"><path d="M188.4091,690.0569 C188.4091,714.2169 188.4091,729.3469 188.4091,744.4469" fill="none" id="abrir_simpson_compuesta-to-:abrirSimpsonCompuesta" style="stroke:#008000;stroke-width:1;"/><polygon fill="#008000" points="188.4091,750.4469,192.4091,741.4469,188.4091,745.4469,184.4091,741.4469,188.4091,750.4469" style="stroke:#008000;stroke-width:1;"/></g><!--link :abrirSimpsonCompuesta to SIMPSON_COMPUESTA--><g class="link" data-entity-1=".abrirSimpsonCompuesta" data-entity-2="SIMPSON_COMPUESTA" data-source-line="43" data-uid="lnk13" id="link_.abrirSimpsonCompuesta_SIMPSON_COMPUESTA"><path d="M188.4091,801.0569 C188.4091,819.0069 188.4091,837.2869 188.4091,855.2169" fill="none" id=":abrirSimpsonCompuesta-to-SIMPSON_COMPUESTA" style="stroke:#008000;stroke-width:1;"/><polygon fill="#008000" points="188.4091,861.2169,192.4091,852.2169,188.4091,856.2169,184.4091,852.2169,188.4091,861.2169" style="stroke:#008000;stroke-width:1;"/></g><!--SRC=[bL9BRi8m4Dtx5AEoYuHKFbsKHIKQqYgB14HWXL1aaW5P63krpG9LFL3FqOjr4du1WQewaHo_JEPzCdOjLC4Dtu1rt25yCe1NdgrNHczLxckf3JIMVDbTTCitskHe3cZs_4YBVJ5cJqsKljlZgRmkgwLGw7O5Gg7bhZmmveIJ20DqNDBkSwiXHvZIrbyOOM2CAyaX4Pl2QWM-tXHR9EMCiK7u5eo3s0_xVZYCqtWQ1UFGxwT16iQJu7rSmSrPOsKGrRpv0hnicDfzgpGxjQeyK7CIj2OddkTBWOemgwN8XECzpoEy-OSYL7aL1nckahr3LuQrBsW1j_003oUWVGrqpW3TCsyETJyjmbeNI9kGApVbyhn4M8SR3WO_jW8DxXsLgmdHpxVJkOQ3KZWgrVIaT2PoJQKdSq0gwvITMvJd21EKc6L2Atwa_3SX7JeNb9H3ELPtygrNzggQmw-gpSvjlFvb4aQZXARA7qQZQP1C-hy0]--></g></svg>