<svg xmlns="http://www.w3.org/2000/svg" xmlns:xlink="http://www.w3.org/1999/xlink" contentStyleType="text/css" data-diagram-type="STATE" height="866px" preserveAspectRatio="none" style="width:537px;height:866px;background:#FFFFFF;" version="1.1" viewBox="0 0 537 866" width="537px" zoomAndPan="magnify"><title>Detalle Caso de Uso Crear Operaci&#243;n Newton Cotes Cerrado n=1</title><defs/><g><g class="title" data-source-line="14"><text fill="#000000" font-family="sans-serif" font-size="14" font-weight="bold" lengthAdjust="spacing" textLength="509.1406" x="10" y="22.9951">Detalle Caso de Uso Crear Operaci&#243;n Newton Cotes Cerrado n=1</text></g><g id="NEWTON_COTES_C1"><rect fill="#FAF4B4" height="50" rx="12.5" ry="12.5" style="stroke:#C90000;stroke-width:0.5;" width="162.9668" x="285.2206" y="44.2969"/><line style="stroke:#C90000;stroke-width:0.5;" x1="285.2206" x2="448.1874" y1="70.5938" y2="70.5938"/><text fill="#000000" font-family="sans-serif" font-size="14" lengthAdjust="spacing" textLength="142.9668" x="295.2206" y="62.292">NEWTON_COTES_C1</text></g><path d="M38.2006,204.2969 L433.2006,204.2969 A12.5,12.5 0 0 1 445.7006,216.7969 L445.7006,230.5938 L25.7006,230.5938 L25.7006,216.7969 A12.5,12.5 0 0 1 38.2006,204.2969" fill="#FAF4B4" style="stroke:#FAF4B4;stroke-width:1;"/><rect fill="none" height="545.2969" rx="12.5" ry="12.5" style="stroke:#C90000;stroke-width:0.5;" width="420" x="25.7006" y="204.2969"/><line style="stroke:#C90000;stroke-width:0.5;" x1="25.7006" x2="445.7006" y1="230.5938" y2="230.5938"/><text fill="#000000" font-family="sans-serif" font-size="14" lengthAdjust="spacing" textLength="163.5293" x="153.9359" y="222.292">crear_newton_cotes_c1</text><g id="crear_newton_cotes_c1.1"><rect fill="#FAF4B4" height="50" rx="12.5" ry="12.5" style="stroke:#C90000;stroke-width:0.5;" width="50" x="176.7006" y="298.5938"/><line style="stroke:#C90000;stroke-width:0.5;" x1="176.7006" x2="226.7006" y1="324.8906" y2="324.8906"/><text fill="#000000" font-family="sans-serif" font-size="14" lengthAdjust="spacing" textLength="4.4502" x="199.4755" y="316.5889">&#160;</text></g><g id="crear_newton_cotes_c1.2"><rect fill="#FAF4B4" height="50" rx="12.5" ry="12.5" style="stroke:#C90000;stroke-width:0.5;" width="50" x="37.7006" y="464.5938"/><line style="stroke:#C90000;stroke-width:0.5;" x1="37.7006" x2="87.7006" y1="490.8906" y2="490.8906"/><text fill="#000000" font-family="sans-serif" font-size="14" lengthAdjust="spacing" textLength="4.4502" x="60.4755" y="482.5889">&#160;</text></g><g id="crear_newton_cotes_c1.3"><rect fill="#FAF4B4" height="50" rx="12.5" ry="12.5" style="stroke:#C90000;stroke-width:0.5;" width="50" x="170.7006" y="630.5938"/><line style="stroke:#C90000;stroke-width:0.5;" x1="170.7006" x2="220.7006" y1="656.8906" y2="656.8906"/><text fill="#000000" font-family="sans-serif" font-size="14" lengthAdjust="spacing" textLength="4.4502" x="193.4755" y="648.5889">&#160;</text></g><ellipse cx="201.7006" cy="251.5938" fill="#222222" rx="10" ry="10" style="stroke:#222222;stroke-width:1;"/><ellipse cx="195.7006" cy="728.5938" fill="none" rx="11" ry="11" style="stroke:#222222;stroke-width:1;"/><ellipse cx="195.7006" cy="728.5938" fill="#222222" rx="6" ry="6" style="stroke:#222222;stroke-width:1;"/><!--link *start*crear_newton_cotes_c1 to 1--><g class="link" data-entity-1="*start*crear_newton_cotes_c1" data-entity-2="1" data-source-line="29" data-uid="lnk4" id="link_*start*crear_newton_cotes_c1_1"><path d="M201.7006,262.0338 C201.7006,271.2938 201.7006,279.7838 201.7006,292.2738" fill="none" id="*start*crear_newton_cotes_c1-to-1" style="stroke:#008000;stroke-width:1;"/><polygon fill="#008000" points="201.7006,298.2738,205.7006,289.2738,201.7006,293.2738,197.7006,289.2738,201.7006,298.2738" style="stroke:#008000;stroke-width:1;"/></g><!--link 1 to 2--><g class="link" data-entity-1="1" data-entity-2="2" data-source-line="30" data-uid="lnk5" id="link_1_2"><path d="M176.2006,333.0938 C139.3806,345.3638 75.7006,366.5938 75.7006,366.5938 C75.7006,366.5938 69.7257,422.6275 65.9357,458.2275" fill="none" id="1-to-2" style="stroke:#008000;stroke-width:1;"/><polygon fill="#008000" points="65.3006,464.1938,70.2309,455.6678,65.8299,459.2218,62.2758,454.8209,65.3006,464.1938" style="stroke:#008000;stroke-width:1;"/><path d="M80.7006,371.5938 L80.7006,441.5938 L321.7006,441.5938 L321.7006,381.5938 L311.7006,371.5938 L80.7006,371.5938" fill="#F5F5F5" style="stroke:#181818;stroke-width:0.5;"/><path d="M311.7006,371.5938 L311.7006,381.5938 L321.7006,381.5938 L311.7006,371.5938" fill="#F5F5F5" style="stroke:#181818;stroke-width:0.5;"/><text fill="#000000" font-family="sans-serif" font-size="13" font-weight="bold" lengthAdjust="spacing" textLength="220.5874" x="86.7006" y="388.6606">Sistema requiere Par&#225;metros:</text><text fill="#000000" font-family="sans-serif" font-size="13" lengthAdjust="spacing" textLength="56.8306" x="86.7006" y="403.7935">- funcion</text><text fill="#000000" font-family="sans-serif" font-size="13" lengthAdjust="spacing" textLength="16.7896" x="86.7006" y="418.9263">- a</text><text fill="#000000" font-family="sans-serif" font-size="13" lengthAdjust="spacing" textLength="17.0752" x="86.7006" y="434.0591">- b</text></g><!--link 2 to 3--><g class="link" data-entity-1="2" data-entity-2="3" data-source-line="37" data-uid="lnk6" id="link_2_3"><path d="M56.3006,515.0238 C53.8806,524.2638 51.7006,532.5938 51.7006,532.5938 C51.7006,532.5938 51.7006,612.5938 51.7006,612.5938 C51.7006,612.5938 123.1907,633.4434 164.5307,645.5034" fill="none" id="2-to-3" style="stroke:#008000;stroke-width:1;"/><polygon fill="#008000" points="170.2906,647.1838,162.7709,640.8233,165.4906,645.7835,160.5305,648.5032,170.2906,647.1838" style="stroke:#008000;stroke-width:1;"/><path d="M56.7006,537.5938 L56.7006,607.5938 L321.7006,607.5938 L321.7006,547.5938 L311.7006,537.5938 L56.7006,537.5938" fill="#F5F5F5" style="stroke:#181818;stroke-width:0.5;"/><path d="M311.7006,537.5938 L311.7006,547.5938 L321.7006,547.5938 L311.7006,537.5938" fill="#F5F5F5" style="stroke:#181818;stroke-width:0.5;"/><text fill="#000000" font-family="sans-serif" font-size="13" font-weight="bold" lengthAdjust="spacing" textLength="244.1499" x="62.7006" y="554.6606">Usuario Proporciona Par&#225;metros:</text><text fill="#000000" font-family="sans-serif" font-size="13" lengthAdjust="spacing" textLength="56.8306" x="70.9652" y="569.7935">- funcion</text><text fill="#000000" font-family="sans-serif" font-size="13" lengthAdjust="spacing" textLength="16.7896" x="70.9652" y="584.9263">- a</text><text fill="#000000" font-family="sans-serif" font-size="13" lengthAdjust="spacing" textLength="17.0752" x="70.9652" y="600.0591">- b</text></g><!--link 3 to 1--><g class="link" data-entity-1="3" data-entity-2="1" data-source-line="44" data-uid="lnk7" id="link_3_1"><path d="M220.9606,646.4938 C259.0306,634.2938 326.7006,612.5938 326.7006,612.5938 C326.7006,612.5938 326.7006,366.5938 326.7006,366.5938 C326.7006,366.5938 269.2081,347.2747 232.6881,335.0047" fill="none" id="3-to-1" style="stroke:#FF0000;stroke-width:1;"/><polygon fill="#FF0000" points="227.0006,333.0938,234.258,339.7518,231.7402,334.6862,236.8059,332.1684,227.0006,333.0938" style="stroke:#FF0000;stroke-width:1;"/><path d="M331.7006,469.5938 L331.7006,509.5938 L436.7006,509.5938 L436.7006,479.5938 L426.7006,469.5938 L331.7006,469.5938" fill="#F5F5F5" style="stroke:#181818;stroke-width:0.5;"/><path d="M426.7006,469.5938 L426.7006,479.5938 L436.7006,479.5938 L426.7006,469.5938" fill="#F5F5F5" style="stroke:#181818;stroke-width:0.5;"/><text fill="#000000" font-family="sans-serif" font-size="13" lengthAdjust="spacing" textLength="80.0186" x="337.7006" y="486.6606">[Par&#225;metros</text><text fill="#000000" font-family="sans-serif" font-size="13" lengthAdjust="spacing" textLength="63.0068" x="345.9652" y="501.7935">Inv&#225;lidos]</text></g><!--link 3 to *end*crear_newton_cotes_c1--><g class="link" data-entity-1="3" data-entity-2="*end*crear_newton_cotes_c1" data-source-line="49" data-uid="lnk9" id="link_3_*end*crear_newton_cotes_c1"><path d="M195.7006,681.0238 C195.7006,693.3838 195.7006,701.7238 195.7006,711.1938" fill="none" id="3-to-*end*crear_newton_cotes_c1" style="stroke:#008000;stroke-width:1;"/><polygon fill="#008000" points="195.7006,717.1938,199.7006,708.1938,195.7006,712.1938,191.7006,708.1938,195.7006,717.1938" style="stroke:#008000;stroke-width:1;"/></g><g id=":calcularResultadoNewtonCotesC1"><rect fill="#FAF4B4" height="50" rx="12.5" ry="12.5" style="stroke:#C90000;stroke-width:0.5;" width="261.4795" x="255.9606" y="810.5969"/><line style="stroke:#C90000;stroke-width:0.5;" x1="255.9606" x2="517.4401" y1="836.8938" y2="836.8938"/><text fill="#000000" font-family="sans-serif" font-size="14" lengthAdjust="spacing" textLength="241.4795" x="265.9606" y="828.592">:calcularResultadoNewtonCotesC1</text></g><!--link NEWTON_COTES_C1 to crear_newton_cotes_c1--><g class="link" data-entity-1="NEWTON_COTES_C1" data-entity-2="crear_newton_cotes_c1" data-source-line="18" data-uid="lnk2" id="link_NEWTON_COTES_C1_crear_newton_cotes_c1"><path d="M287.3906,94.7769 C241.0906,109.0569 191.7006,124.2969 191.7006,124.2969 C191.7006,124.2969 191.7006,174.2969 191.7006,174.2969 C191.7006,174.2969 192.4935,179.7599 195.1735,198.1099" fill="none" id="NEWTON_COTES_C1-to-crear_newton_cotes_c1" style="stroke:#008000;stroke-width:1;"/><polygon fill="#008000" points="196.0406,204.0469,198.6979,194.5633,195.318,199.0994,190.7819,195.7194,196.0406,204.0469" style="stroke:#008000;stroke-width:1;"/><path d="M196.7006,129.2969 L196.7006,169.2969 L507.7006,169.2969 L507.7006,139.2969 L497.7006,129.2969 L196.7006,129.2969" fill="#F5F5F5" style="stroke:#181818;stroke-width:0.5;"/><path d="M497.7006,129.2969 L497.7006,139.2969 L507.7006,139.2969 L497.7006,129.2969" fill="#F5F5F5" style="stroke:#181818;stroke-width:0.5;"/><text fill="#000000" font-family="sans-serif" font-size="13" font-weight="bold" lengthAdjust="spacing" textLength="118.5742" x="202.7006" y="146.3638">Usuario solicita:</text><text fill="#000000" font-family="sans-serif" font-size="13" lengthAdjust="spacing" textLength="290.2212" x="202.7006" y="161.4966">- Crear operaci&#243;n newton cotes cerrado n=1</text></g><!--link crear_newton_cotes_c1 to :calcularResultadoNewtonCotesC1--><g class="link" data-entity-1="crear_newton_cotes_c1" data-entity-2=":calcularResultadoNewtonCotesC1" data-source-line="53" data-uid="lnk11" id="link_crear_newton_cotes_c1_:calcularResultadoNewtonCotesC1"><path d="M350.9206,750.0769 C361.1706,774.2969 367.7215,789.7616 374.0715,804.7616" fill="none" id="crear_newton_cotes_c1-to-:calcularResultadoNewtonCotesC1" style="stroke:#008000;stroke-width:1;"/><polygon fill="#008000" points="376.4106,810.2869,376.5855,800.4396,374.4614,805.6825,369.2185,803.5583,376.4106,810.2869" style="stroke:#008000;stroke-width:1;"/></g><!--link :calcularResultadoNewtonCotesC1 to NEWTON_COTES_C1--><g class="link" data-entity-1=":calcularResultadoNewtonCotesC1" data-entity-2="NEWTON_COTES_C1" data-source-line="55" data-uid="lnk12" id="link_:calcularResultadoNewtonCotesC1_NEWTON_COTES_C1"><path d="M408.2806,810.4669 C430.7406,785.3369 462.7006,749.5969 462.7006,749.5969 C462.7006,749.5969 516.7006,174.2969 516.7006,174.2969 C516.7006,174.2969 516.7006,124.2969 516.7006,124.2969 C516.7006,124.2969 480.0163,111.0881 440.3263,96.8081" fill="none" id=":calcularResultadoNewtonCotesC1-to-NEWTON_COTES_C1" style="stroke:#008000;stroke-width:1;"/><polygon fill="#008000" points="434.6806,94.7769,441.795,101.5876,439.3853,96.4696,444.5033,94.06,434.6806,94.7769" style="stroke:#008000;stroke-width:1;"/></g><!--SRC=[fLBDRjim3BxxAOZsPY30t7I75LWFythO9IdM5Zq4WS78J2544JrAtb0CUvW-mnuXBrRA-NEo53sCDY3f4_5z_2X6RY0op3X6Na9jXKoqxBCiBAnlK7098M8a-9q1V46pU19kVLsoOu7pESulPvVfXgKcsQ3cqmUDx4-VnFER71_JTvZjhAVut10qx9xJ8SkYZOxWAqLqkfOO66g21rrA8HGODoHexEglXn7zYkoXLCa09ObWpU0_5whGMHdTFDwFHrKvlh-vgqg5Zu31vFn9YFnqS0qcaLU-OwnCOgnCaNLkL49BMwYdF7y8BOfb2EoiiH6lybpnmQOstjUsPeAE2KolDl9rrwHjaIU5KmFNrmLWW3Cusm4Nny1m3-W_oQVGzrKeLXmW5ueS-KgHvtSsH5eY2FreBGd1BShgPKbHEAnzfXZ0lFKcZSxsZBlTJ7SxVw2bzdM7ftJt7RqLRbWICVwty3092zNR1lmZE-afm8Rbc_-vUd6svZ0zmRQpeGtEqX2VVBT-ufL1Prg7yfr2wwA-_tfUkt5Dq_XEGf_hQ71V0G00]--></g></svg>