<svg xmlns="http://www.w3.org/2000/svg" xmlns:xlink="http://www.w3.org/1999/xlink" contentStyleType="text/css" data-diagram-type="STATE" height="1007px" preserveAspectRatio="none" style="width:516px;height:1007px;background:#FFFFFF;" version="1.1" viewBox="0 0 516 1007" width="516px" zoomAndPan="magnify"><title>Detalle Caso de Uso Crear Operaci&#243;n Trapezoidal Compuesta</title><defs/><g><g class="title" data-source-line="12"><text fill="#000000" font-family="sans-serif" font-size="14" font-weight="bold" lengthAdjust="spacing" textLength="481.1406" x="10.4297" y="22.9951">Detalle Caso de Uso Crear Operaci&#243;n Trapezoidal Compuesta</text></g><path d="M19.5,204.2969 L414.5,204.2969 A12.5,12.5 0 0 1 427,216.7969 L427,230.5938 L7,230.5938 L7,216.7969 A12.5,12.5 0 0 1 19.5,204.2969" fill="#FAF4B4" style="stroke:#FAF4B4;stroke-width:1;"/><rect fill="none" height="575.2969" rx="12.5" ry="12.5" style="stroke:#C90000;stroke-width:0.5;" width="420" x="7" y="204.2969"/><line style="stroke:#C90000;stroke-width:0.5;" x1="7" x2="427" y1="230.5938" y2="230.5938"/><text fill="#000000" font-family="sans-serif" font-size="14" lengthAdjust="spacing" textLength="206.5205" x="113.7397" y="222.292">crear_trapezoidal_compuesta</text><g id="crear_trapezoidal_compuesta.1"><rect fill="#FAF4B4" height="50" rx="12.5" ry="12.5" style="stroke:#C90000;stroke-width:0.5;" width="50" x="158" y="298.5938"/><line style="stroke:#C90000;stroke-width:0.5;" x1="158" x2="208" y1="324.8906" y2="324.8906"/><text fill="#000000" font-family="sans-serif" font-size="14" lengthAdjust="spacing" textLength="4.4502" x="180.7749" y="316.5889">&#160;</text></g><g id="crear_trapezoidal_compuesta.2"><rect fill="#FAF4B4" height="50" rx="12.5" ry="12.5" style="stroke:#C90000;stroke-width:0.5;" width="50" x="19" y="479.5938"/><line style="stroke:#C90000;stroke-width:0.5;" x1="19" x2="69" y1="505.8906" y2="505.8906"/><text fill="#000000" font-family="sans-serif" font-size="14" lengthAdjust="spacing" textLength="4.4502" x="41.7749" y="497.5889">&#160;</text></g><g id="crear_trapezoidal_compuesta.3"><rect fill="#FAF4B4" height="50" rx="12.5" ry="12.5" style="stroke:#C90000;stroke-width:0.5;" width="50" x="152" y="660.5938"/><line style="stroke:#C90000;stroke-width:0.5;" x1="152" x2="202" y1="686.8906" y2="686.8906"/><text fill="#000000" font-family="sans-serif" font-size="14" lengthAdjust="spacing" textLength="4.4502" x="174.7749" y="678.5889">&#160;</text></g><ellipse cx="183" cy="251.5938" fill="#222222" rx="10" ry="10" style="stroke:#222222;stroke-width:1;"/><ellipse cx="177" cy="758.5938" fill="none" rx="11" ry="11" style="stroke:#222222;stroke-width:1;"/><ellipse cx="177" cy="758.5938" fill="#222222" rx="6" ry="6" style="stroke:#222222;stroke-width:1;"/><!--link *start*crear_trapezoidal_compuesta to 1--><g class="link" data-entity-1="*start*crear_trapezoidal_compuesta" data-entity-2="1" data-source-line="26" data-uid="lnk5" id="link_*start*crear_trapezoidal_compuesta_1"><path d="M183,262.0338 C183,271.2938 183,279.7838 183,292.2738" fill="none" id="*start*crear_trapezoidal_compuesta-to-1" style="stroke:#008000;stroke-width:1;"/><polygon fill="#008000" points="183,298.2738,187,289.2738,183,293.2738,179,289.2738,183,298.2738" style="stroke:#008000;stroke-width:1;"/></g><!--link 1 to 2--><g class="link" data-entity-1="1" data-entity-2="2" data-source-line="27" data-uid="lnk6" id="link_1_2"><path d="M157.5,333.0938 C120.68,345.3638 57,366.5938 57,366.5938 C57,366.5938 50.6269,433.7206 46.8869,473.1306" fill="none" id="1-to-2" style="stroke:#008000;stroke-width:1;"/><polygon fill="#008000" points="46.32,479.1038,51.1524,470.5219,46.7924,474.1261,43.1882,469.7661,46.32,479.1038" style="stroke:#008000;stroke-width:1;"/><path d="M62,371.5938 L62,456.5938 L303,456.5938 L303,381.5938 L293,371.5938 L62,371.5938" fill="#F5F5F5" style="stroke:#181818;stroke-width:0.5;"/><path d="M293,371.5938 L293,381.5938 L303,381.5938 L293,371.5938" fill="#F5F5F5" style="stroke:#181818;stroke-width:0.5;"/><text fill="#000000" font-family="sans-serif" font-size="13" font-weight="bold" lengthAdjust="spacing" textLength="220.5874" x="68" y="388.6606">Sistema requiere Par&#225;metros:</text><text fill="#000000" font-family="sans-serif" font-size="13" lengthAdjust="spacing" textLength="56.8306" x="68" y="403.7935">- funcion</text><text fill="#000000" font-family="sans-serif" font-size="13" lengthAdjust="spacing" textLength="16.7896" x="68" y="418.9263">- a</text><text fill="#000000" font-family="sans-serif" font-size="13" lengthAdjust="spacing" textLength="17.0752" x="68" y="434.0591">- b</text><text fill="#000000" font-family="sans-serif" font-size="13" lengthAdjust="spacing" textLength="17.0625" x="68" y="449.1919">- n</text></g><!--link 2 to 3--><g class="link" data-entity-1="2" data-entity-2="3" data-source-line="35" data-uid="lnk7" id="link_2_3"><path d="M37.6,530.0238 C35.18,539.2638 33,547.5938 33,547.5938 C33,547.5938 33,642.5938 33,642.5938 C33,642.5938 104.4901,663.4434 145.8301,675.5034" fill="none" id="2-to-3" style="stroke:#008000;stroke-width:1;"/><polygon fill="#008000" points="151.59,677.1838,144.0704,670.8233,146.7901,675.7835,141.8299,678.5032,151.59,677.1838" style="stroke:#008000;stroke-width:1;"/><path d="M38,552.5938 L38,637.5938 L303,637.5938 L303,562.5938 L293,552.5938 L38,552.5938" fill="#F5F5F5" style="stroke:#181818;stroke-width:0.5;"/><path d="M293,552.5938 L293,562.5938 L303,562.5938 L293,552.5938" fill="#F5F5F5" style="stroke:#181818;stroke-width:0.5;"/><text fill="#000000" font-family="sans-serif" font-size="13" font-weight="bold" lengthAdjust="spacing" textLength="244.1499" x="44" y="569.6606">Usuario Proporciona Par&#225;metros:</text><text fill="#000000" font-family="sans-serif" font-size="13" lengthAdjust="spacing" textLength="56.8306" x="52.2646" y="584.7935">- funcion</text><text fill="#000000" font-family="sans-serif" font-size="13" lengthAdjust="spacing" textLength="16.7896" x="52.2646" y="599.9263">- a</text><text fill="#000000" font-family="sans-serif" font-size="13" lengthAdjust="spacing" textLength="17.0752" x="52.2646" y="615.0591">- b</text><text fill="#000000" font-family="sans-serif" font-size="13" lengthAdjust="spacing" textLength="17.0625" x="52.2646" y="630.1919">- n</text></g><!--link 3 to 1--><g class="link" data-entity-1="3" data-entity-2="1" data-source-line="43" data-uid="lnk8" id="link_3_1"><path d="M202.26,676.4938 C240.33,664.2938 308,642.5938 308,642.5938 C308,642.5938 308,366.5938 308,366.5938 C308,366.5938 250.5076,347.2747 213.9876,335.0047" fill="none" id="3-to-1" style="stroke:#FF0000;stroke-width:1;"/><polygon fill="#FF0000" points="208.3,333.0938,215.5574,339.7518,213.0396,334.6862,218.1053,332.1684,208.3,333.0938" style="stroke:#FF0000;stroke-width:1;"/><path d="M313,484.5938 L313,524.5938 L418,524.5938 L418,494.5938 L408,484.5938 L313,484.5938" fill="#F5F5F5" style="stroke:#181818;stroke-width:0.5;"/><path d="M408,484.5938 L408,494.5938 L418,494.5938 L408,484.5938" fill="#F5F5F5" style="stroke:#181818;stroke-width:0.5;"/><text fill="#000000" font-family="sans-serif" font-size="13" lengthAdjust="spacing" textLength="80.0186" x="319" y="501.6606">[Par&#225;metros</text><text fill="#000000" font-family="sans-serif" font-size="13" lengthAdjust="spacing" textLength="63.0068" x="327.2646" y="516.7935">Inv&#225;lidos]</text></g><!--link 3 to *end*crear_trapezoidal_compuesta--><g class="link" data-entity-1="3" data-entity-2="*end*crear_trapezoidal_compuesta" data-source-line="48" data-uid="lnk10" id="link_3_*end*crear_trapezoidal_compuesta"><path d="M177,711.0238 C177,723.3838 177,731.7238 177,741.1938" fill="none" id="3-to-*end*crear_trapezoidal_compuesta" style="stroke:#008000;stroke-width:1;"/><polygon fill="#008000" points="177,747.1938,181,738.1938,177,742.1938,173,738.1938,177,747.1938" style="stroke:#008000;stroke-width:1;"/></g><g id="TRAPEZOIDAL_COMPUESTA"><rect fill="#FAF4B4" height="50" rx="12.5" ry="12.5" style="stroke:#C90000;stroke-width:0.5;" width="212.4658" x="110.77" y="44.2969"/><line style="stroke:#C90000;stroke-width:0.5;" x1="110.77" x2="323.2358" y1="70.5938" y2="70.5938"/><text fill="#000000" font-family="sans-serif" font-size="14" lengthAdjust="spacing" textLength="192.4658" x="120.77" y="62.292">TRAPEZOIDAL_COMPUESTA</text></g><g id=":abrirResultadoTrapezoidalCompuesta"><rect fill="#FAF4B4" height="50" rx="12.5" ry="12.5" style="stroke:#C90000;stroke-width:0.5;" width="288.7617" x="72.62" y="840.5969"/><line style="stroke:#C90000;stroke-width:0.5;" x1="72.62" x2="361.3817" y1="866.8938" y2="866.8938"/><text fill="#000000" font-family="sans-serif" font-size="14" lengthAdjust="spacing" textLength="268.7617" x="82.62" y="858.592">:abrirResultadoTrapezoidalCompuesta</text></g><g id="RESULTADO_TRAPEZOIDAL_COMPUESTA"><rect fill="#FAF4B4" height="50" rx="12.5" ry="12.5" style="stroke:#C90000;stroke-width:0.5;" width="304.9014" x="64.55" y="951.5969"/><line style="stroke:#C90000;stroke-width:0.5;" x1="64.55" x2="369.4514" y1="977.8938" y2="977.8938"/><text fill="#000000" font-family="sans-serif" font-size="14" lengthAdjust="spacing" textLength="284.9014" x="74.55" y="969.592">RESULTADO_TRAPEZOIDAL_COMPUESTA</text></g><!--link TRAPEZOIDAL_COMPUESTA to crear_trapezoidal_compuesta--><g class="link" data-entity-1="TRAPEZOIDAL_COMPUESTA" data-entity-2="crear_trapezoidal_compuesta" data-source-line="15" data-uid="lnk3" id="link_TRAPEZOIDAL_COMPUESTA_crear_trapezoidal_compuesta"><path d="M217,94.7369 C217,118.8469 217,152.5769 217,197.8069" fill="none" id="TRAPEZOIDAL_COMPUESTA-to-crear_trapezoidal_compuesta" style="stroke:#008000;stroke-width:1;"/><polygon fill="#008000" points="217,203.8069,221,194.8069,217,198.8069,213,194.8069,217,203.8069" style="stroke:#008000;stroke-width:1;"/><path d="M222,129.2969 L222,169.2969 L509,169.2969 L509,139.2969 L499,129.2969 L222,129.2969" fill="#F5F5F5" style="stroke:#181818;stroke-width:0.5;"/><path d="M499,129.2969 L499,139.2969 L509,139.2969 L499,129.2969" fill="#F5F5F5" style="stroke:#181818;stroke-width:0.5;"/><text fill="#000000" font-family="sans-serif" font-size="13" font-weight="bold" lengthAdjust="spacing" textLength="118.5742" x="228" y="146.3638">Usuario solicita:</text><text fill="#000000" font-family="sans-serif" font-size="13" lengthAdjust="spacing" textLength="266.3857" x="228" y="161.4966">- Crear operaci&#243;n trapezoidal compuesta</text></g><!--link crear_trapezoidal_compuesta to :abrirResultadoTrapezoidalCompuesta--><g class="link" data-entity-1="crear_trapezoidal_compuesta" data-entity-2=":abrirResultadoTrapezoidalCompuesta" data-source-line="52" data-uid="lnk12" id="link_crear_trapezoidal_compuesta_:abrirResultadoTrapezoidalCompuesta"><path d="M217,779.7969 C217,804.1969 217,819.2569 217,834.2869" fill="none" id="crear_trapezoidal_compuesta-to-:abrirResultadoTrapezoidalCompuesta" style="stroke:#008000;stroke-width:1;"/><polygon fill="#008000" points="217,840.2869,221,831.2869,217,835.2869,213,831.2869,217,840.2869" style="stroke:#008000;stroke-width:1;"/></g><!--link :abrirResultadoTrapezoidalCompuesta to RESULTADO_TRAPEZOIDAL_COMPUESTA--><g class="link" data-entity-1=":abrirResultadoTrapezoidalCompuesta" data-entity-2="RESULTADO_TRAPEZOIDAL_COMPUESTA" data-source-line="54" data-uid="lnk14" id="link_:abrirResultadoTrapezoidalCompuesta_RESULTADO_TRAPEZOIDAL_COMPUESTA"><path d="M217,891.0569 C217,909.0069 217,927.2869 217,945.2169" fill="none" id=":abrirResultadoTrapezoidalCompuesta-to-RESULTADO_TRAPEZOIDAL_COMPUESTA" style="stroke:#008000;stroke-width:1;"/><polygon fill="#008000" points="217,951.2169,221,942.2169,217,946.2169,213,942.2169,217,951.2169" style="stroke:#008000;stroke-width:1;"/></g><!--SRC=[hLBDJkCm4BxxAKPmYrI9KlO01wIIze04QjMVorPLDKscoAhhoOuT940y3C_08_J5rYub2T15Uy29PFlp-9ll6uzRQrkWu0QSHq_mf02kC5lV2PSsJzcmmF4ALsVBitZ2afFiqUpy90prh9IhI2p_a-DN_3v66st9FnG41Pk7k57AQsy8UkJHX3b5nv0JJCEK2g70e231J6zVBKm42tfadQE1b3T5IS62KceowWxxlmVNlUxD8XtS3gVzyQJRcXtV2P6TjouXYqmBNrzVPDNrdG6sKTews4YIgIjHD8DZepFjyI990jxQo-5QJeCFQZwo-QuemVQklj_aZcLx2se3EZY2emeu_GnqQY3yisGEJOFjWBK_8AS1-MGjZYGPQ-TfWo3qfzGa14EKxSk6lB1xinf72rQbpJJRQe_LQbcjucdb5uBefeBE8GLrUOV21KjCWJyeeHCb2ENlHVaYODR81NkMQtk_VJ4wPpS_m5OP2aLNiPs_UT5c-0KkHSk8N6ayvjnetaRl_aTGatFK7qzl9jtUO76mv_y2]--></g></svg>