<svg xmlns="http://www.w3.org/2000/svg" xmlns:xlink="http://www.w3.org/1999/xlink" contentStyleType="text/css" data-diagram-type="STATE" height="896px" preserveAspectRatio="none" style="width:525px;height:896px;background:#FFFFFF;" version="1.1" viewBox="0 0 525 896" width="525px" zoomAndPan="magnify"><title>Detalle Caso de Uso Crear Operaci&#243;n Punto Medio Compuesta</title><defs/><g><g class="title" data-source-line="14"><text fill="#000000" font-family="sans-serif" font-size="14" font-weight="bold" lengthAdjust="spacing" textLength="488.1338" x="11.8316" y="22.9951">Detalle Caso de Uso Crear Operaci&#243;n Punto Medio Compuesta</text></g><g id="PUNTO_MEDIO_COMPUESTA"><rect fill="#FAF4B4" height="50" rx="12.5" ry="12.5" style="stroke:#C90000;stroke-width:0.5;" width="217.0117" x="237.49" y="44.2969"/><line style="stroke:#C90000;stroke-width:0.5;" x1="237.49" x2="454.5017" y1="70.5938" y2="70.5938"/><text fill="#000000" font-family="sans-serif" font-size="14" lengthAdjust="spacing" textLength="197.0117" x="247.49" y="62.292">PUNTO_MEDIO_COMPUESTA</text></g><path d="M19.5,204.2969 L412.5,204.2969 A12.5,12.5 0 0 1 425,216.7969 L425,230.5938 L7,230.5938 L7,216.7969 A12.5,12.5 0 0 1 19.5,204.2969" fill="#FAF4B4"/><rect fill="none" height="575.2969" rx="12.5" ry="12.5" style="stroke:#C90000;stroke-width:0.5;" width="418" x="7" y="204.2969"/><line style="stroke:#C90000;stroke-width:0.5;" x1="7" x2="425" y1="230.5938" y2="230.5938"/><text fill="#000000" font-family="sans-serif" font-size="14" lengthAdjust="spacing" textLength="219.3174" x="106.3413" y="222.292">crear_punto_medio_compuesta</text><g id="crear_punto_medio_compuesta.1"><rect fill="#FAF4B4" height="50" rx="12.5" ry="12.5" style="stroke:#C90000;stroke-width:0.5;" width="50" x="157" y="298.5938"/><line style="stroke:#C90000;stroke-width:0.5;" x1="157" x2="207" y1="324.8906" y2="324.8906"/><text fill="#000000" font-family="sans-serif" font-size="14" lengthAdjust="spacing" textLength="4.4502" x="179.7749" y="316.5889">&#160;</text></g><g id="crear_punto_medio_compuesta.2"><rect fill="#FAF4B4" height="50" rx="12.5" ry="12.5" style="stroke:#C90000;stroke-width:0.5;" width="50" x="19" y="479.5938"/><line style="stroke:#C90000;stroke-width:0.5;" x1="19" x2="69" y1="505.8906" y2="505.8906"/><text fill="#000000" font-family="sans-serif" font-size="14" lengthAdjust="spacing" textLength="4.4502" x="41.7749" y="497.5889">&#160;</text></g><g id="crear_punto_medio_compuesta.3"><rect fill="#FAF4B4" height="50" rx="12.5" ry="12.5" style="stroke:#C90000;stroke-width:0.5;" width="50" x="152" y="660.5938"/><line style="stroke:#C90000;stroke-width:0.5;" x1="152" x2="202" y1="686.8906" y2="686.8906"/><text fill="#000000" font-family="sans-serif" font-size="14" lengthAdjust="spacing" textLength="4.4502" x="174.7749" y="678.5889">&#160;</text></g><ellipse cx="182" cy="251.5938" fill="#222222" rx="10" ry="10" style="stroke:#222222;stroke-width:1;"/><ellipse cx="177" cy="758.5938" fill="none" rx="11" ry="11" style="stroke:#222222;stroke-width:1;"/><ellipse cx="177" cy="758.5938" fill="#222222" rx="6" ry="6" style="stroke:#222222;stroke-width:1;"/><!--link *start*crear_punto_medio_compuesta to 1--><g class="link" data-entity-1=".start.crear_punto_medio_compuesta" data-entity-2="1" data-source-line="29" data-uid="lnk4" id="link_.start.crear_punto_medio_compuesta_1"><path d="M182,262.0338 C182,271.2938 182,279.7838 182,292.2738" fill="none" id="*start*crear_punto_medio_compuesta-to-1" style="stroke:#008000;stroke-width:1;"/><polygon fill="#008000" points="182,298.2738,186,289.2738,182,293.2738,178,289.2738,182,298.2738" style="stroke:#008000;stroke-width:1;"/></g><!--link 1 to 2--><g class="link" data-entity-1="1" data-entity-2="2" data-source-line="30" data-uid="lnk5" id="link_1_2"><path d="M156.6,332.9938 C119.54,345.2538 55,366.5938 55,366.5938 C55,366.5938 49.6096,433.7129 46.4496,473.1229" fill="none" id="1-to-2" style="stroke:#008000;stroke-width:1;"/><polygon fill="#008000" points="45.97,479.1038,50.6765,470.4522,46.3696,474.1197,42.7021,469.8128,45.97,479.1038" style="stroke:#008000;stroke-width:1;"/><path d="M60,371.5938 L60,456.5938 L301,456.5938 L301,381.5938 L291,371.5938 L60,371.5938" fill="#F5F5F5" style="stroke:#181818;stroke-width:0.5;"/><path d="M291,371.5938 L291,381.5938 L301,381.5938 L291,371.5938" fill="#F5F5F5" style="stroke:#181818;stroke-width:0.5;"/><text fill="#000000" font-family="sans-serif" font-size="13" font-weight="bold" lengthAdjust="spacing" textLength="220.5874" x="66" y="388.6606">Sistema requiere Par&#225;metros:</text><text fill="#000000" font-family="sans-serif" font-size="13" lengthAdjust="spacing" textLength="56.8306" x="66" y="403.7935">- funcion</text><text fill="#000000" font-family="sans-serif" font-size="13" lengthAdjust="spacing" textLength="16.7896" x="66" y="418.9263">- a</text><text fill="#000000" font-family="sans-serif" font-size="13" lengthAdjust="spacing" textLength="17.0752" x="66" y="434.0591">- b</text><text fill="#000000" font-family="sans-serif" font-size="13" lengthAdjust="spacing" textLength="17.0625" x="66" y="449.1919">- n</text></g><!--link 2 to 3--><g class="link" data-entity-1="2" data-entity-2="3" data-source-line="38" data-uid="lnk6" id="link_2_3"><path d="M39.35,530.0238 C37.59,539.2638 36,547.5938 36,547.5938 C36,547.5938 36,642.5938 36,642.5938 C36,642.5938 105.4897,663.2907 146.0397,675.3707" fill="none" id="2-to-3" style="stroke:#008000;stroke-width:1;"/><polygon fill="#008000" points="151.79,677.0838,144.3066,670.6807,146.9981,675.6562,142.0226,678.3477,151.79,677.0838" style="stroke:#008000;stroke-width:1;"/><path d="M41,552.5938 L41,637.5938 L301,637.5938 L301,562.5938 L291,552.5938 L41,552.5938" fill="#F5F5F5" style="stroke:#181818;stroke-width:0.5;"/><path d="M291,552.5938 L291,562.5938 L301,562.5938 L291,552.5938" fill="#F5F5F5" style="stroke:#181818;stroke-width:0.5;"/><text fill="#000000" font-family="sans-serif" font-size="13" font-weight="bold" lengthAdjust="spacing" textLength="239.5859" x="47" y="569.6606">Cliente Proporciona Par&#225;metros:</text><text fill="#000000" font-family="sans-serif" font-size="13" lengthAdjust="spacing" textLength="56.8306" x="55.2646" y="584.7935">- funcion</text><text fill="#000000" font-family="sans-serif" font-size="13" lengthAdjust="spacing" textLength="16.7896" x="55.2646" y="599.9263">- a</text><text fill="#000000" font-family="sans-serif" font-size="13" lengthAdjust="spacing" textLength="17.0752" x="55.2646" y="615.0591">- b</text><text fill="#000000" font-family="sans-serif" font-size="13" lengthAdjust="spacing" textLength="17.0625" x="55.2646" y="630.1919">- n</text></g><!--link 3 to 1--><g class="link" data-entity-1="3" data-entity-2="1" data-source-line="46" data-uid="lnk7" id="link_3_1"><path d="M202.49,676.2938 C240.08,664.0538 306,642.5938 306,642.5938 C306,642.5938 306,366.5938 306,366.5938 C306,366.5938 249.3528,347.4088 213.0728,335.1188" fill="none" id="3-to-1" style="stroke:#FF0000;stroke-width:1;"/><polygon fill="#FF0000" points="207.39,333.1938,214.6308,339.8699,212.1257,334.798,217.1976,332.2928,207.39,333.1938" style="stroke:#FF0000;stroke-width:1;"/><path d="M311,484.5938 L311,524.5938 L416,524.5938 L416,494.5938 L406,484.5938 L311,484.5938" fill="#F5F5F5" style="stroke:#181818;stroke-width:0.5;"/><path d="M406,484.5938 L406,494.5938 L416,494.5938 L406,484.5938" fill="#F5F5F5" style="stroke:#181818;stroke-width:0.5;"/><text fill="#000000" font-family="sans-serif" font-size="13" lengthAdjust="spacing" textLength="80.0186" x="317" y="501.6606">[Par&#225;metros</text><text fill="#000000" font-family="sans-serif" font-size="13" lengthAdjust="spacing" textLength="63.0068" x="325.2646" y="516.7935">Inv&#225;lidos]</text></g><!--link 3 to *end*crear_punto_medio_compuesta--><g class="link" data-entity-1="3" data-entity-2=".end.crear_punto_medio_compuesta" data-source-line="51" data-uid="lnk9" id="link_3_.end.crear_punto_medio_compuesta"><path d="M177,711.0238 C177,723.3838 177,731.7238 177,741.1938" fill="none" id="3-to-*end*crear_punto_medio_compuesta" style="stroke:#008000;stroke-width:1;"/><polygon fill="#008000" points="177,747.1938,181,738.1938,177,742.1938,173,738.1938,177,747.1938" style="stroke:#008000;stroke-width:1;"/></g><g id=".calcularResultadoPuntoMedioCompuesta"><rect fill="#FAF4B4" height="50" rx="12.5" ry="12.5" style="stroke:#C90000;stroke-width:0.5;" width="311.5869" x="207.21" y="840.5969"/><line style="stroke:#C90000;stroke-width:0.5;" x1="207.21" x2="518.7969" y1="866.8938" y2="866.8938"/><text fill="#000000" font-family="sans-serif" font-size="14" lengthAdjust="spacing" textLength="291.5869" x="217.21" y="858.592">:calcularResultadoPuntoMedioCompuesta</text></g><!--link PUNTO_MEDIO_COMPUESTA to crear_punto_medio_compuesta--><g class="link" data-entity-1="PUNTO_MEDIO_COMPUESTA" data-entity-2="crear_punto_medio_compuesta" data-source-line="18" data-uid="lnk2" id="link_PUNTO_MEDIO_COMPUESTA_crear_punto_medio_compuesta"><path d="M270.32,94.7769 C226.13,109.0569 179,124.2969 179,124.2969 C179,124.2969 179,174.2969 179,174.2969 C179,174.2969 179.6116,179.5877 181.7516,197.8477" fill="none" id="PUNTO_MEDIO_COMPUESTA-to-crear_punto_medio_compuesta" style="stroke:#008000;stroke-width:1;"/><polygon fill="#008000" points="182.45,203.8069,185.3752,194.4025,181.868,198.8409,177.4296,195.3337,182.45,203.8069" style="stroke:#008000;stroke-width:1;"/><path d="M184,129.2969 L184,169.2969 L480,169.2969 L480,139.2969 L470,129.2969 L184,129.2969" fill="#F5F5F5" style="stroke:#181818;stroke-width:0.5;"/><path d="M470,129.2969 L470,139.2969 L480,139.2969 L470,129.2969" fill="#F5F5F5" style="stroke:#181818;stroke-width:0.5;"/><text fill="#000000" font-family="sans-serif" font-size="13" font-weight="bold" lengthAdjust="spacing" textLength="114.0103" x="190" y="146.3638">Cliente solicita:</text><text fill="#000000" font-family="sans-serif" font-size="13" lengthAdjust="spacing" textLength="275.9009" x="190" y="161.4966">- Crear operaci&#243;n punto medio compuesta</text></g><!--link crear_punto_medio_compuesta to :calcularResultadoPuntoMedioCompuesta--><g class="link" data-entity-1="crear_punto_medio_compuesta" data-entity-2=".calcularResultadoPuntoMedioCompuesta" data-source-line="55" data-uid="lnk11" id="link_crear_punto_medio_compuesta_.calcularResultadoPuntoMedioCompuesta"><path d="M329.46,779.7969 C339.11,804.1969 345.2347,819.6768 351.1747,834.7068" fill="none" id="crear_punto_medio_compuesta-to-:calcularResultadoPuntoMedioCompuesta" style="stroke:#008000;stroke-width:1;"/><polygon fill="#008000" points="353.38,840.2869,353.7921,830.4466,351.5423,835.6369,346.3521,833.387,353.38,840.2869" style="stroke:#008000;stroke-width:1;"/></g><!--link :calcularResultadoPuntoMedioCompuesta to PUNTO_MEDIO_COMPUESTA--><g class="link" data-entity-1=".calcularResultadoPuntoMedioCompuesta" data-entity-2="PUNTO_MEDIO_COMPUESTA" data-source-line="57" data-uid="lnk12" id="link_.calcularResultadoPuntoMedioCompuesta_PUNTO_MEDIO_COMPUESTA"><path d="M385.71,840.4669 C409.36,815.3369 443,779.5969 443,779.5969 C443,779.5969 489,174.2969 489,174.2969 C489,174.2969 489,124.2969 489,124.2969 C489,124.2969 454.2534,111.1758 416.4234,96.8958" fill="none" id=":calcularResultadoPuntoMedioCompuesta-to-PUNTO_MEDIO_COMPUESTA" style="stroke:#008000;stroke-width:1;"/><polygon fill="#008000" points="410.81,94.7769,417.8175,101.6975,415.4878,96.5427,420.6427,94.213,410.81,94.7769" style="stroke:#008000;stroke-width:1;"/></g><!--SRC=[hLB1Rjim3BthAuZsPY30qdI7zJ1WStle8KkmDgSWC1Y9AOJ8eaV90ufX7zDls2VanoQvYUDsMR7390EI7ed7zsX6RY0oh3b6hi5O8HqjUwN2rle61Mi84IF13mNm6VNsGRZrfcJ70kSRt5okBtE4nP3iKVtXNLhgvv34yryvtkVzCjjPJ_6n8MZOFUQ7Kj56Ht1D4LqwImmCXc2HZb881MOD2Mgx- -LXtlfaQKh6fY3NJKl9GgBlVCmNN-vdrVJc-dPMbRFfV75pT_z9gPFmQ7d-84H-DVe8EbUfcanTrPcwqZrrPuvzbhrD5ekYT9PymW8xgst4gw98-6WlbOzIEpxe-E38Hzvq3JjeVgDsRkbpqXWmm1cSzS35Qs1o1DAtB5OmD3XEsFW5Sf6GLzRoAeex6oBL24BVMakIcegoUwef2eTdgtcDODDwdOVfyCR-jkvlEThxXIHwg61oIi6nlNFXXYMNmFyeOP8b29b3K_uGi1pKWZtBhV- -UtBMS5YTOEiDfQQhFEfl_D5X-fL6frk7yfL2wo8QxcQx6-t1PFzJsf3tvBJ_1W00]--></g></svg>