<svg xmlns="http://www.w3.org/2000/svg" xmlns:xlink="http://www.w3.org/1999/xlink" contentStyleType="text/css" data-diagram-type="STATE" height="917px" preserveAspectRatio="none" style="width:469px;height:917px;background:#FFFFFF;" version="1.1" viewBox="0 0 469 917" width="469px" zoomAndPan="magnify"><title>Detalle Caso de Uso Abrir Regla Trapezoidal Compuesta</title><defs/><g><g class="title" data-source-line="12"><text fill="#000000" font-family="sans-serif" font-size="14" font-weight="bold" lengthAdjust="spacing" textLength="441.6699" x="10" y="22.9951">Detalle Caso de Uso Abrir Regla Trapezoidal Compuesta</text></g><path d="M31.835,204.2969 L350.835,204.2969 A12.5,12.5 0 0 1 363.335,216.7969 L363.335,230.5938 L19.335,230.5938 L19.335,216.7969 A12.5,12.5 0 0 1 31.835,204.2969" fill="#FAF4B4" style="stroke:#FAF4B4;stroke-width:1;"/><rect fill="none" height="485.2969" rx="12.5" ry="12.5" style="stroke:#C90000;stroke-width:0.5;" width="344" x="19.335" y="204.2969"/><line style="stroke:#C90000;stroke-width:0.5;" x1="19.335" x2="363.335" y1="230.5938" y2="230.5938"/><text fill="#000000" font-family="sans-serif" font-size="14" lengthAdjust="spacing" textLength="202.9863" x="89.8418" y="222.292">abrir_trapezoidal_compuesta</text><g id="abrir_trapezoidal_compuesta.1"><rect fill="#FAF4B4" height="50" rx="12.5" ry="12.5" style="stroke:#C90000;stroke-width:0.5;" width="50" x="31.335" y="298.5938"/><line style="stroke:#C90000;stroke-width:0.5;" x1="31.335" x2="81.335" y1="324.8906" y2="324.8906"/><text fill="#000000" font-family="sans-serif" font-size="14" lengthAdjust="spacing" textLength="4.4502" x="54.1099" y="316.5889">&#160;</text></g><g id="abrir_trapezoidal_compuesta.2"><rect fill="#FAF4B4" height="50" rx="12.5" ry="12.5" style="stroke:#C90000;stroke-width:0.5;" width="50" x="31.335" y="434.5938"/><line style="stroke:#C90000;stroke-width:0.5;" x1="31.335" x2="81.335" y1="460.8906" y2="460.8906"/><text fill="#000000" font-family="sans-serif" font-size="14" lengthAdjust="spacing" textLength="4.4502" x="54.1099" y="452.5889">&#160;</text></g><g id="abrir_trapezoidal_compuesta.3"><rect fill="#FAF4B4" height="50" rx="12.5" ry="12.5" style="stroke:#C90000;stroke-width:0.5;" width="50" x="31.335" y="570.5938"/><line style="stroke:#C90000;stroke-width:0.5;" x1="31.335" x2="81.335" y1="596.8906" y2="596.8906"/><text fill="#000000" font-family="sans-serif" font-size="14" lengthAdjust="spacing" textLength="4.4502" x="54.1099" y="588.5889">&#160;</text></g><ellipse cx="56.335" cy="251.5938" fill="#222222" rx="10" ry="10" style="stroke:#222222;stroke-width:1;"/><ellipse cx="56.335" cy="668.5938" fill="none" rx="11" ry="11" style="stroke:#222222;stroke-width:1;"/><ellipse cx="56.335" cy="668.5938" fill="#222222" rx="6" ry="6" style="stroke:#222222;stroke-width:1;"/><!--link *start*abrir_trapezoidal_compuesta to 1--><g class="link" data-entity-1="*start*abrir_trapezoidal_compuesta" data-entity-2="1" data-source-line="26" data-uid="lnk5" id="link_*start*abrir_trapezoidal_compuesta_1"><path d="M56.335,262.0338 C56.335,271.2938 56.335,279.7838 56.335,292.2738" fill="none" id="*start*abrir_trapezoidal_compuesta-to-1" style="stroke:#008000;stroke-width:1;"/><polygon fill="#008000" points="56.335,298.2738,60.335,289.2738,56.335,293.2738,52.335,289.2738,56.335,298.2738" style="stroke:#008000;stroke-width:1;"/></g><!--link 1 to 2--><g class="link" data-entity-1="1" data-entity-2="2" data-source-line="27" data-uid="lnk6" id="link_1_2"><path d="M56.335,348.8638 C56.335,373.1438 56.335,404.2838 56.335,428.5037" fill="none" id="1-to-2" style="stroke:#008000;stroke-width:1;"/><polygon fill="#008000" points="56.335,434.5037,60.335,425.5037,56.335,429.5037,52.335,425.5037,56.335,434.5037" style="stroke:#008000;stroke-width:1;"/><path d="M61.335,371.5938 L61.335,411.5938 L354.335,411.5938 L354.335,381.5938 L344.335,371.5938 L61.335,371.5938" fill="#F5F5F5" style="stroke:#181818;stroke-width:0.5;"/><path d="M344.335,371.5938 L344.335,381.5938 L354.335,381.5938 L344.335,371.5938" fill="#F5F5F5" style="stroke:#181818;stroke-width:0.5;"/><text fill="#000000" font-family="sans-serif" font-size="13" font-weight="bold" lengthAdjust="spacing" textLength="130.9204" x="67.335" y="388.6606">Sistema requiere:</text><text fill="#000000" font-family="sans-serif" font-size="13" lengthAdjust="spacing" textLength="272.9048" x="67.335" y="403.7935">- M&#233;todo trapezoidal compuesto conocido</text></g><!--link 2 to 3--><g class="link" data-entity-1="2" data-entity-2="3" data-source-line="32" data-uid="lnk7" id="link_2_3"><path d="M56.335,484.8638 C56.335,509.1438 56.335,540.2838 56.335,564.5038" fill="none" id="2-to-3" style="stroke:#008000;stroke-width:1;"/><polygon fill="#008000" points="56.335,570.5038,60.335,561.5038,56.335,565.5038,52.335,561.5038,56.335,570.5038" style="stroke:#008000;stroke-width:1;"/><path d="M61.335,507.5938 L61.335,547.5938 L354.335,547.5938 L354.335,517.5938 L344.335,507.5938 L61.335,507.5938" fill="#F5F5F5" style="stroke:#181818;stroke-width:0.5;"/><path d="M344.335,507.5938 L344.335,517.5938 L354.335,517.5938 L344.335,507.5938" fill="#F5F5F5" style="stroke:#181818;stroke-width:0.5;"/><text fill="#000000" font-family="sans-serif" font-size="13" font-weight="bold" lengthAdjust="spacing" textLength="144.1235" x="67.335" y="524.6606">Usuario Selecciona:</text><text fill="#000000" font-family="sans-serif" font-size="13" lengthAdjust="spacing" textLength="272.9048" x="67.335" y="539.7935">- M&#233;todo trapezoidal compuesto conocido</text></g><!--link 3 to *end*abrir_trapezoidal_compuesta--><g class="link" data-entity-1="3" data-entity-2="*end*abrir_trapezoidal_compuesta" data-source-line="38" data-uid="lnk9" id="link_3_*end*abrir_trapezoidal_compuesta"><path d="M56.335,621.0238 C56.335,633.3838 56.335,641.7238 56.335,651.1938" fill="none" id="3-to-*end*abrir_trapezoidal_compuesta" style="stroke:#008000;stroke-width:1;"/><polygon fill="#008000" points="56.335,657.1938,60.335,648.1938,56.335,652.1938,52.335,648.1938,56.335,657.1938" style="stroke:#008000;stroke-width:1;"/></g><g id="DIFERENCIACION_NUMERICA_E_INTEGRACION"><rect fill="#FAF4B4" height="50" rx="12.5" ry="12.5" style="stroke:#C90000;stroke-width:0.5;" width="341.9795" x="20.345" y="44.2969"/><line style="stroke:#C90000;stroke-width:0.5;" x1="20.345" x2="362.3245" y1="70.5938" y2="70.5938"/><text fill="#000000" font-family="sans-serif" font-size="14" lengthAdjust="spacing" textLength="321.9795" x="30.345" y="62.292">DIFERENCIACION_NUMERICA_E_INTEGRACION</text></g><g id=":abrirTrapezoidalCompuesta"><rect fill="#FAF4B4" height="50" rx="12.5" ry="12.5" style="stroke:#C90000;stroke-width:0.5;" width="218.8438" x="81.915" y="750.5969"/><line style="stroke:#C90000;stroke-width:0.5;" x1="81.915" x2="300.7587" y1="776.8938" y2="776.8938"/><text fill="#000000" font-family="sans-serif" font-size="14" lengthAdjust="spacing" textLength="198.8438" x="91.915" y="768.592">:abrirTrapezoidalCompuesta</text></g><g id="TRAPEZOIDAL_COMPUESTA"><rect fill="#FAF4B4" height="50" rx="12.5" ry="12.5" style="stroke:#C90000;stroke-width:0.5;" width="212.4658" x="85.105" y="861.5969"/><line style="stroke:#C90000;stroke-width:0.5;" x1="85.105" x2="297.5708" y1="887.8938" y2="887.8938"/><text fill="#000000" font-family="sans-serif" font-size="14" lengthAdjust="spacing" textLength="192.4658" x="95.105" y="879.592">TRAPEZOIDAL_COMPUESTA</text></g><!--link DIFERENCIACION_NUMERICA_E_INTEGRACION to abrir_trapezoidal_compuesta--><g class="link" data-entity-1="DIFERENCIACION_NUMERICA_E_INTEGRACION" data-entity-2="abrir_trapezoidal_compuesta" data-source-line="15" data-uid="lnk3" id="link_DIFERENCIACION_NUMERICA_E_INTEGRACION_abrir_trapezoidal_compuesta"><path d="M191.335,94.6569 C191.335,119.0469 191.335,153.2969 191.335,198.0169" fill="none" id="DIFERENCIACION_NUMERICA_E_INTEGRACION-to-abrir_trapezoidal_compuesta" style="stroke:#008000;stroke-width:1;"/><polygon fill="#008000" points="191.335,204.0169,195.335,195.0169,191.335,199.0169,187.335,195.0169,191.335,204.0169" style="stroke:#008000;stroke-width:1;"/><path d="M196.335,129.2969 L196.335,169.2969 L456.335,169.2969 L456.335,139.2969 L446.335,129.2969 L196.335,129.2969" fill="#F5F5F5" style="stroke:#181818;stroke-width:0.5;"/><path d="M446.335,129.2969 L446.335,139.2969 L456.335,139.2969 L446.335,129.2969" fill="#F5F5F5" style="stroke:#181818;stroke-width:0.5;"/><text fill="#000000" font-family="sans-serif" font-size="13" font-weight="bold" lengthAdjust="spacing" textLength="118.5742" x="202.335" y="146.3638">Usuario solicita:</text><text fill="#000000" font-family="sans-serif" font-size="13" lengthAdjust="spacing" textLength="239.2686" x="202.335" y="161.4966">- Abrir Regla Trapezoidal Compuesta</text></g><!--link abrir_trapezoidal_compuesta to :abrirTrapezoidalCompuesta--><g class="link" data-entity-1="abrir_trapezoidal_compuesta" data-entity-2=":abrirTrapezoidalCompuesta" data-source-line="41" data-uid="lnk11" id="link_abrir_trapezoidal_compuesta_:abrirTrapezoidalCompuesta"><path d="M191.335,690.0569 C191.335,714.2169 191.335,729.3469 191.335,744.4469" fill="none" id="abrir_trapezoidal_compuesta-to-:abrirTrapezoidalCompuesta" style="stroke:#008000;stroke-width:1;"/><polygon fill="#008000" points="191.335,750.4469,195.335,741.4469,191.335,745.4469,187.335,741.4469,191.335,750.4469" style="stroke:#008000;stroke-width:1;"/></g><!--link :abrirTrapezoidalCompuesta to TRAPEZOIDAL_COMPUESTA--><g class="link" data-entity-1=":abrirTrapezoidalCompuesta" data-entity-2="TRAPEZOIDAL_COMPUESTA" data-source-line="43" data-uid="lnk13" id="link_:abrirTrapezoidalCompuesta_TRAPEZOIDAL_COMPUESTA"><path d="M191.335,801.0569 C191.335,819.0069 191.335,837.2869 191.335,855.2169" fill="none" id=":abrirTrapezoidalCompuesta-to-TRAPEZOIDAL_COMPUESTA" style="stroke:#008000;stroke-width:1;"/><polygon fill="#008000" points="191.335,861.2169,195.335,852.2169,191.335,856.2169,187.335,852.2169,191.335,861.2169" style="stroke:#008000;stroke-width:1;"/></g><!--SRC=[dLBTIiCm5BxFKnpcNQ7Wd5wu2w5sLGhkXswzKQHaxN64PJarJI-c-40-Xozcqhcj4ntYQI7DbyFvVffgALJ9DLz1PRX1U6K0rpnVBZJLgWX9aeQJ9_vqFZzt9wGBr5zeVdbgYxqnLks6AFfrneLx3hkbK6ZM9K99SkqsZ1bX9C803PTs3Nb5K22aTWdcMcX8S24vp3GlyOL4mIM4j2fhjEePOuFu9agYKHW7OJmUPQDq62Ln66HH5ezcqMtImFx3oK8ZgaV_2hWRcfdzk2pVZMkya78gbzQHvwLLpRKWg4YAN1ZUzpoB-tzGXgfeeh7ccvIFqBhmDarTu1LqeBC3phu3lJrWtmVl4ThUkXRh7Y1d5ldcofNdJKLbSCL1utCjKEF6cIiVXX_lXWg2bbhOgYNxfIWN1TdsdKcmIjkqlPzezt5EKMAU2r9yI_ilKhlf7T3QFDnrEv9rkxlVzBL-N-jU_NxMdZ1BWabqFuu7mLqMZeUJD9hEWay0]--></g></svg>