<svg xmlns="http://www.w3.org/2000/svg" xmlns:xlink="http://www.w3.org/1999/xlink" contentStyleType="text/css" data-diagram-type="STATE" height="917px" preserveAspectRatio="none" style="width:432px;height:917px;background:#FFFFFF;" version="1.1" viewBox="0 0 432 917" width="432px" zoomAndPan="magnify"><title>Detalle Caso de Uso Abrir Punto Medio de 5 Puntos</title><defs/><g><g class="title" data-source-line="12"><text fill="#000000" font-family="sans-serif" font-size="14" font-weight="bold" lengthAdjust="spacing" textLength="404.6533" x="10" y="22.9951">Detalle Caso de Uso Abrir Punto Medio de 5 Puntos</text></g><path d="M26.5767,204.2969 L360.5767,204.2969 A12.5,12.5 0 0 1 373.0767,216.7969 L373.0767,230.5938 L14.0767,230.5938 L14.0767,216.7969 A12.5,12.5 0 0 1 26.5767,204.2969" fill="#FAF4B4" style="stroke:#FAF4B4;stroke-width:1;"/><rect fill="none" height="485.2969" rx="12.5" ry="12.5" style="stroke:#C90000;stroke-width:0.5;" width="359" x="14.0767" y="204.2969"/><line style="stroke:#C90000;stroke-width:0.5;" x1="14.0767" x2="373.0767" y1="230.5938" y2="230.5938"/><text fill="#000000" font-family="sans-serif" font-size="14" lengthAdjust="spacing" textLength="202.0361" x="92.5586" y="222.292">abrir_punto_medio_5_puntos</text><g id="abrir_punto_medio_5_puntos.1"><rect fill="#FAF4B4" height="50" rx="12.5" ry="12.5" style="stroke:#C90000;stroke-width:0.5;" width="50" x="26.0767" y="298.5938"/><line style="stroke:#C90000;stroke-width:0.5;" x1="26.0767" x2="76.0767" y1="324.8906" y2="324.8906"/><text fill="#000000" font-family="sans-serif" font-size="14" lengthAdjust="spacing" textLength="4.4502" x="48.8516" y="316.5889">&#160;</text></g><g id="abrir_punto_medio_5_puntos.2"><rect fill="#FAF4B4" height="50" rx="12.5" ry="12.5" style="stroke:#C90000;stroke-width:0.5;" width="50" x="26.0767" y="434.5938"/><line style="stroke:#C90000;stroke-width:0.5;" x1="26.0767" x2="76.0767" y1="460.8906" y2="460.8906"/><text fill="#000000" font-family="sans-serif" font-size="14" lengthAdjust="spacing" textLength="4.4502" x="48.8516" y="452.5889">&#160;</text></g><g id="abrir_punto_medio_5_puntos.3"><rect fill="#FAF4B4" height="50" rx="12.5" ry="12.5" style="stroke:#C90000;stroke-width:0.5;" width="50" x="26.0767" y="570.5938"/><line style="stroke:#C90000;stroke-width:0.5;" x1="26.0767" x2="76.0767" y1="596.8906" y2="596.8906"/><text fill="#000000" font-family="sans-serif" font-size="14" lengthAdjust="spacing" textLength="4.4502" x="48.8516" y="588.5889">&#160;</text></g><ellipse cx="51.0767" cy="251.5938" fill="#222222" rx="10" ry="10" style="stroke:#222222;stroke-width:1;"/><ellipse cx="51.0767" cy="668.5938" fill="none" rx="11" ry="11" style="stroke:#222222;stroke-width:1;"/><ellipse cx="51.0767" cy="668.5938" fill="#222222" rx="6" ry="6" style="stroke:#222222;stroke-width:1;"/><!--link *start*abrir_punto_medio_5_puntos to 1--><g class="link" data-entity-1="*start*abrir_punto_medio_5_puntos" data-entity-2="1" data-source-line="26" data-uid="lnk5" id="link_*start*abrir_punto_medio_5_puntos_1"><path d="M51.0767,262.0338 C51.0767,271.2938 51.0767,279.7838 51.0767,292.2738" fill="none" id="*start*abrir_punto_medio_5_puntos-to-1" style="stroke:#008000;stroke-width:1;"/><polygon fill="#008000" points="51.0767,298.2738,55.0767,289.2738,51.0767,293.2738,47.0767,289.2738,51.0767,298.2738" style="stroke:#008000;stroke-width:1;"/></g><!--link 1 to 2--><g class="link" data-entity-1="1" data-entity-2="2" data-source-line="27" data-uid="lnk6" id="link_1_2"><path d="M51.0767,348.8638 C51.0767,373.1438 51.0767,404.2838 51.0767,428.5037" fill="none" id="1-to-2" style="stroke:#008000;stroke-width:1;"/><polygon fill="#008000" points="51.0767,434.5037,55.0767,425.5037,51.0767,429.5037,47.0767,425.5037,51.0767,434.5037" style="stroke:#008000;stroke-width:1;"/><path d="M56.0767,371.5938 L56.0767,411.5938 L364.0767,411.5938 L364.0767,381.5938 L354.0767,371.5938 L56.0767,371.5938" fill="#F5F5F5" style="stroke:#181818;stroke-width:0.5;"/><path d="M354.0767,371.5938 L354.0767,381.5938 L364.0767,381.5938 L354.0767,371.5938" fill="#F5F5F5" style="stroke:#181818;stroke-width:0.5;"/><text fill="#000000" font-family="sans-serif" font-size="13" font-weight="bold" lengthAdjust="spacing" textLength="130.9204" x="62.0767" y="388.6606">Sistema requiere:</text><text fill="#000000" font-family="sans-serif" font-size="13" lengthAdjust="spacing" textLength="287.6821" x="62.0767" y="403.7935">- M&#233;todo punto medio de 5 puntos conocido</text></g><!--link 2 to 3--><g class="link" data-entity-1="2" data-entity-2="3" data-source-line="32" data-uid="lnk7" id="link_2_3"><path d="M51.0767,484.8638 C51.0767,509.1438 51.0767,540.2838 51.0767,564.5038" fill="none" id="2-to-3" style="stroke:#008000;stroke-width:1;"/><polygon fill="#008000" points="51.0767,570.5038,55.0767,561.5038,51.0767,565.5038,47.0767,561.5038,51.0767,570.5038" style="stroke:#008000;stroke-width:1;"/><path d="M56.0767,507.5938 L56.0767,547.5938 L364.0767,547.5938 L364.0767,517.5938 L354.0767,507.5938 L56.0767,507.5938" fill="#F5F5F5" style="stroke:#181818;stroke-width:0.5;"/><path d="M354.0767,507.5938 L354.0767,517.5938 L364.0767,517.5938 L354.0767,507.5938" fill="#F5F5F5" style="stroke:#181818;stroke-width:0.5;"/><text fill="#000000" font-family="sans-serif" font-size="13" font-weight="bold" lengthAdjust="spacing" textLength="144.1235" x="62.0767" y="524.6606">Usuario Selecciona:</text><text fill="#000000" font-family="sans-serif" font-size="13" lengthAdjust="spacing" textLength="287.6821" x="62.0767" y="539.7935">- M&#233;todo punto medio de 5 puntos conocido</text></g><!--link 3 to *end*abrir_punto_medio_5_puntos--><g class="link" data-entity-1="3" data-entity-2="*end*abrir_punto_medio_5_puntos" data-source-line="38" data-uid="lnk9" id="link_3_*end*abrir_punto_medio_5_puntos"><path d="M51.0767,621.0238 C51.0767,633.3838 51.0767,641.7238 51.0767,651.1938" fill="none" id="3-to-*end*abrir_punto_medio_5_puntos" style="stroke:#008000;stroke-width:1;"/><polygon fill="#008000" points="51.0767,657.1938,55.0767,648.1938,51.0767,652.1938,47.0767,648.1938,51.0767,657.1938" style="stroke:#008000;stroke-width:1;"/></g><g id="DIFERENCIACION_NUMERICA_E_INTEGRACION"><rect fill="#FAF4B4" height="50" rx="12.5" ry="12.5" style="stroke:#C90000;stroke-width:0.5;" width="341.9795" x="22.5867" y="44.2969"/><line style="stroke:#C90000;stroke-width:0.5;" x1="22.5867" x2="364.5662" y1="70.5938" y2="70.5938"/><text fill="#000000" font-family="sans-serif" font-size="14" lengthAdjust="spacing" textLength="321.9795" x="32.5867" y="62.292">DIFERENCIACION_NUMERICA_E_INTEGRACION</text></g><g id=":abrirPuntoMedio5Puntos"><rect fill="#FAF4B4" height="50" rx="12.5" ry="12.5" style="stroke:#C90000;stroke-width:0.5;" width="196.3057" x="95.4267" y="750.5969"/><line style="stroke:#C90000;stroke-width:0.5;" x1="95.4267" x2="291.7323" y1="776.8938" y2="776.8938"/><text fill="#000000" font-family="sans-serif" font-size="14" lengthAdjust="spacing" textLength="176.3057" x="105.4267" y="768.592">:abrirPuntoMedio5Puntos</text></g><g id="PUNTO_MEDIO_5_PUNTOS"><rect fill="#FAF4B4" height="50" rx="12.5" ry="12.5" style="stroke:#C90000;stroke-width:0.5;" width="203.1143" x="92.0167" y="861.5969"/><line style="stroke:#C90000;stroke-width:0.5;" x1="92.0167" x2="295.1309" y1="887.8938" y2="887.8938"/><text fill="#000000" font-family="sans-serif" font-size="14" lengthAdjust="spacing" textLength="183.1143" x="102.0167" y="879.592">PUNTO_MEDIO_5_PUNTOS</text></g><!--link DIFERENCIACION_NUMERICA_E_INTEGRACION to abrir_punto_medio_5_puntos--><g class="link" data-entity-1="DIFERENCIACION_NUMERICA_E_INTEGRACION" data-entity-2="abrir_punto_medio_5_puntos" data-source-line="15" data-uid="lnk3" id="link_DIFERENCIACION_NUMERICA_E_INTEGRACION_abrir_punto_medio_5_puntos"><path d="M193.5767,94.6569 C193.5767,119.0469 193.5767,153.2969 193.5767,198.0169" fill="none" id="DIFERENCIACION_NUMERICA_E_INTEGRACION-to-abrir_punto_medio_5_puntos" style="stroke:#008000;stroke-width:1;"/><polygon fill="#008000" points="193.5767,204.0169,197.5767,195.0169,193.5767,199.0169,189.5767,195.0169,193.5767,204.0169" style="stroke:#008000;stroke-width:1;"/><path d="M198.5767,129.2969 L198.5767,169.2969 L424.5767,169.2969 L424.5767,139.2969 L414.5767,129.2969 L198.5767,129.2969" fill="#F5F5F5" style="stroke:#181818;stroke-width:0.5;"/><path d="M414.5767,129.2969 L414.5767,139.2969 L424.5767,139.2969 L414.5767,129.2969" fill="#F5F5F5" style="stroke:#181818;stroke-width:0.5;"/><text fill="#000000" font-family="sans-serif" font-size="13" font-weight="bold" lengthAdjust="spacing" textLength="118.5742" x="204.5767" y="146.3638">Usuario solicita:</text><text fill="#000000" font-family="sans-serif" font-size="13" lengthAdjust="spacing" textLength="205.9941" x="204.5767" y="161.4966">- Abrir Punto Medio de 5 Puntos</text></g><!--link abrir_punto_medio_5_puntos to :abrirPuntoMedio5Puntos--><g class="link" data-entity-1="abrir_punto_medio_5_puntos" data-entity-2=":abrirPuntoMedio5Puntos" data-source-line="41" data-uid="lnk11" id="link_abrir_punto_medio_5_puntos_:abrirPuntoMedio5Puntos"><path d="M193.5767,690.0569 C193.5767,714.2169 193.5767,729.3469 193.5767,744.4469" fill="none" id="abrir_punto_medio_5_puntos-to-:abrirPuntoMedio5Puntos" style="stroke:#008000;stroke-width:1;"/><polygon fill="#008000" points="193.5767,750.4469,197.5767,741.4469,193.5767,745.4469,189.5767,741.4469,193.5767,750.4469" style="stroke:#008000;stroke-width:1;"/></g><!--link :abrirPuntoMedio5Puntos to PUNTO_MEDIO_5_PUNTOS--><g class="link" data-entity-1=":abrirPuntoMedio5Puntos" data-entity-2="PUNTO_MEDIO_5_PUNTOS" data-source-line="43" data-uid="lnk13" id="link_:abrirPuntoMedio5Puntos_PUNTO_MEDIO_5_PUNTOS"><path d="M193.5767,801.0569 C193.5767,819.0069 193.5767,837.2869 193.5767,855.2169" fill="none" id=":abrirPuntoMedio5Puntos-to-PUNTO_MEDIO_5_PUNTOS" style="stroke:#008000;stroke-width:1;"/><polygon fill="#008000" points="193.5767,861.2169,197.5767,852.2169,193.5767,856.2169,189.5767,852.2169,193.5767,861.2169" style="stroke:#008000;stroke-width:1;"/></g><!--SRC=[dL9BRi8m4Dtx52FOHOfKFbcKHIKQqYgB1CHdXL1aaW5P19lQpW9LFL3FqOlLTWe4L5IfaqZMlFcyUMEh7UC7AkaUbAOQuPq0FDDyjvMYuaKeIY6XlQ6R_hfl8q8MA7_G_F716FaWH9sRS76tHs2_w-oISTJ70y91b4Vh4AAPBX56g6bfpf0g0GN2mXp3jMGI9XNN0X8ic0i4DQ088QFu9Pf6QHWFmtYSPkaYYQPnECoYB4xdqUlKmVwolPM8VEK_0RKDiuEjp_QsOHRKdY9EXk1sm9qHutaBLL5fA9KeMSuq7NYUmVq_Xa9Uk8qOpMwvzndjokgS3b05BMYTWUujqBi0vbzwAsYgwXYiSuLq3N8Zo9hdpPZIkASWyQrYAB4MPSs7vEjJYqA06m_s5sdrl90BBd9M25DmLWbcrYPnxpVYoovdM6AUCy7fYVYVjCRfNH6RdTY7Td_TpUI1ItCtvcumEBseEu5cxMIHpiTP4etYiUdjlDat]--></g></svg>