<svg xmlns="http://www.w3.org/2000/svg" xmlns:xlink="http://www.w3.org/1999/xlink" contentStyleType="text/css" data-diagram-type="STATE" height="866px" preserveAspectRatio="none" style="width:537px;height:866px;background:#FFFFFF;" version="1.1" viewBox="0 0 537 866" width="537px" zoomAndPan="magnify"><title>Detalle Caso de Uso Crear Operaci&#243;n Newton Cotes Cerrado n=2</title><defs/><g><g class="title" data-source-line="14"><text fill="#000000" font-family="sans-serif" font-size="14" font-weight="bold" lengthAdjust="spacing" textLength="509.1406" x="10" y="22.9951">Detalle Caso de Uso Crear Operaci&#243;n Newton Cotes Cerrado n=2</text></g><g id="NEWTON_COTES_C2"><rect fill="#FAF4B4" height="50" rx="12.5" ry="12.5" style="stroke:#C90000;stroke-width:0.5;" width="162.9668" x="284.7206" y="44.2969"/><line style="stroke:#C90000;stroke-width:0.5;" x1="284.7206" x2="447.6874" y1="70.5938" y2="70.5938"/><text fill="#000000" font-family="sans-serif" font-size="14" lengthAdjust="spacing" textLength="142.9668" x="294.7206" y="62.292">NEWTON_COTES_C2</text></g><path d="M38.7006,204.2969 L431.7006,204.2969 A12.5,12.5 0 0 1 444.2006,216.7969 L444.2006,230.5938 L26.2006,230.5938 L26.2006,216.7969 A12.5,12.5 0 0 1 38.7006,204.2969" fill="#FAF4B4"/><rect fill="none" height="545.2969" rx="12.5" ry="12.5" style="stroke:#C90000;stroke-width:0.5;" width="418" x="26.2006" y="204.2969"/><line style="stroke:#C90000;stroke-width:0.5;" x1="26.2006" x2="444.2006" y1="230.5938" y2="230.5938"/><text fill="#000000" font-family="sans-serif" font-size="14" lengthAdjust="spacing" textLength="163.5293" x="153.4359" y="222.292">crear_newton_cotes_c2</text><g id="crear_newton_cotes_c2.1"><rect fill="#FAF4B4" height="50" rx="12.5" ry="12.5" style="stroke:#C90000;stroke-width:0.5;" width="50" x="176.2006" y="298.5938"/><line style="stroke:#C90000;stroke-width:0.5;" x1="176.2006" x2="226.2006" y1="324.8906" y2="324.8906"/><text fill="#000000" font-family="sans-serif" font-size="14" lengthAdjust="spacing" textLength="4.4502" x="198.9755" y="316.5889">&#160;</text></g><g id="crear_newton_cotes_c2.2"><rect fill="#FAF4B4" height="50" rx="12.5" ry="12.5" style="stroke:#C90000;stroke-width:0.5;" width="50" x="38.2006" y="464.5938"/><line style="stroke:#C90000;stroke-width:0.5;" x1="38.2006" x2="88.2006" y1="490.8906" y2="490.8906"/><text fill="#000000" font-family="sans-serif" font-size="14" lengthAdjust="spacing" textLength="4.4502" x="60.9755" y="482.5889">&#160;</text></g><g id="crear_newton_cotes_c2.3"><rect fill="#FAF4B4" height="50" rx="12.5" ry="12.5" style="stroke:#C90000;stroke-width:0.5;" width="50" x="171.2006" y="630.5938"/><line style="stroke:#C90000;stroke-width:0.5;" x1="171.2006" x2="221.2006" y1="656.8906" y2="656.8906"/><text fill="#000000" font-family="sans-serif" font-size="14" lengthAdjust="spacing" textLength="4.4502" x="193.9755" y="648.5889">&#160;</text></g><ellipse cx="201.2006" cy="251.5938" fill="#222222" rx="10" ry="10" style="stroke:#222222;stroke-width:1;"/><ellipse cx="196.2006" cy="728.5938" fill="none" rx="11" ry="11" style="stroke:#222222;stroke-width:1;"/><ellipse cx="196.2006" cy="728.5938" fill="#222222" rx="6" ry="6" style="stroke:#222222;stroke-width:1;"/><!--link *start*crear_newton_cotes_c2 to 1--><g class="link" data-entity-1=".start.crear_newton_cotes_c2" data-entity-2="1" data-source-line="29" data-uid="lnk4" id="link_.start.crear_newton_cotes_c2_1"><path d="M201.2006,262.0338 C201.2006,271.2938 201.2006,279.7838 201.2006,292.2738" fill="none" id="*start*crear_newton_cotes_c2-to-1" style="stroke:#008000;stroke-width:1;"/><polygon fill="#008000" points="201.2006,298.2738,205.2006,289.2738,201.2006,293.2738,197.2006,289.2738,201.2006,298.2738" style="stroke:#008000;stroke-width:1;"/></g><!--link 1 to 2--><g class="link" data-entity-1="1" data-entity-2="2" data-source-line="30" data-uid="lnk5" id="link_1_2"><path d="M175.8006,332.9938 C138.7406,345.2538 74.2006,366.5938 74.2006,366.5938 C74.2006,366.5938 69.1494,422.618 65.9394,458.218" fill="none" id="1-to-2" style="stroke:#008000;stroke-width:1;"/><polygon fill="#008000" points="65.4006,464.1938,70.1926,455.5893,65.8496,459.214,62.225,454.8709,65.4006,464.1938" style="stroke:#008000;stroke-width:1;"/><path d="M79.2006,371.5938 L79.2006,441.5938 L320.2006,441.5938 L320.2006,381.5938 L310.2006,371.5938 L79.2006,371.5938" fill="#F5F5F5" style="stroke:#181818;stroke-width:0.5;"/><path d="M310.2006,371.5938 L310.2006,381.5938 L320.2006,381.5938 L310.2006,371.5938" fill="#F5F5F5" style="stroke:#181818;stroke-width:0.5;"/><text fill="#000000" font-family="sans-serif" font-size="13" font-weight="bold" lengthAdjust="spacing" textLength="220.5874" x="85.2006" y="388.6606">Sistema requiere Par&#225;metros:</text><text fill="#000000" font-family="sans-serif" font-size="13" lengthAdjust="spacing" textLength="56.8306" x="85.2006" y="403.7935">- funcion</text><text fill="#000000" font-family="sans-serif" font-size="13" lengthAdjust="spacing" textLength="16.7896" x="85.2006" y="418.9263">- a</text><text fill="#000000" font-family="sans-serif" font-size="13" lengthAdjust="spacing" textLength="17.0752" x="85.2006" y="434.0591">- b</text></g><!--link 2 to 3--><g class="link" data-entity-1="2" data-entity-2="3" data-source-line="37" data-uid="lnk6" id="link_2_3"><path d="M58.5506,515.0238 C56.7906,524.2638 55.2006,532.5938 55.2006,532.5938 C55.2006,532.5938 55.2006,612.5938 55.2006,612.5938 C55.2006,612.5938 124.6903,633.2907 165.2403,645.3707" fill="none" id="2-to-3" style="stroke:#008000;stroke-width:1;"/><polygon fill="#008000" points="170.9906,647.0838,163.5072,640.6807,166.1987,645.6562,161.2232,648.3477,170.9906,647.0838" style="stroke:#008000;stroke-width:1;"/><path d="M60.2006,537.5938 L60.2006,607.5938 L320.2006,607.5938 L320.2006,547.5938 L310.2006,537.5938 L60.2006,537.5938" fill="#F5F5F5" style="stroke:#181818;stroke-width:0.5;"/><path d="M310.2006,537.5938 L310.2006,547.5938 L320.2006,547.5938 L310.2006,537.5938" fill="#F5F5F5" style="stroke:#181818;stroke-width:0.5;"/><text fill="#000000" font-family="sans-serif" font-size="13" font-weight="bold" lengthAdjust="spacing" textLength="239.5859" x="66.2006" y="554.6606">Cliente Proporciona Par&#225;metros:</text><text fill="#000000" font-family="sans-serif" font-size="13" lengthAdjust="spacing" textLength="56.8306" x="74.4652" y="569.7935">- funcion</text><text fill="#000000" font-family="sans-serif" font-size="13" lengthAdjust="spacing" textLength="16.7896" x="74.4652" y="584.9263">- a</text><text fill="#000000" font-family="sans-serif" font-size="13" lengthAdjust="spacing" textLength="17.0752" x="74.4652" y="600.0591">- b</text></g><!--link 3 to 1--><g class="link" data-entity-1="3" data-entity-2="1" data-source-line="44" data-uid="lnk7" id="link_3_1"><path d="M221.6906,646.2938 C259.2806,634.0538 325.2006,612.5938 325.2006,612.5938 C325.2006,612.5938 325.2006,366.5938 325.2006,366.5938 C325.2006,366.5938 268.5534,347.4088 232.2734,335.1188" fill="none" id="3-to-1" style="stroke:#FF0000;stroke-width:1;"/><polygon fill="#FF0000" points="226.5906,333.1938,233.8314,339.8699,231.3262,334.798,236.3981,332.2928,226.5906,333.1938" style="stroke:#FF0000;stroke-width:1;"/><path d="M330.2006,469.5938 L330.2006,509.5938 L435.2006,509.5938 L435.2006,479.5938 L425.2006,469.5938 L330.2006,469.5938" fill="#F5F5F5" style="stroke:#181818;stroke-width:0.5;"/><path d="M425.2006,469.5938 L425.2006,479.5938 L435.2006,479.5938 L425.2006,469.5938" fill="#F5F5F5" style="stroke:#181818;stroke-width:0.5;"/><text fill="#000000" font-family="sans-serif" font-size="13" lengthAdjust="spacing" textLength="80.0186" x="336.2006" y="486.6606">[Par&#225;metros</text><text fill="#000000" font-family="sans-serif" font-size="13" lengthAdjust="spacing" textLength="63.0068" x="344.4652" y="501.7935">Inv&#225;lidos]</text></g><!--link 3 to *end*crear_newton_cotes_c2--><g class="link" data-entity-1="3" data-entity-2=".end.crear_newton_cotes_c2" data-source-line="49" data-uid="lnk9" id="link_3_.end.crear_newton_cotes_c2"><path d="M196.2006,681.0238 C196.2006,693.3838 196.2006,701.7238 196.2006,711.1938" fill="none" id="3-to-*end*crear_newton_cotes_c2" style="stroke:#008000;stroke-width:1;"/><polygon fill="#008000" points="196.2006,717.1938,200.2006,708.1938,196.2006,712.1938,192.2006,708.1938,196.2006,717.1938" style="stroke:#008000;stroke-width:1;"/></g><g id=".calcularResultadoNewtonCotesC2"><rect fill="#FAF4B4" height="50" rx="12.5" ry="12.5" style="stroke:#C90000;stroke-width:0.5;" width="261.4795" x="255.4606" y="810.5969"/><line style="stroke:#C90000;stroke-width:0.5;" x1="255.4606" x2="516.9401" y1="836.8938" y2="836.8938"/><text fill="#000000" font-family="sans-serif" font-size="14" lengthAdjust="spacing" textLength="241.4795" x="265.4606" y="828.592">:calcularResultadoNewtonCotesC2</text></g><!--link NEWTON_COTES_C2 to crear_newton_cotes_c2--><g class="link" data-entity-1="NEWTON_COTES_C2" data-entity-2="crear_newton_cotes_c2" data-source-line="18" data-uid="lnk2" id="link_NEWTON_COTES_C2_crear_newton_cotes_c2"><path d="M286.8906,94.7769 C240.5906,109.0569 191.2006,124.2969 191.2006,124.2969 C191.2006,124.2969 191.2006,174.2969 191.2006,174.2969 C191.2006,174.2969 191.9935,179.7599 194.6735,198.1099" fill="none" id="NEWTON_COTES_C2-to-crear_newton_cotes_c2" style="stroke:#008000;stroke-width:1;"/><polygon fill="#008000" points="195.5406,204.0469,198.1979,194.5633,194.818,199.0994,190.2819,195.7194,195.5406,204.0469" style="stroke:#008000;stroke-width:1;"/><path d="M196.2006,129.2969 L196.2006,169.2969 L507.2006,169.2969 L507.2006,139.2969 L497.2006,129.2969 L196.2006,129.2969" fill="#F5F5F5" style="stroke:#181818;stroke-width:0.5;"/><path d="M497.2006,129.2969 L497.2006,139.2969 L507.2006,139.2969 L497.2006,129.2969" fill="#F5F5F5" style="stroke:#181818;stroke-width:0.5;"/><text fill="#000000" font-family="sans-serif" font-size="13" font-weight="bold" lengthAdjust="spacing" textLength="114.0103" x="202.2006" y="146.3638">Cliente solicita:</text><text fill="#000000" font-family="sans-serif" font-size="13" lengthAdjust="spacing" textLength="290.2212" x="202.2006" y="161.4966">- Crear operaci&#243;n newton cotes cerrado n=2</text></g><!--link crear_newton_cotes_c2 to :calcularResultadoNewtonCotesC2--><g class="link" data-entity-1="crear_newton_cotes_c2" data-entity-2=".calcularResultadoNewtonCotesC2" data-source-line="53" data-uid="lnk11" id="link_crear_newton_cotes_c2_.calcularResultadoNewtonCotesC2"><path d="M350.4206,750.0769 C360.6706,774.2969 367.2215,789.7616 373.5715,804.7616" fill="none" id="crear_newton_cotes_c2-to-:calcularResultadoNewtonCotesC2" style="stroke:#008000;stroke-width:1;"/><polygon fill="#008000" points="375.9106,810.2869,376.0855,800.4396,373.9614,805.6825,368.7185,803.5583,375.9106,810.2869" style="stroke:#008000;stroke-width:1;"/></g><!--link :calcularResultadoNewtonCotesC2 to NEWTON_COTES_C2--><g class="link" data-entity-1=".calcularResultadoNewtonCotesC2" data-entity-2="NEWTON_COTES_C2" data-source-line="55" data-uid="lnk12" id="link_.calcularResultadoNewtonCotesC2_NEWTON_COTES_C2"><path d="M407.7806,810.4669 C430.2406,785.3369 462.2006,749.5969 462.2006,749.5969 C462.2006,749.5969 516.2006,174.2969 516.2006,174.2969 C516.2006,174.2969 516.2006,124.2969 516.2006,124.2969 C516.2006,124.2969 479.5163,111.0881 439.8263,96.8081" fill="none" id=":calcularResultadoNewtonCotesC2-to-NEWTON_COTES_C2" style="stroke:#008000;stroke-width:1;"/><polygon fill="#008000" points="434.1806,94.7769,441.295,101.5876,438.8853,96.4696,444.0033,94.06,434.1806,94.7769" style="stroke:#008000;stroke-width:1;"/></g><!--SRC=[fLBDRjim3BxxAOZcPY30adI75jWEytBO9IdM5Zi4WS78J2544JrAtb0CVPW-GnyXBpRA-NEp33sKDY3f4_5z_2X6hY4oB3X6NaDbXKoqxBCihAolKN0D8M8a-9C1V46pUX1kV5MmOu7U4fUNYyjqmrAHx51pzK4ZU-gIUFulnyVqlSvsrbDyh0bgTe_fa6NHHaVmbI8wNGiC31N1lIw540fCQn8qTlFYOKA_8tieL390GI9OCVXFGrLehKp6F-wcaxAOterloqBX4w0_wpq8aP_tFuD9vALl6KkJ64ipp5etAg6bhTHJdXVEabSiiBF6HhpESyNxkzhuMDkM2LecC9tQo5Tja_P5dXLE3TnU3m03NC350HYU0gCZeFyidqFNrq2nmIjagCY9hnHvVcj3f3M2qC_6aX3Se6oUrnI5mzPdYZui6s_IwEpFUDWjT7Vm1rfgLtTqJlVOqHlXcYKHuxk5HqbOgDetu1_PMKS1TYpV_A_DixCLX_aPjeCDRN2MXlZiktKJhmqwqpYKxnGQ5_Nzj_FQZckQnZSIkbmdW_iN]--></g></svg>