<svg xmlns="http://www.w3.org/2000/svg" xmlns:xlink="http://www.w3.org/1999/xlink" contentStyleType="text/css" data-diagram-type="STATE" height="917px" preserveAspectRatio="none" style="width:444px;height:917px;background:#FFFFFF;" version="1.1" viewBox="0 0 444 917" width="444px" zoomAndPan="magnify"><title>Detalle Caso de Uso Abrir Integral Doble de Simpson</title><defs/><g><g class="title" data-source-line="12"><text fill="#000000" font-family="sans-serif" font-size="14" font-weight="bold" lengthAdjust="spacing" textLength="416.3291" x="10" y="22.9951">Detalle Caso de Uso Abrir Integral Doble de Simpson</text></g><path d="M30.6646,204.2969 L349.6646,204.2969 A12.5,12.5 0 0 1 362.1646,216.7969 L362.1646,230.5938 L18.1646,230.5938 L18.1646,216.7969 A12.5,12.5 0 0 1 30.6646,204.2969" fill="#FAF4B4" style="stroke:#FAF4B4;stroke-width:1;"/><rect fill="none" height="485.2969" rx="12.5" ry="12.5" style="stroke:#C90000;stroke-width:0.5;" width="344" x="18.1646" y="204.2969"/><line style="stroke:#C90000;stroke-width:0.5;" x1="18.1646" x2="362.1646" y1="230.5938" y2="230.5938"/><text fill="#000000" font-family="sans-serif" font-size="14" lengthAdjust="spacing" textLength="205.126" x="87.6016" y="222.292">abrir_integral_doble_simpson</text><g id="abrir_integral_doble_simpson.1"><rect fill="#FAF4B4" height="50" rx="12.5" ry="12.5" style="stroke:#C90000;stroke-width:0.5;" width="50" x="30.1646" y="298.5938"/><line style="stroke:#C90000;stroke-width:0.5;" x1="30.1646" x2="80.1646" y1="324.8906" y2="324.8906"/><text fill="#000000" font-family="sans-serif" font-size="14" lengthAdjust="spacing" textLength="4.4502" x="52.9395" y="316.5889">&#160;</text></g><g id="abrir_integral_doble_simpson.2"><rect fill="#FAF4B4" height="50" rx="12.5" ry="12.5" style="stroke:#C90000;stroke-width:0.5;" width="50" x="30.1646" y="434.5938"/><line style="stroke:#C90000;stroke-width:0.5;" x1="30.1646" x2="80.1646" y1="460.8906" y2="460.8906"/><text fill="#000000" font-family="sans-serif" font-size="14" lengthAdjust="spacing" textLength="4.4502" x="52.9395" y="452.5889">&#160;</text></g><g id="abrir_integral_doble_simpson.3"><rect fill="#FAF4B4" height="50" rx="12.5" ry="12.5" style="stroke:#C90000;stroke-width:0.5;" width="50" x="30.1646" y="570.5938"/><line style="stroke:#C90000;stroke-width:0.5;" x1="30.1646" x2="80.1646" y1="596.8906" y2="596.8906"/><text fill="#000000" font-family="sans-serif" font-size="14" lengthAdjust="spacing" textLength="4.4502" x="52.9395" y="588.5889">&#160;</text></g><ellipse cx="55.1646" cy="251.5938" fill="#222222" rx="10" ry="10" style="stroke:#222222;stroke-width:1;"/><ellipse cx="55.1646" cy="668.5938" fill="none" rx="11" ry="11" style="stroke:#222222;stroke-width:1;"/><ellipse cx="55.1646" cy="668.5938" fill="#222222" rx="6" ry="6" style="stroke:#222222;stroke-width:1;"/><!--link *start*abrir_integral_doble_simpson to 1--><g class="link" data-entity-1="*start*abrir_integral_doble_simpson" data-entity-2="1" data-source-line="26" data-uid="lnk5" id="link_*start*abrir_integral_doble_simpson_1"><path d="M55.1646,262.0338 C55.1646,271.2938 55.1646,279.7838 55.1646,292.2738" fill="none" id="*start*abrir_integral_doble_simpson-to-1" style="stroke:#008000;stroke-width:1;"/><polygon fill="#008000" points="55.1646,298.2738,59.1646,289.2738,55.1646,293.2738,51.1646,289.2738,55.1646,298.2738" style="stroke:#008000;stroke-width:1;"/></g><!--link 1 to 2--><g class="link" data-entity-1="1" data-entity-2="2" data-source-line="27" data-uid="lnk6" id="link_1_2"><path d="M55.1646,348.8638 C55.1646,373.1438 55.1646,404.2838 55.1646,428.5037" fill="none" id="1-to-2" style="stroke:#008000;stroke-width:1;"/><polygon fill="#008000" points="55.1646,434.5037,59.1646,425.5037,55.1646,429.5037,51.1646,425.5037,55.1646,434.5037" style="stroke:#008000;stroke-width:1;"/><path d="M60.1646,371.5938 L60.1646,411.5938 L353.1646,411.5938 L353.1646,381.5938 L343.1646,371.5938 L60.1646,371.5938" fill="#F5F5F5" style="stroke:#181818;stroke-width:0.5;"/><path d="M343.1646,371.5938 L343.1646,381.5938 L353.1646,381.5938 L343.1646,371.5938" fill="#F5F5F5" style="stroke:#181818;stroke-width:0.5;"/><text fill="#000000" font-family="sans-serif" font-size="13" font-weight="bold" lengthAdjust="spacing" textLength="130.9204" x="66.1646" y="388.6606">Sistema requiere:</text><text fill="#000000" font-family="sans-serif" font-size="13" lengthAdjust="spacing" textLength="272.5366" x="66.1646" y="403.7935">- M&#233;todo integral doble simpson conocido</text></g><!--link 2 to 3--><g class="link" data-entity-1="2" data-entity-2="3" data-source-line="32" data-uid="lnk7" id="link_2_3"><path d="M55.1646,484.8638 C55.1646,509.1438 55.1646,540.2838 55.1646,564.5038" fill="none" id="2-to-3" style="stroke:#008000;stroke-width:1;"/><polygon fill="#008000" points="55.1646,570.5038,59.1646,561.5038,55.1646,565.5038,51.1646,561.5038,55.1646,570.5038" style="stroke:#008000;stroke-width:1;"/><path d="M60.1646,507.5938 L60.1646,547.5938 L353.1646,547.5938 L353.1646,517.5938 L343.1646,507.5938 L60.1646,507.5938" fill="#F5F5F5" style="stroke:#181818;stroke-width:0.5;"/><path d="M343.1646,507.5938 L343.1646,517.5938 L353.1646,517.5938 L343.1646,507.5938" fill="#F5F5F5" style="stroke:#181818;stroke-width:0.5;"/><text fill="#000000" font-family="sans-serif" font-size="13" font-weight="bold" lengthAdjust="spacing" textLength="144.1235" x="66.1646" y="524.6606">Usuario Selecciona:</text><text fill="#000000" font-family="sans-serif" font-size="13" lengthAdjust="spacing" textLength="272.5366" x="66.1646" y="539.7935">- M&#233;todo integral doble simpson conocido</text></g><!--link 3 to *end*abrir_integral_doble_simpson--><g class="link" data-entity-1="3" data-entity-2="*end*abrir_integral_doble_simpson" data-source-line="38" data-uid="lnk9" id="link_3_*end*abrir_integral_doble_simpson"><path d="M55.1646,621.0238 C55.1646,633.3838 55.1646,641.7238 55.1646,651.1938" fill="none" id="3-to-*end*abrir_integral_doble_simpson" style="stroke:#008000;stroke-width:1;"/><polygon fill="#008000" points="55.1646,657.1938,59.1646,648.1938,55.1646,652.1938,51.1646,648.1938,55.1646,657.1938" style="stroke:#008000;stroke-width:1;"/></g><g id="DIFERENCIACION_NUMERICA_E_INTEGRACION"><rect fill="#FAF4B4" height="50" rx="12.5" ry="12.5" style="stroke:#C90000;stroke-width:0.5;" width="341.9795" x="19.1746" y="44.2969"/><line style="stroke:#C90000;stroke-width:0.5;" x1="19.1746" x2="361.154" y1="70.5938" y2="70.5938"/><text fill="#000000" font-family="sans-serif" font-size="14" lengthAdjust="spacing" textLength="321.9795" x="29.1746" y="62.292">DIFERENCIACION_NUMERICA_E_INTEGRACION</text></g><g id=":abrirIntegralDobleSimpson"><rect fill="#FAF4B4" height="50" rx="12.5" ry="12.5" style="stroke:#C90000;stroke-width:0.5;" width="212.5684" x="83.8846" y="750.5969"/><line style="stroke:#C90000;stroke-width:0.5;" x1="83.8846" x2="296.4529" y1="776.8938" y2="776.8938"/><text fill="#000000" font-family="sans-serif" font-size="14" lengthAdjust="spacing" textLength="192.5684" x="93.8846" y="768.592">:abrirIntegralDobleSimpson</text></g><g id="INTEGRAL_DOBLE_SIMPSON"><rect fill="#FAF4B4" height="50" rx="12.5" ry="12.5" style="stroke:#C90000;stroke-width:0.5;" width="215.918" x="82.2046" y="861.5969"/><line style="stroke:#C90000;stroke-width:0.5;" x1="82.2046" x2="298.1225" y1="887.8938" y2="887.8938"/><text fill="#000000" font-family="sans-serif" font-size="14" lengthAdjust="spacing" textLength="195.918" x="92.2046" y="879.592">INTEGRAL_DOBLE_SIMPSON</text></g><!--link DIFERENCIACION_NUMERICA_E_INTEGRACION to abrir_integral_doble_simpson--><g class="link" data-entity-1="DIFERENCIACION_NUMERICA_E_INTEGRACION" data-entity-2="abrir_integral_doble_simpson" data-source-line="15" data-uid="lnk3" id="link_DIFERENCIACION_NUMERICA_E_INTEGRACION_abrir_integral_doble_simpson"><path d="M190.1646,94.6569 C190.1646,119.0469 190.1646,153.2969 190.1646,198.0169" fill="none" id="DIFERENCIACION_NUMERICA_E_INTEGRACION-to-abrir_integral_doble_simpson" style="stroke:#008000;stroke-width:1;"/><polygon fill="#008000" points="190.1646,204.0169,194.1646,195.0169,190.1646,199.0169,186.1646,195.0169,190.1646,204.0169" style="stroke:#008000;stroke-width:1;"/><path d="M195.1646,129.2969 L195.1646,169.2969 L432.1646,169.2969 L432.1646,139.2969 L422.1646,129.2969 L195.1646,129.2969" fill="#F5F5F5" style="stroke:#181818;stroke-width:0.5;"/><path d="M422.1646,129.2969 L422.1646,139.2969 L432.1646,139.2969 L422.1646,129.2969" fill="#F5F5F5" style="stroke:#181818;stroke-width:0.5;"/><text fill="#000000" font-family="sans-serif" font-size="13" font-weight="bold" lengthAdjust="spacing" textLength="118.5742" x="201.1646" y="146.3638">Usuario solicita:</text><text fill="#000000" font-family="sans-serif" font-size="13" lengthAdjust="spacing" textLength="216.9629" x="201.1646" y="161.4966">- Abrir Integral Doble de Simpson</text></g><!--link abrir_integral_doble_simpson to :abrirIntegralDobleSimpson--><g class="link" data-entity-1="abrir_integral_doble_simpson" data-entity-2=":abrirIntegralDobleSimpson" data-source-line="41" data-uid="lnk11" id="link_abrir_integral_doble_simpson_:abrirIntegralDobleSimpson"><path d="M190.1646,690.0569 C190.1646,714.2169 190.1646,729.3469 190.1646,744.4469" fill="none" id="abrir_integral_doble_simpson-to-:abrirIntegralDobleSimpson" style="stroke:#008000;stroke-width:1;"/><polygon fill="#008000" points="190.1646,750.4469,194.1646,741.4469,190.1646,745.4469,186.1646,741.4469,190.1646,750.4469" style="stroke:#008000;stroke-width:1;"/></g><!--link :abrirIntegralDobleSimpson to INTEGRAL_DOBLE_SIMPSON--><g class="link" data-entity-1=":abrirIntegralDobleSimpson" data-entity-2="INTEGRAL_DOBLE_SIMPSON" data-source-line="43" data-uid="lnk13" id="link_:abrirIntegralDobleSimpson_INTEGRAL_DOBLE_SIMPSON"><path d="M190.1646,801.0569 C190.1646,819.0069 190.1646,837.2869 190.1646,855.2169" fill="none" id=":abrirIntegralDobleSimpson-to-INTEGRAL_DOBLE_SIMPSON" style="stroke:#008000;stroke-width:1;"/><polygon fill="#008000" points="190.1646,861.2169,194.1646,852.2169,190.1646,856.2169,186.1646,852.2169,190.1646,861.2169" style="stroke:#008000;stroke-width:1;"/></g><!--SRC=[dL9DQy904BtlhnZq5X3gHm_rKD2Obe36Okf99Ap9A8jnn-wk1odzGVqT_MFTZT56gHOw2Ipxvl5ctkpejP1RhlW6jE46uPq1z7cwNYdQoSodd1JKbtpPMNHSXbI6gaJJXpiRx8CnVHAHT5NZtdtdx5n8DFijmfRolRimPeJ94GPeU6vFdsk2365gZzv22GMXDBXIF8S1BIp1vcAnsMgIZB51-1HCWiWFUtuuZf9eEWeceTzBWYICNeFdIG4tPlMLGfJpnYDm9vc8KZB9d6IYIxt22adNvDeQyhoftd4b23Jb8XM6TptFueq_6qEP5NEnpeiHtwhgHdTWDO5hg47j1BGkWVOFOF-PDuUgjwR5ccT8oo8NfbnuNYoqmGq7XMyxWGeFnbmqOFJrQIWZEBOBHRjGjWifIKf5HfP_iWcsrMhTzczrVyOPOuvfAaZoOzt_LRMNzbbTEn6tRhV6NQLt2-Bn6OjNFAtMzLnLeTooOJ8OzuT14eUZbtWSVGC0]--></g></svg>