<svg xmlns="http://www.w3.org/2000/svg" xmlns:xlink="http://www.w3.org/1999/xlink" contentStyleType="text/css" data-diagram-type="STATE" height="896px" preserveAspectRatio="none" style="width:515px;height:896px;background:#FFFFFF;" version="1.1" viewBox="0 0 515 896" width="515px" zoomAndPan="magnify"><title>Detalle Caso de Uso Crear Operaci&#243;n Integraci&#243;n de Romberg</title><defs/><g><g class="title" data-source-line="14"><text fill="#000000" font-family="sans-serif" font-size="14" font-weight="bold" lengthAdjust="spacing" textLength="486.6914" x="10" y="22.9951">Detalle Caso de Uso Crear Operaci&#243;n Integraci&#243;n de Romberg</text></g><g id="INTEGRACION_ROMBERG"><rect fill="#FAF4B4" height="50" rx="12.5" ry="12.5" style="stroke:#C90000;stroke-width:0.5;" width="196.4014" x="253.8904" y="44.2969"/><line style="stroke:#C90000;stroke-width:0.5;" x1="253.8904" x2="450.2918" y1="70.5938" y2="70.5938"/><text fill="#000000" font-family="sans-serif" font-size="14" lengthAdjust="spacing" textLength="176.4014" x="263.8904" y="62.292">INTEGRACION_ROMBERG</text></g><path d="M24.5904,204.2969 L417.5904,204.2969 A12.5,12.5 0 0 1 430.0904,216.7969 L430.0904,230.5938 L12.0904,230.5938 L12.0904,216.7969 A12.5,12.5 0 0 1 24.5904,204.2969" fill="#FAF4B4"/><rect fill="none" height="575.2969" rx="12.5" ry="12.5" style="stroke:#C90000;stroke-width:0.5;" width="418" x="12.0904" y="204.2969"/><line style="stroke:#C90000;stroke-width:0.5;" x1="12.0904" x2="430.0904" y1="230.5938" y2="230.5938"/><text fill="#000000" font-family="sans-serif" font-size="14" lengthAdjust="spacing" textLength="189.6152" x="126.2828" y="222.292">crear_integracion_romberg</text><g id="crear_integracion_romberg.1"><rect fill="#FAF4B4" height="50" rx="12.5" ry="12.5" style="stroke:#C90000;stroke-width:0.5;" width="50" x="162.0904" y="298.5938"/><line style="stroke:#C90000;stroke-width:0.5;" x1="162.0904" x2="212.0904" y1="324.8906" y2="324.8906"/><text fill="#000000" font-family="sans-serif" font-size="14" lengthAdjust="spacing" textLength="4.4502" x="184.8654" y="316.5889">&#160;</text></g><g id="crear_integracion_romberg.2"><rect fill="#FAF4B4" height="50" rx="12.5" ry="12.5" style="stroke:#C90000;stroke-width:0.5;" width="50" x="24.0904" y="479.5938"/><line style="stroke:#C90000;stroke-width:0.5;" x1="24.0904" x2="74.0904" y1="505.8906" y2="505.8906"/><text fill="#000000" font-family="sans-serif" font-size="14" lengthAdjust="spacing" textLength="4.4502" x="46.8654" y="497.5889">&#160;</text></g><g id="crear_integracion_romberg.3"><rect fill="#FAF4B4" height="50" rx="12.5" ry="12.5" style="stroke:#C90000;stroke-width:0.5;" width="50" x="157.0904" y="660.5938"/><line style="stroke:#C90000;stroke-width:0.5;" x1="157.0904" x2="207.0904" y1="686.8906" y2="686.8906"/><text fill="#000000" font-family="sans-serif" font-size="14" lengthAdjust="spacing" textLength="4.4502" x="179.8654" y="678.5889">&#160;</text></g><ellipse cx="187.0904" cy="251.5938" fill="#222222" rx="10" ry="10" style="stroke:#222222;stroke-width:1;"/><ellipse cx="182.0904" cy="758.5938" fill="none" rx="11" ry="11" style="stroke:#222222;stroke-width:1;"/><ellipse cx="182.0904" cy="758.5938" fill="#222222" rx="6" ry="6" style="stroke:#222222;stroke-width:1;"/><!--link *start*crear_integracion_romberg to 1--><g class="link" data-entity-1=".start.crear_integracion_romberg" data-entity-2="1" data-source-line="29" data-uid="lnk4" id="link_.start.crear_integracion_romberg_1"><path d="M187.0904,262.0338 C187.0904,271.2938 187.0904,279.7838 187.0904,292.2738" fill="none" id="*start*crear_integracion_romberg-to-1" style="stroke:#008000;stroke-width:1;"/><polygon fill="#008000" points="187.0904,298.2738,191.0904,289.2738,187.0904,293.2738,183.0904,289.2738,187.0904,298.2738" style="stroke:#008000;stroke-width:1;"/></g><!--link 1 to 2--><g class="link" data-entity-1="1" data-entity-2="2" data-source-line="30" data-uid="lnk5" id="link_1_2"><path d="M161.6904,332.9938 C124.6304,345.2538 60.0904,366.5938 60.0904,366.5938 C60.0904,366.5938 54.7,433.7129 51.54,473.1229" fill="none" id="1-to-2" style="stroke:#008000;stroke-width:1;"/><polygon fill="#008000" points="51.0604,479.1038,55.767,470.4522,51.4601,474.1197,47.7926,469.8128,51.0604,479.1038" style="stroke:#008000;stroke-width:1;"/><path d="M65.0904,371.5938 L65.0904,456.5938 L306.0904,456.5938 L306.0904,381.5938 L296.0904,371.5938 L65.0904,371.5938" fill="#F5F5F5" style="stroke:#181818;stroke-width:0.5;"/><path d="M296.0904,371.5938 L296.0904,381.5938 L306.0904,381.5938 L296.0904,371.5938" fill="#F5F5F5" style="stroke:#181818;stroke-width:0.5;"/><text fill="#000000" font-family="sans-serif" font-size="13" font-weight="bold" lengthAdjust="spacing" textLength="220.5874" x="71.0904" y="388.6606">Sistema requiere Par&#225;metros:</text><text fill="#000000" font-family="sans-serif" font-size="13" lengthAdjust="spacing" textLength="56.8306" x="71.0904" y="403.7935">- funcion</text><text fill="#000000" font-family="sans-serif" font-size="13" lengthAdjust="spacing" textLength="16.7896" x="71.0904" y="418.9263">- a</text><text fill="#000000" font-family="sans-serif" font-size="13" lengthAdjust="spacing" textLength="17.0752" x="71.0904" y="434.0591">- b</text><text fill="#000000" font-family="sans-serif" font-size="13" lengthAdjust="spacing" textLength="17.0625" x="71.0904" y="449.1919">- n</text></g><!--link 2 to 3--><g class="link" data-entity-1="2" data-entity-2="3" data-source-line="38" data-uid="lnk6" id="link_2_3"><path d="M44.4404,530.0238 C42.6804,539.2638 41.0904,547.5938 41.0904,547.5938 C41.0904,547.5938 41.0904,642.5938 41.0904,642.5938 C41.0904,642.5938 110.5802,663.2907 151.1302,675.3707" fill="none" id="2-to-3" style="stroke:#008000;stroke-width:1;"/><polygon fill="#008000" points="156.8804,677.0838,149.3971,670.6807,152.0886,675.6562,147.113,678.3477,156.8804,677.0838" style="stroke:#008000;stroke-width:1;"/><path d="M46.0904,552.5938 L46.0904,637.5938 L306.0904,637.5938 L306.0904,562.5938 L296.0904,552.5938 L46.0904,552.5938" fill="#F5F5F5" style="stroke:#181818;stroke-width:0.5;"/><path d="M296.0904,552.5938 L296.0904,562.5938 L306.0904,562.5938 L296.0904,552.5938" fill="#F5F5F5" style="stroke:#181818;stroke-width:0.5;"/><text fill="#000000" font-family="sans-serif" font-size="13" font-weight="bold" lengthAdjust="spacing" textLength="239.5859" x="52.0904" y="569.6606">Cliente Proporciona Par&#225;metros:</text><text fill="#000000" font-family="sans-serif" font-size="13" lengthAdjust="spacing" textLength="56.8306" x="60.3551" y="584.7935">- funcion</text><text fill="#000000" font-family="sans-serif" font-size="13" lengthAdjust="spacing" textLength="16.7896" x="60.3551" y="599.9263">- a</text><text fill="#000000" font-family="sans-serif" font-size="13" lengthAdjust="spacing" textLength="17.0752" x="60.3551" y="615.0591">- b</text><text fill="#000000" font-family="sans-serif" font-size="13" lengthAdjust="spacing" textLength="17.0625" x="60.3551" y="630.1919">- n</text></g><!--link 3 to 1--><g class="link" data-entity-1="3" data-entity-2="1" data-source-line="46" data-uid="lnk7" id="link_3_1"><path d="M207.5804,676.2938 C245.1704,664.0538 311.0904,642.5938 311.0904,642.5938 C311.0904,642.5938 311.0904,366.5938 311.0904,366.5938 C311.0904,366.5938 254.4432,347.4088 218.1632,335.1188" fill="none" id="3-to-1" style="stroke:#FF0000;stroke-width:1;"/><polygon fill="#FF0000" points="212.4804,333.1938,219.7213,339.8699,217.2161,334.798,222.288,332.2928,212.4804,333.1938" style="stroke:#FF0000;stroke-width:1;"/><path d="M316.0904,484.5938 L316.0904,524.5938 L421.0904,524.5938 L421.0904,494.5938 L411.0904,484.5938 L316.0904,484.5938" fill="#F5F5F5" style="stroke:#181818;stroke-width:0.5;"/><path d="M411.0904,484.5938 L411.0904,494.5938 L421.0904,494.5938 L411.0904,484.5938" fill="#F5F5F5" style="stroke:#181818;stroke-width:0.5;"/><text fill="#000000" font-family="sans-serif" font-size="13" lengthAdjust="spacing" textLength="80.0186" x="322.0904" y="501.6606">[Par&#225;metros</text><text fill="#000000" font-family="sans-serif" font-size="13" lengthAdjust="spacing" textLength="63.0068" x="330.3551" y="516.7935">Inv&#225;lidos]</text></g><!--link 3 to *end*crear_integracion_romberg--><g class="link" data-entity-1="3" data-entity-2=".end.crear_integracion_romberg" data-source-line="51" data-uid="lnk9" id="link_3_.end.crear_integracion_romberg"><path d="M182.0904,711.0238 C182.0904,723.3838 182.0904,731.7238 182.0904,741.1938" fill="none" id="3-to-*end*crear_integracion_romberg" style="stroke:#008000;stroke-width:1;"/><polygon fill="#008000" points="182.0904,747.1938,186.0904,738.1938,182.0904,742.1938,178.0904,738.1938,182.0904,747.1938" style="stroke:#008000;stroke-width:1;"/></g><g id=".calcularResultadoIntegracionRomberg"><rect fill="#FAF4B4" height="50" rx="12.5" ry="12.5" style="stroke:#C90000;stroke-width:0.5;" width="293.0205" x="215.5804" y="840.5969"/><line style="stroke:#C90000;stroke-width:0.5;" x1="215.5804" x2="508.601" y1="866.8938" y2="866.8938"/><text fill="#000000" font-family="sans-serif" font-size="14" lengthAdjust="spacing" textLength="273.0205" x="225.5804" y="858.592">:calcularResultadoIntegracionRomberg</text></g><!--link INTEGRACION_ROMBERG to crear_integracion_romberg--><g class="link" data-entity-1="INTEGRACION_ROMBERG" data-entity-2="crear_integracion_romberg" data-source-line="18" data-uid="lnk2" id="link_INTEGRACION_ROMBERG_crear_integracion_romberg"><path d="M281.8504,94.7769 C240.8404,109.0569 197.0904,124.2969 197.0904,124.2969 C197.0904,124.2969 197.0904,174.2969 197.0904,174.2969 C197.0904,174.2969 197.485,179.5642 198.875,197.8242" fill="none" id="INTEGRACION_ROMBERG-to-crear_integracion_romberg" style="stroke:#008000;stroke-width:1;"/><polygon fill="#008000" points="199.3304,203.8069,202.6358,194.5292,198.9509,198.8213,194.6589,195.1365,199.3304,203.8069" style="stroke:#008000;stroke-width:1;"/><path d="M202.0904,129.2969 L202.0904,169.2969 L473.0904,169.2969 L473.0904,139.2969 L463.0904,129.2969 L202.0904,129.2969" fill="#F5F5F5" style="stroke:#181818;stroke-width:0.5;"/><path d="M463.0904,129.2969 L463.0904,139.2969 L473.0904,139.2969 L463.0904,129.2969" fill="#F5F5F5" style="stroke:#181818;stroke-width:0.5;"/><text fill="#000000" font-family="sans-serif" font-size="13" font-weight="bold" lengthAdjust="spacing" textLength="114.0103" x="208.0904" y="146.3638">Cliente solicita:</text><text fill="#000000" font-family="sans-serif" font-size="13" lengthAdjust="spacing" textLength="250.688" x="208.0904" y="161.4966">- Crear operaci&#243;n integracion romberg</text></g><!--link crear_integracion_romberg to :calcularResultadoIntegracionRomberg--><g class="link" data-entity-1="crear_integracion_romberg" data-entity-2=".calcularResultadoIntegracionRomberg" data-source-line="55" data-uid="lnk11" id="link_crear_integracion_romberg_.calcularResultadoIntegracionRomberg"><path d="M329.9204,779.7969 C339.1804,804.1969 345.0429,819.6468 350.7429,834.6768" fill="none" id="crear_integracion_romberg-to-:calcularResultadoIntegracionRomberg" style="stroke:#008000;stroke-width:1;"/><polygon fill="#008000" points="352.8704,840.2869,353.4191,830.4533,351.0975,835.6118,345.939,833.2901,352.8704,840.2869" style="stroke:#008000;stroke-width:1;"/></g><!--link :calcularResultadoIntegracionRomberg to INTEGRACION_ROMBERG--><g class="link" data-entity-1=".calcularResultadoIntegracionRomberg" data-entity-2="INTEGRACION_ROMBERG" data-source-line="57" data-uid="lnk12" id="link_.calcularResultadoIntegracionRomberg_INTEGRACION_ROMBERG"><path d="M386.5004,840.4669 C411.9304,815.3369 448.0904,779.5969 448.0904,779.5969 C448.0904,779.5969 482.0904,174.2969 482.0904,174.2969 C482.0904,174.2969 482.0904,124.2969 482.0904,124.2969 C482.0904,124.2969 450.942,111.3572 416.542,97.0772" fill="none" id=":calcularResultadoIntegracionRomberg-to-INTEGRACION_ROMBERG" style="stroke:#008000;stroke-width:1;"/><polygon fill="#008000" points="411.0004,94.7769,417.7791,101.9218,415.6184,96.6938,420.8463,94.5331,411.0004,94.7769" style="stroke:#008000;stroke-width:1;"/></g><!--SRC=[hLB1JkCm4BtxAqPmYrI9KZWi1oG82EMm56NXL5NLD9bMLXrFTkmWeTL-3D_09_J7i4kJ1hQLze0JoPxdoPlt9kEv1iymP- -vWb8B5LwpLSgjjArHi0BdqHFyKG3NMAoMmeqjKpOiSBp0nTdyBDwmb2HRjFXn4fRwsoUnV93ZF3wViussv5zgWfhDImoKyjeRWXloQCAUecCe2Px2bWgXmBWcmKAltonarjEo3K9IpjMSP1aAR9nazu-tT_bLcetlP_duv_LjVgVK7d0mELuAaPqEBg68DMQw9MOxaotfnXZRA7aLx2L9QZI5F71iTA4zNYH9m0TRcRoJsME3berikMbLg_LWtTZAZvGXe8CZEEg0qw_0Q0U4Tv9CeMzj6B3X9-Gq85zinPKalxJpL248_Muq2S43olgr8Y_iFcp6DO15OwFMBiRkDEzEyRPp2q5qNy5edu9TQn-4QvPO0hzHmYXA42hRflmZODAh1LkMp3wlNuqksKtti7M6GjDL7F63_xEVV56WAHg3afDhZCUIizq7tJ3_JrQVTS-4lmC0]--></g></svg>