<svg xmlns="http://www.w3.org/2000/svg" xmlns:xlink="http://www.w3.org/1999/xlink" contentStyleType="text/css" data-diagram-type="STATE" height="866px" preserveAspectRatio="none" style="width:532px;height:866px;background:#FFFFFF;" version="1.1" viewBox="0 0 532 866" width="532px" zoomAndPan="magnify"><title>Detalle Caso de Uso Crear Operaci&#243;n Newton Cotes Abierto n=3</title><defs/><g><g class="title" data-source-line="14"><text fill="#000000" font-family="sans-serif" font-size="14" font-weight="bold" lengthAdjust="spacing" textLength="504.8408" x="10" y="22.9951">Detalle Caso de Uso Crear Operaci&#243;n Newton Cotes Abierto n=3</text></g><g id="NEWTON_COTES_A3"><rect fill="#FAF4B4" height="50" rx="12.5" ry="12.5" style="stroke:#C90000;stroke-width:0.5;" width="162.7686" x="283.7198" y="44.2969"/><line style="stroke:#C90000;stroke-width:0.5;" x1="283.7198" x2="446.4883" y1="70.5938" y2="70.5938"/><text fill="#000000" font-family="sans-serif" font-size="14" lengthAdjust="spacing" textLength="142.7686" x="293.7198" y="62.292">NEWTON_COTES_A3</text></g><path d="M36.5998,204.2969 L431.5998,204.2969 A12.5,12.5 0 0 1 444.0998,216.7969 L444.0998,230.5938 L24.0998,230.5938 L24.0998,216.7969 A12.5,12.5 0 0 1 36.5998,204.2969" fill="#FAF4B4" style="stroke:#FAF4B4;stroke-width:1;"/><rect fill="none" height="545.2969" rx="12.5" ry="12.5" style="stroke:#C90000;stroke-width:0.5;" width="420" x="24.0998" y="204.2969"/><line style="stroke:#C90000;stroke-width:0.5;" x1="24.0998" x2="444.0998" y1="230.5938" y2="230.5938"/><text fill="#000000" font-family="sans-serif" font-size="14" lengthAdjust="spacing" textLength="164.4111" x="151.8942" y="222.292">crear_newton_cotes_a3</text><g id="crear_newton_cotes_a3.1"><rect fill="#FAF4B4" height="50" rx="12.5" ry="12.5" style="stroke:#C90000;stroke-width:0.5;" width="50" x="175.0998" y="298.5938"/><line style="stroke:#C90000;stroke-width:0.5;" x1="175.0998" x2="225.0998" y1="324.8906" y2="324.8906"/><text fill="#000000" font-family="sans-serif" font-size="14" lengthAdjust="spacing" textLength="4.4502" x="197.8747" y="316.5889">&#160;</text></g><g id="crear_newton_cotes_a3.2"><rect fill="#FAF4B4" height="50" rx="12.5" ry="12.5" style="stroke:#C90000;stroke-width:0.5;" width="50" x="36.0998" y="464.5938"/><line style="stroke:#C90000;stroke-width:0.5;" x1="36.0998" x2="86.0998" y1="490.8906" y2="490.8906"/><text fill="#000000" font-family="sans-serif" font-size="14" lengthAdjust="spacing" textLength="4.4502" x="58.8747" y="482.5889">&#160;</text></g><g id="crear_newton_cotes_a3.3"><rect fill="#FAF4B4" height="50" rx="12.5" ry="12.5" style="stroke:#C90000;stroke-width:0.5;" width="50" x="169.0998" y="630.5938"/><line style="stroke:#C90000;stroke-width:0.5;" x1="169.0998" x2="219.0998" y1="656.8906" y2="656.8906"/><text fill="#000000" font-family="sans-serif" font-size="14" lengthAdjust="spacing" textLength="4.4502" x="191.8747" y="648.5889">&#160;</text></g><ellipse cx="200.0998" cy="251.5938" fill="#222222" rx="10" ry="10" style="stroke:#222222;stroke-width:1;"/><ellipse cx="194.0998" cy="728.5938" fill="none" rx="11" ry="11" style="stroke:#222222;stroke-width:1;"/><ellipse cx="194.0998" cy="728.5938" fill="#222222" rx="6" ry="6" style="stroke:#222222;stroke-width:1;"/><!--link *start*crear_newton_cotes_a3 to 1--><g class="link" data-entity-1="*start*crear_newton_cotes_a3" data-entity-2="1" data-source-line="29" data-uid="lnk4" id="link_*start*crear_newton_cotes_a3_1"><path d="M200.0998,262.0338 C200.0998,271.2938 200.0998,279.7838 200.0998,292.2738" fill="none" id="*start*crear_newton_cotes_a3-to-1" style="stroke:#008000;stroke-width:1;"/><polygon fill="#008000" points="200.0998,298.2738,204.0998,289.2738,200.0998,293.2738,196.0998,289.2738,200.0998,298.2738" style="stroke:#008000;stroke-width:1;"/></g><!--link 1 to 2--><g class="link" data-entity-1="1" data-entity-2="2" data-source-line="30" data-uid="lnk5" id="link_1_2"><path d="M174.5998,333.0938 C137.7798,345.3638 74.0998,366.5938 74.0998,366.5938 C74.0998,366.5938 68.125,422.6275 64.335,458.2275" fill="none" id="1-to-2" style="stroke:#008000;stroke-width:1;"/><polygon fill="#008000" points="63.6998,464.1938,68.6301,455.6678,64.2291,459.2218,60.675,454.8209,63.6998,464.1938" style="stroke:#008000;stroke-width:1;"/><path d="M79.0998,371.5938 L79.0998,441.5938 L320.0998,441.5938 L320.0998,381.5938 L310.0998,371.5938 L79.0998,371.5938" fill="#F5F5F5" style="stroke:#181818;stroke-width:0.5;"/><path d="M310.0998,371.5938 L310.0998,381.5938 L320.0998,381.5938 L310.0998,371.5938" fill="#F5F5F5" style="stroke:#181818;stroke-width:0.5;"/><text fill="#000000" font-family="sans-serif" font-size="13" font-weight="bold" lengthAdjust="spacing" textLength="220.5874" x="85.0998" y="388.6606">Sistema requiere Par&#225;metros:</text><text fill="#000000" font-family="sans-serif" font-size="13" lengthAdjust="spacing" textLength="56.8306" x="85.0998" y="403.7935">- funcion</text><text fill="#000000" font-family="sans-serif" font-size="13" lengthAdjust="spacing" textLength="16.7896" x="85.0998" y="418.9263">- a</text><text fill="#000000" font-family="sans-serif" font-size="13" lengthAdjust="spacing" textLength="17.0752" x="85.0998" y="434.0591">- b</text></g><!--link 2 to 3--><g class="link" data-entity-1="2" data-entity-2="3" data-source-line="37" data-uid="lnk6" id="link_2_3"><path d="M54.6998,515.0238 C52.2798,524.2638 50.0998,532.5938 50.0998,532.5938 C50.0998,532.5938 50.0998,612.5938 50.0998,612.5938 C50.0998,612.5938 121.5899,633.4434 162.9299,645.5034" fill="none" id="2-to-3" style="stroke:#008000;stroke-width:1;"/><polygon fill="#008000" points="168.6898,647.1838,161.1701,640.8233,163.8899,645.7835,158.9297,648.5032,168.6898,647.1838" style="stroke:#008000;stroke-width:1;"/><path d="M55.0998,537.5938 L55.0998,607.5938 L320.0998,607.5938 L320.0998,547.5938 L310.0998,537.5938 L55.0998,537.5938" fill="#F5F5F5" style="stroke:#181818;stroke-width:0.5;"/><path d="M310.0998,537.5938 L310.0998,547.5938 L320.0998,547.5938 L310.0998,537.5938" fill="#F5F5F5" style="stroke:#181818;stroke-width:0.5;"/><text fill="#000000" font-family="sans-serif" font-size="13" font-weight="bold" lengthAdjust="spacing" textLength="244.1499" x="61.0998" y="554.6606">Usuario Proporciona Par&#225;metros:</text><text fill="#000000" font-family="sans-serif" font-size="13" lengthAdjust="spacing" textLength="56.8306" x="69.3644" y="569.7935">- funcion</text><text fill="#000000" font-family="sans-serif" font-size="13" lengthAdjust="spacing" textLength="16.7896" x="69.3644" y="584.9263">- a</text><text fill="#000000" font-family="sans-serif" font-size="13" lengthAdjust="spacing" textLength="17.0752" x="69.3644" y="600.0591">- b</text></g><!--link 3 to 1--><g class="link" data-entity-1="3" data-entity-2="1" data-source-line="44" data-uid="lnk7" id="link_3_1"><path d="M219.3598,646.4938 C257.4298,634.2938 325.0998,612.5938 325.0998,612.5938 C325.0998,612.5938 325.0998,366.5938 325.0998,366.5938 C325.0998,366.5938 267.6074,347.2747 231.0874,335.0047" fill="none" id="3-to-1" style="stroke:#FF0000;stroke-width:1;"/><polygon fill="#FF0000" points="225.3998,333.0938,232.6572,339.7518,230.1394,334.6862,235.2051,332.1684,225.3998,333.0938" style="stroke:#FF0000;stroke-width:1;"/><path d="M330.0998,469.5938 L330.0998,509.5938 L435.0998,509.5938 L435.0998,479.5938 L425.0998,469.5938 L330.0998,469.5938" fill="#F5F5F5" style="stroke:#181818;stroke-width:0.5;"/><path d="M425.0998,469.5938 L425.0998,479.5938 L435.0998,479.5938 L425.0998,469.5938" fill="#F5F5F5" style="stroke:#181818;stroke-width:0.5;"/><text fill="#000000" font-family="sans-serif" font-size="13" lengthAdjust="spacing" textLength="80.0186" x="336.0998" y="486.6606">[Par&#225;metros</text><text fill="#000000" font-family="sans-serif" font-size="13" lengthAdjust="spacing" textLength="63.0068" x="344.3644" y="501.7935">Inv&#225;lidos]</text></g><!--link 3 to *end*crear_newton_cotes_a3--><g class="link" data-entity-1="3" data-entity-2="*end*crear_newton_cotes_a3" data-source-line="49" data-uid="lnk9" id="link_3_*end*crear_newton_cotes_a3"><path d="M194.0998,681.0238 C194.0998,693.3838 194.0998,701.7238 194.0998,711.1938" fill="none" id="3-to-*end*crear_newton_cotes_a3" style="stroke:#008000;stroke-width:1;"/><polygon fill="#008000" points="194.0998,717.1938,198.0998,708.1938,194.0998,712.1938,190.0998,708.1938,194.0998,717.1938" style="stroke:#008000;stroke-width:1;"/></g><g id=":calcularResultadoNewtonCotesA3"><rect fill="#FAF4B4" height="50" rx="12.5" ry="12.5" style="stroke:#C90000;stroke-width:0.5;" width="261.2813" x="253.4598" y="810.5969"/><line style="stroke:#C90000;stroke-width:0.5;" x1="253.4598" x2="514.741" y1="836.8938" y2="836.8938"/><text fill="#000000" font-family="sans-serif" font-size="14" lengthAdjust="spacing" textLength="241.2813" x="263.4598" y="828.592">:calcularResultadoNewtonCotesA3</text></g><!--link NEWTON_COTES_A3 to crear_newton_cotes_a3--><g class="link" data-entity-1="NEWTON_COTES_A3" data-entity-2="crear_newton_cotes_a3" data-source-line="18" data-uid="lnk2" id="link_NEWTON_COTES_A3_crear_newton_cotes_a3"><path d="M286.6998,94.7769 C240.9298,109.0569 192.0998,124.2969 192.0998,124.2969 C192.0998,124.2969 192.0998,174.2969 192.0998,174.2969 C192.0998,174.2969 192.8639,179.754 195.4139,198.104" fill="none" id="NEWTON_COTES_A3-to-crear_newton_cotes_a3" style="stroke:#008000;stroke-width:1;"/><polygon fill="#008000" points="196.2398,204.0469,198.9629,194.582,195.5516,199.0945,191.0391,195.6831,196.2398,204.0469" style="stroke:#008000;stroke-width:1;"/><path d="M197.0998,129.2969 L197.0998,169.2969 L504.0998,169.2969 L504.0998,139.2969 L494.0998,129.2969 L197.0998,129.2969" fill="#F5F5F5" style="stroke:#181818;stroke-width:0.5;"/><path d="M494.0998,129.2969 L494.0998,139.2969 L504.0998,139.2969 L494.0998,129.2969" fill="#F5F5F5" style="stroke:#181818;stroke-width:0.5;"/><text fill="#000000" font-family="sans-serif" font-size="13" font-weight="bold" lengthAdjust="spacing" textLength="118.5742" x="203.0998" y="146.3638">Usuario solicita:</text><text fill="#000000" font-family="sans-serif" font-size="13" lengthAdjust="spacing" textLength="286.438" x="203.0998" y="161.4966">- Crear operaci&#243;n newton cotes abierto n=3</text></g><!--link crear_newton_cotes_a3 to :calcularResultadoNewtonCotesA3--><g class="link" data-entity-1="crear_newton_cotes_a3" data-entity-2=":calcularResultadoNewtonCotesA3" data-source-line="53" data-uid="lnk11" id="link_crear_newton_cotes_a3_:calcularResultadoNewtonCotesA3"><path d="M348.5498,750.0769 C358.7398,774.2969 365.2433,789.7563 371.5533,804.7563" fill="none" id="crear_newton_cotes_a3-to-:calcularResultadoNewtonCotesA3" style="stroke:#008000;stroke-width:1;"/><polygon fill="#008000" points="373.8798,810.2869,374.077,800.44,371.941,805.6781,366.7029,803.542,373.8798,810.2869" style="stroke:#008000;stroke-width:1;"/></g><!--link :calcularResultadoNewtonCotesA3 to NEWTON_COTES_A3--><g class="link" data-entity-1=":calcularResultadoNewtonCotesA3" data-entity-2="NEWTON_COTES_A3" data-source-line="55" data-uid="lnk12" id="link_:calcularResultadoNewtonCotesA3_NEWTON_COTES_A3"><path d="M405.9598,810.4669 C428.7198,785.3369 461.0998,749.5969 461.0998,749.5969 C461.0998,749.5969 513.0998,174.2969 513.0998,174.2969 C513.0998,174.2969 513.0998,124.2969 513.0998,124.2969 C513.0998,124.2969 476.9667,111.1124 437.8067,96.8324" fill="none" id=":calcularResultadoNewtonCotesA3-to-NEWTON_COTES_A3" style="stroke:#008000;stroke-width:1;"/><polygon fill="#008000" points="432.1698,94.7769,439.2548,101.6181,436.8672,96.4898,441.9955,94.1023,432.1698,94.7769" style="stroke:#008000;stroke-width:1;"/></g><!--SRC=[fLBDQXin4BxlKmp9RS5GPzD30msasnnwiKD-wC6OPQmT1s5Pinrf6qB9m-GPyWX-iOxMVnlNfOTA2v8-YUzdTY8t41bc72CleRP29bhsMHOMrZSek8GGCHByoW2-e5ay2hU-BjcnmEaSv-UpytJ3KfDiKFFfWuxifK_Y-QyS7zDy_zfPJ_6v8MZOFQT3baKR7S5NYkXqBJ4mr0GFkfH2A31kID3OrPk74Jr5zb2gP82hcINHXFvpeGfTbD7rz_lng2h7zzTtrPN21y1WSleeH7uwk0IJo2lVCLOcCLPOP5qQbL1h2ysKvm-XHR4CWPqrDk95dYi-s7ZZlRSr4tHCW3rlvEkkI5kJHuLJ0TVNGy009t2o0yuEWM8Fw3V9fz3FDLHi-0uvK-GWLnfvVcT3f2M2q8zM_HBSeAnUbnI5mpfd6WEOjzwarjcUSRURwMwN3zHgNxSufhklw8rmmvA8yR-5YoGiL6yBy8VifAS06vPl_kVgrTcQm_G8sow65ZXBJNpql_KVNXXqfdKejnHQ5x7cTRzsxPgwyHyF-bm7ZViR]--></g></svg>