<svg xmlns="http://www.w3.org/2000/svg" xmlns:xlink="http://www.w3.org/1999/xlink" contentStyleType="text/css" data-diagram-type="STATE" height="371px" preserveAspectRatio="none" style="width:4633px;height:371px;background:#FFFFFF;" version="1.1" viewBox="0 0 4633 371" width="4633px" zoomAndPan="magnify"><title>Detalle Caso de Uso Listar Operaciones</title><defs/><g><g class="title" data-source-line="12"><text fill="#000000" font-family="sans-serif" font-size="14" font-weight="bold" lengthAdjust="spacing" textLength="310.6045" x="2154.3979" y="22.9951">Detalle Caso de Uso Listar Operaciones</text></g><g id="ESTADO_PRINCIPAL"><rect fill="#FAF4B4" height="50" rx="12.5" ry="12.5" style="stroke:#C90000;stroke-width:0.5;" width="157.1563" x="7" y="44.2969"/><line style="stroke:#C90000;stroke-width:0.5;" x1="7" x2="164.1563" y1="70.5938" y2="70.5938"/><text fill="#000000" font-family="sans-serif" font-size="14" lengthAdjust="spacing" textLength="137.1563" x="17" y="62.292">ESTADO_PRINCIPAL</text></g><g id=":listar_operaciones"><rect fill="#FAF4B4" height="50" rx="12.5" ry="12.5" style="stroke:#C90000;stroke-width:0.5;" width="151.9473" x="2138.6" y="204.2969"/><line style="stroke:#C90000;stroke-width:0.5;" x1="2138.6" x2="2290.5473" y1="230.5938" y2="230.5938"/><text fill="#000000" font-family="sans-serif" font-size="14" lengthAdjust="spacing" textLength="131.9473" x="2148.6" y="222.292">:listar_operaciones</text></g><g id="PUNTO_MEDIO_3_PUNTOS"><rect fill="#FAF4B4" height="50" rx="12.5" ry="12.5" style="stroke:#C90000;stroke-width:0.5;" width="203.1143" x="199.02" y="44.2969"/><line style="stroke:#C90000;stroke-width:0.5;" x1="199.02" x2="402.1343" y1="70.5938" y2="70.5938"/><text fill="#000000" font-family="sans-serif" font-size="14" lengthAdjust="spacing" textLength="183.1143" x="209.02" y="62.292">PUNTO_MEDIO_3_PUNTOS</text></g><g id="EXTREMO_3_PUNTOS"><rect fill="#FAF4B4" height="50" rx="12.5" ry="12.5" style="stroke:#C90000;stroke-width:0.5;" width="169.1875" x="436.98" y="44.2969"/><line style="stroke:#C90000;stroke-width:0.5;" x1="436.98" x2="606.1675" y1="70.5938" y2="70.5938"/><text fill="#000000" font-family="sans-serif" font-size="14" lengthAdjust="spacing" textLength="149.1875" x="446.98" y="62.292">EXTREMO_3_PUNTOS</text></g><g id="PUNTO_MEDIO_5_PUNTOS"><rect fill="#FAF4B4" height="50" rx="12.5" ry="12.5" style="stroke:#C90000;stroke-width:0.5;" width="203.1143" x="641.02" y="44.2969"/><line style="stroke:#C90000;stroke-width:0.5;" x1="641.02" x2="844.1343" y1="70.5938" y2="70.5938"/><text fill="#000000" font-family="sans-serif" font-size="14" lengthAdjust="spacing" textLength="183.1143" x="651.02" y="62.292">PUNTO_MEDIO_5_PUNTOS</text></g><g id="EXTREMO_5_PUNTOS"><rect fill="#FAF4B4" height="50" rx="12.5" ry="12.5" style="stroke:#C90000;stroke-width:0.5;" width="169.1875" x="878.98" y="44.2969"/><line style="stroke:#C90000;stroke-width:0.5;" x1="878.98" x2="1048.1675" y1="70.5938" y2="70.5938"/><text fill="#000000" font-family="sans-serif" font-size="14" lengthAdjust="spacing" textLength="149.1875" x="888.98" y="62.292">EXTREMO_5_PUNTOS</text></g><g id="PUNTO_MEDIO_2_DERIVADA"><rect fill="#FAF4B4" height="50" rx="12.5" ry="12.5" style="stroke:#C90000;stroke-width:0.5;" width="218.4883" x="1083.33" y="44.2969"/><line style="stroke:#C90000;stroke-width:0.5;" x1="1083.33" x2="1301.8183" y1="70.5938" y2="70.5938"/><text fill="#000000" font-family="sans-serif" font-size="14" lengthAdjust="spacing" textLength="198.4883" x="1093.33" y="62.292">PUNTO_MEDIO_2_DERIVADA</text></g><g id="NEWTON_COTES_C1"><rect fill="#FAF4B4" height="50" rx="12.5" ry="12.5" style="stroke:#C90000;stroke-width:0.5;" width="162.9668" x="1337.09" y="44.2969"/><line style="stroke:#C90000;stroke-width:0.5;" x1="1337.09" x2="1500.0568" y1="70.5938" y2="70.5938"/><text fill="#000000" font-family="sans-serif" font-size="14" lengthAdjust="spacing" textLength="142.9668" x="1347.09" y="62.292">NEWTON_COTES_C1</text></g><g id="NEWTON_COTES_C2"><rect fill="#FAF4B4" height="50" rx="12.5" ry="12.5" style="stroke:#C90000;stroke-width:0.5;" width="162.9668" x="1535.09" y="44.2969"/><line style="stroke:#C90000;stroke-width:0.5;" x1="1535.09" x2="1698.0568" y1="70.5938" y2="70.5938"/><text fill="#000000" font-family="sans-serif" font-size="14" lengthAdjust="spacing" textLength="142.9668" x="1545.09" y="62.292">NEWTON_COTES_C2</text></g><g id="NEWTON_COTES_C3"><rect fill="#FAF4B4" height="50" rx="12.5" ry="12.5" style="stroke:#C90000;stroke-width:0.5;" width="162.9668" x="1733.09" y="44.2969"/><line style="stroke:#C90000;stroke-width:0.5;" x1="1733.09" x2="1896.0568" y1="70.5938" y2="70.5938"/><text fill="#000000" font-family="sans-serif" font-size="14" lengthAdjust="spacing" textLength="142.9668" x="1743.09" y="62.292">NEWTON_COTES_C3</text></g><g id="NEWTON_COTES_C4"><rect fill="#FAF4B4" height="50" rx="12.5" ry="12.5" style="stroke:#C90000;stroke-width:0.5;" width="162.9668" x="1932.09" y="44.2969"/><line style="stroke:#C90000;stroke-width:0.5;" x1="1932.09" x2="2095.0568" y1="70.5938" y2="70.5938"/><text fill="#000000" font-family="sans-serif" font-size="14" lengthAdjust="spacing" textLength="142.9668" x="1942.09" y="62.292">NEWTON_COTES_C4</text></g><g id="NEWTON_COTES_A0"><rect fill="#FAF4B4" height="50" rx="12.5" ry="12.5" style="stroke:#C90000;stroke-width:0.5;" width="162.7686" x="2133.19" y="44.2969"/><line style="stroke:#C90000;stroke-width:0.5;" x1="2133.19" x2="2295.9586" y1="70.5938" y2="70.5938"/><text fill="#000000" font-family="sans-serif" font-size="14" lengthAdjust="spacing" textLength="142.7686" x="2143.19" y="62.292">NEWTON_COTES_A0</text></g><g id="NEWTON_COTES_A1"><rect fill="#FAF4B4" height="50" rx="12.5" ry="12.5" style="stroke:#C90000;stroke-width:0.5;" width="162.7686" x="2334.19" y="44.2969"/><line style="stroke:#C90000;stroke-width:0.5;" x1="2334.19" x2="2496.9586" y1="70.5938" y2="70.5938"/><text fill="#000000" font-family="sans-serif" font-size="14" lengthAdjust="spacing" textLength="142.7686" x="2344.19" y="62.292">NEWTON_COTES_A1</text></g><g id="NEWTON_COTES_A2"><rect fill="#FAF4B4" height="50" rx="12.5" ry="12.5" style="stroke:#C90000;stroke-width:0.5;" width="162.7686" x="2532.19" y="44.2969"/><line style="stroke:#C90000;stroke-width:0.5;" x1="2532.19" x2="2694.9586" y1="70.5938" y2="70.5938"/><text fill="#000000" font-family="sans-serif" font-size="14" lengthAdjust="spacing" textLength="142.7686" x="2542.19" y="62.292">NEWTON_COTES_A2</text></g><g id="NEWTON_COTES_A3"><rect fill="#FAF4B4" height="50" rx="12.5" ry="12.5" style="stroke:#C90000;stroke-width:0.5;" width="162.7686" x="2730.19" y="44.2969"/><line style="stroke:#C90000;stroke-width:0.5;" x1="2730.19" x2="2892.9586" y1="70.5938" y2="70.5938"/><text fill="#000000" font-family="sans-serif" font-size="14" lengthAdjust="spacing" textLength="142.7686" x="2740.19" y="62.292">NEWTON_COTES_A3</text></g><g id="SIMPSON_COMPUESTA"><rect fill="#FAF4B4" height="50" rx="12.5" ry="12.5" style="stroke:#C90000;stroke-width:0.5;" width="178.3408" x="2928.41" y="44.2969"/><line style="stroke:#C90000;stroke-width:0.5;" x1="2928.41" x2="3106.7508" y1="70.5938" y2="70.5938"/><text fill="#000000" font-family="sans-serif" font-size="14" lengthAdjust="spacing" textLength="158.3408" x="2938.41" y="62.292">SIMPSON_COMPUESTA</text></g><g id="TRAPEZOIDAL_COMPUESTA"><rect fill="#FAF4B4" height="50" rx="12.5" ry="12.5" style="stroke:#C90000;stroke-width:0.5;" width="212.4658" x="3141.35" y="44.2969"/><line style="stroke:#C90000;stroke-width:0.5;" x1="3141.35" x2="3353.8158" y1="70.5938" y2="70.5938"/><text fill="#000000" font-family="sans-serif" font-size="14" lengthAdjust="spacing" textLength="192.4658" x="3151.35" y="62.292">TRAPEZOIDAL_COMPUESTA</text></g><g id="PUNTO_MEDIO_COMPUESTA"><rect fill="#FAF4B4" height="50" rx="12.5" ry="12.5" style="stroke:#C90000;stroke-width:0.5;" width="217.0117" x="3389.07" y="44.2969"/><line style="stroke:#C90000;stroke-width:0.5;" x1="3389.07" x2="3606.0817" y1="70.5938" y2="70.5938"/><text fill="#000000" font-family="sans-serif" font-size="14" lengthAdjust="spacing" textLength="197.0117" x="3399.07" y="62.292">PUNTO_MEDIO_COMPUESTA</text></g><g id="INTEGRACION_ROMBERG"><rect fill="#FAF4B4" height="50" rx="12.5" ry="12.5" style="stroke:#C90000;stroke-width:0.5;" width="196.4014" x="3641.38" y="44.2969"/><line style="stroke:#C90000;stroke-width:0.5;" x1="3641.38" x2="3837.7814" y1="70.5938" y2="70.5938"/><text fill="#000000" font-family="sans-serif" font-size="14" lengthAdjust="spacing" textLength="176.4014" x="3651.38" y="62.292">INTEGRACION_ROMBERG</text></g><g id="INTEGRAL_DOBLE_SIMPSON"><rect fill="#FAF4B4" height="50" rx="12.5" ry="12.5" style="stroke:#C90000;stroke-width:0.5;" width="215.918" x="3872.62" y="44.2969"/><line style="stroke:#C90000;stroke-width:0.5;" x1="3872.62" x2="4088.538" y1="70.5938" y2="70.5938"/><text fill="#000000" font-family="sans-serif" font-size="14" lengthAdjust="spacing" textLength="195.918" x="3882.62" y="62.292">INTEGRAL_DOBLE_SIMPSON</text></g><g id="INTEGRAL_DOBLE_GAUSSIANA"><rect fill="#FAF4B4" height="50" rx="12.5" ry="12.5" style="stroke:#C90000;stroke-width:0.5;" width="234.2041" x="4123.48" y="44.2969"/><line style="stroke:#C90000;stroke-width:0.5;" x1="4123.48" x2="4357.6841" y1="70.5938" y2="70.5938"/><text fill="#000000" font-family="sans-serif" font-size="14" lengthAdjust="spacing" textLength="214.2041" x="4133.48" y="62.292">INTEGRAL_DOBLE_GAUSSIANA</text></g><g id="INTEGRAL_TRIPLE_GAUSSIANA"><rect fill="#FAF4B4" height="50" rx="12.5" ry="12.5" style="stroke:#C90000;stroke-width:0.5;" width="233.6504" x="4392.75" y="44.2969"/><line style="stroke:#C90000;stroke-width:0.5;" x1="4392.75" x2="4626.4004" y1="70.5938" y2="70.5938"/><text fill="#000000" font-family="sans-serif" font-size="14" lengthAdjust="spacing" textLength="213.6504" x="4402.75" y="62.292">INTEGRAL_TRIPLE_GAUSSIANA</text></g><g id="DIFERENCIACION_NUMERICA_E_INTEGRACION"><rect fill="#FAF4B4" height="50" rx="12.5" ry="12.5" style="stroke:#C90000;stroke-width:0.5;" width="341.9795" x="2043.59" y="315.2969"/><line style="stroke:#C90000;stroke-width:0.5;" x1="2043.59" x2="2385.5695" y1="341.5938" y2="341.5938"/><text fill="#000000" font-family="sans-serif" font-size="14" lengthAdjust="spacing" textLength="321.9795" x="2053.59" y="333.292">DIFERENCIACION_NUMERICA_E_INTEGRACION</text></g><!--link ESTADO_PRINCIPAL to :listar_operaciones--><g class="link" data-entity-1="ESTADO_PRINCIPAL" data-entity-2=":listar_operaciones" data-source-line="15" data-uid="lnk4" id="link_ESTADO_PRINCIPAL_:listar_operaciones"><path d="M109.96,94.6769 C140.7,125.4169 189.58,174.2969 189.58,174.2969 C189.58,174.2969 1763.5221,216.2668 2132.2821,226.1068" fill="none" id="ESTADO_PRINCIPAL-to-:listar_operaciones" style="stroke:#008000;stroke-width:1;"/><polygon fill="#008000" points="2138.28,226.2669,2129.3899,222.0282,2133.2818,226.1335,2129.1765,230.0254,2138.28,226.2669" style="stroke:#008000;stroke-width:1;"/><path d="M194.58,129.2969 L194.58,169.2969 L345.58,169.2969 L345.58,139.2969 L335.58,129.2969 L194.58,129.2969" fill="#F5F5F5" style="stroke:#181818;stroke-width:0.5;"/><path d="M335.58,129.2969 L335.58,139.2969 L345.58,139.2969 L335.58,129.2969" fill="#F5F5F5" style="stroke:#181818;stroke-width:0.5;"/><text fill="#000000" font-family="sans-serif" font-size="13" font-weight="bold" lengthAdjust="spacing" textLength="130.9648" x="200.58" y="146.3638">Sisteme requiere:</text><text fill="#000000" font-family="sans-serif" font-size="13" lengthAdjust="spacing" textLength="130.5078" x="200.58" y="161.4966">- Listar Operaciones</text></g><!--link PUNTO_MEDIO_3_PUNTOS to :listar_operaciones--><g class="link" data-entity-1="PUNTO_MEDIO_3_PUNTOS" data-entity-2=":listar_operaciones" data-source-line="21" data-uid="lnk6" id="link_PUNTO_MEDIO_3_PUNTOS_:listar_operaciones"><path d="M326.13,94.6769 C358.35,125.4169 409.58,174.2969 409.58,174.2969 C409.58,174.2969 1788.6227,215.5576 2132.1727,225.8276" fill="none" id="PUNTO_MEDIO_3_PUNTOS-to-:listar_operaciones" style="stroke:#008000;stroke-width:1;"/><polygon fill="#008000" points="2138.17,226.0069,2129.2935,221.7397,2133.1722,225.8575,2129.0545,229.7362,2138.17,226.0069" style="stroke:#008000;stroke-width:1;"/><path d="M414.58,129.2969 L414.58,169.2969 L565.58,169.2969 L565.58,139.2969 L555.58,129.2969 L414.58,129.2969" fill="#F5F5F5" style="stroke:#181818;stroke-width:0.5;"/><path d="M555.58,129.2969 L555.58,139.2969 L565.58,139.2969 L555.58,129.2969" fill="#F5F5F5" style="stroke:#181818;stroke-width:0.5;"/><text fill="#000000" font-family="sans-serif" font-size="13" font-weight="bold" lengthAdjust="spacing" textLength="130.9204" x="420.58" y="146.3638">Sistema requiere:</text><text fill="#000000" font-family="sans-serif" font-size="13" lengthAdjust="spacing" textLength="130.5078" x="420.58" y="161.4966">- Listar Operaciones</text></g><!--link EXTREMO_3_PUNTOS to :listar_operaciones--><g class="link" data-entity-1="EXTREMO_3_PUNTOS" data-entity-2=":listar_operaciones" data-source-line="27" data-uid="lnk8" id="link_EXTREMO_3_PUNTOS_:listar_operaciones"><path d="M546.9,94.6769 C578.82,125.4169 629.58,174.2969 629.58,174.2969 C629.58,174.2969 1815.5235,214.7025 2132.1335,225.4925" fill="none" id="EXTREMO_3_PUNTOS-to-:listar_operaciones" style="stroke:#008000;stroke-width:1;"/><polygon fill="#008000" points="2138.13,225.6969,2129.2715,221.3927,2133.1329,225.5266,2128.999,229.388,2138.13,225.6969" style="stroke:#008000;stroke-width:1;"/><path d="M634.58,129.2969 L634.58,169.2969 L785.58,169.2969 L785.58,139.2969 L775.58,129.2969 L634.58,129.2969" fill="#F5F5F5" style="stroke:#181818;stroke-width:0.5;"/><path d="M775.58,129.2969 L775.58,139.2969 L785.58,139.2969 L775.58,129.2969" fill="#F5F5F5" style="stroke:#181818;stroke-width:0.5;"/><text fill="#000000" font-family="sans-serif" font-size="13" font-weight="bold" lengthAdjust="spacing" textLength="130.9204" x="640.58" y="146.3638">Sistema requiere:</text><text fill="#000000" font-family="sans-serif" font-size="13" lengthAdjust="spacing" textLength="130.5078" x="640.58" y="161.4966">- Listar Operaciones</text></g><!--link PUNTO_MEDIO_5_PUNTOS to :listar_operaciones--><g class="link" data-entity-1="PUNTO_MEDIO_5_PUNTOS" data-entity-2=":listar_operaciones" data-source-line="33" data-uid="lnk10" id="link_PUNTO_MEDIO_5_PUNTOS_:listar_operaciones"><path d="M767.66,94.6769 C799.29,125.4169 849.58,174.2969 849.58,174.2969 C849.58,174.2969 1844.8047,213.6697 2132.2647,225.0397" fill="none" id="PUNTO_MEDIO_5_PUNTOS-to-:listar_operaciones" style="stroke:#008000;stroke-width:1;"/><polygon fill="#008000" points="2138.26,225.2769,2129.4251,220.9243,2133.2639,225.0793,2129.1089,228.918,2138.26,225.2769" style="stroke:#008000;stroke-width:1;"/><path d="M854.58,129.2969 L854.58,169.2969 L1005.58,169.2969 L1005.58,139.2969 L995.58,129.2969 L854.58,129.2969" fill="#F5F5F5" style="stroke:#181818;stroke-width:0.5;"/><path d="M995.58,129.2969 L995.58,139.2969 L1005.58,139.2969 L995.58,129.2969" fill="#F5F5F5" style="stroke:#181818;stroke-width:0.5;"/><text fill="#000000" font-family="sans-serif" font-size="13" font-weight="bold" lengthAdjust="spacing" textLength="130.9204" x="860.58" y="146.3638">Sistema requiere:</text><text fill="#000000" font-family="sans-serif" font-size="13" lengthAdjust="spacing" textLength="130.5078" x="860.58" y="161.4966">- Listar Operaciones</text></g><!--link EXTREMO_5_PUNTOS to :listar_operaciones--><g class="link" data-entity-1="EXTREMO_5_PUNTOS" data-entity-2=":listar_operaciones" data-source-line="39" data-uid="lnk12" id="link_EXTREMO_5_PUNTOS_:listar_operaciones"><path d="M988.2,94.6769 C1019.23,125.4169 1068.58,174.2969 1068.58,174.2969 C1068.58,174.2969 1876.5467,212.3643 2132.5067,224.4343" fill="none" id="EXTREMO_5_PUNTOS-to-:listar_operaciones" style="stroke:#008000;stroke-width:1;"/><polygon fill="#008000" points="2138.5,224.7169,2129.6984,220.2974,2133.5055,224.4814,2129.3216,228.2885,2138.5,224.7169" style="stroke:#008000;stroke-width:1;"/><path d="M1073.58,129.2969 L1073.58,169.2969 L1224.58,169.2969 L1224.58,139.2969 L1214.58,129.2969 L1073.58,129.2969" fill="#F5F5F5" style="stroke:#181818;stroke-width:0.5;"/><path d="M1214.58,129.2969 L1214.58,139.2969 L1224.58,139.2969 L1214.58,129.2969" fill="#F5F5F5" style="stroke:#181818;stroke-width:0.5;"/><text fill="#000000" font-family="sans-serif" font-size="13" font-weight="bold" lengthAdjust="spacing" textLength="130.9204" x="1079.58" y="146.3638">Sistema requiere:</text><text fill="#000000" font-family="sans-serif" font-size="13" lengthAdjust="spacing" textLength="130.5078" x="1079.58" y="161.4966">- Listar Operaciones</text></g><!--link PUNTO_MEDIO_2_DERIVADA to :listar_operaciones--><g class="link" data-entity-1="PUNTO_MEDIO_2_DERIVADA" data-entity-2=":listar_operaciones" data-source-line="45" data-uid="lnk14" id="link_PUNTO_MEDIO_2_DERIVADA_:listar_operaciones"><path d="M1212.74,94.6769 C1238.16,125.4169 1278.58,174.2969 1278.58,174.2969 C1278.58,174.2969 1909.2,210.6815 2132.39,223.5515" fill="none" id="PUNTO_MEDIO_2_DERIVADA-to-:listar_operaciones" style="stroke:#008000;stroke-width:1;"/><polygon fill="#008000" points="2138.38,223.8969,2129.6252,219.3854,2133.3883,223.609,2129.1647,227.3721,2138.38,223.8969" style="stroke:#008000;stroke-width:1;"/><path d="M1283.58,129.2969 L1283.58,169.2969 L1434.58,169.2969 L1434.58,139.2969 L1424.58,129.2969 L1283.58,129.2969" fill="#F5F5F5" style="stroke:#181818;stroke-width:0.5;"/><path d="M1424.58,129.2969 L1424.58,139.2969 L1434.58,139.2969 L1424.58,129.2969" fill="#F5F5F5" style="stroke:#181818;stroke-width:0.5;"/><text fill="#000000" font-family="sans-serif" font-size="13" font-weight="bold" lengthAdjust="spacing" textLength="130.9204" x="1289.58" y="146.3638">Sistema requiere:</text><text fill="#000000" font-family="sans-serif" font-size="13" lengthAdjust="spacing" textLength="130.5078" x="1289.58" y="161.4966">- Listar Operaciones</text></g><!--link NEWTON_COTES_C1 to :listar_operaciones--><g class="link" data-entity-1="NEWTON_COTES_C1" data-entity-2=":listar_operaciones" data-source-line="51" data-uid="lnk16" id="link_NEWTON_COTES_C1_:listar_operaciones"><path d="M1431.71,94.6769 C1448.26,125.4169 1474.58,174.2969 1474.58,174.2969 C1474.58,174.2969 1943.1159,208.4904 2132.1859,222.2804" fill="none" id="NEWTON_COTES_C1-to-:listar_operaciones" style="stroke:#008000;stroke-width:1;"/><polygon fill="#008000" points="2138.17,222.7169,2129.4848,218.0728,2133.1832,222.3532,2128.9029,226.0516,2138.17,222.7169" style="stroke:#008000;stroke-width:1;"/><path d="M1479.58,129.2969 L1479.58,169.2969 L1630.58,169.2969 L1630.58,139.2969 L1620.58,129.2969 L1479.58,129.2969" fill="#F5F5F5" style="stroke:#181818;stroke-width:0.5;"/><path d="M1620.58,129.2969 L1620.58,139.2969 L1630.58,139.2969 L1620.58,129.2969" fill="#F5F5F5" style="stroke:#181818;stroke-width:0.5;"/><text fill="#000000" font-family="sans-serif" font-size="13" font-weight="bold" lengthAdjust="spacing" textLength="130.9204" x="1485.58" y="146.3638">Sistema requiere:</text><text fill="#000000" font-family="sans-serif" font-size="13" lengthAdjust="spacing" textLength="130.5078" x="1485.58" y="161.4966">- Listar Operaciones</text></g><!--link NEWTON_COTES_C2 to :listar_operaciones--><g class="link" data-entity-1="NEWTON_COTES_C2" data-entity-2=":listar_operaciones" data-source-line="57" data-uid="lnk18" id="link_NEWTON_COTES_C2_:listar_operaciones"><path d="M1628.77,94.6769 C1644.14,125.4169 1668.58,174.2969 1668.58,174.2969 C1668.58,174.2969 1982.2591,205.3163 2132.3991,220.1663" fill="none" id="NEWTON_COTES_C2-to-:listar_operaciones" style="stroke:#008000;stroke-width:1;"/><polygon fill="#008000" points="2138.37,220.7569,2129.8074,215.8905,2133.3943,220.2647,2129.02,223.8516,2138.37,220.7569" style="stroke:#008000;stroke-width:1;"/><path d="M1673.58,129.2969 L1673.58,169.2969 L1824.58,169.2969 L1824.58,139.2969 L1814.58,129.2969 L1673.58,129.2969" fill="#F5F5F5" style="stroke:#181818;stroke-width:0.5;"/><path d="M1814.58,129.2969 L1814.58,139.2969 L1824.58,139.2969 L1814.58,129.2969" fill="#F5F5F5" style="stroke:#181818;stroke-width:0.5;"/><text fill="#000000" font-family="sans-serif" font-size="13" font-weight="bold" lengthAdjust="spacing" textLength="130.9204" x="1679.58" y="146.3638">Sistema requiere:</text><text fill="#000000" font-family="sans-serif" font-size="13" lengthAdjust="spacing" textLength="130.5078" x="1679.58" y="161.4966">- Listar Operaciones</text></g><!--link NEWTON_COTES_C3 to :listar_operaciones--><g class="link" data-entity-1="NEWTON_COTES_C3" data-entity-2=":listar_operaciones" data-source-line="63" data-uid="lnk20" id="link_NEWTON_COTES_C3_:listar_operaciones"><path d="M1825.13,94.6769 C1838.43,125.4169 1859.58,174.2969 1859.58,174.2969 C1859.58,174.2969 2028.1783,199.9444 2132.4883,215.8144" fill="none" id="NEWTON_COTES_C3-to-:listar_operaciones" style="stroke:#008000;stroke-width:1;"/><polygon fill="#008000" points="2138.42,216.7169,2130.124,211.4087,2133.4769,215.9648,2128.9207,219.3177,2138.42,216.7169" style="stroke:#008000;stroke-width:1;"/><path d="M1864.58,129.2969 L1864.58,169.2969 L2015.58,169.2969 L2015.58,139.2969 L2005.58,129.2969 L1864.58,129.2969" fill="#F5F5F5" style="stroke:#181818;stroke-width:0.5;"/><path d="M2005.58,129.2969 L2005.58,139.2969 L2015.58,139.2969 L2005.58,129.2969" fill="#F5F5F5" style="stroke:#181818;stroke-width:0.5;"/><text fill="#000000" font-family="sans-serif" font-size="13" font-weight="bold" lengthAdjust="spacing" textLength="130.9204" x="1870.58" y="146.3638">Sistema requiere:</text><text fill="#000000" font-family="sans-serif" font-size="13" lengthAdjust="spacing" textLength="130.5078" x="1870.58" y="161.4966">- Listar Operaciones</text></g><!--link NEWTON_COTES_C4 to :listar_operaciones--><g class="link" data-entity-1="NEWTON_COTES_C4" data-entity-2=":listar_operaciones" data-source-line="69" data-uid="lnk22" id="link_NEWTON_COTES_C4_:listar_operaciones"><path d="M2020.38,94.6769 C2028.95,125.4169 2042.58,174.2969 2042.58,174.2969 C2042.58,174.2969 2086.4755,188.0796 2132.4055,202.4996" fill="none" id="NEWTON_COTES_C4-to-:listar_operaciones" style="stroke:#008000;stroke-width:1;"/><polygon fill="#008000" points="2138.13,204.2969,2130.7414,197.7847,2133.3596,202.7992,2128.3451,205.4173,2138.13,204.2969" style="stroke:#008000;stroke-width:1;"/><path d="M2047.58,129.2969 L2047.58,169.2969 L2198.58,169.2969 L2198.58,139.2969 L2188.58,129.2969 L2047.58,129.2969" fill="#F5F5F5" style="stroke:#181818;stroke-width:0.5;"/><path d="M2188.58,129.2969 L2188.58,139.2969 L2198.58,139.2969 L2188.58,129.2969" fill="#F5F5F5" style="stroke:#181818;stroke-width:0.5;"/><text fill="#000000" font-family="sans-serif" font-size="13" font-weight="bold" lengthAdjust="spacing" textLength="130.9204" x="2053.58" y="146.3638">Sistema requiere:</text><text fill="#000000" font-family="sans-serif" font-size="13" lengthAdjust="spacing" textLength="130.5078" x="2053.58" y="161.4966">- Listar Operaciones</text></g><!--link NEWTON_COTES_A0 to :listar_operaciones--><g class="link" data-entity-1="NEWTON_COTES_A0" data-entity-2=":listar_operaciones" data-source-line="75" data-uid="lnk24" id="link_NEWTON_COTES_A0_:listar_operaciones"><path d="M2213.22,94.7669 C2212.42,109.0569 2211.58,124.2969 2211.58,124.2969 C2211.58,124.2969 2211.58,174.2969 2211.58,174.2969 C2211.58,174.2969 2212.0846,183.5463 2212.8846,197.8363" fill="none" id="NEWTON_COTES_A0-to-:listar_operaciones" style="stroke:#008000;stroke-width:1;"/><polygon fill="#008000" points="2213.22,203.8269,2216.7107,194.6174,2212.9405,198.8347,2208.7232,195.0645,2213.22,203.8269" style="stroke:#008000;stroke-width:1;"/><path d="M2216.58,129.2969 L2216.58,169.2969 L2367.58,169.2969 L2367.58,139.2969 L2357.58,129.2969 L2216.58,129.2969" fill="#F5F5F5" style="stroke:#181818;stroke-width:0.5;"/><path d="M2357.58,129.2969 L2357.58,139.2969 L2367.58,139.2969 L2357.58,129.2969" fill="#F5F5F5" style="stroke:#181818;stroke-width:0.5;"/><text fill="#000000" font-family="sans-serif" font-size="13" font-weight="bold" lengthAdjust="spacing" textLength="130.9204" x="2222.58" y="146.3638">Sistema requiere:</text><text fill="#000000" font-family="sans-serif" font-size="13" lengthAdjust="spacing" textLength="130.5078" x="2222.58" y="161.4966">- Listar Operaciones</text></g><!--link NEWTON_COTES_A1 to :listar_operaciones--><g class="link" data-entity-1="NEWTON_COTES_A1" data-entity-2=":listar_operaciones" data-source-line="81" data-uid="lnk26" id="link_NEWTON_COTES_A1_:listar_operaciones"><path d="M2406.43,94.6769 C2394.91,125.4169 2376.58,174.2969 2376.58,174.2969 C2376.58,174.2969 2336.5521,187.6395 2293.6821,201.9295" fill="none" id="NEWTON_COTES_A1-to-:listar_operaciones" style="stroke:#008000;stroke-width:1;"/><polygon fill="#008000" points="2287.99,203.8269,2297.7931,204.7756,2292.7334,202.2457,2295.2632,197.1861,2287.99,203.8269" style="stroke:#008000;stroke-width:1;"/><path d="M2399.58,129.2969 L2399.58,169.2969 L2550.58,169.2969 L2550.58,139.2969 L2540.58,129.2969 L2399.58,129.2969" fill="#F5F5F5" style="stroke:#181818;stroke-width:0.5;"/><path d="M2540.58,129.2969 L2540.58,139.2969 L2550.58,139.2969 L2540.58,129.2969" fill="#F5F5F5" style="stroke:#181818;stroke-width:0.5;"/><text fill="#000000" font-family="sans-serif" font-size="13" font-weight="bold" lengthAdjust="spacing" textLength="130.9204" x="2405.58" y="146.3638">Sistema requiere:</text><text fill="#000000" font-family="sans-serif" font-size="13" lengthAdjust="spacing" textLength="130.5078" x="2405.58" y="161.4966">- Listar Operaciones</text></g><!--link NEWTON_COTES_A2 to :listar_operaciones--><g class="link" data-entity-1="NEWTON_COTES_A2" data-entity-2=":listar_operaciones" data-source-line="87" data-uid="lnk28" id="link_NEWTON_COTES_A2_:listar_operaciones"><path d="M2601.86,94.6769 C2587.08,125.4169 2563.58,174.2969 2563.58,174.2969 C2563.58,174.2969 2399.3594,199.7094 2296.6694,215.5994" fill="none" id="NEWTON_COTES_A2-to-:listar_operaciones" style="stroke:#008000;stroke-width:1;"/><polygon fill="#008000" points="2290.74,216.5169,2300.2458,219.0936,2295.6812,215.7523,2299.0225,211.1877,2290.74,216.5169" style="stroke:#008000;stroke-width:1;"/><path d="M2591.58,129.2969 L2591.58,169.2969 L2742.58,169.2969 L2742.58,139.2969 L2732.58,129.2969 L2591.58,129.2969" fill="#F5F5F5" style="stroke:#181818;stroke-width:0.5;"/><path d="M2732.58,129.2969 L2732.58,139.2969 L2742.58,139.2969 L2732.58,129.2969" fill="#F5F5F5" style="stroke:#181818;stroke-width:0.5;"/><text fill="#000000" font-family="sans-serif" font-size="13" font-weight="bold" lengthAdjust="spacing" textLength="130.9204" x="2597.58" y="146.3638">Sistema requiere:</text><text fill="#000000" font-family="sans-serif" font-size="13" lengthAdjust="spacing" textLength="130.5078" x="2597.58" y="161.4966">- Listar Operaciones</text></g><!--link NEWTON_COTES_A3 to :listar_operaciones--><g class="link" data-entity-1="NEWTON_COTES_A3" data-entity-2=":listar_operaciones" data-source-line="93" data-uid="lnk30" id="link_NEWTON_COTES_A3_:listar_operaciones"><path d="M2798.45,94.6769 C2781.9,125.4169 2755.58,174.2969 2755.58,174.2969 C2755.58,174.2969 2446.0403,205.1908 2296.9103,220.0808" fill="none" id="NEWTON_COTES_A3-to-:listar_operaciones" style="stroke:#008000;stroke-width:1;"/><polygon fill="#008000" points="2290.94,220.6769,2300.2929,223.7629,2295.9153,220.1801,2299.4981,215.8025,2290.94,220.6769" style="stroke:#008000;stroke-width:1;"/><path d="M2786.58,129.2969 L2786.58,169.2969 L2937.58,169.2969 L2937.58,139.2969 L2927.58,129.2969 L2786.58,129.2969" fill="#F5F5F5" style="stroke:#181818;stroke-width:0.5;"/><path d="M2927.58,129.2969 L2927.58,139.2969 L2937.58,139.2969 L2927.58,129.2969" fill="#F5F5F5" style="stroke:#181818;stroke-width:0.5;"/><text fill="#000000" font-family="sans-serif" font-size="13" font-weight="bold" lengthAdjust="spacing" textLength="130.9204" x="2792.58" y="146.3638">Sistema requiere:</text><text fill="#000000" font-family="sans-serif" font-size="13" lengthAdjust="spacing" textLength="130.5078" x="2792.58" y="161.4966">- Listar Operaciones</text></g><!--link SIMPSON_COMPUESTA to :listar_operaciones--><g class="link" data-entity-1="SIMPSON_COMPUESTA" data-entity-2=":listar_operaciones" data-source-line="99" data-uid="lnk32" id="link_SIMPSON_COMPUESTA_:listar_operaciones"><path d="M3001.87,94.6769 C2982.07,125.4169 2950.58,174.2969 2950.58,174.2969 C2950.58,174.2969 2485.1739,208.4479 2296.9039,222.2579" fill="none" id="SIMPSON_COMPUESTA-to-:listar_operaciones" style="stroke:#008000;stroke-width:1;"/><polygon fill="#008000" points="2290.92,222.6969,2300.1885,226.0278,2295.9066,222.3311,2299.6033,218.0492,2290.92,222.6969" style="stroke:#008000;stroke-width:1;"/><path d="M2986.58,129.2969 L2986.58,169.2969 L3137.58,169.2969 L3137.58,139.2969 L3127.58,129.2969 L2986.58,129.2969" fill="#F5F5F5" style="stroke:#181818;stroke-width:0.5;"/><path d="M3127.58,129.2969 L3127.58,139.2969 L3137.58,139.2969 L3127.58,129.2969" fill="#F5F5F5" style="stroke:#181818;stroke-width:0.5;"/><text fill="#000000" font-family="sans-serif" font-size="13" font-weight="bold" lengthAdjust="spacing" textLength="130.9204" x="2992.58" y="146.3638">Sistema requiere:</text><text fill="#000000" font-family="sans-serif" font-size="13" lengthAdjust="spacing" textLength="130.5078" x="2992.58" y="161.4966">- Listar Operaciones</text></g><!--link TRAPEZOIDAL_COMPUESTA to :listar_operaciones--><g class="link" data-entity-1="TRAPEZOIDAL_COMPUESTA" data-entity-2=":listar_operaciones" data-source-line="105" data-uid="lnk34" id="link_TRAPEZOIDAL_COMPUESTA_:listar_operaciones"><path d="M3224.84,94.6769 C3196.17,125.4169 3150.58,174.2969 3150.58,174.2969 C3150.58,174.2969 2519.96,210.6815 2296.77,223.5515" fill="none" id="TRAPEZOIDAL_COMPUESTA-to-:listar_operaciones" style="stroke:#008000;stroke-width:1;"/><polygon fill="#008000" points="2290.78,223.8969,2299.9953,227.3721,2295.7717,223.609,2299.5348,219.3854,2290.78,223.8969" style="stroke:#008000;stroke-width:1;"/><path d="M3200.58,129.2969 L3200.58,169.2969 L3351.58,169.2969 L3351.58,139.2969 L3341.58,129.2969 L3200.58,129.2969" fill="#F5F5F5" style="stroke:#181818;stroke-width:0.5;"/><path d="M3341.58,129.2969 L3341.58,139.2969 L3351.58,139.2969 L3341.58,129.2969" fill="#F5F5F5" style="stroke:#181818;stroke-width:0.5;"/><text fill="#000000" font-family="sans-serif" font-size="13" font-weight="bold" lengthAdjust="spacing" textLength="130.9204" x="3206.58" y="146.3638">Sistema requiere:</text><text fill="#000000" font-family="sans-serif" font-size="13" lengthAdjust="spacing" textLength="130.5078" x="3206.58" y="161.4966">- Listar Operaciones</text></g><!--link PUNTO_MEDIO_COMPUESTA to :listar_operaciones--><g class="link" data-entity-1="PUNTO_MEDIO_COMPUESTA" data-entity-2=":listar_operaciones" data-source-line="111" data-uid="lnk36" id="link_PUNTO_MEDIO_COMPUESTA_:listar_operaciones"><path d="M3466.4,94.6769 C3427.08,125.4169 3364.58,174.2969 3364.58,174.2969 C3364.58,174.2969 2553.7634,212.3652 2296.9134,224.4352" fill="none" id="PUNTO_MEDIO_COMPUESTA-to-:listar_operaciones" style="stroke:#008000;stroke-width:1;"/><polygon fill="#008000" points="2290.92,224.7169,2300.0978,228.29,2295.9145,224.4822,2299.7223,220.2988,2290.92,224.7169" style="stroke:#008000;stroke-width:1;"/><path d="M3431.58,129.2969 L3431.58,169.2969 L3582.58,169.2969 L3582.58,139.2969 L3572.58,129.2969 L3431.58,129.2969" fill="#F5F5F5" style="stroke:#181818;stroke-width:0.5;"/><path d="M3572.58,129.2969 L3572.58,139.2969 L3582.58,139.2969 L3572.58,129.2969" fill="#F5F5F5" style="stroke:#181818;stroke-width:0.5;"/><text fill="#000000" font-family="sans-serif" font-size="13" font-weight="bold" lengthAdjust="spacing" textLength="130.9204" x="3437.58" y="146.3638">Sistema requiere:</text><text fill="#000000" font-family="sans-serif" font-size="13" lengthAdjust="spacing" textLength="130.5078" x="3437.58" y="161.4966">- Listar Operaciones</text></g><!--link INTEGRACION_ROMBERG to :listar_operaciones--><g class="link" data-entity-1="INTEGRACION_ROMBERG" data-entity-2=":listar_operaciones" data-source-line="117" data-uid="lnk38" id="link_INTEGRACION_ROMBERG_:listar_operaciones"><path d="M3705.82,94.6769 C3663.25,125.4169 3595.58,174.2969 3595.58,174.2969 C3595.58,174.2969 2586.3054,213.7625 2296.7854,225.0825" fill="none" id="INTEGRACION_ROMBERG-to-:listar_operaciones" style="stroke:#008000;stroke-width:1;"/><polygon fill="#008000" points="2290.79,225.3169,2299.9394,228.9622,2295.7862,225.1215,2299.6269,220.9683,2290.79,225.3169" style="stroke:#008000;stroke-width:1;"/><path d="M3667.58,129.2969 L3667.58,169.2969 L3818.58,169.2969 L3818.58,139.2969 L3808.58,129.2969 L3667.58,129.2969" fill="#F5F5F5" style="stroke:#181818;stroke-width:0.5;"/><path d="M3808.58,129.2969 L3808.58,139.2969 L3818.58,139.2969 L3808.58,129.2969" fill="#F5F5F5" style="stroke:#181818;stroke-width:0.5;"/><text fill="#000000" font-family="sans-serif" font-size="13" font-weight="bold" lengthAdjust="spacing" textLength="130.9204" x="3673.58" y="146.3638">Sistema requiere:</text><text fill="#000000" font-family="sans-serif" font-size="13" lengthAdjust="spacing" textLength="130.5078" x="3673.58" y="161.4966">- Listar Operaciones</text></g><!--link INTEGRAL_DOBLE_SIMPSON to :listar_operaciones--><g class="link" data-entity-1="INTEGRAL_DOBLE_SIMPSON" data-entity-2=":listar_operaciones" data-source-line="123" data-uid="lnk40" id="link_INTEGRAL_DOBLE_SIMPSON_:listar_operaciones"><path d="M3945.64,94.6769 C3901.6,125.4169 3831.58,174.2969 3831.58,174.2969 C3831.58,174.2969 2617.4567,214.8467 2296.9367,225.5467" fill="none" id="INTEGRAL_DOBLE_SIMPSON-to-:listar_operaciones" style="stroke:#008000;stroke-width:1;"/><polygon fill="#008000" points="2290.94,225.7469,2300.0684,229.4444,2295.9372,225.5801,2299.8015,221.4488,2290.94,225.7469" style="stroke:#008000;stroke-width:1;"/><path d="M3906.58,129.2969 L3906.58,169.2969 L4057.58,169.2969 L4057.58,139.2969 L4047.58,129.2969 L3906.58,129.2969" fill="#F5F5F5" style="stroke:#181818;stroke-width:0.5;"/><path d="M4047.58,129.2969 L4047.58,139.2969 L4057.58,139.2969 L4047.58,129.2969" fill="#F5F5F5" style="stroke:#181818;stroke-width:0.5;"/><text fill="#000000" font-family="sans-serif" font-size="13" font-weight="bold" lengthAdjust="spacing" textLength="130.9204" x="3912.58" y="146.3638">Sistema requiere:</text><text fill="#000000" font-family="sans-serif" font-size="13" lengthAdjust="spacing" textLength="130.5078" x="3912.58" y="161.4966">- Listar Operaciones</text></g><!--link INTEGRAL_DOBLE_GAUSSIANA to :listar_operaciones--><g class="link" data-entity-1="INTEGRAL_DOBLE_GAUSSIANA" data-entity-2=":listar_operaciones" data-source-line="129" data-uid="lnk42" id="link_INTEGRAL_DOBLE_GAUSSIANA_:listar_operaciones"><path d="M4200.72,94.6769 C4150.47,125.4169 4070.58,174.2969 4070.58,174.2969 C4070.58,174.2969 2646.0475,215.7424 2296.7975,225.9024" fill="none" id="INTEGRAL_DOBLE_GAUSSIANA-to-:listar_operaciones" style="stroke:#008000;stroke-width:1;"/><polygon fill="#008000" points="2290.8,226.0769,2299.9125,229.8135,2295.7979,225.9315,2299.6799,221.8169,2290.8,226.0769" style="stroke:#008000;stroke-width:1;"/><path d="M4154.58,129.2969 L4154.58,169.2969 L4305.58,169.2969 L4305.58,139.2969 L4295.58,129.2969 L4154.58,129.2969" fill="#F5F5F5" style="stroke:#181818;stroke-width:0.5;"/><path d="M4295.58,129.2969 L4295.58,139.2969 L4305.58,139.2969 L4295.58,129.2969" fill="#F5F5F5" style="stroke:#181818;stroke-width:0.5;"/><text fill="#000000" font-family="sans-serif" font-size="13" font-weight="bold" lengthAdjust="spacing" textLength="130.9204" x="4160.58" y="146.3638">Sistema requiere:</text><text fill="#000000" font-family="sans-serif" font-size="13" lengthAdjust="spacing" textLength="130.5078" x="4160.58" y="161.4966">- Listar Operaciones</text></g><!--link INTEGRAL_TRIPLE_GAUSSIANA to :listar_operaciones--><g class="link" data-entity-1="INTEGRAL_TRIPLE_GAUSSIANA" data-entity-2=":listar_operaciones" data-source-line="135" data-uid="lnk44" id="link_INTEGRAL_TRIPLE_GAUSSIANA_:listar_operaciones"><path d="M4464.8,94.6769 C4408.34,125.4169 4318.58,174.2969 4318.58,174.2969 C4318.58,174.2969 2674.818,216.4829 2297.018,226.1829" fill="none" id="INTEGRAL_TRIPLE_GAUSSIANA-to-:listar_operaciones" style="stroke:#008000;stroke-width:1;"/><polygon fill="#008000" points="2291.02,226.3369,2300.1197,230.1046,2296.0184,226.2085,2299.9144,222.1072,2291.02,226.3369" style="stroke:#008000;stroke-width:1;"/><path d="M4412.58,129.2969 L4412.58,169.2969 L4563.58,169.2969 L4563.58,139.2969 L4553.58,129.2969 L4412.58,129.2969" fill="#F5F5F5" style="stroke:#181818;stroke-width:0.5;"/><path d="M4553.58,129.2969 L4553.58,139.2969 L4563.58,139.2969 L4553.58,129.2969" fill="#F5F5F5" style="stroke:#181818;stroke-width:0.5;"/><text fill="#000000" font-family="sans-serif" font-size="13" font-weight="bold" lengthAdjust="spacing" textLength="130.9204" x="4418.58" y="146.3638">Sistema requiere:</text><text fill="#000000" font-family="sans-serif" font-size="13" lengthAdjust="spacing" textLength="130.5078" x="4418.58" y="161.4966">- Listar Operaciones</text></g><!--link :listar_operaciones to DIFERENCIACION_NUMERICA_E_INTEGRACION--><g class="link" data-entity-1=":listar_operaciones" data-entity-2="DIFERENCIACION_NUMERICA_E_INTEGRACION" data-source-line="142" data-uid="lnk46" id="link_:listar_operaciones_DIFERENCIACION_NUMERICA_E_INTEGRACION"><path d="M2214.58,254.7569 C2214.58,272.7069 2214.58,290.9869 2214.58,308.9169" fill="none" id=":listar_operaciones-to-DIFERENCIACION_NUMERICA_E_INTEGRACION" style="stroke:#008000;stroke-width:1;"/><polygon fill="#008000" points="2214.58,314.9169,2218.58,305.9169,2214.58,309.9169,2210.58,305.9169,2214.58,314.9169" style="stroke:#008000;stroke-width:1;"/></g><!--SRC=[nTP1IyCm503WUtv5mDjWCDrsq8EGjN44sgQahOeY8MvlewmsC-qEG_plfdL81Jte8MaF8McIBwzz96rsPRrNHhtWfbKju3U4yKAjTbkZ3_Kwq9Ks-6oZDhFdMVT4cpMOK-lgSc8lz8vGypL9hN-TOzxTttjNPGtjSGzuhwjZLq6eBTiAS0YjgcmPg4RZDU325b5fLsWmtuDHgrBNq224Q9QJaCjKi2HWAOd6ZsTR0r0_ZQ_nLTMFa7emeb-VhZjvPrSv6cMs3xm0Dl1wAC70rMXasyS_QL2l-_WGIeiavpAc8UDoAljQzazP_KsczxcWiMjr6E_SIxnpR_5Uo90ATaj2uiPEw5tE4ndmd6OoEFU1NlX0fpxGcGUKJ7oWFXA9-4WauYYHCXQdMQ_6QT4TGsxON92KFd0MaiWrFTmL7TCioUbIa83P5ovulA1YwHIEPCWN4PMdZ-x5Nf8YonX9Y6Cz5onrpwCVfXxA8RkXWjgVli-aI8hOdj81aLGESkK3]--></g></svg>