<svg xmlns="http://www.w3.org/2000/svg" xmlns:xlink="http://www.w3.org/1999/xlink" contentStyleType="text/css" data-diagram-type="STATE" height="988px" preserveAspectRatio="none" style="width:530px;height:988px;background:#FFFFFF;" version="1.1" viewBox="0 0 530 988" width="530px" zoomAndPan="magnify"><title>Detalle Caso de Uso Crear Operaci&#243;n Integral Doble Gaussiana</title><defs/><g><g class="title" data-source-line="14"><text fill="#000000" font-family="sans-serif" font-size="14" font-weight="bold" lengthAdjust="spacing" textLength="494.6484" x="11.014" y="22.9951">Detalle Caso de Uso Crear Operaci&#243;n Integral Doble Gaussiana</text></g><g id="INTEGRAL_DOBLE_GAUSSIANA"><rect fill="#FAF4B4" height="50" rx="12.5" ry="12.5" style="stroke:#C90000;stroke-width:0.5;" width="234.2041" x="230.9" y="44.2969"/><line style="stroke:#C90000;stroke-width:0.5;" x1="230.9" x2="465.1041" y1="70.5938" y2="70.5938"/><text fill="#000000" font-family="sans-serif" font-size="14" lengthAdjust="spacing" textLength="214.2041" x="240.9" y="62.292">INTEGRAL_DOBLE_GAUSSIANA</text></g><path d="M19.5,204.2969 L414.5,204.2969 A12.5,12.5 0 0 1 427,216.7969 L427,230.5938 L7,230.5938 L7,216.7969 A12.5,12.5 0 0 1 19.5,204.2969" fill="#FAF4B4" style="stroke:#FAF4B4;stroke-width:1;"/><rect fill="none" height="667.2969" rx="12.5" ry="12.5" style="stroke:#C90000;stroke-width:0.5;" width="420" x="7" y="204.2969"/><line style="stroke:#C90000;stroke-width:0.5;" x1="7" x2="427" y1="230.5938" y2="230.5938"/><text fill="#000000" font-family="sans-serif" font-size="14" lengthAdjust="spacing" textLength="221.0674" x="106.4663" y="222.292">crear_integral_doble_gaussiana</text><g id="crear_integral_doble_gaussiana.1"><rect fill="#FAF4B4" height="50" rx="12.5" ry="12.5" style="stroke:#C90000;stroke-width:0.5;" width="50" x="158" y="298.5938"/><line style="stroke:#C90000;stroke-width:0.5;" x1="158" x2="208" y1="324.8906" y2="324.8906"/><text fill="#000000" font-family="sans-serif" font-size="14" lengthAdjust="spacing" textLength="4.4502" x="180.7749" y="316.5889">&#160;</text></g><g id="crear_integral_doble_gaussiana.2"><rect fill="#FAF4B4" height="50" rx="12.5" ry="12.5" style="stroke:#C90000;stroke-width:0.5;" width="50" x="19" y="525.5938"/><line style="stroke:#C90000;stroke-width:0.5;" x1="19" x2="69" y1="551.8906" y2="551.8906"/><text fill="#000000" font-family="sans-serif" font-size="14" lengthAdjust="spacing" textLength="4.4502" x="41.7749" y="543.5889">&#160;</text></g><g id="crear_integral_doble_gaussiana.3"><rect fill="#FAF4B4" height="50" rx="12.5" ry="12.5" style="stroke:#C90000;stroke-width:0.5;" width="50" x="152" y="752.5938"/><line style="stroke:#C90000;stroke-width:0.5;" x1="152" x2="202" y1="778.8906" y2="778.8906"/><text fill="#000000" font-family="sans-serif" font-size="14" lengthAdjust="spacing" textLength="4.4502" x="174.7749" y="770.5889">&#160;</text></g><ellipse cx="183" cy="251.5938" fill="#222222" rx="10" ry="10" style="stroke:#222222;stroke-width:1;"/><ellipse cx="177" cy="850.5938" fill="none" rx="11" ry="11" style="stroke:#222222;stroke-width:1;"/><ellipse cx="177" cy="850.5938" fill="#222222" rx="6" ry="6" style="stroke:#222222;stroke-width:1;"/><!--link *start*crear_integral_doble_gaussiana to 1--><g class="link" data-entity-1="*start*crear_integral_doble_gaussiana" data-entity-2="1" data-source-line="29" data-uid="lnk4" id="link_*start*crear_integral_doble_gaussiana_1"><path d="M183,262.0338 C183,271.2938 183,279.7838 183,292.2737" fill="none" id="*start*crear_integral_doble_gaussiana-to-1" style="stroke:#008000;stroke-width:1;"/><polygon fill="#008000" points="183,298.2737,187,289.2737,183,293.2737,179,289.2737,183,298.2737" style="stroke:#008000;stroke-width:1;"/></g><!--link 1 to 2--><g class="link" data-entity-1="1" data-entity-2="2" data-source-line="30" data-uid="lnk5" id="link_1_2"><path d="M157.5,333.0938 C120.68,345.3638 57,366.5938 57,366.5938 C57,366.5938 49.6844,469.5288 46.1544,519.3088" fill="none" id="1-to-2" style="stroke:#008000;stroke-width:1;"/><polygon fill="#008000" points="45.73,525.2938,50.3566,516.5992,46.0837,520.3063,42.3766,516.0334,45.73,525.2938" style="stroke:#008000;stroke-width:1;"/><path d="M62,371.5938 L62,502.5938 L303,502.5938 L303,381.5938 L293,371.5938 L62,371.5938" fill="#F5F5F5" style="stroke:#181818;stroke-width:0.5;"/><path d="M293,371.5938 L293,381.5938 L303,381.5938 L293,371.5938" fill="#F5F5F5" style="stroke:#181818;stroke-width:0.5;"/><text fill="#000000" font-family="sans-serif" font-size="13" font-weight="bold" lengthAdjust="spacing" textLength="220.5874" x="68" y="388.6606">Sistema requiere Par&#225;metros:</text><text fill="#000000" font-family="sans-serif" font-size="13" lengthAdjust="spacing" textLength="56.8306" x="68" y="403.7935">- funcion</text><text fill="#000000" font-family="sans-serif" font-size="13" lengthAdjust="spacing" textLength="16.7896" x="68" y="418.9263">- a</text><text fill="#000000" font-family="sans-serif" font-size="13" lengthAdjust="spacing" textLength="17.0752" x="68" y="434.0591">- b</text><text fill="#000000" font-family="sans-serif" font-size="13" lengthAdjust="spacing" textLength="50.6733" x="68" y="449.1919">- c_func</text><text fill="#000000" font-family="sans-serif" font-size="13" lengthAdjust="spacing" textLength="51.7778" x="68" y="464.3247">- d_func</text><text fill="#000000" font-family="sans-serif" font-size="13" lengthAdjust="spacing" textLength="21.4868" x="68" y="479.4575">- m</text><text fill="#000000" font-family="sans-serif" font-size="13" lengthAdjust="spacing" textLength="17.0625" x="68" y="494.5903">- n</text></g><!--link 2 to 3--><g class="link" data-entity-1="2" data-entity-2="3" data-source-line="41" data-uid="lnk6" id="link_2_3"><path d="M37.6,576.0238 C35.18,585.2638 33,593.5938 33,593.5938 C33,593.5938 33,734.5938 33,734.5938 C33,734.5938 104.4901,755.4434 145.8301,767.5034" fill="none" id="2-to-3" style="stroke:#008000;stroke-width:1;"/><polygon fill="#008000" points="151.59,769.1838,144.0704,762.8233,146.7901,767.7835,141.8299,770.5032,151.59,769.1838" style="stroke:#008000;stroke-width:1;"/><path d="M38,598.5938 L38,729.5938 L303,729.5938 L303,608.5938 L293,598.5938 L38,598.5938" fill="#F5F5F5" style="stroke:#181818;stroke-width:0.5;"/><path d="M293,598.5938 L293,608.5938 L303,608.5938 L293,598.5938" fill="#F5F5F5" style="stroke:#181818;stroke-width:0.5;"/><text fill="#000000" font-family="sans-serif" font-size="13" font-weight="bold" lengthAdjust="spacing" textLength="244.1499" x="44" y="615.6606">Usuario Proporciona Par&#225;metros:</text><text fill="#000000" font-family="sans-serif" font-size="13" lengthAdjust="spacing" textLength="56.8306" x="52.2646" y="630.7935">- funcion</text><text fill="#000000" font-family="sans-serif" font-size="13" lengthAdjust="spacing" textLength="16.7896" x="52.2646" y="645.9263">- a</text><text fill="#000000" font-family="sans-serif" font-size="13" lengthAdjust="spacing" textLength="17.0752" x="52.2646" y="661.0591">- b</text><text fill="#000000" font-family="sans-serif" font-size="13" lengthAdjust="spacing" textLength="50.6733" x="52.2646" y="676.1919">- c_func</text><text fill="#000000" font-family="sans-serif" font-size="13" lengthAdjust="spacing" textLength="51.7778" x="52.2646" y="691.3247">- d_func</text><text fill="#000000" font-family="sans-serif" font-size="13" lengthAdjust="spacing" textLength="21.4868" x="52.2646" y="706.4575">- m</text><text fill="#000000" font-family="sans-serif" font-size="13" lengthAdjust="spacing" textLength="17.0625" x="52.2646" y="721.5903">- n</text></g><!--link 3 to 1--><g class="link" data-entity-1="3" data-entity-2="1" data-source-line="52" data-uid="lnk7" id="link_3_1"><path d="M202.26,768.4938 C240.33,756.2938 308,734.5938 308,734.5938 C308,734.5938 308,366.5938 308,366.5938 C308,366.5938 250.5076,347.2747 213.9876,335.0047" fill="none" id="3-to-1" style="stroke:#FF0000;stroke-width:1;"/><polygon fill="#FF0000" points="208.3,333.0938,215.5574,339.7518,213.0396,334.6862,218.1053,332.1684,208.3,333.0938" style="stroke:#FF0000;stroke-width:1;"/><path d="M313,530.5938 L313,570.5938 L418,570.5938 L418,540.5938 L408,530.5938 L313,530.5938" fill="#F5F5F5" style="stroke:#181818;stroke-width:0.5;"/><path d="M408,530.5938 L408,540.5938 L418,540.5938 L408,530.5938" fill="#F5F5F5" style="stroke:#181818;stroke-width:0.5;"/><text fill="#000000" font-family="sans-serif" font-size="13" lengthAdjust="spacing" textLength="80.0186" x="319" y="547.6606">[Par&#225;metros</text><text fill="#000000" font-family="sans-serif" font-size="13" lengthAdjust="spacing" textLength="63.0068" x="327.2646" y="562.7935">Inv&#225;lidos]</text></g><!--link 3 to *end*crear_integral_doble_gaussiana--><g class="link" data-entity-1="3" data-entity-2="*end*crear_integral_doble_gaussiana" data-source-line="57" data-uid="lnk9" id="link_3_*end*crear_integral_doble_gaussiana"><path d="M177,803.0238 C177,815.3838 177,823.7238 177,833.1938" fill="none" id="3-to-*end*crear_integral_doble_gaussiana" style="stroke:#008000;stroke-width:1;"/><polygon fill="#008000" points="177,839.1938,181,830.1938,177,834.1938,173,830.1938,177,839.1938" style="stroke:#008000;stroke-width:1;"/></g><g id=":calcularResultadoIntegralDobleGaussiana"><rect fill="#FAF4B4" height="50" rx="12.5" ry="12.5" style="stroke:#C90000;stroke-width:0.5;" width="317.3564" x="206.32" y="932.5969"/><line style="stroke:#C90000;stroke-width:0.5;" x1="206.32" x2="523.6764" y1="958.8938" y2="958.8938"/><text fill="#000000" font-family="sans-serif" font-size="14" lengthAdjust="spacing" textLength="297.3564" x="216.32" y="950.592">:calcularResultadoIntegralDobleGaussiana</text></g><!--link INTEGRAL_DOBLE_GAUSSIANA to crear_integral_doble_gaussiana--><g class="link" data-entity-1="INTEGRAL_DOBLE_GAUSSIANA" data-entity-2="crear_integral_doble_gaussiana" data-source-line="18" data-uid="lnk2" id="link_INTEGRAL_DOBLE_GAUSSIANA_crear_integral_doble_gaussiana"><path d="M271.86,94.7769 C227.41,109.0569 180,124.2969 180,124.2969 C180,124.2969 180,174.2969 180,174.2969 C180,174.2969 180.5292,179.538 182.4192,198.008" fill="none" id="INTEGRAL_DOBLE_GAUSSIANA-to-crear_integral_doble_gaussiana" style="stroke:#008000;stroke-width:1;"/><polygon fill="#008000" points="183.03,203.9769,186.0931,194.6164,182.521,199.0028,178.1346,195.4308,183.03,203.9769" style="stroke:#008000;stroke-width:1;"/><path d="M185,129.2969 L185,169.2969 L483,169.2969 L483,139.2969 L473,129.2969 L185,129.2969" fill="#F5F5F5" style="stroke:#181818;stroke-width:0.5;"/><path d="M473,129.2969 L473,139.2969 L483,139.2969 L473,129.2969" fill="#F5F5F5" style="stroke:#181818;stroke-width:0.5;"/><text fill="#000000" font-family="sans-serif" font-size="13" font-weight="bold" lengthAdjust="spacing" textLength="118.5742" x="191" y="146.3638">Usuario solicita:</text><text fill="#000000" font-family="sans-serif" font-size="13" lengthAdjust="spacing" textLength="277.5259" x="191" y="161.4966">- Crear operaci&#243;n integral doble gaussiana</text></g><!--link crear_integral_doble_gaussiana to :calcularResultadoIntegralDobleGaussiana--><g class="link" data-entity-1="crear_integral_doble_gaussiana" data-entity-2=":calcularResultadoIntegralDobleGaussiana" data-source-line="61" data-uid="lnk11" id="link_crear_integral_doble_gaussiana_:calcularResultadoIntegralDobleGaussiana"><path d="M335.05,872.0769 C343.7,896.4969 349.0835,911.7023 354.3635,926.5823" fill="none" id="crear_integral_doble_gaussiana-to-:calcularResultadoIntegralDobleGaussiana" style="stroke:#008000;stroke-width:1;"/><polygon fill="#008000" points="356.37,932.2369,357.13,922.4174,354.698,927.5247,349.5906,925.0927,356.37,932.2369" style="stroke:#008000;stroke-width:1;"/></g><!--link :calcularResultadoIntegralDobleGaussiana to INTEGRAL_DOBLE_GAUSSIANA--><g class="link" data-entity-1=":calcularResultadoIntegralDobleGaussiana" data-entity-2="INTEGRAL_DOBLE_GAUSSIANA" data-source-line="63" data-uid="lnk12" id="link_:calcularResultadoIntegralDobleGaussiana_INTEGRAL_DOBLE_GAUSSIANA"><path d="M387.43,932.4669 C410.78,907.3369 444,871.5969 444,871.5969 C444,871.5969 492,174.2969 492,174.2969 C492,174.2969 492,124.2969 492,124.2969 C492,124.2969 456.9783,111.1626 418.8783,96.8826" fill="none" id=":calcularResultadoIntegralDobleGaussiana-to-INTEGRAL_DOBLE_GAUSSIANA" style="stroke:#008000;stroke-width:1;"/><polygon fill="#008000" points="413.26,94.7769,420.2837,101.6811,417.9419,96.5317,423.0914,94.19,413.26,94.7769" style="stroke:#008000;stroke-width:1;"/></g><!--SRC=[nLF1QkCm4BtxAuRsPWXickvXUrX8an82fItDvXI2cLYJ829ht96yK9Rzc7x3Va9-R2KtTfnkK_PMsM3Dq_ZDUvB6SmcUOSNUSm5A2-LUiqqIjzMsHC42d4TFy2i1kCPykn6kh1gnOO7pDQulLvTnXKMHxD7ysvSmajzT4iidERx6vpZRQ4l-kIGesJp784cyzePWJ1vD-8xGCIY2UVYCX53WlYJ1NE_-M9XQJnj10sDUXTm9Livfj1Wgr5QcTpzk9e_3ssnyVtrxaqs6yzbiEhmR9icfbTxYV2D4Tjdx3daib-bzZKp56jcchL4RPHijR8FTD9sx2aKpE3OwrnwlqZJWlRriFiXkAA6cX0CbMLNlNwF_OmLnar_p-e0Epk2i1IxU0eC34Dv5keIkqtx0-aV8HK3U68mZJMVQUIeGX9ugJKBmWB9xASWBkrV3SVHWNTayNgycndQsQcTv5hFQK1s7HJkBBEtMG33NLJfuJ-dXC1w4IvOe1Jz1wY1A5LBD9lyZTD7H17kMgVsvUp5QiLk-mzOQ3uUOn6Rw-99q_xZAqUILGNaaLncFYfi6glkdqpx_czbbFzLIVm40]--></g></svg>