<svg xmlns="http://www.w3.org/2000/svg" xmlns:xlink="http://www.w3.org/1999/xlink" contentStyleType="text/css" data-diagram-type="STATE" height="371px" preserveAspectRatio="none" style="width:3616px;height:371px;background:#FFFFFF;" version="1.1" viewBox="0 0 3616 371" width="3616px" zoomAndPan="magnify"><title>Detalle Caso de Uso Listar Operaciones</title><defs/><g><g class="title" data-source-line="12"><text fill="#000000" font-family="sans-serif" font-size="14" font-weight="bold" lengthAdjust="spacing" textLength="310.6045" x="1645.7386" y="22.9951">Detalle Caso de Uso Listar Operaciones</text></g><g id="ESTADO_PRINCIPAL"><rect fill="#FAF4B4" height="50" rx="12.5" ry="12.5" style="stroke:#C90000;stroke-width:0.5;" width="157.1563" x="7" y="44.2969"/><line style="stroke:#C90000;stroke-width:0.5;" x1="7" x2="164.1563" y1="70.5938" y2="70.5938"/><text fill="#000000" font-family="sans-serif" font-size="14" lengthAdjust="spacing" textLength="137.1563" x="17" y="62.292">ESTADO_PRINCIPAL</text></g><g id=":listar_operaciones"><rect fill="#FAF4B4" height="50" rx="12.5" ry="12.5" style="stroke:#C90000;stroke-width:0.5;" width="151.9473" x="1736.6" y="204.2969"/><line style="stroke:#C90000;stroke-width:0.5;" x1="1736.6" x2="1888.5473" y1="230.5938" y2="230.5938"/><text fill="#000000" font-family="sans-serif" font-size="14" lengthAdjust="spacing" textLength="131.9473" x="1746.6" y="222.292">:listar_operaciones</text></g><g id="PUNTO_MEDIO_3_PUNTOS"><rect fill="#FAF4B4" height="50" rx="12.5" ry="12.5" style="stroke:#C90000;stroke-width:0.5;" width="203.1143" x="199.02" y="44.2969"/><line style="stroke:#C90000;stroke-width:0.5;" x1="199.02" x2="402.1343" y1="70.5938" y2="70.5938"/><text fill="#000000" font-family="sans-serif" font-size="14" lengthAdjust="spacing" textLength="183.1143" x="209.02" y="62.292">PUNTO_MEDIO_3_PUNTOS</text></g><g id="EXTREMO_3_PUNTOS"><rect fill="#FAF4B4" height="50" rx="12.5" ry="12.5" style="stroke:#C90000;stroke-width:0.5;" width="169.1875" x="436.98" y="44.2969"/><line style="stroke:#C90000;stroke-width:0.5;" x1="436.98" x2="606.1675" y1="70.5938" y2="70.5938"/><text fill="#000000" font-family="sans-serif" font-size="14" lengthAdjust="spacing" textLength="149.1875" x="446.98" y="62.292">EXTREMO_3_PUNTOS</text></g><g id="PUNTO_MEDIO_5_PUNTOS"><rect fill="#FAF4B4" height="50" rx="12.5" ry="12.5" style="stroke:#C90000;stroke-width:0.5;" width="203.1143" x="641.02" y="44.2969"/><line style="stroke:#C90000;stroke-width:0.5;" x1="641.02" x2="844.1343" y1="70.5938" y2="70.5938"/><text fill="#000000" font-family="sans-serif" font-size="14" lengthAdjust="spacing" textLength="183.1143" x="651.02" y="62.292">PUNTO_MEDIO_5_PUNTOS</text></g><g id="EXTREMO_5_PUNTOS"><rect fill="#FAF4B4" height="50" rx="12.5" ry="12.5" style="stroke:#C90000;stroke-width:0.5;" width="169.1875" x="878.98" y="44.2969"/><line style="stroke:#C90000;stroke-width:0.5;" x1="878.98" x2="1048.1675" y1="70.5938" y2="70.5938"/><text fill="#000000" font-family="sans-serif" font-size="14" lengthAdjust="spacing" textLength="149.1875" x="888.98" y="62.292">EXTREMO_5_PUNTOS</text></g><g id="PUNTO_MEDIO_2_DERIVADA"><rect fill="#FAF4B4" height="50" rx="12.5" ry="12.5" style="stroke:#C90000;stroke-width:0.5;" width="218.4883" x="1083.33" y="44.2969"/><line style="stroke:#C90000;stroke-width:0.5;" x1="1083.33" x2="1301.8183" y1="70.5938" y2="70.5938"/><text fill="#000000" font-family="sans-serif" font-size="14" lengthAdjust="spacing" textLength="198.4883" x="1093.33" y="62.292">PUNTO_MEDIO_2_DERIVADA</text></g><g id="NEWTON_COTES_C1"><rect fill="#FAF4B4" height="50" rx="12.5" ry="12.5" style="stroke:#C90000;stroke-width:0.5;" width="162.9668" x="1337.09" y="44.2969"/><line style="stroke:#C90000;stroke-width:0.5;" x1="1337.09" x2="1500.0568" y1="70.5938" y2="70.5938"/><text fill="#000000" font-family="sans-serif" font-size="14" lengthAdjust="spacing" textLength="142.9668" x="1347.09" y="62.292">NEWTON_COTES_C1</text></g><g id="NEWTON_COTES_C2"><rect fill="#FAF4B4" height="50" rx="12.5" ry="12.5" style="stroke:#C90000;stroke-width:0.5;" width="162.9668" x="1535.09" y="44.2969"/><line style="stroke:#C90000;stroke-width:0.5;" x1="1535.09" x2="1698.0568" y1="70.5938" y2="70.5938"/><text fill="#000000" font-family="sans-serif" font-size="14" lengthAdjust="spacing" textLength="142.9668" x="1545.09" y="62.292">NEWTON_COTES_C2</text></g><g id="NEWTON_COTES_C3"><rect fill="#FAF4B4" height="50" rx="12.5" ry="12.5" style="stroke:#C90000;stroke-width:0.5;" width="162.9668" x="1733.09" y="44.2969"/><line style="stroke:#C90000;stroke-width:0.5;" x1="1733.09" x2="1896.0568" y1="70.5938" y2="70.5938"/><text fill="#000000" font-family="sans-serif" font-size="14" lengthAdjust="spacing" textLength="142.9668" x="1743.09" y="62.292">NEWTON_COTES_C3</text></g><g id="NEWTON_COTES_C4"><rect fill="#FAF4B4" height="50" rx="12.5" ry="12.5" style="stroke:#C90000;stroke-width:0.5;" width="162.9668" x="1932.09" y="44.2969"/><line style="stroke:#C90000;stroke-width:0.5;" x1="1932.09" x2="2095.0568" y1="70.5938" y2="70.5938"/><text fill="#000000" font-family="sans-serif" font-size="14" lengthAdjust="spacing" textLength="142.9668" x="1942.09" y="62.292">NEWTON_COTES_C4</text></g><g id="NEWTON_COTES_A0"><rect fill="#FAF4B4" height="50" rx="12.5" ry="12.5" style="stroke:#C90000;stroke-width:0.5;" width="162.7686" x="2133.19" y="44.2969"/><line style="stroke:#C90000;stroke-width:0.5;" x1="2133.19" x2="2295.9586" y1="70.5938" y2="70.5938"/><text fill="#000000" font-family="sans-serif" font-size="14" lengthAdjust="spacing" textLength="142.7686" x="2143.19" y="62.292">NEWTON_COTES_A0</text></g><g id="NEWTON_COTES_A1"><rect fill="#FAF4B4" height="50" rx="12.5" ry="12.5" style="stroke:#C90000;stroke-width:0.5;" width="162.7686" x="2334.19" y="44.2969"/><line style="stroke:#C90000;stroke-width:0.5;" x1="2334.19" x2="2496.9586" y1="70.5938" y2="70.5938"/><text fill="#000000" font-family="sans-serif" font-size="14" lengthAdjust="spacing" textLength="142.7686" x="2344.19" y="62.292">NEWTON_COTES_A1</text></g><g id="NEWTON_COTES_A2"><rect fill="#FAF4B4" height="50" rx="12.5" ry="12.5" style="stroke:#C90000;stroke-width:0.5;" width="162.7686" x="2535.19" y="44.2969"/><line style="stroke:#C90000;stroke-width:0.5;" x1="2535.19" x2="2697.9586" y1="70.5938" y2="70.5938"/><text fill="#000000" font-family="sans-serif" font-size="14" lengthAdjust="spacing" textLength="142.7686" x="2545.19" y="62.292">NEWTON_COTES_A2</text></g><g id="NEWTON_COTES_A3"><rect fill="#FAF4B4" height="50" rx="12.5" ry="12.5" style="stroke:#C90000;stroke-width:0.5;" width="162.7686" x="2733.19" y="44.2969"/><line style="stroke:#C90000;stroke-width:0.5;" x1="2733.19" x2="2895.9586" y1="70.5938" y2="70.5938"/><text fill="#000000" font-family="sans-serif" font-size="14" lengthAdjust="spacing" textLength="142.7686" x="2743.19" y="62.292">NEWTON_COTES_A3</text></g><g id="SIMPSON_COMPUESTA"><rect fill="#FAF4B4" height="50" rx="12.5" ry="12.5" style="stroke:#C90000;stroke-width:0.5;" width="178.3408" x="2931.41" y="44.2969"/><line style="stroke:#C90000;stroke-width:0.5;" x1="2931.41" x2="3109.7508" y1="70.5938" y2="70.5938"/><text fill="#000000" font-family="sans-serif" font-size="14" lengthAdjust="spacing" textLength="158.3408" x="2941.41" y="62.292">SIMPSON_COMPUESTA</text></g><g id="TRAPEZOIDAL_COMPUESTA"><rect fill="#FAF4B4" height="50" rx="12.5" ry="12.5" style="stroke:#C90000;stroke-width:0.5;" width="212.4658" x="3144.35" y="44.2969"/><line style="stroke:#C90000;stroke-width:0.5;" x1="3144.35" x2="3356.8158" y1="70.5938" y2="70.5938"/><text fill="#000000" font-family="sans-serif" font-size="14" lengthAdjust="spacing" textLength="192.4658" x="3154.35" y="62.292">TRAPEZOIDAL_COMPUESTA</text></g><g id="PUNTO_MEDIO_COMPUESTA"><rect fill="#FAF4B4" height="50" rx="12.5" ry="12.5" style="stroke:#C90000;stroke-width:0.5;" width="217.0117" x="3392.07" y="44.2969"/><line style="stroke:#C90000;stroke-width:0.5;" x1="3392.07" x2="3609.0817" y1="70.5938" y2="70.5938"/><text fill="#000000" font-family="sans-serif" font-size="14" lengthAdjust="spacing" textLength="197.0117" x="3402.07" y="62.292">PUNTO_MEDIO_COMPUESTA</text></g><g id="DIFERENCIACION_NUMERICA_E_INTEGRACION"><rect fill="#FAF4B4" height="50" rx="12.5" ry="12.5" style="stroke:#C90000;stroke-width:0.5;" width="341.9795" x="1641.59" y="315.2969"/><line style="stroke:#C90000;stroke-width:0.5;" x1="1641.59" x2="1983.5695" y1="341.5938" y2="341.5938"/><text fill="#000000" font-family="sans-serif" font-size="14" lengthAdjust="spacing" textLength="321.9795" x="1651.59" y="333.292">DIFERENCIACION_NUMERICA_E_INTEGRACION</text></g><!--link ESTADO_PRINCIPAL to :listar_operaciones--><g class="link" data-entity-1="ESTADO_PRINCIPAL" data-entity-2=":listar_operaciones" data-source-line="15" data-uid="lnk4" id="link_ESTADO_PRINCIPAL_:listar_operaciones"><path d="M109.73,94.6769 C140.17,125.4169 188.58,174.2969 188.58,174.2969 C188.58,174.2969 1408.6733,214.8675 1730.1633,225.5575" fill="none" id="ESTADO_PRINCIPAL-to-:listar_operaciones" style="stroke:#008000;stroke-width:1;"/><polygon fill="#008000" points="1736.16,225.7569,1727.2979,221.46,1731.1628,225.5907,1727.032,229.4556,1736.16,225.7569" style="stroke:#008000;stroke-width:1;"/><path d="M193.58,129.2969 L193.58,169.2969 L344.58,169.2969 L344.58,139.2969 L334.58,129.2969 L193.58,129.2969" fill="#F5F5F5" style="stroke:#181818;stroke-width:0.5;"/><path d="M334.58,129.2969 L334.58,139.2969 L344.58,139.2969 L334.58,129.2969" fill="#F5F5F5" style="stroke:#181818;stroke-width:0.5;"/><text fill="#000000" font-family="sans-serif" font-size="13" font-weight="bold" lengthAdjust="spacing" textLength="130.9648" x="199.58" y="146.3638">Sisteme requiere:</text><text fill="#000000" font-family="sans-serif" font-size="13" lengthAdjust="spacing" textLength="130.5078" x="199.58" y="161.4966">- Listar Operaciones</text></g><!--link PUNTO_MEDIO_3_PUNTOS to :listar_operaciones--><g class="link" data-entity-1="PUNTO_MEDIO_3_PUNTOS" data-entity-2=":listar_operaciones" data-source-line="21" data-uid="lnk6" id="link_PUNTO_MEDIO_3_PUNTOS_:listar_operaciones"><path d="M325.9,94.6769 C357.82,125.4169 408.58,174.2969 408.58,174.2969 C408.58,174.2969 1438.2944,213.9063 1730.6044,225.1463" fill="none" id="PUNTO_MEDIO_3_PUNTOS-to-:listar_operaciones" style="stroke:#008000;stroke-width:1;"/><polygon fill="#008000" points="1736.6,225.3769,1727.7603,221.034,1731.6037,225.1848,1727.453,229.0281,1736.6,225.3769" style="stroke:#008000;stroke-width:1;"/><path d="M413.58,129.2969 L413.58,169.2969 L564.58,169.2969 L564.58,139.2969 L554.58,129.2969 L413.58,129.2969" fill="#F5F5F5" style="stroke:#181818;stroke-width:0.5;"/><path d="M554.58,129.2969 L554.58,139.2969 L564.58,139.2969 L554.58,129.2969" fill="#F5F5F5" style="stroke:#181818;stroke-width:0.5;"/><text fill="#000000" font-family="sans-serif" font-size="13" font-weight="bold" lengthAdjust="spacing" textLength="130.9204" x="419.58" y="146.3638">Sistema requiere:</text><text fill="#000000" font-family="sans-serif" font-size="13" lengthAdjust="spacing" textLength="130.5078" x="419.58" y="161.4966">- Listar Operaciones</text></g><!--link EXTREMO_3_PUNTOS to :listar_operaciones--><g class="link" data-entity-1="EXTREMO_3_PUNTOS" data-entity-2=":listar_operaciones" data-source-line="27" data-uid="lnk8" id="link_EXTREMO_3_PUNTOS_:listar_operaciones"><path d="M546.66,94.6769 C578.29,125.4169 628.58,174.2969 628.58,174.2969 C628.58,174.2969 1468.4162,212.6036 1730.2662,224.5436" fill="none" id="EXTREMO_3_PUNTOS-to-:listar_operaciones" style="stroke:#008000;stroke-width:1;"/><polygon fill="#008000" points="1736.26,224.8169,1727.4515,220.4111,1731.2652,224.5891,1727.0871,228.4028,1736.26,224.8169" style="stroke:#008000;stroke-width:1;"/><path d="M633.58,129.2969 L633.58,169.2969 L784.58,169.2969 L784.58,139.2969 L774.58,129.2969 L633.58,129.2969" fill="#F5F5F5" style="stroke:#181818;stroke-width:0.5;"/><path d="M774.58,129.2969 L774.58,139.2969 L784.58,139.2969 L774.58,129.2969" fill="#F5F5F5" style="stroke:#181818;stroke-width:0.5;"/><text fill="#000000" font-family="sans-serif" font-size="13" font-weight="bold" lengthAdjust="spacing" textLength="130.9204" x="639.58" y="146.3638">Sistema requiere:</text><text fill="#000000" font-family="sans-serif" font-size="13" lengthAdjust="spacing" textLength="130.5078" x="639.58" y="161.4966">- Listar Operaciones</text></g><!--link PUNTO_MEDIO_5_PUNTOS to :listar_operaciones--><g class="link" data-entity-1="PUNTO_MEDIO_5_PUNTOS" data-entity-2=":listar_operaciones" data-source-line="33" data-uid="lnk10" id="link_PUNTO_MEDIO_5_PUNTOS_:listar_operaciones"><path d="M767.2,94.6769 C798.23,125.4169 847.58,174.2969 847.58,174.2969 C847.58,174.2969 1502.5994,210.9517 1730.4594,223.7017" fill="none" id="PUNTO_MEDIO_5_PUNTOS-to-:listar_operaciones" style="stroke:#008000;stroke-width:1;"/><polygon fill="#008000" points="1736.45,224.0369,1727.6875,219.5403,1731.4578,223.7575,1727.2406,227.5278,1736.45,224.0369" style="stroke:#008000;stroke-width:1;"/><path d="M852.58,129.2969 L852.58,169.2969 L1003.58,169.2969 L1003.58,139.2969 L993.58,129.2969 L852.58,129.2969" fill="#F5F5F5" style="stroke:#181818;stroke-width:0.5;"/><path d="M993.58,129.2969 L993.58,139.2969 L1003.58,139.2969 L993.58,129.2969" fill="#F5F5F5" style="stroke:#181818;stroke-width:0.5;"/><text fill="#000000" font-family="sans-serif" font-size="13" font-weight="bold" lengthAdjust="spacing" textLength="130.9204" x="858.58" y="146.3638">Sistema requiere:</text><text fill="#000000" font-family="sans-serif" font-size="13" lengthAdjust="spacing" textLength="130.5078" x="858.58" y="161.4966">- Listar Operaciones</text></g><!--link EXTREMO_5_PUNTOS to :listar_operaciones--><g class="link" data-entity-1="EXTREMO_5_PUNTOS" data-entity-2=":listar_operaciones" data-source-line="39" data-uid="lnk12" id="link_EXTREMO_5_PUNTOS_:listar_operaciones"><path d="M987.26,94.6769 C1017.11,125.4169 1064.58,174.2969 1064.58,174.2969 C1064.58,174.2969 1540.0056,208.6147 1730.4056,222.3647" fill="none" id="EXTREMO_5_PUNTOS-to-:listar_operaciones" style="stroke:#008000;stroke-width:1;"/><polygon fill="#008000" points="1736.39,222.7969,1727.7015,218.159,1731.403,222.4367,1727.1253,226.1382,1736.39,222.7969" style="stroke:#008000;stroke-width:1;"/><path d="M1069.58,129.2969 L1069.58,169.2969 L1220.58,169.2969 L1220.58,139.2969 L1210.58,129.2969 L1069.58,129.2969" fill="#F5F5F5" style="stroke:#181818;stroke-width:0.5;"/><path d="M1210.58,129.2969 L1210.58,139.2969 L1220.58,139.2969 L1210.58,129.2969" fill="#F5F5F5" style="stroke:#181818;stroke-width:0.5;"/><text fill="#000000" font-family="sans-serif" font-size="13" font-weight="bold" lengthAdjust="spacing" textLength="130.9204" x="1075.58" y="146.3638">Sistema requiere:</text><text fill="#000000" font-family="sans-serif" font-size="13" lengthAdjust="spacing" textLength="130.5078" x="1075.58" y="161.4966">- Listar Operaciones</text></g><!--link PUNTO_MEDIO_2_DERIVADA to :listar_operaciones--><g class="link" data-entity-1="PUNTO_MEDIO_2_DERIVADA" data-entity-2=":listar_operaciones" data-source-line="45" data-uid="lnk14" id="link_PUNTO_MEDIO_2_DERIVADA_:listar_operaciones"><path d="M1210.87,94.6769 C1233.92,125.4169 1270.58,174.2969 1270.58,174.2969 C1270.58,174.2969 1581.0996,205.2318 1730.3896,220.1118" fill="none" id="PUNTO_MEDIO_2_DERIVADA-to-:listar_operaciones" style="stroke:#008000;stroke-width:1;"/><polygon fill="#008000" points="1736.36,220.7069,1727.8011,215.834,1731.3847,220.211,1727.0077,223.7945,1736.36,220.7069" style="stroke:#008000;stroke-width:1;"/><path d="M1275.58,129.2969 L1275.58,169.2969 L1426.58,169.2969 L1426.58,139.2969 L1416.58,129.2969 L1275.58,129.2969" fill="#F5F5F5" style="stroke:#181818;stroke-width:0.5;"/><path d="M1416.58,129.2969 L1416.58,139.2969 L1426.58,139.2969 L1416.58,129.2969" fill="#F5F5F5" style="stroke:#181818;stroke-width:0.5;"/><text fill="#000000" font-family="sans-serif" font-size="13" font-weight="bold" lengthAdjust="spacing" textLength="130.9204" x="1281.58" y="146.3638">Sistema requiere:</text><text fill="#000000" font-family="sans-serif" font-size="13" lengthAdjust="spacing" textLength="130.5078" x="1281.58" y="161.4966">- Listar Operaciones</text></g><!--link NEWTON_COTES_C1 to :listar_operaciones--><g class="link" data-entity-1="NEWTON_COTES_C1" data-entity-2=":listar_operaciones" data-source-line="51" data-uid="lnk16" id="link_NEWTON_COTES_C1_:listar_operaciones"><path d="M1428.19,94.6769 C1440.31,125.4169 1459.58,174.2969 1459.58,174.2969 C1459.58,174.2969 1626.709,199.8593 1730.489,215.7393" fill="none" id="NEWTON_COTES_C1-to-:listar_operaciones" style="stroke:#008000;stroke-width:1;"/><polygon fill="#008000" points="1736.42,216.6469,1728.1286,211.3316,1731.4775,215.8906,1726.9185,219.2396,1736.42,216.6469" style="stroke:#008000;stroke-width:1;"/><path d="M1464.58,129.2969 L1464.58,169.2969 L1615.58,169.2969 L1615.58,139.2969 L1605.58,129.2969 L1464.58,129.2969" fill="#F5F5F5" style="stroke:#181818;stroke-width:0.5;"/><path d="M1605.58,129.2969 L1605.58,139.2969 L1615.58,139.2969 L1605.58,129.2969" fill="#F5F5F5" style="stroke:#181818;stroke-width:0.5;"/><text fill="#000000" font-family="sans-serif" font-size="13" font-weight="bold" lengthAdjust="spacing" textLength="130.9204" x="1470.58" y="146.3638">Sistema requiere:</text><text fill="#000000" font-family="sans-serif" font-size="13" lengthAdjust="spacing" textLength="130.5078" x="1470.58" y="161.4966">- Listar Operaciones</text></g><!--link NEWTON_COTES_C2 to :listar_operaciones--><g class="link" data-entity-1="NEWTON_COTES_C2" data-entity-2=":listar_operaciones" data-source-line="57" data-uid="lnk18" id="link_NEWTON_COTES_C2_:listar_operaciones"><path d="M1622.21,94.6769 C1629.3,125.4169 1640.58,174.2969 1640.58,174.2969 C1640.58,174.2969 1684.4755,188.0796 1730.4055,202.4996" fill="none" id="NEWTON_COTES_C2-to-:listar_operaciones" style="stroke:#008000;stroke-width:1;"/><polygon fill="#008000" points="1736.13,204.2969,1728.7414,197.7847,1731.3596,202.7992,1726.3451,205.4173,1736.13,204.2969" style="stroke:#008000;stroke-width:1;"/><path d="M1645.58,129.2969 L1645.58,169.2969 L1796.58,169.2969 L1796.58,139.2969 L1786.58,129.2969 L1645.58,129.2969" fill="#F5F5F5" style="stroke:#181818;stroke-width:0.5;"/><path d="M1786.58,129.2969 L1786.58,139.2969 L1796.58,139.2969 L1786.58,129.2969" fill="#F5F5F5" style="stroke:#181818;stroke-width:0.5;"/><text fill="#000000" font-family="sans-serif" font-size="13" font-weight="bold" lengthAdjust="spacing" textLength="130.9204" x="1651.58" y="146.3638">Sistema requiere:</text><text fill="#000000" font-family="sans-serif" font-size="13" lengthAdjust="spacing" textLength="130.5078" x="1651.58" y="161.4966">- Listar Operaciones</text></g><!--link NEWTON_COTES_C3 to :listar_operaciones--><g class="link" data-entity-1="NEWTON_COTES_C3" data-entity-2=":listar_operaciones" data-source-line="63" data-uid="lnk20" id="link_NEWTON_COTES_C3_:listar_operaciones"><path d="M1812.31,94.7669 C1810.99,109.0569 1809.58,124.2969 1809.58,124.2969 C1809.58,124.2969 1809.58,174.2969 1809.58,174.2969 C1809.58,174.2969 1810.0846,183.5463 1810.8846,197.8363" fill="none" id="NEWTON_COTES_C3-to-:listar_operaciones" style="stroke:#008000;stroke-width:1;"/><polygon fill="#008000" points="1811.22,203.8269,1814.7107,194.6174,1810.9405,198.8347,1806.7232,195.0645,1811.22,203.8269" style="stroke:#008000;stroke-width:1;"/><path d="M1814.58,129.2969 L1814.58,169.2969 L1965.58,169.2969 L1965.58,139.2969 L1955.58,129.2969 L1814.58,129.2969" fill="#F5F5F5" style="stroke:#181818;stroke-width:0.5;"/><path d="M1955.58,129.2969 L1955.58,139.2969 L1965.58,139.2969 L1955.58,129.2969" fill="#F5F5F5" style="stroke:#181818;stroke-width:0.5;"/><text fill="#000000" font-family="sans-serif" font-size="13" font-weight="bold" lengthAdjust="spacing" textLength="130.9204" x="1820.58" y="146.3638">Sistema requiere:</text><text fill="#000000" font-family="sans-serif" font-size="13" lengthAdjust="spacing" textLength="130.5078" x="1820.58" y="161.4966">- Listar Operaciones</text></g><!--link NEWTON_COTES_C4 to :listar_operaciones--><g class="link" data-entity-1="NEWTON_COTES_C4" data-entity-2=":listar_operaciones" data-source-line="69" data-uid="lnk22" id="link_NEWTON_COTES_C4_:listar_operaciones"><path d="M2004.43,94.6769 C1992.91,125.4169 1974.58,174.2969 1974.58,174.2969 C1974.58,174.2969 1934.5521,187.6395 1891.6821,201.9295" fill="none" id="NEWTON_COTES_C4-to-:listar_operaciones" style="stroke:#008000;stroke-width:1;"/><polygon fill="#008000" points="1885.99,203.8269,1895.7931,204.7756,1890.7334,202.2457,1893.2632,197.1861,1885.99,203.8269" style="stroke:#008000;stroke-width:1;"/><path d="M1997.58,129.2969 L1997.58,169.2969 L2148.58,169.2969 L2148.58,139.2969 L2138.58,129.2969 L1997.58,129.2969" fill="#F5F5F5" style="stroke:#181818;stroke-width:0.5;"/><path d="M2138.58,129.2969 L2138.58,139.2969 L2148.58,139.2969 L2138.58,129.2969" fill="#F5F5F5" style="stroke:#181818;stroke-width:0.5;"/><text fill="#000000" font-family="sans-serif" font-size="13" font-weight="bold" lengthAdjust="spacing" textLength="130.9204" x="2003.58" y="146.3638">Sistema requiere:</text><text fill="#000000" font-family="sans-serif" font-size="13" lengthAdjust="spacing" textLength="130.5078" x="2003.58" y="161.4966">- Listar Operaciones</text></g><!--link NEWTON_COTES_A0 to :listar_operaciones--><g class="link" data-entity-1="NEWTON_COTES_A0" data-entity-2=":listar_operaciones" data-source-line="75" data-uid="lnk24" id="link_NEWTON_COTES_A0_:listar_operaciones"><path d="M2202.15,94.6769 C2186.49,125.4169 2161.58,174.2969 2161.58,174.2969 C2161.58,174.2969 1997.3594,199.7094 1894.6694,215.5994" fill="none" id="NEWTON_COTES_A0-to-:listar_operaciones" style="stroke:#008000;stroke-width:1;"/><polygon fill="#008000" points="1888.74,216.5169,1898.2458,219.0936,1893.6812,215.7523,1897.0225,211.1877,1888.74,216.5169" style="stroke:#008000;stroke-width:1;"/><path d="M2190.58,129.2969 L2190.58,169.2969 L2341.58,169.2969 L2341.58,139.2969 L2331.58,129.2969 L2190.58,129.2969" fill="#F5F5F5" style="stroke:#181818;stroke-width:0.5;"/><path d="M2331.58,129.2969 L2331.58,139.2969 L2341.58,139.2969 L2331.58,129.2969" fill="#F5F5F5" style="stroke:#181818;stroke-width:0.5;"/><text fill="#000000" font-family="sans-serif" font-size="13" font-weight="bold" lengthAdjust="spacing" textLength="130.9204" x="2196.58" y="146.3638">Sistema requiere:</text><text fill="#000000" font-family="sans-serif" font-size="13" lengthAdjust="spacing" textLength="130.5078" x="2196.58" y="161.4966">- Listar Operaciones</text></g><!--link NEWTON_COTES_A1 to :listar_operaciones--><g class="link" data-entity-1="NEWTON_COTES_A1" data-entity-2=":listar_operaciones" data-source-line="81" data-uid="lnk26" id="link_NEWTON_COTES_A1_:listar_operaciones"><path d="M2401.28,94.6769 C2383.25,125.4169 2354.58,174.2969 2354.58,174.2969 C2354.58,174.2969 2044.0504,205.2318 1894.7704,220.1118" fill="none" id="NEWTON_COTES_A1-to-:listar_operaciones" style="stroke:#008000;stroke-width:1;"/><polygon fill="#008000" points="1888.8,220.7069,1898.1524,223.7945,1893.7753,220.2109,1897.3589,215.8339,1888.8,220.7069" style="stroke:#008000;stroke-width:1;"/><path d="M2387.58,129.2969 L2387.58,169.2969 L2538.58,169.2969 L2538.58,139.2969 L2528.58,129.2969 L2387.58,129.2969" fill="#F5F5F5" style="stroke:#181818;stroke-width:0.5;"/><path d="M2528.58,129.2969 L2528.58,139.2969 L2538.58,139.2969 L2528.58,129.2969" fill="#F5F5F5" style="stroke:#181818;stroke-width:0.5;"/><text fill="#000000" font-family="sans-serif" font-size="13" font-weight="bold" lengthAdjust="spacing" textLength="130.9204" x="2393.58" y="146.3638">Sistema requiere:</text><text fill="#000000" font-family="sans-serif" font-size="13" lengthAdjust="spacing" textLength="130.5078" x="2393.58" y="161.4966">- Listar Operaciones</text></g><!--link NEWTON_COTES_A2 to :listar_operaciones--><g class="link" data-entity-1="NEWTON_COTES_A2" data-entity-2=":listar_operaciones" data-source-line="87" data-uid="lnk28" id="link_NEWTON_COTES_A2_:listar_operaciones"><path d="M2601.34,94.6769 C2582.13,125.4169 2551.58,174.2969 2551.58,174.2969 C2551.58,174.2969 2083.6741,208.4898 1894.8641,222.2798" fill="none" id="NEWTON_COTES_A2-to-:listar_operaciones" style="stroke:#008000;stroke-width:1;"/><polygon fill="#008000" points="1888.88,222.7169,1898.1475,226.0507,1893.8667,222.3527,1897.5647,218.0719,1888.88,222.7169" style="stroke:#008000;stroke-width:1;"/><path d="M2586.58,129.2969 L2586.58,169.2969 L2737.58,169.2969 L2737.58,139.2969 L2727.58,129.2969 L2586.58,129.2969" fill="#F5F5F5" style="stroke:#181818;stroke-width:0.5;"/><path d="M2727.58,129.2969 L2727.58,139.2969 L2737.58,139.2969 L2727.58,129.2969" fill="#F5F5F5" style="stroke:#181818;stroke-width:0.5;"/><text fill="#000000" font-family="sans-serif" font-size="13" font-weight="bold" lengthAdjust="spacing" textLength="130.9204" x="2592.58" y="146.3638">Sistema requiere:</text><text fill="#000000" font-family="sans-serif" font-size="13" lengthAdjust="spacing" textLength="130.5078" x="2592.58" y="161.4966">- Listar Operaciones</text></g><!--link NEWTON_COTES_A3 to :listar_operaciones--><g class="link" data-entity-1="NEWTON_COTES_A3" data-entity-2=":listar_operaciones" data-source-line="93" data-uid="lnk30" id="link_NEWTON_COTES_A3_:listar_operaciones"><path d="M2799.57,94.6769 C2780.66,125.4169 2750.58,174.2969 2750.58,174.2969 C2750.58,174.2969 2118.6001,210.6822 1894.9301,223.5522" fill="none" id="NEWTON_COTES_A3-to-:listar_operaciones" style="stroke:#008000;stroke-width:1;"/><polygon fill="#008000" points="1888.94,223.8969,1898.1549,227.3733,1893.9317,223.6096,1897.6954,219.3865,1888.94,223.8969" style="stroke:#008000;stroke-width:1;"/><path d="M2785.58,129.2969 L2785.58,169.2969 L2936.58,169.2969 L2936.58,139.2969 L2926.58,129.2969 L2785.58,129.2969" fill="#F5F5F5" style="stroke:#181818;stroke-width:0.5;"/><path d="M2926.58,129.2969 L2926.58,139.2969 L2936.58,139.2969 L2926.58,129.2969" fill="#F5F5F5" style="stroke:#181818;stroke-width:0.5;"/><text fill="#000000" font-family="sans-serif" font-size="13" font-weight="bold" lengthAdjust="spacing" textLength="130.9204" x="2791.58" y="146.3638">Sistema requiere:</text><text fill="#000000" font-family="sans-serif" font-size="13" lengthAdjust="spacing" textLength="130.5078" x="2791.58" y="161.4966">- Listar Operaciones</text></g><!--link SIMPSON_COMPUESTA to :listar_operaciones--><g class="link" data-entity-1="SIMPSON_COMPUESTA" data-entity-2=":listar_operaciones" data-source-line="99" data-uid="lnk32" id="link_SIMPSON_COMPUESTA_:listar_operaciones"><path d="M3003.93,94.6769 C2982.95,125.4169 2949.58,174.2969 2949.58,174.2969 C2949.58,174.2969 2149.8633,212.2824 1894.9433,224.3824" fill="none" id="SIMPSON_COMPUESTA-to-:listar_operaciones" style="stroke:#008000;stroke-width:1;"/><polygon fill="#008000" points="1888.95,224.6669,1898.1295,228.2357,1893.9444,224.4298,1897.7502,220.2447,1888.95,224.6669" style="stroke:#008000;stroke-width:1;"/><path d="M2987.58,129.2969 L2987.58,169.2969 L3138.58,169.2969 L3138.58,139.2969 L3128.58,129.2969 L2987.58,129.2969" fill="#F5F5F5" style="stroke:#181818;stroke-width:0.5;"/><path d="M3128.58,129.2969 L3128.58,139.2969 L3138.58,139.2969 L3128.58,129.2969" fill="#F5F5F5" style="stroke:#181818;stroke-width:0.5;"/><text fill="#000000" font-family="sans-serif" font-size="13" font-weight="bold" lengthAdjust="spacing" textLength="130.9204" x="2993.58" y="146.3638">Sistema requiere:</text><text fill="#000000" font-family="sans-serif" font-size="13" lengthAdjust="spacing" textLength="130.5078" x="2993.58" y="161.4966">- Listar Operaciones</text></g><!--link TRAPEZOIDAL_COMPUESTA to :listar_operaciones--><g class="link" data-entity-1="TRAPEZOIDAL_COMPUESTA" data-entity-2=":listar_operaciones" data-source-line="105" data-uid="lnk34" id="link_TRAPEZOIDAL_COMPUESTA_:listar_operaciones"><path d="M3227.37,94.6769 C3198.11,125.4169 3151.58,174.2969 3151.58,174.2969 C3151.58,174.2969 2178.7751,213.5251 1894.8851,224.9751" fill="none" id="TRAPEZOIDAL_COMPUESTA-to-:listar_operaciones" style="stroke:#008000;stroke-width:1;"/><polygon fill="#008000" points="1888.89,225.2169,1898.0439,228.8509,1893.8859,225.0154,1897.7215,220.8574,1888.89,225.2169" style="stroke:#008000;stroke-width:1;"/><path d="M3202.58,129.2969 L3202.58,169.2969 L3353.58,169.2969 L3353.58,139.2969 L3343.58,129.2969 L3202.58,129.2969" fill="#F5F5F5" style="stroke:#181818;stroke-width:0.5;"/><path d="M3343.58,129.2969 L3343.58,139.2969 L3353.58,139.2969 L3343.58,129.2969" fill="#F5F5F5" style="stroke:#181818;stroke-width:0.5;"/><text fill="#000000" font-family="sans-serif" font-size="13" font-weight="bold" lengthAdjust="spacing" textLength="130.9204" x="3208.58" y="146.3638">Sistema requiere:</text><text fill="#000000" font-family="sans-serif" font-size="13" lengthAdjust="spacing" textLength="130.5078" x="3208.58" y="161.4966">- Listar Operaciones</text></g><!--link PUNTO_MEDIO_COMPUESTA to :listar_operaciones--><g class="link" data-entity-1="PUNTO_MEDIO_COMPUESTA" data-entity-2=":listar_operaciones" data-source-line="111" data-uid="lnk36" id="link_PUNTO_MEDIO_COMPUESTA_:listar_operaciones"><path d="M3469.16,94.6769 C3429.55,125.4169 3366.58,174.2969 3366.58,174.2969 C3366.58,174.2969 2207.2364,214.5784 1894.8464,225.4384" fill="none" id="PUNTO_MEDIO_COMPUESTA-to-:listar_operaciones" style="stroke:#008000;stroke-width:1;"/><polygon fill="#008000" points="1888.85,225.6469,1897.9835,229.3318,1893.847,225.4732,1897.7056,221.3366,1888.85,225.6469" style="stroke:#008000;stroke-width:1;"/><path d="M3433.58,129.2969 L3433.58,169.2969 L3584.58,169.2969 L3584.58,139.2969 L3574.58,129.2969 L3433.58,129.2969" fill="#F5F5F5" style="stroke:#181818;stroke-width:0.5;"/><path d="M3574.58,129.2969 L3574.58,139.2969 L3584.58,139.2969 L3574.58,129.2969" fill="#F5F5F5" style="stroke:#181818;stroke-width:0.5;"/><text fill="#000000" font-family="sans-serif" font-size="13" font-weight="bold" lengthAdjust="spacing" textLength="130.9204" x="3439.58" y="146.3638">Sistema requiere:</text><text fill="#000000" font-family="sans-serif" font-size="13" lengthAdjust="spacing" textLength="130.5078" x="3439.58" y="161.4966">- Listar Operaciones</text></g><!--link :listar_operaciones to DIFERENCIACION_NUMERICA_E_INTEGRACION--><g class="link" data-entity-1=":listar_operaciones" data-entity-2="DIFERENCIACION_NUMERICA_E_INTEGRACION" data-source-line="118" data-uid="lnk38" id="link_:listar_operaciones_DIFERENCIACION_NUMERICA_E_INTEGRACION"><path d="M1812.58,254.7569 C1812.58,272.7069 1812.58,290.9869 1812.58,308.9169" fill="none" id=":listar_operaciones-to-DIFERENCIACION_NUMERICA_E_INTEGRACION" style="stroke:#008000;stroke-width:1;"/><polygon fill="#008000" points="1812.58,314.9169,1816.58,305.9169,1812.58,309.9169,1808.58,305.9169,1812.58,314.9169" style="stroke:#008000;stroke-width:1;"/></g><!--SRC=[nPPBIyGm483l-HK1RuM5THy7zo34DafWsvG-L1G9SJkxbEqcDUqU5l6_cnQH2kj13qro66QIcM-634cQVQbgQUG1Dwri0RyZZ6_aPhyp-gWANrVQu8kjt2vU5zsADWMOB-lcQce7-a2e-GwYzAynbjtykRig5RId6d2jgrEd8DIMRGKuW5PMLlgoqRW0d5knBcs61lCQZDoKMa634A9fHW8kueH5Fel9Ul9yiJC0wcLoZLTLxo7qmAFFJwkElBTPUbvgzy01i86tOma6LfvdxPDpD515Nnz2SHvbN8GqO5pCHQ-b_oJBlv7fOvRGS6pgiDwbatgNpkgTYO0cx9u4P1nsH1yo7WcVPpGL_gKBwCm5TEu2kd009LCNK1UDH5mq4XcfaL8MncbF3UEyUuR6mMO9YUaJPm5PZuqUteeZez6Pq4Dom6vfGkqNWFZCdacKX_REzecWWaKPlKjwyoS0]--></g></svg>