<svg xmlns="http://www.w3.org/2000/svg" xmlns:xlink="http://www.w3.org/1999/xlink" contentStyleType="text/css" data-diagram-type="STATE" height="917px" preserveAspectRatio="none" style="width:444px;height:917px;background:#FFFFFF;" version="1.1" viewBox="0 0 444 917" width="444px" zoomAndPan="magnify"><title>Detalle Caso de Uso Abrir Newton Cotes Abierto n=2</title><defs/><g><g class="title" data-source-line="12"><text fill="#000000" font-family="sans-serif" font-size="14" font-weight="bold" lengthAdjust="spacing" textLength="415.9531" x="10" y="22.9951">Detalle Caso de Uso Abrir Newton Cotes Abierto n=2</text></g><path d="M24.9766,204.2969 L363.9766,204.2969 A12.5,12.5 0 0 1 376.4766,216.7969 L376.4766,230.5938 L12.4766,230.5938 L12.4766,216.7969 A12.5,12.5 0 0 1 24.9766,204.2969" fill="#FAF4B4" style="stroke:#FAF4B4;stroke-width:1;"/><rect fill="none" height="485.2969" rx="12.5" ry="12.5" style="stroke:#C90000;stroke-width:0.5;" width="364" x="12.4766" y="204.2969"/><line style="stroke:#C90000;stroke-width:0.5;" x1="12.4766" x2="376.4766" y1="230.5938" y2="230.5938"/><text fill="#000000" font-family="sans-serif" font-size="14" lengthAdjust="spacing" textLength="160.877" x="114.0381" y="222.292">abrir_newton_cotes_a2</text><g id="abrir_newton_cotes_a2.1"><rect fill="#FAF4B4" height="50" rx="12.5" ry="12.5" style="stroke:#C90000;stroke-width:0.5;" width="50" x="24.4766" y="298.5938"/><line style="stroke:#C90000;stroke-width:0.5;" x1="24.4766" x2="74.4766" y1="324.8906" y2="324.8906"/><text fill="#000000" font-family="sans-serif" font-size="14" lengthAdjust="spacing" textLength="4.4502" x="47.2515" y="316.5889">&#160;</text></g><g id="abrir_newton_cotes_a2.2"><rect fill="#FAF4B4" height="50" rx="12.5" ry="12.5" style="stroke:#C90000;stroke-width:0.5;" width="50" x="24.4766" y="434.5938"/><line style="stroke:#C90000;stroke-width:0.5;" x1="24.4766" x2="74.4766" y1="460.8906" y2="460.8906"/><text fill="#000000" font-family="sans-serif" font-size="14" lengthAdjust="spacing" textLength="4.4502" x="47.2515" y="452.5889">&#160;</text></g><g id="abrir_newton_cotes_a2.3"><rect fill="#FAF4B4" height="50" rx="12.5" ry="12.5" style="stroke:#C90000;stroke-width:0.5;" width="50" x="24.4766" y="570.5938"/><line style="stroke:#C90000;stroke-width:0.5;" x1="24.4766" x2="74.4766" y1="596.8906" y2="596.8906"/><text fill="#000000" font-family="sans-serif" font-size="14" lengthAdjust="spacing" textLength="4.4502" x="47.2515" y="588.5889">&#160;</text></g><ellipse cx="49.4766" cy="251.5938" fill="#222222" rx="10" ry="10" style="stroke:#222222;stroke-width:1;"/><ellipse cx="49.4766" cy="668.5938" fill="none" rx="11" ry="11" style="stroke:#222222;stroke-width:1;"/><ellipse cx="49.4766" cy="668.5938" fill="#222222" rx="6" ry="6" style="stroke:#222222;stroke-width:1;"/><!--link *start*abrir_newton_cotes_a2 to 1--><g class="link" data-entity-1="*start*abrir_newton_cotes_a2" data-entity-2="1" data-source-line="26" data-uid="lnk5" id="link_*start*abrir_newton_cotes_a2_1"><path d="M49.4766,262.0338 C49.4766,271.2938 49.4766,279.7838 49.4766,292.2738" fill="none" id="*start*abrir_newton_cotes_a2-to-1" style="stroke:#008000;stroke-width:1;"/><polygon fill="#008000" points="49.4766,298.2738,53.4766,289.2738,49.4766,293.2738,45.4766,289.2738,49.4766,298.2738" style="stroke:#008000;stroke-width:1;"/></g><!--link 1 to 2--><g class="link" data-entity-1="1" data-entity-2="2" data-source-line="27" data-uid="lnk6" id="link_1_2"><path d="M49.4766,348.8638 C49.4766,373.1438 49.4766,404.2838 49.4766,428.5037" fill="none" id="1-to-2" style="stroke:#008000;stroke-width:1;"/><polygon fill="#008000" points="49.4766,434.5037,53.4766,425.5037,49.4766,429.5037,45.4766,425.5037,49.4766,434.5037" style="stroke:#008000;stroke-width:1;"/><path d="M54.4766,371.5938 L54.4766,411.5938 L367.4766,411.5938 L367.4766,381.5938 L357.4766,371.5938 L54.4766,371.5938" fill="#F5F5F5" style="stroke:#181818;stroke-width:0.5;"/><path d="M357.4766,371.5938 L357.4766,381.5938 L367.4766,381.5938 L357.4766,371.5938" fill="#F5F5F5" style="stroke:#181818;stroke-width:0.5;"/><text fill="#000000" font-family="sans-serif" font-size="13" font-weight="bold" lengthAdjust="spacing" textLength="130.9204" x="60.4766" y="388.6606">Sistema requiere:</text><text fill="#000000" font-family="sans-serif" font-size="13" lengthAdjust="spacing" textLength="292.9697" x="60.4766" y="403.7935">- M&#233;todo newton cotes abierto n=2 conocido</text></g><!--link 2 to 3--><g class="link" data-entity-1="2" data-entity-2="3" data-source-line="32" data-uid="lnk7" id="link_2_3"><path d="M49.4766,484.8638 C49.4766,509.1438 49.4766,540.2838 49.4766,564.5038" fill="none" id="2-to-3" style="stroke:#008000;stroke-width:1;"/><polygon fill="#008000" points="49.4766,570.5038,53.4766,561.5038,49.4766,565.5038,45.4766,561.5038,49.4766,570.5038" style="stroke:#008000;stroke-width:1;"/><path d="M54.4766,507.5938 L54.4766,547.5938 L367.4766,547.5938 L367.4766,517.5938 L357.4766,507.5938 L54.4766,507.5938" fill="#F5F5F5" style="stroke:#181818;stroke-width:0.5;"/><path d="M357.4766,507.5938 L357.4766,517.5938 L367.4766,517.5938 L357.4766,507.5938" fill="#F5F5F5" style="stroke:#181818;stroke-width:0.5;"/><text fill="#000000" font-family="sans-serif" font-size="13" font-weight="bold" lengthAdjust="spacing" textLength="144.1235" x="60.4766" y="524.6606">Usuario Selecciona:</text><text fill="#000000" font-family="sans-serif" font-size="13" lengthAdjust="spacing" textLength="292.9697" x="60.4766" y="539.7935">- M&#233;todo newton cotes abierto n=2 conocido</text></g><!--link 3 to *end*abrir_newton_cotes_a2--><g class="link" data-entity-1="3" data-entity-2="*end*abrir_newton_cotes_a2" data-source-line="38" data-uid="lnk9" id="link_3_*end*abrir_newton_cotes_a2"><path d="M49.4766,621.0238 C49.4766,633.3838 49.4766,641.7238 49.4766,651.1938" fill="none" id="3-to-*end*abrir_newton_cotes_a2" style="stroke:#008000;stroke-width:1;"/><polygon fill="#008000" points="49.4766,657.1938,53.4766,648.1938,49.4766,652.1938,45.4766,648.1938,49.4766,657.1938" style="stroke:#008000;stroke-width:1;"/></g><g id="DIFERENCIACION_NUMERICA_E_INTEGRACION"><rect fill="#FAF4B4" height="50" rx="12.5" ry="12.5" style="stroke:#C90000;stroke-width:0.5;" width="341.9795" x="23.4866" y="44.2969"/><line style="stroke:#C90000;stroke-width:0.5;" x1="23.4866" x2="365.4661" y1="70.5938" y2="70.5938"/><text fill="#000000" font-family="sans-serif" font-size="14" lengthAdjust="spacing" textLength="321.9795" x="33.4866" y="62.292">DIFERENCIACION_NUMERICA_E_INTEGRACION</text></g><g id=":abrirNewtonCotesA2"><rect fill="#FAF4B4" height="50" rx="12.5" ry="12.5" style="stroke:#C90000;stroke-width:0.5;" width="169.2695" x="109.8466" y="750.5969"/><line style="stroke:#C90000;stroke-width:0.5;" x1="109.8466" x2="279.1161" y1="776.8938" y2="776.8938"/><text fill="#000000" font-family="sans-serif" font-size="14" lengthAdjust="spacing" textLength="149.2695" x="119.8466" y="768.592">:abrirNewtonCotesA2</text></g><g id="NEWTON_COTES_A2"><rect fill="#FAF4B4" height="50" rx="12.5" ry="12.5" style="stroke:#C90000;stroke-width:0.5;" width="162.7686" x="113.0966" y="861.5969"/><line style="stroke:#C90000;stroke-width:0.5;" x1="113.0966" x2="275.8651" y1="887.8938" y2="887.8938"/><text fill="#000000" font-family="sans-serif" font-size="14" lengthAdjust="spacing" textLength="142.7686" x="123.0966" y="879.592">NEWTON_COTES_A2</text></g><!--link DIFERENCIACION_NUMERICA_E_INTEGRACION to abrir_newton_cotes_a2--><g class="link" data-entity-1="DIFERENCIACION_NUMERICA_E_INTEGRACION" data-entity-2="abrir_newton_cotes_a2" data-source-line="15" data-uid="lnk3" id="link_DIFERENCIACION_NUMERICA_E_INTEGRACION_abrir_newton_cotes_a2"><path d="M194.4766,94.6569 C194.4766,119.0469 194.4766,153.2969 194.4766,198.0169" fill="none" id="DIFERENCIACION_NUMERICA_E_INTEGRACION-to-abrir_newton_cotes_a2" style="stroke:#008000;stroke-width:1;"/><polygon fill="#008000" points="194.4766,204.0169,198.4766,195.0169,194.4766,199.0169,190.4766,195.0169,194.4766,204.0169" style="stroke:#008000;stroke-width:1;"/><path d="M199.4766,129.2969 L199.4766,169.2969 L437.4766,169.2969 L437.4766,139.2969 L427.4766,129.2969 L199.4766,129.2969" fill="#F5F5F5" style="stroke:#181818;stroke-width:0.5;"/><path d="M427.4766,129.2969 L427.4766,139.2969 L437.4766,139.2969 L427.4766,129.2969" fill="#F5F5F5" style="stroke:#181818;stroke-width:0.5;"/><text fill="#000000" font-family="sans-serif" font-size="13" font-weight="bold" lengthAdjust="spacing" textLength="118.5742" x="205.4766" y="146.3638">Usuario solicita:</text><text fill="#000000" font-family="sans-serif" font-size="13" lengthAdjust="spacing" textLength="217.896" x="205.4766" y="161.4966">- Abrir Newton Cotes Abierto n=2</text></g><!--link abrir_newton_cotes_a2 to :abrirNewtonCotesA2--><g class="link" data-entity-1="abrir_newton_cotes_a2" data-entity-2=":abrirNewtonCotesA2" data-source-line="41" data-uid="lnk11" id="link_abrir_newton_cotes_a2_:abrirNewtonCotesA2"><path d="M194.4766,690.0569 C194.4766,714.2169 194.4766,729.3469 194.4766,744.4469" fill="none" id="abrir_newton_cotes_a2-to-:abrirNewtonCotesA2" style="stroke:#008000;stroke-width:1;"/><polygon fill="#008000" points="194.4766,750.4469,198.4766,741.4469,194.4766,745.4469,190.4766,741.4469,194.4766,750.4469" style="stroke:#008000;stroke-width:1;"/></g><!--link :abrirNewtonCotesA2 to NEWTON_COTES_A2--><g class="link" data-entity-1=":abrirNewtonCotesA2" data-entity-2="NEWTON_COTES_A2" data-source-line="43" data-uid="lnk13" id="link_:abrirNewtonCotesA2_NEWTON_COTES_A2"><path d="M194.4766,801.0569 C194.4766,819.0069 194.4766,837.2869 194.4766,855.2169" fill="none" id=":abrirNewtonCotesA2-to-NEWTON_COTES_A2" style="stroke:#008000;stroke-width:1;"/><polygon fill="#008000" points="194.4766,861.2169,198.4766,852.2169,194.4766,856.2169,190.4766,852.2169,194.4766,861.2169" style="stroke:#008000;stroke-width:1;"/></g><!--SRC=[dL9TQy8m57tFhxYujq9XLlSmOOEkTgCFLl23FOYKs5ubM1ENH8QC_Q3zZlsntTHDgtGCTbi8ERcvvvwJQzP2Rhdc6p2MMuGt1l30y_LAgvqi8bKg3LTBlkmkkkv4wGBrDvhVNbEmTyRCiOXKlzQuSTzvTYaaslqMOQlAlTimPeKj4VfeUKbhn8s20c5AIxZGGaEAhrP9Y8Z742HGMmNoBc2CzPF7U1IdKH96oJ3DqkaW7YLHcCLPaaxYfr45-xEhbKQKS_yUkAkOoQfYbhkA6GzO9O4eg9yr2V6ygTbnBHGOLOfSMDxpFCBzlnf2MLHsaE3AsKOsPzNXk0tSG0jQHo2u13edWFwPDuUwc3PXxJCa8EH2Z0lF6mjZSSD1uykE-iM381S-33u_h2f8mK5MrIUrVfH5Y5IvA1JTE2e4QhREt6bYFXavnXBpN2Z9VvZ_oqkRpXapkU96hD7hUbwloZYyNVLq8KrG0rY_ayRF4vghQ3Y9nraOV040]--></g></svg>