<svg xmlns="http://www.w3.org/2000/svg" xmlns:xlink="http://www.w3.org/1999/xlink" contentStyleType="text/css" data-diagram-type="STATE" height="988px" preserveAspectRatio="none" style="width:529px;height:988px;background:#FFFFFF;" version="1.1" viewBox="0 0 529 988" width="529px" zoomAndPan="magnify"><title>Detalle Caso de Uso Crear Operaci&#243;n Integral Doble Gaussiana</title><defs/><g><g class="title" data-source-line="14"><text fill="#000000" font-family="sans-serif" font-size="14" font-weight="bold" lengthAdjust="spacing" textLength="494.6484" x="10.514" y="22.9951">Detalle Caso de Uso Crear Operaci&#243;n Integral Doble Gaussiana</text></g><g id="INTEGRAL_DOBLE_GAUSSIANA"><rect fill="#FAF4B4" height="50" rx="12.5" ry="12.5" style="stroke:#C90000;stroke-width:0.5;" width="234.2041" x="228.9" y="44.2969"/><line style="stroke:#C90000;stroke-width:0.5;" x1="228.9" x2="463.1041" y1="70.5938" y2="70.5938"/><text fill="#000000" font-family="sans-serif" font-size="14" lengthAdjust="spacing" textLength="214.2041" x="238.9" y="62.292">INTEGRAL_DOBLE_GAUSSIANA</text></g><path d="M19.5,204.2969 L412.5,204.2969 A12.5,12.5 0 0 1 425,216.7969 L425,230.5938 L7,230.5938 L7,216.7969 A12.5,12.5 0 0 1 19.5,204.2969" fill="#FAF4B4"/><rect fill="none" height="667.2969" rx="12.5" ry="12.5" style="stroke:#C90000;stroke-width:0.5;" width="418" x="7" y="204.2969"/><line style="stroke:#C90000;stroke-width:0.5;" x1="7" x2="425" y1="230.5938" y2="230.5938"/><text fill="#000000" font-family="sans-serif" font-size="14" lengthAdjust="spacing" textLength="221.0674" x="105.4663" y="222.292">crear_integral_doble_gaussiana</text><g id="crear_integral_doble_gaussiana.1"><rect fill="#FAF4B4" height="50" rx="12.5" ry="12.5" style="stroke:#C90000;stroke-width:0.5;" width="50" x="157" y="298.5938"/><line style="stroke:#C90000;stroke-width:0.5;" x1="157" x2="207" y1="324.8906" y2="324.8906"/><text fill="#000000" font-family="sans-serif" font-size="14" lengthAdjust="spacing" textLength="4.4502" x="179.7749" y="316.5889">&#160;</text></g><g id="crear_integral_doble_gaussiana.2"><rect fill="#FAF4B4" height="50" rx="12.5" ry="12.5" style="stroke:#C90000;stroke-width:0.5;" width="50" x="19" y="525.5938"/><line style="stroke:#C90000;stroke-width:0.5;" x1="19" x2="69" y1="551.8906" y2="551.8906"/><text fill="#000000" font-family="sans-serif" font-size="14" lengthAdjust="spacing" textLength="4.4502" x="41.7749" y="543.5889">&#160;</text></g><g id="crear_integral_doble_gaussiana.3"><rect fill="#FAF4B4" height="50" rx="12.5" ry="12.5" style="stroke:#C90000;stroke-width:0.5;" width="50" x="152" y="752.5938"/><line style="stroke:#C90000;stroke-width:0.5;" x1="152" x2="202" y1="778.8906" y2="778.8906"/><text fill="#000000" font-family="sans-serif" font-size="14" lengthAdjust="spacing" textLength="4.4502" x="174.7749" y="770.5889">&#160;</text></g><ellipse cx="182" cy="251.5938" fill="#222222" rx="10" ry="10" style="stroke:#222222;stroke-width:1;"/><ellipse cx="177" cy="850.5938" fill="none" rx="11" ry="11" style="stroke:#222222;stroke-width:1;"/><ellipse cx="177" cy="850.5938" fill="#222222" rx="6" ry="6" style="stroke:#222222;stroke-width:1;"/><!--link *start*crear_integral_doble_gaussiana to 1--><g class="link" data-entity-1=".start.crear_integral_doble_gaussiana" data-entity-2="1" data-source-line="29" data-uid="lnk4" id="link_.start.crear_integral_doble_gaussiana_1"><path d="M182,262.0338 C182,271.2938 182,279.7838 182,292.2737" fill="none" id="*start*crear_integral_doble_gaussiana-to-1" style="stroke:#008000;stroke-width:1;"/><polygon fill="#008000" points="182,298.2737,186,289.2737,182,293.2737,178,289.2737,182,298.2737" style="stroke:#008000;stroke-width:1;"/></g><!--link 1 to 2--><g class="link" data-entity-1="1" data-entity-2="2" data-source-line="30" data-uid="lnk5" id="link_1_2"><path d="M156.6,332.9938 C119.54,345.2537 55,366.5938 55,366.5938 C55,366.5938 48.8097,469.5245 45.8197,519.3045" fill="none" id="1-to-2" style="stroke:#008000;stroke-width:1;"/><polygon fill="#008000" points="45.46,525.2938,49.9924,516.5498,45.7598,520.3027,42.0068,516.0701,45.46,525.2938" style="stroke:#008000;stroke-width:1;"/><path d="M60,371.5938 L60,502.5938 L301,502.5938 L301,381.5938 L291,371.5938 L60,371.5938" fill="#F5F5F5" style="stroke:#181818;stroke-width:0.5;"/><path d="M291,371.5938 L291,381.5938 L301,381.5938 L291,371.5938" fill="#F5F5F5" style="stroke:#181818;stroke-width:0.5;"/><text fill="#000000" font-family="sans-serif" font-size="13" font-weight="bold" lengthAdjust="spacing" textLength="220.5874" x="66" y="388.6606">Sistema requiere Par&#225;metros:</text><text fill="#000000" font-family="sans-serif" font-size="13" lengthAdjust="spacing" textLength="56.8306" x="66" y="403.7935">- funcion</text><text fill="#000000" font-family="sans-serif" font-size="13" lengthAdjust="spacing" textLength="16.7896" x="66" y="418.9263">- a</text><text fill="#000000" font-family="sans-serif" font-size="13" lengthAdjust="spacing" textLength="17.0752" x="66" y="434.0591">- b</text><text fill="#000000" font-family="sans-serif" font-size="13" lengthAdjust="spacing" textLength="50.6733" x="66" y="449.1919">- c_func</text><text fill="#000000" font-family="sans-serif" font-size="13" lengthAdjust="spacing" textLength="51.7778" x="66" y="464.3247">- d_func</text><text fill="#000000" font-family="sans-serif" font-size="13" lengthAdjust="spacing" textLength="21.4868" x="66" y="479.4575">- m</text><text fill="#000000" font-family="sans-serif" font-size="13" lengthAdjust="spacing" textLength="17.0625" x="66" y="494.5903">- n</text></g><!--link 2 to 3--><g class="link" data-entity-1="2" data-entity-2="3" data-source-line="41" data-uid="lnk6" id="link_2_3"><path d="M39.35,576.0238 C37.59,585.2638 36,593.5938 36,593.5938 C36,593.5938 36,734.5938 36,734.5938 C36,734.5938 105.4897,755.2907 146.0397,767.3707" fill="none" id="2-to-3" style="stroke:#008000;stroke-width:1;"/><polygon fill="#008000" points="151.79,769.0838,144.3066,762.6807,146.9981,767.6562,142.0226,770.3477,151.79,769.0838" style="stroke:#008000;stroke-width:1;"/><path d="M41,598.5938 L41,729.5938 L301,729.5938 L301,608.5938 L291,598.5938 L41,598.5938" fill="#F5F5F5" style="stroke:#181818;stroke-width:0.5;"/><path d="M291,598.5938 L291,608.5938 L301,608.5938 L291,598.5938" fill="#F5F5F5" style="stroke:#181818;stroke-width:0.5;"/><text fill="#000000" font-family="sans-serif" font-size="13" font-weight="bold" lengthAdjust="spacing" textLength="239.5859" x="47" y="615.6606">Cliente Proporciona Par&#225;metros:</text><text fill="#000000" font-family="sans-serif" font-size="13" lengthAdjust="spacing" textLength="56.8306" x="55.2646" y="630.7935">- funcion</text><text fill="#000000" font-family="sans-serif" font-size="13" lengthAdjust="spacing" textLength="16.7896" x="55.2646" y="645.9263">- a</text><text fill="#000000" font-family="sans-serif" font-size="13" lengthAdjust="spacing" textLength="17.0752" x="55.2646" y="661.0591">- b</text><text fill="#000000" font-family="sans-serif" font-size="13" lengthAdjust="spacing" textLength="50.6733" x="55.2646" y="676.1919">- c_func</text><text fill="#000000" font-family="sans-serif" font-size="13" lengthAdjust="spacing" textLength="51.7778" x="55.2646" y="691.3247">- d_func</text><text fill="#000000" font-family="sans-serif" font-size="13" lengthAdjust="spacing" textLength="21.4868" x="55.2646" y="706.4575">- m</text><text fill="#000000" font-family="sans-serif" font-size="13" lengthAdjust="spacing" textLength="17.0625" x="55.2646" y="721.5903">- n</text></g><!--link 3 to 1--><g class="link" data-entity-1="3" data-entity-2="1" data-source-line="52" data-uid="lnk7" id="link_3_1"><path d="M202.49,768.2938 C240.08,756.0538 306,734.5938 306,734.5938 C306,734.5938 306,366.5938 306,366.5938 C306,366.5938 249.3528,347.4088 213.0728,335.1188" fill="none" id="3-to-1" style="stroke:#FF0000;stroke-width:1;"/><polygon fill="#FF0000" points="207.39,333.1938,214.6308,339.8699,212.1257,334.798,217.1976,332.2928,207.39,333.1938" style="stroke:#FF0000;stroke-width:1;"/><path d="M311,530.5938 L311,570.5938 L416,570.5938 L416,540.5938 L406,530.5938 L311,530.5938" fill="#F5F5F5" style="stroke:#181818;stroke-width:0.5;"/><path d="M406,530.5938 L406,540.5938 L416,540.5938 L406,530.5938" fill="#F5F5F5" style="stroke:#181818;stroke-width:0.5;"/><text fill="#000000" font-family="sans-serif" font-size="13" lengthAdjust="spacing" textLength="80.0186" x="317" y="547.6606">[Par&#225;metros</text><text fill="#000000" font-family="sans-serif" font-size="13" lengthAdjust="spacing" textLength="63.0068" x="325.2646" y="562.7935">Inv&#225;lidos]</text></g><!--link 3 to *end*crear_integral_doble_gaussiana--><g class="link" data-entity-1="3" data-entity-2=".end.crear_integral_doble_gaussiana" data-source-line="57" data-uid="lnk9" id="link_3_.end.crear_integral_doble_gaussiana"><path d="M177,803.0238 C177,815.3838 177,823.7238 177,833.1938" fill="none" id="3-to-*end*crear_integral_doble_gaussiana" style="stroke:#008000;stroke-width:1;"/><polygon fill="#008000" points="177,839.1938,181,830.1938,177,834.1938,173,830.1938,177,839.1938" style="stroke:#008000;stroke-width:1;"/></g><g id=".calcularResultadoIntegralDobleGaussiana"><rect fill="#FAF4B4" height="50" rx="12.5" ry="12.5" style="stroke:#C90000;stroke-width:0.5;" width="317.3564" x="205.32" y="932.5969"/><line style="stroke:#C90000;stroke-width:0.5;" x1="205.32" x2="522.6764" y1="958.8938" y2="958.8938"/><text fill="#000000" font-family="sans-serif" font-size="14" lengthAdjust="spacing" textLength="297.3564" x="215.32" y="950.592">:calcularResultadoIntegralDobleGaussiana</text></g><!--link INTEGRAL_DOBLE_GAUSSIANA to crear_integral_doble_gaussiana--><g class="link" data-entity-1="INTEGRAL_DOBLE_GAUSSIANA" data-entity-2="crear_integral_doble_gaussiana" data-source-line="18" data-uid="lnk2" id="link_INTEGRAL_DOBLE_GAUSSIANA_crear_integral_doble_gaussiana"><path d="M269.86,94.7769 C225.41,109.0569 178,124.2969 178,124.2969 C178,124.2969 178,174.2969 178,174.2969 C178,174.2969 178.5432,179.5397 180.4832,198.0097" fill="none" id="INTEGRAL_DOBLE_GAUSSIANA-to-crear_integral_doble_gaussiana" style="stroke:#008000;stroke-width:1;"/><polygon fill="#008000" points="181.11,203.9769,184.148,194.6083,180.5877,199.0042,176.1917,195.444,181.11,203.9769" style="stroke:#008000;stroke-width:1;"/><path d="M183,129.2969 L183,169.2969 L481,169.2969 L481,139.2969 L471,129.2969 L183,129.2969" fill="#F5F5F5" style="stroke:#181818;stroke-width:0.5;"/><path d="M471,129.2969 L471,139.2969 L481,139.2969 L471,129.2969" fill="#F5F5F5" style="stroke:#181818;stroke-width:0.5;"/><text fill="#000000" font-family="sans-serif" font-size="13" font-weight="bold" lengthAdjust="spacing" textLength="114.0103" x="189" y="146.3638">Cliente solicita:</text><text fill="#000000" font-family="sans-serif" font-size="13" lengthAdjust="spacing" textLength="277.5259" x="189" y="161.4966">- Crear operaci&#243;n integral doble gaussiana</text></g><!--link crear_integral_doble_gaussiana to :calcularResultadoIntegralDobleGaussiana--><g class="link" data-entity-1="crear_integral_doble_gaussiana" data-entity-2=".calcularResultadoIntegralDobleGaussiana" data-source-line="61" data-uid="lnk11" id="link_crear_integral_doble_gaussiana_.calcularResultadoIntegralDobleGaussiana"><path d="M334.05,872.0769 C342.7,896.4969 348.0835,911.7023 353.3635,926.5823" fill="none" id="crear_integral_doble_gaussiana-to-:calcularResultadoIntegralDobleGaussiana" style="stroke:#008000;stroke-width:1;"/><polygon fill="#008000" points="355.37,932.2369,356.13,922.4174,353.698,927.5247,348.5906,925.0927,355.37,932.2369" style="stroke:#008000;stroke-width:1;"/></g><!--link :calcularResultadoIntegralDobleGaussiana to INTEGRAL_DOBLE_GAUSSIANA--><g class="link" data-entity-1=".calcularResultadoIntegralDobleGaussiana" data-entity-2="INTEGRAL_DOBLE_GAUSSIANA" data-source-line="63" data-uid="lnk12" id="link_.calcularResultadoIntegralDobleGaussiana_INTEGRAL_DOBLE_GAUSSIANA"><path d="M386.43,932.4669 C409.78,907.3369 443,871.5969 443,871.5969 C443,871.5969 490,174.2969 490,174.2969 C490,174.2969 490,124.2969 490,124.2969 C490,124.2969 454.9783,111.1626 416.8783,96.8826" fill="none" id=":calcularResultadoIntegralDobleGaussiana-to-INTEGRAL_DOBLE_GAUSSIANA" style="stroke:#008000;stroke-width:1;"/><polygon fill="#008000" points="411.26,94.7769,418.2837,101.6811,415.9419,96.5317,421.0914,94.19,411.26,94.7769" style="stroke:#008000;stroke-width:1;"/></g><!--SRC=[nLF1QXin4BtlLmp9RS5Gn-cXEHGSEnX3I4BSd8nPnjBO2CkQxKXR2AKVas_e9_Z7AcsywtKQXzwgNLZDq-oRzoHDu182mv93u2re8wI2OPTbVcDSYO9Ry043mSyCu1hLPYrSEJrYomBdArnTBY_J2eicsQFgowSuibzT4iSdEJwdvpZR6aVXkIGesJwd8Ck22PPWJ05j_8xGCsY2f_WP2Q70VKc2okn-EvYwG6j12sDUnjm9LjuRT1Whr5QcTzzk9e_3ss9yVtrxKqo6JxFPT7WtpB9JAxtv-Lg8tABt5LGgLvXzZKAd6iMwhL4RPPSiRABTF1zPGp4PF5kZJC2hF8zuRo-R3x8RIgWfuK19JjVxr-Z_M47QvDUyFg27CpXhWOktmE00n7UUBw3hj1-n_X5o4P4t1jF8yvdnWRO8GjyhGqBmWB9xsL8Gzg-6q-Z1gd8gNQycndQsR6UgI5bjg8_3RJjBBEtMG3JNLJfuJ-dXC1w4IvOa1V-3r46IAgIRJVvBwBoZ2VOiK_TZzsADPhzuXwqr7WynIytqyINf_d6bqAhAeZoIhsn0pKq3rVtJQPz_pUoodsgfFm00]--></g></svg>