<svg xmlns="http://www.w3.org/2000/svg" xmlns:xlink="http://www.w3.org/1999/xlink" contentStyleType="text/css" data-diagram-type="STATE" height="917px" preserveAspectRatio="none" style="width:450px;height:917px;background:#FFFFFF;" version="1.1" viewBox="0 0 450 917" width="450px" zoomAndPan="magnify"><title>Detalle Caso de Uso Abrir Newton Cotes Cerrado n=3</title><defs/><g><g class="title" data-source-line="12"><text fill="#000000" font-family="sans-serif" font-size="14" font-weight="bold" lengthAdjust="spacing" textLength="420.2529" x="10" y="22.9951">Detalle Caso de Uso Abrir Newton Cotes Cerrado n=3</text></g><path d="M23.6265,204.2969 L366.6265,204.2969 A12.5,12.5 0 0 1 379.1265,216.7969 L379.1265,230.5938 L11.1265,230.5938 L11.1265,216.7969 A12.5,12.5 0 0 1 23.6265,204.2969" fill="#FAF4B4" style="stroke:#FAF4B4;stroke-width:1;"/><rect fill="none" height="485.2969" rx="12.5" ry="12.5" style="stroke:#C90000;stroke-width:0.5;" width="368" x="11.1265" y="204.2969"/><line style="stroke:#C90000;stroke-width:0.5;" x1="11.1265" x2="379.1265" y1="230.5938" y2="230.5938"/><text fill="#000000" font-family="sans-serif" font-size="14" lengthAdjust="spacing" textLength="159.9951" x="115.1289" y="222.292">abrir_newton_cotes_c3</text><g id="abrir_newton_cotes_c3.1"><rect fill="#FAF4B4" height="50" rx="12.5" ry="12.5" style="stroke:#C90000;stroke-width:0.5;" width="50" x="23.1265" y="298.5938"/><line style="stroke:#C90000;stroke-width:0.5;" x1="23.1265" x2="73.1265" y1="324.8906" y2="324.8906"/><text fill="#000000" font-family="sans-serif" font-size="14" lengthAdjust="spacing" textLength="4.4502" x="45.9014" y="316.5889">&#160;</text></g><g id="abrir_newton_cotes_c3.2"><rect fill="#FAF4B4" height="50" rx="12.5" ry="12.5" style="stroke:#C90000;stroke-width:0.5;" width="50" x="23.1265" y="434.5938"/><line style="stroke:#C90000;stroke-width:0.5;" x1="23.1265" x2="73.1265" y1="460.8906" y2="460.8906"/><text fill="#000000" font-family="sans-serif" font-size="14" lengthAdjust="spacing" textLength="4.4502" x="45.9014" y="452.5889">&#160;</text></g><g id="abrir_newton_cotes_c3.3"><rect fill="#FAF4B4" height="50" rx="12.5" ry="12.5" style="stroke:#C90000;stroke-width:0.5;" width="50" x="23.1265" y="570.5938"/><line style="stroke:#C90000;stroke-width:0.5;" x1="23.1265" x2="73.1265" y1="596.8906" y2="596.8906"/><text fill="#000000" font-family="sans-serif" font-size="14" lengthAdjust="spacing" textLength="4.4502" x="45.9014" y="588.5889">&#160;</text></g><ellipse cx="48.1265" cy="251.5938" fill="#222222" rx="10" ry="10" style="stroke:#222222;stroke-width:1;"/><ellipse cx="48.1265" cy="668.5938" fill="none" rx="11" ry="11" style="stroke:#222222;stroke-width:1;"/><ellipse cx="48.1265" cy="668.5938" fill="#222222" rx="6" ry="6" style="stroke:#222222;stroke-width:1;"/><!--link *start*abrir_newton_cotes_c3 to 1--><g class="link" data-entity-1="*start*abrir_newton_cotes_c3" data-entity-2="1" data-source-line="26" data-uid="lnk5" id="link_*start*abrir_newton_cotes_c3_1"><path d="M48.1265,262.0338 C48.1265,271.2938 48.1265,279.7838 48.1265,292.2738" fill="none" id="*start*abrir_newton_cotes_c3-to-1" style="stroke:#008000;stroke-width:1;"/><polygon fill="#008000" points="48.1265,298.2738,52.1265,289.2738,48.1265,293.2738,44.1265,289.2738,48.1265,298.2738" style="stroke:#008000;stroke-width:1;"/></g><!--link 1 to 2--><g class="link" data-entity-1="1" data-entity-2="2" data-source-line="27" data-uid="lnk6" id="link_1_2"><path d="M48.1265,348.8638 C48.1265,373.1438 48.1265,404.2838 48.1265,428.5037" fill="none" id="1-to-2" style="stroke:#008000;stroke-width:1;"/><polygon fill="#008000" points="48.1265,434.5037,52.1265,425.5037,48.1265,429.5037,44.1265,425.5037,48.1265,434.5037" style="stroke:#008000;stroke-width:1;"/><path d="M53.1265,371.5938 L53.1265,411.5938 L370.1265,411.5938 L370.1265,381.5938 L360.1265,371.5938 L53.1265,371.5938" fill="#F5F5F5" style="stroke:#181818;stroke-width:0.5;"/><path d="M360.1265,371.5938 L360.1265,381.5938 L370.1265,381.5938 L360.1265,371.5938" fill="#F5F5F5" style="stroke:#181818;stroke-width:0.5;"/><text fill="#000000" font-family="sans-serif" font-size="13" font-weight="bold" lengthAdjust="spacing" textLength="130.9204" x="59.1265" y="388.6606">Sistema requiere:</text><text fill="#000000" font-family="sans-serif" font-size="13" lengthAdjust="spacing" textLength="296.7529" x="59.1265" y="403.7935">- M&#233;todo newton cotes cerrado n=3 conocido</text></g><!--link 2 to 3--><g class="link" data-entity-1="2" data-entity-2="3" data-source-line="32" data-uid="lnk7" id="link_2_3"><path d="M48.1265,484.8638 C48.1265,509.1438 48.1265,540.2838 48.1265,564.5038" fill="none" id="2-to-3" style="stroke:#008000;stroke-width:1;"/><polygon fill="#008000" points="48.1265,570.5038,52.1265,561.5038,48.1265,565.5038,44.1265,561.5038,48.1265,570.5038" style="stroke:#008000;stroke-width:1;"/><path d="M53.1265,507.5938 L53.1265,547.5938 L370.1265,547.5938 L370.1265,517.5938 L360.1265,507.5938 L53.1265,507.5938" fill="#F5F5F5" style="stroke:#181818;stroke-width:0.5;"/><path d="M360.1265,507.5938 L360.1265,517.5938 L370.1265,517.5938 L360.1265,507.5938" fill="#F5F5F5" style="stroke:#181818;stroke-width:0.5;"/><text fill="#000000" font-family="sans-serif" font-size="13" font-weight="bold" lengthAdjust="spacing" textLength="144.1235" x="59.1265" y="524.6606">Usuario Selecciona:</text><text fill="#000000" font-family="sans-serif" font-size="13" lengthAdjust="spacing" textLength="296.7529" x="59.1265" y="539.7935">- M&#233;todo newton cotes cerrado n=3 conocido</text></g><!--link 3 to *end*abrir_newton_cotes_c3--><g class="link" data-entity-1="3" data-entity-2="*end*abrir_newton_cotes_c3" data-source-line="38" data-uid="lnk9" id="link_3_*end*abrir_newton_cotes_c3"><path d="M48.1265,621.0238 C48.1265,633.3838 48.1265,641.7238 48.1265,651.1938" fill="none" id="3-to-*end*abrir_newton_cotes_c3" style="stroke:#008000;stroke-width:1;"/><polygon fill="#008000" points="48.1265,657.1938,52.1265,648.1938,48.1265,652.1938,44.1265,648.1938,48.1265,657.1938" style="stroke:#008000;stroke-width:1;"/></g><g id="DIFERENCIACION_NUMERICA_E_INTEGRACION"><rect fill="#FAF4B4" height="50" rx="12.5" ry="12.5" style="stroke:#C90000;stroke-width:0.5;" width="341.9795" x="24.1365" y="44.2969"/><line style="stroke:#C90000;stroke-width:0.5;" x1="24.1365" x2="366.116" y1="70.5938" y2="70.5938"/><text fill="#000000" font-family="sans-serif" font-size="14" lengthAdjust="spacing" textLength="321.9795" x="34.1365" y="62.292">DIFERENCIACION_NUMERICA_E_INTEGRACION</text></g><g id=":abrirNewtonCotesC3"><rect fill="#FAF4B4" height="50" rx="12.5" ry="12.5" style="stroke:#C90000;stroke-width:0.5;" width="169.4678" x="110.3965" y="750.5969"/><line style="stroke:#C90000;stroke-width:0.5;" x1="110.3965" x2="279.8642" y1="776.8938" y2="776.8938"/><text fill="#000000" font-family="sans-serif" font-size="14" lengthAdjust="spacing" textLength="149.4678" x="120.3965" y="768.592">:abrirNewtonCotesC3</text></g><g id="NEWTON_COTES_C3"><rect fill="#FAF4B4" height="50" rx="12.5" ry="12.5" style="stroke:#C90000;stroke-width:0.5;" width="162.9668" x="113.6465" y="861.5969"/><line style="stroke:#C90000;stroke-width:0.5;" x1="113.6465" x2="276.6133" y1="887.8938" y2="887.8938"/><text fill="#000000" font-family="sans-serif" font-size="14" lengthAdjust="spacing" textLength="142.9668" x="123.6465" y="879.592">NEWTON_COTES_C3</text></g><!--link DIFERENCIACION_NUMERICA_E_INTEGRACION to abrir_newton_cotes_c3--><g class="link" data-entity-1="DIFERENCIACION_NUMERICA_E_INTEGRACION" data-entity-2="abrir_newton_cotes_c3" data-source-line="15" data-uid="lnk3" id="link_DIFERENCIACION_NUMERICA_E_INTEGRACION_abrir_newton_cotes_c3"><path d="M195.1265,94.6569 C195.1265,119.0469 195.1265,153.2969 195.1265,198.0169" fill="none" id="DIFERENCIACION_NUMERICA_E_INTEGRACION-to-abrir_newton_cotes_c3" style="stroke:#008000;stroke-width:1;"/><polygon fill="#008000" points="195.1265,204.0169,199.1265,195.0169,195.1265,199.0169,191.1265,195.0169,195.1265,204.0169" style="stroke:#008000;stroke-width:1;"/><path d="M200.1265,129.2969 L200.1265,169.2969 L443.1265,169.2969 L443.1265,139.2969 L433.1265,129.2969 L200.1265,129.2969" fill="#F5F5F5" style="stroke:#181818;stroke-width:0.5;"/><path d="M433.1265,129.2969 L433.1265,139.2969 L443.1265,139.2969 L433.1265,129.2969" fill="#F5F5F5" style="stroke:#181818;stroke-width:0.5;"/><text fill="#000000" font-family="sans-serif" font-size="13" font-weight="bold" lengthAdjust="spacing" textLength="118.5742" x="206.1265" y="146.3638">Usuario solicita:</text><text fill="#000000" font-family="sans-serif" font-size="13" lengthAdjust="spacing" textLength="222.6821" x="206.1265" y="161.4966">- Abrir Newton Cotes Cerrado n=3</text></g><!--link abrir_newton_cotes_c3 to :abrirNewtonCotesC3--><g class="link" data-entity-1="abrir_newton_cotes_c3" data-entity-2=":abrirNewtonCotesC3" data-source-line="41" data-uid="lnk11" id="link_abrir_newton_cotes_c3_:abrirNewtonCotesC3"><path d="M195.1265,690.0569 C195.1265,714.2169 195.1265,729.3469 195.1265,744.4469" fill="none" id="abrir_newton_cotes_c3-to-:abrirNewtonCotesC3" style="stroke:#008000;stroke-width:1;"/><polygon fill="#008000" points="195.1265,750.4469,199.1265,741.4469,195.1265,745.4469,191.1265,741.4469,195.1265,750.4469" style="stroke:#008000;stroke-width:1;"/></g><!--link :abrirNewtonCotesC3 to NEWTON_COTES_C3--><g class="link" data-entity-1=":abrirNewtonCotesC3" data-entity-2="NEWTON_COTES_C3" data-source-line="43" data-uid="lnk13" id="link_:abrirNewtonCotesC3_NEWTON_COTES_C3"><path d="M195.1265,801.0569 C195.1265,819.0069 195.1265,837.2869 195.1265,855.2169" fill="none" id=":abrirNewtonCotesC3-to-NEWTON_COTES_C3" style="stroke:#008000;stroke-width:1;"/><polygon fill="#008000" points="195.1265,861.2169,199.1265,852.2169,195.1265,856.2169,191.1265,852.2169,195.1265,861.2169" style="stroke:#008000;stroke-width:1;"/></g><!--SRC=[dLBRQW8n47tFLmpsRK6ehdseq8ADsx8Fhk25FeWiCJjAS4ri4YbI-a7zZlvO9slh3KkXimiX9vCvSqx6BPLU2ojMuBpm26yCu478vSAQZIwuAOs5gxcOjsQjS69iWVORbRVN5EoTCRSleislDMx2TvfTAer-kqPOct8RDenvvKk4BdfHqig5Cr0WZ6dfpAooaE6hDneuyJZWQAqe3EYxc37MJH-JGPBnjCFJVfPduruoI7adJ_8q6oLFWmgkJwuM5b5Fw_SWGiLSLnLp6IhcCcQL1AAWVfOa98h6RYEiCk1CgQJoeXr5XDV_QWXrKTb1WYjdBx85gtR73H0EQb3R0yrp83u0z4-YAHoBQH3ME46QX9o92H55G-KyhWHOVDaejBWJ5A8ElSyFRuA2dQogJv07MOHe8rLXwCPU8L2pnypn9UQ3aKCiKKfbjFXX_YylRU8JPd8bZDX5hu_psbN6xksgf-CqGHV0upjPyZoYkUBzKJBCUVm5]--></g></svg>