<svg xmlns="http://www.w3.org/2000/svg" xmlns:xlink="http://www.w3.org/1999/xlink" contentStyleType="text/css" data-diagram-type="STATE" height="917px" preserveAspectRatio="none" style="width:399px;height:917px;background:#FFFFFF;" version="1.1" viewBox="0 0 399 917" width="399px" zoomAndPan="magnify"><title>Detalle Caso de Uso Abrir Extremo de 5 Puntos</title><defs/><g><g class="title" data-source-line="12"><text fill="#000000" font-family="sans-serif" font-size="14" font-weight="bold" lengthAdjust="spacing" textLength="371.3008" x="10" y="22.9951">Detalle Caso de Uso Abrir Extremo de 5 Puntos</text></g><path d="M31.6454,204.2969 L338.6454,204.2969 A12.5,12.5 0 0 1 351.1454,216.7969 L351.1454,230.5938 L19.1454,230.5938 L19.1454,216.7969 A12.5,12.5 0 0 1 31.6454,204.2969" fill="#FAF4B4"/><rect fill="none" height="485.2969" rx="12.5" ry="12.5" style="stroke:#C90000;stroke-width:0.5;" width="332" x="19.1454" y="204.2969"/><line style="stroke:#C90000;stroke-width:0.5;" x1="19.1454" x2="351.1454" y1="230.5938" y2="230.5938"/><text fill="#000000" font-family="sans-serif" font-size="14" lengthAdjust="spacing" textLength="169.7158" x="100.2875" y="222.292">abrir_extremo_5_puntos</text><g id="abrir_extremo_5_puntos.1"><rect fill="#FAF4B4" height="50" rx="12.5" ry="12.5" style="stroke:#C90000;stroke-width:0.5;" width="50" x="31.1454" y="298.5938"/><line style="stroke:#C90000;stroke-width:0.5;" x1="31.1454" x2="81.1454" y1="324.8906" y2="324.8906"/><text fill="#000000" font-family="sans-serif" font-size="14" lengthAdjust="spacing" textLength="4.4502" x="53.9203" y="316.5889">&#160;</text></g><g id="abrir_extremo_5_puntos.2"><rect fill="#FAF4B4" height="50" rx="12.5" ry="12.5" style="stroke:#C90000;stroke-width:0.5;" width="50" x="31.1454" y="434.5938"/><line style="stroke:#C90000;stroke-width:0.5;" x1="31.1454" x2="81.1454" y1="460.8906" y2="460.8906"/><text fill="#000000" font-family="sans-serif" font-size="14" lengthAdjust="spacing" textLength="4.4502" x="53.9203" y="452.5889">&#160;</text></g><g id="abrir_extremo_5_puntos.3"><rect fill="#FAF4B4" height="50" rx="12.5" ry="12.5" style="stroke:#C90000;stroke-width:0.5;" width="50" x="31.1454" y="570.5938"/><line style="stroke:#C90000;stroke-width:0.5;" x1="31.1454" x2="81.1454" y1="596.8906" y2="596.8906"/><text fill="#000000" font-family="sans-serif" font-size="14" lengthAdjust="spacing" textLength="4.4502" x="53.9203" y="588.5889">&#160;</text></g><ellipse cx="56.1454" cy="251.5938" fill="#222222" rx="10" ry="10" style="stroke:#222222;stroke-width:1;"/><ellipse cx="56.1454" cy="668.5938" fill="none" rx="11" ry="11" style="stroke:#222222;stroke-width:1;"/><ellipse cx="56.1454" cy="668.5938" fill="#222222" rx="6" ry="6" style="stroke:#222222;stroke-width:1;"/><!--link *start*abrir_extremo_5_puntos to 1--><g class="link" data-entity-1=".start.abrir_extremo_5_puntos" data-entity-2="1" data-source-line="26" data-uid="lnk5" id="link_.start.abrir_extremo_5_puntos_1"><path d="M56.1454,262.0338 C56.1454,271.2938 56.1454,279.7838 56.1454,292.2738" fill="none" id="*start*abrir_extremo_5_puntos-to-1" style="stroke:#008000;stroke-width:1;"/><polygon fill="#008000" points="56.1454,298.2738,60.1454,289.2738,56.1454,293.2738,52.1454,289.2738,56.1454,298.2738" style="stroke:#008000;stroke-width:1;"/></g><!--link 1 to 2--><g class="link" data-entity-1="1" data-entity-2="2" data-source-line="27" data-uid="lnk6" id="link_1_2"><path d="M56.1454,348.8638 C56.1454,373.1438 56.1454,404.2838 56.1454,428.5037" fill="none" id="1-to-2" style="stroke:#008000;stroke-width:1;"/><polygon fill="#008000" points="56.1454,434.5037,60.1454,425.5037,56.1454,429.5037,52.1454,425.5037,56.1454,434.5037" style="stroke:#008000;stroke-width:1;"/><path d="M61.1454,371.5938 L61.1454,411.5938 L342.1454,411.5938 L342.1454,381.5938 L332.1454,371.5938 L61.1454,371.5938" fill="#F5F5F5" style="stroke:#181818;stroke-width:0.5;"/><path d="M332.1454,371.5938 L332.1454,381.5938 L342.1454,381.5938 L332.1454,371.5938" fill="#F5F5F5" style="stroke:#181818;stroke-width:0.5;"/><text fill="#000000" font-family="sans-serif" font-size="13" font-weight="bold" lengthAdjust="spacing" textLength="130.9204" x="67.1454" y="388.6606">Sistema requiere:</text><text fill="#000000" font-family="sans-serif" font-size="13" lengthAdjust="spacing" textLength="260.0381" x="67.1454" y="403.7935">- M&#233;todo extremo de 5 puntos conocido</text></g><!--link 2 to 3--><g class="link" data-entity-1="2" data-entity-2="3" data-source-line="32" data-uid="lnk7" id="link_2_3"><path d="M56.1454,484.8638 C56.1454,509.1438 56.1454,540.2838 56.1454,564.5038" fill="none" id="2-to-3" style="stroke:#008000;stroke-width:1;"/><polygon fill="#008000" points="56.1454,570.5038,60.1454,561.5038,56.1454,565.5038,52.1454,561.5038,56.1454,570.5038" style="stroke:#008000;stroke-width:1;"/><path d="M61.1454,507.5938 L61.1454,547.5938 L342.1454,547.5938 L342.1454,517.5938 L332.1454,507.5938 L61.1454,507.5938" fill="#F5F5F5" style="stroke:#181818;stroke-width:0.5;"/><path d="M332.1454,507.5938 L332.1454,517.5938 L342.1454,517.5938 L332.1454,507.5938" fill="#F5F5F5" style="stroke:#181818;stroke-width:0.5;"/><text fill="#000000" font-family="sans-serif" font-size="13" font-weight="bold" lengthAdjust="spacing" textLength="139.5596" x="67.1454" y="524.6606">Cliente Selecciona:</text><text fill="#000000" font-family="sans-serif" font-size="13" lengthAdjust="spacing" textLength="260.0381" x="67.1454" y="539.7935">- M&#233;todo extremo de 5 puntos conocido</text></g><!--link 3 to *end*abrir_extremo_5_puntos--><g class="link" data-entity-1="3" data-entity-2=".end.abrir_extremo_5_puntos" data-source-line="38" data-uid="lnk9" id="link_3_.end.abrir_extremo_5_puntos"><path d="M56.1454,621.0238 C56.1454,633.3838 56.1454,641.7238 56.1454,651.1938" fill="none" id="3-to-*end*abrir_extremo_5_puntos" style="stroke:#008000;stroke-width:1;"/><polygon fill="#008000" points="56.1454,657.1938,60.1454,648.1938,56.1454,652.1938,52.1454,648.1938,56.1454,657.1938" style="stroke:#008000;stroke-width:1;"/></g><g id="DIFERENCIACION_NUMERICA_E_INTEGRACION"><rect fill="#FAF4B4" height="50" rx="12.5" ry="12.5" style="stroke:#C90000;stroke-width:0.5;" width="341.9795" x="14.1554" y="44.2969"/><line style="stroke:#C90000;stroke-width:0.5;" x1="14.1554" x2="356.1349" y1="70.5938" y2="70.5938"/><text fill="#000000" font-family="sans-serif" font-size="14" lengthAdjust="spacing" textLength="321.9795" x="24.1554" y="62.292">DIFERENCIACION_NUMERICA_E_INTEGRACION</text></g><g id=".abrirExtremo5Puntos"><rect fill="#FAF4B4" height="50" rx="12.5" ry="12.5" style="stroke:#C90000;stroke-width:0.5;" width="173.2207" x="98.5354" y="750.5969"/><line style="stroke:#C90000;stroke-width:0.5;" x1="98.5354" x2="271.7561" y1="776.8938" y2="776.8938"/><text fill="#000000" font-family="sans-serif" font-size="14" lengthAdjust="spacing" textLength="153.2207" x="108.5354" y="768.592">:abrirExtremo5Puntos</text></g><g id="EXTREMO_5_PUNTOS"><rect fill="#FAF4B4" height="50" rx="12.5" ry="12.5" style="stroke:#C90000;stroke-width:0.5;" width="169.1875" x="100.5554" y="861.5969"/><line style="stroke:#C90000;stroke-width:0.5;" x1="100.5554" x2="269.7429" y1="887.8938" y2="887.8938"/><text fill="#000000" font-family="sans-serif" font-size="14" lengthAdjust="spacing" textLength="149.1875" x="110.5554" y="879.592">EXTREMO_5_PUNTOS</text></g><!--link DIFERENCIACION_NUMERICA_E_INTEGRACION to abrir_extremo_5_puntos--><g class="link" data-entity-1="DIFERENCIACION_NUMERICA_E_INTEGRACION" data-entity-2="abrir_extremo_5_puntos" data-source-line="15" data-uid="lnk3" id="link_DIFERENCIACION_NUMERICA_E_INTEGRACION_abrir_extremo_5_puntos"><path d="M185.1454,94.6569 C185.1454,119.0469 185.1454,153.2969 185.1454,198.0169" fill="none" id="DIFERENCIACION_NUMERICA_E_INTEGRACION-to-abrir_extremo_5_puntos" style="stroke:#008000;stroke-width:1;"/><polygon fill="#008000" points="185.1454,204.0169,189.1454,195.0169,185.1454,199.0169,181.1454,195.0169,185.1454,204.0169" style="stroke:#008000;stroke-width:1;"/><path d="M190.1454,129.2969 L190.1454,169.2969 L391.1454,169.2969 L391.1454,139.2969 L381.1454,129.2969 L190.1454,129.2969" fill="#F5F5F5" style="stroke:#181818;stroke-width:0.5;"/><path d="M381.1454,129.2969 L381.1454,139.2969 L391.1454,139.2969 L381.1454,129.2969" fill="#F5F5F5" style="stroke:#181818;stroke-width:0.5;"/><text fill="#000000" font-family="sans-serif" font-size="13" font-weight="bold" lengthAdjust="spacing" textLength="114.0103" x="196.1454" y="146.3638">Cliente solicita:</text><text fill="#000000" font-family="sans-serif" font-size="13" lengthAdjust="spacing" textLength="180.4258" x="196.1454" y="161.4966">- Abrir Extremo de 5 Puntos</text></g><!--link abrir_extremo_5_puntos to :abrirExtremo5Puntos--><g class="link" data-entity-1="abrir_extremo_5_puntos" data-entity-2=".abrirExtremo5Puntos" data-source-line="41" data-uid="lnk11" id="link_abrir_extremo_5_puntos_.abrirExtremo5Puntos"><path d="M185.1454,690.0569 C185.1454,714.2169 185.1454,729.3469 185.1454,744.4469" fill="none" id="abrir_extremo_5_puntos-to-:abrirExtremo5Puntos" style="stroke:#008000;stroke-width:1;"/><polygon fill="#008000" points="185.1454,750.4469,189.1454,741.4469,185.1454,745.4469,181.1454,741.4469,185.1454,750.4469" style="stroke:#008000;stroke-width:1;"/></g><!--link :abrirExtremo5Puntos to EXTREMO_5_PUNTOS--><g class="link" data-entity-1=".abrirExtremo5Puntos" data-entity-2="EXTREMO_5_PUNTOS" data-source-line="43" data-uid="lnk13" id="link_.abrirExtremo5Puntos_EXTREMO_5_PUNTOS"><path d="M185.1454,801.0569 C185.1454,819.0069 185.1454,837.2869 185.1454,855.2169" fill="none" id=":abrirExtremo5Puntos-to-EXTREMO_5_PUNTOS" style="stroke:#008000;stroke-width:1;"/><polygon fill="#008000" points="185.1454,861.2169,189.1454,852.2169,185.1454,856.2169,181.1454,852.2169,185.1454,861.2169" style="stroke:#008000;stroke-width:1;"/></g><!--SRC=[dL9TQy8m57tFhxZCjq9XVlHXFWnSpKOVh58L1Y8bjbS9rgHB8qp6Vj1-n_xOajQFAjqUTbi8ERazvvxJ55ikSgRO3WhDDC870NXYoNQZv5walioaWjQQhNkhdZsHAaLrH9E7UrFaav3YJ2BahnoUVQwxCovG7tA4N6O7ko54SvqX356ppAm-AoIa27Ep35QAAw3lMk6k13sOx8MM1I5a63pJY8P-CF23SHY7yn6D0dyGqpW8P_GbAc5tqTeeHB5q7u5PiXWhijYByugf75yAEzZMc70SF-Ce35R8Z2TSixxZ6DpzOnWKQPc2yLa6sgna8whEsy0Ak8ExCz2v1ReNmBmBPmbr9ss3jQ-GZa5kZDXod2alDEuOA7pRSrHOcR7bmkZxIyjK0jOjLRD28eLCU2fDyzaTc3dhejqcqKj-KymmIRWKx2Jw3qcpwLw9cYpiXMgEkDxOBrkElyixNPicjFuLVPr5T3GsZ9DvE1jFVm00]--></g></svg>