<svg xmlns="http://www.w3.org/2000/svg" xmlns:xlink="http://www.w3.org/1999/xlink" contentStyleType="text/css" data-diagram-type="STATE" height="988px" preserveAspectRatio="none" style="width:533px;height:988px;background:#FFFFFF;" version="1.1" viewBox="0 0 533 988" width="533px" zoomAndPan="magnify"><title>Detalle Caso de Uso Crear Operaci&#243;n Integral Doble de Simpson</title><defs/><g><g class="title" data-source-line="14"><text fill="#000000" font-family="sans-serif" font-size="14" font-weight="bold" lengthAdjust="spacing" textLength="505.2168" x="10" y="22.9951">Detalle Caso de Uso Crear Operaci&#243;n Integral Doble de Simpson</text></g><g id="INTEGRAL_DOBLE_SIMPSON"><rect fill="#FAF4B4" height="50" rx="12.5" ry="12.5" style="stroke:#C90000;stroke-width:0.5;" width="215.918" x="248.5034" y="44.2969"/><line style="stroke:#C90000;stroke-width:0.5;" x1="248.5034" x2="464.4213" y1="70.5938" y2="70.5938"/><text fill="#000000" font-family="sans-serif" font-size="14" lengthAdjust="spacing" textLength="195.918" x="258.5034" y="62.292">INTEGRAL_DOBLE_SIMPSON</text></g><path d="M28.9634,204.2969 L421.9634,204.2969 A12.5,12.5 0 0 1 434.4634,216.7969 L434.4634,230.5938 L16.4634,230.5938 L16.4634,216.7969 A12.5,12.5 0 0 1 28.9634,204.2969" fill="#FAF4B4"/><rect fill="none" height="667.2969" rx="12.5" ry="12.5" style="stroke:#C90000;stroke-width:0.5;" width="418" x="16.4634" y="204.2969"/><line style="stroke:#C90000;stroke-width:0.5;" x1="16.4634" x2="434.4634" y1="230.5938" y2="230.5938"/><text fill="#000000" font-family="sans-serif" font-size="14" lengthAdjust="spacing" textLength="208.6602" x="121.1333" y="222.292">crear_integral_doble_simpson</text><g id="crear_integral_doble_simpson.1"><rect fill="#FAF4B4" height="50" rx="12.5" ry="12.5" style="stroke:#C90000;stroke-width:0.5;" width="50" x="166.4634" y="298.5938"/><line style="stroke:#C90000;stroke-width:0.5;" x1="166.4634" x2="216.4634" y1="324.8906" y2="324.8906"/><text fill="#000000" font-family="sans-serif" font-size="14" lengthAdjust="spacing" textLength="4.4502" x="189.2383" y="316.5889">&#160;</text></g><g id="crear_integral_doble_simpson.2"><rect fill="#FAF4B4" height="50" rx="12.5" ry="12.5" style="stroke:#C90000;stroke-width:0.5;" width="50" x="28.4634" y="525.5938"/><line style="stroke:#C90000;stroke-width:0.5;" x1="28.4634" x2="78.4634" y1="551.8906" y2="551.8906"/><text fill="#000000" font-family="sans-serif" font-size="14" lengthAdjust="spacing" textLength="4.4502" x="51.2383" y="543.5889">&#160;</text></g><g id="crear_integral_doble_simpson.3"><rect fill="#FAF4B4" height="50" rx="12.5" ry="12.5" style="stroke:#C90000;stroke-width:0.5;" width="50" x="161.4634" y="752.5938"/><line style="stroke:#C90000;stroke-width:0.5;" x1="161.4634" x2="211.4634" y1="778.8906" y2="778.8906"/><text fill="#000000" font-family="sans-serif" font-size="14" lengthAdjust="spacing" textLength="4.4502" x="184.2383" y="770.5889">&#160;</text></g><ellipse cx="191.4634" cy="251.5938" fill="#222222" rx="10" ry="10" style="stroke:#222222;stroke-width:1;"/><ellipse cx="186.4634" cy="850.5938" fill="none" rx="11" ry="11" style="stroke:#222222;stroke-width:1;"/><ellipse cx="186.4634" cy="850.5938" fill="#222222" rx="6" ry="6" style="stroke:#222222;stroke-width:1;"/><!--link *start*crear_integral_doble_simpson to 1--><g class="link" data-entity-1=".start.crear_integral_doble_simpson" data-entity-2="1" data-source-line="29" data-uid="lnk4" id="link_.start.crear_integral_doble_simpson_1"><path d="M191.4634,262.0338 C191.4634,271.2938 191.4634,279.7838 191.4634,292.2737" fill="none" id="*start*crear_integral_doble_simpson-to-1" style="stroke:#008000;stroke-width:1;"/><polygon fill="#008000" points="191.4634,298.2737,195.4634,289.2737,191.4634,293.2737,187.4634,289.2737,191.4634,298.2737" style="stroke:#008000;stroke-width:1;"/></g><!--link 1 to 2--><g class="link" data-entity-1="1" data-entity-2="2" data-source-line="30" data-uid="lnk5" id="link_1_2"><path d="M166.0634,332.9938 C129.0034,345.2537 64.4634,366.5938 64.4634,366.5938 C64.4634,366.5938 58.2731,469.5245 55.2831,519.3045" fill="none" id="1-to-2" style="stroke:#008000;stroke-width:1;"/><polygon fill="#008000" points="54.9234,525.2938,59.4558,516.5498,55.2231,520.3027,51.4702,516.0701,54.9234,525.2938" style="stroke:#008000;stroke-width:1;"/><path d="M69.4634,371.5938 L69.4634,502.5938 L310.4634,502.5938 L310.4634,381.5938 L300.4634,371.5938 L69.4634,371.5938" fill="#F5F5F5" style="stroke:#181818;stroke-width:0.5;"/><path d="M300.4634,371.5938 L300.4634,381.5938 L310.4634,381.5938 L300.4634,371.5938" fill="#F5F5F5" style="stroke:#181818;stroke-width:0.5;"/><text fill="#000000" font-family="sans-serif" font-size="13" font-weight="bold" lengthAdjust="spacing" textLength="220.5874" x="75.4634" y="388.6606">Sistema requiere Par&#225;metros:</text><text fill="#000000" font-family="sans-serif" font-size="13" lengthAdjust="spacing" textLength="56.8306" x="75.4634" y="403.7935">- funcion</text><text fill="#000000" font-family="sans-serif" font-size="13" lengthAdjust="spacing" textLength="16.7896" x="75.4634" y="418.9263">- a</text><text fill="#000000" font-family="sans-serif" font-size="13" lengthAdjust="spacing" textLength="17.0752" x="75.4634" y="434.0591">- b</text><text fill="#000000" font-family="sans-serif" font-size="13" lengthAdjust="spacing" textLength="50.6733" x="75.4634" y="449.1919">- c_func</text><text fill="#000000" font-family="sans-serif" font-size="13" lengthAdjust="spacing" textLength="51.7778" x="75.4634" y="464.3247">- d_func</text><text fill="#000000" font-family="sans-serif" font-size="13" lengthAdjust="spacing" textLength="17.0625" x="75.4634" y="479.4575">- n</text><text fill="#000000" font-family="sans-serif" font-size="13" lengthAdjust="spacing" textLength="21.4868" x="75.4634" y="494.5903">- m</text></g><!--link 2 to 3--><g class="link" data-entity-1="2" data-entity-2="3" data-source-line="41" data-uid="lnk6" id="link_2_3"><path d="M48.8134,576.0238 C47.0534,585.2638 45.4634,593.5938 45.4634,593.5938 C45.4634,593.5938 45.4634,734.5938 45.4634,734.5938 C45.4634,734.5938 114.9531,755.2907 155.5031,767.3707" fill="none" id="2-to-3" style="stroke:#008000;stroke-width:1;"/><polygon fill="#008000" points="161.2534,769.0838,153.77,762.6807,156.4615,767.6562,151.4859,770.3477,161.2534,769.0838" style="stroke:#008000;stroke-width:1;"/><path d="M50.4634,598.5938 L50.4634,729.5938 L310.4634,729.5938 L310.4634,608.5938 L300.4634,598.5938 L50.4634,598.5938" fill="#F5F5F5" style="stroke:#181818;stroke-width:0.5;"/><path d="M300.4634,598.5938 L300.4634,608.5938 L310.4634,608.5938 L300.4634,598.5938" fill="#F5F5F5" style="stroke:#181818;stroke-width:0.5;"/><text fill="#000000" font-family="sans-serif" font-size="13" font-weight="bold" lengthAdjust="spacing" textLength="239.5859" x="56.4634" y="615.6606">Cliente Proporciona Par&#225;metros:</text><text fill="#000000" font-family="sans-serif" font-size="13" lengthAdjust="spacing" textLength="56.8306" x="64.728" y="630.7935">- funcion</text><text fill="#000000" font-family="sans-serif" font-size="13" lengthAdjust="spacing" textLength="16.7896" x="64.728" y="645.9263">- a</text><text fill="#000000" font-family="sans-serif" font-size="13" lengthAdjust="spacing" textLength="17.0752" x="64.728" y="661.0591">- b</text><text fill="#000000" font-family="sans-serif" font-size="13" lengthAdjust="spacing" textLength="50.6733" x="64.728" y="676.1919">- c_func</text><text fill="#000000" font-family="sans-serif" font-size="13" lengthAdjust="spacing" textLength="51.7778" x="64.728" y="691.3247">- d_func</text><text fill="#000000" font-family="sans-serif" font-size="13" lengthAdjust="spacing" textLength="17.0625" x="64.728" y="706.4575">- n</text><text fill="#000000" font-family="sans-serif" font-size="13" lengthAdjust="spacing" textLength="21.4868" x="64.728" y="721.5903">- m</text></g><!--link 3 to 1--><g class="link" data-entity-1="3" data-entity-2="1" data-source-line="52" data-uid="lnk7" id="link_3_1"><path d="M211.9534,768.2938 C249.5434,756.0538 315.4634,734.5938 315.4634,734.5938 C315.4634,734.5938 315.4634,366.5938 315.4634,366.5938 C315.4634,366.5938 258.8162,347.4088 222.5362,335.1188" fill="none" id="3-to-1" style="stroke:#FF0000;stroke-width:1;"/><polygon fill="#FF0000" points="216.8534,333.1938,224.0942,339.8699,221.589,334.798,226.6609,332.2928,216.8534,333.1938" style="stroke:#FF0000;stroke-width:1;"/><path d="M320.4634,530.5938 L320.4634,570.5938 L425.4634,570.5938 L425.4634,540.5938 L415.4634,530.5938 L320.4634,530.5938" fill="#F5F5F5" style="stroke:#181818;stroke-width:0.5;"/><path d="M415.4634,530.5938 L415.4634,540.5938 L425.4634,540.5938 L415.4634,530.5938" fill="#F5F5F5" style="stroke:#181818;stroke-width:0.5;"/><text fill="#000000" font-family="sans-serif" font-size="13" lengthAdjust="spacing" textLength="80.0186" x="326.4634" y="547.6606">[Par&#225;metros</text><text fill="#000000" font-family="sans-serif" font-size="13" lengthAdjust="spacing" textLength="63.0068" x="334.728" y="562.7935">Inv&#225;lidos]</text></g><!--link 3 to *end*crear_integral_doble_simpson--><g class="link" data-entity-1="3" data-entity-2=".end.crear_integral_doble_simpson" data-source-line="57" data-uid="lnk9" id="link_3_.end.crear_integral_doble_simpson"><path d="M186.4634,803.0238 C186.4634,815.3838 186.4634,823.7238 186.4634,833.1938" fill="none" id="3-to-*end*crear_integral_doble_simpson" style="stroke:#008000;stroke-width:1;"/><polygon fill="#008000" points="186.4634,839.1938,190.4634,830.1938,186.4634,834.1938,182.4634,830.1938,186.4634,839.1938" style="stroke:#008000;stroke-width:1;"/></g><g id=".calcularResultadoIntegralDobleSimpson"><rect fill="#FAF4B4" height="50" rx="12.5" ry="12.5" style="stroke:#C90000;stroke-width:0.5;" width="304.5801" x="218.1734" y="932.5969"/><line style="stroke:#C90000;stroke-width:0.5;" x1="218.1734" x2="522.7534" y1="958.8938" y2="958.8938"/><text fill="#000000" font-family="sans-serif" font-size="14" lengthAdjust="spacing" textLength="284.5801" x="228.1734" y="950.592">:calcularResultadoIntegralDobleSimpson</text></g><!--link INTEGRAL_DOBLE_SIMPSON to crear_integral_doble_simpson--><g class="link" data-entity-1="INTEGRAL_DOBLE_SIMPSON" data-entity-2="crear_integral_doble_simpson" data-source-line="18" data-uid="lnk2" id="link_INTEGRAL_DOBLE_SIMPSON_crear_integral_doble_simpson"><path d="M282.5934,94.7769 C239.4634,109.0569 193.4634,124.2969 193.4634,124.2969 C193.4634,124.2969 193.4634,174.2969 193.4634,174.2969 C193.4634,174.2969 193.9259,179.5301 195.5559,198.0001" fill="none" id="INTEGRAL_DOBLE_SIMPSON-to-crear_integral_doble_simpson" style="stroke:#008000;stroke-width:1;"/><polygon fill="#008000" points="196.0834,203.9769,199.2767,194.6601,195.6438,198.9962,191.3077,195.3634,196.0834,203.9769" style="stroke:#008000;stroke-width:1;"/><path d="M198.4634,129.2969 L198.4634,169.2969 L485.4634,169.2969 L485.4634,139.2969 L475.4634,129.2969 L198.4634,129.2969" fill="#F5F5F5" style="stroke:#181818;stroke-width:0.5;"/><path d="M475.4634,129.2969 L475.4634,139.2969 L485.4634,139.2969 L475.4634,129.2969" fill="#F5F5F5" style="stroke:#181818;stroke-width:0.5;"/><text fill="#000000" font-family="sans-serif" font-size="13" font-weight="bold" lengthAdjust="spacing" textLength="114.0103" x="204.4634" y="146.3638">Cliente solicita:</text><text fill="#000000" font-family="sans-serif" font-size="13" lengthAdjust="spacing" textLength="266.0049" x="204.4634" y="161.4966">- Crear operaci&#243;n integral doble simpson</text></g><!--link crear_integral_doble_simpson to :calcularResultadoIntegralDobleSimpson--><g class="link" data-entity-1="crear_integral_doble_simpson" data-entity-2=".calcularResultadoIntegralDobleSimpson" data-source-line="61" data-uid="lnk11" id="link_crear_integral_doble_simpson_.calcularResultadoIntegralDobleSimpson"><path d="M341.1234,872.0769 C349.6034,896.4969 354.8776,911.688 360.0376,926.568" fill="none" id="crear_integral_doble_simpson-to-:calcularResultadoIntegralDobleSimpson" style="stroke:#008000;stroke-width:1;"/><polygon fill="#008000" points="362.0034,932.2369,362.8339,922.4231,360.3652,927.5129,355.2754,925.0442,362.0034,932.2369" style="stroke:#008000;stroke-width:1;"/></g><!--link :calcularResultadoIntegralDobleSimpson to INTEGRAL_DOBLE_SIMPSON--><g class="link" data-entity-1=".calcularResultadoIntegralDobleSimpson" data-entity-2="INTEGRAL_DOBLE_SIMPSON" data-source-line="63" data-uid="lnk12" id="link_.calcularResultadoIntegralDobleSimpson_INTEGRAL_DOBLE_SIMPSON"><path d="M393.7434,932.4669 C417.9834,907.3369 452.4634,871.5969 452.4634,871.5969 C452.4634,871.5969 494.4634,174.2969 494.4634,174.2969 C494.4634,174.2969 494.4634,124.2969 494.4634,124.2969 C494.4634,124.2969 461.1012,111.2424 424.5912,96.9624" fill="none" id=":calcularResultadoIntegralDobleSimpson-to-INTEGRAL_DOBLE_SIMPSON" style="stroke:#008000;stroke-width:1;"/><polygon fill="#008000" points="419.0034,94.7769,425.928,101.7804,423.6599,96.5982,428.8421,94.33,419.0034,94.7769" style="stroke:#008000;stroke-width:1;"/></g><!--SRC=[nLF1QXin4BthAuRajc2eu_JG70g97OeXZKtSdenPP6biXBMQxKXR2AKVas_e9_Z7Acrsr-lK3Rb5ko3DszatxqcQG2K4WZM5G0LemwY28IU4tnbNIfO5-203mYy1S2FLRijKEJqcImpd6xcvN5-cByGQkK7LfmznYDzz4aV_vVYOdkDiQno6nnAX9FkO0Y622HPXWa7QE8-b9z08t-CqPfGCin9PAhF_us3g0cvPMfZGEkR6j8KfIb-xghrCxx_TVdculiidivkxstmn_JfVpEw5E8qFbkTRHdIhmMTGgLPkcWAvJWLotx3N7iabzRleDCl6rc1C1K_MA1FaLPP5VD0efeFYbX1gGcW9qUbwurhThrLFU_kSDGJfuGpEEk3Y9J0w0F5TPYleUnn6R7Y4N4JaXRaqicnXVC120kEFoY0Zp2NldmeCJFxPR1e3s5HEfLlLnh9RhRkLobDM5-hZyF1l4LVTna0qrrSwEgNqS11pff8uIP7l87MKf3BgTfF_4RhiQOA6PUf-xf-iqUHN9zWwu_4GHUgXrwv8F_zAIQigA_a1VMM3rDHsJTqqNSEyBQ_FVBg9_W80]--></g></svg>