<svg xmlns="http://www.w3.org/2000/svg" xmlns:xlink="http://www.w3.org/1999/xlink" contentStyleType="text/css" data-diagram-type="STATE" height="896px" preserveAspectRatio="none" style="width:507px;height:896px;background:#FFFFFF;" version="1.1" viewBox="0 0 507 896" width="507px" zoomAndPan="magnify"><title>Detalle Caso de Uso Crear Operaci&#243;n Simpson Compuesta</title><defs/><g><g class="title" data-source-line="14"><text fill="#000000" font-family="sans-serif" font-size="14" font-weight="bold" lengthAdjust="spacing" textLength="456.2988" x="18.687" y="22.9951">Detalle Caso de Uso Crear Operaci&#243;n Simpson Compuesta</text></g><g id="SIMPSON_COMPUESTA"><rect fill="#FAF4B4" height="50" rx="12.5" ry="12.5" style="stroke:#C90000;stroke-width:0.5;" width="178.3408" x="256.83" y="44.2969"/><line style="stroke:#C90000;stroke-width:0.5;" x1="256.83" x2="435.1708" y1="70.5938" y2="70.5938"/><text fill="#000000" font-family="sans-serif" font-size="14" lengthAdjust="spacing" textLength="158.3408" x="266.83" y="62.292">SIMPSON_COMPUESTA</text></g><path d="M19.5,204.2969 L412.5,204.2969 A12.5,12.5 0 0 1 425,216.7969 L425,230.5938 L7,230.5938 L7,216.7969 A12.5,12.5 0 0 1 19.5,204.2969" fill="#FAF4B4"/><rect fill="none" height="575.2969" rx="12.5" ry="12.5" style="stroke:#C90000;stroke-width:0.5;" width="418" x="7" y="204.2969"/><line style="stroke:#C90000;stroke-width:0.5;" x1="7" x2="425" y1="230.5938" y2="230.5938"/><text fill="#000000" font-family="sans-serif" font-size="14" lengthAdjust="spacing" textLength="186.4775" x="122.7612" y="222.292">crear_simpson_compuesta</text><g id="crear_simpson_compuesta.1"><rect fill="#FAF4B4" height="50" rx="12.5" ry="12.5" style="stroke:#C90000;stroke-width:0.5;" width="50" x="157" y="298.5938"/><line style="stroke:#C90000;stroke-width:0.5;" x1="157" x2="207" y1="324.8906" y2="324.8906"/><text fill="#000000" font-family="sans-serif" font-size="14" lengthAdjust="spacing" textLength="4.4502" x="179.7749" y="316.5889">&#160;</text></g><g id="crear_simpson_compuesta.2"><rect fill="#FAF4B4" height="50" rx="12.5" ry="12.5" style="stroke:#C90000;stroke-width:0.5;" width="50" x="19" y="479.5938"/><line style="stroke:#C90000;stroke-width:0.5;" x1="19" x2="69" y1="505.8906" y2="505.8906"/><text fill="#000000" font-family="sans-serif" font-size="14" lengthAdjust="spacing" textLength="4.4502" x="41.7749" y="497.5889">&#160;</text></g><g id="crear_simpson_compuesta.3"><rect fill="#FAF4B4" height="50" rx="12.5" ry="12.5" style="stroke:#C90000;stroke-width:0.5;" width="50" x="152" y="660.5938"/><line style="stroke:#C90000;stroke-width:0.5;" x1="152" x2="202" y1="686.8906" y2="686.8906"/><text fill="#000000" font-family="sans-serif" font-size="14" lengthAdjust="spacing" textLength="4.4502" x="174.7749" y="678.5889">&#160;</text></g><ellipse cx="182" cy="251.5938" fill="#222222" rx="10" ry="10" style="stroke:#222222;stroke-width:1;"/><ellipse cx="177" cy="758.5938" fill="none" rx="11" ry="11" style="stroke:#222222;stroke-width:1;"/><ellipse cx="177" cy="758.5938" fill="#222222" rx="6" ry="6" style="stroke:#222222;stroke-width:1;"/><!--link *start*crear_simpson_compuesta to 1--><g class="link" data-entity-1=".start.crear_simpson_compuesta" data-entity-2="1" data-source-line="29" data-uid="lnk4" id="link_.start.crear_simpson_compuesta_1"><path d="M182,262.0338 C182,271.2938 182,279.7838 182,292.2738" fill="none" id="*start*crear_simpson_compuesta-to-1" style="stroke:#008000;stroke-width:1;"/><polygon fill="#008000" points="182,298.2738,186,289.2738,182,293.2738,178,289.2738,182,298.2738" style="stroke:#008000;stroke-width:1;"/></g><!--link 1 to 2--><g class="link" data-entity-1="1" data-entity-2="2" data-source-line="30" data-uid="lnk5" id="link_1_2"><path d="M156.6,332.9938 C119.54,345.2538 55,366.5938 55,366.5938 C55,366.5938 49.6096,433.7129 46.4496,473.1229" fill="none" id="1-to-2" style="stroke:#008000;stroke-width:1;"/><polygon fill="#008000" points="45.97,479.1038,50.6765,470.4522,46.3696,474.1197,42.7021,469.8128,45.97,479.1038" style="stroke:#008000;stroke-width:1;"/><path d="M60,371.5938 L60,456.5938 L301,456.5938 L301,381.5938 L291,371.5938 L60,371.5938" fill="#F5F5F5" style="stroke:#181818;stroke-width:0.5;"/><path d="M291,371.5938 L291,381.5938 L301,381.5938 L291,371.5938" fill="#F5F5F5" style="stroke:#181818;stroke-width:0.5;"/><text fill="#000000" font-family="sans-serif" font-size="13" font-weight="bold" lengthAdjust="spacing" textLength="220.5874" x="66" y="388.6606">Sistema requiere Par&#225;metros:</text><text fill="#000000" font-family="sans-serif" font-size="13" lengthAdjust="spacing" textLength="56.8306" x="66" y="403.7935">- funcion</text><text fill="#000000" font-family="sans-serif" font-size="13" lengthAdjust="spacing" textLength="16.7896" x="66" y="418.9263">- a</text><text fill="#000000" font-family="sans-serif" font-size="13" lengthAdjust="spacing" textLength="17.0752" x="66" y="434.0591">- b</text><text fill="#000000" font-family="sans-serif" font-size="13" lengthAdjust="spacing" textLength="17.0625" x="66" y="449.1919">- n</text></g><!--link 2 to 3--><g class="link" data-entity-1="2" data-entity-2="3" data-source-line="38" data-uid="lnk6" id="link_2_3"><path d="M39.35,530.0238 C37.59,539.2638 36,547.5938 36,547.5938 C36,547.5938 36,642.5938 36,642.5938 C36,642.5938 105.4897,663.2907 146.0397,675.3707" fill="none" id="2-to-3" style="stroke:#008000;stroke-width:1;"/><polygon fill="#008000" points="151.79,677.0838,144.3066,670.6807,146.9981,675.6562,142.0226,678.3477,151.79,677.0838" style="stroke:#008000;stroke-width:1;"/><path d="M41,552.5938 L41,637.5938 L301,637.5938 L301,562.5938 L291,552.5938 L41,552.5938" fill="#F5F5F5" style="stroke:#181818;stroke-width:0.5;"/><path d="M291,552.5938 L291,562.5938 L301,562.5938 L291,552.5938" fill="#F5F5F5" style="stroke:#181818;stroke-width:0.5;"/><text fill="#000000" font-family="sans-serif" font-size="13" font-weight="bold" lengthAdjust="spacing" textLength="239.5859" x="47" y="569.6606">Cliente Proporciona Par&#225;metros:</text><text fill="#000000" font-family="sans-serif" font-size="13" lengthAdjust="spacing" textLength="56.8306" x="55.2646" y="584.7935">- funcion</text><text fill="#000000" font-family="sans-serif" font-size="13" lengthAdjust="spacing" textLength="16.7896" x="55.2646" y="599.9263">- a</text><text fill="#000000" font-family="sans-serif" font-size="13" lengthAdjust="spacing" textLength="17.0752" x="55.2646" y="615.0591">- b</text><text fill="#000000" font-family="sans-serif" font-size="13" lengthAdjust="spacing" textLength="17.0625" x="55.2646" y="630.1919">- n</text></g><!--link 3 to 1--><g class="link" data-entity-1="3" data-entity-2="1" data-source-line="46" data-uid="lnk7" id="link_3_1"><path d="M202.49,676.2938 C240.08,664.0538 306,642.5938 306,642.5938 C306,642.5938 306,366.5938 306,366.5938 C306,366.5938 249.3528,347.4088 213.0728,335.1188" fill="none" id="3-to-1" style="stroke:#FF0000;stroke-width:1;"/><polygon fill="#FF0000" points="207.39,333.1938,214.6308,339.8699,212.1257,334.798,217.1976,332.2928,207.39,333.1938" style="stroke:#FF0000;stroke-width:1;"/><path d="M311,484.5938 L311,524.5938 L416,524.5938 L416,494.5938 L406,484.5938 L311,484.5938" fill="#F5F5F5" style="stroke:#181818;stroke-width:0.5;"/><path d="M406,484.5938 L406,494.5938 L416,494.5938 L406,484.5938" fill="#F5F5F5" style="stroke:#181818;stroke-width:0.5;"/><text fill="#000000" font-family="sans-serif" font-size="13" lengthAdjust="spacing" textLength="80.0186" x="317" y="501.6606">[Par&#225;metros</text><text fill="#000000" font-family="sans-serif" font-size="13" lengthAdjust="spacing" textLength="63.0068" x="325.2646" y="516.7935">Inv&#225;lidos]</text></g><!--link 3 to *end*crear_simpson_compuesta--><g class="link" data-entity-1="3" data-entity-2=".end.crear_simpson_compuesta" data-source-line="51" data-uid="lnk9" id="link_3_.end.crear_simpson_compuesta"><path d="M177,711.0238 C177,723.3838 177,731.7238 177,741.1938" fill="none" id="3-to-*end*crear_simpson_compuesta" style="stroke:#008000;stroke-width:1;"/><polygon fill="#008000" points="177,747.1938,181,738.1938,177,742.1938,173,738.1938,177,747.1938" style="stroke:#008000;stroke-width:1;"/></g><g id=".calcularResultadoSimpsonCompuesta"><rect fill="#FAF4B4" height="50" rx="12.5" ry="12.5" style="stroke:#C90000;stroke-width:0.5;" width="289.3428" x="211.33" y="840.5969"/><line style="stroke:#C90000;stroke-width:0.5;" x1="211.33" x2="500.6728" y1="866.8938" y2="866.8938"/><text fill="#000000" font-family="sans-serif" font-size="14" lengthAdjust="spacing" textLength="269.3428" x="221.33" y="858.592">:calcularResultadoSimpsonCompuesta</text></g><!--link SIMPSON_COMPUESTA to crear_simpson_compuesta--><g class="link" data-entity-1="SIMPSON_COMPUESTA" data-entity-2="crear_simpson_compuesta" data-source-line="18" data-uid="lnk2" id="link_SIMPSON_COMPUESTA_crear_simpson_compuesta"><path d="M276.66,94.7769 C236.18,109.0569 193,124.2969 193,124.2969 C193,124.2969 193,174.2969 193,174.2969 C193,174.2969 193.3874,179.5625 194.7074,197.8225" fill="none" id="SIMPSON_COMPUESTA-to-crear_simpson_compuesta" style="stroke:#008000;stroke-width:1;"/><polygon fill="#008000" points="195.14,203.8069,198.4807,194.5419,194.7795,198.8199,190.5015,195.1187,195.14,203.8069" style="stroke:#008000;stroke-width:1;"/><path d="M198,129.2969 L198,169.2969 L466,169.2969 L466,139.2969 L456,129.2969 L198,129.2969" fill="#F5F5F5" style="stroke:#181818;stroke-width:0.5;"/><path d="M456,129.2969 L456,139.2969 L466,139.2969 L456,129.2969" fill="#F5F5F5" style="stroke:#181818;stroke-width:0.5;"/><text fill="#000000" font-family="sans-serif" font-size="13" font-weight="bold" lengthAdjust="spacing" textLength="114.0103" x="204" y="146.3638">Cliente solicita:</text><text fill="#000000" font-family="sans-serif" font-size="13" lengthAdjust="spacing" textLength="247.7744" x="204" y="161.4966">- Crear operaci&#243;n simpson compuesta</text></g><!--link crear_simpson_compuesta to :calcularResultadoSimpsonCompuesta--><g class="link" data-entity-1="crear_simpson_compuesta" data-entity-2=".calcularResultadoSimpsonCompuesta" data-source-line="55" data-uid="lnk11" id="link_crear_simpson_compuesta_.calcularResultadoSimpsonCompuesta"><path d="M324.06,779.7969 C333.25,804.1969 339.0655,819.6418 344.7255,834.6718" fill="none" id="crear_simpson_compuesta-to-:calcularResultadoSimpsonCompuesta" style="stroke:#008000;stroke-width:1;"/><polygon fill="#008000" points="346.84,840.2869,347.4116,830.4546,345.0779,835.6077,339.9249,833.274,346.84,840.2869" style="stroke:#008000;stroke-width:1;"/></g><!--link :calcularResultadoSimpsonCompuesta to SIMPSON_COMPUESTA--><g class="link" data-entity-1=".calcularResultadoSimpsonCompuesta" data-entity-2="SIMPSON_COMPUESTA" data-source-line="57" data-uid="lnk12" id="link_.calcularResultadoSimpsonCompuesta_SIMPSON_COMPUESTA"><path d="M380.7,840.4669 C406.42,815.3369 443,779.5969 443,779.5969 C443,779.5969 475,174.2969 475,174.2969 C475,174.2969 475,124.2969 475,124.2969 C475,124.2969 444.125,111.3727 409.995,97.0927" fill="none" id=":calcularResultadoSimpsonCompuesta-to-SIMPSON_COMPUESTA" style="stroke:#008000;stroke-width:1;"/><polygon fill="#008000" points="404.46,94.7769,411.2187,101.9407,409.0725,96.7068,414.3065,94.5606,404.46,94.7769" style="stroke:#008000;stroke-width:1;"/></g><!--SRC=[hLB1Rjim3BthAuZsPY10qtI7zL2WytReeKjGjwSW21YPAOJ8eaV91OfX7zDls2VanoebZkCq3NOPPK3I4_7u7it0DGI61OV05PH6I0V3JYc_Cgv6mGfym43mMm5yGxrw5cvScRDbWVCbBgyML-c5fIHfKVtr8eRwqoTnV9BZIrg7sTOu2gyrGStsDLsK2YPOWkyKqCOzHyzG4Zp5BHT2WN5DWjgi_peeJ5LxTf1pLJSKvKVgZOVYxdvIZ7_Ey_7zvEb7yNYhr14qc9u_2v6R3Mv09-QvtzBDTKUtCHCBH6MhQ2dBScl8HSopDTe4lCwoY0zQQRoNrdB1dejSkMdEJkE9cgbrsuGXe8SpEEk0ou_0Q0_4RvhDe6zg6B7X0N8PaG-MKcHPONoW2a7eLsD822OewxUAWh3VMamnW6NZT1gQtHsxqw8xfTVEAqJHVGMZpnJispeHhbbI2VoF4aP9Wb2vQygHW6cl5hGiT-vb_MPDoNxs2LjdA3PTfP4-yJVxgTSQhMuioWFvnWOikPtVtlZ-EwVFU3JJxm00]--></g></svg>