<svg xmlns="http://www.w3.org/2000/svg" xmlns:xlink="http://www.w3.org/1999/xlink" contentStyleType="text/css" data-diagram-type="STATE" height="1078px" preserveAspectRatio="none" style="width:530px;height:1078px;background:#FFFFFF;" version="1.1" viewBox="0 0 530 1078" width="530px" zoomAndPan="magnify"><title>Detalle Caso de Uso Crear Operaci&#243;n Integral Triple Gaussiana</title><defs/><g><g class="title" data-source-line="14"><text fill="#000000" font-family="sans-serif" font-size="14" font-weight="bold" lengthAdjust="spacing" textLength="494.6621" x="10.7229" y="22.9951">Detalle Caso de Uso Crear Operaci&#243;n Integral Triple Gaussiana</text></g><g id="INTEGRAL_TRIPLE_GAUSSIANA"><rect fill="#FAF4B4" height="50" rx="12.5" ry="12.5" style="stroke:#C90000;stroke-width:0.5;" width="233.6504" x="231.17" y="44.2969"/><line style="stroke:#C90000;stroke-width:0.5;" x1="231.17" x2="464.8204" y1="70.5938" y2="70.5938"/><text fill="#000000" font-family="sans-serif" font-size="14" lengthAdjust="spacing" textLength="213.6504" x="241.17" y="62.292">INTEGRAL_TRIPLE_GAUSSIANA</text></g><path d="M19.5,204.2969 L414.5,204.2969 A12.5,12.5 0 0 1 427,216.7969 L427,230.5938 L7,230.5938 L7,216.7969 A12.5,12.5 0 0 1 19.5,204.2969" fill="#FAF4B4" style="stroke:#FAF4B4;stroke-width:1;"/><rect fill="none" height="757.2969" rx="12.5" ry="12.5" style="stroke:#C90000;stroke-width:0.5;" width="420" x="7" y="204.2969"/><line style="stroke:#C90000;stroke-width:0.5;" x1="7" x2="427" y1="230.5938" y2="230.5938"/><text fill="#000000" font-family="sans-serif" font-size="14" lengthAdjust="spacing" textLength="218.75" x="107.625" y="222.292">crear_integral_triple_gaussiana</text><g id="crear_integral_triple_gaussiana.1"><rect fill="#FAF4B4" height="50" rx="12.5" ry="12.5" style="stroke:#C90000;stroke-width:0.5;" width="50" x="158" y="298.5938"/><line style="stroke:#C90000;stroke-width:0.5;" x1="158" x2="208" y1="324.8906" y2="324.8906"/><text fill="#000000" font-family="sans-serif" font-size="14" lengthAdjust="spacing" textLength="4.4502" x="180.7749" y="316.5889">&#160;</text></g><g id="crear_integral_triple_gaussiana.2"><rect fill="#FAF4B4" height="50" rx="12.5" ry="12.5" style="stroke:#C90000;stroke-width:0.5;" width="50" x="19" y="570.5938"/><line style="stroke:#C90000;stroke-width:0.5;" x1="19" x2="69" y1="596.8906" y2="596.8906"/><text fill="#000000" font-family="sans-serif" font-size="14" lengthAdjust="spacing" textLength="4.4502" x="41.7749" y="588.5889">&#160;</text></g><g id="crear_integral_triple_gaussiana.3"><rect fill="#FAF4B4" height="50" rx="12.5" ry="12.5" style="stroke:#C90000;stroke-width:0.5;" width="50" x="152" y="842.5938"/><line style="stroke:#C90000;stroke-width:0.5;" x1="152" x2="202" y1="868.8906" y2="868.8906"/><text fill="#000000" font-family="sans-serif" font-size="14" lengthAdjust="spacing" textLength="4.4502" x="174.7749" y="860.5889">&#160;</text></g><ellipse cx="183" cy="251.5938" fill="#222222" rx="10" ry="10" style="stroke:#222222;stroke-width:1;"/><ellipse cx="177" cy="940.5938" fill="none" rx="11" ry="11" style="stroke:#222222;stroke-width:1;"/><ellipse cx="177" cy="940.5938" fill="#222222" rx="6" ry="6" style="stroke:#222222;stroke-width:1;"/><!--link *start*crear_integral_triple_gaussiana to 1--><g class="link" data-entity-1="*start*crear_integral_triple_gaussiana" data-entity-2="1" data-source-line="29" data-uid="lnk4" id="link_*start*crear_integral_triple_gaussiana_1"><path d="M183,262.0338 C183,271.2938 183,279.7838 183,292.2737" fill="none" id="*start*crear_integral_triple_gaussiana-to-1" style="stroke:#008000;stroke-width:1;"/><polygon fill="#008000" points="183,298.2737,187,289.2737,183,293.2737,179,289.2737,183,298.2737" style="stroke:#008000;stroke-width:1;"/></g><!--link 1 to 2--><g class="link" data-entity-1="1" data-entity-2="2" data-source-line="30" data-uid="lnk5" id="link_1_2"><path d="M157.5,333.0938 C120.68,345.3638 57,366.5938 57,366.5938 C57,366.5938 49.0812,505.3835 45.7312,564.2035" fill="none" id="1-to-2" style="stroke:#008000;stroke-width:1;"/><polygon fill="#008000" points="45.39,570.1938,49.8953,561.4358,45.6743,565.2018,41.9082,560.9809,45.39,570.1938" style="stroke:#008000;stroke-width:1;"/><path d="M62,371.5938 L62,547.5938 L303,547.5938 L303,381.5938 L293,371.5938 L62,371.5938" fill="#F5F5F5" style="stroke:#181818;stroke-width:0.5;"/><path d="M293,371.5938 L293,381.5938 L303,381.5938 L293,371.5938" fill="#F5F5F5" style="stroke:#181818;stroke-width:0.5;"/><text fill="#000000" font-family="sans-serif" font-size="13" font-weight="bold" lengthAdjust="spacing" textLength="220.5874" x="68" y="388.6606">Sistema requiere Par&#225;metros:</text><text fill="#000000" font-family="sans-serif" font-size="13" lengthAdjust="spacing" textLength="56.8306" x="68" y="403.7935">- funcion</text><text fill="#000000" font-family="sans-serif" font-size="13" lengthAdjust="spacing" textLength="16.7896" x="68" y="418.9263">- a</text><text fill="#000000" font-family="sans-serif" font-size="13" lengthAdjust="spacing" textLength="17.0752" x="68" y="434.0591">- b</text><text fill="#000000" font-family="sans-serif" font-size="13" lengthAdjust="spacing" textLength="50.6733" x="68" y="449.1919">- c_func</text><text fill="#000000" font-family="sans-serif" font-size="13" lengthAdjust="spacing" textLength="51.7778" x="68" y="464.3247">- d_func</text><text fill="#000000" font-family="sans-serif" font-size="13" lengthAdjust="spacing" textLength="79.5615" x="68" y="479.4575">- alpha_func</text><text fill="#000000" font-family="sans-serif" font-size="13" lengthAdjust="spacing" textLength="72.8394" x="68" y="494.5903">- beta_func</text><text fill="#000000" font-family="sans-serif" font-size="13" lengthAdjust="spacing" textLength="21.4868" x="68" y="509.7231">- m</text><text fill="#000000" font-family="sans-serif" font-size="13" lengthAdjust="spacing" textLength="17.0625" x="68" y="524.856">- n</text><text fill="#000000" font-family="sans-serif" font-size="13" lengthAdjust="spacing" textLength="17.0752" x="68" y="539.9888">- p</text></g><!--link 2 to 3--><g class="link" data-entity-1="2" data-entity-2="3" data-source-line="44" data-uid="lnk6" id="link_2_3"><path d="M37.6,621.0238 C35.18,630.2638 33,638.5938 33,638.5938 C33,638.5938 33,824.5938 33,824.5938 C33,824.5938 104.4901,845.4434 145.8301,857.5034" fill="none" id="2-to-3" style="stroke:#008000;stroke-width:1;"/><polygon fill="#008000" points="151.59,859.1838,144.0704,852.8233,146.7901,857.7835,141.8299,860.5032,151.59,859.1838" style="stroke:#008000;stroke-width:1;"/><path d="M38,643.5938 L38,819.5938 L303,819.5938 L303,653.5938 L293,643.5938 L38,643.5938" fill="#F5F5F5" style="stroke:#181818;stroke-width:0.5;"/><path d="M293,643.5938 L293,653.5938 L303,653.5938 L293,643.5938" fill="#F5F5F5" style="stroke:#181818;stroke-width:0.5;"/><text fill="#000000" font-family="sans-serif" font-size="13" font-weight="bold" lengthAdjust="spacing" textLength="244.1499" x="44" y="660.6606">Usuario Proporciona Par&#225;metros:</text><text fill="#000000" font-family="sans-serif" font-size="13" lengthAdjust="spacing" textLength="56.8306" x="52.2646" y="675.7935">- funcion</text><text fill="#000000" font-family="sans-serif" font-size="13" lengthAdjust="spacing" textLength="16.7896" x="52.2646" y="690.9263">- a</text><text fill="#000000" font-family="sans-serif" font-size="13" lengthAdjust="spacing" textLength="17.0752" x="52.2646" y="706.0591">- b</text><text fill="#000000" font-family="sans-serif" font-size="13" lengthAdjust="spacing" textLength="50.6733" x="52.2646" y="721.1919">- c_func</text><text fill="#000000" font-family="sans-serif" font-size="13" lengthAdjust="spacing" textLength="51.7778" x="52.2646" y="736.3247">- d_func</text><text fill="#000000" font-family="sans-serif" font-size="13" lengthAdjust="spacing" textLength="79.5615" x="52.2646" y="751.4575">- alpha_func</text><text fill="#000000" font-family="sans-serif" font-size="13" lengthAdjust="spacing" textLength="72.8394" x="52.2646" y="766.5903">- beta_func</text><text fill="#000000" font-family="sans-serif" font-size="13" lengthAdjust="spacing" textLength="21.4868" x="52.2646" y="781.7231">- m</text><text fill="#000000" font-family="sans-serif" font-size="13" lengthAdjust="spacing" textLength="17.0625" x="52.2646" y="796.856">- n</text><text fill="#000000" font-family="sans-serif" font-size="13" lengthAdjust="spacing" textLength="17.0752" x="52.2646" y="811.9888">- p</text></g><!--link 3 to 1--><g class="link" data-entity-1="3" data-entity-2="1" data-source-line="58" data-uid="lnk7" id="link_3_1"><path d="M202.26,858.4938 C240.33,846.2938 308,824.5938 308,824.5938 C308,824.5938 308,366.5938 308,366.5938 C308,366.5938 250.5076,347.2747 213.9876,335.0047" fill="none" id="3-to-1" style="stroke:#FF0000;stroke-width:1;"/><polygon fill="#FF0000" points="208.3,333.0938,215.5574,339.7518,213.0396,334.6862,218.1053,332.1684,208.3,333.0938" style="stroke:#FF0000;stroke-width:1;"/><path d="M313,575.5938 L313,615.5938 L418,615.5938 L418,585.5938 L408,575.5938 L313,575.5938" fill="#F5F5F5" style="stroke:#181818;stroke-width:0.5;"/><path d="M408,575.5938 L408,585.5938 L418,585.5938 L408,575.5938" fill="#F5F5F5" style="stroke:#181818;stroke-width:0.5;"/><text fill="#000000" font-family="sans-serif" font-size="13" lengthAdjust="spacing" textLength="80.0186" x="319" y="592.6606">[Par&#225;metros</text><text fill="#000000" font-family="sans-serif" font-size="13" lengthAdjust="spacing" textLength="63.0068" x="327.2646" y="607.7935">Inv&#225;lidos]</text></g><!--link 3 to *end*crear_integral_triple_gaussiana--><g class="link" data-entity-1="3" data-entity-2="*end*crear_integral_triple_gaussiana" data-source-line="63" data-uid="lnk9" id="link_3_*end*crear_integral_triple_gaussiana"><path d="M177,893.0238 C177,905.3838 177,913.7238 177,923.1938" fill="none" id="3-to-*end*crear_integral_triple_gaussiana" style="stroke:#008000;stroke-width:1;"/><polygon fill="#008000" points="177,929.1938,181,920.1938,177,924.1938,173,920.1938,177,929.1938" style="stroke:#008000;stroke-width:1;"/></g><g id=":calcularResultadoIntegralTripleGaussiana"><rect fill="#FAF4B4" height="50" rx="12.5" ry="12.5" style="stroke:#C90000;stroke-width:0.5;" width="316.208" x="206.9" y="1022.5969"/><line style="stroke:#C90000;stroke-width:0.5;" x1="206.9" x2="523.108" y1="1048.8938" y2="1048.8938"/><text fill="#000000" font-family="sans-serif" font-size="14" lengthAdjust="spacing" textLength="296.208" x="216.9" y="1040.592">:calcularResultadoIntegralTripleGaussiana</text></g><!--link INTEGRAL_TRIPLE_GAUSSIANA to crear_integral_triple_gaussiana--><g class="link" data-entity-1="INTEGRAL_TRIPLE_GAUSSIANA" data-entity-2="crear_integral_triple_gaussiana" data-source-line="18" data-uid="lnk2" id="link_INTEGRAL_TRIPLE_GAUSSIANA_crear_integral_triple_gaussiana"><path d="M272.32,94.7769 C228.13,109.0569 181,124.2969 181,124.2969 C181,124.2969 181,174.2969 181,174.2969 C181,174.2969 181.4513,179.4302 183.0913,197.9702" fill="none" id="INTEGRAL_TRIPLE_GAUSSIANA-to-crear_integral_triple_gaussiana" style="stroke:#008000;stroke-width:1;"/><polygon fill="#008000" points="183.62,203.9469,186.8114,194.6294,183.1794,198.9663,178.8425,195.3343,183.62,203.9469" style="stroke:#008000;stroke-width:1;"/><path d="M186,129.2969 L186,169.2969 L482,169.2969 L482,139.2969 L472,129.2969 L186,129.2969" fill="#F5F5F5" style="stroke:#181818;stroke-width:0.5;"/><path d="M472,129.2969 L472,139.2969 L482,139.2969 L472,129.2969" fill="#F5F5F5" style="stroke:#181818;stroke-width:0.5;"/><text fill="#000000" font-family="sans-serif" font-size="13" font-weight="bold" lengthAdjust="spacing" textLength="118.5742" x="192" y="146.3638">Usuario solicita:</text><text fill="#000000" font-family="sans-serif" font-size="13" lengthAdjust="spacing" textLength="275.374" x="192" y="161.4966">- Crear operaci&#243;n integral triple gaussiana</text></g><!--link crear_integral_triple_gaussiana to :calcularResultadoIntegralTripleGaussiana--><g class="link" data-entity-1="crear_integral_triple_gaussiana" data-entity-2=":calcularResultadoIntegralTripleGaussiana" data-source-line="67" data-uid="lnk11" id="link_crear_integral_triple_gaussiana_:calcularResultadoIntegralTripleGaussiana"><path d="M337.94,962.0069 C345.83,986.6769 350.6809,1001.8425 355.4309,1016.6825" fill="none" id="crear_integral_triple_gaussiana-to-:calcularResultadoIntegralTripleGaussiana" style="stroke:#008000;stroke-width:1;"/><polygon fill="#008000" points="357.26,1022.3969,358.326,1012.6059,355.7358,1017.6349,350.7068,1015.0446,357.26,1022.3969" style="stroke:#008000;stroke-width:1;"/></g><!--link :calcularResultadoIntegralTripleGaussiana to INTEGRAL_TRIPLE_GAUSSIANA--><g class="link" data-entity-1=":calcularResultadoIntegralTripleGaussiana" data-entity-2="INTEGRAL_TRIPLE_GAUSSIANA" data-source-line="69" data-uid="lnk12" id="link_:calcularResultadoIntegralTripleGaussiana_INTEGRAL_TRIPLE_GAUSSIANA"><path d="M387.43,1022.4669 C410.78,997.3369 444,961.5969 444,961.5969 C444,961.5969 491,174.2969 491,174.2969 C491,174.2969 491,124.2969 491,124.2969 C491,124.2969 456.2534,111.1758 418.4234,96.8958" fill="none" id=":calcularResultadoIntegralTripleGaussiana-to-INTEGRAL_TRIPLE_GAUSSIANA" style="stroke:#008000;stroke-width:1;"/><polygon fill="#008000" points="412.81,94.7769,419.8175,101.6975,417.4878,96.5427,422.6427,94.213,412.81,94.7769" style="stroke:#008000;stroke-width:1;"/></g><!--SRC=[pLFDQjj04BxhAORa9Z3KSNfe3WN73SOGKkEVap5YB8tTnQiTTNPL2AKFasVe8_Z5kcjRVsbCUknAeDblHz_CDplZk037i67dE8TC2QLEiOaYkrUcGC4Sh4D7y3C2kCTqlnCkJJPYpGBNMzpURcx32Kj6SaRJJn_yYdwrIGnVvFWOdgwtLeRSSq5Gi7uEcoXoocc2B-HG- -y8BKD6iFIVaH0AV2r8C5M7tmOcnj5EKCD2LE6TnrXQgz2W3t7KCdbQF8ndmyTaCPjC7n-IyN0vdq-6JyCekdZKMrtlXCYiUvyX3H4JTGwJk6EOP5U7EOfb4sJilUGuNjeIHJ5OrYfL3k_YsEEzS-hSf5vnmeaJ6auosR68bOPtSWYbFZds0IrSmLKDtBm61WtWtrMyXhROliVw7UJ68wyaXXN7SsKTvGX2tqj5GZ15ERpav8JjIN9OFTYM9WrDLksnjZQrbIR1gzvctItguXjseOrlZIwIrrOJgl1MNKhmjMWB6xmbhBczgN314ZB7_r_P82WJogeh_4lNgYK1pYmJy-FmebN6Tlq6Mrqdto9H6DXtUh3zorsAEYqroenigHrcN4tfQKXRC_hFhct-YtFx1m00]--></g></svg>