<svg xmlns="http://www.w3.org/2000/svg" xmlns:xlink="http://www.w3.org/1999/xlink" contentStyleType="text/css" data-diagram-type="STATE" height="896px" preserveAspectRatio="none" style="width:524px;height:896px;background:#FFFFFF;" version="1.1" viewBox="0 0 524 896" width="524px" zoomAndPan="magnify"><title>Detalle Caso de Uso Crear Operaci&#243;n Trapezoidal Compuesta</title><defs/><g><g class="title" data-source-line="14"><text fill="#000000" font-family="sans-serif" font-size="14" font-weight="bold" lengthAdjust="spacing" textLength="481.1406" x="14.6424" y="22.9951">Detalle Caso de Uso Crear Operaci&#243;n Trapezoidal Compuesta</text></g><g id="TRAPEZOIDAL_COMPUESTA"><rect fill="#FAF4B4" height="50" rx="12.5" ry="12.5" style="stroke:#C90000;stroke-width:0.5;" width="212.4658" x="241.77" y="44.2969"/><line style="stroke:#C90000;stroke-width:0.5;" x1="241.77" x2="454.2358" y1="70.5938" y2="70.5938"/><text fill="#000000" font-family="sans-serif" font-size="14" lengthAdjust="spacing" textLength="192.4658" x="251.77" y="62.292">TRAPEZOIDAL_COMPUESTA</text></g><path d="M19.5,204.2969 L414.5,204.2969 A12.5,12.5 0 0 1 427,216.7969 L427,230.5938 L7,230.5938 L7,216.7969 A12.5,12.5 0 0 1 19.5,204.2969" fill="#FAF4B4" style="stroke:#FAF4B4;stroke-width:1;"/><rect fill="none" height="575.2969" rx="12.5" ry="12.5" style="stroke:#C90000;stroke-width:0.5;" width="420" x="7" y="204.2969"/><line style="stroke:#C90000;stroke-width:0.5;" x1="7" x2="427" y1="230.5938" y2="230.5938"/><text fill="#000000" font-family="sans-serif" font-size="14" lengthAdjust="spacing" textLength="206.5205" x="113.7397" y="222.292">crear_trapezoidal_compuesta</text><g id="crear_trapezoidal_compuesta.1"><rect fill="#FAF4B4" height="50" rx="12.5" ry="12.5" style="stroke:#C90000;stroke-width:0.5;" width="50" x="158" y="298.5938"/><line style="stroke:#C90000;stroke-width:0.5;" x1="158" x2="208" y1="324.8906" y2="324.8906"/><text fill="#000000" font-family="sans-serif" font-size="14" lengthAdjust="spacing" textLength="4.4502" x="180.7749" y="316.5889">&#160;</text></g><g id="crear_trapezoidal_compuesta.2"><rect fill="#FAF4B4" height="50" rx="12.5" ry="12.5" style="stroke:#C90000;stroke-width:0.5;" width="50" x="19" y="479.5938"/><line style="stroke:#C90000;stroke-width:0.5;" x1="19" x2="69" y1="505.8906" y2="505.8906"/><text fill="#000000" font-family="sans-serif" font-size="14" lengthAdjust="spacing" textLength="4.4502" x="41.7749" y="497.5889">&#160;</text></g><g id="crear_trapezoidal_compuesta.3"><rect fill="#FAF4B4" height="50" rx="12.5" ry="12.5" style="stroke:#C90000;stroke-width:0.5;" width="50" x="152" y="660.5938"/><line style="stroke:#C90000;stroke-width:0.5;" x1="152" x2="202" y1="686.8906" y2="686.8906"/><text fill="#000000" font-family="sans-serif" font-size="14" lengthAdjust="spacing" textLength="4.4502" x="174.7749" y="678.5889">&#160;</text></g><ellipse cx="183" cy="251.5938" fill="#222222" rx="10" ry="10" style="stroke:#222222;stroke-width:1;"/><ellipse cx="177" cy="758.5938" fill="none" rx="11" ry="11" style="stroke:#222222;stroke-width:1;"/><ellipse cx="177" cy="758.5938" fill="#222222" rx="6" ry="6" style="stroke:#222222;stroke-width:1;"/><!--link *start*crear_trapezoidal_compuesta to 1--><g class="link" data-entity-1="*start*crear_trapezoidal_compuesta" data-entity-2="1" data-source-line="29" data-uid="lnk4" id="link_*start*crear_trapezoidal_compuesta_1"><path d="M183,262.0338 C183,271.2938 183,279.7838 183,292.2738" fill="none" id="*start*crear_trapezoidal_compuesta-to-1" style="stroke:#008000;stroke-width:1;"/><polygon fill="#008000" points="183,298.2738,187,289.2738,183,293.2738,179,289.2738,183,298.2738" style="stroke:#008000;stroke-width:1;"/></g><!--link 1 to 2--><g class="link" data-entity-1="1" data-entity-2="2" data-source-line="30" data-uid="lnk5" id="link_1_2"><path d="M157.5,333.0938 C120.68,345.3638 57,366.5938 57,366.5938 C57,366.5938 50.6269,433.7206 46.8869,473.1306" fill="none" id="1-to-2" style="stroke:#008000;stroke-width:1;"/><polygon fill="#008000" points="46.32,479.1038,51.1524,470.5219,46.7924,474.1261,43.1882,469.7661,46.32,479.1038" style="stroke:#008000;stroke-width:1;"/><path d="M62,371.5938 L62,456.5938 L303,456.5938 L303,381.5938 L293,371.5938 L62,371.5938" fill="#F5F5F5" style="stroke:#181818;stroke-width:0.5;"/><path d="M293,371.5938 L293,381.5938 L303,381.5938 L293,371.5938" fill="#F5F5F5" style="stroke:#181818;stroke-width:0.5;"/><text fill="#000000" font-family="sans-serif" font-size="13" font-weight="bold" lengthAdjust="spacing" textLength="220.5874" x="68" y="388.6606">Sistema requiere Par&#225;metros:</text><text fill="#000000" font-family="sans-serif" font-size="13" lengthAdjust="spacing" textLength="56.8306" x="68" y="403.7935">- funcion</text><text fill="#000000" font-family="sans-serif" font-size="13" lengthAdjust="spacing" textLength="16.7896" x="68" y="418.9263">- a</text><text fill="#000000" font-family="sans-serif" font-size="13" lengthAdjust="spacing" textLength="17.0752" x="68" y="434.0591">- b</text><text fill="#000000" font-family="sans-serif" font-size="13" lengthAdjust="spacing" textLength="17.0625" x="68" y="449.1919">- n</text></g><!--link 2 to 3--><g class="link" data-entity-1="2" data-entity-2="3" data-source-line="38" data-uid="lnk6" id="link_2_3"><path d="M37.6,530.0238 C35.18,539.2638 33,547.5938 33,547.5938 C33,547.5938 33,642.5938 33,642.5938 C33,642.5938 104.4901,663.4434 145.8301,675.5034" fill="none" id="2-to-3" style="stroke:#008000;stroke-width:1;"/><polygon fill="#008000" points="151.59,677.1838,144.0704,670.8233,146.7901,675.7835,141.8299,678.5032,151.59,677.1838" style="stroke:#008000;stroke-width:1;"/><path d="M38,552.5938 L38,637.5938 L303,637.5938 L303,562.5938 L293,552.5938 L38,552.5938" fill="#F5F5F5" style="stroke:#181818;stroke-width:0.5;"/><path d="M293,552.5938 L293,562.5938 L303,562.5938 L293,552.5938" fill="#F5F5F5" style="stroke:#181818;stroke-width:0.5;"/><text fill="#000000" font-family="sans-serif" font-size="13" font-weight="bold" lengthAdjust="spacing" textLength="244.1499" x="44" y="569.6606">Usuario Proporciona Par&#225;metros:</text><text fill="#000000" font-family="sans-serif" font-size="13" lengthAdjust="spacing" textLength="56.8306" x="52.2646" y="584.7935">- funcion</text><text fill="#000000" font-family="sans-serif" font-size="13" lengthAdjust="spacing" textLength="16.7896" x="52.2646" y="599.9263">- a</text><text fill="#000000" font-family="sans-serif" font-size="13" lengthAdjust="spacing" textLength="17.0752" x="52.2646" y="615.0591">- b</text><text fill="#000000" font-family="sans-serif" font-size="13" lengthAdjust="spacing" textLength="17.0625" x="52.2646" y="630.1919">- n</text></g><!--link 3 to 1--><g class="link" data-entity-1="3" data-entity-2="1" data-source-line="46" data-uid="lnk7" id="link_3_1"><path d="M202.26,676.4938 C240.33,664.2938 308,642.5938 308,642.5938 C308,642.5938 308,366.5938 308,366.5938 C308,366.5938 250.5076,347.2747 213.9876,335.0047" fill="none" id="3-to-1" style="stroke:#FF0000;stroke-width:1;"/><polygon fill="#FF0000" points="208.3,333.0938,215.5574,339.7518,213.0396,334.6862,218.1053,332.1684,208.3,333.0938" style="stroke:#FF0000;stroke-width:1;"/><path d="M313,484.5938 L313,524.5938 L418,524.5938 L418,494.5938 L408,484.5938 L313,484.5938" fill="#F5F5F5" style="stroke:#181818;stroke-width:0.5;"/><path d="M408,484.5938 L408,494.5938 L418,494.5938 L408,484.5938" fill="#F5F5F5" style="stroke:#181818;stroke-width:0.5;"/><text fill="#000000" font-family="sans-serif" font-size="13" lengthAdjust="spacing" textLength="80.0186" x="319" y="501.6606">[Par&#225;metros</text><text fill="#000000" font-family="sans-serif" font-size="13" lengthAdjust="spacing" textLength="63.0068" x="327.2646" y="516.7935">Inv&#225;lidos]</text></g><!--link 3 to *end*crear_trapezoidal_compuesta--><g class="link" data-entity-1="3" data-entity-2="*end*crear_trapezoidal_compuesta" data-source-line="51" data-uid="lnk9" id="link_3_*end*crear_trapezoidal_compuesta"><path d="M177,711.0238 C177,723.3838 177,731.7238 177,741.1938" fill="none" id="3-to-*end*crear_trapezoidal_compuesta" style="stroke:#008000;stroke-width:1;"/><polygon fill="#008000" points="177,747.1938,181,738.1938,177,742.1938,173,738.1938,177,747.1938" style="stroke:#008000;stroke-width:1;"/></g><g id=":calcularResultadoTrapezoidalCompuesta"><rect fill="#FAF4B4" height="50" rx="12.5" ry="12.5" style="stroke:#C90000;stroke-width:0.5;" width="310.8555" x="206.57" y="840.5969"/><line style="stroke:#C90000;stroke-width:0.5;" x1="206.57" x2="517.4255" y1="866.8938" y2="866.8938"/><text fill="#000000" font-family="sans-serif" font-size="14" lengthAdjust="spacing" textLength="290.8555" x="216.57" y="858.592">:calcularResultadoTrapezoidalCompuesta</text></g><!--link TRAPEZOIDAL_COMPUESTA to crear_trapezoidal_compuesta--><g class="link" data-entity-1="TRAPEZOIDAL_COMPUESTA" data-entity-2="crear_trapezoidal_compuesta" data-source-line="18" data-uid="lnk2" id="link_TRAPEZOIDAL_COMPUESTA_crear_trapezoidal_compuesta"><path d="M274.13,94.7769 C231,109.0569 185,124.2969 185,124.2969 C185,124.2969 185,174.2969 185,174.2969 C185,174.2969 185.5384,179.5771 187.3784,197.8371" fill="none" id="TRAPEZOIDAL_COMPUESTA-to-crear_trapezoidal_compuesta" style="stroke:#008000;stroke-width:1;"/><polygon fill="#008000" points="187.98,203.8069,191.0575,194.4512,187.4787,198.8321,183.0978,195.2533,187.98,203.8069" style="stroke:#008000;stroke-width:1;"/><path d="M190,129.2969 L190,169.2969 L477,169.2969 L477,139.2969 L467,129.2969 L190,129.2969" fill="#F5F5F5" style="stroke:#181818;stroke-width:0.5;"/><path d="M467,129.2969 L467,139.2969 L477,139.2969 L467,129.2969" fill="#F5F5F5" style="stroke:#181818;stroke-width:0.5;"/><text fill="#000000" font-family="sans-serif" font-size="13" font-weight="bold" lengthAdjust="spacing" textLength="118.5742" x="196" y="146.3638">Usuario solicita:</text><text fill="#000000" font-family="sans-serif" font-size="13" lengthAdjust="spacing" textLength="266.3857" x="196" y="161.4966">- Crear operaci&#243;n trapezoidal compuesta</text></g><!--link crear_trapezoidal_compuesta to :calcularResultadoTrapezoidalCompuesta--><g class="link" data-entity-1="crear_trapezoidal_compuesta" data-entity-2=":calcularResultadoTrapezoidalCompuesta" data-source-line="55" data-uid="lnk11" id="link_crear_trapezoidal_compuesta_:calcularResultadoTrapezoidalCompuesta"><path d="M328.92,779.7969 C338.43,804.1969 344.4672,819.668 350.3372,834.698" fill="none" id="crear_trapezoidal_compuesta-to-:calcularResultadoTrapezoidalCompuesta" style="stroke:#008000;stroke-width:1;"/><polygon fill="#008000" points="352.52,840.2869,352.9718,830.4484,350.701,835.6295,345.52,833.3587,352.52,840.2869" style="stroke:#008000;stroke-width:1;"/></g><!--link :calcularResultadoTrapezoidalCompuesta to TRAPEZOIDAL_COMPUESTA--><g class="link" data-entity-1=":calcularResultadoTrapezoidalCompuesta" data-entity-2="TRAPEZOIDAL_COMPUESTA" data-source-line="57" data-uid="lnk12" id="link_:calcularResultadoTrapezoidalCompuesta_TRAPEZOIDAL_COMPUESTA"><path d="M385.28,840.4669 C409.52,815.3369 444,779.5969 444,779.5969 C444,779.5969 486,174.2969 486,174.2969 C486,174.2969 486,124.2969 486,124.2969 C486,124.2969 452.6378,111.2424 416.1278,96.9624" fill="none" id=":calcularResultadoTrapezoidalCompuesta-to-TRAPEZOIDAL_COMPUESTA" style="stroke:#008000;stroke-width:1;"/><polygon fill="#008000" points="410.54,94.7769,417.4647,101.7804,415.1965,96.5982,420.3787,94.33,410.54,94.7769" style="stroke:#008000;stroke-width:1;"/></g><!--SRC=[hLB1JXin4BtlLupWjbAaXi013fN2mW6fLI98BesYQEAT82jUppBsLgAe7yCtz1FoOxL3icjeYZWmNidsy-ZDUxFZkGRFi6JlkO9I2oclsMQPMsjRes05pgCdUCe0Bb6jxuKRMnPiME1uXQlJvMbyOIb9TgWw_n8Y-vsIMFulnrbShxEDjkGVQuAQpMEyP9dNtX1SaKSJzW8TGqam3LiXX0AZcWILtlonC16iwHVh4WqKNDKD1Gk1VkjZSZiSN_yOtLmDlosAqVVnzFfkCiooWt1lTdmlH7RU-megLbduZdgXMkgjERPHzZfOpFEfQr0qWsEZbVPuaUS1x-saSYSruOEEZsovRTXUypkrOqjValg03exWg0LEtWA33WZVB9z3Qh0ViFuhv2GWRwp5oFCxxJnL248FZIOX6ADidYlomkx5QemUh1ghuZ3jxzYUbkqflhP-8OXE5GmEAUZQEnQkMM89_4G9WoX1gDmtvHy1iwGMx5XkxC_Diz4bk_a1jjPGQ7eMH_sTFvgcNoWqgZ4ej-GQux7aPBQJqVvONifySDx_0W00]--></g></svg>