<svg xmlns="http://www.w3.org/2000/svg" xmlns:xlink="http://www.w3.org/1999/xlink" contentStyleType="text/css" data-diagram-type="STATE" height="1078px" preserveAspectRatio="none" style="width:528px;height:1078px;background:#FFFFFF;" version="1.1" viewBox="0 0 528 1078" width="528px" zoomAndPan="magnify"><title>Detalle Caso de Uso Crear Operaci&#243;n Integral Triple Gaussiana</title><defs/><g><g class="title" data-source-line="14"><text fill="#000000" font-family="sans-serif" font-size="14" font-weight="bold" lengthAdjust="spacing" textLength="494.6621" x="10" y="22.9951">Detalle Caso de Uso Crear Operaci&#243;n Integral Triple Gaussiana</text></g><g id="INTEGRAL_TRIPLE_GAUSSIANA"><rect fill="#FAF4B4" height="50" rx="12.5" ry="12.5" style="stroke:#C90000;stroke-width:0.5;" width="233.6504" x="229.4471" y="44.2969"/><line style="stroke:#C90000;stroke-width:0.5;" x1="229.4471" x2="463.0974" y1="70.5938" y2="70.5938"/><text fill="#000000" font-family="sans-serif" font-size="14" lengthAdjust="spacing" textLength="213.6504" x="239.4471" y="62.292">INTEGRAL_TRIPLE_GAUSSIANA</text></g><path d="M19.7771,204.2969 L412.7771,204.2969 A12.5,12.5 0 0 1 425.2771,216.7969 L425.2771,230.5938 L7.2771,230.5938 L7.2771,216.7969 A12.5,12.5 0 0 1 19.7771,204.2969" fill="#FAF4B4"/><rect fill="none" height="757.2969" rx="12.5" ry="12.5" style="stroke:#C90000;stroke-width:0.5;" width="418" x="7.2771" y="204.2969"/><line style="stroke:#C90000;stroke-width:0.5;" x1="7.2771" x2="425.2771" y1="230.5938" y2="230.5938"/><text fill="#000000" font-family="sans-serif" font-size="14" lengthAdjust="spacing" textLength="218.75" x="106.9021" y="222.292">crear_integral_triple_gaussiana</text><g id="crear_integral_triple_gaussiana.1"><rect fill="#FAF4B4" height="50" rx="12.5" ry="12.5" style="stroke:#C90000;stroke-width:0.5;" width="50" x="157.2771" y="298.5938"/><line style="stroke:#C90000;stroke-width:0.5;" x1="157.2771" x2="207.2771" y1="324.8906" y2="324.8906"/><text fill="#000000" font-family="sans-serif" font-size="14" lengthAdjust="spacing" textLength="4.4502" x="180.052" y="316.5889">&#160;</text></g><g id="crear_integral_triple_gaussiana.2"><rect fill="#FAF4B4" height="50" rx="12.5" ry="12.5" style="stroke:#C90000;stroke-width:0.5;" width="50" x="19.2771" y="570.5938"/><line style="stroke:#C90000;stroke-width:0.5;" x1="19.2771" x2="69.2771" y1="596.8906" y2="596.8906"/><text fill="#000000" font-family="sans-serif" font-size="14" lengthAdjust="spacing" textLength="4.4502" x="42.052" y="588.5889">&#160;</text></g><g id="crear_integral_triple_gaussiana.3"><rect fill="#FAF4B4" height="50" rx="12.5" ry="12.5" style="stroke:#C90000;stroke-width:0.5;" width="50" x="152.2771" y="842.5938"/><line style="stroke:#C90000;stroke-width:0.5;" x1="152.2771" x2="202.2771" y1="868.8906" y2="868.8906"/><text fill="#000000" font-family="sans-serif" font-size="14" lengthAdjust="spacing" textLength="4.4502" x="175.052" y="860.5889">&#160;</text></g><ellipse cx="182.2771" cy="251.5938" fill="#222222" rx="10" ry="10" style="stroke:#222222;stroke-width:1;"/><ellipse cx="177.2771" cy="940.5938" fill="none" rx="11" ry="11" style="stroke:#222222;stroke-width:1;"/><ellipse cx="177.2771" cy="940.5938" fill="#222222" rx="6" ry="6" style="stroke:#222222;stroke-width:1;"/><!--link *start*crear_integral_triple_gaussiana to 1--><g class="link" data-entity-1=".start.crear_integral_triple_gaussiana" data-entity-2="1" data-source-line="29" data-uid="lnk4" id="link_.start.crear_integral_triple_gaussiana_1"><path d="M182.2771,262.0338 C182.2771,271.2938 182.2771,279.7838 182.2771,292.2737" fill="none" id="*start*crear_integral_triple_gaussiana-to-1" style="stroke:#008000;stroke-width:1;"/><polygon fill="#008000" points="182.2771,298.2737,186.2771,289.2737,182.2771,293.2737,178.2771,289.2737,182.2771,298.2737" style="stroke:#008000;stroke-width:1;"/></g><!--link 1 to 2--><g class="link" data-entity-1="1" data-entity-2="2" data-source-line="30" data-uid="lnk5" id="link_1_2"><path d="M156.8771,332.9938 C119.8171,345.2537 55.2771,366.5938 55.2771,366.5938 C55.2771,366.5938 48.5754,505.3807 45.7454,564.2007" fill="none" id="1-to-2" style="stroke:#008000;stroke-width:1;"/><polygon fill="#008000" points="45.4571,570.1938,49.8849,561.3964,45.6973,565.1995,41.8942,561.0119,45.4571,570.1938" style="stroke:#008000;stroke-width:1;"/><path d="M60.2771,371.5938 L60.2771,547.5938 L301.2771,547.5938 L301.2771,381.5938 L291.2771,371.5938 L60.2771,371.5938" fill="#F5F5F5" style="stroke:#181818;stroke-width:0.5;"/><path d="M291.2771,371.5938 L291.2771,381.5938 L301.2771,381.5938 L291.2771,371.5938" fill="#F5F5F5" style="stroke:#181818;stroke-width:0.5;"/><text fill="#000000" font-family="sans-serif" font-size="13" font-weight="bold" lengthAdjust="spacing" textLength="220.5874" x="66.2771" y="388.6606">Sistema requiere Par&#225;metros:</text><text fill="#000000" font-family="sans-serif" font-size="13" lengthAdjust="spacing" textLength="56.8306" x="66.2771" y="403.7935">- funcion</text><text fill="#000000" font-family="sans-serif" font-size="13" lengthAdjust="spacing" textLength="16.7896" x="66.2771" y="418.9263">- a</text><text fill="#000000" font-family="sans-serif" font-size="13" lengthAdjust="spacing" textLength="17.0752" x="66.2771" y="434.0591">- b</text><text fill="#000000" font-family="sans-serif" font-size="13" lengthAdjust="spacing" textLength="50.6733" x="66.2771" y="449.1919">- c_func</text><text fill="#000000" font-family="sans-serif" font-size="13" lengthAdjust="spacing" textLength="51.7778" x="66.2771" y="464.3247">- d_func</text><text fill="#000000" font-family="sans-serif" font-size="13" lengthAdjust="spacing" textLength="79.5615" x="66.2771" y="479.4575">- alpha_func</text><text fill="#000000" font-family="sans-serif" font-size="13" lengthAdjust="spacing" textLength="72.8394" x="66.2771" y="494.5903">- beta_func</text><text fill="#000000" font-family="sans-serif" font-size="13" lengthAdjust="spacing" textLength="21.4868" x="66.2771" y="509.7231">- m</text><text fill="#000000" font-family="sans-serif" font-size="13" lengthAdjust="spacing" textLength="17.0625" x="66.2771" y="524.856">- n</text><text fill="#000000" font-family="sans-serif" font-size="13" lengthAdjust="spacing" textLength="17.0752" x="66.2771" y="539.9888">- p</text></g><!--link 2 to 3--><g class="link" data-entity-1="2" data-entity-2="3" data-source-line="44" data-uid="lnk6" id="link_2_3"><path d="M39.6271,621.0238 C37.8671,630.2638 36.2771,638.5938 36.2771,638.5938 C36.2771,638.5938 36.2771,824.5938 36.2771,824.5938 C36.2771,824.5938 105.7668,845.2907 146.3168,857.3707" fill="none" id="2-to-3" style="stroke:#008000;stroke-width:1;"/><polygon fill="#008000" points="152.0671,859.0838,144.5837,852.6807,147.2752,857.6562,142.2996,860.3477,152.0671,859.0838" style="stroke:#008000;stroke-width:1;"/><path d="M41.2771,643.5938 L41.2771,819.5938 L301.2771,819.5938 L301.2771,653.5938 L291.2771,643.5938 L41.2771,643.5938" fill="#F5F5F5" style="stroke:#181818;stroke-width:0.5;"/><path d="M291.2771,643.5938 L291.2771,653.5938 L301.2771,653.5938 L291.2771,643.5938" fill="#F5F5F5" style="stroke:#181818;stroke-width:0.5;"/><text fill="#000000" font-family="sans-serif" font-size="13" font-weight="bold" lengthAdjust="spacing" textLength="239.5859" x="47.2771" y="660.6606">Cliente Proporciona Par&#225;metros:</text><text fill="#000000" font-family="sans-serif" font-size="13" lengthAdjust="spacing" textLength="56.8306" x="55.5417" y="675.7935">- funcion</text><text fill="#000000" font-family="sans-serif" font-size="13" lengthAdjust="spacing" textLength="16.7896" x="55.5417" y="690.9263">- a</text><text fill="#000000" font-family="sans-serif" font-size="13" lengthAdjust="spacing" textLength="17.0752" x="55.5417" y="706.0591">- b</text><text fill="#000000" font-family="sans-serif" font-size="13" lengthAdjust="spacing" textLength="50.6733" x="55.5417" y="721.1919">- c_func</text><text fill="#000000" font-family="sans-serif" font-size="13" lengthAdjust="spacing" textLength="51.7778" x="55.5417" y="736.3247">- d_func</text><text fill="#000000" font-family="sans-serif" font-size="13" lengthAdjust="spacing" textLength="79.5615" x="55.5417" y="751.4575">- alpha_func</text><text fill="#000000" font-family="sans-serif" font-size="13" lengthAdjust="spacing" textLength="72.8394" x="55.5417" y="766.5903">- beta_func</text><text fill="#000000" font-family="sans-serif" font-size="13" lengthAdjust="spacing" textLength="21.4868" x="55.5417" y="781.7231">- m</text><text fill="#000000" font-family="sans-serif" font-size="13" lengthAdjust="spacing" textLength="17.0625" x="55.5417" y="796.856">- n</text><text fill="#000000" font-family="sans-serif" font-size="13" lengthAdjust="spacing" textLength="17.0752" x="55.5417" y="811.9888">- p</text></g><!--link 3 to 1--><g class="link" data-entity-1="3" data-entity-2="1" data-source-line="58" data-uid="lnk7" id="link_3_1"><path d="M202.7671,858.2938 C240.3571,846.0538 306.2771,824.5938 306.2771,824.5938 C306.2771,824.5938 306.2771,366.5938 306.2771,366.5938 C306.2771,366.5938 249.6298,347.4088 213.3498,335.1188" fill="none" id="3-to-1" style="stroke:#FF0000;stroke-width:1;"/><polygon fill="#FF0000" points="207.6671,333.1938,214.9079,339.8699,212.4027,334.798,217.4746,332.2928,207.6671,333.1938" style="stroke:#FF0000;stroke-width:1;"/><path d="M311.2771,575.5938 L311.2771,615.5938 L416.2771,615.5938 L416.2771,585.5938 L406.2771,575.5938 L311.2771,575.5938" fill="#F5F5F5" style="stroke:#181818;stroke-width:0.5;"/><path d="M406.2771,575.5938 L406.2771,585.5938 L416.2771,585.5938 L406.2771,575.5938" fill="#F5F5F5" style="stroke:#181818;stroke-width:0.5;"/><text fill="#000000" font-family="sans-serif" font-size="13" lengthAdjust="spacing" textLength="80.0186" x="317.2771" y="592.6606">[Par&#225;metros</text><text fill="#000000" font-family="sans-serif" font-size="13" lengthAdjust="spacing" textLength="63.0068" x="325.5417" y="607.7935">Inv&#225;lidos]</text></g><!--link 3 to *end*crear_integral_triple_gaussiana--><g class="link" data-entity-1="3" data-entity-2=".end.crear_integral_triple_gaussiana" data-source-line="63" data-uid="lnk9" id="link_3_.end.crear_integral_triple_gaussiana"><path d="M177.2771,893.0238 C177.2771,905.3838 177.2771,913.7238 177.2771,923.1938" fill="none" id="3-to-*end*crear_integral_triple_gaussiana" style="stroke:#008000;stroke-width:1;"/><polygon fill="#008000" points="177.2771,929.1938,181.2771,920.1938,177.2771,924.1938,173.2771,920.1938,177.2771,929.1938" style="stroke:#008000;stroke-width:1;"/></g><g id=".calcularResultadoIntegralTripleGaussiana"><rect fill="#FAF4B4" height="50" rx="12.5" ry="12.5" style="stroke:#C90000;stroke-width:0.5;" width="316.208" x="205.1771" y="1022.5969"/><line style="stroke:#C90000;stroke-width:0.5;" x1="205.1771" x2="521.3851" y1="1048.8938" y2="1048.8938"/><text fill="#000000" font-family="sans-serif" font-size="14" lengthAdjust="spacing" textLength="296.208" x="215.1771" y="1040.592">:calcularResultadoIntegralTripleGaussiana</text></g><!--link INTEGRAL_TRIPLE_GAUSSIANA to crear_integral_triple_gaussiana--><g class="link" data-entity-1="INTEGRAL_TRIPLE_GAUSSIANA" data-entity-2="crear_integral_triple_gaussiana" data-source-line="18" data-uid="lnk2" id="link_INTEGRAL_TRIPLE_GAUSSIANA_crear_integral_triple_gaussiana"><path d="M270.5971,94.7769 C226.4071,109.0569 179.2771,124.2969 179.2771,124.2969 C179.2771,124.2969 179.2771,174.2969 179.2771,174.2969 C179.2771,174.2969 179.7456,179.4314 181.4256,197.9714" fill="none" id="INTEGRAL_TRIPLE_GAUSSIANA-to-crear_integral_triple_gaussiana" style="stroke:#008000;stroke-width:1;"/><polygon fill="#008000" points="181.9671,203.9469,185.1385,194.6226,181.5158,198.9673,177.1712,195.3446,181.9671,203.9469" style="stroke:#008000;stroke-width:1;"/><path d="M184.2771,129.2969 L184.2771,169.2969 L480.2771,169.2969 L480.2771,139.2969 L470.2771,129.2969 L184.2771,129.2969" fill="#F5F5F5" style="stroke:#181818;stroke-width:0.5;"/><path d="M470.2771,129.2969 L470.2771,139.2969 L480.2771,139.2969 L470.2771,129.2969" fill="#F5F5F5" style="stroke:#181818;stroke-width:0.5;"/><text fill="#000000" font-family="sans-serif" font-size="13" font-weight="bold" lengthAdjust="spacing" textLength="114.0103" x="190.2771" y="146.3638">Cliente solicita:</text><text fill="#000000" font-family="sans-serif" font-size="13" lengthAdjust="spacing" textLength="275.374" x="190.2771" y="161.4966">- Crear operaci&#243;n integral triple gaussiana</text></g><!--link crear_integral_triple_gaussiana to :calcularResultadoIntegralTripleGaussiana--><g class="link" data-entity-1="crear_integral_triple_gaussiana" data-entity-2=".calcularResultadoIntegralTripleGaussiana" data-source-line="67" data-uid="lnk11" id="link_crear_integral_triple_gaussiana_.calcularResultadoIntegralTripleGaussiana"><path d="M336.3971,962.0069 C344.2371,986.6769 349.0485,1001.8391 353.7685,1016.6791" fill="none" id="crear_integral_triple_gaussiana-to-:calcularResultadoIntegralTripleGaussiana" style="stroke:#008000;stroke-width:1;"/><polygon fill="#008000" points="355.5871,1022.3969,356.671,1012.6078,354.0716,1017.6321,349.0473,1015.0326,355.5871,1022.3969" style="stroke:#008000;stroke-width:1;"/></g><!--link :calcularResultadoIntegralTripleGaussiana to INTEGRAL_TRIPLE_GAUSSIANA--><g class="link" data-entity-1=".calcularResultadoIntegralTripleGaussiana" data-entity-2="INTEGRAL_TRIPLE_GAUSSIANA" data-source-line="69" data-uid="lnk12" id="link_.calcularResultadoIntegralTripleGaussiana_INTEGRAL_TRIPLE_GAUSSIANA"><path d="M385.9871,1022.4669 C409.6371,997.3369 443.2771,961.5969 443.2771,961.5969 C443.2771,961.5969 489.2771,174.2969 489.2771,174.2969 C489.2771,174.2969 489.2771,124.2969 489.2771,124.2969 C489.2771,124.2969 454.5304,111.1758 416.7004,96.8958" fill="none" id=":calcularResultadoIntegralTripleGaussiana-to-INTEGRAL_TRIPLE_GAUSSIANA" style="stroke:#008000;stroke-width:1;"/><polygon fill="#008000" points="411.0871,94.7769,418.0945,101.6975,415.7649,96.5427,420.9198,94.213,411.0871,94.7769" style="stroke:#008000;stroke-width:1;"/></g><!--SRC=[pLFDQjj04BxhAORa9Z3KSNfe3WN72KOGKcCx9sF4M1gxYrSxwkog44eV9i_GH_2BTTS_-abZqcDM0ir-E_fcljaPnoKuXXKxnmNaIYXpYaqKsQqo9GeMO1qwWbyHm2rcsurmPV8HQnQuNEFwUdKTJbXoaYEQVVdaL_IxJMBuBCVdy7IzjJBadak2alLps4IHKquJt953xRyZj0mvmPF_Z8HGu5j9WfdQ_J6G64SRGGrpKQLt7cDbhKA3FiHUI_8ulnzFXm_fV9fC7kxJyV1fDak6ZyCeEdlKMrnkXCWiUryX2n5JTGoJkdsOT5E7sOjb4sHilUGu7cb5tXiiQvKfXpTnxF7UCNLkKZznme4J6auo-Rw89mtlv11AVN3i0rguW8iQk7eD31h0luju2MsnVO_rEyYLHrv932kEPyewAX24VbIAX622idifo0dRW-ImUh2kJ1QQxBJ7sbhLLfO6htgRTxUeo-_OXLQ-DRf8KLjDgD9RTId1rw8jRF2MiERs9i8bIyWSFxwoGL0cb9-ky1zTYvO4EB8avkVkHQkSxV8DjhfElaMYCB3lz63xbviCTLPfb2dPIZlC-JIbXo5jpUX_kxRvpyxjNm00]--></g></svg>