<svg xmlns="http://www.w3.org/2000/svg" xmlns:xlink="http://www.w3.org/1999/xlink" contentStyleType="text/css" data-diagram-type="STATE" height="977px" preserveAspectRatio="none" style="width:541px;height:977px;background:#FFFFFF;" version="1.1" viewBox="0 0 541 977" width="541px" zoomAndPan="magnify"><title>Detalle Caso de Uso Crear Operaci&#243;n Newton Cotes Cerrado n=3</title><defs/><g><g class="title" data-source-line="12"><text fill="#000000" font-family="sans-serif" font-size="14" font-weight="bold" lengthAdjust="spacing" textLength="509.1406" x="10" y="22.9951">Detalle Caso de Uso Crear Operaci&#243;n Newton Cotes Cerrado n=3</text></g><path d="M21.0703,204.2969 L416.0703,204.2969 A12.5,12.5 0 0 1 428.5703,216.7969 L428.5703,230.5938 L8.5703,230.5938 L8.5703,216.7969 A12.5,12.5 0 0 1 21.0703,204.2969" fill="#FAF4B4" style="stroke:#FAF4B4;stroke-width:1;"/><rect fill="none" height="545.2969" rx="12.5" ry="12.5" style="stroke:#C90000;stroke-width:0.5;" width="420" x="8.5703" y="204.2969"/><line style="stroke:#C90000;stroke-width:0.5;" x1="8.5703" x2="428.5703" y1="230.5938" y2="230.5938"/><text fill="#000000" font-family="sans-serif" font-size="14" lengthAdjust="spacing" textLength="163.5293" x="136.8057" y="222.292">crear_newton_cotes_c3</text><g id="crear_newton_cotes_c3.1"><rect fill="#FAF4B4" height="50" rx="12.5" ry="12.5" style="stroke:#C90000;stroke-width:0.5;" width="50" x="159.5703" y="298.5938"/><line style="stroke:#C90000;stroke-width:0.5;" x1="159.5703" x2="209.5703" y1="324.8906" y2="324.8906"/><text fill="#000000" font-family="sans-serif" font-size="14" lengthAdjust="spacing" textLength="4.4502" x="182.3452" y="316.5889">&#160;</text></g><g id="crear_newton_cotes_c3.2"><rect fill="#FAF4B4" height="50" rx="12.5" ry="12.5" style="stroke:#C90000;stroke-width:0.5;" width="50" x="20.5703" y="464.5938"/><line style="stroke:#C90000;stroke-width:0.5;" x1="20.5703" x2="70.5703" y1="490.8906" y2="490.8906"/><text fill="#000000" font-family="sans-serif" font-size="14" lengthAdjust="spacing" textLength="4.4502" x="43.3452" y="482.5889">&#160;</text></g><g id="crear_newton_cotes_c3.3"><rect fill="#FAF4B4" height="50" rx="12.5" ry="12.5" style="stroke:#C90000;stroke-width:0.5;" width="50" x="153.5703" y="630.5938"/><line style="stroke:#C90000;stroke-width:0.5;" x1="153.5703" x2="203.5703" y1="656.8906" y2="656.8906"/><text fill="#000000" font-family="sans-serif" font-size="14" lengthAdjust="spacing" textLength="4.4502" x="176.3452" y="648.5889">&#160;</text></g><ellipse cx="184.5703" cy="251.5938" fill="#222222" rx="10" ry="10" style="stroke:#222222;stroke-width:1;"/><ellipse cx="178.5703" cy="728.5938" fill="none" rx="11" ry="11" style="stroke:#222222;stroke-width:1;"/><ellipse cx="178.5703" cy="728.5938" fill="#222222" rx="6" ry="6" style="stroke:#222222;stroke-width:1;"/><!--link *start*crear_newton_cotes_c3 to 1--><g class="link" data-entity-1="*start*crear_newton_cotes_c3" data-entity-2="1" data-source-line="26" data-uid="lnk5" id="link_*start*crear_newton_cotes_c3_1"><path d="M184.5703,262.0338 C184.5703,271.2938 184.5703,279.7838 184.5703,292.2738" fill="none" id="*start*crear_newton_cotes_c3-to-1" style="stroke:#008000;stroke-width:1;"/><polygon fill="#008000" points="184.5703,298.2738,188.5703,289.2738,184.5703,293.2738,180.5703,289.2738,184.5703,298.2738" style="stroke:#008000;stroke-width:1;"/></g><!--link 1 to 2--><g class="link" data-entity-1="1" data-entity-2="2" data-source-line="27" data-uid="lnk6" id="link_1_2"><path d="M159.0703,333.0938 C122.2503,345.3638 58.5703,366.5938 58.5703,366.5938 C58.5703,366.5938 52.5955,422.6275 48.8055,458.2275" fill="none" id="1-to-2" style="stroke:#008000;stroke-width:1;"/><polygon fill="#008000" points="48.1703,464.1938,53.1006,455.6678,48.6996,459.2218,45.1456,454.8209,48.1703,464.1938" style="stroke:#008000;stroke-width:1;"/><path d="M63.5703,371.5938 L63.5703,441.5938 L304.5703,441.5938 L304.5703,381.5938 L294.5703,371.5938 L63.5703,371.5938" fill="#F5F5F5" style="stroke:#181818;stroke-width:0.5;"/><path d="M294.5703,371.5938 L294.5703,381.5938 L304.5703,381.5938 L294.5703,371.5938" fill="#F5F5F5" style="stroke:#181818;stroke-width:0.5;"/><text fill="#000000" font-family="sans-serif" font-size="13" font-weight="bold" lengthAdjust="spacing" textLength="220.5874" x="69.5703" y="388.6606">Sistema requiere Par&#225;metros:</text><text fill="#000000" font-family="sans-serif" font-size="13" lengthAdjust="spacing" textLength="56.8306" x="69.5703" y="403.7935">- funcion</text><text fill="#000000" font-family="sans-serif" font-size="13" lengthAdjust="spacing" textLength="16.7896" x="69.5703" y="418.9263">- a</text><text fill="#000000" font-family="sans-serif" font-size="13" lengthAdjust="spacing" textLength="17.0752" x="69.5703" y="434.0591">- b</text></g><!--link 2 to 3--><g class="link" data-entity-1="2" data-entity-2="3" data-source-line="34" data-uid="lnk7" id="link_2_3"><path d="M39.1703,515.0238 C36.7503,524.2638 34.5703,532.5938 34.5703,532.5938 C34.5703,532.5938 34.5703,612.5938 34.5703,612.5938 C34.5703,612.5938 106.0604,633.4434 147.4004,645.5034" fill="none" id="2-to-3" style="stroke:#008000;stroke-width:1;"/><polygon fill="#008000" points="153.1603,647.1838,145.6407,640.8233,148.3604,645.7835,143.4002,648.5032,153.1603,647.1838" style="stroke:#008000;stroke-width:1;"/><path d="M39.5703,537.5938 L39.5703,607.5938 L304.5703,607.5938 L304.5703,547.5938 L294.5703,537.5938 L39.5703,537.5938" fill="#F5F5F5" style="stroke:#181818;stroke-width:0.5;"/><path d="M294.5703,537.5938 L294.5703,547.5938 L304.5703,547.5938 L294.5703,537.5938" fill="#F5F5F5" style="stroke:#181818;stroke-width:0.5;"/><text fill="#000000" font-family="sans-serif" font-size="13" font-weight="bold" lengthAdjust="spacing" textLength="244.1499" x="45.5703" y="554.6606">Usuario Proporciona Par&#225;metros:</text><text fill="#000000" font-family="sans-serif" font-size="13" lengthAdjust="spacing" textLength="56.8306" x="53.835" y="569.7935">- funcion</text><text fill="#000000" font-family="sans-serif" font-size="13" lengthAdjust="spacing" textLength="16.7896" x="53.835" y="584.9263">- a</text><text fill="#000000" font-family="sans-serif" font-size="13" lengthAdjust="spacing" textLength="17.0752" x="53.835" y="600.0591">- b</text></g><!--link 3 to 1--><g class="link" data-entity-1="3" data-entity-2="1" data-source-line="41" data-uid="lnk8" id="link_3_1"><path d="M203.8303,646.4938 C241.9003,634.2938 309.5703,612.5938 309.5703,612.5938 C309.5703,612.5938 309.5703,366.5938 309.5703,366.5938 C309.5703,366.5938 252.0779,347.2747 215.5579,335.0047" fill="none" id="3-to-1" style="stroke:#FF0000;stroke-width:1;"/><polygon fill="#FF0000" points="209.8703,333.0938,217.1277,339.7518,214.61,334.6862,219.6756,332.1684,209.8703,333.0938" style="stroke:#FF0000;stroke-width:1;"/><path d="M314.5703,469.5938 L314.5703,509.5938 L419.5703,509.5938 L419.5703,479.5938 L409.5703,469.5938 L314.5703,469.5938" fill="#F5F5F5" style="stroke:#181818;stroke-width:0.5;"/><path d="M409.5703,469.5938 L409.5703,479.5938 L419.5703,479.5938 L409.5703,469.5938" fill="#F5F5F5" style="stroke:#181818;stroke-width:0.5;"/><text fill="#000000" font-family="sans-serif" font-size="13" lengthAdjust="spacing" textLength="80.0186" x="320.5703" y="486.6606">[Par&#225;metros</text><text fill="#000000" font-family="sans-serif" font-size="13" lengthAdjust="spacing" textLength="63.0068" x="328.835" y="501.7935">Inv&#225;lidos]</text></g><!--link 3 to *end*crear_newton_cotes_c3--><g class="link" data-entity-1="3" data-entity-2="*end*crear_newton_cotes_c3" data-source-line="46" data-uid="lnk10" id="link_3_*end*crear_newton_cotes_c3"><path d="M178.5703,681.0238 C178.5703,693.3838 178.5703,701.7238 178.5703,711.1938" fill="none" id="3-to-*end*crear_newton_cotes_c3" style="stroke:#008000;stroke-width:1;"/><polygon fill="#008000" points="178.5703,717.1938,182.5703,708.1938,178.5703,712.1938,174.5703,708.1938,178.5703,717.1938" style="stroke:#008000;stroke-width:1;"/></g><g id="NEWTON_COTES_C3"><rect fill="#FAF4B4" height="50" rx="12.5" ry="12.5" style="stroke:#C90000;stroke-width:0.5;" width="162.9668" x="137.0903" y="44.2969"/><line style="stroke:#C90000;stroke-width:0.5;" x1="137.0903" x2="300.0571" y1="70.5938" y2="70.5938"/><text fill="#000000" font-family="sans-serif" font-size="14" lengthAdjust="spacing" textLength="142.9668" x="147.0903" y="62.292">NEWTON_COTES_C3</text></g><g id=":abrirResultadoNewtonCotesC3"><rect fill="#FAF4B4" height="50" rx="12.5" ry="12.5" style="stroke:#C90000;stroke-width:0.5;" width="239.3857" x="98.8803" y="810.5969"/><line style="stroke:#C90000;stroke-width:0.5;" x1="98.8803" x2="338.2661" y1="836.8938" y2="836.8938"/><text fill="#000000" font-family="sans-serif" font-size="14" lengthAdjust="spacing" textLength="219.3857" x="108.8803" y="828.592">:abrirResultadoNewtonCotesC3</text></g><g id="RESULTADO_NEWTON_COTES_C3"><rect fill="#FAF4B4" height="50" rx="12.5" ry="12.5" style="stroke:#C90000;stroke-width:0.5;" width="255.4023" x="90.8703" y="921.5969"/><line style="stroke:#C90000;stroke-width:0.5;" x1="90.8703" x2="346.2727" y1="947.8938" y2="947.8938"/><text fill="#000000" font-family="sans-serif" font-size="14" lengthAdjust="spacing" textLength="235.4023" x="100.8703" y="939.592">RESULTADO_NEWTON_COTES_C3</text></g><!--link NEWTON_COTES_C3 to crear_newton_cotes_c3--><g class="link" data-entity-1="NEWTON_COTES_C3" data-entity-2="crear_newton_cotes_c3" data-source-line="15" data-uid="lnk3" id="link_NEWTON_COTES_C3_crear_newton_cotes_c3"><path d="M218.5703,94.7569 C218.5703,118.9969 218.5703,152.9569 218.5703,198.0869" fill="none" id="NEWTON_COTES_C3-to-crear_newton_cotes_c3" style="stroke:#008000;stroke-width:1;"/><polygon fill="#008000" points="218.5703,204.0869,222.5703,195.0869,218.5703,199.0869,214.5703,195.0869,218.5703,204.0869" style="stroke:#008000;stroke-width:1;"/><path d="M223.5703,129.2969 L223.5703,169.2969 L534.5703,169.2969 L534.5703,139.2969 L524.5703,129.2969 L223.5703,129.2969" fill="#F5F5F5" style="stroke:#181818;stroke-width:0.5;"/><path d="M524.5703,129.2969 L524.5703,139.2969 L534.5703,139.2969 L524.5703,129.2969" fill="#F5F5F5" style="stroke:#181818;stroke-width:0.5;"/><text fill="#000000" font-family="sans-serif" font-size="13" font-weight="bold" lengthAdjust="spacing" textLength="118.5742" x="229.5703" y="146.3638">Usuario solicita:</text><text fill="#000000" font-family="sans-serif" font-size="13" lengthAdjust="spacing" textLength="290.2212" x="229.5703" y="161.4966">- Crear operaci&#243;n newton cotes cerrado n=3</text></g><!--link crear_newton_cotes_c3 to :abrirResultadoNewtonCotesC3--><g class="link" data-entity-1="crear_newton_cotes_c3" data-entity-2=":abrirResultadoNewtonCotesC3" data-source-line="50" data-uid="lnk12" id="link_crear_newton_cotes_c3_:abrirResultadoNewtonCotesC3"><path d="M218.5703,750.0769 C218.5703,774.2969 218.5703,789.2869 218.5703,804.2869" fill="none" id="crear_newton_cotes_c3-to-:abrirResultadoNewtonCotesC3" style="stroke:#008000;stroke-width:1;"/><polygon fill="#008000" points="218.5703,810.2869,222.5703,801.2869,218.5703,805.2869,214.5703,801.2869,218.5703,810.2869" style="stroke:#008000;stroke-width:1;"/></g><!--link :abrirResultadoNewtonCotesC3 to RESULTADO_NEWTON_COTES_C3--><g class="link" data-entity-1=":abrirResultadoNewtonCotesC3" data-entity-2="RESULTADO_NEWTON_COTES_C3" data-source-line="52" data-uid="lnk14" id="link_:abrirResultadoNewtonCotesC3_RESULTADO_NEWTON_COTES_C3"><path d="M218.5703,861.0569 C218.5703,879.0069 218.5703,897.2869 218.5703,915.2169" fill="none" id=":abrirResultadoNewtonCotesC3-to-RESULTADO_NEWTON_COTES_C3" style="stroke:#008000;stroke-width:1;"/><polygon fill="#008000" points="218.5703,921.2169,222.5703,912.2169,218.5703,916.2169,214.5703,912.2169,218.5703,921.2169" style="stroke:#008000;stroke-width:1;"/></g><!--SRC=[fLB1QXin4BthAuRajc28i-cXWGIQjG-5OeVOfWTZbh5sR8JNqdQaRGcb7vDlw2VunpfQE-kDw_HIxOAaDz9xRqRZDyPMoBW57p0G_5G03wWtQtQrBJ9NEeRB5QvkbZSnuhWWFg3wuvKCzKiftv9Ozox7X_YzFLqQI-6v8gXS-HmtIWKJIe811Inbpj0xA0XcCcLCo32kY56RtMyB8_eHd8LC93ran8o50tkNAgL6mw_JyIZFnjFX9C_ItlnopKHsqRi77MboszpDTRoRwrGrleLCJ6p4VPBCV8ri77XN6cq2tYQ9uBs32tTqiMU2XWbqnmNPeYc79DnKzgnmBDK-t0VqS04NBN1z2gH7GFvvie1kNdt1-c-GQq5EyeeZIIR61zeYC7sh3J718_BkPKk1dT_d6KSFLhNLnjbsZ-rgAQisFn2hNTtqdEwnee_iAiUH6FzRE8t2JCLh0VwIdNSKuC3osNxVlPIcS7vnXgrDGmgiOhkUVRVkmLjSik4dydKPvF7tRTbqPIQz-Azeb-LfE9bzcNuQZFEJvlq3]--></g></svg>