<svg xmlns="http://www.w3.org/2000/svg" xmlns:xlink="http://www.w3.org/1999/xlink" contentStyleType="text/css" data-diagram-type="STATE" height="917px" preserveAspectRatio="none" style="width:476px;height:917px;background:#FFFFFF;" version="1.1" viewBox="0 0 476 917" width="476px" zoomAndPan="magnify"><title>Detalle Caso de Uso Abrir Regla Punto Medio Compuesta</title><defs/><g><g class="title" data-source-line="12"><text fill="#000000" font-family="sans-serif" font-size="14" font-weight="bold" lengthAdjust="spacing" textLength="448.6631" x="10" y="22.9951">Detalle Caso de Uso Abrir Regla Punto Medio Compuesta</text></g><path d="M30.3315,204.2969 L359.3315,204.2969 A12.5,12.5 0 0 1 371.8315,216.7969 L371.8315,230.5938 L17.8315,230.5938 L17.8315,216.7969 A12.5,12.5 0 0 1 30.3315,204.2969" fill="#FAF4B4"/><rect fill="none" height="485.2969" rx="12.5" ry="12.5" style="stroke:#C90000;stroke-width:0.5;" width="354" x="17.8315" y="204.2969"/><line style="stroke:#C90000;stroke-width:0.5;" x1="17.8315" x2="371.8315" y1="230.5938" y2="230.5938"/><text fill="#000000" font-family="sans-serif" font-size="14" lengthAdjust="spacing" textLength="215.7832" x="86.9399" y="222.292">abrir_punto_medio_compuesta</text><g id="abrir_punto_medio_compuesta.1"><rect fill="#FAF4B4" height="50" rx="12.5" ry="12.5" style="stroke:#C90000;stroke-width:0.5;" width="50" x="29.8315" y="298.5938"/><line style="stroke:#C90000;stroke-width:0.5;" x1="29.8315" x2="79.8315" y1="324.8906" y2="324.8906"/><text fill="#000000" font-family="sans-serif" font-size="14" lengthAdjust="spacing" textLength="4.4502" x="52.6064" y="316.5889">&#160;</text></g><g id="abrir_punto_medio_compuesta.2"><rect fill="#FAF4B4" height="50" rx="12.5" ry="12.5" style="stroke:#C90000;stroke-width:0.5;" width="50" x="29.8315" y="434.5938"/><line style="stroke:#C90000;stroke-width:0.5;" x1="29.8315" x2="79.8315" y1="460.8906" y2="460.8906"/><text fill="#000000" font-family="sans-serif" font-size="14" lengthAdjust="spacing" textLength="4.4502" x="52.6064" y="452.5889">&#160;</text></g><g id="abrir_punto_medio_compuesta.3"><rect fill="#FAF4B4" height="50" rx="12.5" ry="12.5" style="stroke:#C90000;stroke-width:0.5;" width="50" x="29.8315" y="570.5938"/><line style="stroke:#C90000;stroke-width:0.5;" x1="29.8315" x2="79.8315" y1="596.8906" y2="596.8906"/><text fill="#000000" font-family="sans-serif" font-size="14" lengthAdjust="spacing" textLength="4.4502" x="52.6064" y="588.5889">&#160;</text></g><ellipse cx="54.8315" cy="251.5938" fill="#222222" rx="10" ry="10" style="stroke:#222222;stroke-width:1;"/><ellipse cx="54.8315" cy="668.5938" fill="none" rx="11" ry="11" style="stroke:#222222;stroke-width:1;"/><ellipse cx="54.8315" cy="668.5938" fill="#222222" rx="6" ry="6" style="stroke:#222222;stroke-width:1;"/><!--link *start*abrir_punto_medio_compuesta to 1--><g class="link" data-entity-1=".start.abrir_punto_medio_compuesta" data-entity-2="1" data-source-line="26" data-uid="lnk5" id="link_.start.abrir_punto_medio_compuesta_1"><path d="M54.8315,262.0338 C54.8315,271.2938 54.8315,279.7838 54.8315,292.2738" fill="none" id="*start*abrir_punto_medio_compuesta-to-1" style="stroke:#008000;stroke-width:1;"/><polygon fill="#008000" points="54.8315,298.2738,58.8315,289.2738,54.8315,293.2738,50.8315,289.2738,54.8315,298.2738" style="stroke:#008000;stroke-width:1;"/></g><!--link 1 to 2--><g class="link" data-entity-1="1" data-entity-2="2" data-source-line="27" data-uid="lnk6" id="link_1_2"><path d="M54.8315,348.8638 C54.8315,373.1438 54.8315,404.2838 54.8315,428.5037" fill="none" id="1-to-2" style="stroke:#008000;stroke-width:1;"/><polygon fill="#008000" points="54.8315,434.5037,58.8315,425.5037,54.8315,429.5037,50.8315,425.5037,54.8315,434.5037" style="stroke:#008000;stroke-width:1;"/><path d="M59.8315,371.5938 L59.8315,411.5938 L362.8315,411.5938 L362.8315,381.5938 L352.8315,371.5938 L59.8315,371.5938" fill="#F5F5F5" style="stroke:#181818;stroke-width:0.5;"/><path d="M352.8315,371.5938 L352.8315,381.5938 L362.8315,381.5938 L352.8315,371.5938" fill="#F5F5F5" style="stroke:#181818;stroke-width:0.5;"/><text fill="#000000" font-family="sans-serif" font-size="13" font-weight="bold" lengthAdjust="spacing" textLength="130.9204" x="65.8315" y="388.6606">Sistema requiere:</text><text fill="#000000" font-family="sans-serif" font-size="13" lengthAdjust="spacing" textLength="282.4199" x="65.8315" y="403.7935">- M&#233;todo punto medio compuesto conocido</text></g><!--link 2 to 3--><g class="link" data-entity-1="2" data-entity-2="3" data-source-line="32" data-uid="lnk7" id="link_2_3"><path d="M54.8315,484.8638 C54.8315,509.1438 54.8315,540.2838 54.8315,564.5038" fill="none" id="2-to-3" style="stroke:#008000;stroke-width:1;"/><polygon fill="#008000" points="54.8315,570.5038,58.8315,561.5038,54.8315,565.5038,50.8315,561.5038,54.8315,570.5038" style="stroke:#008000;stroke-width:1;"/><path d="M59.8315,507.5938 L59.8315,547.5938 L362.8315,547.5938 L362.8315,517.5938 L352.8315,507.5938 L59.8315,507.5938" fill="#F5F5F5" style="stroke:#181818;stroke-width:0.5;"/><path d="M352.8315,507.5938 L352.8315,517.5938 L362.8315,517.5938 L352.8315,507.5938" fill="#F5F5F5" style="stroke:#181818;stroke-width:0.5;"/><text fill="#000000" font-family="sans-serif" font-size="13" font-weight="bold" lengthAdjust="spacing" textLength="139.5596" x="65.8315" y="524.6606">Cliente Selecciona:</text><text fill="#000000" font-family="sans-serif" font-size="13" lengthAdjust="spacing" textLength="282.4199" x="65.8315" y="539.7935">- M&#233;todo punto medio compuesto conocido</text></g><!--link 3 to *end*abrir_punto_medio_compuesta--><g class="link" data-entity-1="3" data-entity-2=".end.abrir_punto_medio_compuesta" data-source-line="38" data-uid="lnk9" id="link_3_.end.abrir_punto_medio_compuesta"><path d="M54.8315,621.0238 C54.8315,633.3838 54.8315,641.7238 54.8315,651.1938" fill="none" id="3-to-*end*abrir_punto_medio_compuesta" style="stroke:#008000;stroke-width:1;"/><polygon fill="#008000" points="54.8315,657.1938,58.8315,648.1938,54.8315,652.1938,50.8315,648.1938,54.8315,657.1938" style="stroke:#008000;stroke-width:1;"/></g><g id="DIFERENCIACION_NUMERICA_E_INTEGRACION"><rect fill="#FAF4B4" height="50" rx="12.5" ry="12.5" style="stroke:#C90000;stroke-width:0.5;" width="341.9795" x="23.8415" y="44.2969"/><line style="stroke:#C90000;stroke-width:0.5;" x1="23.8415" x2="365.821" y1="70.5938" y2="70.5938"/><text fill="#000000" font-family="sans-serif" font-size="14" lengthAdjust="spacing" textLength="321.9795" x="33.8415" y="62.292">DIFERENCIACION_NUMERICA_E_INTEGRACION</text></g><g id=".abrirPuntoMedioCompuesta"><rect fill="#FAF4B4" height="50" rx="12.5" ry="12.5" style="stroke:#C90000;stroke-width:0.5;" width="219.5752" x="85.0415" y="750.5969"/><line style="stroke:#C90000;stroke-width:0.5;" x1="85.0415" x2="304.6167" y1="776.8938" y2="776.8938"/><text fill="#000000" font-family="sans-serif" font-size="14" lengthAdjust="spacing" textLength="199.5752" x="95.0415" y="768.592">:abrirPuntoMedioCompuesta</text></g><g id="PUNTO_MEDIO_COMPUESTA"><rect fill="#FAF4B4" height="50" rx="12.5" ry="12.5" style="stroke:#C90000;stroke-width:0.5;" width="217.0117" x="86.3215" y="861.5969"/><line style="stroke:#C90000;stroke-width:0.5;" x1="86.3215" x2="303.3333" y1="887.8938" y2="887.8938"/><text fill="#000000" font-family="sans-serif" font-size="14" lengthAdjust="spacing" textLength="197.0117" x="96.3215" y="879.592">PUNTO_MEDIO_COMPUESTA</text></g><!--link DIFERENCIACION_NUMERICA_E_INTEGRACION to abrir_punto_medio_compuesta--><g class="link" data-entity-1="DIFERENCIACION_NUMERICA_E_INTEGRACION" data-entity-2="abrir_punto_medio_compuesta" data-source-line="15" data-uid="lnk3" id="link_DIFERENCIACION_NUMERICA_E_INTEGRACION_abrir_punto_medio_compuesta"><path d="M194.8315,94.6569 C194.8315,119.0469 194.8315,153.2969 194.8315,198.0169" fill="none" id="DIFERENCIACION_NUMERICA_E_INTEGRACION-to-abrir_punto_medio_compuesta" style="stroke:#008000;stroke-width:1;"/><polygon fill="#008000" points="194.8315,204.0169,198.8315,195.0169,194.8315,199.0169,190.8315,195.0169,194.8315,204.0169" style="stroke:#008000;stroke-width:1;"/><path d="M199.8315,129.2969 L199.8315,169.2969 L464.8315,169.2969 L464.8315,139.2969 L454.8315,129.2969 L199.8315,129.2969" fill="#F5F5F5" style="stroke:#181818;stroke-width:0.5;"/><path d="M454.8315,129.2969 L454.8315,139.2969 L464.8315,139.2969 L454.8315,129.2969" fill="#F5F5F5" style="stroke:#181818;stroke-width:0.5;"/><text fill="#000000" font-family="sans-serif" font-size="13" font-weight="bold" lengthAdjust="spacing" textLength="114.0103" x="205.8315" y="146.3638">Cliente solicita:</text><text fill="#000000" font-family="sans-serif" font-size="13" lengthAdjust="spacing" textLength="244.0801" x="205.8315" y="161.4966">- Abrir Regla Punto Medio Compuesta</text></g><!--link abrir_punto_medio_compuesta to :abrirPuntoMedioCompuesta--><g class="link" data-entity-1="abrir_punto_medio_compuesta" data-entity-2=".abrirPuntoMedioCompuesta" data-source-line="41" data-uid="lnk11" id="link_abrir_punto_medio_compuesta_.abrirPuntoMedioCompuesta"><path d="M194.8315,690.0569 C194.8315,714.2169 194.8315,729.3469 194.8315,744.4469" fill="none" id="abrir_punto_medio_compuesta-to-:abrirPuntoMedioCompuesta" style="stroke:#008000;stroke-width:1;"/><polygon fill="#008000" points="194.8315,750.4469,198.8315,741.4469,194.8315,745.4469,190.8315,741.4469,194.8315,750.4469" style="stroke:#008000;stroke-width:1;"/></g><!--link :abrirPuntoMedioCompuesta to PUNTO_MEDIO_COMPUESTA--><g class="link" data-entity-1=".abrirPuntoMedioCompuesta" data-entity-2="PUNTO_MEDIO_COMPUESTA" data-source-line="43" data-uid="lnk13" id="link_.abrirPuntoMedioCompuesta_PUNTO_MEDIO_COMPUESTA"><path d="M194.8315,801.0569 C194.8315,819.0069 194.8315,837.2869 194.8315,855.2169" fill="none" id=":abrirPuntoMedioCompuesta-to-PUNTO_MEDIO_COMPUESTA" style="stroke:#008000;stroke-width:1;"/><polygon fill="#008000" points="194.8315,861.2169,198.8315,852.2169,194.8315,856.2169,190.8315,852.2169,194.8315,861.2169" style="stroke:#008000;stroke-width:1;"/></g><!--SRC=[dLBTIiCm5BxFKnpqhZ1mJY_SXL2xAhreDxhjQaY9xN64fJarpIw6-40-XozcahdPYHjYMaZpvVJxEKcx4ghXcjVG6cuGNXd07IzNIqrhLKKaISFvCt- -UhfoEwGhr5zeUNDX1tjZhDsJA3hASUsUmsef59fDWz2GtBW5OqOOYJ12mwMT8zuIL0XpEuLFMcZ8SIavJDRA4AHO2OA8wcQDrZrZR9JSntcSHKaO9UEioEPfd2THMCH5aitYXzp3lSNvKYEgnzujS4TQD8wkg1rTKUxfV1PIpkNA9Wg2I0fK5cj9Yb8OFWm2Y_V-u0nLvLjZm_ikdv1rpTiMzO6tS0PdU-3o9p3u1kox21wXcwrliVu1SccH7wdS28AfQ0tM73I-h0Lgt2PpemVfnxkXYi2x1UyMTcxTbw9IL6JBzo71EktA3dwJ_Mxd52MMfI35TxB_4hMBmO6ixOUxRYTwtQqU-Zf_VFxqEjVgw5Rt_yaycusBD1ubuo8QfvDvF9s5dm00]--></g></svg>