<svg xmlns="http://www.w3.org/2000/svg" xmlns:xlink="http://www.w3.org/1999/xlink" contentStyleType="text/css" data-diagram-type="STATE" height="917px" preserveAspectRatio="none" style="width:433px;height:917px;background:#FFFFFF;" version="1.1" viewBox="0 0 433 917" width="433px" zoomAndPan="magnify"><title>Detalle Caso de Uso Abrir Integral Doble Gaussiana</title><defs/><g><g class="title" data-source-line="12"><text fill="#000000" font-family="sans-serif" font-size="14" font-weight="bold" lengthAdjust="spacing" textLength="405.7607" x="10" y="22.9951">Detalle Caso de Uso Abrir Integral Doble Gaussiana</text></g><path d="M26.3804,204.2969 L357.3804,204.2969 A12.5,12.5 0 0 1 369.8804,216.7969 L369.8804,230.5938 L13.8804,230.5938 L13.8804,216.7969 A12.5,12.5 0 0 1 26.3804,204.2969" fill="#FAF4B4"/><rect fill="none" height="485.2969" rx="12.5" ry="12.5" style="stroke:#C90000;stroke-width:0.5;" width="356" x="13.8804" y="204.2969"/><line style="stroke:#C90000;stroke-width:0.5;" x1="13.8804" x2="369.8804" y1="230.5938" y2="230.5938"/><text fill="#000000" font-family="sans-serif" font-size="14" lengthAdjust="spacing" textLength="217.5332" x="83.1138" y="222.292">abrir_integral_doble_gaussiana</text><g id="abrir_integral_doble_gaussiana.1"><rect fill="#FAF4B4" height="50" rx="12.5" ry="12.5" style="stroke:#C90000;stroke-width:0.5;" width="50" x="25.8804" y="298.5938"/><line style="stroke:#C90000;stroke-width:0.5;" x1="25.8804" x2="75.8804" y1="324.8906" y2="324.8906"/><text fill="#000000" font-family="sans-serif" font-size="14" lengthAdjust="spacing" textLength="4.4502" x="48.6553" y="316.5889">&#160;</text></g><g id="abrir_integral_doble_gaussiana.2"><rect fill="#FAF4B4" height="50" rx="12.5" ry="12.5" style="stroke:#C90000;stroke-width:0.5;" width="50" x="25.8804" y="434.5938"/><line style="stroke:#C90000;stroke-width:0.5;" x1="25.8804" x2="75.8804" y1="460.8906" y2="460.8906"/><text fill="#000000" font-family="sans-serif" font-size="14" lengthAdjust="spacing" textLength="4.4502" x="48.6553" y="452.5889">&#160;</text></g><g id="abrir_integral_doble_gaussiana.3"><rect fill="#FAF4B4" height="50" rx="12.5" ry="12.5" style="stroke:#C90000;stroke-width:0.5;" width="50" x="25.8804" y="570.5938"/><line style="stroke:#C90000;stroke-width:0.5;" x1="25.8804" x2="75.8804" y1="596.8906" y2="596.8906"/><text fill="#000000" font-family="sans-serif" font-size="14" lengthAdjust="spacing" textLength="4.4502" x="48.6553" y="588.5889">&#160;</text></g><ellipse cx="50.8804" cy="251.5938" fill="#222222" rx="10" ry="10" style="stroke:#222222;stroke-width:1;"/><ellipse cx="50.8804" cy="668.5938" fill="none" rx="11" ry="11" style="stroke:#222222;stroke-width:1;"/><ellipse cx="50.8804" cy="668.5938" fill="#222222" rx="6" ry="6" style="stroke:#222222;stroke-width:1;"/><!--link *start*abrir_integral_doble_gaussiana to 1--><g class="link" data-entity-1=".start.abrir_integral_doble_gaussiana" data-entity-2="1" data-source-line="26" data-uid="lnk5" id="link_.start.abrir_integral_doble_gaussiana_1"><path d="M50.8804,262.0338 C50.8804,271.2938 50.8804,279.7838 50.8804,292.2738" fill="none" id="*start*abrir_integral_doble_gaussiana-to-1" style="stroke:#008000;stroke-width:1;"/><polygon fill="#008000" points="50.8804,298.2738,54.8804,289.2738,50.8804,293.2738,46.8804,289.2738,50.8804,298.2738" style="stroke:#008000;stroke-width:1;"/></g><!--link 1 to 2--><g class="link" data-entity-1="1" data-entity-2="2" data-source-line="27" data-uid="lnk6" id="link_1_2"><path d="M50.8804,348.8638 C50.8804,373.1438 50.8804,404.2838 50.8804,428.5037" fill="none" id="1-to-2" style="stroke:#008000;stroke-width:1;"/><polygon fill="#008000" points="50.8804,434.5037,54.8804,425.5037,50.8804,429.5037,46.8804,425.5037,50.8804,434.5037" style="stroke:#008000;stroke-width:1;"/><path d="M55.8804,371.5938 L55.8804,411.5938 L360.8804,411.5938 L360.8804,381.5938 L350.8804,371.5938 L55.8804,371.5938" fill="#F5F5F5" style="stroke:#181818;stroke-width:0.5;"/><path d="M350.8804,371.5938 L350.8804,381.5938 L360.8804,381.5938 L350.8804,371.5938" fill="#F5F5F5" style="stroke:#181818;stroke-width:0.5;"/><text fill="#000000" font-family="sans-serif" font-size="13" font-weight="bold" lengthAdjust="spacing" textLength="130.9204" x="61.8804" y="388.6606">Sistema requiere:</text><text fill="#000000" font-family="sans-serif" font-size="13" lengthAdjust="spacing" textLength="284.0576" x="61.8804" y="403.7935">- M&#233;todo integral doble gaussiana conocido</text></g><!--link 2 to 3--><g class="link" data-entity-1="2" data-entity-2="3" data-source-line="32" data-uid="lnk7" id="link_2_3"><path d="M50.8804,484.8638 C50.8804,509.1438 50.8804,540.2838 50.8804,564.5038" fill="none" id="2-to-3" style="stroke:#008000;stroke-width:1;"/><polygon fill="#008000" points="50.8804,570.5038,54.8804,561.5038,50.8804,565.5038,46.8804,561.5038,50.8804,570.5038" style="stroke:#008000;stroke-width:1;"/><path d="M55.8804,507.5938 L55.8804,547.5938 L360.8804,547.5938 L360.8804,517.5938 L350.8804,507.5938 L55.8804,507.5938" fill="#F5F5F5" style="stroke:#181818;stroke-width:0.5;"/><path d="M350.8804,507.5938 L350.8804,517.5938 L360.8804,517.5938 L350.8804,507.5938" fill="#F5F5F5" style="stroke:#181818;stroke-width:0.5;"/><text fill="#000000" font-family="sans-serif" font-size="13" font-weight="bold" lengthAdjust="spacing" textLength="139.5596" x="61.8804" y="524.6606">Cliente Selecciona:</text><text fill="#000000" font-family="sans-serif" font-size="13" lengthAdjust="spacing" textLength="284.0576" x="61.8804" y="539.7935">- M&#233;todo integral doble gaussiana conocido</text></g><!--link 3 to *end*abrir_integral_doble_gaussiana--><g class="link" data-entity-1="3" data-entity-2=".end.abrir_integral_doble_gaussiana" data-source-line="38" data-uid="lnk9" id="link_3_.end.abrir_integral_doble_gaussiana"><path d="M50.8804,621.0238 C50.8804,633.3838 50.8804,641.7238 50.8804,651.1938" fill="none" id="3-to-*end*abrir_integral_doble_gaussiana" style="stroke:#008000;stroke-width:1;"/><polygon fill="#008000" points="50.8804,657.1938,54.8804,648.1938,50.8804,652.1938,46.8804,648.1938,50.8804,657.1938" style="stroke:#008000;stroke-width:1;"/></g><g id="DIFERENCIACION_NUMERICA_E_INTEGRACION"><rect fill="#FAF4B4" height="50" rx="12.5" ry="12.5" style="stroke:#C90000;stroke-width:0.5;" width="341.9795" x="20.8904" y="44.2969"/><line style="stroke:#C90000;stroke-width:0.5;" x1="20.8904" x2="362.8699" y1="70.5938" y2="70.5938"/><text fill="#000000" font-family="sans-serif" font-size="14" lengthAdjust="spacing" textLength="321.9795" x="30.8904" y="62.292">DIFERENCIACION_NUMERICA_E_INTEGRACION</text></g><g id=".abrirIntegralDobleGaussiana"><rect fill="#FAF4B4" height="50" rx="12.5" ry="12.5" style="stroke:#C90000;stroke-width:0.5;" width="225.3447" x="79.2104" y="750.5969"/><line style="stroke:#C90000;stroke-width:0.5;" x1="79.2104" x2="304.5551" y1="776.8938" y2="776.8938"/><text fill="#000000" font-family="sans-serif" font-size="14" lengthAdjust="spacing" textLength="205.3447" x="89.2104" y="768.592">:abrirIntegralDobleGaussiana</text></g><g id="INTEGRAL_DOBLE_GAUSSIANA"><rect fill="#FAF4B4" height="50" rx="12.5" ry="12.5" style="stroke:#C90000;stroke-width:0.5;" width="234.2041" x="74.7804" y="861.5969"/><line style="stroke:#C90000;stroke-width:0.5;" x1="74.7804" x2="308.9845" y1="887.8938" y2="887.8938"/><text fill="#000000" font-family="sans-serif" font-size="14" lengthAdjust="spacing" textLength="214.2041" x="84.7804" y="879.592">INTEGRAL_DOBLE_GAUSSIANA</text></g><!--link DIFERENCIACION_NUMERICA_E_INTEGRACION to abrir_integral_doble_gaussiana--><g class="link" data-entity-1="DIFERENCIACION_NUMERICA_E_INTEGRACION" data-entity-2="abrir_integral_doble_gaussiana" data-source-line="15" data-uid="lnk3" id="link_DIFERENCIACION_NUMERICA_E_INTEGRACION_abrir_integral_doble_gaussiana"><path d="M191.8804,94.6569 C191.8804,119.0469 191.8804,153.2969 191.8804,198.0169" fill="none" id="DIFERENCIACION_NUMERICA_E_INTEGRACION-to-abrir_integral_doble_gaussiana" style="stroke:#008000;stroke-width:1;"/><polygon fill="#008000" points="191.8804,204.0169,195.8804,195.0169,191.8804,199.0169,187.8804,195.0169,191.8804,204.0169" style="stroke:#008000;stroke-width:1;"/><path d="M196.8804,129.2969 L196.8804,169.2969 L425.8804,169.2969 L425.8804,139.2969 L415.8804,129.2969 L196.8804,129.2969" fill="#F5F5F5" style="stroke:#181818;stroke-width:0.5;"/><path d="M415.8804,129.2969 L415.8804,139.2969 L425.8804,139.2969 L415.8804,129.2969" fill="#F5F5F5" style="stroke:#181818;stroke-width:0.5;"/><text fill="#000000" font-family="sans-serif" font-size="13" font-weight="bold" lengthAdjust="spacing" textLength="114.0103" x="202.8804" y="146.3638">Cliente solicita:</text><text fill="#000000" font-family="sans-serif" font-size="13" lengthAdjust="spacing" textLength="208.4443" x="202.8804" y="161.4966">- Abrir Integral Doble Gaussiana</text></g><!--link abrir_integral_doble_gaussiana to :abrirIntegralDobleGaussiana--><g class="link" data-entity-1="abrir_integral_doble_gaussiana" data-entity-2=".abrirIntegralDobleGaussiana" data-source-line="41" data-uid="lnk11" id="link_abrir_integral_doble_gaussiana_.abrirIntegralDobleGaussiana"><path d="M191.8804,690.0569 C191.8804,714.2169 191.8804,729.3469 191.8804,744.4469" fill="none" id="abrir_integral_doble_gaussiana-to-:abrirIntegralDobleGaussiana" style="stroke:#008000;stroke-width:1;"/><polygon fill="#008000" points="191.8804,750.4469,195.8804,741.4469,191.8804,745.4469,187.8804,741.4469,191.8804,750.4469" style="stroke:#008000;stroke-width:1;"/></g><!--link :abrirIntegralDobleGaussiana to INTEGRAL_DOBLE_GAUSSIANA--><g class="link" data-entity-1=".abrirIntegralDobleGaussiana" data-entity-2="INTEGRAL_DOBLE_GAUSSIANA" data-source-line="43" data-uid="lnk13" id="link_.abrirIntegralDobleGaussiana_INTEGRAL_DOBLE_GAUSSIANA"><path d="M191.8804,801.0569 C191.8804,819.0069 191.8804,837.2869 191.8804,855.2169" fill="none" id=":abrirIntegralDobleGaussiana-to-INTEGRAL_DOBLE_GAUSSIANA" style="stroke:#008000;stroke-width:1;"/><polygon fill="#008000" points="191.8804,861.2169,195.8804,852.2169,191.8804,856.2169,187.8804,852.2169,191.8804,861.2169" style="stroke:#008000;stroke-width:1;"/></g><!--SRC=[dL9TQy8m57tFhxZeMw4mF_Om7mQrTbBG2dO-YPJONYKO4vV41ndxGViT-sDBgjOgcuFT5a9ERiwzv-Jg3HCxgkWMjA46uPq0z6c-MIkv5qKekLJGND5LTzbr9r8Lg4ve_lHWWtmGeYiI8N_bU7JVTJPd0irXXx2J_E0sX1XcEC803ULs3QcMK23Cx18i5LCG2uDhHJaCvD8c3EbUQqO59OGCufTe6YLX78Jn9CcIsJYQnc6GHLcSl4R3QGdxy-PQ8Og5_mpKCMRin9WLZZ5RLuob5YbSbnkhoFD2pj0cWvQSvSpGdkTPtF-hCnH5wOjLNbfylwmpxvZN0ggX0OqAQDy2dGjW_xctWBgybiLQLqZR8ZUgN7XUohJ1BGM5Rtk62e_ANFWm_leqif1mRXZAXg5g678fPCuAQMzKKi4sMw_S-QdonT4KEUOvauAUA_-thjrqhYfRLzpGtJUzVg5NffvVitpCsfJTEwspd4Pkb0qc_L6K3ODPciP14dm3]--></g></svg>