<svg xmlns="http://www.w3.org/2000/svg" xmlns:xlink="http://www.w3.org/1999/xlink" contentStyleType="text/css" data-diagram-type="STATE" height="917px" preserveAspectRatio="none" style="width:432px;height:917px;background:#FFFFFF;" version="1.1" viewBox="0 0 432 917" width="432px" zoomAndPan="magnify"><title>Detalle Caso de Uso Abrir Punto Medio 2&#186; Derivada</title><defs/><g><g class="title" data-source-line="12"><text fill="#000000" font-family="sans-serif" font-size="14" font-weight="bold" lengthAdjust="spacing" textLength="404.1816" x="10" y="22.9951">Detalle Caso de Uso Abrir Punto Medio 2&#186; Derivada</text></g><path d="M26.3408,204.2969 L358.3408,204.2969 A12.5,12.5 0 0 1 370.8408,216.7969 L370.8408,230.5938 L13.8408,230.5938 L13.8408,216.7969 A12.5,12.5 0 0 1 26.3408,204.2969" fill="#FAF4B4"/><rect fill="none" height="485.2969" rx="12.5" ry="12.5" style="stroke:#C90000;stroke-width:0.5;" width="357" x="13.8408" y="204.2969"/><line style="stroke:#C90000;stroke-width:0.5;" x1="13.8408" x2="370.8408" y1="230.5938" y2="230.5938"/><text fill="#000000" font-family="sans-serif" font-size="14" lengthAdjust="spacing" textLength="215.5303" x="84.5757" y="222.292">abrir_punto_medio_2_derivada</text><g id="abrir_punto_medio_2_derivada.1"><rect fill="#FAF4B4" height="50" rx="12.5" ry="12.5" style="stroke:#C90000;stroke-width:0.5;" width="50" x="25.8408" y="298.5938"/><line style="stroke:#C90000;stroke-width:0.5;" x1="25.8408" x2="75.8408" y1="324.8906" y2="324.8906"/><text fill="#000000" font-family="sans-serif" font-size="14" lengthAdjust="spacing" textLength="4.4502" x="48.6157" y="316.5889">&#160;</text></g><g id="abrir_punto_medio_2_derivada.2"><rect fill="#FAF4B4" height="50" rx="12.5" ry="12.5" style="stroke:#C90000;stroke-width:0.5;" width="50" x="25.8408" y="434.5938"/><line style="stroke:#C90000;stroke-width:0.5;" x1="25.8408" x2="75.8408" y1="460.8906" y2="460.8906"/><text fill="#000000" font-family="sans-serif" font-size="14" lengthAdjust="spacing" textLength="4.4502" x="48.6157" y="452.5889">&#160;</text></g><g id="abrir_punto_medio_2_derivada.3"><rect fill="#FAF4B4" height="50" rx="12.5" ry="12.5" style="stroke:#C90000;stroke-width:0.5;" width="50" x="25.8408" y="570.5938"/><line style="stroke:#C90000;stroke-width:0.5;" x1="25.8408" x2="75.8408" y1="596.8906" y2="596.8906"/><text fill="#000000" font-family="sans-serif" font-size="14" lengthAdjust="spacing" textLength="4.4502" x="48.6157" y="588.5889">&#160;</text></g><ellipse cx="50.8408" cy="251.5938" fill="#222222" rx="10" ry="10" style="stroke:#222222;stroke-width:1;"/><ellipse cx="50.8408" cy="668.5938" fill="none" rx="11" ry="11" style="stroke:#222222;stroke-width:1;"/><ellipse cx="50.8408" cy="668.5938" fill="#222222" rx="6" ry="6" style="stroke:#222222;stroke-width:1;"/><!--link *start*abrir_punto_medio_2_derivada to 1--><g class="link" data-entity-1=".start.abrir_punto_medio_2_derivada" data-entity-2="1" data-source-line="26" data-uid="lnk5" id="link_.start.abrir_punto_medio_2_derivada_1"><path d="M50.8408,262.0338 C50.8408,271.2938 50.8408,279.7838 50.8408,292.2738" fill="none" id="*start*abrir_punto_medio_2_derivada-to-1" style="stroke:#008000;stroke-width:1;"/><polygon fill="#008000" points="50.8408,298.2738,54.8408,289.2738,50.8408,293.2738,46.8408,289.2738,50.8408,298.2738" style="stroke:#008000;stroke-width:1;"/></g><!--link 1 to 2--><g class="link" data-entity-1="1" data-entity-2="2" data-source-line="27" data-uid="lnk6" id="link_1_2"><path d="M50.8408,348.8638 C50.8408,373.1438 50.8408,404.2838 50.8408,428.5037" fill="none" id="1-to-2" style="stroke:#008000;stroke-width:1;"/><polygon fill="#008000" points="50.8408,434.5037,54.8408,425.5037,50.8408,429.5037,46.8408,425.5037,50.8408,434.5037" style="stroke:#008000;stroke-width:1;"/><path d="M55.8408,371.5938 L55.8408,411.5938 L361.8408,411.5938 L361.8408,381.5938 L351.8408,371.5938 L55.8408,371.5938" fill="#F5F5F5" style="stroke:#181818;stroke-width:0.5;"/><path d="M351.8408,371.5938 L351.8408,381.5938 L361.8408,381.5938 L351.8408,371.5938" fill="#F5F5F5" style="stroke:#181818;stroke-width:0.5;"/><text fill="#000000" font-family="sans-serif" font-size="13" font-weight="bold" lengthAdjust="spacing" textLength="130.9204" x="61.8408" y="388.6606">Sistema requiere:</text><text fill="#000000" font-family="sans-serif" font-size="13" lengthAdjust="spacing" textLength="285.9556" x="61.8408" y="403.7935">- M&#233;todo punto medio 2&#186; derivada conocido</text></g><!--link 2 to 3--><g class="link" data-entity-1="2" data-entity-2="3" data-source-line="32" data-uid="lnk7" id="link_2_3"><path d="M50.8408,484.8638 C50.8408,509.1438 50.8408,540.2838 50.8408,564.5038" fill="none" id="2-to-3" style="stroke:#008000;stroke-width:1;"/><polygon fill="#008000" points="50.8408,570.5038,54.8408,561.5038,50.8408,565.5038,46.8408,561.5038,50.8408,570.5038" style="stroke:#008000;stroke-width:1;"/><path d="M55.8408,507.5938 L55.8408,547.5938 L361.8408,547.5938 L361.8408,517.5938 L351.8408,507.5938 L55.8408,507.5938" fill="#F5F5F5" style="stroke:#181818;stroke-width:0.5;"/><path d="M351.8408,507.5938 L351.8408,517.5938 L361.8408,517.5938 L351.8408,507.5938" fill="#F5F5F5" style="stroke:#181818;stroke-width:0.5;"/><text fill="#000000" font-family="sans-serif" font-size="13" font-weight="bold" lengthAdjust="spacing" textLength="139.5596" x="61.8408" y="524.6606">Cliente Selecciona:</text><text fill="#000000" font-family="sans-serif" font-size="13" lengthAdjust="spacing" textLength="285.9556" x="61.8408" y="539.7935">- M&#233;todo punto medio 2&#186; derivada conocido</text></g><!--link 3 to *end*abrir_punto_medio_2_derivada--><g class="link" data-entity-1="3" data-entity-2=".end.abrir_punto_medio_2_derivada" data-source-line="38" data-uid="lnk9" id="link_3_.end.abrir_punto_medio_2_derivada"><path d="M50.8408,621.0238 C50.8408,633.3838 50.8408,641.7238 50.8408,651.1938" fill="none" id="3-to-*end*abrir_punto_medio_2_derivada" style="stroke:#008000;stroke-width:1;"/><polygon fill="#008000" points="50.8408,657.1938,54.8408,648.1938,50.8408,652.1938,46.8408,648.1938,50.8408,657.1938" style="stroke:#008000;stroke-width:1;"/></g><g id="DIFERENCIACION_NUMERICA_E_INTEGRACION"><rect fill="#FAF4B4" height="50" rx="12.5" ry="12.5" style="stroke:#C90000;stroke-width:0.5;" width="341.9795" x="21.3508" y="44.2969"/><line style="stroke:#C90000;stroke-width:0.5;" x1="21.3508" x2="363.3303" y1="70.5938" y2="70.5938"/><text fill="#000000" font-family="sans-serif" font-size="14" lengthAdjust="spacing" textLength="321.9795" x="31.3508" y="62.292">DIFERENCIACION_NUMERICA_E_INTEGRACION</text></g><g id=".abrirPuntoMedio2Derivada"><rect fill="#FAF4B4" height="50" rx="12.5" ry="12.5" style="stroke:#C90000;stroke-width:0.5;" width="212.1377" x="86.2708" y="750.5969"/><line style="stroke:#C90000;stroke-width:0.5;" x1="86.2708" x2="298.4085" y1="776.8938" y2="776.8938"/><text fill="#000000" font-family="sans-serif" font-size="14" lengthAdjust="spacing" textLength="192.1377" x="96.2708" y="768.592">:abrirPuntoMedio2Derivada</text></g><g id="PUNTO_MEDIO_2_DERIVADA"><rect fill="#FAF4B4" height="50" rx="12.5" ry="12.5" style="stroke:#C90000;stroke-width:0.5;" width="218.4883" x="83.1008" y="861.5969"/><line style="stroke:#C90000;stroke-width:0.5;" x1="83.1008" x2="301.5891" y1="887.8938" y2="887.8938"/><text fill="#000000" font-family="sans-serif" font-size="14" lengthAdjust="spacing" textLength="198.4883" x="93.1008" y="879.592">PUNTO_MEDIO_2_DERIVADA</text></g><!--link DIFERENCIACION_NUMERICA_E_INTEGRACION to abrir_punto_medio_2_derivada--><g class="link" data-entity-1="DIFERENCIACION_NUMERICA_E_INTEGRACION" data-entity-2="abrir_punto_medio_2_derivada" data-source-line="15" data-uid="lnk3" id="link_DIFERENCIACION_NUMERICA_E_INTEGRACION_abrir_punto_medio_2_derivada"><path d="M192.3408,94.6569 C192.3408,119.0469 192.3408,153.2969 192.3408,198.0169" fill="none" id="DIFERENCIACION_NUMERICA_E_INTEGRACION-to-abrir_punto_medio_2_derivada" style="stroke:#008000;stroke-width:1;"/><polygon fill="#008000" points="192.3408,204.0169,196.3408,195.0169,192.3408,199.0169,188.3408,195.0169,192.3408,204.0169" style="stroke:#008000;stroke-width:1;"/><path d="M197.3408,129.2969 L197.3408,169.2969 L424.3408,169.2969 L424.3408,139.2969 L414.3408,129.2969 L197.3408,129.2969" fill="#F5F5F5" style="stroke:#181818;stroke-width:0.5;"/><path d="M414.3408,129.2969 L414.3408,139.2969 L424.3408,139.2969 L414.3408,129.2969" fill="#F5F5F5" style="stroke:#181818;stroke-width:0.5;"/><text fill="#000000" font-family="sans-serif" font-size="13" font-weight="bold" lengthAdjust="spacing" textLength="114.0103" x="203.3408" y="146.3638">Cliente solicita:</text><text fill="#000000" font-family="sans-serif" font-size="13" lengthAdjust="spacing" textLength="206.4385" x="203.3408" y="161.4966">- Abrir Punto Medio 2&#186; Derivada</text></g><!--link abrir_punto_medio_2_derivada to :abrirPuntoMedio2Derivada--><g class="link" data-entity-1="abrir_punto_medio_2_derivada" data-entity-2=".abrirPuntoMedio2Derivada" data-source-line="41" data-uid="lnk11" id="link_abrir_punto_medio_2_derivada_.abrirPuntoMedio2Derivada"><path d="M192.3408,690.0569 C192.3408,714.2169 192.3408,729.3469 192.3408,744.4469" fill="none" id="abrir_punto_medio_2_derivada-to-:abrirPuntoMedio2Derivada" style="stroke:#008000;stroke-width:1;"/><polygon fill="#008000" points="192.3408,750.4469,196.3408,741.4469,192.3408,745.4469,188.3408,741.4469,192.3408,750.4469" style="stroke:#008000;stroke-width:1;"/></g><!--link :abrirPuntoMedio2Derivada to PUNTO_MEDIO_2_DERIVADA--><g class="link" data-entity-1=".abrirPuntoMedio2Derivada" data-entity-2="PUNTO_MEDIO_2_DERIVADA" data-source-line="43" data-uid="lnk13" id="link_.abrirPuntoMedio2Derivada_PUNTO_MEDIO_2_DERIVADA"><path d="M192.3408,801.0569 C192.3408,819.0069 192.3408,837.2869 192.3408,855.2169" fill="none" id=":abrirPuntoMedio2Derivada-to-PUNTO_MEDIO_2_DERIVADA" style="stroke:#008000;stroke-width:1;"/><polygon fill="#008000" points="192.3408,861.2169,196.3408,852.2169,192.3408,856.2169,188.3408,852.2169,192.3408,861.2169" style="stroke:#008000;stroke-width:1;"/></g><!--SRC=[dL9DIyD04BtlhnZiBL2mgHxq8CGaIWvDfLelKi8sEorBqvswsGeY_Y3_WaVzOyv6-oLQmKbWsRUpy-QzdNgcpK9QEOVQIOVm903EPJcRMbeQ5LD55beJEJaQ7_aJiWhj5rgU77A8Po7gTH53lzOuzjzkTgKDkiS5meAgHxyHmcbN8IJePCLhB6i2XJ3a9HfRRU5gQHn13vKc2DzUETFg1wca42B9Bj91ciTP56VzlCY7lNIGnL6H5bb-aruE6hXzrvfQH3Dgdu7q5Ok5hrZCVSKYBDIgNgE4ZEznndg28Auq6iPggdIfdJmD0iRRV_M5HZMkiEx6u7sathZFh0x86WxWO0s4tu7k1k3_BXZ1jhGEOvqT96JacoOVGN2jQuTp2HRlbnejVkhoqORU-uiZHT2q2_ErkbN3K9AXKYlY6skXmCrkCtT_OjxuUOqLbgKc8rVC_-NbJNU7cLtn0xVFyktqqoQnUSdc8SFDSFrwj7t_QfZVz8jUccHzPaXu-cwZ9Fe0]--></g></svg>