<svg xmlns="http://www.w3.org/2000/svg" xmlns:xlink="http://www.w3.org/1999/xlink" contentStyleType="text/css" data-diagram-type="STATE" height="896px" preserveAspectRatio="none" style="width:516px;height:896px;background:#FFFFFF;" version="1.1" viewBox="0 0 516 896" width="516px" zoomAndPan="magnify"><title>Detalle Caso de Uso Crear Operaci&#243;n Integraci&#243;n de Romberg</title><defs/><g><g class="title" data-source-line="14"><text fill="#000000" font-family="sans-serif" font-size="14" font-weight="bold" lengthAdjust="spacing" textLength="486.6914" x="10" y="22.9951">Detalle Caso de Uso Crear Operaci&#243;n Integraci&#243;n de Romberg</text></g><g id="INTEGRACION_ROMBERG"><rect fill="#FAF4B4" height="50" rx="12.5" ry="12.5" style="stroke:#C90000;stroke-width:0.5;" width="196.4014" x="254.3904" y="44.2969"/><line style="stroke:#C90000;stroke-width:0.5;" x1="254.3904" x2="450.7918" y1="70.5938" y2="70.5938"/><text fill="#000000" font-family="sans-serif" font-size="14" lengthAdjust="spacing" textLength="176.4014" x="264.3904" y="62.292">INTEGRACION_ROMBERG</text></g><path d="M24.0904,204.2969 L419.0904,204.2969 A12.5,12.5 0 0 1 431.5904,216.7969 L431.5904,230.5938 L11.5904,230.5938 L11.5904,216.7969 A12.5,12.5 0 0 1 24.0904,204.2969" fill="#FAF4B4" style="stroke:#FAF4B4;stroke-width:1;"/><rect fill="none" height="575.2969" rx="12.5" ry="12.5" style="stroke:#C90000;stroke-width:0.5;" width="420" x="11.5904" y="204.2969"/><line style="stroke:#C90000;stroke-width:0.5;" x1="11.5904" x2="431.5904" y1="230.5938" y2="230.5938"/><text fill="#000000" font-family="sans-serif" font-size="14" lengthAdjust="spacing" textLength="189.6152" x="126.7828" y="222.292">crear_integracion_romberg</text><g id="crear_integracion_romberg.1"><rect fill="#FAF4B4" height="50" rx="12.5" ry="12.5" style="stroke:#C90000;stroke-width:0.5;" width="50" x="162.5904" y="298.5938"/><line style="stroke:#C90000;stroke-width:0.5;" x1="162.5904" x2="212.5904" y1="324.8906" y2="324.8906"/><text fill="#000000" font-family="sans-serif" font-size="14" lengthAdjust="spacing" textLength="4.4502" x="185.3654" y="316.5889">&#160;</text></g><g id="crear_integracion_romberg.2"><rect fill="#FAF4B4" height="50" rx="12.5" ry="12.5" style="stroke:#C90000;stroke-width:0.5;" width="50" x="23.5904" y="479.5938"/><line style="stroke:#C90000;stroke-width:0.5;" x1="23.5904" x2="73.5904" y1="505.8906" y2="505.8906"/><text fill="#000000" font-family="sans-serif" font-size="14" lengthAdjust="spacing" textLength="4.4502" x="46.3654" y="497.5889">&#160;</text></g><g id="crear_integracion_romberg.3"><rect fill="#FAF4B4" height="50" rx="12.5" ry="12.5" style="stroke:#C90000;stroke-width:0.5;" width="50" x="156.5904" y="660.5938"/><line style="stroke:#C90000;stroke-width:0.5;" x1="156.5904" x2="206.5904" y1="686.8906" y2="686.8906"/><text fill="#000000" font-family="sans-serif" font-size="14" lengthAdjust="spacing" textLength="4.4502" x="179.3654" y="678.5889">&#160;</text></g><ellipse cx="187.5904" cy="251.5938" fill="#222222" rx="10" ry="10" style="stroke:#222222;stroke-width:1;"/><ellipse cx="181.5904" cy="758.5938" fill="none" rx="11" ry="11" style="stroke:#222222;stroke-width:1;"/><ellipse cx="181.5904" cy="758.5938" fill="#222222" rx="6" ry="6" style="stroke:#222222;stroke-width:1;"/><!--link *start*crear_integracion_romberg to 1--><g class="link" data-entity-1="*start*crear_integracion_romberg" data-entity-2="1" data-source-line="29" data-uid="lnk4" id="link_*start*crear_integracion_romberg_1"><path d="M187.5904,262.0338 C187.5904,271.2938 187.5904,279.7838 187.5904,292.2738" fill="none" id="*start*crear_integracion_romberg-to-1" style="stroke:#008000;stroke-width:1;"/><polygon fill="#008000" points="187.5904,298.2738,191.5904,289.2738,187.5904,293.2738,183.5904,289.2738,187.5904,298.2738" style="stroke:#008000;stroke-width:1;"/></g><!--link 1 to 2--><g class="link" data-entity-1="1" data-entity-2="2" data-source-line="30" data-uid="lnk5" id="link_1_2"><path d="M162.0904,333.0938 C125.2704,345.3638 61.5904,366.5938 61.5904,366.5938 C61.5904,366.5938 55.2173,433.7206 51.4773,473.1306" fill="none" id="1-to-2" style="stroke:#008000;stroke-width:1;"/><polygon fill="#008000" points="50.9104,479.1038,55.7428,470.5219,51.3828,474.1261,47.7786,469.7661,50.9104,479.1038" style="stroke:#008000;stroke-width:1;"/><path d="M66.5904,371.5938 L66.5904,456.5938 L307.5904,456.5938 L307.5904,381.5938 L297.5904,371.5938 L66.5904,371.5938" fill="#F5F5F5" style="stroke:#181818;stroke-width:0.5;"/><path d="M297.5904,371.5938 L297.5904,381.5938 L307.5904,381.5938 L297.5904,371.5938" fill="#F5F5F5" style="stroke:#181818;stroke-width:0.5;"/><text fill="#000000" font-family="sans-serif" font-size="13" font-weight="bold" lengthAdjust="spacing" textLength="220.5874" x="72.5904" y="388.6606">Sistema requiere Par&#225;metros:</text><text fill="#000000" font-family="sans-serif" font-size="13" lengthAdjust="spacing" textLength="56.8306" x="72.5904" y="403.7935">- funcion</text><text fill="#000000" font-family="sans-serif" font-size="13" lengthAdjust="spacing" textLength="16.7896" x="72.5904" y="418.9263">- a</text><text fill="#000000" font-family="sans-serif" font-size="13" lengthAdjust="spacing" textLength="17.0752" x="72.5904" y="434.0591">- b</text><text fill="#000000" font-family="sans-serif" font-size="13" lengthAdjust="spacing" textLength="17.0625" x="72.5904" y="449.1919">- n</text></g><!--link 2 to 3--><g class="link" data-entity-1="2" data-entity-2="3" data-source-line="38" data-uid="lnk6" id="link_2_3"><path d="M42.1904,530.0238 C39.7704,539.2638 37.5904,547.5938 37.5904,547.5938 C37.5904,547.5938 37.5904,642.5938 37.5904,642.5938 C37.5904,642.5938 109.0805,663.4434 150.4205,675.5034" fill="none" id="2-to-3" style="stroke:#008000;stroke-width:1;"/><polygon fill="#008000" points="156.1804,677.1838,148.6608,670.8233,151.3805,675.7835,146.4204,678.5032,156.1804,677.1838" style="stroke:#008000;stroke-width:1;"/><path d="M42.5904,552.5938 L42.5904,637.5938 L307.5904,637.5938 L307.5904,562.5938 L297.5904,552.5938 L42.5904,552.5938" fill="#F5F5F5" style="stroke:#181818;stroke-width:0.5;"/><path d="M297.5904,552.5938 L297.5904,562.5938 L307.5904,562.5938 L297.5904,552.5938" fill="#F5F5F5" style="stroke:#181818;stroke-width:0.5;"/><text fill="#000000" font-family="sans-serif" font-size="13" font-weight="bold" lengthAdjust="spacing" textLength="244.1499" x="48.5904" y="569.6606">Usuario Proporciona Par&#225;metros:</text><text fill="#000000" font-family="sans-serif" font-size="13" lengthAdjust="spacing" textLength="56.8306" x="56.8551" y="584.7935">- funcion</text><text fill="#000000" font-family="sans-serif" font-size="13" lengthAdjust="spacing" textLength="16.7896" x="56.8551" y="599.9263">- a</text><text fill="#000000" font-family="sans-serif" font-size="13" lengthAdjust="spacing" textLength="17.0752" x="56.8551" y="615.0591">- b</text><text fill="#000000" font-family="sans-serif" font-size="13" lengthAdjust="spacing" textLength="17.0625" x="56.8551" y="630.1919">- n</text></g><!--link 3 to 1--><g class="link" data-entity-1="3" data-entity-2="1" data-source-line="46" data-uid="lnk7" id="link_3_1"><path d="M206.8504,676.4938 C244.9204,664.2938 312.5904,642.5938 312.5904,642.5938 C312.5904,642.5938 312.5904,366.5938 312.5904,366.5938 C312.5904,366.5938 255.098,347.2747 218.578,335.0047" fill="none" id="3-to-1" style="stroke:#FF0000;stroke-width:1;"/><polygon fill="#FF0000" points="212.8904,333.0938,220.1479,339.7518,217.6301,334.6862,222.6957,332.1684,212.8904,333.0938" style="stroke:#FF0000;stroke-width:1;"/><path d="M317.5904,484.5938 L317.5904,524.5938 L422.5904,524.5938 L422.5904,494.5938 L412.5904,484.5938 L317.5904,484.5938" fill="#F5F5F5" style="stroke:#181818;stroke-width:0.5;"/><path d="M412.5904,484.5938 L412.5904,494.5938 L422.5904,494.5938 L412.5904,484.5938" fill="#F5F5F5" style="stroke:#181818;stroke-width:0.5;"/><text fill="#000000" font-family="sans-serif" font-size="13" lengthAdjust="spacing" textLength="80.0186" x="323.5904" y="501.6606">[Par&#225;metros</text><text fill="#000000" font-family="sans-serif" font-size="13" lengthAdjust="spacing" textLength="63.0068" x="331.8551" y="516.7935">Inv&#225;lidos]</text></g><!--link 3 to *end*crear_integracion_romberg--><g class="link" data-entity-1="3" data-entity-2="*end*crear_integracion_romberg" data-source-line="51" data-uid="lnk9" id="link_3_*end*crear_integracion_romberg"><path d="M181.5904,711.0238 C181.5904,723.3838 181.5904,731.7238 181.5904,741.1938" fill="none" id="3-to-*end*crear_integracion_romberg" style="stroke:#008000;stroke-width:1;"/><polygon fill="#008000" points="181.5904,747.1938,185.5904,738.1938,181.5904,742.1938,177.5904,738.1938,181.5904,747.1938" style="stroke:#008000;stroke-width:1;"/></g><g id=":calcularResultadoIntegracionRomberg"><rect fill="#FAF4B4" height="50" rx="12.5" ry="12.5" style="stroke:#C90000;stroke-width:0.5;" width="293.0205" x="216.0804" y="840.5969"/><line style="stroke:#C90000;stroke-width:0.5;" x1="216.0804" x2="509.101" y1="866.8938" y2="866.8938"/><text fill="#000000" font-family="sans-serif" font-size="14" lengthAdjust="spacing" textLength="273.0205" x="226.0804" y="858.592">:calcularResultadoIntegracionRomberg</text></g><!--link INTEGRACION_ROMBERG to crear_integracion_romberg--><g class="link" data-entity-1="INTEGRACION_ROMBERG" data-entity-2="crear_integracion_romberg" data-source-line="18" data-uid="lnk2" id="link_INTEGRACION_ROMBERG_crear_integracion_romberg"><path d="M282.3504,94.7769 C241.3404,109.0569 197.5904,124.2969 197.5904,124.2969 C197.5904,124.2969 197.5904,174.2969 197.5904,174.2969 C197.5904,174.2969 197.985,179.5642 199.375,197.8242" fill="none" id="INTEGRACION_ROMBERG-to-crear_integracion_romberg" style="stroke:#008000;stroke-width:1;"/><polygon fill="#008000" points="199.8304,203.8069,203.1358,194.5292,199.4509,198.8213,195.1589,195.1365,199.8304,203.8069" style="stroke:#008000;stroke-width:1;"/><path d="M202.5904,129.2969 L202.5904,169.2969 L473.5904,169.2969 L473.5904,139.2969 L463.5904,129.2969 L202.5904,129.2969" fill="#F5F5F5" style="stroke:#181818;stroke-width:0.5;"/><path d="M463.5904,129.2969 L463.5904,139.2969 L473.5904,139.2969 L463.5904,129.2969" fill="#F5F5F5" style="stroke:#181818;stroke-width:0.5;"/><text fill="#000000" font-family="sans-serif" font-size="13" font-weight="bold" lengthAdjust="spacing" textLength="118.5742" x="208.5904" y="146.3638">Usuario solicita:</text><text fill="#000000" font-family="sans-serif" font-size="13" lengthAdjust="spacing" textLength="250.688" x="208.5904" y="161.4966">- Crear operaci&#243;n integracion romberg</text></g><!--link crear_integracion_romberg to :calcularResultadoIntegracionRomberg--><g class="link" data-entity-1="crear_integracion_romberg" data-entity-2=":calcularResultadoIntegracionRomberg" data-source-line="55" data-uid="lnk11" id="link_crear_integracion_romberg_:calcularResultadoIntegracionRomberg"><path d="M330.4204,779.7969 C339.6804,804.1969 345.5429,819.6468 351.2429,834.6768" fill="none" id="crear_integracion_romberg-to-:calcularResultadoIntegracionRomberg" style="stroke:#008000;stroke-width:1;"/><polygon fill="#008000" points="353.3704,840.2869,353.9191,830.4533,351.5975,835.6118,346.439,833.2901,353.3704,840.2869" style="stroke:#008000;stroke-width:1;"/></g><!--link :calcularResultadoIntegracionRomberg to INTEGRACION_ROMBERG--><g class="link" data-entity-1=":calcularResultadoIntegracionRomberg" data-entity-2="INTEGRACION_ROMBERG" data-source-line="57" data-uid="lnk12" id="link_:calcularResultadoIntegracionRomberg_INTEGRACION_ROMBERG"><path d="M387.0004,840.4669 C412.4304,815.3369 448.5904,779.5969 448.5904,779.5969 C448.5904,779.5969 482.5904,174.2969 482.5904,174.2969 C482.5904,174.2969 482.5904,124.2969 482.5904,124.2969 C482.5904,124.2969 451.442,111.3572 417.042,97.0772" fill="none" id=":calcularResultadoIntegracionRomberg-to-INTEGRACION_ROMBERG" style="stroke:#008000;stroke-width:1;"/><polygon fill="#008000" points="411.5004,94.7769,418.2791,101.9218,416.1184,96.6938,421.3463,94.5331,411.5004,94.7769" style="stroke:#008000;stroke-width:1;"/></g><!--SRC=[hL91Jkim4Dtx52FOHQf4AInWWVGf26K1HU6pggfgcamhguudZ1qaX3WCP-08lTYtIvC6VYknm8bap_FapNkJyLo1PvYnzrn2eOLohzagvPRQLYXOWlFe2LuLm2NcouLmROiX6nOudEFyP7OIRrWAaWsQdns5fTww99RtSfp6vsksqPRyIqLGiNc9WL9UUqDmHHvDs8Ve60g2nx0DXL1WL95WhbSV5bBhQT448IdZSaQo20NMJjAxlzStsPzXEhgRPgFRo-liHgaTO6zyk10YE-bTG1vhJ7L3p7Og6zArCRPHyZBOIv97LwDe1iT6vzhZUP84lBUHoLkP7JPesCWMwrOrMlVMZQtyJEa3EZY0WnOu_WuCja1unya4kjRw0Uj_GOu3yirMN4doe9sd4a7egTOa1FSeg_UIlB3xj1bN3-QrZLhR6DlJh3t5szOj1D5T1ODT2hQjlHUkM689_4K9WoX1g6YQyf-0SQSMR5XI-xnwDxfWDzd1rXeAJLTnnFV-psxoUOuchmrAHgus7WjEjn-qm_oJh2xhZWd_1m00]--></g></svg>