<svg xmlns="http://www.w3.org/2000/svg" xmlns:xlink="http://www.w3.org/1999/xlink" contentStyleType="text/css" data-diagram-type="STATE" height="988px" preserveAspectRatio="none" style="width:533px;height:988px;background:#FFFFFF;" version="1.1" viewBox="0 0 533 988" width="533px" zoomAndPan="magnify"><title>Detalle Caso de Uso Crear Operaci&#243;n Integral Doble de Simpson</title><defs/><g><g class="title" data-source-line="14"><text fill="#000000" font-family="sans-serif" font-size="14" font-weight="bold" lengthAdjust="spacing" textLength="505.2168" x="10" y="22.9951">Detalle Caso de Uso Crear Operaci&#243;n Integral Doble de Simpson</text></g><g id="INTEGRAL_DOBLE_SIMPSON"><rect fill="#FAF4B4" height="50" rx="12.5" ry="12.5" style="stroke:#C90000;stroke-width:0.5;" width="215.918" x="249.0034" y="44.2969"/><line style="stroke:#C90000;stroke-width:0.5;" x1="249.0034" x2="464.9213" y1="70.5938" y2="70.5938"/><text fill="#000000" font-family="sans-serif" font-size="14" lengthAdjust="spacing" textLength="195.918" x="259.0034" y="62.292">INTEGRAL_DOBLE_SIMPSON</text></g><path d="M28.4634,204.2969 L423.4634,204.2969 A12.5,12.5 0 0 1 435.9634,216.7969 L435.9634,230.5938 L15.9634,230.5938 L15.9634,216.7969 A12.5,12.5 0 0 1 28.4634,204.2969" fill="#FAF4B4" style="stroke:#FAF4B4;stroke-width:1;"/><rect fill="none" height="667.2969" rx="12.5" ry="12.5" style="stroke:#C90000;stroke-width:0.5;" width="420" x="15.9634" y="204.2969"/><line style="stroke:#C90000;stroke-width:0.5;" x1="15.9634" x2="435.9634" y1="230.5938" y2="230.5938"/><text fill="#000000" font-family="sans-serif" font-size="14" lengthAdjust="spacing" textLength="208.6602" x="121.6333" y="222.292">crear_integral_doble_simpson</text><g id="crear_integral_doble_simpson.1"><rect fill="#FAF4B4" height="50" rx="12.5" ry="12.5" style="stroke:#C90000;stroke-width:0.5;" width="50" x="166.9634" y="298.5938"/><line style="stroke:#C90000;stroke-width:0.5;" x1="166.9634" x2="216.9634" y1="324.8906" y2="324.8906"/><text fill="#000000" font-family="sans-serif" font-size="14" lengthAdjust="spacing" textLength="4.4502" x="189.7383" y="316.5889">&#160;</text></g><g id="crear_integral_doble_simpson.2"><rect fill="#FAF4B4" height="50" rx="12.5" ry="12.5" style="stroke:#C90000;stroke-width:0.5;" width="50" x="27.9634" y="525.5938"/><line style="stroke:#C90000;stroke-width:0.5;" x1="27.9634" x2="77.9634" y1="551.8906" y2="551.8906"/><text fill="#000000" font-family="sans-serif" font-size="14" lengthAdjust="spacing" textLength="4.4502" x="50.7383" y="543.5889">&#160;</text></g><g id="crear_integral_doble_simpson.3"><rect fill="#FAF4B4" height="50" rx="12.5" ry="12.5" style="stroke:#C90000;stroke-width:0.5;" width="50" x="160.9634" y="752.5938"/><line style="stroke:#C90000;stroke-width:0.5;" x1="160.9634" x2="210.9634" y1="778.8906" y2="778.8906"/><text fill="#000000" font-family="sans-serif" font-size="14" lengthAdjust="spacing" textLength="4.4502" x="183.7383" y="770.5889">&#160;</text></g><ellipse cx="191.9634" cy="251.5938" fill="#222222" rx="10" ry="10" style="stroke:#222222;stroke-width:1;"/><ellipse cx="185.9634" cy="850.5938" fill="none" rx="11" ry="11" style="stroke:#222222;stroke-width:1;"/><ellipse cx="185.9634" cy="850.5938" fill="#222222" rx="6" ry="6" style="stroke:#222222;stroke-width:1;"/><!--link *start*crear_integral_doble_simpson to 1--><g class="link" data-entity-1="*start*crear_integral_doble_simpson" data-entity-2="1" data-source-line="29" data-uid="lnk4" id="link_*start*crear_integral_doble_simpson_1"><path d="M191.9634,262.0338 C191.9634,271.2938 191.9634,279.7838 191.9634,292.2737" fill="none" id="*start*crear_integral_doble_simpson-to-1" style="stroke:#008000;stroke-width:1;"/><polygon fill="#008000" points="191.9634,298.2737,195.9634,289.2737,191.9634,293.2737,187.9634,289.2737,191.9634,298.2737" style="stroke:#008000;stroke-width:1;"/></g><!--link 1 to 2--><g class="link" data-entity-1="1" data-entity-2="2" data-source-line="30" data-uid="lnk5" id="link_1_2"><path d="M166.4634,333.0938 C129.6434,345.3638 65.9634,366.5938 65.9634,366.5938 C65.9634,366.5938 58.6478,469.5288 55.1178,519.3088" fill="none" id="1-to-2" style="stroke:#008000;stroke-width:1;"/><polygon fill="#008000" points="54.6934,525.2938,59.3199,516.5992,55.047,520.3063,51.34,516.0334,54.6934,525.2938" style="stroke:#008000;stroke-width:1;"/><path d="M70.9634,371.5938 L70.9634,502.5938 L311.9634,502.5938 L311.9634,381.5938 L301.9634,371.5938 L70.9634,371.5938" fill="#F5F5F5" style="stroke:#181818;stroke-width:0.5;"/><path d="M301.9634,371.5938 L301.9634,381.5938 L311.9634,381.5938 L301.9634,371.5938" fill="#F5F5F5" style="stroke:#181818;stroke-width:0.5;"/><text fill="#000000" font-family="sans-serif" font-size="13" font-weight="bold" lengthAdjust="spacing" textLength="220.5874" x="76.9634" y="388.6606">Sistema requiere Par&#225;metros:</text><text fill="#000000" font-family="sans-serif" font-size="13" lengthAdjust="spacing" textLength="56.8306" x="76.9634" y="403.7935">- funcion</text><text fill="#000000" font-family="sans-serif" font-size="13" lengthAdjust="spacing" textLength="16.7896" x="76.9634" y="418.9263">- a</text><text fill="#000000" font-family="sans-serif" font-size="13" lengthAdjust="spacing" textLength="17.0752" x="76.9634" y="434.0591">- b</text><text fill="#000000" font-family="sans-serif" font-size="13" lengthAdjust="spacing" textLength="50.6733" x="76.9634" y="449.1919">- c_func</text><text fill="#000000" font-family="sans-serif" font-size="13" lengthAdjust="spacing" textLength="51.7778" x="76.9634" y="464.3247">- d_func</text><text fill="#000000" font-family="sans-serif" font-size="13" lengthAdjust="spacing" textLength="17.0625" x="76.9634" y="479.4575">- n</text><text fill="#000000" font-family="sans-serif" font-size="13" lengthAdjust="spacing" textLength="21.4868" x="76.9634" y="494.5903">- m</text></g><!--link 2 to 3--><g class="link" data-entity-1="2" data-entity-2="3" data-source-line="41" data-uid="lnk6" id="link_2_3"><path d="M46.5634,576.0238 C44.1434,585.2638 41.9634,593.5938 41.9634,593.5938 C41.9634,593.5938 41.9634,734.5938 41.9634,734.5938 C41.9634,734.5938 113.4535,755.4434 154.7935,767.5034" fill="none" id="2-to-3" style="stroke:#008000;stroke-width:1;"/><polygon fill="#008000" points="160.5534,769.1838,153.0337,762.8233,155.7534,767.7835,150.7933,770.5032,160.5534,769.1838" style="stroke:#008000;stroke-width:1;"/><path d="M46.9634,598.5938 L46.9634,729.5938 L311.9634,729.5938 L311.9634,608.5938 L301.9634,598.5938 L46.9634,598.5938" fill="#F5F5F5" style="stroke:#181818;stroke-width:0.5;"/><path d="M301.9634,598.5938 L301.9634,608.5938 L311.9634,608.5938 L301.9634,598.5938" fill="#F5F5F5" style="stroke:#181818;stroke-width:0.5;"/><text fill="#000000" font-family="sans-serif" font-size="13" font-weight="bold" lengthAdjust="spacing" textLength="244.1499" x="52.9634" y="615.6606">Usuario Proporciona Par&#225;metros:</text><text fill="#000000" font-family="sans-serif" font-size="13" lengthAdjust="spacing" textLength="56.8306" x="61.228" y="630.7935">- funcion</text><text fill="#000000" font-family="sans-serif" font-size="13" lengthAdjust="spacing" textLength="16.7896" x="61.228" y="645.9263">- a</text><text fill="#000000" font-family="sans-serif" font-size="13" lengthAdjust="spacing" textLength="17.0752" x="61.228" y="661.0591">- b</text><text fill="#000000" font-family="sans-serif" font-size="13" lengthAdjust="spacing" textLength="50.6733" x="61.228" y="676.1919">- c_func</text><text fill="#000000" font-family="sans-serif" font-size="13" lengthAdjust="spacing" textLength="51.7778" x="61.228" y="691.3247">- d_func</text><text fill="#000000" font-family="sans-serif" font-size="13" lengthAdjust="spacing" textLength="17.0625" x="61.228" y="706.4575">- n</text><text fill="#000000" font-family="sans-serif" font-size="13" lengthAdjust="spacing" textLength="21.4868" x="61.228" y="721.5903">- m</text></g><!--link 3 to 1--><g class="link" data-entity-1="3" data-entity-2="1" data-source-line="52" data-uid="lnk7" id="link_3_1"><path d="M211.2234,768.4938 C249.2934,756.2938 316.9634,734.5938 316.9634,734.5938 C316.9634,734.5938 316.9634,366.5938 316.9634,366.5938 C316.9634,366.5938 259.4709,347.2747 222.9509,335.0047" fill="none" id="3-to-1" style="stroke:#FF0000;stroke-width:1;"/><polygon fill="#FF0000" points="217.2634,333.0938,224.5208,339.7518,222.003,334.6862,227.0687,332.1684,217.2634,333.0938" style="stroke:#FF0000;stroke-width:1;"/><path d="M321.9634,530.5938 L321.9634,570.5938 L426.9634,570.5938 L426.9634,540.5938 L416.9634,530.5938 L321.9634,530.5938" fill="#F5F5F5" style="stroke:#181818;stroke-width:0.5;"/><path d="M416.9634,530.5938 L416.9634,540.5938 L426.9634,540.5938 L416.9634,530.5938" fill="#F5F5F5" style="stroke:#181818;stroke-width:0.5;"/><text fill="#000000" font-family="sans-serif" font-size="13" lengthAdjust="spacing" textLength="80.0186" x="327.9634" y="547.6606">[Par&#225;metros</text><text fill="#000000" font-family="sans-serif" font-size="13" lengthAdjust="spacing" textLength="63.0068" x="336.228" y="562.7935">Inv&#225;lidos]</text></g><!--link 3 to *end*crear_integral_doble_simpson--><g class="link" data-entity-1="3" data-entity-2="*end*crear_integral_doble_simpson" data-source-line="57" data-uid="lnk9" id="link_3_*end*crear_integral_doble_simpson"><path d="M185.9634,803.0238 C185.9634,815.3838 185.9634,823.7238 185.9634,833.1938" fill="none" id="3-to-*end*crear_integral_doble_simpson" style="stroke:#008000;stroke-width:1;"/><polygon fill="#008000" points="185.9634,839.1938,189.9634,830.1938,185.9634,834.1938,181.9634,830.1938,185.9634,839.1938" style="stroke:#008000;stroke-width:1;"/></g><g id=":calcularResultadoIntegralDobleSimpson"><rect fill="#FAF4B4" height="50" rx="12.5" ry="12.5" style="stroke:#C90000;stroke-width:0.5;" width="304.5801" x="218.6734" y="932.5969"/><line style="stroke:#C90000;stroke-width:0.5;" x1="218.6734" x2="523.2534" y1="958.8938" y2="958.8938"/><text fill="#000000" font-family="sans-serif" font-size="14" lengthAdjust="spacing" textLength="284.5801" x="228.6734" y="950.592">:calcularResultadoIntegralDobleSimpson</text></g><!--link INTEGRAL_DOBLE_SIMPSON to crear_integral_doble_simpson--><g class="link" data-entity-1="INTEGRAL_DOBLE_SIMPSON" data-entity-2="crear_integral_doble_simpson" data-source-line="18" data-uid="lnk2" id="link_INTEGRAL_DOBLE_SIMPSON_crear_integral_doble_simpson"><path d="M283.0934,94.7769 C239.9634,109.0569 193.9634,124.2969 193.9634,124.2969 C193.9634,124.2969 193.9634,174.2969 193.9634,174.2969 C193.9634,174.2969 194.4259,179.5301 196.0559,198.0001" fill="none" id="INTEGRAL_DOBLE_SIMPSON-to-crear_integral_doble_simpson" style="stroke:#008000;stroke-width:1;"/><polygon fill="#008000" points="196.5834,203.9769,199.7767,194.6601,196.1438,198.9962,191.8077,195.3634,196.5834,203.9769" style="stroke:#008000;stroke-width:1;"/><path d="M198.9634,129.2969 L198.9634,169.2969 L485.9634,169.2969 L485.9634,139.2969 L475.9634,129.2969 L198.9634,129.2969" fill="#F5F5F5" style="stroke:#181818;stroke-width:0.5;"/><path d="M475.9634,129.2969 L475.9634,139.2969 L485.9634,139.2969 L475.9634,129.2969" fill="#F5F5F5" style="stroke:#181818;stroke-width:0.5;"/><text fill="#000000" font-family="sans-serif" font-size="13" font-weight="bold" lengthAdjust="spacing" textLength="118.5742" x="204.9634" y="146.3638">Usuario solicita:</text><text fill="#000000" font-family="sans-serif" font-size="13" lengthAdjust="spacing" textLength="266.0049" x="204.9634" y="161.4966">- Crear operaci&#243;n integral doble simpson</text></g><!--link crear_integral_doble_simpson to :calcularResultadoIntegralDobleSimpson--><g class="link" data-entity-1="crear_integral_doble_simpson" data-entity-2=":calcularResultadoIntegralDobleSimpson" data-source-line="61" data-uid="lnk11" id="link_crear_integral_doble_simpson_:calcularResultadoIntegralDobleSimpson"><path d="M341.6234,872.0769 C350.1034,896.4969 355.3776,911.688 360.5376,926.568" fill="none" id="crear_integral_doble_simpson-to-:calcularResultadoIntegralDobleSimpson" style="stroke:#008000;stroke-width:1;"/><polygon fill="#008000" points="362.5034,932.2369,363.3339,922.4231,360.8652,927.5129,355.7754,925.0442,362.5034,932.2369" style="stroke:#008000;stroke-width:1;"/></g><!--link :calcularResultadoIntegralDobleSimpson to INTEGRAL_DOBLE_SIMPSON--><g class="link" data-entity-1=":calcularResultadoIntegralDobleSimpson" data-entity-2="INTEGRAL_DOBLE_SIMPSON" data-source-line="63" data-uid="lnk12" id="link_:calcularResultadoIntegralDobleSimpson_INTEGRAL_DOBLE_SIMPSON"><path d="M394.2434,932.4669 C418.4834,907.3369 452.9634,871.5969 452.9634,871.5969 C452.9634,871.5969 494.9634,174.2969 494.9634,174.2969 C494.9634,174.2969 494.9634,124.2969 494.9634,124.2969 C494.9634,124.2969 461.6012,111.2424 425.0912,96.9624" fill="none" id=":calcularResultadoIntegralDobleSimpson-to-INTEGRAL_DOBLE_SIMPSON" style="stroke:#008000;stroke-width:1;"/><polygon fill="#008000" points="419.5034,94.7769,426.428,101.7804,424.1599,96.5982,429.3421,94.33,419.5034,94.7769" style="stroke:#008000;stroke-width:1;"/></g><!--SRC=[nLF1Qjj04BthAuRa9Z3KSNfe3eN63iMGn2PkJiQ8iNPi5gzsbDbL8PH-JBwXd-0VwwuYoNBgXjww4kpEq-ZDUxixdalm36lsdWjGMYZtccsIk9ss9GeMu3nwWXy9m3NckwrmPTMO3GkSRt1pkRwCNrWKIOFcdpw4aVpiarZ-AyV7-1nd6st9FvS49Pld62I9rzuGJCYZ2VCO7OCYU0pJM0W5PYK9vdh_oyBKUjeA6fZmEkI6j8KkIbUxghrCxx_TV7tuSfjDPjUtDzbYUZTVpEwJv3G-M9vlXSYk1fyXZxKotHJ8L2oGkOQzziWsgjy5fsdww2eKpU3Ow5nxl4hJW0yQnNnGt192JGWj8LbLRroh-xtgSMzViuQ03ixWh0CktWAZ0n3UPRg2liTXm8P7o4L0tfYB8qqNsdag48IUAar2C4VPlnJaXTshsJW6iAbi7czL6sEtMdUhF8jPNQYEmyE_HLXr6mF1N5_fw9JImq7CXKkMA0N_WzHHb2gasat-G-YofmaQbgdzldynMh5RdM3hZ8T3J68FlNT5-lbNEPgyCYWFv2hZKN7RDNNJT0tpRtbzvjDDz1i0]--></g></svg>