<svg xmlns="http://www.w3.org/2000/svg" xmlns:xlink="http://www.w3.org/1999/xlink" contentStyleType="text/css" data-diagram-type="STATE" height="977px" preserveAspectRatio="none" style="width:537px;height:977px;background:#FFFFFF;" version="1.1" viewBox="0 0 537 977" width="537px" zoomAndPan="magnify"><title>Detalle Caso de Uso Crear Operaci&#243;n Newton Cotes Abierto n=2</title><defs/><g><g class="title" data-source-line="12"><text fill="#000000" font-family="sans-serif" font-size="14" font-weight="bold" lengthAdjust="spacing" textLength="504.8408" x="10" y="22.9951">Detalle Caso de Uso Crear Operaci&#243;n Newton Cotes Abierto n=2</text></g><path d="M20.9204,204.2969 L415.9204,204.2969 A12.5,12.5 0 0 1 428.4204,216.7969 L428.4204,230.5938 L8.4204,230.5938 L8.4204,216.7969 A12.5,12.5 0 0 1 20.9204,204.2969" fill="#FAF4B4" style="stroke:#FAF4B4;stroke-width:1;"/><rect fill="none" height="545.2969" rx="12.5" ry="12.5" style="stroke:#C90000;stroke-width:0.5;" width="420" x="8.4204" y="204.2969"/><line style="stroke:#C90000;stroke-width:0.5;" x1="8.4204" x2="428.4204" y1="230.5938" y2="230.5938"/><text fill="#000000" font-family="sans-serif" font-size="14" lengthAdjust="spacing" textLength="164.4111" x="136.2148" y="222.292">crear_newton_cotes_a2</text><g id="crear_newton_cotes_a2.1"><rect fill="#FAF4B4" height="50" rx="12.5" ry="12.5" style="stroke:#C90000;stroke-width:0.5;" width="50" x="159.4204" y="298.5938"/><line style="stroke:#C90000;stroke-width:0.5;" x1="159.4204" x2="209.4204" y1="324.8906" y2="324.8906"/><text fill="#000000" font-family="sans-serif" font-size="14" lengthAdjust="spacing" textLength="4.4502" x="182.1953" y="316.5889">&#160;</text></g><g id="crear_newton_cotes_a2.2"><rect fill="#FAF4B4" height="50" rx="12.5" ry="12.5" style="stroke:#C90000;stroke-width:0.5;" width="50" x="20.4204" y="464.5938"/><line style="stroke:#C90000;stroke-width:0.5;" x1="20.4204" x2="70.4204" y1="490.8906" y2="490.8906"/><text fill="#000000" font-family="sans-serif" font-size="14" lengthAdjust="spacing" textLength="4.4502" x="43.1953" y="482.5889">&#160;</text></g><g id="crear_newton_cotes_a2.3"><rect fill="#FAF4B4" height="50" rx="12.5" ry="12.5" style="stroke:#C90000;stroke-width:0.5;" width="50" x="153.4204" y="630.5938"/><line style="stroke:#C90000;stroke-width:0.5;" x1="153.4204" x2="203.4204" y1="656.8906" y2="656.8906"/><text fill="#000000" font-family="sans-serif" font-size="14" lengthAdjust="spacing" textLength="4.4502" x="176.1953" y="648.5889">&#160;</text></g><ellipse cx="184.4204" cy="251.5938" fill="#222222" rx="10" ry="10" style="stroke:#222222;stroke-width:1;"/><ellipse cx="178.4204" cy="728.5938" fill="none" rx="11" ry="11" style="stroke:#222222;stroke-width:1;"/><ellipse cx="178.4204" cy="728.5938" fill="#222222" rx="6" ry="6" style="stroke:#222222;stroke-width:1;"/><!--link *start*crear_newton_cotes_a2 to 1--><g class="link" data-entity-1="*start*crear_newton_cotes_a2" data-entity-2="1" data-source-line="26" data-uid="lnk5" id="link_*start*crear_newton_cotes_a2_1"><path d="M184.4204,262.0338 C184.4204,271.2938 184.4204,279.7838 184.4204,292.2738" fill="none" id="*start*crear_newton_cotes_a2-to-1" style="stroke:#008000;stroke-width:1;"/><polygon fill="#008000" points="184.4204,298.2738,188.4204,289.2738,184.4204,293.2738,180.4204,289.2738,184.4204,298.2738" style="stroke:#008000;stroke-width:1;"/></g><!--link 1 to 2--><g class="link" data-entity-1="1" data-entity-2="2" data-source-line="27" data-uid="lnk6" id="link_1_2"><path d="M158.9204,333.0938 C122.1004,345.3638 58.4204,366.5938 58.4204,366.5938 C58.4204,366.5938 52.4456,422.6275 48.6556,458.2275" fill="none" id="1-to-2" style="stroke:#008000;stroke-width:1;"/><polygon fill="#008000" points="48.0204,464.1938,52.9507,455.6678,48.5497,459.2218,44.9956,454.8209,48.0204,464.1938" style="stroke:#008000;stroke-width:1;"/><path d="M63.4204,371.5938 L63.4204,441.5938 L304.4204,441.5938 L304.4204,381.5938 L294.4204,371.5938 L63.4204,371.5938" fill="#F5F5F5" style="stroke:#181818;stroke-width:0.5;"/><path d="M294.4204,371.5938 L294.4204,381.5938 L304.4204,381.5938 L294.4204,371.5938" fill="#F5F5F5" style="stroke:#181818;stroke-width:0.5;"/><text fill="#000000" font-family="sans-serif" font-size="13" font-weight="bold" lengthAdjust="spacing" textLength="220.5874" x="69.4204" y="388.6606">Sistema requiere Par&#225;metros:</text><text fill="#000000" font-family="sans-serif" font-size="13" lengthAdjust="spacing" textLength="56.8306" x="69.4204" y="403.7935">- funcion</text><text fill="#000000" font-family="sans-serif" font-size="13" lengthAdjust="spacing" textLength="16.7896" x="69.4204" y="418.9263">- a</text><text fill="#000000" font-family="sans-serif" font-size="13" lengthAdjust="spacing" textLength="17.0752" x="69.4204" y="434.0591">- b</text></g><!--link 2 to 3--><g class="link" data-entity-1="2" data-entity-2="3" data-source-line="34" data-uid="lnk7" id="link_2_3"><path d="M39.0204,515.0238 C36.6004,524.2638 34.4204,532.5938 34.4204,532.5938 C34.4204,532.5938 34.4204,612.5938 34.4204,612.5938 C34.4204,612.5938 105.9105,633.4434 147.2505,645.5034" fill="none" id="2-to-3" style="stroke:#008000;stroke-width:1;"/><polygon fill="#008000" points="153.0104,647.1838,145.4908,640.8233,148.2105,645.7835,143.2503,648.5032,153.0104,647.1838" style="stroke:#008000;stroke-width:1;"/><path d="M39.4204,537.5938 L39.4204,607.5938 L304.4204,607.5938 L304.4204,547.5938 L294.4204,537.5938 L39.4204,537.5938" fill="#F5F5F5" style="stroke:#181818;stroke-width:0.5;"/><path d="M294.4204,537.5938 L294.4204,547.5938 L304.4204,547.5938 L294.4204,537.5938" fill="#F5F5F5" style="stroke:#181818;stroke-width:0.5;"/><text fill="#000000" font-family="sans-serif" font-size="13" font-weight="bold" lengthAdjust="spacing" textLength="244.1499" x="45.4204" y="554.6606">Usuario Proporciona Par&#225;metros:</text><text fill="#000000" font-family="sans-serif" font-size="13" lengthAdjust="spacing" textLength="56.8306" x="53.6851" y="569.7935">- funcion</text><text fill="#000000" font-family="sans-serif" font-size="13" lengthAdjust="spacing" textLength="16.7896" x="53.6851" y="584.9263">- a</text><text fill="#000000" font-family="sans-serif" font-size="13" lengthAdjust="spacing" textLength="17.0752" x="53.6851" y="600.0591">- b</text></g><!--link 3 to 1--><g class="link" data-entity-1="3" data-entity-2="1" data-source-line="41" data-uid="lnk8" id="link_3_1"><path d="M203.6804,646.4938 C241.7504,634.2938 309.4204,612.5938 309.4204,612.5938 C309.4204,612.5938 309.4204,366.5938 309.4204,366.5938 C309.4204,366.5938 251.928,347.2747 215.408,335.0047" fill="none" id="3-to-1" style="stroke:#FF0000;stroke-width:1;"/><polygon fill="#FF0000" points="209.7204,333.0938,216.9778,339.7518,214.46,334.6862,219.5257,332.1684,209.7204,333.0938" style="stroke:#FF0000;stroke-width:1;"/><path d="M314.4204,469.5938 L314.4204,509.5938 L419.4204,509.5938 L419.4204,479.5938 L409.4204,469.5938 L314.4204,469.5938" fill="#F5F5F5" style="stroke:#181818;stroke-width:0.5;"/><path d="M409.4204,469.5938 L409.4204,479.5938 L419.4204,479.5938 L409.4204,469.5938" fill="#F5F5F5" style="stroke:#181818;stroke-width:0.5;"/><text fill="#000000" font-family="sans-serif" font-size="13" lengthAdjust="spacing" textLength="80.0186" x="320.4204" y="486.6606">[Par&#225;metros</text><text fill="#000000" font-family="sans-serif" font-size="13" lengthAdjust="spacing" textLength="63.0068" x="328.6851" y="501.7935">Inv&#225;lidos]</text></g><!--link 3 to *end*crear_newton_cotes_a2--><g class="link" data-entity-1="3" data-entity-2="*end*crear_newton_cotes_a2" data-source-line="46" data-uid="lnk10" id="link_3_*end*crear_newton_cotes_a2"><path d="M178.4204,681.0238 C178.4204,693.3838 178.4204,701.7238 178.4204,711.1938" fill="none" id="3-to-*end*crear_newton_cotes_a2" style="stroke:#008000;stroke-width:1;"/><polygon fill="#008000" points="178.4204,717.1938,182.4204,708.1938,178.4204,712.1938,174.4204,708.1938,178.4204,717.1938" style="stroke:#008000;stroke-width:1;"/></g><g id="NEWTON_COTES_A2"><rect fill="#FAF4B4" height="50" rx="12.5" ry="12.5" style="stroke:#C90000;stroke-width:0.5;" width="162.7686" x="137.0404" y="44.2969"/><line style="stroke:#C90000;stroke-width:0.5;" x1="137.0404" x2="299.809" y1="70.5938" y2="70.5938"/><text fill="#000000" font-family="sans-serif" font-size="14" lengthAdjust="spacing" textLength="142.7686" x="147.0404" y="62.292">NEWTON_COTES_A2</text></g><g id=":abrirResultadoNewtonCotesA2"><rect fill="#FAF4B4" height="50" rx="12.5" ry="12.5" style="stroke:#C90000;stroke-width:0.5;" width="239.1875" x="98.8304" y="810.5969"/><line style="stroke:#C90000;stroke-width:0.5;" x1="98.8304" x2="338.0179" y1="836.8938" y2="836.8938"/><text fill="#000000" font-family="sans-serif" font-size="14" lengthAdjust="spacing" textLength="219.1875" x="108.8304" y="828.592">:abrirResultadoNewtonCotesA2</text></g><g id="RESULTADO_NEWTON_COTES_A2"><rect fill="#FAF4B4" height="50" rx="12.5" ry="12.5" style="stroke:#C90000;stroke-width:0.5;" width="255.2041" x="90.8204" y="921.5969"/><line style="stroke:#C90000;stroke-width:0.5;" x1="90.8204" x2="346.0245" y1="947.8938" y2="947.8938"/><text fill="#000000" font-family="sans-serif" font-size="14" lengthAdjust="spacing" textLength="235.2041" x="100.8204" y="939.592">RESULTADO_NEWTON_COTES_A2</text></g><!--link NEWTON_COTES_A2 to crear_newton_cotes_a2--><g class="link" data-entity-1="NEWTON_COTES_A2" data-entity-2="crear_newton_cotes_a2" data-source-line="15" data-uid="lnk3" id="link_NEWTON_COTES_A2_crear_newton_cotes_a2"><path d="M218.4204,94.7569 C218.4204,118.9969 218.4204,152.9569 218.4204,198.0869" fill="none" id="NEWTON_COTES_A2-to-crear_newton_cotes_a2" style="stroke:#008000;stroke-width:1;"/><polygon fill="#008000" points="218.4204,204.0869,222.4204,195.0869,218.4204,199.0869,214.4204,195.0869,218.4204,204.0869" style="stroke:#008000;stroke-width:1;"/><path d="M223.4204,129.2969 L223.4204,169.2969 L530.4204,169.2969 L530.4204,139.2969 L520.4204,129.2969 L223.4204,129.2969" fill="#F5F5F5" style="stroke:#181818;stroke-width:0.5;"/><path d="M520.4204,129.2969 L520.4204,139.2969 L530.4204,139.2969 L520.4204,129.2969" fill="#F5F5F5" style="stroke:#181818;stroke-width:0.5;"/><text fill="#000000" font-family="sans-serif" font-size="13" font-weight="bold" lengthAdjust="spacing" textLength="118.5742" x="229.4204" y="146.3638">Usuario solicita:</text><text fill="#000000" font-family="sans-serif" font-size="13" lengthAdjust="spacing" textLength="286.438" x="229.4204" y="161.4966">- Crear operaci&#243;n newton cotes abierto n=2</text></g><!--link crear_newton_cotes_a2 to :abrirResultadoNewtonCotesA2--><g class="link" data-entity-1="crear_newton_cotes_a2" data-entity-2=":abrirResultadoNewtonCotesA2" data-source-line="50" data-uid="lnk12" id="link_crear_newton_cotes_a2_:abrirResultadoNewtonCotesA2"><path d="M218.4204,750.0769 C218.4204,774.2969 218.4204,789.2869 218.4204,804.2869" fill="none" id="crear_newton_cotes_a2-to-:abrirResultadoNewtonCotesA2" style="stroke:#008000;stroke-width:1;"/><polygon fill="#008000" points="218.4204,810.2869,222.4204,801.2869,218.4204,805.2869,214.4204,801.2869,218.4204,810.2869" style="stroke:#008000;stroke-width:1;"/></g><!--link :abrirResultadoNewtonCotesA2 to RESULTADO_NEWTON_COTES_A2--><g class="link" data-entity-1=":abrirResultadoNewtonCotesA2" data-entity-2="RESULTADO_NEWTON_COTES_A2" data-source-line="52" data-uid="lnk14" id="link_:abrirResultadoNewtonCotesA2_RESULTADO_NEWTON_COTES_A2"><path d="M218.4204,861.0569 C218.4204,879.0069 218.4204,897.2869 218.4204,915.2169" fill="none" id=":abrirResultadoNewtonCotesA2-to-RESULTADO_NEWTON_COTES_A2" style="stroke:#008000;stroke-width:1;"/><polygon fill="#008000" points="218.4204,921.2169,222.4204,912.2169,218.4204,916.2169,214.4204,912.2169,218.4204,921.2169" style="stroke:#008000;stroke-width:1;"/></g><!--SRC=[fLB1JkCm4BtxAqPmYrI9fd002QHkw66bLOjeAmvL5KsJARAQUiBOsHL2-p5ymtv2VmmxBMaeNIvC8jb-jjzxCnwxqgP4mJLOXuxWHG7ym6prA5oPFE621KwNk3nVd8STbfnaXsQNPpxKNwLiGsBulnmNuVjukj26t7D9K7Bn71PAEUqAWbjoMFWnGSkG4qpza0YXmAWamKnl_XaOqX_71X8lQQ6_q2IEmLp7IgdXu64o6gR9Q38Of_suCpjz528pxzn05cXIKzzDit0tnLZLlZsPDx7oxgDeQYiKpM2vq9bsU1L57k_iNF3UnPO9QYR0bWioULqEdt1TsQF2eLJRxIwWXHCuQO3u4EZj0V_FeZcqy-fwhFi1YJroa5U8A1fhwsYD8FHKURy4ToYRrpKvORlDCqG7bfN9D9jcZSriuMTDVk2jjdLxntJt5RqJBba2CNvRk1U4XVBt0doIdRKKOCVoq_pUl1OwPpi_mjQauGkiGhiUVRVsmIjSY9PxibNXCETjMzPTsVUz-DLkc-L-C9x-clHlH-b1yxu1]--></g></svg>