<svg xmlns="http://www.w3.org/2000/svg" xmlns:xlink="http://www.w3.org/1999/xlink" contentStyleType="text/css" data-diagram-type="STATE" height="896px" preserveAspectRatio="none" style="width:916px;height:896px;background:#FFFFFF;" version="1.1" viewBox="0 0 916 896" width="916px" zoomAndPan="magnify"><title>Detalle Caso de Uso Crear Operaci&#243;n Punto Medio de 5 Puntos</title><defs/><g><g class="title" data-source-line="14"><text fill="#000000" font-family="sans-serif" font-size="14" font-weight="bold" lengthAdjust="spacing" textLength="493.541" x="204.2295" y="22.9951">Detalle Caso de Uso Crear Operaci&#243;n Punto Medio de 5 Puntos</text></g><g id="PUNTO_MEDIO_5_PUNTOS"><rect fill="#FAF4B4" height="50" rx="12.5" ry="12.5" style="stroke:#C90000;stroke-width:0.5;" width="203.1143" x="494.44" y="44.2969"/><line style="stroke:#C90000;stroke-width:0.5;" x1="494.44" x2="697.5543" y1="70.5938" y2="70.5938"/><text fill="#000000" font-family="sans-serif" font-size="14" lengthAdjust="spacing" textLength="183.1143" x="504.44" y="62.292">PUNTO_MEDIO_5_PUNTOS</text></g><path d="M19.5,234.2969 L412.5,234.2969 A12.5,12.5 0 0 1 425,246.7969 L425,260.5938 L7,260.5938 L7,246.7969 A12.5,12.5 0 0 1 19.5,234.2969" fill="#FAF4B4"/><rect fill="none" height="545.2969" rx="12.5" ry="12.5" style="stroke:#C90000;stroke-width:0.5;" width="418" x="7" y="234.2969"/><line style="stroke:#C90000;stroke-width:0.5;" x1="7" x2="425" y1="260.5938" y2="260.5938"/><text fill="#000000" font-family="sans-serif" font-size="14" lengthAdjust="spacing" textLength="264.2705" x="83.8647" y="252.292">crear_punto_medio_5_puntos_funcion</text><g id="crear_punto_medio_5_puntos_funcion.1"><rect fill="#FAF4B4" height="50" rx="12.5" ry="12.5" style="stroke:#C90000;stroke-width:0.5;" width="50" x="157" y="328.5938"/><line style="stroke:#C90000;stroke-width:0.5;" x1="157" x2="207" y1="354.8906" y2="354.8906"/><text fill="#000000" font-family="sans-serif" font-size="14" lengthAdjust="spacing" textLength="4.4502" x="179.7749" y="346.5889">&#160;</text></g><g id="crear_punto_medio_5_puntos_funcion.2"><rect fill="#FAF4B4" height="50" rx="12.5" ry="12.5" style="stroke:#C90000;stroke-width:0.5;" width="50" x="19" y="494.5938"/><line style="stroke:#C90000;stroke-width:0.5;" x1="19" x2="69" y1="520.8906" y2="520.8906"/><text fill="#000000" font-family="sans-serif" font-size="14" lengthAdjust="spacing" textLength="4.4502" x="41.7749" y="512.5889">&#160;</text></g><g id="crear_punto_medio_5_puntos_funcion.3"><rect fill="#FAF4B4" height="50" rx="12.5" ry="12.5" style="stroke:#C90000;stroke-width:0.5;" width="50" x="152" y="660.5938"/><line style="stroke:#C90000;stroke-width:0.5;" x1="152" x2="202" y1="686.8906" y2="686.8906"/><text fill="#000000" font-family="sans-serif" font-size="14" lengthAdjust="spacing" textLength="4.4502" x="174.7749" y="678.5889">&#160;</text></g><ellipse cx="182" cy="281.5938" fill="#222222" rx="10" ry="10" style="stroke:#222222;stroke-width:1;"/><ellipse cx="177" cy="758.5938" fill="none" rx="11" ry="11" style="stroke:#222222;stroke-width:1;"/><ellipse cx="177" cy="758.5938" fill="#222222" rx="6" ry="6" style="stroke:#222222;stroke-width:1;"/><!--link *start*crear_punto_medio_5_puntos_funcion to 1--><g class="link" data-entity-1=".start.crear_punto_medio_5_puntos_funcion" data-entity-2="1" data-source-line="38" data-uid="lnk5" id="link_.start.crear_punto_medio_5_puntos_funcion_1"><path d="M182,292.0338 C182,301.2938 182,309.7838 182,322.2738" fill="none" id="*start*crear_punto_medio_5_puntos_funcion-to-1" style="stroke:#008000;stroke-width:1;"/><polygon fill="#008000" points="182,328.2738,186,319.2738,182,323.2738,178,319.2738,182,328.2738" style="stroke:#008000;stroke-width:1;"/></g><!--link 1 to 2--><g class="link" data-entity-1="1" data-entity-2="2" data-source-line="39" data-uid="lnk6" id="link_1_2"><path d="M156.6,362.9938 C119.54,375.2538 55,396.5938 55,396.5938 C55,396.5938 49.9488,452.618 46.7388,488.218" fill="none" id="1-to-2" style="stroke:#008000;stroke-width:1;"/><polygon fill="#008000" points="46.2,494.1938,50.9921,485.5893,46.649,489.214,43.0244,484.8709,46.2,494.1938" style="stroke:#008000;stroke-width:1;"/><path d="M60,401.5938 L60,471.5938 L301,471.5938 L301,411.5938 L291,401.5938 L60,401.5938" fill="#F5F5F5" style="stroke:#181818;stroke-width:0.5;"/><path d="M291,401.5938 L291,411.5938 L301,411.5938 L291,401.5938" fill="#F5F5F5" style="stroke:#181818;stroke-width:0.5;"/><text fill="#000000" font-family="sans-serif" font-size="13" font-weight="bold" lengthAdjust="spacing" textLength="220.5874" x="66" y="418.6606">Sistema requiere Par&#225;metros:</text><text fill="#000000" font-family="sans-serif" font-size="13" lengthAdjust="spacing" textLength="56.8306" x="66" y="433.7935">- funcion</text><text fill="#000000" font-family="sans-serif" font-size="13" lengthAdjust="spacing" textLength="24.7876" x="66" y="448.9263">- x0</text><text fill="#000000" font-family="sans-serif" font-size="13" lengthAdjust="spacing" textLength="17.0625" x="66" y="464.0591">- h</text></g><!--link 2 to 3--><g class="link" data-entity-1="2" data-entity-2="3" data-source-line="46" data-uid="lnk7" id="link_2_3"><path d="M39.35,545.0238 C37.59,554.2638 36,562.5938 36,562.5938 C36,562.5938 36,642.5938 36,642.5938 C36,642.5938 105.4897,663.2907 146.0397,675.3707" fill="none" id="2-to-3" style="stroke:#008000;stroke-width:1;"/><polygon fill="#008000" points="151.79,677.0838,144.3066,670.6807,146.9981,675.6562,142.0226,678.3477,151.79,677.0838" style="stroke:#008000;stroke-width:1;"/><path d="M41,567.5938 L41,637.5938 L301,637.5938 L301,577.5938 L291,567.5938 L41,567.5938" fill="#F5F5F5" style="stroke:#181818;stroke-width:0.5;"/><path d="M291,567.5938 L291,577.5938 L301,577.5938 L291,567.5938" fill="#F5F5F5" style="stroke:#181818;stroke-width:0.5;"/><text fill="#000000" font-family="sans-serif" font-size="13" font-weight="bold" lengthAdjust="spacing" textLength="239.5859" x="47" y="584.6606">Cliente Proporciona Par&#225;metros:</text><text fill="#000000" font-family="sans-serif" font-size="13" lengthAdjust="spacing" textLength="56.8306" x="55.2646" y="599.7935">- funcion</text><text fill="#000000" font-family="sans-serif" font-size="13" lengthAdjust="spacing" textLength="24.7876" x="55.2646" y="614.9263">- x0</text><text fill="#000000" font-family="sans-serif" font-size="13" lengthAdjust="spacing" textLength="17.0625" x="55.2646" y="630.0591">- h</text></g><!--link 3 to 1--><g class="link" data-entity-1="3" data-entity-2="1" data-source-line="53" data-uid="lnk8" id="link_3_1"><path d="M202.49,676.2938 C240.08,664.0538 306,642.5938 306,642.5938 C306,642.5938 306,396.5938 306,396.5938 C306,396.5938 249.3528,377.4088 213.0728,365.1188" fill="none" id="3-to-1" style="stroke:#FF0000;stroke-width:1;"/><polygon fill="#FF0000" points="207.39,363.1938,214.6308,369.8699,212.1257,364.798,217.1976,362.2928,207.39,363.1938" style="stroke:#FF0000;stroke-width:1;"/><path d="M311,499.5938 L311,539.5938 L416,539.5938 L416,509.5938 L406,499.5938 L311,499.5938" fill="#F5F5F5" style="stroke:#181818;stroke-width:0.5;"/><path d="M406,499.5938 L406,509.5938 L416,509.5938 L406,499.5938" fill="#F5F5F5" style="stroke:#181818;stroke-width:0.5;"/><text fill="#000000" font-family="sans-serif" font-size="13" lengthAdjust="spacing" textLength="80.0186" x="317" y="516.6606">[Par&#225;metros</text><text fill="#000000" font-family="sans-serif" font-size="13" lengthAdjust="spacing" textLength="63.0068" x="325.2646" y="531.7935">Inv&#225;lidos]</text></g><!--link 3 to *end*crear_punto_medio_5_puntos_funcion--><g class="link" data-entity-1="3" data-entity-2=".end.crear_punto_medio_5_puntos_funcion" data-source-line="58" data-uid="lnk10" id="link_3_.end.crear_punto_medio_5_puntos_funcion"><path d="M177,711.0238 C177,723.3838 177,731.7238 177,741.1938" fill="none" id="3-to-*end*crear_punto_medio_5_puntos_funcion" style="stroke:#008000;stroke-width:1;"/><polygon fill="#008000" points="177,747.1938,181,738.1938,177,742.1938,173,738.1938,177,747.1938" style="stroke:#008000;stroke-width:1;"/></g><path d="M472.5,249.2969 L865.5,249.2969 A12.5,12.5 0 0 1 878,261.7969 L878,275.5938 L460,275.5938 L460,261.7969 A12.5,12.5 0 0 1 472.5,249.2969" fill="#FAF4B4"/><rect fill="none" height="515.2969" rx="12.5" ry="12.5" style="stroke:#C90000;stroke-width:0.5;" width="418" x="460" y="249.2969"/><line style="stroke:#C90000;stroke-width:0.5;" x1="460" x2="878" y1="275.5938" y2="275.5938"/><text fill="#000000" font-family="sans-serif" font-size="14" lengthAdjust="spacing" textLength="251.3848" x="543.3076" y="267.292">crear_punto_medio_5_puntos_datos</text><g id="crear_punto_medio_5_puntos_datos.4"><rect fill="#FAF4B4" height="50" rx="12.5" ry="12.5" style="stroke:#C90000;stroke-width:0.5;" width="50" x="610" y="343.5938"/><line style="stroke:#C90000;stroke-width:0.5;" x1="610" x2="660" y1="369.8906" y2="369.8906"/><text fill="#000000" font-family="sans-serif" font-size="14" lengthAdjust="spacing" textLength="4.4502" x="632.7749" y="361.5889">&#160;</text></g><g id="crear_punto_medio_5_puntos_datos.5"><rect fill="#FAF4B4" height="50" rx="12.5" ry="12.5" style="stroke:#C90000;stroke-width:0.5;" width="50" x="472" y="494.5938"/><line style="stroke:#C90000;stroke-width:0.5;" x1="472" x2="522" y1="520.8906" y2="520.8906"/><text fill="#000000" font-family="sans-serif" font-size="14" lengthAdjust="spacing" textLength="4.4502" x="494.7749" y="512.5889">&#160;</text></g><g id="crear_punto_medio_5_puntos_datos.6"><rect fill="#FAF4B4" height="50" rx="12.5" ry="12.5" style="stroke:#C90000;stroke-width:0.5;" width="50" x="605" y="645.5938"/><line style="stroke:#C90000;stroke-width:0.5;" x1="605" x2="655" y1="671.8906" y2="671.8906"/><text fill="#000000" font-family="sans-serif" font-size="14" lengthAdjust="spacing" textLength="4.4502" x="627.7749" y="663.5889">&#160;</text></g><ellipse cx="635" cy="296.5938" fill="#222222" rx="10" ry="10" style="stroke:#222222;stroke-width:1;"/><ellipse cx="630" cy="743.5938" fill="none" rx="11" ry="11" style="stroke:#222222;stroke-width:1;"/><ellipse cx="630" cy="743.5938" fill="#222222" rx="6" ry="6" style="stroke:#222222;stroke-width:1;"/><!--link *start*crear_punto_medio_5_puntos_datos to 4--><g class="link" data-entity-1=".start.crear_punto_medio_5_puntos_datos" data-entity-2="4" data-source-line="67" data-uid="lnk12" id="link_.start.crear_punto_medio_5_puntos_datos_4"><path d="M635,307.0338 C635,316.2938 635,324.7838 635,337.2738" fill="none" id="*start*crear_punto_medio_5_puntos_datos-to-4" style="stroke:#008000;stroke-width:1;"/><polygon fill="#008000" points="635,343.2738,639,334.2738,635,338.2738,631,334.2738,635,343.2738" style="stroke:#008000;stroke-width:1;"/></g><!--link 4 to 5--><g class="link" data-entity-1="4" data-entity-2="5" data-source-line="68" data-uid="lnk13" id="link_4_5"><path d="M609.6,377.9938 C572.54,390.2538 508,411.5938 508,411.5938 C508,411.5938 503.3526,456.7751 500.1126,488.3451" fill="none" id="4-to-5" style="stroke:#008000;stroke-width:1;"/><polygon fill="#008000" points="499.5,494.3138,504.3979,485.7691,500.0105,489.3399,496.4397,484.9524,499.5,494.3138" style="stroke:#008000;stroke-width:1;"/><path d="M513,416.5938 L513,471.5938 L754,471.5938 L754,426.5938 L744,416.5938 L513,416.5938" fill="#F5F5F5" style="stroke:#181818;stroke-width:0.5;"/><path d="M744,416.5938 L744,426.5938 L754,426.5938 L744,416.5938" fill="#F5F5F5" style="stroke:#181818;stroke-width:0.5;"/><text fill="#000000" font-family="sans-serif" font-size="13" font-weight="bold" lengthAdjust="spacing" textLength="220.5874" x="519" y="433.6606">Sistema requiere Par&#225;metros:</text><text fill="#000000" font-family="sans-serif" font-size="13" lengthAdjust="spacing" textLength="44.8652" x="519" y="448.7935">- datos</text><text fill="#000000" font-family="sans-serif" font-size="13" lengthAdjust="spacing" textLength="24.7876" x="519" y="463.9263">- x0</text></g><!--link 5 to 6--><g class="link" data-entity-1="5" data-entity-2="6" data-source-line="74" data-uid="lnk14" id="link_5_6"><path d="M492.35,545.0238 C490.59,554.2638 489,562.5938 489,562.5938 C489,562.5938 489,627.5938 489,627.5938 C489,627.5938 558.4897,648.2907 599.0397,660.3707" fill="none" id="5-to-6" style="stroke:#008000;stroke-width:1;"/><polygon fill="#008000" points="604.79,662.0838,597.3066,655.6807,599.9981,660.6562,595.0226,663.3477,604.79,662.0838" style="stroke:#008000;stroke-width:1;"/><path d="M494,567.5938 L494,622.5938 L754,622.5938 L754,577.5938 L744,567.5938 L494,567.5938" fill="#F5F5F5" style="stroke:#181818;stroke-width:0.5;"/><path d="M744,567.5938 L744,577.5938 L754,577.5938 L744,567.5938" fill="#F5F5F5" style="stroke:#181818;stroke-width:0.5;"/><text fill="#000000" font-family="sans-serif" font-size="13" font-weight="bold" lengthAdjust="spacing" textLength="239.5859" x="500" y="584.6606">Cliente Proporciona Par&#225;metros:</text><text fill="#000000" font-family="sans-serif" font-size="13" lengthAdjust="spacing" textLength="44.8652" x="508.2646" y="599.7935">- datos</text><text fill="#000000" font-family="sans-serif" font-size="13" lengthAdjust="spacing" textLength="24.7876" x="508.2646" y="614.9263">- x0</text></g><!--link 6 to 4--><g class="link" data-entity-1="6" data-entity-2="4" data-source-line="80" data-uid="lnk15" id="link_6_4"><path d="M655.49,661.2938 C693.08,649.0538 759,627.5938 759,627.5938 C759,627.5938 759,411.5938 759,411.5938 C759,411.5938 702.3528,392.4088 666.0728,380.1188" fill="none" id="6-to-4" style="stroke:#FF0000;stroke-width:1;"/><polygon fill="#FF0000" points="660.39,378.1938,667.6308,384.8699,665.1257,379.798,670.1976,377.2928,660.39,378.1938" style="stroke:#FF0000;stroke-width:1;"/><path d="M764,499.5938 L764,539.5938 L869,539.5938 L869,509.5938 L859,499.5938 L764,499.5938" fill="#F5F5F5" style="stroke:#181818;stroke-width:0.5;"/><path d="M859,499.5938 L859,509.5938 L869,509.5938 L859,499.5938" fill="#F5F5F5" style="stroke:#181818;stroke-width:0.5;"/><text fill="#000000" font-family="sans-serif" font-size="13" lengthAdjust="spacing" textLength="80.0186" x="770" y="516.6606">[Par&#225;metros</text><text fill="#000000" font-family="sans-serif" font-size="13" lengthAdjust="spacing" textLength="63.0068" x="774.1323" y="531.7935">Inv&#225;lidos]</text></g><!--link 6 to *end*crear_punto_medio_5_puntos_datos--><g class="link" data-entity-1="6" data-entity-2=".end.crear_punto_medio_5_puntos_datos" data-source-line="85" data-uid="lnk17" id="link_6_.end.crear_punto_medio_5_puntos_datos"><path d="M630,696.0238 C630,708.3838 630,716.7238 630,726.1938" fill="none" id="6-to-*end*crear_punto_medio_5_puntos_datos" style="stroke:#008000;stroke-width:1;"/><polygon fill="#008000" points="630,732.1938,634,723.1938,630,727.1938,626,723.1938,630,732.1938" style="stroke:#008000;stroke-width:1;"/></g><g id=".calcularResultadoPuntoMedio5Puntos"><rect fill="#FAF4B4" height="50" rx="12.5" ry="12.5" style="stroke:#C90000;stroke-width:0.5;" width="288.3174" x="524.84" y="840.5969"/><line style="stroke:#C90000;stroke-width:0.5;" x1="524.84" x2="813.1574" y1="866.8938" y2="866.8938"/><text fill="#000000" font-family="sans-serif" font-size="14" lengthAdjust="spacing" textLength="268.3174" x="534.84" y="858.592">:calcularResultadoPuntoMedio5Puntos</text></g><!--link PUNTO_MEDIO_5_PUNTOS to crear_punto_medio_5_puntos_funcion--><g class="link" data-entity-1="PUNTO_MEDIO_5_PUNTOS" data-entity-2="crear_punto_medio_5_puntos_funcion" data-source-line="18" data-uid="lnk2" id="link_PUNTO_MEDIO_5_PUNTOS_crear_punto_medio_5_puntos_funcion"><path d="M494.24,87.3069 C399.57,103.1369 273,124.2969 273,124.2969 C273,124.2969 266.7464,166.1927 257.5164,227.9827" fill="none" id="PUNTO_MEDIO_5_PUNTOS-to-crear_punto_medio_5_puntos_funcion" style="stroke:#008000;stroke-width:1;"/><polygon fill="#008000" points="256.63,233.9169,261.9157,225.6066,257.3687,228.9717,254.0035,224.4247,256.63,233.9169" style="stroke:#008000;stroke-width:1;"/><path d="M278,129.2969 L278,199.2969 L580,199.2969 L580,139.2969 L570,129.2969 L278,129.2969" fill="#F5F5F5" style="stroke:#181818;stroke-width:0.5;"/><path d="M570,129.2969 L570,139.2969 L580,139.2969 L570,129.2969" fill="#F5F5F5" style="stroke:#181818;stroke-width:0.5;"/><text fill="#000000" font-family="sans-serif" font-size="13" font-weight="bold" lengthAdjust="spacing" textLength="114.0103" x="284" y="146.3638">Cliente solicita:</text><text fill="#000000" font-family="sans-serif" font-size="13" lengthAdjust="spacing" textLength="281.1504" x="284" y="161.4966">- Crear operaci&#243;n punto medio de 5 puntos</text><text fill="#000000" font-family="sans-serif" font-size="13" font-weight="bold" lengthAdjust="spacing" textLength="97.1318" x="284" y="176.6294">Cliente elige:</text><text fill="#000000" font-family="sans-serif" font-size="13" lengthAdjust="spacing" textLength="135.1099" x="284" y="191.7622">- Funci&#243;n de entrada</text></g><!--link PUNTO_MEDIO_5_PUNTOS to crear_punto_medio_5_puntos_datos--><g class="link" data-entity-1="PUNTO_MEDIO_5_PUNTOS" data-entity-2="crear_punto_medio_5_puntos_datos" data-source-line="25" data-uid="lnk3" id="link_PUNTO_MEDIO_5_PUNTOS_crear_punto_medio_5_puntos_datos"><path d="M594.64,94.7769 C593.85,109.0569 593,124.2969 593,124.2969 C593,124.2969 593,204.2969 593,204.2969 C593,204.2969 595.9951,216.1785 602.7451,242.9885" fill="none" id="PUNTO_MEDIO_5_PUNTOS-to-crear_punto_medio_5_puntos_datos" style="stroke:#008000;stroke-width:1;"/><polygon fill="#008000" points="604.21,248.8069,605.8916,239.1026,602.9892,243.9582,598.1337,241.0559,604.21,248.8069" style="stroke:#008000;stroke-width:1;"/><path d="M598,129.2969 L598,199.2969 L900,199.2969 L900,139.2969 L890,129.2969 L598,129.2969" fill="#F5F5F5" style="stroke:#181818;stroke-width:0.5;"/><path d="M890,129.2969 L890,139.2969 L900,139.2969 L890,129.2969" fill="#F5F5F5" style="stroke:#181818;stroke-width:0.5;"/><text fill="#000000" font-family="sans-serif" font-size="13" font-weight="bold" lengthAdjust="spacing" textLength="114.0103" x="604" y="146.3638">Cliente solicita:</text><text fill="#000000" font-family="sans-serif" font-size="13" lengthAdjust="spacing" textLength="281.1504" x="604" y="161.4966">- Crear operaci&#243;n punto medio de 5 puntos</text><text fill="#000000" font-family="sans-serif" font-size="13" font-weight="bold" lengthAdjust="spacing" textLength="97.1318" x="604" y="176.6294">Cliente elige:</text><text fill="#000000" font-family="sans-serif" font-size="13" lengthAdjust="spacing" textLength="203.1694" x="604" y="191.7622">- Conjunto de datos de entrada</text></g><!--link crear_punto_medio_5_puntos_funcion to :calcularResultadoPuntoMedio5Puntos--><g class="link" data-entity-1="crear_punto_medio_5_puntos_funcion" data-entity-2=".calcularResultadoPuntoMedio5Puntos" data-source-line="90" data-uid="lnk19" id="link_crear_punto_medio_5_puntos_funcion_.calcularResultadoPuntoMedio5Puntos"><path d="M425.38,759.6269 C435.77,772.1069 442,779.5969 442,779.5969 C442,779.5969 530.971,812.9129 598.031,838.0229" fill="none" id="crear_punto_medio_5_puntos_funcion-to-:calcularResultadoPuntoMedio5Puntos" style="stroke:#008000;stroke-width:1;"/><polygon fill="#008000" points="603.65,840.1269,596.6241,833.2249,598.9675,838.3736,593.8188,840.7169,603.65,840.1269" style="stroke:#008000;stroke-width:1;"/></g><!--link crear_punto_medio_5_puntos_datos to :calcularResultadoPuntoMedio5Puntos--><g class="link" data-entity-1="crear_punto_medio_5_puntos_datos" data-entity-2=".calcularResultadoPuntoMedio5Puntos" data-source-line="91" data-uid="lnk20" id="link_crear_punto_medio_5_puntos_datos_.calcularResultadoPuntoMedio5Puntos"><path d="M669,764.7769 C669,795.4369 669,816.2369 669,834.3169" fill="none" id="crear_punto_medio_5_puntos_datos-to-:calcularResultadoPuntoMedio5Puntos" style="stroke:#008000;stroke-width:1;"/><polygon fill="#008000" points="669,840.3169,673,831.3169,669,835.3169,665,831.3169,669,840.3169" style="stroke:#008000;stroke-width:1;"/></g><!--link :calcularResultadoPuntoMedio5Puntos to PUNTO_MEDIO_5_PUNTOS--><g class="link" data-entity-1=".calcularResultadoPuntoMedio5Puntos" data-entity-2="PUNTO_MEDIO_5_PUNTOS" data-source-line="93" data-uid="lnk21" id="link_.calcularResultadoPuntoMedio5Puntos_PUNTO_MEDIO_5_PUNTOS"><path d="M734.35,840.1269 C801.41,815.0169 896,779.5969 896,779.5969 C896,779.5969 909,204.2969 909,204.2969 C909,204.2969 909,124.2969 909,124.2969 C909,124.2969 795.3026,104.6871 703.9626,88.9271" fill="none" id=":calcularResultadoPuntoMedio5Puntos-to-PUNTO_MEDIO_5_PUNTOS" style="stroke:#008000;stroke-width:1;"/><polygon fill="#008000" points="698.05,87.9069,706.2388,93.3789,702.9772,88.757,707.5991,85.4954,698.05,87.9069" style="stroke:#008000;stroke-width:1;"/></g><!--SRC=[lLHBRjim4Dtp58Da9y1075i6caKNTLeWYzH6qwmCGs34SSgQugWaLJGeUfYSeKVmnKfI_aYk4himKDg0nAVXUvnvGpegmH4ya7DKW906SoT9CsQNKfVSy0AiumxX9mDun_Fbew5AYp4fCd2-u8lXmp1y8IFGhD7ypOKVx5UJHDEB76dujQELrEYUIeIIr5EOCEQaKmZNwBZopp6t10BXtZ_61hc1IOc6vtBrMyEqqZwbMnGongGrOBr0p6Hw__7p9BjzVtqpoT8ipkw0iKwuDpj_D8XwtdiBUT39oi2L5O7SXyMPpHQLpaFLOfQam_wNFjSa6Ik9scEMbCoburT9ul7UUi-qstCaWcAtvvgvHO9AFkA6uKEG32jzjFzgkE0CjOY5FYaNmOFkVynaJFfhNEEZetXdIclp3fiGkwmExWEtS0PdM-1o7nZi0F-V9VDMbVeUwxUGIu_ibIQC9BcJrc71mU2tIgBnNSRDwhb0PyZMYORHWqsdREO_BhQlN_pRDbtmUsqA3xg4TmMT6Yh916P-kl8WA1iKcnByfJjhIC2QvKP_NpqhASZEEzYsUVWIitZM3xbPTyBEo-6-TUa-C7hLot1B3Lj8UggNzKbfrREHTzeI6vtit-jgeuPdmoCzUz6oKQTbx8YprrntbNELLugRJsWhvRYWU0_7UpbTNya76-1V2TaHGKtEhflo3m00]--></g></svg>