<svg xmlns="http://www.w3.org/2000/svg" xmlns:xlink="http://www.w3.org/1999/xlink" contentStyleType="text/css" data-diagram-type="STATE" height="896px" preserveAspectRatio="none" style="width:527px;height:896px;background:#FFFFFF;" version="1.1" viewBox="0 0 527 896" width="527px" zoomAndPan="magnify"><title>Detalle Caso de Uso Crear Operaci&#243;n Punto Medio Compuesta</title><defs/><g><g class="title" data-source-line="14"><text fill="#000000" font-family="sans-serif" font-size="14" font-weight="bold" lengthAdjust="spacing" textLength="488.1338" x="12.8316" y="22.9951">Detalle Caso de Uso Crear Operaci&#243;n Punto Medio Compuesta</text></g><g id="PUNTO_MEDIO_COMPUESTA"><rect fill="#FAF4B4" height="50" rx="12.5" ry="12.5" style="stroke:#C90000;stroke-width:0.5;" width="217.0117" x="239.49" y="44.2969"/><line style="stroke:#C90000;stroke-width:0.5;" x1="239.49" x2="456.5017" y1="70.5938" y2="70.5938"/><text fill="#000000" font-family="sans-serif" font-size="14" lengthAdjust="spacing" textLength="197.0117" x="249.49" y="62.292">PUNTO_MEDIO_COMPUESTA</text></g><path d="M19.5,204.2969 L414.5,204.2969 A12.5,12.5 0 0 1 427,216.7969 L427,230.5938 L7,230.5938 L7,216.7969 A12.5,12.5 0 0 1 19.5,204.2969" fill="#FAF4B4" style="stroke:#FAF4B4;stroke-width:1;"/><rect fill="none" height="575.2969" rx="12.5" ry="12.5" style="stroke:#C90000;stroke-width:0.5;" width="420" x="7" y="204.2969"/><line style="stroke:#C90000;stroke-width:0.5;" x1="7" x2="427" y1="230.5938" y2="230.5938"/><text fill="#000000" font-family="sans-serif" font-size="14" lengthAdjust="spacing" textLength="219.3174" x="107.3413" y="222.292">crear_punto_medio_compuesta</text><g id="crear_punto_medio_compuesta.1"><rect fill="#FAF4B4" height="50" rx="12.5" ry="12.5" style="stroke:#C90000;stroke-width:0.5;" width="50" x="158" y="298.5938"/><line style="stroke:#C90000;stroke-width:0.5;" x1="158" x2="208" y1="324.8906" y2="324.8906"/><text fill="#000000" font-family="sans-serif" font-size="14" lengthAdjust="spacing" textLength="4.4502" x="180.7749" y="316.5889">&#160;</text></g><g id="crear_punto_medio_compuesta.2"><rect fill="#FAF4B4" height="50" rx="12.5" ry="12.5" style="stroke:#C90000;stroke-width:0.5;" width="50" x="19" y="479.5938"/><line style="stroke:#C90000;stroke-width:0.5;" x1="19" x2="69" y1="505.8906" y2="505.8906"/><text fill="#000000" font-family="sans-serif" font-size="14" lengthAdjust="spacing" textLength="4.4502" x="41.7749" y="497.5889">&#160;</text></g><g id="crear_punto_medio_compuesta.3"><rect fill="#FAF4B4" height="50" rx="12.5" ry="12.5" style="stroke:#C90000;stroke-width:0.5;" width="50" x="152" y="660.5938"/><line style="stroke:#C90000;stroke-width:0.5;" x1="152" x2="202" y1="686.8906" y2="686.8906"/><text fill="#000000" font-family="sans-serif" font-size="14" lengthAdjust="spacing" textLength="4.4502" x="174.7749" y="678.5889">&#160;</text></g><ellipse cx="183" cy="251.5938" fill="#222222" rx="10" ry="10" style="stroke:#222222;stroke-width:1;"/><ellipse cx="177" cy="758.5938" fill="none" rx="11" ry="11" style="stroke:#222222;stroke-width:1;"/><ellipse cx="177" cy="758.5938" fill="#222222" rx="6" ry="6" style="stroke:#222222;stroke-width:1;"/><!--link *start*crear_punto_medio_compuesta to 1--><g class="link" data-entity-1="*start*crear_punto_medio_compuesta" data-entity-2="1" data-source-line="29" data-uid="lnk4" id="link_*start*crear_punto_medio_compuesta_1"><path d="M183,262.0338 C183,271.2938 183,279.7838 183,292.2738" fill="none" id="*start*crear_punto_medio_compuesta-to-1" style="stroke:#008000;stroke-width:1;"/><polygon fill="#008000" points="183,298.2738,187,289.2738,183,293.2738,179,289.2738,183,298.2738" style="stroke:#008000;stroke-width:1;"/></g><!--link 1 to 2--><g class="link" data-entity-1="1" data-entity-2="2" data-source-line="30" data-uid="lnk5" id="link_1_2"><path d="M157.5,333.0938 C120.68,345.3638 57,366.5938 57,366.5938 C57,366.5938 50.6269,433.7206 46.8869,473.1306" fill="none" id="1-to-2" style="stroke:#008000;stroke-width:1;"/><polygon fill="#008000" points="46.32,479.1038,51.1524,470.5219,46.7924,474.1261,43.1882,469.7661,46.32,479.1038" style="stroke:#008000;stroke-width:1;"/><path d="M62,371.5938 L62,456.5938 L303,456.5938 L303,381.5938 L293,371.5938 L62,371.5938" fill="#F5F5F5" style="stroke:#181818;stroke-width:0.5;"/><path d="M293,371.5938 L293,381.5938 L303,381.5938 L293,371.5938" fill="#F5F5F5" style="stroke:#181818;stroke-width:0.5;"/><text fill="#000000" font-family="sans-serif" font-size="13" font-weight="bold" lengthAdjust="spacing" textLength="220.5874" x="68" y="388.6606">Sistema requiere Par&#225;metros:</text><text fill="#000000" font-family="sans-serif" font-size="13" lengthAdjust="spacing" textLength="56.8306" x="68" y="403.7935">- funcion</text><text fill="#000000" font-family="sans-serif" font-size="13" lengthAdjust="spacing" textLength="16.7896" x="68" y="418.9263">- a</text><text fill="#000000" font-family="sans-serif" font-size="13" lengthAdjust="spacing" textLength="17.0752" x="68" y="434.0591">- b</text><text fill="#000000" font-family="sans-serif" font-size="13" lengthAdjust="spacing" textLength="17.0625" x="68" y="449.1919">- n</text></g><!--link 2 to 3--><g class="link" data-entity-1="2" data-entity-2="3" data-source-line="38" data-uid="lnk6" id="link_2_3"><path d="M37.6,530.0238 C35.18,539.2638 33,547.5938 33,547.5938 C33,547.5938 33,642.5938 33,642.5938 C33,642.5938 104.4901,663.4434 145.8301,675.5034" fill="none" id="2-to-3" style="stroke:#008000;stroke-width:1;"/><polygon fill="#008000" points="151.59,677.1838,144.0704,670.8233,146.7901,675.7835,141.8299,678.5032,151.59,677.1838" style="stroke:#008000;stroke-width:1;"/><path d="M38,552.5938 L38,637.5938 L303,637.5938 L303,562.5938 L293,552.5938 L38,552.5938" fill="#F5F5F5" style="stroke:#181818;stroke-width:0.5;"/><path d="M293,552.5938 L293,562.5938 L303,562.5938 L293,552.5938" fill="#F5F5F5" style="stroke:#181818;stroke-width:0.5;"/><text fill="#000000" font-family="sans-serif" font-size="13" font-weight="bold" lengthAdjust="spacing" textLength="244.1499" x="44" y="569.6606">Usuario Proporciona Par&#225;metros:</text><text fill="#000000" font-family="sans-serif" font-size="13" lengthAdjust="spacing" textLength="56.8306" x="52.2646" y="584.7935">- funcion</text><text fill="#000000" font-family="sans-serif" font-size="13" lengthAdjust="spacing" textLength="16.7896" x="52.2646" y="599.9263">- a</text><text fill="#000000" font-family="sans-serif" font-size="13" lengthAdjust="spacing" textLength="17.0752" x="52.2646" y="615.0591">- b</text><text fill="#000000" font-family="sans-serif" font-size="13" lengthAdjust="spacing" textLength="17.0625" x="52.2646" y="630.1919">- n</text></g><!--link 3 to 1--><g class="link" data-entity-1="3" data-entity-2="1" data-source-line="46" data-uid="lnk7" id="link_3_1"><path d="M202.26,676.4938 C240.33,664.2938 308,642.5938 308,642.5938 C308,642.5938 308,366.5938 308,366.5938 C308,366.5938 250.5076,347.2747 213.9876,335.0047" fill="none" id="3-to-1" style="stroke:#FF0000;stroke-width:1;"/><polygon fill="#FF0000" points="208.3,333.0938,215.5574,339.7518,213.0396,334.6862,218.1053,332.1684,208.3,333.0938" style="stroke:#FF0000;stroke-width:1;"/><path d="M313,484.5938 L313,524.5938 L418,524.5938 L418,494.5938 L408,484.5938 L313,484.5938" fill="#F5F5F5" style="stroke:#181818;stroke-width:0.5;"/><path d="M408,484.5938 L408,494.5938 L418,494.5938 L408,484.5938" fill="#F5F5F5" style="stroke:#181818;stroke-width:0.5;"/><text fill="#000000" font-family="sans-serif" font-size="13" lengthAdjust="spacing" textLength="80.0186" x="319" y="501.6606">[Par&#225;metros</text><text fill="#000000" font-family="sans-serif" font-size="13" lengthAdjust="spacing" textLength="63.0068" x="327.2646" y="516.7935">Inv&#225;lidos]</text></g><!--link 3 to *end*crear_punto_medio_compuesta--><g class="link" data-entity-1="3" data-entity-2="*end*crear_punto_medio_compuesta" data-source-line="51" data-uid="lnk9" id="link_3_*end*crear_punto_medio_compuesta"><path d="M177,711.0238 C177,723.3838 177,731.7238 177,741.1938" fill="none" id="3-to-*end*crear_punto_medio_compuesta" style="stroke:#008000;stroke-width:1;"/><polygon fill="#008000" points="177,747.1938,181,738.1938,177,742.1938,173,738.1938,177,747.1938" style="stroke:#008000;stroke-width:1;"/></g><g id=":calcularResultadoPuntoMedioCompuesta"><rect fill="#FAF4B4" height="50" rx="12.5" ry="12.5" style="stroke:#C90000;stroke-width:0.5;" width="311.5869" x="209.21" y="840.5969"/><line style="stroke:#C90000;stroke-width:0.5;" x1="209.21" x2="520.7969" y1="866.8938" y2="866.8938"/><text fill="#000000" font-family="sans-serif" font-size="14" lengthAdjust="spacing" textLength="291.5869" x="219.21" y="858.592">:calcularResultadoPuntoMedioCompuesta</text></g><!--link PUNTO_MEDIO_COMPUESTA to crear_punto_medio_compuesta--><g class="link" data-entity-1="PUNTO_MEDIO_COMPUESTA" data-entity-2="crear_punto_medio_compuesta" data-source-line="18" data-uid="lnk2" id="link_PUNTO_MEDIO_COMPUESTA_crear_punto_medio_compuesta"><path d="M272.32,94.7769 C228.13,109.0569 181,124.2969 181,124.2969 C181,124.2969 181,174.2969 181,174.2969 C181,174.2969 181.6042,179.5851 183.6742,197.8451" fill="none" id="PUNTO_MEDIO_COMPUESTA-to-crear_punto_medio_compuesta" style="stroke:#008000;stroke-width:1;"/><polygon fill="#008000" points="184.35,203.8069,187.3108,194.4136,183.7868,198.8387,179.3617,195.3147,184.35,203.8069" style="stroke:#008000;stroke-width:1;"/><path d="M186,129.2969 L186,169.2969 L482,169.2969 L482,139.2969 L472,129.2969 L186,129.2969" fill="#F5F5F5" style="stroke:#181818;stroke-width:0.5;"/><path d="M472,129.2969 L472,139.2969 L482,139.2969 L472,129.2969" fill="#F5F5F5" style="stroke:#181818;stroke-width:0.5;"/><text fill="#000000" font-family="sans-serif" font-size="13" font-weight="bold" lengthAdjust="spacing" textLength="118.5742" x="192" y="146.3638">Usuario solicita:</text><text fill="#000000" font-family="sans-serif" font-size="13" lengthAdjust="spacing" textLength="275.9009" x="192" y="161.4966">- Crear operaci&#243;n punto medio compuesta</text></g><!--link crear_punto_medio_compuesta to :calcularResultadoPuntoMedioCompuesta--><g class="link" data-entity-1="crear_punto_medio_compuesta" data-entity-2=":calcularResultadoPuntoMedioCompuesta" data-source-line="55" data-uid="lnk11" id="link_crear_punto_medio_compuesta_:calcularResultadoPuntoMedioCompuesta"><path d="M331.23,779.7969 C340.95,804.1969 347.1087,819.6832 353.0987,834.7132" fill="none" id="crear_punto_medio_compuesta-to-:calcularResultadoPuntoMedioCompuesta" style="stroke:#008000;stroke-width:1;"/><polygon fill="#008000" points="355.32,840.2869,355.7038,830.4455,353.4689,835.6422,348.2723,833.4072,355.32,840.2869" style="stroke:#008000;stroke-width:1;"/></g><!--link :calcularResultadoPuntoMedioCompuesta to PUNTO_MEDIO_COMPUESTA--><g class="link" data-entity-1=":calcularResultadoPuntoMedioCompuesta" data-entity-2="PUNTO_MEDIO_COMPUESTA" data-source-line="57" data-uid="lnk12" id="link_:calcularResultadoPuntoMedioCompuesta_PUNTO_MEDIO_COMPUESTA"><path d="M387.43,840.4669 C410.78,815.3369 444,779.5969 444,779.5969 C444,779.5969 491,174.2969 491,174.2969 C491,174.2969 491,124.2969 491,124.2969 C491,124.2969 456.2534,111.1758 418.4234,96.8958" fill="none" id=":calcularResultadoPuntoMedioCompuesta-to-PUNTO_MEDIO_COMPUESTA" style="stroke:#008000;stroke-width:1;"/><polygon fill="#008000" points="412.81,94.7769,419.8175,101.6975,417.4878,96.5427,422.6427,94.213,412.81,94.7769" style="stroke:#008000;stroke-width:1;"/></g><!--SRC=[hLB1QXin4BthAuRajc2eu-JG70gjaqCEZaqJdunPnj8u26ircv4s44e_9j_GJ_2FLThOwqtgXXugBKXwCxnvRtOYrn0PLXmZLs2ia8wMlL9XOtsDWXM4Y97WXmBuXdhp8DnuCsR70gThN9-lpdE4nP3iKFtvKrhgPv_4yryvBl9-c-sif_XS4zJidlD3gMYZ8xYYY2wTOmmCXc2UZh4G2anh4jHs-yl3hF79qeICJK6kweQIXKJV-fZDR- -dvUJwwcPQZgUJsVpwxlwhKaVXmUBqGOZySl05TAvIrfcwh39rgJlgrXpxB7kJB1R5F3GegNfWPxMDU5aK2H_ifF91Qii7BHyS-CYRjc5xpH_KpYrzJHe21ZY1amuuUm-C3a3w5iKI-WQ72Hk-GSuIyivQNaLnPqEa2a7eiR4agQaesvUAed1ujPhN0DQDrtcOzc_iRglkbgETNqYY-mf6nnGSsZiJhbbo2VoF4aPPWf3PD-KF0OjUBTYntFYdxOkpXiFo25jdA3LTvL7_u8_sqoyrEjqubEyK6XVHS3lRxMZt9lkVqlgyHwVzDm00]--></g></svg>