<svg xmlns="http://www.w3.org/2000/svg" xmlns:xlink="http://www.w3.org/1999/xlink" contentStyleType="text/css" data-diagram-type="CLASS" height="393px" preserveAspectRatio="none" style="width:852px;height:393px;background:#FFFFFF;" version="1.1" viewBox="0 0 852 393" width="852px" zoomAndPan="magnify"><title>Diagrama de Clases</title><defs/><g><g class="title" data-source-line="1"><text fill="#000000" font-family="sans-serif" font-size="14" font-weight="bold" lengthAdjust="spacing" textLength="156.2217" x="340.8892" y="22.9951">Diagrama de Clases</text></g><!--cluster  --><g class="cluster" data-entity=" " data-source-line="6" data-uid="ent0002" id="cluster_ "><path d="M8.5,43.2969 L14.374,43.2969 A3.75,3.75 0 0 1 16.874,45.7969 L23.874,65.5938 L842.5,65.5938 A2.5,2.5 0 0 1 845,68.0938 L845,264.7969 A2.5,2.5 0 0 1 842.5,267.2969 L8.5,267.2969 A2.5,2.5 0 0 1 6,264.7969 L6,45.7969 A2.5,2.5 0 0 1 8.5,43.2969" fill="#FFFFFF"/><line style="stroke:#FFFFFF;stroke-width:1.5;" x1="6" x2="23.874" y1="65.5938" y2="65.5938"/><text fill="#000000" font-family="sans-serif" font-size="14" font-weight="bold" lengthAdjust="spacing" textLength="4.874" x="10" y="58.292">&#160;</text></g><!--class __init__--><g class="entity" data-entity="__init__" data-source-line="7" data-uid="ent0003" id="entity___init__"><rect fill="#F1F1F1" height="48" rx="2.5" ry="2.5" style="stroke:#181818;stroke-width:0.5;" width="82.1416" x="337.93" y="78.2969"/><ellipse cx="352.93" cy="94.2969" fill="#ADD1B2" rx="11" ry="11" style="stroke:#181818;stroke-width:1;"/><path d="M355.8988,99.9375 Q355.3206,100.2344 354.68,100.375 Q354.0394,100.5313 353.3363,100.5313 Q350.8363,100.5313 349.5081,98.8906 Q348.1956,97.2344 348.1956,94.1094 Q348.1956,90.9844 349.5081,89.3281 Q350.8363,87.6719 353.3363,87.6719 Q354.0394,87.6719 354.68,87.8281 Q355.3363,87.9844 355.8988,88.2813 L355.8988,91 Q355.2738,90.4219 354.68,90.1563 Q354.0863,89.875 353.4613,89.875 Q352.1175,89.875 351.43,90.9531 Q350.7425,92.0156 350.7425,94.1094 Q350.7425,96.2031 351.43,97.2813 Q352.1175,98.3438 353.4613,98.3438 Q354.0863,98.3438 354.68,98.0781 Q355.2738,97.7969 355.8988,97.2188 L355.8988,99.9375 Z " fill="#000000"/><text fill="#000000" font-family="sans-serif" font-size="14" lengthAdjust="spacing" textLength="50.1416" x="366.93" y="99.1436">__init__</text><line style="stroke:#181818;stroke-width:0.5;" x1="338.93" x2="419.0716" y1="110.2969" y2="110.2969"/><line style="stroke:#181818;stroke-width:0.5;" x1="338.93" x2="419.0716" y1="118.2969" y2="118.2969"/></g><!--class ecuaciones_una_variable_controller--><g class="entity" data-entity="ecuaciones_una_variable_controller" data-source-line="10" data-uid="ent0004" id="entity_ecuaciones_una_variable_controller"><rect fill="#F1F1F1" height="48" rx="2.5" ry="2.5" style="stroke:#181818;stroke-width:0.5;" width="281.5938" x="77.2" y="203.2969"/><ellipse cx="92.2" cy="219.2969" fill="#ADD1B2" rx="11" ry="11" style="stroke:#181818;stroke-width:1;"/><path d="M95.1688,224.9375 Q94.5906,225.2344 93.95,225.375 Q93.3094,225.5313 92.6063,225.5313 Q90.1063,225.5313 88.7781,223.8906 Q87.4656,222.2344 87.4656,219.1094 Q87.4656,215.9844 88.7781,214.3281 Q90.1063,212.6719 92.6063,212.6719 Q93.3094,212.6719 93.95,212.8281 Q94.6063,212.9844 95.1688,213.2813 L95.1688,216 Q94.5438,215.4219 93.95,215.1563 Q93.3563,214.875 92.7313,214.875 Q91.3875,214.875 90.7,215.9531 Q90.0125,217.0156 90.0125,219.1094 Q90.0125,221.2031 90.7,222.2813 Q91.3875,223.3438 92.7313,223.3438 Q93.3563,223.3438 93.95,223.0781 Q94.5438,222.7969 95.1688,222.2188 L95.1688,224.9375 Z " fill="#000000"/><text fill="#000000" font-family="sans-serif" font-size="14" lengthAdjust="spacing" textLength="249.5938" x="106.2" y="224.1436">ecuaciones_una_variable_controller</text><line style="stroke:#181818;stroke-width:0.5;" x1="78.2" x2="357.7938" y1="235.2969" y2="235.2969"/><line style="stroke:#181818;stroke-width:0.5;" x1="78.2" x2="357.7938" y1="243.2969" y2="243.2969"/></g><!--class diferenciacion_numerica_e_integracion_controller--><g class="entity" data-entity="diferenciacion_numerica_e_integracion_controller" data-source-line="13" data-uid="ent0005" id="entity_diferenciacion_numerica_e_integracion_controller"><rect fill="#F1F1F1" height="48" rx="2.5" ry="2.5" style="stroke:#181818;stroke-width:0.5;" width="379.4912" x="394.25" y="203.2969"/><ellipse cx="409.25" cy="219.2969" fill="#ADD1B2" rx="11" ry="11" style="stroke:#181818;stroke-width:1;"/><path d="M412.2188,224.9375 Q411.6406,225.2344 411,225.375 Q410.3594,225.5313 409.6563,225.5313 Q407.1563,225.5313 405.8281,223.8906 Q404.5156,222.2344 404.5156,219.1094 Q404.5156,215.9844 405.8281,214.3281 Q407.1563,212.6719 409.6563,212.6719 Q410.3594,212.6719 411,212.8281 Q411.6563,212.9844 412.2188,213.2813 L412.2188,216 Q411.5938,215.4219 411,215.1563 Q410.4063,214.875 409.7813,214.875 Q408.4375,214.875 407.75,215.9531 Q407.0625,217.0156 407.0625,219.1094 Q407.0625,221.2031 407.75,222.2813 Q408.4375,223.3438 409.7813,223.3438 Q410.4063,223.3438 411,223.0781 Q411.5938,222.7969 412.2188,222.2188 L412.2188,224.9375 Z " fill="#000000"/><text fill="#000000" font-family="sans-serif" font-size="14" lengthAdjust="spacing" textLength="347.4912" x="423.25" y="224.1436">diferenciacion_numerica_e_integracion_controller</text><line style="stroke:#181818;stroke-width:0.5;" x1="395.25" x2="772.7412" y1="235.2969" y2="235.2969"/><line style="stroke:#181818;stroke-width:0.5;" x1="395.25" x2="772.7412" y1="243.2969" y2="243.2969"/></g><!--entity PyLibrary--><g class="entity" data-entity="PyLibrary" data-source-line="17" data-uid="ent0006" id="entity_PyLibrary"><polygon fill="#F1F1F1" points="323.23,340.2969,333.23,330.2969,476.7749,330.2969,476.7749,366.5938,466.7749,376.5938,323.23,376.5938,323.23,340.2969" style="stroke:#181818;stroke-width:0.5;"/><line style="stroke:#181818;stroke-width:0.5;" x1="466.7749" x2="476.7749" y1="340.2969" y2="330.2969"/><line style="stroke:#181818;stroke-width:0.5;" x1="323.23" x2="466.7749" y1="340.2969" y2="340.2969"/><line style="stroke:#181818;stroke-width:0.5;" x1="466.7749" x2="466.7749" y1="340.2969" y2="376.5938"/><text fill="#000000" font-family="sans-serif" font-size="14" lengthAdjust="spacing" textLength="113.5449" x="338.23" y="363.292">Librer&#237;a Numath</text></g><!--link __init__ to ecuaciones_una_variable_controller--><g class="link" data-entity-1="__init__" data-entity-2="ecuaciones_una_variable_controller" data-source-line="20" data-uid="lnk7" id="link___init___ecuaciones_una_variable_controller"><path codeLine="20" d="M337.67,103.6769 C258.47,105.3769 89.96,113.9969 54,156.2969 C35.95,177.5269 45.278,190.302 72.198,200.772" fill="none" id="__init__-to-ecuaciones_una_variable_controller" style="stroke:#181818;stroke-width:1;"/><polygon fill="#181818" points="77.79,202.9469,70.852,195.9566,73.13,201.1345,67.9522,203.4125,77.79,202.9469" style="stroke:#181818;stroke-width:1;"/><text fill="#000000" font-family="sans-serif" font-size="13" lengthAdjust="spacing" textLength="196.4854" x="55" y="169.3638">Usuario solicita una operaci&#243;n</text></g><!--link ecuaciones_una_variable_controller to __init__--><g class="link" data-entity-1="ecuaciones_una_variable_controller" data-entity-2="__init__" data-source-line="26" data-uid="lnk11" id="link_ecuaciones_una_variable_controller___init__"><path codeLine="26" d="M240.21,202.9169 C254.36,188.6369 273.45,170.4669 292,156.2969 C306.19,145.4569 317.5679,137.9751 332.3879,129.1951" fill="none" id="ecuaciones_una_variable_controller-to-__init__" style="stroke:#181818;stroke-width:1;"/><polygon fill="#181818" points="337.55,126.1369,327.768,127.2828,333.2483,128.6854,331.8457,134.1656,337.55,126.1369" style="stroke:#181818;stroke-width:1;"/><text fill="#000000" font-family="sans-serif" font-size="13" lengthAdjust="spacing" textLength="126.6104" x="293" y="169.3638">Devuelve resultado</text></g><!--link __init__ to diferenciacion_numerica_e_integracion_controller--><g class="link" data-entity-1="__init__" data-entity-2="diferenciacion_numerica_e_integracion_controller" data-source-line="21" data-uid="lnk8" id="link___init___diferenciacion_numerica_e_integracion_controller"><path codeLine="21" d="M401.92,126.5269 C417.36,141.2669 438.72,160.0069 460,173.2969 C478.17,184.6469 493.6552,192.3403 513.1752,200.5103" fill="none" id="__init__-to-diferenciacion_numerica_e_integracion_controller" style="stroke:#181818;stroke-width:1;"/><polygon fill="#181818" points="518.71,202.8269,511.9522,195.6622,514.0977,200.8964,508.8635,203.0419,518.71,202.8269" style="stroke:#181818;stroke-width:1;"/><text fill="#000000" font-family="sans-serif" font-size="13" lengthAdjust="spacing" textLength="196.4854" x="461" y="169.3638">Usuario solicita una operaci&#243;n</text></g><!--link diferenciacion_numerica_e_integracion_controller to __init__--><g class="link" data-entity-1="diferenciacion_numerica_e_integracion_controller" data-entity-2="__init__" data-source-line="27" data-uid="lnk12" id="link_diferenciacion_numerica_e_integracion_controller___init__"><path codeLine="27" d="M637.39,202.8769 C659.13,190.0769 676.18,173.3769 662,156.2969 C631.79,119.9069 497.5825,108.6562 426.5225,105.1062" fill="none" id="diferenciacion_numerica_e_integracion_controller-to-__init__" style="stroke:#181818;stroke-width:1;"/><polygon fill="#181818" points="420.53,104.8069,429.3192,109.251,425.5238,105.0564,429.7184,101.2609,420.53,104.8069" style="stroke:#181818;stroke-width:1;"/><text fill="#000000" font-family="sans-serif" font-size="13" lengthAdjust="spacing" textLength="126.6104" x="668" y="169.3638">Devuelve resultado</text></g><!--link ecuaciones_una_variable_controller to PyLibrary--><g class="link" data-entity-1="ecuaciones_una_variable_controller" data-entity-2="PyLibrary" data-source-line="23" data-uid="lnk9" id="link_ecuaciones_una_variable_controller_PyLibrary"><path codeLine="23" d="M252.23,251.6469 C285.08,274.0569 329.403,304.2964 361.883,326.4464" fill="none" id="ecuaciones_una_variable_controller-to-PyLibrary" style="stroke:#181818;stroke-width:1;"/><polygon fill="#181818" points="366.84,329.8269,361.6581,321.4514,362.7091,327.0098,357.1508,328.0608,366.84,329.8269" style="stroke:#181818;stroke-width:1;"/><text fill="#000000" font-family="sans-serif" font-size="13" lengthAdjust="spacing" textLength="51.5493" x="320" y="296.3638">Llama a</text></g><!--link diferenciacion_numerica_e_integracion_controller to PyLibrary--><g class="link" data-entity-1="diferenciacion_numerica_e_integracion_controller" data-entity-2="PyLibrary" data-source-line="24" data-uid="lnk10" id="link_diferenciacion_numerica_e_integracion_controller_PyLibrary"><path codeLine="24" d="M549.39,251.6469 C516.18,274.0569 471.3343,304.3218 438.4943,326.4718" fill="none" id="diferenciacion_numerica_e_integracion_controller-to-PyLibrary" style="stroke:#181818;stroke-width:1;"/><polygon fill="#181818" points="433.52,329.8269,443.2181,328.1105,437.6652,327.031,438.7447,321.4781,433.52,329.8269" style="stroke:#181818;stroke-width:1;"/><text fill="#000000" font-family="sans-serif" font-size="13" lengthAdjust="spacing" textLength="51.5493" x="498" y="296.3638">Llama a</text></g><!--SRC=[dL8xRiCm3Drr2a9xBj2XGvCnABfq5XYPTOZ8aa593eAYH-hK8-HYfOt2_QDEeK70u-Fx22fS0i66iHNi41g2TS1CsPXyuDYZej2ZFs1BDqaQadKAIU2uvq8_KFHg9TNOVAIPjobOFOy6mAj51kSuSd5kWfxCZ9Elw3b5ogv6T0CAuowGyoaMII6GVDre-864ekTfpyNQaR17H-fGI9jDyBTzLOX96zijxuJa_8nmMpiiUmkOuUuqmYWdPIjpJhjQNI-9U0NsFbST9CWfiEU2e5n8FOrvpY_HVjQyjCGI0xCWwEZztbLLjs7y2MZDnS_wkzJI8FEBwFA6XafX813ADHHiqZyZ_I7w2W00]--></g></svg>