<svg xmlns="http://www.w3.org/2000/svg" xmlns:xlink="http://www.w3.org/1999/xlink" contentStyleType="text/css" data-diagram-type="CLASS" height="1218px" preserveAspectRatio="none" style="width:1584px;height:1218px;background:#FFFFFF;" version="1.1" viewBox="0 0 1584 1218" width="1584px" zoomAndPan="magnify"><title>Diagrama de Clases Librer&#237;a Numath + API</title><defs/><g><g class="title" data-source-line="1"><text fill="#000000" font-family="sans-serif" font-size="14" font-weight="bold" lengthAdjust="spacing" textLength="337.4219" x="616.4053" y="22.9951">Diagrama de Clases Librer&#237;a Numath + API</text></g><!--cluster API--><g class="cluster" data-entity="API" data-source-line="5" data-uid="ent0002" id="cluster_API"><path d="M8.5,51.4369 L35.8047,51.4369 A3.75,3.75 0 0 1 38.3047,53.9369 L45.3047,73.7337 L622.5,73.7337 A2.5,2.5 0 0 1 625,76.2337 L625,590.7269 A2.5,2.5 0 0 1 622.5,593.2269 L8.5,593.2269 A2.5,2.5 0 0 1 6,590.7269 L6,53.9369 A2.5,2.5 0 0 1 8.5,51.4369" fill="none" style="stroke:#000000;stroke-width:1.5;"/><line style="stroke:#000000;stroke-width:1.5;" x1="6" x2="45.3047" y1="73.7337" y2="73.7337"/><text fill="#000000" font-family="sans-serif" font-size="14" font-weight="bold" lengthAdjust="spacing" textLength="26.3047" x="10" y="66.432">API</text></g><!--cluster Librer?a: numath-Libary--><g class="cluster" data-entity="Librer&#237;a: numath-Libary" data-source-line="47" data-uid="ent0006" id="cluster_Librer&#237;a: numath-Libary"><path d="M651.5,43.2969 L839.9209,43.2969 A3.75,3.75 0 0 1 842.4209,45.7969 L849.4209,65.5938 L1497.5,65.5938 A2.5,2.5 0 0 1 1500,68.0938 L1500,1208.6669 A2.5,2.5 0 0 1 1497.5,1211.1669 L651.5,1211.1669 A2.5,2.5 0 0 1 649,1208.6669 L649,45.7969 A2.5,2.5 0 0 1 651.5,43.2969" fill="none" style="stroke:#000000;stroke-width:1.5;"/><line style="stroke:#000000;stroke-width:1.5;" x1="649" x2="849.4209" y1="65.5938" y2="65.5938"/><text fill="#000000" font-family="sans-serif" font-size="14" font-weight="bold" lengthAdjust="spacing" textLength="187.4209" x="653" y="58.292">Librer&#237;a: numath-Libary</text></g><!--cluster numath--><g class="cluster" data-entity="numath" data-source-line="48" data-uid="ent0007" id="cluster_numath"><path d="M683.5,339.5569 L745.1279,339.5569 A3.75,3.75 0 0 1 747.6279,342.0569 L754.6279,361.8537 L1465.5,361.8537 A2.5,2.5 0 0 1 1468,364.3537 L1468,1176.6669 A2.5,2.5 0 0 1 1465.5,1179.1669 L683.5,1179.1669 A2.5,2.5 0 0 1 681,1176.6669 L681,342.0569 A2.5,2.5 0 0 1 683.5,339.5569" fill="none" style="stroke:#000000;stroke-width:1.5;"/><line style="stroke:#000000;stroke-width:1.5;" x1="681" x2="754.6279" y1="361.8537" y2="361.8537"/><text fill="#000000" font-family="sans-serif" font-size="14" font-weight="bold" lengthAdjust="spacing" textLength="60.6279" x="685" y="354.552">numath</text></g><!--class __init__--><g class="entity" data-entity="__init__" data-source-line="6" data-uid="ent0003" id="entity___init__"><rect fill="#F1F1F1" height="64.2969" rx="2.5" ry="2.5" style="stroke:#181818;stroke-width:0.5;" width="164.5645" x="179.72" y="86.4369"/><ellipse cx="232.6814" cy="102.4369" fill="#ADD1B2" rx="11" ry="11" style="stroke:#181818;stroke-width:1;"/><path d="M235.6502,108.0775 Q235.0721,108.3744 234.4314,108.515 Q233.7908,108.6712 233.0877,108.6712 Q230.5877,108.6712 229.2596,107.0306 Q227.9471,105.3744 227.9471,102.2494 Q227.9471,99.1244 229.2596,97.4681 Q230.5877,95.8119 233.0877,95.8119 Q233.7908,95.8119 234.4314,95.9681 Q235.0877,96.1244 235.6502,96.4212 L235.6502,99.14 Q235.0252,98.5619 234.4314,98.2962 Q233.8377,98.015 233.2127,98.015 Q231.8689,98.015 231.1814,99.0931 Q230.4939,100.1556 230.4939,102.2494 Q230.4939,104.3431 231.1814,105.4212 Q231.8689,106.4837 233.2127,106.4837 Q233.8377,106.4837 234.4314,106.2181 Q235.0252,105.9369 235.6502,105.3587 L235.6502,108.0775 Z " fill="#000000"/><text fill="#000000" font-family="sans-serif" font-size="14" lengthAdjust="spacing" textLength="50.1416" x="253.1814" y="107.2836">__init__</text><line style="stroke:#181818;stroke-width:0.5;" x1="180.72" x2="343.2845" y1="118.4369" y2="118.4369"/><line style="stroke:#181818;stroke-width:0.5;" x1="180.72" x2="343.2845" y1="126.4369" y2="126.4369"/><ellipse cx="190.72" cy="140.0853" fill="#84BE84" rx="3" ry="3" style="stroke:#038048;stroke-width:1;"/><text fill="#000000" font-family="sans-serif" font-size="14" lengthAdjust="spacing" textLength="138.5645" x="199.72" y="143.432">create_app() : Flask</text></g><!--class ecuaciones_una_variable_B--><g class="entity" data-entity="ecuaciones_una_variable_B" data-source-line="11" data-uid="ent0004" id="entity_ecuaciones_una_variable_B"><rect fill="#F1F1F1" height="178.375" rx="2.5" ry="2.5" style="stroke:#181818;stroke-width:0.5;" width="224.1035" x="21.95" y="317.3669"/><ellipse cx="36.95" cy="333.3669" fill="#ADD1B2" rx="11" ry="11" style="stroke:#181818;stroke-width:1;"/><path d="M39.9188,339.0075 Q39.3406,339.3044 38.7,339.445 Q38.0594,339.6012 37.3563,339.6012 Q34.8563,339.6012 33.5281,337.9606 Q32.2156,336.3044 32.2156,333.1794 Q32.2156,330.0544 33.5281,328.3981 Q34.8563,326.7419 37.3563,326.7419 Q38.0594,326.7419 38.7,326.8981 Q39.3563,327.0544 39.9188,327.3512 L39.9188,330.07 Q39.2938,329.4919 38.7,329.2262 Q38.1063,328.945 37.4813,328.945 Q36.1375,328.945 35.45,330.0231 Q34.7625,331.0856 34.7625,333.1794 Q34.7625,335.2731 35.45,336.3512 Q36.1375,337.4137 37.4813,337.4137 Q38.1063,337.4137 38.7,337.1481 Q39.2938,336.8669 39.9188,336.2887 L39.9188,339.0075 Z " fill="#000000"/><text fill="#000000" font-family="sans-serif" font-size="14" lengthAdjust="spacing" textLength="192.1035" x="50.95" y="338.2136">ecuaciones_una_variable_B</text><line style="stroke:#181818;stroke-width:0.5;" x1="22.95" x2="245.0535" y1="349.3669" y2="349.3669"/><line style="stroke:#181818;stroke-width:0.5;" x1="22.95" x2="245.0535" y1="357.3669" y2="357.3669"/><ellipse cx="32.95" cy="371.0153" fill="#84BE84" rx="3" ry="3" style="stroke:#038048;stroke-width:1;"/><text fill="#000000" font-family="sans-serif" font-size="14" lengthAdjust="spacing" textLength="143.1992" x="41.95" y="374.362">bisection_endpoint()</text><ellipse cx="32.95" cy="387.3122" fill="#84BE84" rx="3" ry="3" style="stroke:#038048;stroke-width:1;"/><text fill="#000000" font-family="sans-serif" font-size="14" lengthAdjust="spacing" textLength="157.3086" x="41.95" y="390.6589">fixed_point_endpoint()</text><ellipse cx="32.95" cy="403.6091" fill="#84BE84" rx="3" ry="3" style="stroke:#038048;stroke-width:1;"/><text fill="#000000" font-family="sans-serif" font-size="14" lengthAdjust="spacing" textLength="131.8652" x="41.95" y="406.9557">newton_endpoint()</text><ellipse cx="32.95" cy="419.9059" fill="#84BE84" rx="3" ry="3" style="stroke:#038048;stroke-width:1;"/><text fill="#000000" font-family="sans-serif" font-size="14" lengthAdjust="spacing" textLength="126.5469" x="41.95" y="423.2526">secant_endpoint()</text><ellipse cx="32.95" cy="436.2028" fill="#84BE84" rx="3" ry="3" style="stroke:#038048;stroke-width:1;"/><text fill="#000000" font-family="sans-serif" font-size="14" lengthAdjust="spacing" textLength="175.7588" x="41.95" y="439.5495">false_position_endpoint()</text><ellipse cx="32.95" cy="452.4997" fill="#84BE84" rx="3" ry="3" style="stroke:#038048;stroke-width:1;"/><text fill="#000000" font-family="sans-serif" font-size="14" lengthAdjust="spacing" textLength="153.5215" x="41.95" y="455.8464">steffensen_endpoint()</text><ellipse cx="32.95" cy="468.7966" fill="#84BE84" rx="3" ry="3" style="stroke:#038048;stroke-width:1;"/><text fill="#000000" font-family="sans-serif" font-size="14" lengthAdjust="spacing" textLength="118.4258" x="41.95" y="472.1432">horner_method()</text><ellipse cx="32.95" cy="485.0934" fill="#84BE84" rx="3" ry="3" style="stroke:#038048;stroke-width:1;"/><text fill="#000000" font-family="sans-serif" font-size="14" lengthAdjust="spacing" textLength="124.6602" x="41.95" y="488.4401">muller_endpoint()</text></g><!--class diferenciacion_numerica_e_integracion_B--><g class="entity" data-entity="diferenciacion_numerica_e_integracion_B" data-source-line="23" data-uid="ent0005" id="entity_diferenciacion_numerica_e_integracion_B"><rect fill="#F1F1F1" height="341.3438" rx="2.5" ry="2.5" style="stroke:#181818;stroke-width:0.5;" width="327.6494" x="281.18" y="235.8869"/><ellipse cx="298.7218" cy="251.8869" fill="#ADD1B2" rx="11" ry="11" style="stroke:#181818;stroke-width:1;"/><path d="M301.6905,257.5275 Q301.1124,257.8244 300.4718,257.965 Q299.8312,258.1212 299.128,258.1212 Q296.628,258.1212 295.2999,256.4806 Q293.9874,254.8244 293.9874,251.6994 Q293.9874,248.5744 295.2999,246.9181 Q296.628,245.2619 299.128,245.2619 Q299.8312,245.2619 300.4718,245.4181 Q301.128,245.5744 301.6905,245.8712 L301.6905,248.59 Q301.0655,248.0119 300.4718,247.7462 Q299.878,247.465 299.253,247.465 Q297.9093,247.465 297.2218,248.5431 Q296.5343,249.6056 296.5343,251.6994 Q296.5343,253.7931 297.2218,254.8712 Q297.9093,255.9337 299.253,255.9337 Q299.878,255.9337 300.4718,255.6681 Q301.0655,255.3869 301.6905,254.8087 L301.6905,257.5275 Z " fill="#000000"/><text fill="#000000" font-family="sans-serif" font-size="14" lengthAdjust="spacing" textLength="290.001" x="313.2866" y="256.7336">diferenciacion_numerica_e_integracion_B</text><line style="stroke:#181818;stroke-width:0.5;" x1="282.18" x2="607.8294" y1="267.8869" y2="267.8869"/><line style="stroke:#181818;stroke-width:0.5;" x1="282.18" x2="607.8294" y1="275.8869" y2="275.8869"/><ellipse cx="292.18" cy="289.5353" fill="#84BE84" rx="3" ry="3" style="stroke:#038048;stroke-width:1;"/><text fill="#000000" font-family="sans-serif" font-size="14" lengthAdjust="spacing" textLength="300.5283" x="301.18" y="292.882">derivative_three_points_central_endpoint()</text><ellipse cx="292.18" cy="305.8322" fill="#84BE84" rx="3" ry="3" style="stroke:#038048;stroke-width:1;"/><text fill="#000000" font-family="sans-serif" font-size="14" lengthAdjust="spacing" textLength="298.0947" x="301.18" y="309.1789">derivative_three_points_border_endpoint()</text><ellipse cx="292.18" cy="322.1291" fill="#84BE84" rx="3" ry="3" style="stroke:#038048;stroke-width:1;"/><text fill="#000000" font-family="sans-serif" font-size="14" lengthAdjust="spacing" textLength="288.9004" x="301.18" y="325.4757">derivative_five_points_central_endpoint()</text><ellipse cx="292.18" cy="338.4259" fill="#84BE84" rx="3" ry="3" style="stroke:#038048;stroke-width:1;"/><text fill="#000000" font-family="sans-serif" font-size="14" lengthAdjust="spacing" textLength="286.4668" x="301.18" y="341.7726">derivative_five_points_border_endpoint()</text><ellipse cx="292.18" cy="354.7228" fill="#84BE84" rx="3" ry="3" style="stroke:#038048;stroke-width:1;"/><text fill="#000000" font-family="sans-serif" font-size="14" lengthAdjust="spacing" textLength="205.2422" x="301.18" y="358.0695">derivative_unified_endpoint()</text><ellipse cx="292.18" cy="371.0197" fill="#84BE84" rx="3" ry="3" style="stroke:#038048;stroke-width:1;"/><text fill="#000000" font-family="sans-serif" font-size="14" lengthAdjust="spacing" textLength="263.1152" x="301.18" y="374.3664">second_derivative_central_endpoint()</text><ellipse cx="292.18" cy="387.3166" fill="#84BE84" rx="3" ry="3" style="stroke:#038048;stroke-width:1;"/><text fill="#000000" font-family="sans-serif" font-size="14" lengthAdjust="spacing" textLength="301.6494" x="301.18" y="390.6632">second_derivative_central_data_endpoint()</text><ellipse cx="292.18" cy="403.6134" fill="#84BE84" rx="3" ry="3" style="stroke:#038048;stroke-width:1;"/><text fill="#000000" font-family="sans-serif" font-size="14" lengthAdjust="spacing" textLength="244.3643" x="301.18" y="406.9601">newton_cotes_n1_close_endpoint()</text><ellipse cx="292.18" cy="419.9103" fill="#84BE84" rx="3" ry="3" style="stroke:#038048;stroke-width:1;"/><text fill="#000000" font-family="sans-serif" font-size="14" lengthAdjust="spacing" textLength="244.3643" x="301.18" y="423.257">newton_cotes_n2_close_endpoint()</text><ellipse cx="292.18" cy="436.2072" fill="#84BE84" rx="3" ry="3" style="stroke:#038048;stroke-width:1;"/><text fill="#000000" font-family="sans-serif" font-size="14" lengthAdjust="spacing" textLength="244.3643" x="301.18" y="439.5539">newton_cotes_n3_close_endpoint()</text><ellipse cx="292.18" cy="452.5041" fill="#84BE84" rx="3" ry="3" style="stroke:#038048;stroke-width:1;"/><text fill="#000000" font-family="sans-serif" font-size="14" lengthAdjust="spacing" textLength="244.3643" x="301.18" y="455.8507">newton_cotes_n4_close_endpoint()</text><ellipse cx="292.18" cy="468.8009" fill="#84BE84" rx="3" ry="3" style="stroke:#038048;stroke-width:1;"/><text fill="#000000" font-family="sans-serif" font-size="14" lengthAdjust="spacing" textLength="243.2432" x="301.18" y="472.1476">newton_cotes_n0_open_endpoint()</text><ellipse cx="292.18" cy="485.0978" fill="#84BE84" rx="3" ry="3" style="stroke:#038048;stroke-width:1;"/><text fill="#000000" font-family="sans-serif" font-size="14" lengthAdjust="spacing" textLength="243.2432" x="301.18" y="488.4445">newton_cotes_n1_open_endpoint()</text><ellipse cx="292.18" cy="501.3947" fill="#84BE84" rx="3" ry="3" style="stroke:#038048;stroke-width:1;"/><text fill="#000000" font-family="sans-serif" font-size="14" lengthAdjust="spacing" textLength="243.2432" x="301.18" y="504.7414">newton_cotes_n2_open_endpoint()</text><ellipse cx="292.18" cy="517.6916" fill="#84BE84" rx="3" ry="3" style="stroke:#038048;stroke-width:1;"/><text fill="#000000" font-family="sans-serif" font-size="14" lengthAdjust="spacing" textLength="243.2432" x="301.18" y="521.0382">newton_cotes_n3_open_endpoint()</text><ellipse cx="292.18" cy="533.9884" fill="#84BE84" rx="3" ry="3" style="stroke:#038048;stroke-width:1;"/><text fill="#000000" font-family="sans-serif" font-size="14" lengthAdjust="spacing" textLength="252.2119" x="301.18" y="537.3351">composite_simpson_rule_endpoint()</text><ellipse cx="292.18" cy="550.2853" fill="#84BE84" rx="3" ry="3" style="stroke:#038048;stroke-width:1;"/><text fill="#000000" font-family="sans-serif" font-size="14" lengthAdjust="spacing" textLength="272.2549" x="301.18" y="553.632">composite_trapezoidal_rule_endpoint()</text><ellipse cx="292.18" cy="566.5822" fill="#84BE84" rx="3" ry="3" style="stroke:#038048;stroke-width:1;"/><text fill="#000000" font-family="sans-serif" font-size="14" lengthAdjust="spacing" textLength="255.8896" x="301.18" y="569.9289">composite_midpoint_rule_endpoint()</text></g><!--class setup--><g class="entity" data-entity="setup" data-source-line="97" data-uid="ent0012" id="entity_setup"><rect fill="#F1F1F1" height="80.5938" rx="2.5" ry="2.5" style="stroke:#181818;stroke-width:0.5;" width="238.3721" x="1222.81" y="78.2969"/><ellipse cx="1318.1679" cy="94.2969" fill="#ADD1B2" rx="11" ry="11" style="stroke:#181818;stroke-width:1;"/><path d="M1321.1367,99.9375 Q1320.5585,100.2344 1319.9179,100.375 Q1319.2773,100.5313 1318.5742,100.5313 Q1316.0742,100.5313 1314.746,98.8906 Q1313.4335,97.2344 1313.4335,94.1094 Q1313.4335,90.9844 1314.746,89.3281 Q1316.0742,87.6719 1318.5742,87.6719 Q1319.2773,87.6719 1319.9179,87.8281 Q1320.5742,87.9844 1321.1367,88.2813 L1321.1367,91 Q1320.5117,90.4219 1319.9179,90.1563 Q1319.3242,89.875 1318.6992,89.875 Q1317.3554,89.875 1316.6679,90.9531 Q1315.9804,92.0156 1315.9804,94.1094 Q1315.9804,96.2031 1316.6679,97.2813 Q1317.3554,98.3438 1318.6992,98.3438 Q1319.3242,98.3438 1319.9179,98.0781 Q1320.5117,97.7969 1321.1367,97.2188 L1321.1367,99.9375 Z " fill="#000000"/><text fill="#000000" font-family="sans-serif" font-size="14" lengthAdjust="spacing" textLength="39.1563" x="1338.6679" y="99.1436">setup</text><line style="stroke:#181818;stroke-width:0.5;" x1="1223.81" x2="1460.1821" y1="110.2969" y2="110.2969"/><line style="stroke:#181818;stroke-width:0.5;" x1="1223.81" x2="1460.1821" y1="118.2969" y2="118.2969"/><ellipse cx="1233.81" cy="131.9453" fill="#84BE84" rx="3" ry="3" style="stroke:#038048;stroke-width:1;"/><text fill="#000000" font-family="sans-serif" font-size="14" lengthAdjust="spacing" textLength="212.3721" x="1242.81" y="135.292">parse_requirements(filename)</text><ellipse cx="1233.81" cy="148.2422" fill="#84BE84" rx="3" ry="3" style="stroke:#038048;stroke-width:1;"/><text fill="#000000" font-family="sans-serif" font-size="14" lengthAdjust="spacing" textLength="50.0801" x="1242.81" y="151.5889">setup()</text></g><!--class init--><g class="entity" data-entity="init" data-source-line="51" data-uid="ent0008" id="entity_init"><rect fill="#F1F1F1" height="48" rx="2.5" ry="2.5" style="stroke:#181818;stroke-width:0.5;" width="54.1416" x="1039.93" y="382.5569"/><ellipse cx="1054.93" cy="398.5569" fill="#ADD1B2" rx="11" ry="11" style="stroke:#181818;stroke-width:1;"/><path d="M1057.8988,404.1975 Q1057.3206,404.4944 1056.68,404.635 Q1056.0394,404.7912 1055.3363,404.7912 Q1052.8363,404.7912 1051.5081,403.1506 Q1050.1956,401.4944 1050.1956,398.3694 Q1050.1956,395.2444 1051.5081,393.5881 Q1052.8363,391.9319 1055.3363,391.9319 Q1056.0394,391.9319 1056.68,392.0881 Q1057.3363,392.2444 1057.8988,392.5412 L1057.8988,395.26 Q1057.2738,394.6819 1056.68,394.4162 Q1056.0863,394.135 1055.4613,394.135 Q1054.1175,394.135 1053.43,395.2131 Q1052.7425,396.2756 1052.7425,398.3694 Q1052.7425,400.4631 1053.43,401.5412 Q1054.1175,402.6037 1055.4613,402.6037 Q1056.0863,402.6037 1056.68,402.3381 Q1057.2738,402.0569 1057.8988,401.4787 L1057.8988,404.1975 Z " fill="#000000"/><text fill="#000000" font-family="sans-serif" font-size="14" lengthAdjust="spacing" textLength="22.1416" x="1068.93" y="403.4036">init</text><line style="stroke:#181818;stroke-width:0.5;" x1="1040.93" x2="1093.0716" y1="414.5569" y2="414.5569"/><line style="stroke:#181818;stroke-width:0.5;" x1="1040.93" x2="1093.0716" y1="422.5569" y2="422.5569"/></g><!--class ecuaciones_una_variable--><g class="entity" data-entity="ecuaciones_una_variable" data-source-line="55" data-uid="ent0009" id="entity_ecuaciones_una_variable"><rect fill="#F1F1F1" height="178.375" rx="2.5" ry="2.5" style="stroke:#181818;stroke-width:0.5;" width="342.7158" x="704.64" y="737.7169"/><ellipse cx="783.9984" cy="753.7169" fill="#ADD1B2" rx="11" ry="11" style="stroke:#181818;stroke-width:1;"/><path d="M786.9671,759.3575 Q786.389,759.6544 785.7484,759.795 Q785.1078,759.9512 784.4046,759.9512 Q781.9046,759.9512 780.5765,758.3106 Q779.264,756.6544 779.264,753.5294 Q779.264,750.4044 780.5765,748.7481 Q781.9046,747.0919 784.4046,747.0919 Q785.1078,747.0919 785.7484,747.2481 Q786.4046,747.4044 786.9671,747.7012 L786.9671,750.42 Q786.3421,749.8419 785.7484,749.5762 Q785.1546,749.295 784.5296,749.295 Q783.1859,749.295 782.4984,750.3731 Q781.8109,751.4356 781.8109,753.5294 Q781.8109,755.6231 782.4984,756.7012 Q783.1859,757.7637 784.5296,757.7637 Q785.1546,757.7637 785.7484,757.4981 Q786.3421,757.2169 786.9671,756.6387 L786.9671,759.3575 Z " fill="#000000"/><text fill="#000000" font-family="sans-serif" font-size="14" lengthAdjust="spacing" textLength="175.499" x="804.4984" y="758.5636">ecuaciones_una_variable</text><line style="stroke:#181818;stroke-width:0.5;" x1="705.64" x2="1046.3558" y1="769.7169" y2="769.7169"/><line style="stroke:#181818;stroke-width:0.5;" x1="705.64" x2="1046.3558" y1="777.7169" y2="777.7169"/><ellipse cx="715.64" cy="791.3653" fill="#84BE84" rx="3" ry="3" style="stroke:#038048;stroke-width:1;"/><text fill="#000000" font-family="sans-serif" font-size="14" lengthAdjust="spacing" textLength="225.6406" x="724.64" y="794.712">bisection(funcion, a, b, TOL, N0)</text><ellipse cx="715.64" cy="807.6622" fill="#84BE84" rx="3" ry="3" style="stroke:#038048;stroke-width:1;"/><text fill="#000000" font-family="sans-serif" font-size="14" lengthAdjust="spacing" textLength="297.3223" x="724.64" y="811.0089">fixed_point_iteration(funcion, p0, TOL, N0)</text><ellipse cx="715.64" cy="823.9591" fill="#84BE84" rx="3" ry="3" style="stroke:#038048;stroke-width:1;"/><text fill="#000000" font-family="sans-serif" font-size="14" lengthAdjust="spacing" textLength="316.7158" x="724.64" y="827.3057">newton_method(funcion, p0, TOL, N0, factor)</text><ellipse cx="715.64" cy="840.2559" fill="#84BE84" rx="3" ry="3" style="stroke:#038048;stroke-width:1;"/><text fill="#000000" font-family="sans-serif" font-size="14" lengthAdjust="spacing" textLength="288.1758" x="724.64" y="843.6026">secant_method(funcion, p0, p1, TOL, N0)</text><ellipse cx="715.64" cy="856.5528" fill="#84BE84" rx="3" ry="3" style="stroke:#038048;stroke-width:1;"/><text fill="#000000" font-family="sans-serif" font-size="14" lengthAdjust="spacing" textLength="276.3223" x="724.64" y="859.8995">false_position(funcion, p0, p1, TOL, N0)</text><ellipse cx="715.64" cy="872.8497" fill="#84BE84" rx="3" ry="3" style="stroke:#038048;stroke-width:1;"/><text fill="#000000" font-family="sans-serif" font-size="14" lengthAdjust="spacing" textLength="288.4561" x="724.64" y="876.1964">steffensen_method(funcion, p0, TOL, N0)</text><ellipse cx="715.64" cy="889.1466" fill="#84BE84" rx="3" ry="3" style="stroke:#038048;stroke-width:1;"/><text fill="#000000" font-family="sans-serif" font-size="14" lengthAdjust="spacing" textLength="153.0977" x="724.64" y="892.4932">horner_method(a, x0)</text><ellipse cx="715.64" cy="905.4434" fill="#84BE84" rx="3" ry="3" style="stroke:#038048;stroke-width:1;"/><text fill="#000000" font-family="sans-serif" font-size="14" lengthAdjust="spacing" textLength="312.9834" x="724.64" y="908.7901">muller_method(funcion, p0, p1, p2, TOL, N0)</text></g><!--class diferenciacion_numerica_e_integracion--><g class="entity" data-entity="diferenciacion_numerica_e_integracion" data-source-line="67" data-uid="ent0010" id="entity_diferenciacion_numerica_e_integracion"><rect fill="#F1F1F1" height="341.3438" rx="2.5" ry="2.5" style="stroke:#181818;stroke-width:0.5;" width="353.0176" x="1082.49" y="656.2269"/><ellipse cx="1118.9195" cy="672.2269" fill="#ADD1B2" rx="11" ry="11" style="stroke:#181818;stroke-width:1;"/><path d="M1121.8882,677.8675 Q1121.3101,678.1644 1120.6695,678.305 Q1120.0289,678.4612 1119.3257,678.4612 Q1116.8257,678.4612 1115.4976,676.8206 Q1114.1851,675.1644 1114.1851,672.0394 Q1114.1851,668.9144 1115.4976,667.2581 Q1116.8257,665.6019 1119.3257,665.6019 Q1120.0289,665.6019 1120.6695,665.7581 Q1121.3257,665.9144 1121.8882,666.2112 L1121.8882,668.93 Q1121.2632,668.3519 1120.6695,668.0862 Q1120.0757,667.805 1119.4507,667.805 Q1118.107,667.805 1117.4195,668.8831 Q1116.732,669.9456 1116.732,672.0394 Q1116.732,674.1331 1117.4195,675.2112 Q1118.107,676.2737 1119.4507,676.2737 Q1120.0757,676.2737 1120.6695,676.0081 Q1121.2632,675.7269 1121.8882,675.1487 L1121.8882,677.8675 Z " fill="#000000"/><text fill="#000000" font-family="sans-serif" font-size="14" lengthAdjust="spacing" textLength="273.3965" x="1137.6816" y="677.0736">diferenciacion_numerica_e_integracion</text><line style="stroke:#181818;stroke-width:0.5;" x1="1083.49" x2="1434.5076" y1="688.2269" y2="688.2269"/><line style="stroke:#181818;stroke-width:0.5;" x1="1083.49" x2="1434.5076" y1="696.2269" y2="696.2269"/><ellipse cx="1093.49" cy="709.8753" fill="#84BE84" rx="3" ry="3" style="stroke:#038048;stroke-width:1;"/><text fill="#000000" font-family="sans-serif" font-size="14" lengthAdjust="spacing" textLength="327.0176" x="1102.49" y="713.222">derivative_three_points_central(funcion, x0, h)</text><ellipse cx="1093.49" cy="726.1722" fill="#84BE84" rx="3" ry="3" style="stroke:#038048;stroke-width:1;"/><text fill="#000000" font-family="sans-serif" font-size="14" lengthAdjust="spacing" textLength="324.584" x="1102.49" y="729.5189">derivative_three_points_border(funcion, x0, h)</text><ellipse cx="1093.49" cy="742.4691" fill="#84BE84" rx="3" ry="3" style="stroke:#038048;stroke-width:1;"/><text fill="#000000" font-family="sans-serif" font-size="14" lengthAdjust="spacing" textLength="315.3896" x="1102.49" y="745.8157">derivative_five_points_central(funcion, x0, h)</text><ellipse cx="1093.49" cy="758.7659" fill="#84BE84" rx="3" ry="3" style="stroke:#038048;stroke-width:1;"/><text fill="#000000" font-family="sans-serif" font-size="14" lengthAdjust="spacing" textLength="312.9561" x="1102.49" y="762.1126">derivative_five_points_border(funcion, x0, h)</text><ellipse cx="1093.49" cy="775.0628" fill="#84BE84" rx="3" ry="3" style="stroke:#038048;stroke-width:1;"/><text fill="#000000" font-family="sans-serif" font-size="14" lengthAdjust="spacing" textLength="201.0723" x="1102.49" y="778.4095">derivative_unified(datos, x0)</text><ellipse cx="1093.49" cy="791.3597" fill="#84BE84" rx="3" ry="3" style="stroke:#038048;stroke-width:1;"/><text fill="#000000" font-family="sans-serif" font-size="14" lengthAdjust="spacing" textLength="289.6045" x="1102.49" y="794.7064">second_derivative_central(funcion, x0, h)</text><ellipse cx="1093.49" cy="807.6566" fill="#84BE84" rx="3" ry="3" style="stroke:#038048;stroke-width:1;"/><text fill="#000000" font-family="sans-serif" font-size="14" lengthAdjust="spacing" textLength="297.4795" x="1102.49" y="811.0032">second_derivative_central_data(datos, x0)</text><ellipse cx="1093.49" cy="823.9534" fill="#84BE84" rx="3" ry="3" style="stroke:#038048;stroke-width:1;"/><text fill="#000000" font-family="sans-serif" font-size="14" lengthAdjust="spacing" textLength="262.2539" x="1102.49" y="827.3001">newton_cotes_n1_close(funcion, a, b)</text><ellipse cx="1093.49" cy="840.2503" fill="#84BE84" rx="3" ry="3" style="stroke:#038048;stroke-width:1;"/><text fill="#000000" font-family="sans-serif" font-size="14" lengthAdjust="spacing" textLength="262.2539" x="1102.49" y="843.597">newton_cotes_n2_close(funcion, a, b)</text><ellipse cx="1093.49" cy="856.5472" fill="#84BE84" rx="3" ry="3" style="stroke:#038048;stroke-width:1;"/><text fill="#000000" font-family="sans-serif" font-size="14" lengthAdjust="spacing" textLength="262.2539" x="1102.49" y="859.8939">newton_cotes_n3_close(funcion, a, b)</text><ellipse cx="1093.49" cy="872.8441" fill="#84BE84" rx="3" ry="3" style="stroke:#038048;stroke-width:1;"/><text fill="#000000" font-family="sans-serif" font-size="14" lengthAdjust="spacing" textLength="262.2539" x="1102.49" y="876.1907">newton_cotes_n4_close(funcion, a, b)</text><ellipse cx="1093.49" cy="889.1409" fill="#84BE84" rx="3" ry="3" style="stroke:#038048;stroke-width:1;"/><text fill="#000000" font-family="sans-serif" font-size="14" lengthAdjust="spacing" textLength="261.1328" x="1102.49" y="892.4876">newton_cotes_n0_open(funcion, a, b)</text><ellipse cx="1093.49" cy="905.4378" fill="#84BE84" rx="3" ry="3" style="stroke:#038048;stroke-width:1;"/><text fill="#000000" font-family="sans-serif" font-size="14" lengthAdjust="spacing" textLength="261.1328" x="1102.49" y="908.7845">newton_cotes_n1_open(funcion, a, b)</text><ellipse cx="1093.49" cy="921.7347" fill="#84BE84" rx="3" ry="3" style="stroke:#038048;stroke-width:1;"/><text fill="#000000" font-family="sans-serif" font-size="14" lengthAdjust="spacing" textLength="261.1328" x="1102.49" y="925.0814">newton_cotes_n2_open(funcion, a, b)</text><ellipse cx="1093.49" cy="938.0316" fill="#84BE84" rx="3" ry="3" style="stroke:#038048;stroke-width:1;"/><text fill="#000000" font-family="sans-serif" font-size="14" lengthAdjust="spacing" textLength="261.1328" x="1102.49" y="941.3782">newton_cotes_n3_open(funcion, a, b)</text><ellipse cx="1093.49" cy="954.3284" fill="#84BE84" rx="3" ry="3" style="stroke:#038048;stroke-width:1;"/><text fill="#000000" font-family="sans-serif" font-size="14" lengthAdjust="spacing" textLength="287.875" x="1102.49" y="957.6751">composite_simpson_rule(funcion, a, b, n)</text><ellipse cx="1093.49" cy="970.6253" fill="#84BE84" rx="3" ry="3" style="stroke:#038048;stroke-width:1;"/><text fill="#000000" font-family="sans-serif" font-size="14" lengthAdjust="spacing" textLength="307.918" x="1102.49" y="973.972">composite_trapezoidal_rule(funcion, a, b, n)</text><ellipse cx="1093.49" cy="986.9222" fill="#84BE84" rx="3" ry="3" style="stroke:#038048;stroke-width:1;"/><text fill="#000000" font-family="sans-serif" font-size="14" lengthAdjust="spacing" textLength="291.5527" x="1102.49" y="990.2689">composite_midpoint_rule(funcion, a, b, n)</text></g><!--class transformacion--><g class="entity" data-entity="transformacion" data-source-line="90" data-uid="ent0011" id="entity_transformacion"><rect fill="#F1F1F1" height="80.5938" rx="2.5" ry="2.5" style="stroke:#181818;stroke-width:0.5;" width="336.8232" x="856.59" y="1074.5769"/><ellipse cx="967.5099" cy="1090.5769" fill="#ADD1B2" rx="11" ry="11" style="stroke:#181818;stroke-width:1;"/><path d="M970.4787,1096.2175 Q969.9005,1096.5144 969.2599,1096.655 Q968.6193,1096.8113 967.9162,1096.8113 Q965.4162,1096.8113 964.088,1095.1706 Q962.7755,1093.5144 962.7755,1090.3894 Q962.7755,1087.2644 964.088,1085.6081 Q965.4162,1083.9519 967.9162,1083.9519 Q968.6193,1083.9519 969.2599,1084.1081 Q969.9162,1084.2644 970.4787,1084.5613 L970.4787,1087.28 Q969.8537,1086.7019 969.2599,1086.4363 Q968.6662,1086.155 968.0412,1086.155 Q966.6974,1086.155 966.0099,1087.2331 Q965.3224,1088.2956 965.3224,1090.3894 Q965.3224,1092.4831 966.0099,1093.5613 Q966.6974,1094.6238 968.0412,1094.6238 Q968.6662,1094.6238 969.2599,1094.3581 Q969.8537,1094.0769 970.4787,1093.4988 L970.4787,1096.2175 Z " fill="#000000"/><text fill="#000000" font-family="sans-serif" font-size="14" lengthAdjust="spacing" textLength="106.4834" x="988.0099" y="1095.4236">transformacion</text><line style="stroke:#181818;stroke-width:0.5;" x1="857.59" x2="1192.4132" y1="1106.5769" y2="1106.5769"/><line style="stroke:#181818;stroke-width:0.5;" x1="857.59" x2="1192.4132" y1="1114.5769" y2="1114.5769"/><ellipse cx="867.59" cy="1128.2253" fill="#84BE84" rx="3" ry="3" style="stroke:#038048;stroke-width:1;"/><text fill="#000000" font-family="sans-serif" font-size="14" lengthAdjust="spacing" textLength="310.8232" x="876.59" y="1131.572">reemplazar_funciones(funcion_entrada) : str</text><ellipse cx="867.59" cy="1144.5222" fill="#84BE84" rx="3" ry="3" style="stroke:#038048;stroke-width:1;"/><text fill="#000000" font-family="sans-serif" font-size="14" lengthAdjust="spacing" textLength="287.1436" x="876.59" y="1147.8689">crear_funcion(funcion_entrada) : callable</text></g><!--link init to ecuaciones_una_variable--><g class="link" data-entity-1="init" data-entity-2="ecuaciones_una_variable" data-source-line="107" data-uid="lnk13" id="link_init_ecuaciones_una_variable"><path codeLine="107" d="M1056.32,430.9469 C1030,488.5869 963.4219,634.4288 918.8119,732.1388" fill="none" id="init-to-ecuaciones_una_variable" style="stroke:#181818;stroke-width:1;"/><polygon fill="#181818" points="916.32,737.5969,923.6966,731.0711,918.3966,733.0485,916.4192,727.7485,916.32,737.5969" style="stroke:#181818;stroke-width:1;"/><text fill="#000000" font-family="sans-serif" font-size="13" lengthAdjust="spacing" textLength="122.0083" x="972" y="622.2938">Inicializa la librer&#237;a</text></g><!--link init to diferenciacion_numerica_e_integracion--><g class="link" data-entity-1="init" data-entity-2="diferenciacion_numerica_e_integracion" data-source-line="108" data-uid="lnk14" id="link_init_diferenciacion_numerica_e_integracion"><path codeLine="108" d="M1067.31,430.8469 C1068.55,468.1769 1074.1,543.1269 1098,601.2269 C1098.91,603.4369 1111.2887,621.0572 1132.7387,651.0372" fill="none" id="init-to-diferenciacion_numerica_e_integracion" style="stroke:#181818;stroke-width:1;"/><polygon fill="#181818" points="1136.23,655.9169,1134.2462,646.2699,1133.3206,651.8505,1127.74,650.9249,1136.23,655.9169" style="stroke:#181818;stroke-width:1;"/><text fill="#000000" font-family="sans-serif" font-size="13" lengthAdjust="spacing" textLength="122.0083" x="1113" y="622.2938">Inicializa la librer&#237;a</text></g><!--link ecuaciones_una_variable to transformacion--><g class="link" data-entity-1="ecuaciones_una_variable" data-entity-2="transformacion" data-source-line="109" data-uid="lnk15" id="link_ecuaciones_una_variable_transformacion"><path codeLine="109" d="M886.23,916.4369 C894.27,958.0169 908.57,1006.6569 934,1044.5769 C941.41,1055.6269 946.5965,1061.765 956.9665,1070.525" fill="none" id="ecuaciones_una_variable-to-transformacion" style="stroke:#181818;stroke-width:1;"/><polygon fill="#181818" points="961.55,1074.3969,957.256,1065.5334,957.7304,1071.1703,952.0935,1071.6447,961.55,1074.3969" style="stroke:#181818;stroke-width:1;"/><text fill="#000000" font-family="sans-serif" font-size="13" lengthAdjust="spacing" textLength="217.9976" x="935" y="1040.6438">Transforma la funci&#243;n de entrada</text></g><!--link diferenciacion_numerica_e_integracion to transformacion--><g class="link" data-entity-1="diferenciacion_numerica_e_integracion" data-entity-2="transformacion" data-source-line="110" data-uid="lnk16" id="link_diferenciacion_numerica_e_integracion_transformacion"><path codeLine="110" d="M1192.57,997.9369 C1182.12,1014.7369 1170.3,1030.6869 1157,1044.5769 C1146.17,1055.8869 1138.197,1062.5675 1124.527,1070.9975" fill="none" id="diferenciacion_numerica_e_integracion-to-transformacion" style="stroke:#181818;stroke-width:1;"/><polygon fill="#181818" points="1119.42,1074.1469,1129.1801,1072.8275,1123.6758,1071.5224,1124.9809,1066.0181,1119.42,1074.1469" style="stroke:#181818;stroke-width:1;"/><text fill="#000000" font-family="sans-serif" font-size="13" lengthAdjust="spacing" textLength="217.9976" x="1170" y="1040.6438">Transforma la funci&#243;n de entrada</text></g><!--link setup to numath--><g class="link" data-entity-1="setup" data-entity-2="numath" data-source-line="113" data-uid="lnk17" id="link_setup_numath"><path codeLine="113" d="M1393.39,159.2769 C1415.61,179.5669 1439.38,206.2269 1452,235.8869 C1459.275,252.9819 1463.4538,271.9387 1465.6197,290.8058 C1466.7027,300.2393 1467.2824,309.6504 1467.4944,318.795 C1467.6004,323.3673 1467.6145,327.873 1467.5535,332.2816 C1467.523,334.4859 1467.6574,352.9656 1467.5915,355.1176" fill="none" id="setup-to-numath" style="stroke:#181818;stroke-width:1;"/><polygon fill="#181818" points="1467.4079,361.1148,1471.6814,352.2414,1467.5609,356.1171,1463.6852,351.9966,1467.4079,361.1148" style="stroke:#181818;stroke-width:1;"/><text fill="#000000" font-family="sans-serif" font-size="13" lengthAdjust="spacing" textLength="140.2324" x="1436" y="201.9538">Empaqueta la librer&#237;a</text></g><!--link __init__ to ecuaciones_una_variable_B--><g class="link" data-entity-1="__init__" data-entity-2="ecuaciones_una_variable_B" data-source-line="116" data-uid="lnk18" id="link___init___ecuaciones_una_variable_B"><path codeLine="116" d="M218.06,150.9369 C205.75,161.6969 193.43,174.6469 185,188.8869 C162.11,227.5469 150.4895,269.8507 143.5395,310.9907" fill="none" id="__init__-to-ecuaciones_una_variable_B" style="stroke:#181818;stroke-width:1;"/><polygon fill="#181818" points="142.54,316.9069,147.9833,308.6989,143.3729,311.9767,140.0951,307.3663,142.54,316.9069" style="stroke:#181818;stroke-width:1;"/><text fill="#000000" font-family="sans-serif" font-size="13" lengthAdjust="spacing" textLength="179.48" x="186" y="201.9538">Registra una solicitud POST</text></g><!--link __init__ to diferenciacion_numerica_e_integracion_B--><g class="link" data-entity-1="__init__" data-entity-2="diferenciacion_numerica_e_integracion_B" data-source-line="117" data-uid="lnk19" id="link___init___diferenciacion_numerica_e_integracion_B"><path codeLine="117" d="M326.51,151.1269 C342.45,161.3669 358.29,174.0069 370,188.8869 C381.14,203.0369 388.0331,213.5723 396.2031,230.1923" fill="none" id="__init__-to-diferenciacion_numerica_e_integracion_B" style="stroke:#181818;stroke-width:1;"/><polygon fill="#181818" points="398.85,235.5769,398.4693,225.7354,396.6442,231.0897,391.2899,229.2646,398.85,235.5769" style="stroke:#181818;stroke-width:1;"/><text fill="#000000" font-family="sans-serif" font-size="13" lengthAdjust="spacing" textLength="179.48" x="381" y="201.9538">Registra una solicitud POST</text></g><!--link ecuaciones_una_variable_B to ecuaciones_una_variable--><g class="link" data-entity-1="ecuaciones_una_variable_B" data-entity-2="ecuaciones_una_variable" data-source-line="120" data-uid="lnk20" id="link_ecuaciones_una_variable_B_ecuaciones_una_variable"><path codeLine="120" d="M179.07,496.1969 C200.87,532.3869 229.77,572.4069 264,601.2269 C390.52,707.7469 566.1506,764.5308 698.6306,794.7908" fill="none" id="ecuaciones_una_variable_B-to-ecuaciones_una_variable" style="stroke:#181818;stroke-width:1;"/><polygon fill="#181818" points="704.48,796.1269,696.5967,790.2232,699.6055,795.0135,694.8153,798.0224,704.48,796.1269" style="stroke:#181818;stroke-width:1;"/><text fill="#000000" font-family="sans-serif" font-size="13" lengthAdjust="spacing" textLength="201.9697" x="293" y="622.2938">LLama a m&#233;todos de la librer&#237;a</text></g><!--link diferenciacion_numerica_e_integracion_B to diferenciacion_numerica_e_integracion--><g class="link" data-entity-1="diferenciacion_numerica_e_integracion_B" data-entity-2="diferenciacion_numerica_e_integracion" data-source-line="121" data-uid="lnk21" id="link_diferenciacion_numerica_e_integracion_B_diferenciacion_numerica_e_integracion"><path codeLine="121" d="M609.18,549.6769 C634.95,568.4469 662.02,586.3269 689,601.2269 C836.83,682.8969 910,589.1669 1065,656.2269 C1070.75,658.7169 1071.1256,658.6708 1076.7656,661.6008" fill="none" id="diferenciacion_numerica_e_integracion_B-to-diferenciacion_numerica_e_integracion" style="stroke:#181818;stroke-width:1;"/><polygon fill="#181818" points="1082.09,664.3669,1075.9475,656.6682,1077.653,662.0618,1072.2594,663.7674,1082.09,664.3669" style="stroke:#181818;stroke-width:1;"/><text fill="#000000" font-family="sans-serif" font-size="13" lengthAdjust="spacing" textLength="201.9697" x="748" y="622.2938">LLama a m&#233;todos de la librer&#237;a</text></g><!--SRC=[hLZDRjiu4BxhAGQ-94KTRtvwog50szq52cJReisTeAMHJPGYLPBA9bduOVQuXptr4VnYEwH-BDcIpHOBf454VZESts_8Ek4amg-2hmmlE6G8xoItQE5EB0sQxRySFbG5Tsju2My-lK-IC_XZ-pshf0R6X1AEiKNv1DygX5Gh9r0XI0vvfLAn_QuWDSWTCbwMvo-IfEJfLxv2c96g6VoL0AHqckrKXIM0btqfk8NV2VILTZRqZtvs9kWI3K-5LcYz5PbMv815SYCNP0XAMCeAIoEKWoUGsWAghDJqQRkpCQqQ5QnId3rm8_XI8dlR6hCK5bD72DOAaojX9nUFcB6mTB2dy4yt8aAg-0Wwvz8YQR9Yz23hCCzHMJpSMckZqB02tLfdxM9HIKcB0-mc-Tz3buaS3LAcWoAcgWADI3b3IgV3LQsVlMtYIAgDUE1EF21pQuDOHywo59KpN1wuDYcmr2RRTsyFd_jVFw2_ZuzGNocH2yhz0ORoIv5aFUZawTFGZ3j-Y6ygAjMEIbLTiPIIWgTWrt6mcpZOgpZO9QFgKgSzY45THw5k9b2fBa9J8REYA2q9c4hYCHmbeCHdBJBAmobi8Ugj4I1rsyQJvOv6XRAEIvvnUF2VfIXlGGLgtT5YXswtBcY5cwUPRw4ELM_L_1bwsfCdDV4jl5U2cb6AP-v9MBRQkeRrm23MaC44zmLTxtPqRci-zpYomd18lHl5zX-dCtsAIDlkxsZql54s1pw7vHpkFzxDuSDb6zu-gLAG3H_Ab9S74aqfD1GuXfn3pbEdJQ_rF0kFIPHNXnODo7aQ3gts7LiViQc33ncSOlBOdTpm-9ITvVN0LXgFNkuiZfT_BibHgYC9V-VG8pcqZcFzqq8ZrFzZGh47DKFWdEXQstxQ9fbzGkVnIN2eVtGI3Dlgw3I8WTx4Gr_5G-l948EyYaPUHoDlZY379yK-LwdJ0oD2P30tHl74pu6WIRcokJR5hcM_qELCfToimcrz1p2UygbdKOMD_YNShqlfoRZhuw7YzgeBr6v5AVapDwnZWzP05ceou_v6RfrflQAhUWSUW_QEtWIVBBggz7TE6pof0fQC9Qfl32VlIdIy7OyqvJQTuK6wivU8YgZPuBTA62n84rah98MWm5rpaK0plCyyuULYLPam89kH78BqIydf4UCGpeE0qrhQHIsxM2nUT3Fz33wZREPSqllY1LsH_JKv5-aQ3VqnwakOm1SNhwUc9GLiDZ75PplXA1O-gchYUAzyhpH8otstCYYhpESlv7cMn5dqq-gJWx9f6u3gDIIkhl_EmpRUTRduSxjh4vtuMokq5nL_OPjul8OFe5ZLLUCzzSU7foaza0okXFLrF7WuXSUKo3GPlFVWIhedxv5Ye3Se6VkvLUqFjrfIHbsLmQUFN-vdGpMHxx5JEdqK-k-zpWrxw0TKJlZoKcFHh-yH53UFCA4xqktVCgNtfqscVJxH7dTt_dygkgj9ssYzD4R68JfaCOV-1m00]--></g></svg>