<svg xmlns="http://www.w3.org/2000/svg" xmlns:xlink="http://www.w3.org/1999/xlink" contentStyleType="text/css" data-diagram-type="CLASS" height="409px" preserveAspectRatio="none" style="width:852px;height:409px;background:#FFFFFF;" version="1.1" viewBox="0 0 852 409" width="852px" zoomAndPan="magnify"><title>Diagrama de Clases</title><defs/><g><g class="title" data-source-line="1"><text fill="#000000" font-family="sans-serif" font-size="14" font-weight="bold" lengthAdjust="spacing" textLength="156.2217" x="340.8892" y="22.9951">Diagrama de Clases</text></g><!--cluster  --><g class="cluster" data-entity=" " data-source-line="6" data-uid="ent0002" id="cluster_ "><path d="M8.5,43.2969 L14.374,43.2969 A3.75,3.75 0 0 1 16.874,45.7969 L23.874,65.5938 L842.5,65.5938 A2.5,2.5 0 0 1 845,68.0938 L845,281.0869 A2.5,2.5 0 0 1 842.5,283.5869 L8.5,283.5869 A2.5,2.5 0 0 1 6,281.0869 L6,45.7969 A2.5,2.5 0 0 1 8.5,43.2969" fill="#FFFFFF" style="stroke:#FFFFFF;stroke-width:1.5;"/><line style="stroke:#FFFFFF;stroke-width:1.5;" x1="6" x2="23.874" y1="65.5938" y2="65.5938"/><text fill="#000000" font-family="sans-serif" font-size="14" font-weight="bold" lengthAdjust="spacing" textLength="4.874" x="10" y="58.292">&#160;</text></g><!--class __init__--><g class="entity" data-entity="__init__" data-source-line="7" data-uid="ent0003" id="entity___init__"><rect fill="#F1F1F1" height="64.2969" rx="2.5" ry="2.5" style="stroke:#181818;stroke-width:0.5;" width="164.5645" x="296.72" y="78.2969"/><ellipse cx="349.6814" cy="94.2969" fill="#ADD1B2" rx="11" ry="11" style="stroke:#181818;stroke-width:1;"/><path d="M352.6502,99.9375 Q352.0721,100.2344 351.4314,100.375 Q350.7908,100.5313 350.0877,100.5313 Q347.5877,100.5313 346.2596,98.8906 Q344.9471,97.2344 344.9471,94.1094 Q344.9471,90.9844 346.2596,89.3281 Q347.5877,87.6719 350.0877,87.6719 Q350.7908,87.6719 351.4314,87.8281 Q352.0877,87.9844 352.6502,88.2813 L352.6502,91 Q352.0252,90.4219 351.4314,90.1563 Q350.8377,89.875 350.2127,89.875 Q348.8689,89.875 348.1814,90.9531 Q347.4939,92.0156 347.4939,94.1094 Q347.4939,96.2031 348.1814,97.2813 Q348.8689,98.3438 350.2127,98.3438 Q350.8377,98.3438 351.4314,98.0781 Q352.0252,97.7969 352.6502,97.2188 L352.6502,99.9375 Z " fill="#000000"/><text fill="#000000" font-family="sans-serif" font-size="14" lengthAdjust="spacing" textLength="50.1416" x="370.1814" y="99.1436">__init__</text><line style="stroke:#181818;stroke-width:0.5;" x1="297.72" x2="460.2845" y1="110.2969" y2="110.2969"/><line style="stroke:#181818;stroke-width:0.5;" x1="297.72" x2="460.2845" y1="118.2969" y2="118.2969"/><ellipse cx="307.72" cy="131.9453" fill="#84BE84" rx="3" ry="3" style="stroke:#038048;stroke-width:1;"/><text fill="#000000" font-family="sans-serif" font-size="14" lengthAdjust="spacing" textLength="138.5645" x="316.72" y="135.292">create_app() : Flask</text></g><!--class ecuaciones_una_variable_controller--><g class="entity" data-entity="ecuaciones_una_variable_controller" data-source-line="11" data-uid="ent0004" id="entity_ecuaciones_una_variable_controller"><rect fill="#F1F1F1" height="48" rx="2.5" ry="2.5" style="stroke:#181818;stroke-width:0.5;" width="281.5938" x="77.2" y="219.5869"/><ellipse cx="92.2" cy="235.5869" fill="#ADD1B2" rx="11" ry="11" style="stroke:#181818;stroke-width:1;"/><path d="M95.1688,241.2275 Q94.5906,241.5244 93.95,241.665 Q93.3094,241.8212 92.6063,241.8212 Q90.1063,241.8212 88.7781,240.1806 Q87.4656,238.5244 87.4656,235.3994 Q87.4656,232.2744 88.7781,230.6181 Q90.1063,228.9619 92.6063,228.9619 Q93.3094,228.9619 93.95,229.1181 Q94.6063,229.2744 95.1688,229.5712 L95.1688,232.29 Q94.5438,231.7119 93.95,231.4462 Q93.3563,231.165 92.7313,231.165 Q91.3875,231.165 90.7,232.2431 Q90.0125,233.3056 90.0125,235.3994 Q90.0125,237.4931 90.7,238.5712 Q91.3875,239.6337 92.7313,239.6337 Q93.3563,239.6337 93.95,239.3681 Q94.5438,239.0869 95.1688,238.5087 L95.1688,241.2275 Z " fill="#000000"/><text fill="#000000" font-family="sans-serif" font-size="14" lengthAdjust="spacing" textLength="249.5938" x="106.2" y="240.4336">ecuaciones_una_variable_controller</text><line style="stroke:#181818;stroke-width:0.5;" x1="78.2" x2="357.7938" y1="251.5869" y2="251.5869"/><line style="stroke:#181818;stroke-width:0.5;" x1="78.2" x2="357.7938" y1="259.5869" y2="259.5869"/></g><!--class diferenciacion_numerica_e_integracion_controller--><g class="entity" data-entity="diferenciacion_numerica_e_integracion_controller" data-source-line="14" data-uid="ent0005" id="entity_diferenciacion_numerica_e_integracion_controller"><rect fill="#F1F1F1" height="48" rx="2.5" ry="2.5" style="stroke:#181818;stroke-width:0.5;" width="379.4912" x="394.25" y="219.5869"/><ellipse cx="409.25" cy="235.5869" fill="#ADD1B2" rx="11" ry="11" style="stroke:#181818;stroke-width:1;"/><path d="M412.2188,241.2275 Q411.6406,241.5244 411,241.665 Q410.3594,241.8212 409.6563,241.8212 Q407.1563,241.8212 405.8281,240.1806 Q404.5156,238.5244 404.5156,235.3994 Q404.5156,232.2744 405.8281,230.6181 Q407.1563,228.9619 409.6563,228.9619 Q410.3594,228.9619 411,229.1181 Q411.6563,229.2744 412.2188,229.5712 L412.2188,232.29 Q411.5938,231.7119 411,231.4462 Q410.4063,231.165 409.7813,231.165 Q408.4375,231.165 407.75,232.2431 Q407.0625,233.3056 407.0625,235.3994 Q407.0625,237.4931 407.75,238.5712 Q408.4375,239.6337 409.7813,239.6337 Q410.4063,239.6337 411,239.3681 Q411.5938,239.0869 412.2188,238.5087 L412.2188,241.2275 Z " fill="#000000"/><text fill="#000000" font-family="sans-serif" font-size="14" lengthAdjust="spacing" textLength="347.4912" x="423.25" y="240.4336">diferenciacion_numerica_e_integracion_controller</text><line style="stroke:#181818;stroke-width:0.5;" x1="395.25" x2="772.7412" y1="251.5869" y2="251.5869"/><line style="stroke:#181818;stroke-width:0.5;" x1="395.25" x2="772.7412" y1="259.5869" y2="259.5869"/></g><!--entity PyLibrary--><g class="entity" data-entity="PyLibrary" data-source-line="18" data-uid="ent0006" id="entity_PyLibrary"><polygon fill="#F1F1F1" points="323.23,356.5869,333.23,346.5869,476.7749,346.5869,476.7749,382.8837,466.7749,392.8837,323.23,392.8837,323.23,356.5869" style="stroke:#181818;stroke-width:0.5;"/><line style="stroke:#181818;stroke-width:0.5;" x1="466.7749" x2="476.7749" y1="356.5869" y2="346.5869"/><line style="stroke:#181818;stroke-width:0.5;" x1="323.23" x2="466.7749" y1="356.5869" y2="356.5869"/><line style="stroke:#181818;stroke-width:0.5;" x1="466.7749" x2="466.7749" y1="356.5869" y2="392.8837"/><text fill="#000000" font-family="sans-serif" font-size="14" lengthAdjust="spacing" textLength="113.5449" x="338.23" y="379.582">Librer&#237;a Numath</text></g><!--link __init__ to ecuaciones_una_variable_controller--><g class="link" data-entity-1="__init__" data-entity-2="ecuaciones_una_variable_controller" data-source-line="21" data-uid="lnk7" id="link___init___ecuaciones_una_variable_controller"><path codeLine="21" d="M296.46,115.3069 C210.51,121.2669 84.24,136.1269 54,172.5869 C36.41,193.7969 45.2923,206.5057 71.6523,216.9557" fill="none" id="__init__-to-ecuaciones_una_variable_controller" style="stroke:#181818;stroke-width:1;"/><polygon fill="#181818" points="77.23,219.1669,70.3376,212.1316,72.5819,217.3242,67.3893,219.5686,77.23,219.1669" style="stroke:#181818;stroke-width:1;"/><text fill="#000000" font-family="sans-serif" font-size="13" lengthAdjust="spacing" textLength="196.4854" x="55" y="185.6538">Usuario solicita una operaci&#243;n</text></g><!--link ecuaciones_una_variable_controller to __init__--><g class="link" data-entity-1="ecuaciones_una_variable_controller" data-entity-2="__init__" data-source-line="27" data-uid="lnk11" id="link_ecuaciones_una_variable_controller___init__"><path codeLine="27" d="M240.87,219.3069 C255.1,205.2369 274.06,187.2469 292,172.5869 C304.44,162.4269 313.5581,155.5527 326.6581,146.3627" fill="none" id="ecuaciones_una_variable_controller-to-__init__" style="stroke:#181818;stroke-width:1;"/><polygon fill="#181818" points="331.57,142.9169,321.905,144.811,327.4768,145.7884,326.4994,151.3602,331.57,142.9169" style="stroke:#181818;stroke-width:1;"/><text fill="#000000" font-family="sans-serif" font-size="13" lengthAdjust="spacing" textLength="126.6104" x="293" y="185.6538">Devuelve resultado</text></g><!--link __init__ to diferenciacion_numerica_e_integracion_controller--><g class="link" data-entity-1="__init__" data-entity-2="diferenciacion_numerica_e_integracion_controller" data-source-line="22" data-uid="lnk8" id="link___init___diferenciacion_numerica_e_integracion_controller"><path codeLine="22" d="M406.38,142.8169 C421.12,158.3469 440.3,176.5169 460,189.5869 C477.46,201.1769 492.3394,208.8103 511.4994,216.8703" fill="none" id="__init__-to-diferenciacion_numerica_e_integracion_controller" style="stroke:#181818;stroke-width:1;"/><polygon fill="#181818" points="517.03,219.1969,510.2852,212.02,512.4212,217.2581,507.1831,219.3941,517.03,219.1969" style="stroke:#181818;stroke-width:1;"/><text fill="#000000" font-family="sans-serif" font-size="13" lengthAdjust="spacing" textLength="196.4854" x="461" y="185.6538">Usuario solicita una operaci&#243;n</text></g><!--link diferenciacion_numerica_e_integracion_controller to __init__--><g class="link" data-entity-1="diferenciacion_numerica_e_integracion_controller" data-entity-2="__init__" data-source-line="28" data-uid="lnk12" id="link_diferenciacion_numerica_e_integracion_controller___init__"><path codeLine="28" d="M637.47,219.1769 C659.02,206.4369 675.88,189.7969 662,172.5869 C637.18,141.8369 542.0372,126.4132 467.7272,118.6132" fill="none" id="diferenciacion_numerica_e_integracion_controller-to-__init__" style="stroke:#181818;stroke-width:1;"/><polygon fill="#181818" points="461.76,117.9869,470.2933,122.9045,466.7327,118.5088,471.1284,114.9483,461.76,117.9869" style="stroke:#181818;stroke-width:1;"/><text fill="#000000" font-family="sans-serif" font-size="13" lengthAdjust="spacing" textLength="126.6104" x="668" y="185.6538">Devuelve resultado</text></g><!--link ecuaciones_una_variable_controller to PyLibrary--><g class="link" data-entity-1="ecuaciones_una_variable_controller" data-entity-2="PyLibrary" data-source-line="24" data-uid="lnk9" id="link_ecuaciones_una_variable_controller_PyLibrary"><path codeLine="24" d="M252.23,267.9369 C285.08,290.3469 329.403,320.5864 361.883,342.7364" fill="none" id="ecuaciones_una_variable_controller-to-PyLibrary" style="stroke:#181818;stroke-width:1;"/><polygon fill="#181818" points="366.84,346.1169,361.6581,337.7414,362.7091,343.2998,357.1508,344.3508,366.84,346.1169" style="stroke:#181818;stroke-width:1;"/><text fill="#000000" font-family="sans-serif" font-size="13" lengthAdjust="spacing" textLength="51.5493" x="320" y="312.6538">Llama a</text></g><!--link diferenciacion_numerica_e_integracion_controller to PyLibrary--><g class="link" data-entity-1="diferenciacion_numerica_e_integracion_controller" data-entity-2="PyLibrary" data-source-line="25" data-uid="lnk10" id="link_diferenciacion_numerica_e_integracion_controller_PyLibrary"><path codeLine="25" d="M549.39,267.9369 C516.18,290.3469 471.3343,320.6118 438.4943,342.7618" fill="none" id="diferenciacion_numerica_e_integracion_controller-to-PyLibrary" style="stroke:#181818;stroke-width:1;"/><polygon fill="#181818" points="433.52,346.1169,443.2181,344.4005,437.6652,343.321,438.7447,337.7681,433.52,346.1169" style="stroke:#181818;stroke-width:1;"/><text fill="#000000" font-family="sans-serif" font-size="13" lengthAdjust="spacing" textLength="51.5493" x="498" y="312.6538">Llama a</text></g><!--SRC=[dLBDIiD04BxlKmmvAT8NwC63BPwAUF6yJ3TZEcIx6sPt8qLy94y-Gb_CIP1OKJ6L71PcljyXcRCdM3CsWdk4cc3bCL4o9hKSEjGfTEXQREWcIasoYZuAFEquqmyGVHg99TIdCFEnXKg_PmFWr2A1jHmuMpkE0AwS46Qos7KNbx24MmMrkdan4uDSGSSnKB8beErH6BUUh8iXI_IUPDGwOTJyI4B1ySYpeUn9sA4bzSwadSVnDxugXAYtg3Qy5PBZAy9TsMFULO09xW_36EMWQ4LEFHQBwpaHbr0zfAAB22bwTfmH50kneo7FyIrKNpNFBJ77mCm8EdX_TbNLZH_-4QpCsMVzNMfkaEaYIbvJNyZt14Af-8nr_6UaFqJV0G00]--></g></svg>