<svg xmlns="http://www.w3.org/2000/svg" xmlns:xlink="http://www.w3.org/1999/xlink" contentStyleType="text/css" data-diagram-type="CLASS" height="393px" preserveAspectRatio="none" style="width:844px;height:393px;background:#FFFFFF;" version="1.1" viewBox="0 0 844 393" width="844px" zoomAndPan="magnify"><title>Diagrama de Clases</title><defs/><g><g class="title" data-source-line="1"><text fill="#000000" font-family="sans-serif" font-size="14" font-weight="bold" lengthAdjust="spacing" textLength="156.2217" x="336.8892" y="22.9951">Diagrama de Clases</text></g><!--cluster  --><g class="cluster" data-entity=" " data-source-line="6" data-uid="ent0002" id="cluster_ "><path d="M8.5,43.2969 L14.374,43.2969 A3.75,3.75 0 0 1 16.874,45.7969 L23.874,65.5938 L834.5,65.5938 A2.5,2.5 0 0 1 837,68.0938 L837,264.7969 A2.5,2.5 0 0 1 834.5,267.2969 L8.5,267.2969 A2.5,2.5 0 0 1 6,264.7969 L6,45.7969 A2.5,2.5 0 0 1 8.5,43.2969" fill="#FFFFFF"/><line style="stroke:#FFFFFF;stroke-width:1.5;" x1="6" x2="23.874" y1="65.5938" y2="65.5938"/><text fill="#000000" font-family="sans-serif" font-size="14" font-weight="bold" lengthAdjust="spacing" textLength="4.874" x="10" y="58.292">&#160;</text></g><!--class __init__--><g class="entity" data-entity="__init__" data-source-line="7" data-uid="ent0003" id="entity___init__"><rect fill="#F1F1F1" height="48" rx="2.5" ry="2.5" style="stroke:#181818;stroke-width:0.5;" width="82.1416" x="333.93" y="78.2969"/><ellipse cx="348.93" cy="94.2969" fill="#ADD1B2" rx="11" ry="11" style="stroke:#181818;stroke-width:1;"/><path d="M351.8988,99.9375 Q351.3206,100.2344 350.68,100.375 Q350.0394,100.5313 349.3363,100.5313 Q346.8363,100.5313 345.5081,98.8906 Q344.1956,97.2344 344.1956,94.1094 Q344.1956,90.9844 345.5081,89.3281 Q346.8363,87.6719 349.3363,87.6719 Q350.0394,87.6719 350.68,87.8281 Q351.3363,87.9844 351.8988,88.2813 L351.8988,91 Q351.2738,90.4219 350.68,90.1563 Q350.0863,89.875 349.4613,89.875 Q348.1175,89.875 347.43,90.9531 Q346.7425,92.0156 346.7425,94.1094 Q346.7425,96.2031 347.43,97.2813 Q348.1175,98.3438 349.4613,98.3438 Q350.0863,98.3438 350.68,98.0781 Q351.2738,97.7969 351.8988,97.2188 L351.8988,99.9375 Z " fill="#000000"/><text fill="#000000" font-family="sans-serif" font-size="14" lengthAdjust="spacing" textLength="50.1416" x="362.93" y="99.1436">__init__</text><line style="stroke:#181818;stroke-width:0.5;" x1="334.93" x2="415.0716" y1="110.2969" y2="110.2969"/><line style="stroke:#181818;stroke-width:0.5;" x1="334.93" x2="415.0716" y1="118.2969" y2="118.2969"/></g><!--class ecuaciones_una_variable_controller--><g class="entity" data-entity="ecuaciones_una_variable_controller" data-source-line="10" data-uid="ent0004" id="entity_ecuaciones_una_variable_controller"><rect fill="#F1F1F1" height="48" rx="2.5" ry="2.5" style="stroke:#181818;stroke-width:0.5;" width="281.5938" x="73.2" y="203.2969"/><ellipse cx="88.2" cy="219.2969" fill="#ADD1B2" rx="11" ry="11" style="stroke:#181818;stroke-width:1;"/><path d="M91.1688,224.9375 Q90.5906,225.2344 89.95,225.375 Q89.3094,225.5313 88.6063,225.5313 Q86.1063,225.5313 84.7781,223.8906 Q83.4656,222.2344 83.4656,219.1094 Q83.4656,215.9844 84.7781,214.3281 Q86.1063,212.6719 88.6063,212.6719 Q89.3094,212.6719 89.95,212.8281 Q90.6063,212.9844 91.1688,213.2813 L91.1688,216 Q90.5438,215.4219 89.95,215.1563 Q89.3563,214.875 88.7313,214.875 Q87.3875,214.875 86.7,215.9531 Q86.0125,217.0156 86.0125,219.1094 Q86.0125,221.2031 86.7,222.2813 Q87.3875,223.3438 88.7313,223.3438 Q89.3563,223.3438 89.95,223.0781 Q90.5438,222.7969 91.1688,222.2188 L91.1688,224.9375 Z " fill="#000000"/><text fill="#000000" font-family="sans-serif" font-size="14" lengthAdjust="spacing" textLength="249.5938" x="102.2" y="224.1436">ecuaciones_una_variable_controller</text><line style="stroke:#181818;stroke-width:0.5;" x1="74.2" x2="353.7938" y1="235.2969" y2="235.2969"/><line style="stroke:#181818;stroke-width:0.5;" x1="74.2" x2="353.7938" y1="243.2969" y2="243.2969"/></g><!--class diferenciacion_numerica_e_integracion_controller--><g class="entity" data-entity="diferenciacion_numerica_e_integracion_controller" data-source-line="13" data-uid="ent0005" id="entity_diferenciacion_numerica_e_integracion_controller"><rect fill="#F1F1F1" height="48" rx="2.5" ry="2.5" style="stroke:#181818;stroke-width:0.5;" width="379.4912" x="390.25" y="203.2969"/><ellipse cx="405.25" cy="219.2969" fill="#ADD1B2" rx="11" ry="11" style="stroke:#181818;stroke-width:1;"/><path d="M408.2188,224.9375 Q407.6406,225.2344 407,225.375 Q406.3594,225.5313 405.6563,225.5313 Q403.1563,225.5313 401.8281,223.8906 Q400.5156,222.2344 400.5156,219.1094 Q400.5156,215.9844 401.8281,214.3281 Q403.1563,212.6719 405.6563,212.6719 Q406.3594,212.6719 407,212.8281 Q407.6563,212.9844 408.2188,213.2813 L408.2188,216 Q407.5938,215.4219 407,215.1563 Q406.4063,214.875 405.7813,214.875 Q404.4375,214.875 403.75,215.9531 Q403.0625,217.0156 403.0625,219.1094 Q403.0625,221.2031 403.75,222.2813 Q404.4375,223.3438 405.7813,223.3438 Q406.4063,223.3438 407,223.0781 Q407.5938,222.7969 408.2188,222.2188 L408.2188,224.9375 Z " fill="#000000"/><text fill="#000000" font-family="sans-serif" font-size="14" lengthAdjust="spacing" textLength="347.4912" x="419.25" y="224.1436">diferenciacion_numerica_e_integracion_controller</text><line style="stroke:#181818;stroke-width:0.5;" x1="391.25" x2="768.7412" y1="235.2969" y2="235.2969"/><line style="stroke:#181818;stroke-width:0.5;" x1="391.25" x2="768.7412" y1="243.2969" y2="243.2969"/></g><!--entity PyLibrary--><g class="entity" data-entity="PyLibrary" data-source-line="17" data-uid="ent0006" id="entity_PyLibrary"><polygon fill="#F1F1F1" points="319.23,340.2969,329.23,330.2969,472.7749,330.2969,472.7749,366.5938,462.7749,376.5938,319.23,376.5938,319.23,340.2969" style="stroke:#181818;stroke-width:0.5;"/><line style="stroke:#181818;stroke-width:0.5;" x1="462.7749" x2="472.7749" y1="340.2969" y2="330.2969"/><line style="stroke:#181818;stroke-width:0.5;" x1="319.23" x2="462.7749" y1="340.2969" y2="340.2969"/><line style="stroke:#181818;stroke-width:0.5;" x1="462.7749" x2="462.7749" y1="340.2969" y2="376.5938"/><text fill="#000000" font-family="sans-serif" font-size="14" lengthAdjust="spacing" textLength="113.5449" x="334.23" y="363.292">Librer&#237;a Numath</text></g><!--link __init__ to ecuaciones_una_variable_controller--><g class="link" data-entity-1="__init__" data-entity-2="ecuaciones_una_variable_controller" data-source-line="20" data-uid="lnk7" id="link___init___ecuaciones_una_variable_controller"><path codeLine="20" d="M333.57,103.7769 C255.09,105.6469 89.4,114.5769 54,156.2969 C36.05,177.4569 45.7757,190.2581 72.8857,200.7681" fill="none" id="__init__-to-ecuaciones_una_variable_controller" style="stroke:#181818;stroke-width:1;"/><polygon fill="#181818" points="78.48,202.9369,71.5344,195.9541,73.8181,201.1295,68.6427,203.4132,78.48,202.9369" style="stroke:#181818;stroke-width:1;"/><text fill="#000000" font-family="sans-serif" font-size="13" lengthAdjust="spacing" textLength="192.7148" x="55" y="169.3638">Cliente solicita una operaci&#243;n</text></g><!--link ecuaciones_una_variable_controller to __init__--><g class="link" data-entity-1="ecuaciones_una_variable_controller" data-entity-2="__init__" data-source-line="26" data-uid="lnk11" id="link_ecuaciones_una_variable_controller___init__"><path codeLine="26" d="M236.21,202.9169 C250.36,188.6369 269.45,170.4669 288,156.2969 C302.19,145.4569 313.5679,137.9751 328.3879,129.1951" fill="none" id="ecuaciones_una_variable_controller-to-__init__" style="stroke:#181818;stroke-width:1;"/><polygon fill="#181818" points="333.55,126.1369,323.768,127.2828,329.2483,128.6854,327.8457,134.1656,333.55,126.1369" style="stroke:#181818;stroke-width:1;"/><text fill="#000000" font-family="sans-serif" font-size="13" lengthAdjust="spacing" textLength="126.6104" x="289" y="169.3638">Devuelve resultado</text></g><!--link __init__ to diferenciacion_numerica_e_integracion_controller--><g class="link" data-entity-1="__init__" data-entity-2="diferenciacion_numerica_e_integracion_controller" data-source-line="21" data-uid="lnk8" id="link___init___diferenciacion_numerica_e_integracion_controller"><path codeLine="21" d="M397.92,126.5269 C413.36,141.2669 434.72,160.0069 456,173.2969 C474.17,184.6469 489.6552,192.3403 509.1752,200.5103" fill="none" id="__init__-to-diferenciacion_numerica_e_integracion_controller" style="stroke:#181818;stroke-width:1;"/><polygon fill="#181818" points="514.71,202.8269,507.9522,195.6622,510.0977,200.8964,504.8635,203.0419,514.71,202.8269" style="stroke:#181818;stroke-width:1;"/><text fill="#000000" font-family="sans-serif" font-size="13" lengthAdjust="spacing" textLength="192.7148" x="457" y="169.3638">Cliente solicita una operaci&#243;n</text></g><!--link diferenciacion_numerica_e_integracion_controller to __init__--><g class="link" data-entity-1="diferenciacion_numerica_e_integracion_controller" data-entity-2="__init__" data-source-line="27" data-uid="lnk12" id="link_diferenciacion_numerica_e_integracion_controller___init__"><path codeLine="27" d="M630.4,202.8169 C651.33,189.8669 667.87,173.0569 654,156.2969 C624.33,120.4569 492.7316,108.975 422.4916,105.245" fill="none" id="diferenciacion_numerica_e_integracion_controller-to-__init__" style="stroke:#181818;stroke-width:1;"/><polygon fill="#181818" points="416.5,104.9269,425.2752,109.3985,421.493,105.192,425.6995,101.4098,416.5,104.9269" style="stroke:#181818;stroke-width:1;"/><text fill="#000000" font-family="sans-serif" font-size="13" lengthAdjust="spacing" textLength="126.6104" x="660" y="169.3638">Devuelve resultado</text></g><!--link ecuaciones_una_variable_controller to PyLibrary--><g class="link" data-entity-1="ecuaciones_una_variable_controller" data-entity-2="PyLibrary" data-source-line="23" data-uid="lnk9" id="link_ecuaciones_una_variable_controller_PyLibrary"><path codeLine="23" d="M248.23,251.6469 C281.08,274.0569 325.403,304.2964 357.883,326.4464" fill="none" id="ecuaciones_una_variable_controller-to-PyLibrary" style="stroke:#181818;stroke-width:1;"/><polygon fill="#181818" points="362.84,329.8269,357.6581,321.4514,358.7091,327.0098,353.1508,328.0608,362.84,329.8269" style="stroke:#181818;stroke-width:1;"/><text fill="#000000" font-family="sans-serif" font-size="13" lengthAdjust="spacing" textLength="51.5493" x="316" y="296.3638">Llama a</text></g><!--link diferenciacion_numerica_e_integracion_controller to PyLibrary--><g class="link" data-entity-1="diferenciacion_numerica_e_integracion_controller" data-entity-2="PyLibrary" data-source-line="24" data-uid="lnk10" id="link_diferenciacion_numerica_e_integracion_controller_PyLibrary"><path codeLine="24" d="M545.39,251.6469 C512.18,274.0569 467.3343,304.3218 434.4943,326.4718" fill="none" id="diferenciacion_numerica_e_integracion_controller-to-PyLibrary" style="stroke:#181818;stroke-width:1;"/><polygon fill="#181818" points="429.52,329.8269,439.2181,328.1105,433.6652,327.031,434.7447,321.4781,429.52,329.8269" style="stroke:#181818;stroke-width:1;"/><text fill="#000000" font-family="sans-serif" font-size="13" lengthAdjust="spacing" textLength="51.5493" x="494" y="296.3638">Llama a</text></g><!--SRC=[dL9BQiCm4Dth58FskK0NNTHPXj8RY8ayTOR8aXb9Bg7qI5tr2BbOnwQuV-eKBGHFRzvdKE4I2BQCdM2Fq18q0JDbO_AHuu2Ame3-Y1tT96b9cXIImCE12_r0qQkJL6FxaMRUNi7gUJG0NYqoECUHYtCpz6GMd7n5pobITZMY6r4Ozu6SJx582e7awqJBzoGKFSzpBjQUX3qwKeT2sco6lyshGapQsEvuBoJdPuJRscCvMC0CTwS9HZafMvbBsitcUat4Ax1DO59_o2cmvuAWN4W3JNdEBz5-rhoqn1e3ioBevFtULLLtOVe9QCt5Q_rTQcsGPICwlAMnKXW9X78D1TlqpqX_YBu2]--></g></svg>