<svg xmlns="http://www.w3.org/2000/svg" xmlns:xlink="http://www.w3.org/1999/xlink" contentStyleType="text/css" data-diagram-type="CLASS" height="616px" preserveAspectRatio="none" style="width:794px;height:616px;background:#FFFFFF;" version="1.1" viewBox="0 0 794 616" width="794px" zoomAndPan="magnify"><title>Diagrama de Objetos de la Operaci&#243;n Bisecci&#243;n</title><defs/><g><g class="title" data-source-line="1"><text fill="#000000" font-family="sans-serif" font-size="14" font-weight="bold" lengthAdjust="spacing" textLength="374.3906" x="202.8047" y="22.9951">Diagrama de Objetos de la Operaci&#243;n Bisecci&#243;n</text></g><!--cluster API--><g class="cluster" data-entity="API" data-source-line="3" data-uid="ent0002" id="cluster_API"><path d="M8.5,43.2969 L35.8047,43.2969 A3.75,3.75 0 0 1 38.3047,45.7969 L45.3047,65.5938 L539.5,65.5938 A2.5,2.5 0 0 1 542,68.0938 L542,257.9869 A2.5,2.5 0 0 1 539.5,260.4869 L8.5,260.4869 A2.5,2.5 0 0 1 6,257.9869 L6,45.7969 A2.5,2.5 0 0 1 8.5,43.2969" fill="none" style="stroke:#000000;stroke-width:1.5;"/><line style="stroke:#000000;stroke-width:1.5;" x1="6" x2="45.3047" y1="65.5938" y2="65.5938"/><text fill="#000000" font-family="sans-serif" font-size="14" font-weight="bold" lengthAdjust="spacing" textLength="26.3047" x="10" y="58.292">API</text></g><!--cluster Librer?a: numath-Libary--><g class="cluster" data-entity="Librer&#237;a: numath-Libary" data-source-line="13" data-uid="ent0005" id="cluster_Librer&#237;a: numath-Libary"><path d="M72.5,309.4869 L260.9209,309.4869 A3.75,3.75 0 0 1 263.4209,311.9869 L270.4209,331.7837 L784.5,331.7837 A2.5,2.5 0 0 1 787,334.2837 L787,607.4669 A2.5,2.5 0 0 1 784.5,609.9669 L72.5,609.9669 A2.5,2.5 0 0 1 70,607.4669 L70,311.9869 A2.5,2.5 0 0 1 72.5,309.4869" fill="none" style="stroke:#000000;stroke-width:1.5;"/><line style="stroke:#000000;stroke-width:1.5;" x1="70" x2="270.4209" y1="331.7837" y2="331.7837"/><text fill="#000000" font-family="sans-serif" font-size="14" font-weight="bold" lengthAdjust="spacing" textLength="187.4209" x="74" y="324.482">Librer&#237;a: numath-Libary</text></g><!--cluster numath--><g class="cluster" data-entity="numath" data-source-line="14" data-uid="ent0006" id="cluster_numath"><path d="M96.5,352.4869 L158.1279,352.4869 A3.75,3.75 0 0 1 160.6279,354.9869 L167.6279,374.7837 L760.5,374.7837 A2.5,2.5 0 0 1 763,377.2837 L763,583.4669 A2.5,2.5 0 0 1 760.5,585.9669 L96.5,585.9669 A2.5,2.5 0 0 1 94,583.4669 L94,354.9869 A2.5,2.5 0 0 1 96.5,352.4869" fill="none" style="stroke:#000000;stroke-width:1.5;"/><line style="stroke:#000000;stroke-width:1.5;" x1="94" x2="167.6279" y1="374.7837" y2="374.7837"/><text fill="#000000" font-family="sans-serif" font-size="14" font-weight="bold" lengthAdjust="spacing" textLength="60.6279" x="98" y="367.482">numath</text></g><g class="entity" data-entity="flask_app" data-source-line="4" data-uid="ent0003" id="entity_flask_app"><rect fill="#F1F1F1" height="44.5938" rx="2.5" ry="2.5" style="stroke:#181818;stroke-width:0.5;" width="150.5645" x="174.72" y="78.2969"/><text fill="#000000" font-family="sans-serif" font-size="14" lengthAdjust="spacing" textLength="117.8242" x="191.0901" y="93.292">flask_app : API_1</text><line style="stroke:#181818;stroke-width:0.5;" x1="175.72" x2="324.2845" y1="98.5938" y2="98.5938"/><text fill="#000000" font-family="sans-serif" font-size="14" lengthAdjust="spacing" textLength="138.5645" x="180.72" y="115.5889">create_app() : Flask</text></g><g class="entity" data-entity="operaciones" data-source-line="8" data-uid="ent0004" id="entity_operaciones"><rect fill="#F1F1F1" height="44.5938" rx="2.5" ry="2.5" style="stroke:#181818;stroke-width:0.5;" width="331.4775" x="64.26" y="199.8869"/><text fill="#000000" font-family="sans-serif" font-size="14" lengthAdjust="spacing" textLength="164.3564" x="147.8205" y="214.882">operaciones : bisecci&#243;n</text><line style="stroke:#181818;stroke-width:0.5;" x1="65.26" x2="394.7375" y1="220.1837" y2="220.1837"/><text fill="#000000" font-family="sans-serif" font-size="14" lengthAdjust="spacing" textLength="319.4775" x="70.26" y="237.1789">bisection_endpoint("x^2 - 4", 0, 3, 1e-5, 100)</text></g><g class="entity" data-entity="ecuaciones_una_variable" data-source-line="16" data-uid="ent0007" id="entity_ecuaciones_una_variable"><rect fill="#F1F1F1" height="44.5938" rx="2.5" ry="2.5" style="stroke:#181818;stroke-width:0.5;" width="323.4658" x="246.27" y="387.4869"/><text fill="#000000" font-family="sans-serif" font-size="14" lengthAdjust="spacing" textLength="254.5225" x="280.7417" y="402.482">ecuaciones_una_variable : bisecci&#243;n</text><line style="stroke:#181818;stroke-width:0.5;" x1="247.27" x2="568.7358" y1="407.7837" y2="407.7837"/><text fill="#000000" font-family="sans-serif" font-size="14" lengthAdjust="spacing" textLength="311.4658" x="252.27" y="424.7789">bisection_method("x^2 - 4", 0, 3, 1e-5, 100)</text></g><g class="entity" data-entity="transformacion" data-source-line="20" data-uid="ent0008" id="entity_transformacion"><rect fill="#F1F1F1" height="60.8906" rx="2.5" ry="2.5" style="stroke:#181818;stroke-width:0.5;" width="238.376" x="289.81" y="509.0769"/><text fill="#000000" font-family="sans-serif" font-size="14" lengthAdjust="spacing" textLength="224.376" x="296.81" y="524.072">transformacion : transformation</text><line style="stroke:#181818;stroke-width:0.5;" x1="290.81" x2="527.186" y1="529.3738" y2="529.3738"/><text fill="#000000" font-family="sans-serif" font-size="14" lengthAdjust="spacing" textLength="198.7686" x="295.81" y="546.3689">funcion_entrada = "x^2 - 4"</text><text fill="#000000" font-family="sans-serif" font-size="14" lengthAdjust="spacing" textLength="180.708" x="295.81" y="562.6657">crear_funcion() = x**2 - 4</text></g><!--link flask_app to operaciones--><g class="link" data-entity-1="flask_app" data-entity-2="operaciones" data-source-line="28" data-uid="lnk9" id="link_flask_app_operaciones"><path codeLine="28" d="M174.22,111.7669 C125.64,120.0269 68.96,133.5069 54,152.8869 C37.28,174.5569 50.19,189.3469 75.18,199.4569" fill="none" id="flask_app-operaciones" style="stroke:#181818;stroke-width:1;"/><polygon fill="#000000" points="55.2565,164.7678,63.9768,160.9722,60.0804,156.5714,55.2565,164.7678" style="stroke:#000000;stroke-width:1;"/><text fill="#000000" font-family="sans-serif" font-size="13" lengthAdjust="spacing" textLength="292.6714" x="68" y="165.9538">Registra una llamada de operacion bisecci&#243;n</text></g><!--link operaciones to flask_app--><g class="link" data-entity-1="operaciones" data-entity-2="flask_app" data-source-line="33" data-uid="lnk14" id="link_operaciones_flask_app"><path codeLine="33" d="M329.87,199.5069 C343.7,192.2869 356.17,182.6869 365,169.8869 C380.95,146.7569 356.13,130.2369 325.52,119.2469" fill="none" id="operaciones-flask_app" style="stroke:#181818;stroke-width:1;"/><polygon fill="#000000" points="373.7294,156.4606,371.2843,165.6515,377.1535,165.3334,373.7294,156.4606" style="stroke:#000000;stroke-width:1;"/><text fill="#000000" font-family="sans-serif" font-size="13" lengthAdjust="spacing" textLength="107.9863" x="383" y="165.9538">Env&#237;a Respuesta</text></g><!--link operaciones to ecuaciones_una_variable--><g class="link" data-entity-1="operaciones" data-entity-2="ecuaciones_una_variable" data-source-line="29" data-uid="lnk10" id="link_operaciones_ecuaciones_una_variable"><path codeLine="29" d="M184.56,244.9069 C164.25,257.7469 147.23,275.0669 159,293.4869 C190.1,342.1569 247.6,370.5869 299.51,387.0369" fill="none" id="operaciones-ecuaciones_una_variable" style="stroke:#181818;stroke-width:1;"/><polygon fill="#000000" points="167.1442,288.9409,163.7414,280.06,159.1712,283.7562,167.1442,288.9409" style="stroke:#000000;stroke-width:1;"/><text fill="#000000" font-family="sans-serif" font-size="13" lengthAdjust="spacing" textLength="260.0635" x="173" y="289.5538">LLama a m&#233;todo bisecci&#243;n de la librer&#237;a</text></g><!--link ecuaciones_una_variable to operaciones--><g class="link" data-entity-1="ecuaciones_una_variable" data-entity-2="operaciones" data-source-line="32" data-uid="lnk13" id="link_ecuaciones_una_variable_operaciones"><path codeLine="32" d="M422.7,387.2069 C439.97,358.9069 463.27,309.0469 438,276.4869 C427.86,263.4169 399.75,252.9969 367.35,244.9769" fill="none" id="ecuaciones_una_variable-operaciones" style="stroke:#181818;stroke-width:1;"/><polygon fill="#000000" points="449.1867,280.3937,449.7282,289.8888,455.2059,287.7571,449.1867,280.3937" style="stroke:#000000;stroke-width:1;"/><text fill="#000000" font-family="sans-serif" font-size="13" lengthAdjust="spacing" textLength="117" x="460" y="289.5538">Retorna resultado</text></g><!--link ecuaciones_una_variable to transformacion--><g class="link" data-entity-1="ecuaciones_una_variable" data-entity-2="transformacion" data-source-line="30" data-uid="lnk11" id="link_ecuaciones_una_variable_transformacion"><path codeLine="30" d="M245.86,424.9669 C199.09,432.6269 156.67,444.3069 142,462.0769 C137.19,467.9069 137.27,473.1769 142,479.0769 C160.98,502.7369 227.5,517.5869 289.4,526.5269" fill="none" id="ecuaciones_una_variable-transformacion" style="stroke:#181818;stroke-width:1;"/><polygon fill="#000000" points="148.9701,475.2388,148.1073,465.7674,142.705,468.0835,148.9701,475.2388" style="stroke:#000000;stroke-width:1;"/><text fill="#000000" font-family="sans-serif" font-size="13" lengthAdjust="spacing" textLength="389.0923" x="156" y="475.1438">Transforma la entrada de la funci&#243;n en una funci&#243;n callable</text></g><!--link transformacion to ecuaciones_una_variable--><g class="link" data-entity-1="transformacion" data-entity-2="ecuaciones_una_variable" data-source-line="31" data-uid="lnk12" id="link_transformacion_ecuaciones_una_variable"><path codeLine="31" d="M528.52,509.4569 C551.39,497.9569 564.32,482.4769 550,462.0769 C541.04,449.3069 528.57,439.7069 514.71,432.4869" fill="none" id="transformacion-ecuaciones_una_variable" style="stroke:#181818;stroke-width:1;"/><polygon fill="#000000" points="560.117,465.7219,558.8216,475.1438,564.6071,474.1058,560.117,465.7219" style="stroke:#000000;stroke-width:1;"/><text fill="#000000" font-family="sans-serif" font-size="13" lengthAdjust="spacing" textLength="143.1841" x="570" y="475.1438">Funci&#243;n transformada</text></g><!--SRC=[XLDDIyD04BtdLmnxij90_ReK51GLX4AbU3PCacaRc-o6tKsfI7-G1q_-XFunPpSsNLggXuJDpDltPjvCR65BWli2PnehX9nWdBwHLSOTIuHnJHgpOlCjuQumbFbZ5DMOBN1686wVdmHyH02AhsKMnBH4iqYmhc48d4pE1A21NTHX0J9DQCa5JdeCV7HfJgpv2RXKAwua6GQbdRwd39CjgGTOZYGayreLqfw8rUivn70f-Z3emqKVpYY-ulTWqFDoww2LKP5gqfil789iAhJpc2EetuLZxr1jolKS54fPyrjAqaXCbgWBJDdNWwAF0VSRgCZELVvl-K49LgCqKwKhpy_Aku1ZzEfxc5PqsiYizOpJES8rTAhTg7JoY-9fNSFgzDJdjmFpDkuc7CVXR8OW9ZGh39C3jmnboNkM-qthK85BS2EYSB9CTjnSCHgvfKMeDfzMvIhaQTUttCxKyHuXOea3yyHB5t4qMszQKk-5qo3fM-g-C-JkN6aijaVvTn-FMuRThVolalSy1c-oLPgBqMIQqYARSUXa-6-A1xbqlap8r0qPw-H-0000]--></g></svg>