<svg xmlns="http://www.w3.org/2000/svg" xmlns:xlink="http://www.w3.org/1999/xlink" contentStyleType="text/css" data-diagram-type="STATE" height="549px" preserveAspectRatio="none" style="width:375px;height:549px;background:#FFFFFF;" version="1.1" viewBox="0 0 375 549" width="375px" zoomAndPan="magnify"><title>Diagrama de Estados</title><defs/><g><g class="title" data-source-line="1"><text fill="#000000" font-family="sans-serif" font-size="14" font-weight="bold" lengthAdjust="spacing" textLength="167.5488" x="96.8209" y="22.9951">Diagrama de Estados</text></g><ellipse cx="184.97" cy="53.2969" fill="#222222" rx="10" ry="10" style="stroke:#222222;stroke-width:1;"/><g id="EligiendoOperacion"><rect fill="#F1F1F1" height="50" rx="12.5" ry="12.5" style="stroke:#181818;stroke-width:0.5;" width="156.2197" x="106.86" y="140.2969"/><line style="stroke:#181818;stroke-width:0.5;" x1="106.86" x2="263.0797" y1="166.5938" y2="166.5938"/><text fill="#000000" font-family="sans-serif" font-size="14" lengthAdjust="spacing" textLength="136.2197" x="116.86" y="158.292">EligiendoOperacion</text></g><g id="EscribiendoPar&#225;metros"><rect fill="#F1F1F1" height="50" rx="12.5" ry="12.5" style="stroke:#181818;stroke-width:0.5;" width="181.9092" x="13.02" y="267.2969"/><line style="stroke:#181818;stroke-width:0.5;" x1="13.02" x2="194.9292" y1="293.5938" y2="293.5938"/><text fill="#000000" font-family="sans-serif" font-size="14" lengthAdjust="spacing" textLength="161.9092" x="23.02" y="285.292">EscribiendoPar&#225;metros</text></g><g id="Resultado"><rect fill="#F1F1F1" height="50" rx="12.5" ry="12.5" style="stroke:#181818;stroke-width:0.5;" width="89.918" x="68.02" y="394.2969"/><line style="stroke:#181818;stroke-width:0.5;" x1="68.02" x2="157.938" y1="420.5938" y2="420.5938"/><text fill="#000000" font-family="sans-serif" font-size="14" lengthAdjust="spacing" textLength="69.918" x="78.02" y="412.292">Resultado</text></g><ellipse cx="112.97" cy="532.2969" fill="none" rx="11" ry="11" style="stroke:#222222;stroke-width:1;"/><ellipse cx="112.97" cy="532.2969" fill="#222222" rx="6" ry="6" style="stroke:#222222;stroke-width:1;"/><!--link *start* to EligiendoOperacion--><g class="link" data-entity-1="*start*" data-entity-2="EligiendoOperacion" data-source-line="3" data-uid="lnk4" id="link_*start*_EligiendoOperacion"><path d="M184.97,63.6769 C184.97,80.4069 184.97,109.8869 184.97,133.9269" fill="none" id="*start*-to-EligiendoOperacion" style="stroke:#181818;stroke-width:1;"/><polygon fill="#181818" points="184.97,139.9269,188.97,130.9269,184.97,134.9269,180.97,130.9269,184.97,139.9269" style="stroke:#181818;stroke-width:1;"/><text fill="#000000" font-family="sans-serif" font-size="13" lengthAdjust="spacing" textLength="64.6826" x="185.97" y="106.3638">Abrir Web</text></g><!--link EligiendoOperacion to EscribiendoPar?metros--><g class="link" data-entity-1="EligiendoOperacion" data-entity-2="EscribiendoPar&#225;metros" data-source-line="4" data-uid="lnk6" id="link_EligiendoOperacion_EscribiendoPar&#225;metros"><path d="M169.16,190.6969 C154.89,212.7169 137.2635,239.922 123.0035,261.922" fill="none" id="EligiendoOperacion-to-EscribiendoPar&#225;metros" style="stroke:#181818;stroke-width:1;"/><polygon fill="#181818" points="119.74,266.9569,127.9918,261.5803,122.4596,262.7612,121.2787,257.229,119.74,266.9569" style="stroke:#181818;stroke-width:1;"/><text fill="#000000" font-family="sans-serif" font-size="13" lengthAdjust="spacing" textLength="39.0508" x="150.97" y="233.3638">Indica</text></g><!--link EscribiendoPar?metros to Resultado--><g class="link" data-entity-1="EscribiendoPar&#225;metros" data-entity-2="Resultado" data-source-line="5" data-uid="lnk8" id="link_EscribiendoPar&#225;metros_Resultado"><path d="M41.62,317.6869 C21.09,329.6469 6,345.5369 16.97,364.2969 C28.03,383.1969 42.9027,393.5929 62.0427,401.9629" fill="none" id="EscribiendoPar&#225;metros-to-Resultado" style="stroke:#181818;stroke-width:1;"/><polygon fill="#181818" points="67.54,404.3669,60.8967,397.096,62.9589,402.3635,57.6913,404.4258,67.54,404.3669" style="stroke:#181818;stroke-width:1;"/><text fill="#000000" font-family="sans-serif" font-size="13" lengthAdjust="spacing" textLength="51.4287" x="17.97" y="360.3638">Obtiene</text></g><!--link Resultado to EscribiendoPar?metros--><g class="link" data-entity-1="Resultado" data-entity-2="EscribiendoPar&#225;metros" data-source-line="6" data-uid="lnk9" id="link_Resultado_EscribiendoPar&#225;metros"><path d="M111.22,393.9569 C109.64,371.9569 107.7521,345.7013 106.1621,323.6813" fill="none" id="Resultado-to-EscribiendoPar&#225;metros" style="stroke:#181818;stroke-width:1;"/><polygon fill="#181818" points="105.73,317.6969,102.3886,326.9616,106.0901,322.6839,110.3678,326.3854,105.73,317.6969" style="stroke:#181818;stroke-width:1;"/><text fill="#000000" font-family="sans-serif" font-size="13" lengthAdjust="spacing" textLength="127.8735" x="110.97" y="360.3638">Nuevos par&#225;metros</text></g><!--link Resultado to EligiendoOperacion--><g class="link" data-entity-1="Resultado" data-entity-2="EligiendoOperacion" data-source-line="7" data-uid="lnk10" id="link_Resultado_EligiendoOperacion"><path d="M158.12,412.4069 C187.67,405.9469 224.18,392.4469 242.97,364.2969 C279.86,309.0269 236.3727,234.7466 207.6727,195.3466" fill="none" id="Resultado-to-EligiendoOperacion" style="stroke:#181818;stroke-width:1;"/><polygon fill="#181818" points="204.14,190.4969,206.2059,200.1266,207.0839,194.5383,212.6722,195.4164,204.14,190.4969" style="stroke:#181818;stroke-width:1;"/><text fill="#000000" font-family="sans-serif" font-size="13" lengthAdjust="spacing" textLength="110.2207" x="256.97" y="296.8638">Nueva operaci&#243;n</text></g><!--link Resultado to *end*--><g class="link" data-entity-1="Resultado" data-entity-2="*end*" data-source-line="8" data-uid="lnk12" id="link_Resultado_*end*"><path d="M112.97,444.6569 C112.97,468.5269 112.97,497.7569 112.97,515.0069" fill="none" id="Resultado-to-*end*" style="stroke:#181818;stroke-width:1;"/><polygon fill="#181818" points="112.97,521.0069,116.97,512.0069,112.97,516.0069,108.97,512.0069,112.97,521.0069" style="stroke:#181818;stroke-width:1;"/><text fill="#000000" font-family="sans-serif" font-size="13" lengthAdjust="spacing" textLength="74.312" x="113.97" y="487.3638">Cerrar Web</text></g><!--SRC=[VP0n3i8m34NtdC8pKY_G0Gb11nQAM3eW1YUnAajjKZafz-4C7A4N8ob3fQgmMV__P_axSkm8JeojO8zW2QeGqVe0Ijrt3oYAFLGTjqpE-deWGSFUGGa7BIpGa5ORzam58wnduueolNgAajQMS7QM3QeVVaPl5COkNv7IjOufGshH_Yw_ZFHCmx28QtAhJAOG_5UPtcx5v4UKS2GHd2j_0000]--></g></svg>