<svg xmlns="http://www.w3.org/2000/svg" xmlns:xlink="http://www.w3.org/1999/xlink" contentStyleType="text/css" data-diagram-type="CLASS" height="892px" preserveAspectRatio="none" style="width:904px;height:892px;background:#FFFFFF;" version="1.1" viewBox="0 0 904 892" width="904px" zoomAndPan="magnify"><title>Diagrama de Clases Librer&#237;a Numath + API</title><defs/><g><g class="title" data-source-line="1"><text fill="#000000" font-family="sans-serif" font-size="14" font-weight="bold" lengthAdjust="spacing" textLength="337.4219" x="276.4053" y="22.9951">Diagrama de Clases Librer&#237;a Numath + API</text></g><!--cluster API--><g class="cluster" data-entity="API" data-source-line="5" data-uid="ent0002" id="cluster_API"><path d="M8.5,51.4469 L35.8047,51.4469 A3.75,3.75 0 0 1 38.3047,53.9469 L45.3047,73.7438 L251.5,73.7438 A2.5,2.5 0 0 1 254,76.2438 L254,427.7669 A2.5,2.5 0 0 1 251.5,430.2669 L8.5,430.2669 A2.5,2.5 0 0 1 6,427.7669 L6,53.9469 A2.5,2.5 0 0 1 8.5,51.4469" fill="none" style="stroke:#000000;stroke-width:1.5;"/><line style="stroke:#000000;stroke-width:1.5;" x1="6" x2="45.3047" y1="73.7438" y2="73.7438"/><text fill="#000000" font-family="sans-serif" font-size="14" font-weight="bold" lengthAdjust="spacing" textLength="26.3047" x="10" y="66.442">API</text></g><!--cluster Librer?a: numath-Libary--><g class="cluster" data-entity="Librer&#237;a: numath-Libary" data-source-line="24" data-uid="ent0005" id="cluster_Librer&#237;a: numath-Libary"><path d="M280.5,43.2969 L468.9209,43.2969 A3.75,3.75 0 0 1 471.4209,45.7969 L478.4209,65.5938 L821.5,65.5938 A2.5,2.5 0 0 1 824,68.0938 L824,882.7369 A2.5,2.5 0 0 1 821.5,885.2369 L280.5,885.2369 A2.5,2.5 0 0 1 278,882.7369 L278,45.7969 A2.5,2.5 0 0 1 280.5,43.2969" fill="none" style="stroke:#000000;stroke-width:1.5;"/><line style="stroke:#000000;stroke-width:1.5;" x1="278" x2="478.4209" y1="65.5938" y2="65.5938"/><text fill="#000000" font-family="sans-serif" font-size="14" font-weight="bold" lengthAdjust="spacing" textLength="187.4209" x="282" y="58.292">Librer&#237;a: numath-Libary</text></g><!--cluster numath--><g class="cluster" data-entity="numath" data-source-line="25" data-uid="ent0006" id="cluster_numath"><path d="M312.5,258.0769 L374.1279,258.0769 A3.75,3.75 0 0 1 376.6279,260.5769 L383.6279,280.3738 L789.5,280.3738 A2.5,2.5 0 0 1 792,282.8738 L792,850.7369 A2.5,2.5 0 0 1 789.5,853.2369 L312.5,853.2369 A2.5,2.5 0 0 1 310,850.7369 L310,260.5769 A2.5,2.5 0 0 1 312.5,258.0769" fill="none" style="stroke:#000000;stroke-width:1.5;"/><line style="stroke:#000000;stroke-width:1.5;" x1="310" x2="383.6279" y1="280.3738" y2="280.3738"/><text fill="#000000" font-family="sans-serif" font-size="14" font-weight="bold" lengthAdjust="spacing" textLength="60.6279" x="314" y="273.072">numath</text></g><!--class __init__--><g class="entity" data-entity="__init__" data-source-line="6" data-uid="ent0003" id="entity___init__"><rect fill="#F1F1F1" height="64.2969" rx="2.5" ry="2.5" style="stroke:#181818;stroke-width:0.5;" width="164.5645" x="21.72" y="86.4469"/><ellipse cx="74.6814" cy="102.4469" fill="#ADD1B2" rx="11" ry="11" style="stroke:#181818;stroke-width:1;"/><path d="M77.6502,108.0875 Q77.0721,108.3844 76.4314,108.525 Q75.7908,108.6813 75.0877,108.6813 Q72.5877,108.6813 71.2596,107.0406 Q69.9471,105.3844 69.9471,102.2594 Q69.9471,99.1344 71.2596,97.4781 Q72.5877,95.8219 75.0877,95.8219 Q75.7908,95.8219 76.4314,95.9781 Q77.0877,96.1344 77.6502,96.4313 L77.6502,99.15 Q77.0252,98.5719 76.4314,98.3063 Q75.8377,98.025 75.2127,98.025 Q73.8689,98.025 73.1814,99.1031 Q72.4939,100.1656 72.4939,102.2594 Q72.4939,104.3531 73.1814,105.4313 Q73.8689,106.4938 75.2127,106.4938 Q75.8377,106.4938 76.4314,106.2281 Q77.0252,105.9469 77.6502,105.3688 L77.6502,108.0875 Z " fill="#000000"/><text fill="#000000" font-family="sans-serif" font-size="14" lengthAdjust="spacing" textLength="50.1416" x="95.1814" y="107.2936">__init__</text><line style="stroke:#181818;stroke-width:0.5;" x1="22.72" x2="185.2845" y1="118.4469" y2="118.4469"/><line style="stroke:#181818;stroke-width:0.5;" x1="22.72" x2="185.2845" y1="126.4469" y2="126.4469"/><ellipse cx="32.72" cy="140.0953" fill="#84BE84" rx="3" ry="3" style="stroke:#038048;stroke-width:1;"/><text fill="#000000" font-family="sans-serif" font-size="14" lengthAdjust="spacing" textLength="138.5645" x="41.72" y="143.442">create_app() : Flask</text></g><!--class operaciones--><g class="entity" data-entity="operaciones" data-source-line="11" data-uid="ent0004" id="entity_operaciones"><rect fill="#F1F1F1" height="178.375" rx="2.5" ry="2.5" style="stroke:#181818;stroke-width:0.5;" width="201.7588" x="29.12" y="235.8969"/><ellipse cx="83.0829" cy="251.8969" fill="#ADD1B2" rx="11" ry="11" style="stroke:#181818;stroke-width:1;"/><path d="M86.0516,257.5375 Q85.4735,257.8344 84.8329,257.975 Q84.1923,258.1313 83.4891,258.1313 Q80.9891,258.1313 79.661,256.4906 Q78.3485,254.8344 78.3485,251.7094 Q78.3485,248.5844 79.661,246.9281 Q80.9891,245.2719 83.4891,245.2719 Q84.1923,245.2719 84.8329,245.4281 Q85.4891,245.5844 86.0516,245.8813 L86.0516,248.6 Q85.4266,248.0219 84.8329,247.7563 Q84.2391,247.475 83.6141,247.475 Q82.2704,247.475 81.5829,248.5531 Q80.8954,249.6156 80.8954,251.7094 Q80.8954,253.8031 81.5829,254.8813 Q82.2704,255.9438 83.6141,255.9438 Q84.2391,255.9438 84.8329,255.6781 Q85.4266,255.3969 86.0516,254.8188 L86.0516,257.5375 Z " fill="#000000"/><text fill="#000000" font-family="sans-serif" font-size="14" lengthAdjust="spacing" textLength="85.333" x="103.5829" y="256.7436">operaciones</text><line style="stroke:#181818;stroke-width:0.5;" x1="30.12" x2="229.8788" y1="267.8969" y2="267.8969"/><line style="stroke:#181818;stroke-width:0.5;" x1="30.12" x2="229.8788" y1="275.8969" y2="275.8969"/><ellipse cx="40.12" cy="289.5453" fill="#84BE84" rx="3" ry="3" style="stroke:#038048;stroke-width:1;"/><text fill="#000000" font-family="sans-serif" font-size="14" lengthAdjust="spacing" textLength="143.1992" x="49.12" y="292.892">bisection_endpoint()</text><ellipse cx="40.12" cy="305.8422" fill="#84BE84" rx="3" ry="3" style="stroke:#038048;stroke-width:1;"/><text fill="#000000" font-family="sans-serif" font-size="14" lengthAdjust="spacing" textLength="157.3086" x="49.12" y="309.1889">fixed_point_endpoint()</text><ellipse cx="40.12" cy="322.1391" fill="#84BE84" rx="3" ry="3" style="stroke:#038048;stroke-width:1;"/><text fill="#000000" font-family="sans-serif" font-size="14" lengthAdjust="spacing" textLength="131.8652" x="49.12" y="325.4857">newton_endpoint()</text><ellipse cx="40.12" cy="338.4359" fill="#84BE84" rx="3" ry="3" style="stroke:#038048;stroke-width:1;"/><text fill="#000000" font-family="sans-serif" font-size="14" lengthAdjust="spacing" textLength="126.5469" x="49.12" y="341.7826">secant_endpoint()</text><ellipse cx="40.12" cy="354.7328" fill="#84BE84" rx="3" ry="3" style="stroke:#038048;stroke-width:1;"/><text fill="#000000" font-family="sans-serif" font-size="14" lengthAdjust="spacing" textLength="175.7588" x="49.12" y="358.0795">false_position_endpoint()</text><ellipse cx="40.12" cy="371.0297" fill="#84BE84" rx="3" ry="3" style="stroke:#038048;stroke-width:1;"/><text fill="#000000" font-family="sans-serif" font-size="14" lengthAdjust="spacing" textLength="153.5215" x="49.12" y="374.3764">steffensen_endpoint()</text><ellipse cx="40.12" cy="387.3266" fill="#84BE84" rx="3" ry="3" style="stroke:#038048;stroke-width:1;"/><text fill="#000000" font-family="sans-serif" font-size="14" lengthAdjust="spacing" textLength="118.4258" x="49.12" y="390.6732">horner_method()</text><ellipse cx="40.12" cy="403.6234" fill="#84BE84" rx="3" ry="3" style="stroke:#038048;stroke-width:1;"/><text fill="#000000" font-family="sans-serif" font-size="14" lengthAdjust="spacing" textLength="124.6602" x="49.12" y="406.9701">muller_endpoint()</text></g><!--class setup--><g class="entity" data-entity="setup" data-source-line="51" data-uid="ent0010" id="entity_setup"><rect fill="#F1F1F1" height="80.5938" rx="2.5" ry="2.5" style="stroke:#181818;stroke-width:0.5;" width="238.3721" x="546.81" y="78.2969"/><ellipse cx="642.1679" cy="94.2969" fill="#ADD1B2" rx="11" ry="11" style="stroke:#181818;stroke-width:1;"/><path d="M645.1367,99.9375 Q644.5585,100.2344 643.9179,100.375 Q643.2773,100.5313 642.5742,100.5313 Q640.0742,100.5313 638.746,98.8906 Q637.4335,97.2344 637.4335,94.1094 Q637.4335,90.9844 638.746,89.3281 Q640.0742,87.6719 642.5742,87.6719 Q643.2773,87.6719 643.9179,87.8281 Q644.5742,87.9844 645.1367,88.2813 L645.1367,91 Q644.5117,90.4219 643.9179,90.1563 Q643.3242,89.875 642.6992,89.875 Q641.3554,89.875 640.6679,90.9531 Q639.9804,92.0156 639.9804,94.1094 Q639.9804,96.2031 640.6679,97.2813 Q641.3554,98.3438 642.6992,98.3438 Q643.3242,98.3438 643.9179,98.0781 Q644.5117,97.7969 645.1367,97.2188 L645.1367,99.9375 Z " fill="#000000"/><text fill="#000000" font-family="sans-serif" font-size="14" lengthAdjust="spacing" textLength="39.1563" x="662.6679" y="99.1436">setup</text><line style="stroke:#181818;stroke-width:0.5;" x1="547.81" x2="784.1821" y1="110.2969" y2="110.2969"/><line style="stroke:#181818;stroke-width:0.5;" x1="547.81" x2="784.1821" y1="118.2969" y2="118.2969"/><ellipse cx="557.81" cy="131.9453" fill="#84BE84" rx="3" ry="3" style="stroke:#038048;stroke-width:1;"/><text fill="#000000" font-family="sans-serif" font-size="14" lengthAdjust="spacing" textLength="212.3721" x="566.81" y="135.292">parse_requirements(filename)</text><ellipse cx="557.81" cy="148.2422" fill="#84BE84" rx="3" ry="3" style="stroke:#038048;stroke-width:1;"/><text fill="#000000" font-family="sans-serif" font-size="14" lengthAdjust="spacing" textLength="50.0801" x="566.81" y="151.5889">setup()</text></g><!--class init--><g class="entity" data-entity="init" data-source-line="28" data-uid="ent0007" id="entity_init"><rect fill="#F1F1F1" height="48" rx="2.5" ry="2.5" style="stroke:#181818;stroke-width:0.5;" width="54.1416" x="477.93" y="301.0769"/><ellipse cx="492.93" cy="317.0769" fill="#ADD1B2" rx="11" ry="11" style="stroke:#181818;stroke-width:1;"/><path d="M495.8988,322.7175 Q495.3206,323.0144 494.68,323.155 Q494.0394,323.3113 493.3363,323.3113 Q490.8363,323.3113 489.5081,321.6706 Q488.1956,320.0144 488.1956,316.8894 Q488.1956,313.7644 489.5081,312.1081 Q490.8363,310.4519 493.3363,310.4519 Q494.0394,310.4519 494.68,310.6081 Q495.3363,310.7644 495.8988,311.0613 L495.8988,313.78 Q495.2738,313.2019 494.68,312.9363 Q494.0863,312.655 493.4613,312.655 Q492.1175,312.655 491.43,313.7331 Q490.7425,314.7956 490.7425,316.8894 Q490.7425,318.9831 491.43,320.0613 Q492.1175,321.1238 493.4613,321.1238 Q494.0863,321.1238 494.68,320.8581 Q495.2738,320.5769 495.8988,319.9988 L495.8988,322.7175 Z " fill="#000000"/><text fill="#000000" font-family="sans-serif" font-size="14" lengthAdjust="spacing" textLength="22.1416" x="506.93" y="321.9236">init</text><line style="stroke:#181818;stroke-width:0.5;" x1="478.93" x2="531.0716" y1="333.0769" y2="333.0769"/><line style="stroke:#181818;stroke-width:0.5;" x1="478.93" x2="531.0716" y1="341.0769" y2="341.0769"/></g><!--class ecuaciones_una_variable--><g class="entity" data-entity="ecuaciones_una_variable" data-source-line="32" data-uid="ent0008" id="entity_ecuaciones_una_variable"><rect fill="#F1F1F1" height="178.375" rx="2.5" ry="2.5" style="stroke:#181818;stroke-width:0.5;" width="342.7158" x="333.64" y="493.2669"/><ellipse cx="412.9984" cy="509.2669" fill="#ADD1B2" rx="11" ry="11" style="stroke:#181818;stroke-width:1;"/><path d="M415.9671,514.9075 Q415.389,515.2044 414.7484,515.345 Q414.1078,515.5013 413.4046,515.5013 Q410.9046,515.5013 409.5765,513.8606 Q408.264,512.2044 408.264,509.0794 Q408.264,505.9544 409.5765,504.2981 Q410.9046,502.6419 413.4046,502.6419 Q414.1078,502.6419 414.7484,502.7981 Q415.4046,502.9544 415.9671,503.2513 L415.9671,505.97 Q415.3421,505.3919 414.7484,505.1263 Q414.1546,504.845 413.5296,504.845 Q412.1859,504.845 411.4984,505.9231 Q410.8109,506.9856 410.8109,509.0794 Q410.8109,511.1731 411.4984,512.2513 Q412.1859,513.3138 413.5296,513.3138 Q414.1546,513.3138 414.7484,513.0481 Q415.3421,512.7669 415.9671,512.1888 L415.9671,514.9075 Z " fill="#000000"/><text fill="#000000" font-family="sans-serif" font-size="14" lengthAdjust="spacing" textLength="175.499" x="433.4984" y="514.1136">ecuaciones_una_variable</text><line style="stroke:#181818;stroke-width:0.5;" x1="334.64" x2="675.3558" y1="525.2669" y2="525.2669"/><line style="stroke:#181818;stroke-width:0.5;" x1="334.64" x2="675.3558" y1="533.2669" y2="533.2669"/><ellipse cx="344.64" cy="546.9153" fill="#84BE84" rx="3" ry="3" style="stroke:#038048;stroke-width:1;"/><text fill="#000000" font-family="sans-serif" font-size="14" lengthAdjust="spacing" textLength="225.6406" x="353.64" y="550.262">bisection(funcion, a, b, TOL, N0)</text><ellipse cx="344.64" cy="563.2122" fill="#84BE84" rx="3" ry="3" style="stroke:#038048;stroke-width:1;"/><text fill="#000000" font-family="sans-serif" font-size="14" lengthAdjust="spacing" textLength="297.3223" x="353.64" y="566.5589">fixed_point_iteration(funcion, p0, TOL, N0)</text><ellipse cx="344.64" cy="579.5091" fill="#84BE84" rx="3" ry="3" style="stroke:#038048;stroke-width:1;"/><text fill="#000000" font-family="sans-serif" font-size="14" lengthAdjust="spacing" textLength="316.7158" x="353.64" y="582.8557">newton_method(funcion, p0, TOL, N0, factor)</text><ellipse cx="344.64" cy="595.8059" fill="#84BE84" rx="3" ry="3" style="stroke:#038048;stroke-width:1;"/><text fill="#000000" font-family="sans-serif" font-size="14" lengthAdjust="spacing" textLength="288.1758" x="353.64" y="599.1526">secant_method(funcion, p0, p1, TOL, N0)</text><ellipse cx="344.64" cy="612.1028" fill="#84BE84" rx="3" ry="3" style="stroke:#038048;stroke-width:1;"/><text fill="#000000" font-family="sans-serif" font-size="14" lengthAdjust="spacing" textLength="276.3223" x="353.64" y="615.4495">false_position(funcion, p0, p1, TOL, N0)</text><ellipse cx="344.64" cy="628.3997" fill="#84BE84" rx="3" ry="3" style="stroke:#038048;stroke-width:1;"/><text fill="#000000" font-family="sans-serif" font-size="14" lengthAdjust="spacing" textLength="288.4561" x="353.64" y="631.7464">steffensen_method(funcion, p0, TOL, N0)</text><ellipse cx="344.64" cy="644.6966" fill="#84BE84" rx="3" ry="3" style="stroke:#038048;stroke-width:1;"/><text fill="#000000" font-family="sans-serif" font-size="14" lengthAdjust="spacing" textLength="153.0977" x="353.64" y="648.0432">horner_method(a, x0)</text><ellipse cx="344.64" cy="660.9934" fill="#84BE84" rx="3" ry="3" style="stroke:#038048;stroke-width:1;"/><text fill="#000000" font-family="sans-serif" font-size="14" lengthAdjust="spacing" textLength="312.9834" x="353.64" y="664.3401">muller_method(funcion, p0, p1, p2, TOL, N0)</text></g><!--class transformacion--><g class="entity" data-entity="transformacion" data-source-line="44" data-uid="ent0009" id="entity_transformacion"><rect fill="#F1F1F1" height="80.5938" rx="2.5" ry="2.5" style="stroke:#181818;stroke-width:0.5;" width="336.8232" x="333.59" y="748.6469"/><ellipse cx="444.5099" cy="764.6469" fill="#ADD1B2" rx="11" ry="11" style="stroke:#181818;stroke-width:1;"/><path d="M447.4787,770.2875 Q446.9005,770.5844 446.2599,770.725 Q445.6193,770.8813 444.9162,770.8813 Q442.4162,770.8813 441.088,769.2406 Q439.7755,767.5844 439.7755,764.4594 Q439.7755,761.3344 441.088,759.6781 Q442.4162,758.0219 444.9162,758.0219 Q445.6193,758.0219 446.2599,758.1781 Q446.9162,758.3344 447.4787,758.6313 L447.4787,761.35 Q446.8537,760.7719 446.2599,760.5063 Q445.6662,760.225 445.0412,760.225 Q443.6974,760.225 443.0099,761.3031 Q442.3224,762.3656 442.3224,764.4594 Q442.3224,766.5531 443.0099,767.6313 Q443.6974,768.6938 445.0412,768.6938 Q445.6662,768.6938 446.2599,768.4281 Q446.8537,768.1469 447.4787,767.5688 L447.4787,770.2875 Z " fill="#000000"/><text fill="#000000" font-family="sans-serif" font-size="14" lengthAdjust="spacing" textLength="106.4834" x="465.0099" y="769.4936">transformacion</text><line style="stroke:#181818;stroke-width:0.5;" x1="334.59" x2="669.4132" y1="780.6469" y2="780.6469"/><line style="stroke:#181818;stroke-width:0.5;" x1="334.59" x2="669.4132" y1="788.6469" y2="788.6469"/><ellipse cx="344.59" cy="802.2953" fill="#84BE84" rx="3" ry="3" style="stroke:#038048;stroke-width:1;"/><text fill="#000000" font-family="sans-serif" font-size="14" lengthAdjust="spacing" textLength="310.8232" x="353.59" y="805.642">reemplazar_funciones(funcion_entrada) : str</text><ellipse cx="344.59" cy="818.5922" fill="#84BE84" rx="3" ry="3" style="stroke:#038048;stroke-width:1;"/><text fill="#000000" font-family="sans-serif" font-size="14" lengthAdjust="spacing" textLength="287.1436" x="353.59" y="821.9389">crear_funcion(funcion_entrada) : callable</text></g><!--link init to ecuaciones_una_variable--><g class="link" data-entity-1="init" data-entity-2="ecuaciones_una_variable" data-source-line="61" data-uid="lnk11" id="link_init_ecuaciones_una_variable"><path codeLine="61" d="M505,349.1969 C505,381.4869 505,435.8869 505,486.9969" fill="none" id="init-to-ecuaciones_una_variable" style="stroke:#181818;stroke-width:1;"/><polygon fill="#181818" points="505,492.9969,509,483.9969,505,487.9969,501,483.9969,505,492.9969" style="stroke:#181818;stroke-width:1;"/><text fill="#000000" font-family="sans-serif" font-size="13" lengthAdjust="spacing" textLength="122.0083" x="506" y="459.3338">Inicializa la librer&#237;a</text></g><!--link ecuaciones_una_variable to transformacion--><g class="link" data-entity-1="ecuaciones_una_variable" data-entity-2="transformacion" data-source-line="62" data-uid="lnk12" id="link_ecuaciones_una_variable_transformacion"><path codeLine="62" d="M503.7,671.9569 C503.31,698.6169 502.9882,720.5475 502.6682,742.3175" fill="none" id="ecuaciones_una_variable-to-transformacion" style="stroke:#181818;stroke-width:1;"/><polygon fill="#181818" points="502.58,748.3169,506.7118,739.3766,502.6535,743.3174,498.7127,739.2591,502.58,748.3169" style="stroke:#181818;stroke-width:1;"/><text fill="#000000" font-family="sans-serif" font-size="13" lengthAdjust="spacing" textLength="389.0923" x="504" y="714.7138">Transforma la entrada de la funci&#243;n en una funci&#243;n callable</text></g><!--link setup to numath--><g class="link" data-entity-1="setup" data-entity-2="numath" data-source-line="65" data-uid="lnk13" id="link_setup_numath"><path codeLine="65" d="M716.53,159.2769 C738.7,179.6469 762.68,206.3869 776,235.8969 C777.9613,240.2406 779.5648,244.8255 780.8686,249.5293 C781.5205,251.8812 782.0975,254.2629 782.6067,256.6591 C782.6703,256.9586 782.7329,257.2583 782.7945,257.5583 C782.8253,257.7083 781.67,274.2735 781.7002,274.4236" fill="none" id="setup-to-numath" style="stroke:#181818;stroke-width:1;"/><polygon fill="#181818" points="782.886,280.3052,785.0284,270.6922,781.8979,275.4038,777.1862,272.2733,782.886,280.3052" style="stroke:#181818;stroke-width:1;"/><text fill="#000000" font-family="sans-serif" font-size="13" lengthAdjust="spacing" textLength="140.2324" x="756" y="201.9638">Empaqueta la librer&#237;a</text></g><!--link __init__ to operaciones--><g class="link" data-entity-1="__init__" data-entity-2="operaciones" data-source-line="68" data-uid="lnk14" id="link___init___operaciones"><path codeLine="68" d="M100.16,150.9369 C98.88,162.8069 97.63,176.4569 97,188.8969 C96.62,196.4369 95.97,198.4069 97,205.8969 C98.33,215.6069 98.9241,219.7852 101.1741,229.7152" fill="none" id="__init__-to-operaciones" style="stroke:#181818;stroke-width:1;"/><polygon fill="#181818" points="102.5,235.5669,104.4123,225.9054,101.3951,230.6905,96.61,227.6733,102.5,235.5669" style="stroke:#181818;stroke-width:1;"/><text fill="#000000" font-family="sans-serif" font-size="13" lengthAdjust="spacing" textLength="179.48" x="98" y="201.9638">Registra una solicitud POST</text></g><!--link operaciones to ecuaciones_una_variable--><g class="link" data-entity-1="operaciones" data-entity-2="ecuaciones_una_variable" data-source-line="71" data-uid="lnk15" id="link_operaciones_ecuaciones_una_variable"><path codeLine="71" d="M230.04,414.7469 C250.65,431.5769 272.61,448.5169 294,463.2669 C308.6,473.3369 319.0196,480.1794 334.7696,489.7994" fill="none" id="operaciones-to-ecuaciones_una_variable" style="stroke:#181818;stroke-width:1;"/><polygon fill="#181818" points="339.89,492.9269,334.2944,484.822,335.623,490.3206,330.1244,491.6492,339.89,492.9269" style="stroke:#181818;stroke-width:1;"/><text fill="#000000" font-family="sans-serif" font-size="13" lengthAdjust="spacing" textLength="201.9697" x="295" y="459.3338">LLama a m&#233;todos de la librer&#237;a</text></g><!--SRC=[XLRDJXmn3BxFKrXx0SIofJrog5JHLaAYW83xo3lZMI8oIKWo5AZsONhieQS-mhvOdMmcE_lNIY0nYUryzlVPnWil2JuBd5bi4Mg2SucE75oAgIMx-8rmrRNe7-0OFjrS5CK1V5lygJkfeIo54hui9-OLdZg2IYilI158XAPJbLZyKL1PGayb6dDuL1G6gqUS4Omur0X-500Ll-Pog7W4S3pqWZFuoaQFV3FdN_vPGT26B5P2At81HQqL9-28qsW40o49KzcHiK9vU0Mf7P2gZUPFbzyUnEYVdmf7bUUZiZTdyF6c4IzKb_5ewqxHTx_3XKFX3ki6fIEEvCJEXvodfY7bQFlgGLj5jcp9F-YwFsmxAVbmpNPUp0DVAoQ5SXubrWZFuTC8SmOgihjY9bltLoTyWlPr56gJhPPNImeZ8u4_fk0CBfIe14hnXa47ie-MonqCenjZ2uvKTQdwPQUmV4OhS2efnZfVASej9HLPCcWHgf16k_ZbTQrpy3t14gsGUJrCmSQ0OvYEuVxwSWnNfwcMC6HPU9R7keyvtV98t2TETbcEeS7AQzjx95diyZ3ljn6jgMM_EVJHL_Bv1wPilYufhibBVZa9QnzEys4DQoBLMrIkqRQDR4GkxxWTLOLs5eVCoi06cJ2PfEB5S7Q4Soa3WPdWzS1zlu8bQet4DxHbbacFbNk2lMeCWyHvcpp2XCd6kqm7JyzZJevyPyAKSJ6JBjeoM9P70ixP6VBOjnHtnZm3ZzuPBokOwRJqr0bBBKTYj49o2LfQwOCTKdSVX4venAopiQbI6ySYlJF8izSJ74O7hxLqawNlP38vIfpCUGpSaaozKGo-iEMX60PZ8we7ilp7pbnYrvwSVDpNOLomqPxE7nLxV4Au3Juvodq-2L4I8PlA80KSQR1b4bcZaDe6KRtaM26nL4l5PNXzXak20gOyt1ZDbzvf8wKmLlTikVWHuKMUs28-7tSOBo5BC-62SjQMKrnOejOXi_MbLkJT6B0DxXZTRHyhlEQqvFhxheQRwxlx9SJXmijlkEr7eFCY4ATsbMOvRpcfO66ZMAh5Jrdn0dR5S7l-Hn-Nb-4_Z3oqUwMjgleN]--></g></svg>