<svg xmlns="http://www.w3.org/2000/svg" xmlns:xlink="http://www.w3.org/1999/xlink" contentStyleType="text/css" data-diagram-type="DESCRIPTION" height="730px" preserveAspectRatio="none" style="width:364px;height:730px;background:#FFFFFF;" version="1.1" viewBox="0 0 364 730" width="364px" zoomAndPan="magnify"><title>Caso de Uso Ecuaciones de Una Variable</title><defs/><g><g class="title" data-source-line="1"><text fill="#000000" font-family="sans-serif" font-size="14" font-weight="bold" lengthAdjust="spacing" textLength="319.5869" x="15.5665" y="22.9951">Caso de Uso Ecuaciones de Una Variable</text></g><g class="cluster" data-entity="##3" data-source-line="7" data-uid="ent0004" id="cluster_##3"><rect fill="none" height="680" rx="2.5" ry="2.5" style="stroke:#181818;stroke-width:1;" width="247.52" x="111.2" y="44.2969"/></g><!--entity listarOper--><g class="entity" data-entity="listarOper" data-source-line="8" data-uid="ent0005" id="entity_listarOper"><ellipse cx="234.9565" cy="78.2982" fill="#F1F1F1" rx="80.1565" ry="18.4313" style="stroke:#181818;stroke-width:0.5;"/><text fill="#000000" font-family="sans-serif" font-size="14" lengthAdjust="spacing" textLength="131.0449" x="169.434" y="82.9466">Listar Operaciones</text></g><!--entity bisection--><g class="entity" data-entity="bisection" data-source-line="9" data-uid="ent0006" id="entity_bisection"><ellipse cx="234.9626" cy="152.2994" fill="#F1F1F1" rx="93.2626" ry="21.0525" style="stroke:#181818;stroke-width:0.5;"/><text fill="#000000" font-family="sans-serif" font-size="14" lengthAdjust="spacing" textLength="161.0889" x="154.4181" y="156.9478">Abrir M&#233;todo Bisecci&#243;n</text></g><!--entity fixedPoint--><g class="entity" data-entity="fixedPoint" data-source-line="10" data-uid="ent0007" id="entity_fixedPoint"><ellipse cx="234.9587" cy="229.2946" fill="#F1F1F1" rx="94.5887" ry="21.3177" style="stroke:#181818;stroke-width:0.5;"/><text fill="#000000" font-family="sans-serif" font-size="14" lengthAdjust="spacing" textLength="164.0557" x="152.9309" y="233.9431">Abrir M&#233;todo Punto Fijo</text></g><!--entity newton--><g class="entity" data-entity="newton" data-source-line="11" data-uid="ent0008" id="entity_newton"><ellipse cx="234.9622" cy="305.2993" fill="#F1F1F1" rx="87.6622" ry="19.9324" style="stroke:#181818;stroke-width:0.5;"/><text fill="#000000" font-family="sans-serif" font-size="14" lengthAdjust="spacing" textLength="148.4287" x="160.7479" y="309.9478">Abrir M&#233;todo Newton</text></g><!--entity secant--><g class="entity" data-entity="secant" data-source-line="12" data-uid="ent0009" id="entity_secant"><ellipse cx="234.957" cy="380.2983" fill="#F1F1F1" rx="89.107" ry="20.2214" style="stroke:#181818;stroke-width:0.5;"/><text fill="#000000" font-family="sans-serif" font-size="14" lengthAdjust="spacing" textLength="151.7168" x="159.0986" y="384.9467">Abrir M&#233;todo Secante</text></g><!--entity falsePosition--><g class="entity" data-entity="falsePosition" data-source-line="13" data-uid="ent0010" id="entity_falsePosition"><ellipse cx="234.9603" cy="459.2989" fill="#F1F1F1" rx="107.7603" ry="23.9521" style="stroke:#181818;stroke-width:0.5;"/><text fill="#000000" font-family="sans-serif" font-size="14" lengthAdjust="spacing" textLength="193.0264" x="138.4471" y="463.9474">Abrir M&#233;todo Falsa Posici&#243;n</text></g><!--entity steffensen--><g class="entity" data-entity="steffensen" data-source-line="14" data-uid="ent0011" id="entity_steffensen"><ellipse cx="234.9551" cy="540.2959" fill="#F1F1F1" rx="97.2951" ry="21.859" style="stroke:#181818;stroke-width:0.5;"/><text fill="#000000" font-family="sans-serif" font-size="14" lengthAdjust="spacing" textLength="170.0781" x="149.916" y="544.9443">Abrir M&#233;todo Steffensen</text></g><!--entity horner--><g class="entity" data-entity="horner" data-source-line="15" data-uid="ent0012" id="entity_horner"><ellipse cx="234.9574" cy="616.3004" fill="#F1F1F1" rx="85.3174" ry="19.4635" style="stroke:#181818;stroke-width:0.5;"/><text fill="#000000" font-family="sans-serif" font-size="14" lengthAdjust="spacing" textLength="143.0557" x="163.4296" y="620.9488">Abrir M&#233;todo Horner</text></g><!--entity m?ller--><g class="entity" data-entity="m&#252;ller" data-source-line="16" data-uid="ent0013" id="entity_m&#252;ller"><ellipse cx="234.9589" cy="689.2986" fill="#F1F1F1" rx="83.1589" ry="19.0318" style="stroke:#181818;stroke-width:0.5;"/><text fill="#000000" font-family="sans-serif" font-size="14" lengthAdjust="spacing" textLength="138.0654" x="165.9261" y="693.9471">Abrir M&#233;todo M&#252;ller</text></g><!--entity user--><g class="entity" data-entity="user" data-source-line="5" data-uid="ent0002" id="entity_user"><ellipse cx="32.6021" cy="350.6469" fill="#F1F1F1" rx="8" ry="8" style="stroke:#181818;stroke-width:0.5;"/><path d="M32.6021,358.6469 L32.6021,385.6469 M19.6021,366.6469 L45.6021,366.6469 M32.6021,385.6469 L19.6021,400.6469 M32.6021,385.6469 L45.6021,400.6469" fill="none" style="stroke:#181818;stroke-width:0.5;"/><text fill="#000000" font-family="sans-serif" font-size="14" lengthAdjust="spacing" textLength="53.2041" x="6" y="415.142">Usuario</text></g><!--link user to listarOper--><g class="link" data-entity-1="user" data-entity-2="listarOper" data-source-line="19" data-uid="lnk14" id="link_user_listarOper"><path d="M38.81,341.8669 C48.51,275.9869 71.26,145.4569 103.2,113.2969 C118.11,98.2969 132.8773,90.9647 153.3073,85.8847" fill="none" id="user-to-listarOper" style="stroke:#181818;stroke-width:1;"/><polygon fill="#181818" points="159.13,84.4369,149.4307,82.7268,154.2778,85.6434,151.3612,90.4904,159.13,84.4369" style="stroke:#181818;stroke-width:1;"/><text fill="#000000" font-family="sans-serif" font-size="13" lengthAdjust="spacing" textLength="4.1323" x="90.2" y="123.3638">&#160;</text></g><!--link user to bisection--><g class="link" data-entity-1="user" data-entity-2="bisection" data-source-line="20" data-uid="lnk15" id="link_user_bisection"><path d="M37.44,341.8869 C43.77,298.9969 60.33,230.3369 103.2,190.2969 C117.2,177.2269 129.6957,170.3927 148.0757,164.7327" fill="none" id="user-to-bisection" style="stroke:#181818;stroke-width:1;"/><polygon fill="#181818" points="153.81,162.9669,144.0314,161.7928,149.0314,164.4384,146.3858,169.4385,153.81,162.9669" style="stroke:#181818;stroke-width:1;"/><text fill="#000000" font-family="sans-serif" font-size="13" lengthAdjust="spacing" textLength="4.1323" x="90.2" y="198.3638">&#160;</text></g><!--link user to fixedPoint--><g class="link" data-entity-1="user" data-entity-2="fixedPoint" data-source-line="21" data-uid="lnk16" id="link_user_fixedPoint"><path d="M48.96,341.7269 C60.5,317.3969 78.55,287.1269 103.2,268.2969 C119.11,256.1469 133.0139,249.4937 152.2139,243.7237" fill="none" id="user-to-fixedPoint" style="stroke:#181818;stroke-width:1;"/><polygon fill="#181818" points="157.96,241.9969,148.1896,240.7564,153.1716,243.4359,150.492,248.4179,157.96,241.9969" style="stroke:#181818;stroke-width:1;"/><text fill="#000000" font-family="sans-serif" font-size="13" lengthAdjust="spacing" textLength="4.1323" x="90.2" y="271.3638">&#160;</text></g><!--link user to newton--><g class="link" data-entity-1="user" data-entity-2="newton" data-source-line="22" data-uid="lnk17" id="link_user_newton"><path d="M59.69,364.2369 C72.47,356.8469 88.29,348.3869 103.2,342.2969 C125.26,333.2869 144.4759,327.185 166.6759,321.215" fill="none" id="user-to-newton" style="stroke:#181818;stroke-width:1;"/><polygon fill="#181818" points="172.47,319.6569,162.74,318.1313,167.6415,320.9553,164.8175,325.8569,172.47,319.6569" style="stroke:#181818;stroke-width:1;"/><text fill="#000000" font-family="sans-serif" font-size="13" lengthAdjust="spacing" textLength="4.1323" x="90.2" y="343.3638">&#160;</text></g><!--link user to secant--><g class="link" data-entity-1="user" data-entity-2="secant" data-source-line="23" data-uid="lnk18" id="link_user_secant"><path d="M59.39,380.2969 C81.37,380.2969 108.3,380.2969 139.66,380.2969" fill="none" id="user-to-secant" style="stroke:#181818;stroke-width:1;"/><polygon fill="#181818" points="145.66,380.2969,136.66,376.2969,140.66,380.2969,136.66,384.2969,145.66,380.2969" style="stroke:#181818;stroke-width:1;"/><text fill="#000000" font-family="sans-serif" font-size="13" lengthAdjust="spacing" textLength="4.1323" x="90.2" y="376.3638">&#160;</text></g><!--link user to falsePosition--><g class="link" data-entity-1="user" data-entity-2="falsePosition" data-source-line="24" data-uid="lnk19" id="link_user_falsePosition"><path d="M59.44,395.9769 C72.3,403.3769 88.25,411.9469 103.2,418.2969 C123.02,426.7169 139.4384,432.5325 159.7884,438.8325" fill="none" id="user-to-falsePosition" style="stroke:#181818;stroke-width:1;"/><polygon fill="#181818" points="165.52,440.6069,158.1055,434.1242,160.7436,439.1282,155.7396,441.7663,165.52,440.6069" style="stroke:#181818;stroke-width:1;"/><text fill="#000000" font-family="sans-serif" font-size="13" lengthAdjust="spacing" textLength="4.1323" x="90.2" y="408.3638">&#160;</text></g><!--link user to steffensen--><g class="link" data-entity-1="user" data-entity-2="steffensen" data-source-line="25" data-uid="lnk20" id="link_user_steffensen"><path d="M47.14,418.6869 C58.33,445.1669 76.7,479.2569 103.2,500.2969 C118.64,512.5469 132.0845,519.2627 150.9445,525.1727" fill="none" id="user-to-steffensen" style="stroke:#181818;stroke-width:1;"/><polygon fill="#181818" points="156.67,526.9669,149.2779,520.4587,151.8988,525.4718,146.8857,528.0926,156.67,526.9669" style="stroke:#181818;stroke-width:1;"/><text fill="#000000" font-family="sans-serif" font-size="13" lengthAdjust="spacing" textLength="4.1323" x="90.2" y="484.3638">&#160;</text></g><!--link user to horner--><g class="link" data-entity-1="user" data-entity-2="horner" data-source-line="26" data-uid="lnk21" id="link_user_horner"><path d="M36.65,418.9369 C42.25,463.7569 58.16,536.9069 103.2,579.2969 C118.15,593.3669 132.2569,600.5481 152.0069,606.0081" fill="none" id="user-to-horner" style="stroke:#181818;stroke-width:1;"/><polygon fill="#181818" points="157.79,607.6069,150.1812,601.3533,152.9708,606.2746,148.0495,609.0641,157.79,607.6069" style="stroke:#181818;stroke-width:1;"/><text fill="#000000" font-family="sans-serif" font-size="13" lengthAdjust="spacing" textLength="4.1323" x="90.2" y="563.3638">&#160;</text></g><!--link user to m?ller--><g class="link" data-entity-1="user" data-entity-2="m&#252;ller" data-source-line="27" data-uid="lnk22" id="link_user_m&#252;ller"><path d="M38.61,418.7669 C48.08,485.8169 70.66,620.1269 103.2,653.2969 C117.63,668.0069 131.672,675.3233 151.542,680.6133" fill="none" id="user-to-m&#252;ller" style="stroke:#181818;stroke-width:1;"/><polygon fill="#181818" points="157.34,682.1569,149.672,675.9761,152.5083,680.8705,147.6139,683.7068,157.34,682.1569" style="stroke:#181818;stroke-width:1;"/><text fill="#000000" font-family="sans-serif" font-size="13" lengthAdjust="spacing" textLength="4.1323" x="90.2" y="631.3638">&#160;</text></g><!--SRC=[XP4zJiGm48LxdsAKVYz0WGI85GKBaLRGEyvaTv2naJqHI8W3KTFIvMBu9qhMMvWq7dzvJ-CtmyGQuKPw2pt2KpXkrIWLMOC-4IFXMJgIdKOXD0uCRC7HuSZGaqF5GIg4L6nTi8z1Qa5w63qw8U9_QGwX0tmA25_0Idg4vfuyImUFR-ZcRasqwOGZBULNdIC7k-cRRM_XcW9NDFsOPEhYDRsZucb74nw-fHURF0DzODzQCbmpFU0xszp4fB8ctWTg69FQfxgctahj9RJMqnfa20mZ-Y_Cdd4Oq7ZCFhzSQwOxwmowP3YciYRUJRzQp-hNN8il8U9QOREvF5dK1JJDofTTb7WTTydpL4kMPtVcFvtCcNm9N_ASiMHpaWZ_0000]--></g></svg>