<svg xmlns="http://www.w3.org/2000/svg" xmlns:xlink="http://www.w3.org/1999/xlink" contentStyleType="text/css" data-diagram-type="DESCRIPTION" height="659px" preserveAspectRatio="none" style="width:360px;height:659px;background:#FFFFFF;" version="1.1" viewBox="0 0 360 659" width="360px" zoomAndPan="magnify"><title>Caso de Uso Ecuaciones de Una Variable</title><defs/><g><g class="title" data-source-line="1"><text fill="#000000" font-family="sans-serif" font-size="14" font-weight="bold" lengthAdjust="spacing" textLength="319.5869" x="13.5365" y="22.9951">Caso de Uso Ecuaciones de Una Variable</text></g><g class="cluster" data-entity="##3" data-source-line="7" data-uid="ent0004" id="cluster_##3"><rect fill="none" height="609" rx="2.5" ry="2.5" style="stroke:#181818;stroke-width:1;" width="247.52" x="107.14" y="44.2969"/></g><!--entity bisection--><g class="entity" data-entity="bisection" data-source-line="8" data-uid="ent0005" id="entity_bisection"><ellipse cx="230.9026" cy="81.2994" fill="#F1F1F1" rx="93.2626" ry="21.0525" style="stroke:#181818;stroke-width:0.5;"/><text fill="#000000" font-family="sans-serif" font-size="14" lengthAdjust="spacing" textLength="161.0889" x="150.3581" y="85.9478">Abrir M&#233;todo Bisecci&#243;n</text></g><!--entity fixedPoint--><g class="entity" data-entity="fixedPoint" data-source-line="9" data-uid="ent0006" id="entity_fixedPoint"><ellipse cx="230.8987" cy="158.2946" fill="#F1F1F1" rx="94.5887" ry="21.3177" style="stroke:#181818;stroke-width:0.5;"/><text fill="#000000" font-family="sans-serif" font-size="14" lengthAdjust="spacing" textLength="164.0557" x="148.8709" y="162.9431">Abrir M&#233;todo Punto Fijo</text></g><!--entity newton--><g class="entity" data-entity="newton" data-source-line="10" data-uid="ent0007" id="entity_newton"><ellipse cx="230.9022" cy="234.2993" fill="#F1F1F1" rx="87.6622" ry="19.9324" style="stroke:#181818;stroke-width:0.5;"/><text fill="#000000" font-family="sans-serif" font-size="14" lengthAdjust="spacing" textLength="148.4287" x="156.6879" y="238.9478">Abrir M&#233;todo Newton</text></g><!--entity secant--><g class="entity" data-entity="secant" data-source-line="11" data-uid="ent0008" id="entity_secant"><ellipse cx="230.897" cy="309.2983" fill="#F1F1F1" rx="89.107" ry="20.2214" style="stroke:#181818;stroke-width:0.5;"/><text fill="#000000" font-family="sans-serif" font-size="14" lengthAdjust="spacing" textLength="151.7168" x="155.0386" y="313.9467">Abrir M&#233;todo Secante</text></g><!--entity falsePosition--><g class="entity" data-entity="falsePosition" data-source-line="12" data-uid="ent0009" id="entity_falsePosition"><ellipse cx="230.9003" cy="388.2989" fill="#F1F1F1" rx="107.7603" ry="23.9521" style="stroke:#181818;stroke-width:0.5;"/><text fill="#000000" font-family="sans-serif" font-size="14" lengthAdjust="spacing" textLength="193.0264" x="134.3871" y="392.9474">Abrir M&#233;todo Falsa Posici&#243;n</text></g><!--entity steffensen--><g class="entity" data-entity="steffensen" data-source-line="13" data-uid="ent0010" id="entity_steffensen"><ellipse cx="230.8951" cy="469.2959" fill="#F1F1F1" rx="97.2951" ry="21.859" style="stroke:#181818;stroke-width:0.5;"/><text fill="#000000" font-family="sans-serif" font-size="14" lengthAdjust="spacing" textLength="170.0781" x="145.856" y="473.9443">Abrir M&#233;todo Steffensen</text></g><!--entity horner--><g class="entity" data-entity="horner" data-source-line="14" data-uid="ent0011" id="entity_horner"><ellipse cx="230.8974" cy="545.3004" fill="#F1F1F1" rx="85.3174" ry="19.4635" style="stroke:#181818;stroke-width:0.5;"/><text fill="#000000" font-family="sans-serif" font-size="14" lengthAdjust="spacing" textLength="143.0557" x="159.3696" y="549.9488">Abrir M&#233;todo Horner</text></g><!--entity m?ller--><g class="entity" data-entity="m&#252;ller" data-source-line="15" data-uid="ent0012" id="entity_m&#252;ller"><ellipse cx="230.8989" cy="618.2986" fill="#F1F1F1" rx="83.1589" ry="19.0318" style="stroke:#181818;stroke-width:0.5;"/><text fill="#000000" font-family="sans-serif" font-size="14" lengthAdjust="spacing" textLength="138.0654" x="161.8661" y="622.9471">Abrir M&#233;todo M&#252;ller</text></g><!--entity user--><g class="entity" data-entity="user" data-source-line="5" data-uid="ent0002" id="entity_user"><ellipse cx="30.5718" cy="325.6469" fill="#F1F1F1" rx="8" ry="8" style="stroke:#181818;stroke-width:0.5;"/><path d="M30.5718,333.6469 L30.5718,360.6469 M17.5718,341.6469 L43.5718,341.6469 M30.5718,360.6469 L17.5718,375.6469 M30.5718,360.6469 L43.5718,375.6469" fill="none" style="stroke:#181818;stroke-width:0.5;"/><text fill="#000000" font-family="sans-serif" font-size="14" lengthAdjust="spacing" textLength="49.1436" x="6" y="390.142">Cliente</text></g><!--link user to bisection--><g class="link" data-entity-1="user" data-entity-2="bisection" data-source-line="18" data-uid="lnk13" id="link_user_bisection"><path d="M31.7,317.0169 C33.99,265.0969 45.91,172.7469 99.14,119.2969 C112.49,105.8969 124.5332,98.9469 142.6732,93.2769" fill="none" id="user-to-bisection" style="stroke:#181818;stroke-width:1;"/><polygon fill="#181818" points="148.4,91.4869,138.6165,90.354,143.6277,92.9785,141.0032,97.9897,148.4,91.4869" style="stroke:#181818;stroke-width:1;"/><text fill="#000000" font-family="sans-serif" font-size="13" lengthAdjust="spacing" textLength="4.1323" x="86.14" y="125.3638">&#160;</text></g><!--link user to fixedPoint--><g class="link" data-entity-1="user" data-entity-2="fixedPoint" data-source-line="19" data-uid="lnk14" id="link_user_fixedPoint"><path d="M38.39,316.6769 C46.69,280.8369 64.19,228.4669 99.14,197.2969 C113.64,184.3669 126.5397,177.4957 145.1597,171.7157" fill="none" id="user-to-fixedPoint" style="stroke:#181818;stroke-width:1;"/><polygon fill="#181818" points="150.89,169.9369,141.1087,168.7849,146.1148,171.4192,143.4805,176.4252,150.89,169.9369" style="stroke:#181818;stroke-width:1;"/><text fill="#000000" font-family="sans-serif" font-size="13" lengthAdjust="spacing" textLength="4.1323" x="86.14" y="203.3638">&#160;</text></g><!--link user to newton--><g class="link" data-entity-1="user" data-entity-2="newton" data-source-line="20" data-uid="lnk15" id="link_user_newton"><path d="M54.76,316.8769 C66.27,300.6969 81.51,282.9669 99.14,271.2969 C116.95,259.5169 132.7177,253.0019 153.1477,247.4819" fill="none" id="user-to-newton" style="stroke:#181818;stroke-width:1;"/><polygon fill="#181818" points="158.94,245.9169,149.2082,244.4029,154.1131,247.2211,151.2949,252.1259,158.94,245.9169" style="stroke:#181818;stroke-width:1;"/><text fill="#000000" font-family="sans-serif" font-size="13" lengthAdjust="spacing" textLength="4.1323" x="86.14" y="274.3638">&#160;</text></g><!--link user to secant--><g class="link" data-entity-1="user" data-entity-2="secant" data-source-line="21" data-uid="lnk16" id="link_user_secant"><path d="M55.5,349.7469 C83,343.3669 123.405,333.9919 161.365,325.1919" fill="none" id="user-to-secant" style="stroke:#181818;stroke-width:1;"/><polygon fill="#181818" points="167.21,323.8369,157.5392,321.9727,162.3392,324.966,159.3458,329.766,167.21,323.8369" style="stroke:#181818;stroke-width:1;"/><text fill="#000000" font-family="sans-serif" font-size="13" lengthAdjust="spacing" textLength="4.1323" x="86.14" y="338.3638">&#160;</text></g><!--link user to falsePosition--><g class="link" data-entity-1="user" data-entity-2="falsePosition" data-source-line="22" data-uid="lnk17" id="link_user_falsePosition"><path d="M55.42,365.7569 C64.55,369.3469 75.17,373.0269 85.14,375.2969 C98.31,378.2869 106.3387,379.8342 120.2287,381.6142" fill="none" id="user-to-falsePosition" style="stroke:#181818;stroke-width:1;"/><polygon fill="#181818" points="126.18,382.3769,117.7614,377.2653,121.2206,381.7413,116.7446,385.2004,126.18,382.3769" style="stroke:#181818;stroke-width:1;"/><text fill="#000000" font-family="sans-serif" font-size="13" lengthAdjust="spacing" textLength="4.1323" x="86.14" y="371.3638">&#160;</text></g><!--link user to steffensen--><g class="link" data-entity-1="user" data-entity-2="steffensen" data-source-line="23" data-uid="lnk18" id="link_user_steffensen"><path d="M55.41,388.5569 C67.15,402.8669 82.38,418.6969 99.14,429.2969 C116.8,440.4569 132.0226,446.9544 151.9426,452.9244" fill="none" id="user-to-steffensen" style="stroke:#181818;stroke-width:1;"/><polygon fill="#181818" points="157.69,454.6469,150.2172,448.2315,152.9005,453.2115,147.9205,455.8947,157.69,454.6469" style="stroke:#181818;stroke-width:1;"/><text fill="#000000" font-family="sans-serif" font-size="13" lengthAdjust="spacing" textLength="4.1323" x="86.14" y="416.3638">&#160;</text></g><!--link user to horner--><g class="link" data-entity-1="user" data-entity-2="horner" data-source-line="24" data-uid="lnk19" id="link_user_horner"><path d="M38.88,393.8269 C47.45,428.5969 65.06,478.6869 99.14,508.2969 C114.82,521.9169 129.3726,528.9538 149.3326,534.4138" fill="none" id="user-to-horner" style="stroke:#181818;stroke-width:1;"/><polygon fill="#181818" points="155.12,535.9969,147.4943,529.7639,150.2972,534.6776,145.3835,537.4804,155.12,535.9969" style="stroke:#181818;stroke-width:1;"/><text fill="#000000" font-family="sans-serif" font-size="13" lengthAdjust="spacing" textLength="4.1323" x="86.14" y="492.3638">&#160;</text></g><!--link user to m?ller--><g class="link" data-entity-1="user" data-entity-2="m&#252;ller" data-source-line="25" data-uid="lnk20" id="link_user_m&#252;ller"><path d="M32.12,393.5369 C34.97,443.8569 47.59,531.7969 99.14,582.2969 C113.95,596.7969 128.2199,604.0412 148.1999,609.3312" fill="none" id="user-to-m&#252;ller" style="stroke:#181818;stroke-width:1;"/><polygon fill="#181818" points="154,610.8669,146.3236,604.6966,149.1665,609.5871,144.276,612.4301,154,610.8669" style="stroke:#181818;stroke-width:1;"/><text fill="#000000" font-family="sans-serif" font-size="13" lengthAdjust="spacing" textLength="4.1323" x="86.14" y="564.3638">&#160;</text></g><!--SRC=[XP5DJiCm48NtFiKe-rw01H9KL6oA8bNjVk9Csa76bko9g8Gu46ksx78n_5Crf0kJJSPVthFzNeJ54AmnEEW9zl7rf4VKx2o5J2p20JrZPqWfGuE0EF1yF0dqx4bBb2g5Mfo7jM6oGe01na1UgVGTxJ6U01yAuXEnna3GF7IUFModBt6zWqUENFFqRPjaxj8oRrpnjAEDDzdmgykUWS_Kjuwjr4mlz2wk76BpM1Fl8erniZhakQRUe0a8hGiy1naYeuJ-2xCJ6WQoWOelN9SrqxFpbdmsdF9O4s-d7sCkwhSogq-bqd-2rUf-xlmEccR6SwrBNjfRijBHZVzl0pVoQyWbBrcMx7BZ17y1]--></g></svg>