<svg xmlns="http://www.w3.org/2000/svg" xmlns:xlink="http://www.w3.org/1999/xlink" contentStyleType="text/css" data-diagram-type="STATE" height="590px" preserveAspectRatio="none" style="width:3520px;height:590px;background:#FFFFFF;" version="1.1" viewBox="0 0 3520 590" width="3520px" zoomAndPan="magnify"><title>Diagrama de Contexto M&#243;dulo Ecuaciones de una variable</title><defs/><g><g class="title" data-source-line="9"><text fill="#000000" font-family="sans-serif" font-size="14" font-weight="bold" lengthAdjust="spacing" textLength="459.9766" x="1520.0117" y="22.9951">Diagrama de Contexto M&#243;dulo Ecuaciones de una variable</text></g><path d="M19.5,158.2969 L3494.5,158.2969 A12.5,12.5 0 0 1 3507,170.7969 L3507,184.5937 L7,184.5937 L7,170.7969 A12.5,12.5 0 0 1 19.5,158.2969" fill="#FAF4B4"/><rect fill="none" height="309.2969" rx="12.5" ry="12.5" style="stroke:#C90000;stroke-width:0.5;" width="3500" x="7" y="158.2969"/><line style="stroke:#C90000;stroke-width:0.5;" x1="7" x2="3507" y1="184.5937" y2="184.5937"/><text fill="#000000" font-family="sans-serif" font-size="14" lengthAdjust="spacing" textLength="32.293" x="1740.8535" y="176.292">WEB</text><ellipse cx="1633" cy="205.5937" fill="#222222" rx="10" ry="10" style="stroke:#222222;stroke-width:1;"/><g id="WEB.ECUACIONES_UNA_VARIABLE"><rect fill="#FAF4B4" height="50" rx="12.5" ry="12.5" style="stroke:#C90000;stroke-width:0.5;" width="224.709" x="1520.65" y="286.5937"/><line style="stroke:#C90000;stroke-width:0.5;" x1="1520.65" x2="1745.359" y1="312.8906" y2="312.8906"/><text fill="#000000" font-family="sans-serif" font-size="14" lengthAdjust="spacing" textLength="204.709" x="1530.65" y="304.5889">ECUACIONES_UNA_VARIABLE</text></g><g id="WEB.BISECCION"><rect fill="#FAF4B4" height="50" rx="12.5" ry="12.5" style="stroke:#C90000;stroke-width:0.5;" width="96.6377" x="62.68" y="407.5937"/><line style="stroke:#C90000;stroke-width:0.5;" x1="62.68" x2="159.3177" y1="433.8906" y2="433.8906"/><text fill="#000000" font-family="sans-serif" font-size="14" lengthAdjust="spacing" textLength="76.6377" x="72.68" y="425.5889">BISECCION</text></g><g id="WEB.PUNTO_FIJO"><rect fill="#FAF4B4" height="50" rx="12.5" ry="12.5" style="stroke:#C90000;stroke-width:0.5;" width="103.0635" x="432.47" y="407.5937"/><line style="stroke:#C90000;stroke-width:0.5;" x1="432.47" x2="535.5335" y1="433.8906" y2="433.8906"/><text fill="#000000" font-family="sans-serif" font-size="14" lengthAdjust="spacing" textLength="83.0635" x="442.47" y="425.5889">PUNTO_FIJO</text></g><g id="WEB.NEWTON"><rect fill="#FAF4B4" height="50" rx="12.5" ry="12.5" style="stroke:#C90000;stroke-width:0.5;" width="83.2051" x="901.4" y="407.5937"/><line style="stroke:#C90000;stroke-width:0.5;" x1="901.4" x2="984.6051" y1="433.8906" y2="433.8906"/><text fill="#000000" font-family="sans-serif" font-size="14" lengthAdjust="spacing" textLength="63.2051" x="911.4" y="425.5889">NEWTON</text></g><g id="WEB.SECANTE"><rect fill="#FAF4B4" height="50" rx="12.5" ry="12.5" style="stroke:#C90000;stroke-width:0.5;" width="84.9551" x="1322.52" y="407.5937"/><line style="stroke:#C90000;stroke-width:0.5;" x1="1322.52" x2="1407.4751" y1="433.8906" y2="433.8906"/><text fill="#000000" font-family="sans-serif" font-size="14" lengthAdjust="spacing" textLength="64.9551" x="1332.52" y="425.5889">SECANTE</text></g><g id="WEB.FALSA_POSICION"><rect fill="#FAF4B4" height="50" rx="12.5" ry="12.5" style="stroke:#C90000;stroke-width:0.5;" width="138.7676" x="1729.62" y="407.5937"/><line style="stroke:#C90000;stroke-width:0.5;" x1="1729.62" x2="1868.3876" y1="433.8906" y2="433.8906"/><text fill="#000000" font-family="sans-serif" font-size="14" lengthAdjust="spacing" textLength="118.7676" x="1739.62" y="425.5889">FALSA_POSICION</text></g><g id="WEB.STEFFENSEN"><rect fill="#FAF4B4" height="50" rx="12.5" ry="12.5" style="stroke:#C90000;stroke-width:0.5;" width="109.9131" x="2236.04" y="407.5937"/><line style="stroke:#C90000;stroke-width:0.5;" x1="2236.04" x2="2345.9531" y1="433.8906" y2="433.8906"/><text fill="#000000" font-family="sans-serif" font-size="14" lengthAdjust="spacing" textLength="89.9131" x="2246.04" y="425.5889">STEFFENSEN</text></g><g id="WEB.HORNER"><rect fill="#FAF4B4" height="50" rx="12.5" ry="12.5" style="stroke:#C90000;stroke-width:0.5;" width="80.3203" x="2714.84" y="407.5937"/><line style="stroke:#C90000;stroke-width:0.5;" x1="2714.84" x2="2795.1603" y1="433.8906" y2="433.8906"/><text fill="#000000" font-family="sans-serif" font-size="14" lengthAdjust="spacing" textLength="60.3203" x="2724.84" y="425.5889">HORNER</text></g><g id="WEB.M&#220;LLER"><rect fill="#FAF4B4" height="50" rx="12.5" ry="12.5" style="stroke:#C90000;stroke-width:0.5;" width="76.499" x="3173.75" y="407.5937"/><line style="stroke:#C90000;stroke-width:0.5;" x1="3173.75" x2="3250.249" y1="433.8906" y2="433.8906"/><text fill="#000000" font-family="sans-serif" font-size="14" lengthAdjust="spacing" textLength="56.499" x="3183.75" y="425.5889">M&#220;LLER</text></g><!--link *start*WEB to ECUACIONES_UNA_VARIABLE--><g class="link" data-entity-1="*start*WEB" data-entity-2="ECUACIONES_UNA_VARIABLE" data-source-line="17" data-uid="lnk6" id="link_*start*WEB_ECUACIONES_UNA_VARIABLE"><path d="M1633,215.8237 C1633,231.5337 1633,257.9537 1633,280.4637" fill="none" id="*start*WEB-to-ECUACIONES_UNA_VARIABLE" style="stroke:#218C00;stroke-width:1;"/><polygon fill="#218C00" points="1633,286.4637,1637,277.4637,1633,281.4637,1629,277.4637,1633,286.4637" style="stroke:#218C00;stroke-width:1;"/><path d="M1638,238.5937 L1638,263.5937 L1858,263.5937 L1858,248.5937 L1848,238.5937 L1638,238.5937" fill="#F5F5F5" style="stroke:#C90000;stroke-width:0.5;"/><path d="M1848,238.5937 L1848,248.5937 L1858,248.5937 L1848,238.5937" fill="#F5F5F5" style="stroke:#C90000;stroke-width:0.5;"/><text fill="#000000" font-family="sans-serif" font-size="13" lengthAdjust="spacing" textLength="191.6421" x="1644" y="255.6606">Listar M&#243;dulos y Operaciones</text></g><!--link ECUACIONES_UNA_VARIABLE to BISECCION--><g class="link" data-entity-1="ECUACIONES_UNA_VARIABLE" data-entity-2="BISECCION" data-source-line="22" data-uid="lnk8" id="link_ECUACIONES_UNA_VARIABLE_BISECCION"><path d="M1520.4,315.5237 C1153.81,325.0537 18,354.5937 18,354.5937 C18,354.5937 18,389.5937 18,389.5937 C18,389.5937 34.3526,396.9725 56.8526,407.1425" fill="none" id="ECUACIONES_UNA_VARIABLE-to-BISECCION" style="stroke:#218C00;stroke-width:1;"/><polygon fill="#218C00" points="62.32,409.6138,55.7664,402.2619,57.7638,407.5544,52.4713,409.5518,62.32,409.6138" style="stroke:#218C00;stroke-width:1;"/><path d="M23,359.5937 L23,384.5937 L149,384.5937 L149,369.5937 L139,359.5937 L23,359.5937" fill="#F5F5F5" style="stroke:#C90000;stroke-width:0.5;"/><path d="M139,359.5937 L139,369.5937 L149,369.5937 L139,359.5937" fill="#F5F5F5" style="stroke:#C90000;stroke-width:0.5;"/><text fill="#000000" font-family="sans-serif" font-size="13" lengthAdjust="spacing" textLength="96.9795" x="29" y="376.6606">Abrir Bisecci&#243;n</text></g><!--link BISECCION to ECUACIONES_UNA_VARIABLE--><g class="link" data-entity-1="BISECCION" data-entity-2="ECUACIONES_UNA_VARIABLE" data-source-line="27" data-uid="lnk9" id="link_BISECCION_ECUACIONES_UNA_VARIABLE"><path d="M137.89,407.2337 C162.8,384.6737 196,354.5937 196,354.5937 C196,354.5937 1175.4826,325.969 1514.2426,316.069" fill="none" id="BISECCION-to-ECUACIONES_UNA_VARIABLE" style="stroke:#218C00;stroke-width:1;"/><polygon fill="#218C00" points="1520.24,315.8937,1511.127,312.1584,1515.2421,316.0398,1511.3607,320.1549,1520.24,315.8937" style="stroke:#218C00;stroke-width:1;"/><path d="M201,359.5937 L201,384.5937 L413,384.5937 L413,369.5937 L403,359.5937 L201,359.5937" fill="#F5F5F5" style="stroke:#C90000;stroke-width:0.5;"/><path d="M403,359.5937 L403,369.5937 L413,369.5937 L403,359.5937" fill="#F5F5F5" style="stroke:#C90000;stroke-width:0.5;"/><text fill="#000000" font-family="sans-serif" font-size="13" lengthAdjust="spacing" textLength="191.6421" x="207" y="376.6606">Listar M&#243;dulos y Operaciones</text></g><!--link BISECCION to BISECCION--><g class="link" data-entity-1="BISECCION" data-entity-2="BISECCION" data-source-line="32" data-uid="lnk10" id="link_BISECCION_BISECCION"><path d="M159.58,421.6138 C169.88,422.7337 177.32,426.3937 177.32,432.5937 C177.32,438.7937 175.8448,441.8051 165.5448,442.9251" fill="none" id="BISECCION-to-BISECCION" style="stroke:#218C00;stroke-width:1;"/><polygon fill="#218C00" points="159.58,443.5737,168.9597,446.5774,164.5507,443.0332,168.0949,438.6243,159.58,443.5737" style="stroke:#218C00;stroke-width:1;"/><path d="M182.32,420.0937 L182.32,445.0937 L379.32,445.0937 L379.32,430.0937 L369.32,420.0937 L182.32,420.0937" fill="#F5F5F5" style="stroke:#C90000;stroke-width:0.5;"/><path d="M369.32,420.0937 L369.32,430.0937 L379.32,430.0937 L369.32,420.0937" fill="#F5F5F5" style="stroke:#C90000;stroke-width:0.5;"/><text fill="#000000" font-family="sans-serif" font-size="13" lengthAdjust="spacing" textLength="172.1421" x="188.32" y="437.1606">Crear Operaci&#243;n Bisecci&#243;n</text></g><!--link ECUACIONES_UNA_VARIABLE to PUNTO_FIJO--><g class="link" data-entity-1="ECUACIONES_UNA_VARIABLE" data-entity-2="PUNTO_FIJO" data-source-line="37" data-uid="lnk12" id="link_ECUACIONES_UNA_VARIABLE_PUNTO_FIJO"><path d="M1520.16,316.5037 C1219.53,326.9337 422,354.5937 422,354.5937 C422,354.5937 422,389.5937 422,389.5937 C422,389.5937 429.3225,394.5587 442.9625,403.7987" fill="none" id="ECUACIONES_UNA_VARIABLE-to-PUNTO_FIJO" style="stroke:#218C00;stroke-width:1;"/><polygon fill="#218C00" points="447.93,407.1637,442.7221,398.8044,443.7904,404.3595,438.2353,405.4278,447.93,407.1637" style="stroke:#218C00;stroke-width:1;"/><path d="M427,359.5937 L427,384.5937 L609,384.5937 L609,369.5937 L599,359.5937 L427,359.5937" fill="#F5F5F5" style="stroke:#C90000;stroke-width:0.5;"/><path d="M599,359.5937 L599,369.5937 L609,369.5937 L599,359.5937" fill="#F5F5F5" style="stroke:#C90000;stroke-width:0.5;"/><text fill="#000000" font-family="sans-serif" font-size="13" lengthAdjust="spacing" textLength="161.0591" x="433" y="376.6606">Abrir Iteraci&#243;n Punto Fijo</text></g><!--link PUNTO_FIJO to ECUACIONES_UNA_VARIABLE--><g class="link" data-entity-1="PUNTO_FIJO" data-entity-2="ECUACIONES_UNA_VARIABLE" data-source-line="42" data-uid="lnk13" id="link_PUNTO_FIJO_ECUACIONES_UNA_VARIABLE"><path d="M535.75,414.8738 C572.01,403.1637 614,389.5937 614,389.5937 C614,389.5937 656,354.5937 656,354.5937 C656,354.5937 1257.5555,328.7314 1514.4555,317.6914" fill="none" id="PUNTO_FIJO-to-ECUACIONES_UNA_VARIABLE" style="stroke:#218C00;stroke-width:1;"/><polygon fill="#218C00" points="1520.45,317.4337,1511.2866,313.8238,1515.4546,317.6484,1511.63,321.8165,1520.45,317.4337" style="stroke:#218C00;stroke-width:1;"/><path d="M661,359.5937 L661,384.5937 L873,384.5937 L873,369.5937 L863,359.5937 L661,359.5937" fill="#F5F5F5" style="stroke:#C90000;stroke-width:0.5;"/><path d="M863,359.5937 L863,369.5937 L873,369.5937 L863,359.5937" fill="#F5F5F5" style="stroke:#C90000;stroke-width:0.5;"/><text fill="#000000" font-family="sans-serif" font-size="13" lengthAdjust="spacing" textLength="191.6421" x="667" y="376.6606">Listar M&#243;dulos y Operaciones</text></g><!--link PUNTO_FIJO to PUNTO_FIJO--><g class="link" data-entity-1="PUNTO_FIJO" data-entity-2="PUNTO_FIJO" data-source-line="47" data-uid="lnk14" id="link_PUNTO_FIJO_PUNTO_FIJO"><path d="M535.85,421.7137 C546.17,422.9437 553.53,426.5637 553.53,432.5937 C553.53,438.6238 552.1278,441.5337 541.8078,442.7637" fill="none" id="PUNTO_FIJO-to-PUNTO_FIJO" style="stroke:#218C00;stroke-width:1;"/><polygon fill="#218C00" points="535.85,443.4737,545.2601,446.3805,540.8149,442.882,544.3134,438.4367,535.85,443.4737" style="stroke:#218C00;stroke-width:1;"/><path d="M558.53,420.0937 L558.53,445.0937 L753.53,445.0937 L753.53,430.0937 L743.53,420.0937 L558.53,420.0937" fill="#F5F5F5" style="stroke:#C90000;stroke-width:0.5;"/><path d="M743.53,420.0937 L743.53,430.0937 L753.53,430.0937 L743.53,420.0937" fill="#F5F5F5" style="stroke:#C90000;stroke-width:0.5;"/><text fill="#000000" font-family="sans-serif" font-size="13" lengthAdjust="spacing" textLength="174.897" x="564.53" y="437.1606">Crear Operaci&#243;n Punto Fijo</text></g><!--link ECUACIONES_UNA_VARIABLE to NEWTON--><g class="link" data-entity-1="ECUACIONES_UNA_VARIABLE" data-entity-2="NEWTON" data-source-line="52" data-uid="lnk16" id="link_ECUACIONES_UNA_VARIABLE_NEWTON"><path d="M1520.16,318.9037 C1310.51,330.6337 882,354.5937 882,354.5937 C882,354.5937 882,389.5937 882,389.5937 C882,389.5937 889.1581,394.5211 902.5781,403.7611" fill="none" id="ECUACIONES_UNA_VARIABLE-to-NEWTON" style="stroke:#218C00;stroke-width:1;"/><polygon fill="#218C00" points="907.52,407.1637,902.3756,398.7652,903.4018,404.3282,897.8388,405.3544,907.52,407.1637" style="stroke:#218C00;stroke-width:1;"/><path d="M887,359.5937 L887,384.5937 L1045,384.5937 L1045,369.5937 L1035,359.5937 L887,359.5937" fill="#F5F5F5" style="stroke:#C90000;stroke-width:0.5;"/><path d="M1035,359.5937 L1035,369.5937 L1045,369.5937 L1035,359.5937" fill="#F5F5F5" style="stroke:#C90000;stroke-width:0.5;"/><text fill="#000000" font-family="sans-serif" font-size="13" lengthAdjust="spacing" textLength="137.8267" x="893" y="376.6606">Abrir M&#233;todo Newton</text></g><!--link NEWTON to ECUACIONES_UNA_VARIABLE--><g class="link" data-entity-1="NEWTON" data-entity-2="ECUACIONES_UNA_VARIABLE" data-source-line="57" data-uid="lnk17" id="link_NEWTON_ECUACIONES_UNA_VARIABLE"><path d="M984.98,415.1138 C1014.96,403.3437 1050,389.5937 1050,389.5937 C1050,389.5937 1092,354.5937 1092,354.5937 C1092,354.5937 1355.718,334.1182 1514.268,321.8082" fill="none" id="NEWTON-to-ECUACIONES_UNA_VARIABLE" style="stroke:#218C00;stroke-width:1;"/><polygon fill="#218C00" points="1520.25,321.3437,1510.9674,318.0524,1515.265,321.7308,1511.5866,326.0284,1520.25,321.3437" style="stroke:#218C00;stroke-width:1;"/><path d="M1097,359.5937 L1097,384.5937 L1309,384.5937 L1309,369.5937 L1299,359.5937 L1097,359.5937" fill="#F5F5F5" style="stroke:#C90000;stroke-width:0.5;"/><path d="M1299,359.5937 L1299,369.5937 L1309,369.5937 L1299,359.5937" fill="#F5F5F5" style="stroke:#C90000;stroke-width:0.5;"/><text fill="#000000" font-family="sans-serif" font-size="13" lengthAdjust="spacing" textLength="191.6421" x="1103" y="376.6606">Listar M&#243;dulos y Operaciones</text></g><!--link NEWTON to NEWTON--><g class="link" data-entity-1="NEWTON" data-entity-2="NEWTON" data-source-line="62" data-uid="lnk18" id="link_NEWTON_NEWTON"><path d="M985.05,421.4537 C995.13,422.3237 1002.6,426.0337 1002.6,432.5937 C1002.6,439.1537 1001.1078,442.3478 991.0278,443.2178" fill="none" id="NEWTON-to-NEWTON" style="stroke:#218C00;stroke-width:1;"/><polygon fill="#218C00" points="985.05,443.7337,994.3606,446.945,990.0315,443.3038,993.6727,438.9747,985.05,443.7337" style="stroke:#218C00;stroke-width:1;"/><path d="M1007.6,420.0937 L1007.6,445.0937 L1188.6,445.0937 L1188.6,430.0937 L1178.6,420.0937 L1007.6,420.0937" fill="#F5F5F5" style="stroke:#C90000;stroke-width:0.5;"/><path d="M1178.6,420.0937 L1178.6,430.0937 L1188.6,430.0937 L1178.6,420.0937" fill="#F5F5F5" style="stroke:#C90000;stroke-width:0.5;"/><text fill="#000000" font-family="sans-serif" font-size="13" lengthAdjust="spacing" textLength="160.3862" x="1013.6" y="437.1606">Crear Operaci&#243;n Newton</text></g><!--link ECUACIONES_UNA_VARIABLE to SECANTE--><g class="link" data-entity-1="ECUACIONES_UNA_VARIABLE" data-entity-2="SECANTE" data-source-line="67" data-uid="lnk20" id="link_ECUACIONES_UNA_VARIABLE_SECANTE"><path d="M1520.17,327.6337 C1429.78,339.6937 1318,354.5937 1318,354.5937 C1318,354.5937 1318,389.5937 1318,389.5937 C1318,389.5937 1322.8461,393.9258 1333.1861,403.1658" fill="none" id="ECUACIONES_UNA_VARIABLE-to-SECANTE" style="stroke:#218C00;stroke-width:1;"/><polygon fill="#218C00" points="1337.66,407.1637,1333.6144,398.1841,1333.9317,403.8321,1328.2838,404.1494,1337.66,407.1637" style="stroke:#218C00;stroke-width:1;"/><path d="M1323,359.5937 L1323,384.5937 L1484,384.5937 L1484,369.5937 L1474,359.5937 L1323,359.5937" fill="#F5F5F5" style="stroke:#C90000;stroke-width:0.5;"/><path d="M1474,359.5937 L1474,369.5937 L1484,369.5937 L1474,359.5937" fill="#F5F5F5" style="stroke:#C90000;stroke-width:0.5;"/><text fill="#000000" font-family="sans-serif" font-size="13" lengthAdjust="spacing" textLength="140.8799" x="1329" y="376.6606">Abrir M&#233;todo Secante</text></g><!--link SECANTE to ECUACIONES_UNA_VARIABLE--><g class="link" data-entity-1="SECANTE" data-entity-2="ECUACIONES_UNA_VARIABLE" data-source-line="72" data-uid="lnk21" id="link_SECANTE_ECUACIONES_UNA_VARIABLE"><path d="M1407.67,417.1437 C1443.54,404.9938 1489,389.5937 1489,389.5937 C1489,389.5937 1508,354.5937 1508,354.5937 C1508,354.5937 1527.1025,348.1748 1554.6025,338.9348" fill="none" id="SECANTE-to-ECUACIONES_UNA_VARIABLE" style="stroke:#218C00;stroke-width:1;"/><polygon fill="#218C00" points="1560.29,337.0237,1550.4847,336.0986,1555.5504,338.6163,1553.0327,343.682,1560.29,337.0237" style="stroke:#218C00;stroke-width:1;"/><path d="M1513,359.5937 L1513,384.5937 L1725,384.5937 L1725,369.5937 L1715,359.5937 L1513,359.5937" fill="#F5F5F5" style="stroke:#C90000;stroke-width:0.5;"/><path d="M1715,359.5937 L1715,369.5937 L1725,369.5937 L1715,359.5937" fill="#F5F5F5" style="stroke:#C90000;stroke-width:0.5;"/><text fill="#000000" font-family="sans-serif" font-size="13" lengthAdjust="spacing" textLength="191.6421" x="1519" y="376.6606">Listar M&#243;dulos y Operaciones</text></g><!--link SECANTE to SECANTE--><g class="link" data-entity-1="SECANTE" data-entity-2="SECANTE" data-source-line="77" data-uid="lnk22" id="link_SECANTE_SECANTE"><path d="M1407.94,421.4737 C1418.03,422.3837 1425.48,426.0937 1425.48,432.5937 C1425.48,439.0937 1424.0057,442.2648 1413.9157,443.1748" fill="none" id="SECANTE-to-SECANTE" style="stroke:#218C00;stroke-width:1;"/><polygon fill="#218C00" points="1407.94,443.7137,1417.2629,446.8892,1412.9198,443.2646,1416.5443,438.9215,1407.94,443.7137" style="stroke:#218C00;stroke-width:1;"/><path d="M1430.48,420.0937 L1430.48,445.0937 L1614.48,445.0937 L1614.48,430.0937 L1604.48,420.0937 L1430.48,420.0937" fill="#F5F5F5" style="stroke:#C90000;stroke-width:0.5;"/><path d="M1604.48,420.0937 L1604.48,430.0937 L1614.48,430.0937 L1604.48,420.0937" fill="#F5F5F5" style="stroke:#C90000;stroke-width:0.5;"/><text fill="#000000" font-family="sans-serif" font-size="13" lengthAdjust="spacing" textLength="163.4395" x="1436.48" y="437.1606">Crear Operaci&#243;n Secante</text></g><!--link ECUACIONES_UNA_VARIABLE to FALSA_POSICION--><g class="link" data-entity-1="ECUACIONES_UNA_VARIABLE" data-entity-2="FALSA_POSICION" data-source-line="82" data-uid="lnk24" id="link_ECUACIONES_UNA_VARIABLE_FALSA_POSICION"><path d="M1691.75,337.0237 C1713.97,346.2637 1734,354.5937 1734,354.5937 C1734,354.5937 1757,389.5937 1757,389.5937 C1757,389.5937 1761.0874,393.6811 1770.3274,402.9211" fill="none" id="ECUACIONES_UNA_VARIABLE-to-FALSA_POSICION" style="stroke:#218C00;stroke-width:1;"/><polygon fill="#218C00" points="1774.57,407.1637,1771.0345,397.9714,1771.0345,403.6282,1765.3776,403.6282,1774.57,407.1637" style="stroke:#218C00;stroke-width:1;"/><path d="M1762,359.5937 L1762,384.5937 L1962,384.5937 L1962,369.5937 L1952,359.5937 L1762,359.5937" fill="#F5F5F5" style="stroke:#C90000;stroke-width:0.5;"/><path d="M1952,359.5937 L1952,369.5937 L1962,369.5937 L1952,359.5937" fill="#F5F5F5" style="stroke:#C90000;stroke-width:0.5;"/><text fill="#000000" font-family="sans-serif" font-size="13" lengthAdjust="spacing" textLength="179.2388" x="1768" y="376.6606">Abrir M&#233;todo Falsa Posici&#243;n</text></g><!--link FALSA_POSICION to ECUACIONES_UNA_VARIABLE--><g class="link" data-entity-1="FALSA_POSICION" data-entity-2="ECUACIONES_UNA_VARIABLE" data-source-line="87" data-uid="lnk25" id="link_FALSA_POSICION_ECUACIONES_UNA_VARIABLE"><path d="M1868.79,414.1437 C1914.95,402.6037 1967,389.5937 1967,389.5937 C1967,389.5937 1967,354.5937 1967,354.5937 C1967,354.5937 1848.5331,339.6921 1751.5631,327.5021" fill="none" id="FALSA_POSICION-to-ECUACIONES_UNA_VARIABLE" style="stroke:#218C00;stroke-width:1;"/><polygon fill="#218C00" points="1745.61,326.7537,1754.0408,331.8451,1750.571,327.3774,1755.0386,323.9075,1745.61,326.7537" style="stroke:#218C00;stroke-width:1;"/><path d="M1972,359.5937 L1972,384.5937 L2184,384.5937 L2184,369.5937 L2174,359.5937 L1972,359.5937" fill="#F5F5F5" style="stroke:#C90000;stroke-width:0.5;"/><path d="M2174,359.5937 L2174,369.5937 L2184,369.5937 L2174,359.5937" fill="#F5F5F5" style="stroke:#C90000;stroke-width:0.5;"/><text fill="#000000" font-family="sans-serif" font-size="13" lengthAdjust="spacing" textLength="191.6421" x="1978" y="376.6606">Listar M&#243;dulos y Operaciones</text></g><!--link FALSA_POSICION to FALSA_POSICION--><g class="link" data-entity-1="FALSA_POSICION" data-entity-2="FALSA_POSICION" data-source-line="92" data-uid="lnk26" id="link_FALSA_POSICION_FALSA_POSICION"><path d="M1868.58,422.2537 C1879.18,423.8237 1886.38,427.2737 1886.38,432.5937 C1886.38,437.9137 1885.1153,440.4847 1874.5153,442.0547" fill="none" id="FALSA_POSICION-to-FALSA_POSICION" style="stroke:#218C00;stroke-width:1;"/><polygon fill="#218C00" points="1868.58,442.9337,1878.0689,445.572,1873.526,442.2012,1876.8968,437.6583,1868.58,442.9337" style="stroke:#218C00;stroke-width:1;"/><path d="M1891.38,420.0937 L1891.38,445.0937 L2113.38,445.0937 L2113.38,430.0937 L2103.38,420.0937 L1891.38,420.0937" fill="#F5F5F5" style="stroke:#C90000;stroke-width:0.5;"/><path d="M2103.38,420.0937 L2103.38,430.0937 L2113.38,430.0937 L2103.38,420.0937" fill="#F5F5F5" style="stroke:#C90000;stroke-width:0.5;"/><text fill="#000000" font-family="sans-serif" font-size="13" lengthAdjust="spacing" textLength="201.7983" x="1897.38" y="437.1606">Crear Operaci&#243;n Falsa Posici&#243;n</text></g><!--link ECUACIONES_UNA_VARIABLE to STEFFENSEN--><g class="link" data-entity-1="ECUACIONES_UNA_VARIABLE" data-entity-2="STEFFENSEN" data-source-line="97" data-uid="lnk28" id="link_ECUACIONES_UNA_VARIABLE_STEFFENSEN"><path d="M1745.65,321.0437 C1909.18,333.3037 2193,354.5937 2193,354.5937 C2193,354.5937 2235,389.5937 2235,389.5937 C2235,389.5937 2241.3,394.3237 2253.62,403.5637" fill="none" id="ECUACIONES_UNA_VARIABLE-to-STEFFENSEN" style="stroke:#218C00;stroke-width:1;"/><polygon fill="#218C00" points="2258.42,407.1637,2253.62,398.5637,2254.42,404.1637,2248.82,404.9638,2258.42,407.1637" style="stroke:#218C00;stroke-width:1;"/><path d="M2240,359.5937 L2240,384.5937 L2418,384.5937 L2418,369.5937 L2408,359.5937 L2240,359.5937" fill="#F5F5F5" style="stroke:#C90000;stroke-width:0.5;"/><path d="M2408,359.5937 L2408,369.5937 L2418,369.5937 L2408,359.5937" fill="#F5F5F5" style="stroke:#C90000;stroke-width:0.5;"/><text fill="#000000" font-family="sans-serif" font-size="13" lengthAdjust="spacing" textLength="157.9297" x="2246" y="376.6606">Abrir M&#233;todo Steffensen</text></g><!--link STEFFENSEN to ECUACIONES_UNA_VARIABLE--><g class="link" data-entity-1="STEFFENSEN" data-entity-2="ECUACIONES_UNA_VARIABLE" data-source-line="102" data-uid="lnk29" id="link_STEFFENSEN_ECUACIONES_UNA_VARIABLE"><path d="M2346.22,414.0237 C2382.39,402.5137 2423,389.5937 2423,389.5937 C2423,389.5937 2423,354.5937 2423,354.5937 C2423,354.5937 1970.0315,330.5122 1751.7615,318.9122" fill="none" id="STEFFENSEN-to-ECUACIONES_UNA_VARIABLE" style="stroke:#218C00;stroke-width:1;"/><polygon fill="#218C00" points="1745.77,318.5937,1754.545,323.0657,1750.763,318.8591,1754.9696,315.077,1745.77,318.5937" style="stroke:#218C00;stroke-width:1;"/><path d="M2428,359.5937 L2428,384.5937 L2640,384.5937 L2640,369.5937 L2630,359.5937 L2428,359.5937" fill="#F5F5F5" style="stroke:#C90000;stroke-width:0.5;"/><path d="M2630,359.5937 L2630,369.5937 L2640,369.5937 L2630,359.5937" fill="#F5F5F5" style="stroke:#C90000;stroke-width:0.5;"/><text fill="#000000" font-family="sans-serif" font-size="13" lengthAdjust="spacing" textLength="191.6421" x="2434" y="376.6606">Listar M&#243;dulos y Operaciones</text></g><!--link STEFFENSEN to STEFFENSEN--><g class="link" data-entity-1="STEFFENSEN" data-entity-2="STEFFENSEN" data-source-line="107" data-uid="lnk30" id="link_STEFFENSEN_STEFFENSEN"><path d="M2346.35,421.8337 C2356.68,423.1537 2363.96,426.7438 2363.96,432.5937 C2363.96,438.4437 2362.6316,441.2732 2352.3016,442.5932" fill="none" id="STEFFENSEN-to-STEFFENSEN" style="stroke:#218C00;stroke-width:1;"/><polygon fill="#218C00" points="2346.35,443.3537,2355.7844,446.1807,2351.3097,442.72,2354.7704,438.2452,2346.35,443.3537" style="stroke:#218C00;stroke-width:1;"/><path d="M2368.96,420.0937 L2368.96,445.0937 L2569.96,445.0937 L2569.96,430.0937 L2559.96,420.0937 L2368.96,420.0937" fill="#F5F5F5" style="stroke:#C90000;stroke-width:0.5;"/><path d="M2559.96,420.0937 L2559.96,430.0937 L2569.96,430.0937 L2559.96,420.0937" fill="#F5F5F5" style="stroke:#C90000;stroke-width:0.5;"/><text fill="#000000" font-family="sans-serif" font-size="13" lengthAdjust="spacing" textLength="180.4893" x="2374.96" y="437.1606">Crear Operaci&#243;n Steffensen</text></g><!--link ECUACIONES_UNA_VARIABLE to HORNER--><g class="link" data-entity-1="ECUACIONES_UNA_VARIABLE" data-entity-2="HORNER" data-source-line="112" data-uid="lnk32" id="link_ECUACIONES_UNA_VARIABLE_HORNER"><path d="M1745.61,317.2537 C2010.14,328.1837 2649,354.5937 2649,354.5937 C2649,354.5937 2691,389.5937 2691,389.5937 C2691,389.5937 2698.6737,394.6318 2712.7537,403.8718" fill="none" id="ECUACIONES_UNA_VARIABLE-to-HORNER" style="stroke:#218C00;stroke-width:1;"/><polygon fill="#218C00" points="2717.77,407.1637,2712.4402,398.8817,2713.5898,404.4205,2708.0509,405.57,2717.77,407.1637" style="stroke:#218C00;stroke-width:1;"/><path d="M2696,359.5937 L2696,384.5937 L2849,384.5937 L2849,369.5937 L2839,359.5937 L2696,359.5937" fill="#F5F5F5" style="stroke:#C90000;stroke-width:0.5;"/><path d="M2839,359.5937 L2839,369.5937 L2849,369.5937 L2839,359.5937" fill="#F5F5F5" style="stroke:#C90000;stroke-width:0.5;"/><text fill="#000000" font-family="sans-serif" font-size="13" lengthAdjust="spacing" textLength="132.8374" x="2702" y="376.6606">Abrir M&#233;todo Horner</text></g><!--link HORNER to ECUACIONES_UNA_VARIABLE--><g class="link" data-entity-1="HORNER" data-entity-2="ECUACIONES_UNA_VARIABLE" data-source-line="117" data-uid="lnk33" id="link_HORNER_ECUACIONES_UNA_VARIABLE"><path d="M2795.55,414.3937 C2822.89,402.7937 2854,389.5937 2854,389.5937 C2854,389.5937 2854,354.5937 2854,354.5937 C2854,354.5937 2053.9465,327.0699 1751.6765,316.6799" fill="none" id="HORNER-to-ECUACIONES_UNA_VARIABLE" style="stroke:#218C00;stroke-width:1;"/><polygon fill="#218C00" points="1745.68,316.4737,1754.5373,320.7806,1750.677,316.6455,1754.8121,312.7853,1745.68,316.4737" style="stroke:#218C00;stroke-width:1;"/><path d="M2859,359.5937 L2859,384.5937 L3071,384.5937 L3071,369.5937 L3061,359.5937 L2859,359.5937" fill="#F5F5F5" style="stroke:#C90000;stroke-width:0.5;"/><path d="M3061,359.5937 L3061,369.5937 L3071,369.5937 L3061,359.5937" fill="#F5F5F5" style="stroke:#C90000;stroke-width:0.5;"/><text fill="#000000" font-family="sans-serif" font-size="13" lengthAdjust="spacing" textLength="191.6421" x="2865" y="376.6606">Listar M&#243;dulos y Operaciones</text></g><!--link HORNER to HORNER--><g class="link" data-entity-1="HORNER" data-entity-2="HORNER" data-source-line="122" data-uid="lnk34" id="link_HORNER_HORNER"><path d="M2795.5,421.4037 C2805.61,422.1837 2813.16,425.9137 2813.16,432.5937 C2813.16,439.2737 2811.5922,442.5422 2801.4822,443.3222" fill="none" id="HORNER-to-HORNER" style="stroke:#218C00;stroke-width:1;"/><polygon fill="#218C00" points="2795.5,443.7837,2804.781,447.0796,2800.4852,443.3991,2804.1656,439.1033,2795.5,443.7837" style="stroke:#218C00;stroke-width:1;"/><path d="M2818.16,420.0937 L2818.16,445.0937 L2994.16,445.0937 L2994.16,430.0937 L2984.16,420.0937 L2818.16,420.0937" fill="#F5F5F5" style="stroke:#C90000;stroke-width:0.5;"/><path d="M2984.16,420.0937 L2984.16,430.0937 L2994.16,430.0937 L2984.16,420.0937" fill="#F5F5F5" style="stroke:#C90000;stroke-width:0.5;"/><text fill="#000000" font-family="sans-serif" font-size="13" lengthAdjust="spacing" textLength="155.397" x="2824.16" y="437.1606">Crear Operaci&#243;n Horner</text></g><!--link ECUACIONES_UNA_VARIABLE to M?LLER--><g class="link" data-entity-1="ECUACIONES_UNA_VARIABLE" data-entity-2="M&#220;LLER" data-source-line="127" data-uid="lnk36" id="link_ECUACIONES_UNA_VARIABLE_M&#220;LLER"><path d="M1745.64,315.8638 C2085.9,325.7438 3080,354.5937 3080,354.5937 C3080,354.5937 3122,389.5937 3122,389.5937 C3122,389.5937 3143.4827,399.6168 3167.8727,410.9968" fill="none" id="ECUACIONES_UNA_VARIABLE-to-M&#220;LLER" style="stroke:#218C00;stroke-width:1;"/><polygon fill="#218C00" points="3173.31,413.5337,3166.8454,406.1035,3168.7789,411.4196,3163.4628,413.3532,3173.31,413.5337" style="stroke:#218C00;stroke-width:1;"/><path d="M3127,359.5937 L3127,384.5937 L3276,384.5937 L3276,369.5937 L3266,359.5937 L3127,359.5937" fill="#F5F5F5" style="stroke:#C90000;stroke-width:0.5;"/><path d="M3266,359.5937 L3266,369.5937 L3276,369.5937 L3266,359.5937" fill="#F5F5F5" style="stroke:#C90000;stroke-width:0.5;"/><text fill="#000000" font-family="sans-serif" font-size="13" lengthAdjust="spacing" textLength="128.2036" x="3133" y="376.6606">Abrir M&#233;todo M&#252;ller</text></g><!--link M?LLER to ECUACIONES_UNA_VARIABLE--><g class="link" data-entity-1="M&#220;LLER" data-entity-2="ECUACIONES_UNA_VARIABLE" data-source-line="132" data-uid="lnk37" id="link_M&#220;LLER_ECUACIONES_UNA_VARIABLE"><path d="M3250.53,408.1337 C3266.34,398.5137 3281,389.5937 3281,389.5937 C3281,389.5937 3281,354.5937 3281,354.5937 C3281,354.5937 2123.2481,325.0866 1751.6281,315.6166" fill="none" id="M&#220;LLER-to-ECUACIONES_UNA_VARIABLE" style="stroke:#218C00;stroke-width:1;"/><polygon fill="#218C00" points="1745.63,315.4637,1754.5252,319.6917,1750.6284,315.5911,1754.729,311.6943,1745.63,315.4637" style="stroke:#218C00;stroke-width:1;"/><path d="M3286,359.5937 L3286,384.5937 L3498,384.5937 L3498,369.5937 L3488,359.5937 L3286,359.5937" fill="#F5F5F5" style="stroke:#C90000;stroke-width:0.5;"/><path d="M3488,359.5937 L3488,369.5937 L3498,369.5937 L3488,359.5937" fill="#F5F5F5" style="stroke:#C90000;stroke-width:0.5;"/><text fill="#000000" font-family="sans-serif" font-size="13" lengthAdjust="spacing" textLength="191.6421" x="3292" y="376.6606">Listar M&#243;dulos y Operaciones</text></g><!--link M?LLER to M?LLER--><g class="link" data-entity-1="M&#220;LLER" data-entity-2="M&#220;LLER" data-source-line="137" data-uid="lnk38" id="link_M&#220;LLER_M&#220;LLER"><path d="M3250.65,421.3638 C3260.68,422.0537 3268.25,425.8037 3268.25,432.5937 C3268.25,439.3837 3266.6659,442.722 3256.6359,443.412" fill="none" id="M&#220;LLER-to-M&#220;LLER" style="stroke:#218C00;stroke-width:1;"/><polygon fill="#218C00" points="3250.65,443.8237,3259.9033,447.1966,3255.6382,443.4806,3259.3543,439.2155,3250.65,443.8237" style="stroke:#218C00;stroke-width:1;"/><path d="M3273.25,420.0937 L3273.25,445.0937 L3444.25,445.0937 L3444.25,430.0937 L3434.25,420.0937 L3273.25,420.0937" fill="#F5F5F5" style="stroke:#C90000;stroke-width:0.5;"/><path d="M3434.25,420.0937 L3434.25,430.0937 L3444.25,430.0937 L3434.25,420.0937" fill="#F5F5F5" style="stroke:#C90000;stroke-width:0.5;"/><text fill="#000000" font-family="sans-serif" font-size="13" lengthAdjust="spacing" textLength="150.7632" x="3279.25" y="437.1606">Crear Operaci&#243;n M&#252;ller</text></g><ellipse cx="1757" cy="53.2969" fill="#222222" rx="10" ry="10" style="stroke:#222222;stroke-width:1;"/><ellipse cx="1757" cy="573.5969" fill="none" rx="11" ry="11" style="stroke:#222222;stroke-width:1;"/><ellipse cx="1757" cy="573.5969" fill="#222222" rx="6" ry="6" style="stroke:#222222;stroke-width:1;"/><!--link *start* to WEB--><g class="link" data-entity-1="*start*" data-entity-2="WEB" data-source-line="11" data-uid="lnk3" id="link_*start*_WEB"><path d="M1757,63.7769 C1757,80.5669 1757,111.6269 1757,152.1169" fill="none" id="*start*-to-WEB" style="stroke:#218C00;stroke-width:1;"/><polygon fill="#218C00" points="1757,158.1169,1761,149.1169,1757,153.1169,1753,149.1169,1757,158.1169" style="stroke:#218C00;stroke-width:1;"/><path d="M1762,98.2969 L1762,123.2969 L1856,123.2969 L1856,108.2969 L1846,98.2969 L1762,98.2969" fill="#F5F5F5" style="stroke:#C90000;stroke-width:0.5;"/><path d="M1846,98.2969 L1846,108.2969 L1856,108.2969 L1846,98.2969" fill="#F5F5F5" style="stroke:#C90000;stroke-width:0.5;"/><text fill="#000000" font-family="sans-serif" font-size="13" lengthAdjust="spacing" textLength="65.5649" x="1768" y="115.3638">Abrir WEB</text></g><!--link WEB to *end*--><g class="link" data-entity-1="WEB" data-entity-2="*end*" data-source-line="143" data-uid="lnk40" id="link_WEB_*end*"><path d="M1757,467.7669 C1757,507.9069 1757,538.7769 1757,556.1369" fill="none" id="WEB-to-*end*" style="stroke:#218C00;stroke-width:1;"/><polygon fill="#218C00" points="1757,562.1369,1761,553.1369,1757,557.1369,1753,553.1369,1757,562.1369" style="stroke:#218C00;stroke-width:1;"/><path d="M1762,502.5969 L1762,527.5969 L1858,527.5969 L1858,512.5969 L1848,502.5969 L1762,502.5969" fill="#F5F5F5" style="stroke:#C90000;stroke-width:0.5;"/><path d="M1848,502.5969 L1848,512.5969 L1858,512.5969 L1848,502.5969" fill="#F5F5F5" style="stroke:#C90000;stroke-width:0.5;"/><text fill="#000000" font-family="sans-serif" font-size="13" lengthAdjust="spacing" textLength="75.1943" x="1768" y="519.6638">Cerrar WEB</text></g><!--SRC=[jPR1Zjem48RlVegHUgk4rAssKdkf5197cmeIHA1xg2fa4hDrIMtac6vHrJVf2_IyrzvuiSRP00OdvjB02SRpp_V_caGkrunlY2JVW0j5XoHRFqYnvRal2Y7XnUgD_gBo_9IGEPNDYUpTg-fZd21IYiUc-FhcRNPMB1Lfcq9MjyjRwvXpJC4uLRiDXOqeTlh79SBi2ylMd9Obt22ac2ee18myL7K2EGLVS4L_A07Z_LE-BGJWR4io9geENTvo0j-9P6HPK8G-lVmCWy5xkCT3f1C0mJN06W5uIycaBW0WolCw88HIRQ3-z-Un6Vjppu-I6AUBUUmjFdhJo1kEyANWY5NkvG6hX1qa6oeFQEQG3i51NWqRHYdsTR6TTyXAccLi_yGDHK3es0Qrolz0De2FweF0XUXBMgar4XhHe3LXNVudytYMBCBeGz8UGAIEwfCjhzOWP5-5ANuIw2C9GprmqbfPjDEweeZn_Qnh3yRxFqha0cBwg0Gt5P-x-l3UA0UTQ9PdcyxbjzegBvvXj-6KPgHw0PYQJLyVbW_IGJUUPRg5qEKwz4QfjvWaQTJzr1_CXwGe2Kn4oUfHveXpcJwok9WGN6Mtad7WE_TYXiCGnoc-aawgw6f5UKdFb4_TlIp8IJrmejfhqahhok4kcSPuwixWJaXEfQdutDM7zqOvw4IpFDjqBh_Z_U_Hw9hXyVvlKPnhDdrzM3v81zrubccRy1T2-eQXxnRL7SCIe5AI-cPoRFa7]--></g></svg>