<svg xmlns="http://www.w3.org/2000/svg" xmlns:xlink="http://www.w3.org/1999/xlink" contentStyleType="text/css" data-diagram-type="STATE" height="711px" preserveAspectRatio="none" style="width:2988px;height:711px;background:#FFFFFF;" version="1.1" viewBox="0 0 2988 711" width="2988px" zoomAndPan="magnify"><title>Diagrama de Contexto M&#243;dulo Ecuaciones de una variable</title><defs/><g><g class="title" data-source-line="9"><text fill="#000000" font-family="sans-serif" font-size="14" font-weight="bold" lengthAdjust="spacing" textLength="459.9766" x="1253.7967" y="22.9951">Diagrama de Contexto M&#243;dulo Ecuaciones de una variable</text></g><path d="M19.5,158.2969 L2962.07,158.2969 A12.5,12.5 0 0 1 2974.57,170.7969 L2974.57,184.5938 L7,184.5938 L7,170.7969 A12.5,12.5 0 0 1 19.5,158.2969" fill="#FAF4B4" style="stroke:#FAF4B4;stroke-width:1;"/><rect fill="none" height="430.2969" rx="12.5" ry="12.5" style="stroke:#C90000;stroke-width:0.5;" width="2967.57" x="7" y="158.2969"/><line style="stroke:#C90000;stroke-width:0.5;" x1="7" x2="2974.57" y1="184.5938" y2="184.5938"/><text fill="#000000" font-family="sans-serif" font-size="14" lengthAdjust="spacing" textLength="32.293" x="1474.6385" y="176.292">WEB</text><ellipse cx="1399.32" cy="205.5938" fill="#222222" rx="10" ry="10" style="stroke:#222222;stroke-width:1;"/><g id="WEB.ESTADO_PRINCIPAL"><rect fill="#FAF4B4" height="50" rx="12.5" ry="12.5" style="stroke:#C90000;stroke-width:0.5;" width="157.1563" x="1320.74" y="286.5938"/><line style="stroke:#C90000;stroke-width:0.5;" x1="1320.74" x2="1477.8963" y1="312.8906" y2="312.8906"/><text fill="#000000" font-family="sans-serif" font-size="14" lengthAdjust="spacing" textLength="137.1563" x="1330.74" y="304.5889">ESTADO_PRINCIPAL</text></g><g id="WEB.OTROS_MODULOS"><rect fill="#FAF4B4" height="50" rx="12.5" ry="12.5" style="stroke:#C90000;stroke-width:0.5;" width="148.0371" x="1655.3" y="286.5938"/><line style="stroke:#C90000;stroke-width:0.5;" x1="1655.3" x2="1803.3371" y1="312.8906" y2="312.8906"/><text fill="#000000" font-family="sans-serif" font-size="14" lengthAdjust="spacing" textLength="128.0371" x="1665.3" y="304.5889">OTROS_MODULOS</text></g><g id="WEB.ECUACIONES_UNA_VARIABLE"><rect fill="#FAF4B4" height="50" rx="12.5" ry="12.5" style="stroke:#C90000;stroke-width:0.5;" width="224.709" x="1286.96" y="407.5938"/><line style="stroke:#C90000;stroke-width:0.5;" x1="1286.96" x2="1511.669" y1="433.8906" y2="433.8906"/><text fill="#000000" font-family="sans-serif" font-size="14" lengthAdjust="spacing" textLength="204.709" x="1296.96" y="425.5889">ECUACIONES_UNA_VARIABLE</text></g><g id="WEB.BISECCION"><rect fill="#FAF4B4" height="50" rx="12.5" ry="12.5" style="stroke:#C90000;stroke-width:0.5;" width="96.6377" x="19" y="528.5938"/><line style="stroke:#C90000;stroke-width:0.5;" x1="19" x2="115.6377" y1="554.8906" y2="554.8906"/><text fill="#000000" font-family="sans-serif" font-size="14" lengthAdjust="spacing" textLength="76.6377" x="29" y="546.5889">BISECCION</text></g><g id="WEB.PUNTO_FIJO"><rect fill="#FAF4B4" height="50" rx="12.5" ry="12.5" style="stroke:#C90000;stroke-width:0.5;" width="103.0635" x="381.79" y="528.5938"/><line style="stroke:#C90000;stroke-width:0.5;" x1="381.79" x2="484.8535" y1="554.8906" y2="554.8906"/><text fill="#000000" font-family="sans-serif" font-size="14" lengthAdjust="spacing" textLength="83.0635" x="391.79" y="546.5889">PUNTO_FIJO</text></g><g id="WEB.NEWTON"><rect fill="#FAF4B4" height="50" rx="12.5" ry="12.5" style="stroke:#C90000;stroke-width:0.5;" width="83.2051" x="737.72" y="528.5938"/><line style="stroke:#C90000;stroke-width:0.5;" x1="737.72" x2="820.9251" y1="554.8906" y2="554.8906"/><text fill="#000000" font-family="sans-serif" font-size="14" lengthAdjust="spacing" textLength="63.2051" x="747.72" y="546.5889">NEWTON</text></g><g id="WEB.SECANTE"><rect fill="#FAF4B4" height="50" rx="12.5" ry="12.5" style="stroke:#C90000;stroke-width:0.5;" width="84.9551" x="1088.84" y="528.5938"/><line style="stroke:#C90000;stroke-width:0.5;" x1="1088.84" x2="1173.7951" y1="554.8906" y2="554.8906"/><text fill="#000000" font-family="sans-serif" font-size="14" lengthAdjust="spacing" textLength="64.9551" x="1098.84" y="546.5889">SECANTE</text></g><g id="WEB.FALSA_POSICION"><rect fill="#FAF4B4" height="50" rx="12.5" ry="12.5" style="stroke:#C90000;stroke-width:0.5;" width="138.7676" x="1425.94" y="528.5938"/><line style="stroke:#C90000;stroke-width:0.5;" x1="1425.94" x2="1564.7076" y1="554.8906" y2="554.8906"/><text fill="#000000" font-family="sans-serif" font-size="14" lengthAdjust="spacing" textLength="118.7676" x="1435.94" y="546.5889">FALSA_POSICION</text></g><g id="WEB.STEFFENSEN"><rect fill="#FAF4B4" height="50" rx="12.5" ry="12.5" style="stroke:#C90000;stroke-width:0.5;" width="109.9131" x="1862.36" y="528.5938"/><line style="stroke:#C90000;stroke-width:0.5;" x1="1862.36" x2="1972.2731" y1="554.8906" y2="554.8906"/><text fill="#000000" font-family="sans-serif" font-size="14" lengthAdjust="spacing" textLength="89.9131" x="1872.36" y="546.5889">STEFFENSEN</text></g><g id="WEB.HORNER"><rect fill="#FAF4B4" height="50" rx="12.5" ry="12.5" style="stroke:#C90000;stroke-width:0.5;" width="80.3203" x="2271.16" y="528.5938"/><line style="stroke:#C90000;stroke-width:0.5;" x1="2271.16" x2="2351.4803" y1="554.8906" y2="554.8906"/><text fill="#000000" font-family="sans-serif" font-size="14" lengthAdjust="spacing" textLength="60.3203" x="2281.16" y="546.5889">HORNER</text></g><g id="WEB.M&#220;LLER"><rect fill="#FAF4B4" height="50" rx="12.5" ry="12.5" style="stroke:#C90000;stroke-width:0.5;" width="76.499" x="2695.07" y="528.5938"/><line style="stroke:#C90000;stroke-width:0.5;" x1="2695.07" x2="2771.569" y1="554.8906" y2="554.8906"/><text fill="#000000" font-family="sans-serif" font-size="14" lengthAdjust="spacing" textLength="56.499" x="2705.07" y="546.5889">M&#220;LLER</text></g><!--link *start*WEB to ESTADO_PRINCIPAL--><g class="link" data-entity-1="*start*WEB" data-entity-2="ESTADO_PRINCIPAL" data-source-line="17" data-uid="lnk6" id="link_*start*WEB_ESTADO_PRINCIPAL"><path d="M1399.32,215.8238 C1399.32,231.5338 1399.32,257.9538 1399.32,280.4638" fill="none" id="*start*WEB-to-ESTADO_PRINCIPAL" style="stroke:#218C00;stroke-width:1;"/><polygon fill="#218C00" points="1399.32,286.4638,1403.32,277.4638,1399.32,281.4638,1395.32,277.4638,1399.32,286.4638" style="stroke:#218C00;stroke-width:1;"/><path d="M1404.32,238.5938 L1404.32,263.5938 L1527.32,263.5938 L1527.32,248.5938 L1517.32,238.5938 L1404.32,238.5938" fill="#F5F5F5" style="stroke:#C90000;stroke-width:0.5;"/><path d="M1517.32,238.5938 L1517.32,248.5938 L1527.32,248.5938 L1517.32,238.5938" fill="#F5F5F5" style="stroke:#C90000;stroke-width:0.5;"/><text fill="#000000" font-family="sans-serif" font-size="13" lengthAdjust="spacing" textLength="94.1675" x="1410.32" y="255.6606">Listar M&#243;dulos</text></g><!--link ESTADO_PRINCIPAL to OTROS_MODULOS--><g class="link" data-entity-1="ESTADO_PRINCIPAL" data-entity-2="OTROS_MODULOS" data-source-line="22" data-uid="lnk8" id="link_ESTADO_PRINCIPAL_OTROS_MODULOS"><path d="M1478.36,311.5938 C1531.94,311.5938 1596.3,311.5938 1648.88,311.5938" fill="none" id="ESTADO_PRINCIPAL-to-OTROS_MODULOS" style="stroke:#218C00;stroke-width:1;"/><polygon fill="#218C00" points="1654.88,311.5938,1645.88,307.5938,1649.88,311.5938,1645.88,315.5938,1654.88,311.5938" style="stroke:#218C00;stroke-width:1;"/><path d="M1491.6,278.5938 L1491.6,303.5938 L1641.6,303.5938 L1641.6,288.5938 L1631.6,278.5938 L1491.6,278.5938" fill="#F5F5F5" style="stroke:#C90000;stroke-width:0.5;"/><path d="M1631.6,278.5938 L1631.6,288.5938 L1641.6,288.5938 L1631.6,278.5938" fill="#F5F5F5" style="stroke:#C90000;stroke-width:0.5;"/><text fill="#000000" font-family="sans-serif" font-size="13" lengthAdjust="spacing" textLength="121.6846" x="1497.6" y="295.6606">Listar Operaciones</text></g><!--link ESTADO_PRINCIPAL to ECUACIONES_UNA_VARIABLE--><g class="link" data-entity-1="ESTADO_PRINCIPAL" data-entity-2="ECUACIONES_UNA_VARIABLE" data-source-line="27" data-uid="lnk10" id="link_ESTADO_PRINCIPAL_ECUACIONES_UNA_VARIABLE"><path d="M1346.97,337.0238 C1327.17,346.2637 1309.32,354.5938 1309.32,354.5938 C1309.32,354.5938 1309.32,389.5938 1309.32,389.5938 C1309.32,389.5938 1321.7329,395.3864 1341.5329,404.6264" fill="none" id="ESTADO_PRINCIPAL-to-ECUACIONES_UNA_VARIABLE" style="stroke:#218C00;stroke-width:1;"/><polygon fill="#218C00" points="1346.97,407.1638,1340.5059,399.733,1342.4391,405.0493,1337.1228,406.9825,1346.97,407.1638" style="stroke:#218C00;stroke-width:1;"/><path d="M1314.32,359.5938 L1314.32,384.5938 L1464.32,384.5938 L1464.32,369.5938 L1454.32,359.5938 L1314.32,359.5938" fill="#F5F5F5" style="stroke:#C90000;stroke-width:0.5;"/><path d="M1454.32,359.5938 L1454.32,369.5938 L1464.32,369.5938 L1454.32,359.5938" fill="#F5F5F5" style="stroke:#C90000;stroke-width:0.5;"/><text fill="#000000" font-family="sans-serif" font-size="13" lengthAdjust="spacing" textLength="121.6846" x="1320.32" y="376.6606">Listar Operaciones</text></g><!--link ECUACIONES_UNA_VARIABLE to ESTADO_PRINCIPAL--><g class="link" data-entity-1="ECUACIONES_UNA_VARIABLE" data-entity-2="ESTADO_PRINCIPAL" data-source-line="32" data-uid="lnk11" id="link_ECUACIONES_UNA_VARIABLE_ESTADO_PRINCIPAL"><path d="M1440.04,407.1638 C1455.44,397.9238 1469.32,389.5938 1469.32,389.5938 C1469.32,389.5938 1469.32,354.5938 1469.32,354.5938 C1469.32,354.5938 1460.585,349.3507 1445.185,340.1107" fill="none" id="ECUACIONES_UNA_VARIABLE-to-ESTADO_PRINCIPAL" style="stroke:#218C00;stroke-width:1;"/><polygon fill="#218C00" points="1440.04,337.0238,1445.6995,345.0842,1444.3275,339.5962,1449.8154,338.2242,1440.04,337.0238" style="stroke:#218C00;stroke-width:1;"/><path d="M1474.32,359.5938 L1474.32,384.5938 L1589.32,384.5938 L1589.32,369.5938 L1579.32,359.5938 L1474.32,359.5938" fill="#F5F5F5" style="stroke:#C90000;stroke-width:0.5;"/><path d="M1579.32,359.5938 L1579.32,369.5938 L1589.32,369.5938 L1579.32,359.5938" fill="#F5F5F5" style="stroke:#C90000;stroke-width:0.5;"/><text fill="#000000" font-family="sans-serif" font-size="13" lengthAdjust="spacing" textLength="94.1675" x="1480.32" y="376.6606">Listar M&#243;dulos</text></g><!--link ECUACIONES_UNA_VARIABLE to BISECCION--><g class="link" data-entity-1="ECUACIONES_UNA_VARIABLE" data-entity-2="BISECCION" data-source-line="37" data-uid="lnk13" id="link_ECUACIONES_UNA_VARIABLE_BISECCION"><path d="M1286.62,437.0438 C958.91,447.0938 29.32,475.5938 29.32,475.5938 C29.32,475.5938 29.32,510.5938 29.32,510.5938 C29.32,510.5938 32.8245,514.4745 41.1845,523.7145" fill="none" id="ECUACIONES_UNA_VARIABLE-to-BISECCION" style="stroke:#218C00;stroke-width:1;"/><polygon fill="#218C00" points="45.21,528.1637,42.1379,518.8063,41.8554,524.4561,36.2056,524.1736,45.21,528.1637" style="stroke:#218C00;stroke-width:1;"/><path d="M34.32,480.5938 L34.32,505.5938 L160.32,505.5938 L160.32,490.5938 L150.32,480.5938 L34.32,480.5938" fill="#F5F5F5" style="stroke:#C90000;stroke-width:0.5;"/><path d="M150.32,480.5938 L150.32,490.5938 L160.32,490.5938 L150.32,480.5938" fill="#F5F5F5" style="stroke:#C90000;stroke-width:0.5;"/><text fill="#000000" font-family="sans-serif" font-size="13" lengthAdjust="spacing" textLength="96.9795" x="40.32" y="497.6606">Abrir Bisecci&#243;n</text></g><!--link BISECCION to ECUACIONES_UNA_VARIABLE--><g class="link" data-entity-1="BISECCION" data-entity-2="ECUACIONES_UNA_VARIABLE" data-source-line="42" data-uid="lnk14" id="link_BISECCION_ECUACIONES_UNA_VARIABLE"><path d="M116.03,531.7138 C140.63,521.1737 165.32,510.5938 165.32,510.5938 C165.32,510.5938 207.32,475.5938 207.32,475.5938 C207.32,475.5938 983.5037,448.245 1280.6437,437.775" fill="none" id="BISECCION-to-ECUACIONES_UNA_VARIABLE" style="stroke:#218C00;stroke-width:1;"/><polygon fill="#218C00" points="1286.64,437.5638,1277.5047,433.8832,1281.6431,437.7398,1277.7864,441.8782,1286.64,437.5638" style="stroke:#218C00;stroke-width:1;"/><path d="M212.32,480.5938 L212.32,505.5938 L354.32,505.5938 L354.32,490.5938 L344.32,480.5938 L212.32,480.5938" fill="#F5F5F5" style="stroke:#C90000;stroke-width:0.5;"/><path d="M344.32,480.5938 L344.32,490.5938 L354.32,490.5938 L344.32,480.5938" fill="#F5F5F5" style="stroke:#C90000;stroke-width:0.5;"/><text fill="#000000" font-family="sans-serif" font-size="13" lengthAdjust="spacing" textLength="121.6846" x="218.32" y="497.6606">Listar Operaciones</text></g><!--link BISECCION to BISECCION--><g class="link" data-entity-1="BISECCION" data-entity-2="BISECCION" data-source-line="47" data-uid="lnk15" id="link_BISECCION_BISECCION"><path d="M115.9,542.6138 C126.2,543.7338 133.64,547.3938 133.64,553.5938 C133.64,559.7938 132.1648,562.8051 121.8648,563.9251" fill="none" id="BISECCION-to-BISECCION" style="stroke:#218C00;stroke-width:1;"/><polygon fill="#218C00" points="115.9,564.5738,125.2797,567.5774,120.8707,564.0332,124.4149,559.6243,115.9,564.5738" style="stroke:#218C00;stroke-width:1;"/><path d="M138.64,541.0938 L138.64,566.0938 L335.64,566.0938 L335.64,551.0938 L325.64,541.0938 L138.64,541.0938" fill="#F5F5F5" style="stroke:#C90000;stroke-width:0.5;"/><path d="M325.64,541.0938 L325.64,551.0938 L335.64,551.0938 L325.64,541.0938" fill="#F5F5F5" style="stroke:#C90000;stroke-width:0.5;"/><text fill="#000000" font-family="sans-serif" font-size="13" lengthAdjust="spacing" textLength="172.1421" x="144.64" y="558.1606">Crear Operaci&#243;n Bisecci&#243;n</text></g><!--link ECUACIONES_UNA_VARIABLE to PUNTO_FIJO--><g class="link" data-entity-1="ECUACIONES_UNA_VARIABLE" data-entity-2="PUNTO_FIJO" data-source-line="52" data-uid="lnk17" id="link_ECUACIONES_UNA_VARIABLE_PUNTO_FIJO"><path d="M1286.48,438.1638 C1017.97,449.0538 363.32,475.5938 363.32,475.5938 C363.32,475.5938 363.32,510.5938 363.32,510.5938 C363.32,510.5938 372.055,515.8368 387.455,525.0768" fill="none" id="ECUACIONES_UNA_VARIABLE-to-PUNTO_FIJO" style="stroke:#218C00;stroke-width:1;"/><polygon fill="#218C00" points="392.6,528.1637,386.9405,520.1033,388.3125,525.5913,382.8246,526.9633,392.6,528.1637" style="stroke:#218C00;stroke-width:1;"/><path d="M368.32,480.5938 L368.32,505.5938 L550.32,505.5938 L550.32,490.5938 L540.32,480.5938 L368.32,480.5938" fill="#F5F5F5" style="stroke:#C90000;stroke-width:0.5;"/><path d="M540.32,480.5938 L540.32,490.5938 L550.32,490.5938 L540.32,480.5938" fill="#F5F5F5" style="stroke:#C90000;stroke-width:0.5;"/><text fill="#000000" font-family="sans-serif" font-size="13" lengthAdjust="spacing" textLength="161.0591" x="374.32" y="497.6606">Abrir Iteraci&#243;n Punto Fijo</text></g><!--link PUNTO_FIJO to ECUACIONES_UNA_VARIABLE--><g class="link" data-entity-1="PUNTO_FIJO" data-entity-2="ECUACIONES_UNA_VARIABLE" data-source-line="57" data-uid="lnk18" id="link_PUNTO_FIJO_ECUACIONES_UNA_VARIABLE"><path d="M485.06,534.7838 C518.31,523.3338 555.32,510.5938 555.32,510.5938 C555.32,510.5938 597.32,475.5938 597.32,475.5938 C597.32,475.5938 1059.6482,451.3773 1280.5482,439.8173" fill="none" id="PUNTO_FIJO-to-ECUACIONES_UNA_VARIABLE" style="stroke:#218C00;stroke-width:1;"/><polygon fill="#218C00" points="1286.54,439.5037,1277.3433,435.9796,1281.5468,439.765,1277.7613,443.9686,1286.54,439.5037" style="stroke:#218C00;stroke-width:1;"/><path d="M602.32,480.5938 L602.32,505.5938 L744.32,505.5938 L744.32,490.5938 L734.32,480.5938 L602.32,480.5938" fill="#F5F5F5" style="stroke:#C90000;stroke-width:0.5;"/><path d="M734.32,480.5938 L734.32,490.5938 L744.32,490.5938 L734.32,480.5938" fill="#F5F5F5" style="stroke:#C90000;stroke-width:0.5;"/><text fill="#000000" font-family="sans-serif" font-size="13" lengthAdjust="spacing" textLength="121.6846" x="608.32" y="497.6606">Listar Operaciones</text></g><!--link PUNTO_FIJO to PUNTO_FIJO--><g class="link" data-entity-1="PUNTO_FIJO" data-entity-2="PUNTO_FIJO" data-source-line="62" data-uid="lnk19" id="link_PUNTO_FIJO_PUNTO_FIJO"><path d="M485.17,542.7138 C495.49,543.9438 502.85,547.5638 502.85,553.5938 C502.85,559.6238 501.4478,562.5337 491.1278,563.7637" fill="none" id="PUNTO_FIJO-to-PUNTO_FIJO" style="stroke:#218C00;stroke-width:1;"/><polygon fill="#218C00" points="485.17,564.4738,494.5801,567.3805,490.1349,563.882,493.6334,559.4367,485.17,564.4738" style="stroke:#218C00;stroke-width:1;"/><path d="M507.85,541.0938 L507.85,566.0938 L702.85,566.0938 L702.85,551.0938 L692.85,541.0938 L507.85,541.0938" fill="#F5F5F5" style="stroke:#C90000;stroke-width:0.5;"/><path d="M692.85,541.0938 L692.85,551.0938 L702.85,551.0938 L692.85,541.0938" fill="#F5F5F5" style="stroke:#C90000;stroke-width:0.5;"/><text fill="#000000" font-family="sans-serif" font-size="13" lengthAdjust="spacing" textLength="174.897" x="513.85" y="558.1606">Crear Operaci&#243;n Punto Fijo</text></g><!--link ECUACIONES_UNA_VARIABLE to NEWTON--><g class="link" data-entity-1="ECUACIONES_UNA_VARIABLE" data-entity-2="NEWTON" data-source-line="67" data-uid="lnk21" id="link_ECUACIONES_UNA_VARIABLE_NEWTON"><path d="M1286.79,440.9138 C1101.71,452.9438 753.32,475.5938 753.32,475.5938 C753.32,475.5938 753.32,510.5938 753.32,510.5938 C753.32,510.5938 755.3119,513.8222 761.0319,523.0622" fill="none" id="ECUACIONES_UNA_VARIABLE-to-NEWTON" style="stroke:#218C00;stroke-width:1;"/><polygon fill="#218C00" points="764.19,528.1637,762.8539,518.4059,761.5582,523.9124,756.0517,522.6168,764.19,528.1637" style="stroke:#218C00;stroke-width:1;"/><path d="M758.32,480.5938 L758.32,505.5938 L916.32,505.5938 L916.32,490.5938 L906.32,480.5938 L758.32,480.5938" fill="#F5F5F5" style="stroke:#C90000;stroke-width:0.5;"/><path d="M906.32,480.5938 L906.32,490.5938 L916.32,490.5938 L906.32,480.5938" fill="#F5F5F5" style="stroke:#C90000;stroke-width:0.5;"/><text fill="#000000" font-family="sans-serif" font-size="13" lengthAdjust="spacing" textLength="137.8267" x="764.32" y="497.6606">Abrir M&#233;todo Newton</text></g><!--link NEWTON to ECUACIONES_UNA_VARIABLE--><g class="link" data-entity-1="NEWTON" data-entity-2="ECUACIONES_UNA_VARIABLE" data-source-line="72" data-uid="lnk22" id="link_NEWTON_ECUACIONES_UNA_VARIABLE"><path d="M821.16,540.2238 C863.04,527.8338 921.32,510.5938 921.32,510.5938 C921.32,510.5938 963.32,475.5938 963.32,475.5938 C963.32,475.5938 1151.3177,457.4893 1280.4977,445.0393" fill="none" id="NEWTON-to-ECUACIONES_UNA_VARIABLE" style="stroke:#218C00;stroke-width:1;"/><polygon fill="#218C00" points="1286.47,444.4638,1277.1278,441.3456,1281.4931,444.9434,1277.8952,449.3087,1286.47,444.4638" style="stroke:#218C00;stroke-width:1;"/><path d="M968.32,480.5938 L968.32,505.5938 L1110.32,505.5938 L1110.32,490.5938 L1100.32,480.5938 L968.32,480.5938" fill="#F5F5F5" style="stroke:#C90000;stroke-width:0.5;"/><path d="M1100.32,480.5938 L1100.32,490.5938 L1110.32,490.5938 L1100.32,480.5938" fill="#F5F5F5" style="stroke:#C90000;stroke-width:0.5;"/><text fill="#000000" font-family="sans-serif" font-size="13" lengthAdjust="spacing" textLength="121.6846" x="974.32" y="497.6606">Listar Operaciones</text></g><!--link NEWTON to NEWTON--><g class="link" data-entity-1="NEWTON" data-entity-2="NEWTON" data-source-line="77" data-uid="lnk23" id="link_NEWTON_NEWTON"><path d="M821.37,542.4538 C831.45,543.3238 838.92,547.0338 838.92,553.5938 C838.92,560.1538 837.4278,563.3478 827.3478,564.2178" fill="none" id="NEWTON-to-NEWTON" style="stroke:#218C00;stroke-width:1;"/><polygon fill="#218C00" points="821.37,564.7338,830.6806,567.945,826.3515,564.3038,829.9927,559.9747,821.37,564.7338" style="stroke:#218C00;stroke-width:1;"/><path d="M843.92,541.0938 L843.92,566.0938 L1024.92,566.0938 L1024.92,551.0938 L1014.92,541.0938 L843.92,541.0938" fill="#F5F5F5" style="stroke:#C90000;stroke-width:0.5;"/><path d="M1014.92,541.0938 L1014.92,551.0938 L1024.92,551.0938 L1014.92,541.0938" fill="#F5F5F5" style="stroke:#C90000;stroke-width:0.5;"/><text fill="#000000" font-family="sans-serif" font-size="13" lengthAdjust="spacing" textLength="160.3862" x="849.92" y="558.1606">Crear Operaci&#243;n Newton</text></g><!--link ECUACIONES_UNA_VARIABLE to SECANTE--><g class="link" data-entity-1="ECUACIONES_UNA_VARIABLE" data-entity-2="SECANTE" data-source-line="82" data-uid="lnk25" id="link_ECUACIONES_UNA_VARIABLE_SECANTE"><path d="M1286.64,450.4938 C1208.84,462.1638 1119.32,475.5938 1119.32,475.5938 C1119.32,475.5938 1119.32,510.5938 1119.32,510.5938 C1119.32,510.5938 1120.0517,513.1546 1122.6917,522.3946" fill="none" id="ECUACIONES_UNA_VARIABLE-to-SECANTE" style="stroke:#218C00;stroke-width:1;"/><polygon fill="#218C00" points="1124.34,528.1637,1125.7136,518.4111,1122.9664,523.3561,1118.0214,520.6089,1124.34,528.1637" style="stroke:#218C00;stroke-width:1;"/><path d="M1124.32,480.5938 L1124.32,505.5938 L1285.32,505.5938 L1285.32,490.5938 L1275.32,480.5938 L1124.32,480.5938" fill="#F5F5F5" style="stroke:#C90000;stroke-width:0.5;"/><path d="M1275.32,480.5938 L1275.32,490.5938 L1285.32,490.5938 L1275.32,480.5938" fill="#F5F5F5" style="stroke:#C90000;stroke-width:0.5;"/><text fill="#000000" font-family="sans-serif" font-size="13" lengthAdjust="spacing" textLength="140.8799" x="1130.32" y="497.6606">Abrir M&#233;todo Secante</text></g><!--link SECANTE to ECUACIONES_UNA_VARIABLE--><g class="link" data-entity-1="SECANTE" data-entity-2="ECUACIONES_UNA_VARIABLE" data-source-line="87" data-uid="lnk26" id="link_SECANTE_ECUACIONES_UNA_VARIABLE"><path d="M1173.93,541.3338 C1221.03,528.8938 1290.32,510.5938 1290.32,510.5938 C1290.32,510.5938 1309.32,475.5938 1309.32,475.5938 C1309.32,475.5938 1321.7329,469.8011 1341.5329,460.5611" fill="none" id="SECANTE-to-ECUACIONES_UNA_VARIABLE" style="stroke:#218C00;stroke-width:1;"/><polygon fill="#218C00" points="1346.97,458.0238,1337.1228,458.205,1342.4391,460.1382,1340.5059,465.4545,1346.97,458.0238" style="stroke:#218C00;stroke-width:1;"/><path d="M1314.32,480.5938 L1314.32,505.5938 L1456.32,505.5938 L1456.32,490.5938 L1446.32,480.5938 L1314.32,480.5938" fill="#F5F5F5" style="stroke:#C90000;stroke-width:0.5;"/><path d="M1446.32,480.5938 L1446.32,490.5938 L1456.32,490.5938 L1446.32,480.5938" fill="#F5F5F5" style="stroke:#C90000;stroke-width:0.5;"/><text fill="#000000" font-family="sans-serif" font-size="13" lengthAdjust="spacing" textLength="121.6846" x="1320.32" y="497.6606">Listar Operaciones</text></g><!--link SECANTE to SECANTE--><g class="link" data-entity-1="SECANTE" data-entity-2="SECANTE" data-source-line="92" data-uid="lnk27" id="link_SECANTE_SECANTE"><path d="M1174.26,542.4738 C1184.35,543.3838 1191.8,547.0938 1191.8,553.5938 C1191.8,560.0938 1190.3257,563.2648 1180.2357,564.1748" fill="none" id="SECANTE-to-SECANTE" style="stroke:#218C00;stroke-width:1;"/><polygon fill="#218C00" points="1174.26,564.7138,1183.5829,567.8892,1179.2398,564.2646,1182.8643,559.9215,1174.26,564.7138" style="stroke:#218C00;stroke-width:1;"/><path d="M1196.8,541.0938 L1196.8,566.0938 L1380.8,566.0938 L1380.8,551.0938 L1370.8,541.0938 L1196.8,541.0938" fill="#F5F5F5" style="stroke:#C90000;stroke-width:0.5;"/><path d="M1370.8,541.0938 L1370.8,551.0938 L1380.8,551.0938 L1370.8,541.0938" fill="#F5F5F5" style="stroke:#C90000;stroke-width:0.5;"/><text fill="#000000" font-family="sans-serif" font-size="13" lengthAdjust="spacing" textLength="163.4395" x="1202.8" y="558.1606">Crear Operaci&#243;n Secante</text></g><!--link ECUACIONES_UNA_VARIABLE to FALSA_POSICION--><g class="link" data-entity-1="ECUACIONES_UNA_VARIABLE" data-entity-2="FALSA_POSICION" data-source-line="97" data-uid="lnk29" id="link_ECUACIONES_UNA_VARIABLE_FALSA_POSICION"><path d="M1437.71,458.0238 C1452.23,467.2638 1465.32,475.5938 1465.32,475.5938 C1465.32,475.5938 1474.8617,500.0831 1483.6517,522.6431" fill="none" id="ECUACIONES_UNA_VARIABLE-to-FALSA_POSICION" style="stroke:#218C00;stroke-width:1;"/><polygon fill="#218C00" points="1485.83,528.2338,1486.2897,518.3956,1484.0148,523.5749,1478.8355,521.3,1485.83,528.2338" style="stroke:#218C00;stroke-width:1;"/><path d="M1484.32,480.5938 L1484.32,505.5938 L1684.32,505.5938 L1684.32,490.5938 L1674.32,480.5938 L1484.32,480.5938" fill="#F5F5F5" style="stroke:#C90000;stroke-width:0.5;"/><path d="M1674.32,480.5938 L1674.32,490.5938 L1684.32,490.5938 L1674.32,480.5938" fill="#F5F5F5" style="stroke:#C90000;stroke-width:0.5;"/><text fill="#000000" font-family="sans-serif" font-size="13" lengthAdjust="spacing" textLength="179.2388" x="1490.32" y="497.6606">Abrir M&#233;todo Falsa Posici&#243;n</text></g><!--link FALSA_POSICION to ECUACIONES_UNA_VARIABLE--><g class="link" data-entity-1="FALSA_POSICION" data-entity-2="ECUACIONES_UNA_VARIABLE" data-source-line="102" data-uid="lnk30" id="link_FALSA_POSICION_ECUACIONES_UNA_VARIABLE"><path d="M1565.13,537.7838 C1622.13,525.6938 1693.32,510.5938 1693.32,510.5938 C1693.32,510.5938 1693.32,475.5938 1693.32,475.5938 C1693.32,475.5938 1600.9997,462.402 1518.0897,450.562" fill="none" id="FALSA_POSICION-to-ECUACIONES_UNA_VARIABLE" style="stroke:#218C00;stroke-width:1;"/><polygon fill="#218C00" points="1512.15,449.7138,1520.4941,454.9459,1517.0998,450.4206,1521.6251,447.0263,1512.15,449.7138" style="stroke:#218C00;stroke-width:1;"/><path d="M1698.32,480.5938 L1698.32,505.5938 L1840.32,505.5938 L1840.32,490.5938 L1830.32,480.5938 L1698.32,480.5938" fill="#F5F5F5" style="stroke:#C90000;stroke-width:0.5;"/><path d="M1830.32,480.5938 L1830.32,490.5938 L1840.32,490.5938 L1830.32,480.5938" fill="#F5F5F5" style="stroke:#C90000;stroke-width:0.5;"/><text fill="#000000" font-family="sans-serif" font-size="13" lengthAdjust="spacing" textLength="121.6846" x="1704.32" y="497.6606">Listar Operaciones</text></g><!--link FALSA_POSICION to FALSA_POSICION--><g class="link" data-entity-1="FALSA_POSICION" data-entity-2="FALSA_POSICION" data-source-line="107" data-uid="lnk31" id="link_FALSA_POSICION_FALSA_POSICION"><path d="M1564.9,543.2538 C1575.5,544.8238 1582.7,548.2738 1582.7,553.5938 C1582.7,558.9137 1581.4353,561.4847 1570.8353,563.0547" fill="none" id="FALSA_POSICION-to-FALSA_POSICION" style="stroke:#218C00;stroke-width:1;"/><polygon fill="#218C00" points="1564.9,563.9337,1574.3889,566.572,1569.846,563.2012,1573.2168,558.6583,1564.9,563.9337" style="stroke:#218C00;stroke-width:1;"/><path d="M1587.7,541.0938 L1587.7,566.0938 L1809.7,566.0938 L1809.7,551.0938 L1799.7,541.0938 L1587.7,541.0938" fill="#F5F5F5" style="stroke:#C90000;stroke-width:0.5;"/><path d="M1799.7,541.0938 L1799.7,551.0938 L1809.7,551.0938 L1799.7,541.0938" fill="#F5F5F5" style="stroke:#C90000;stroke-width:0.5;"/><text fill="#000000" font-family="sans-serif" font-size="13" lengthAdjust="spacing" textLength="201.7983" x="1593.7" y="558.1606">Crear Operaci&#243;n Falsa Posici&#243;n</text></g><!--link ECUACIONES_UNA_VARIABLE to STEFFENSEN--><g class="link" data-entity-1="ECUACIONES_UNA_VARIABLE" data-entity-2="STEFFENSEN" data-source-line="112" data-uid="lnk33" id="link_ECUACIONES_UNA_VARIABLE_STEFFENSEN"><path d="M1512,444.1138 C1645.29,456.5538 1849.32,475.5938 1849.32,475.5938 C1849.32,475.5938 1871.9087,501.1761 1891.8287,523.7361" fill="none" id="ECUACIONES_UNA_VARIABLE-to-STEFFENSEN" style="stroke:#218C00;stroke-width:1;"/><polygon fill="#218C00" points="1895.8,528.2338,1892.8415,518.8398,1892.4906,524.4857,1886.8446,524.1348,1895.8,528.2338" style="stroke:#218C00;stroke-width:1;"/><path d="M1884.32,480.5938 L1884.32,505.5938 L2062.32,505.5938 L2062.32,490.5938 L2052.32,480.5938 L1884.32,480.5938" fill="#F5F5F5" style="stroke:#C90000;stroke-width:0.5;"/><path d="M2052.32,480.5938 L2052.32,490.5938 L2062.32,490.5938 L2052.32,480.5938" fill="#F5F5F5" style="stroke:#C90000;stroke-width:0.5;"/><text fill="#000000" font-family="sans-serif" font-size="13" lengthAdjust="spacing" textLength="157.9297" x="1890.32" y="497.6606">Abrir M&#233;todo Steffensen</text></g><!--link STEFFENSEN to ECUACIONES_UNA_VARIABLE--><g class="link" data-entity-1="STEFFENSEN" data-entity-2="ECUACIONES_UNA_VARIABLE" data-source-line="117" data-uid="lnk34" id="link_STEFFENSEN_ECUACIONES_UNA_VARIABLE"><path d="M1972.48,537.5538 C2016.67,525.4938 2071.32,510.5938 2071.32,510.5938 C2071.32,510.5938 2071.32,475.5938 2071.32,475.5938 C2071.32,475.5938 1709.0883,452.9581 1517.7883,440.9981" fill="none" id="STEFFENSEN-to-ECUACIONES_UNA_VARIABLE" style="stroke:#218C00;stroke-width:1;"/><polygon fill="#218C00" points="1511.8,440.6238,1520.5329,445.1775,1516.7903,440.9357,1521.0321,437.1931,1511.8,440.6238" style="stroke:#218C00;stroke-width:1;"/><path d="M2076.32,480.5938 L2076.32,505.5938 L2218.32,505.5938 L2218.32,490.5938 L2208.32,480.5938 L2076.32,480.5938" fill="#F5F5F5" style="stroke:#C90000;stroke-width:0.5;"/><path d="M2208.32,480.5938 L2208.32,490.5938 L2218.32,490.5938 L2208.32,480.5938" fill="#F5F5F5" style="stroke:#C90000;stroke-width:0.5;"/><text fill="#000000" font-family="sans-serif" font-size="13" lengthAdjust="spacing" textLength="121.6846" x="2082.32" y="497.6606">Listar Operaciones</text></g><!--link STEFFENSEN to STEFFENSEN--><g class="link" data-entity-1="STEFFENSEN" data-entity-2="STEFFENSEN" data-source-line="122" data-uid="lnk35" id="link_STEFFENSEN_STEFFENSEN"><path d="M1972.67,542.8338 C1983,544.1538 1990.28,547.7438 1990.28,553.5938 C1990.28,559.4438 1988.9516,562.2732 1978.6216,563.5932" fill="none" id="STEFFENSEN-to-STEFFENSEN" style="stroke:#218C00;stroke-width:1;"/><polygon fill="#218C00" points="1972.67,564.3538,1982.1044,567.1807,1977.6297,563.72,1981.0904,559.2452,1972.67,564.3538" style="stroke:#218C00;stroke-width:1;"/><path d="M1995.28,541.0938 L1995.28,566.0938 L2196.28,566.0938 L2196.28,551.0938 L2186.28,541.0938 L1995.28,541.0938" fill="#F5F5F5" style="stroke:#C90000;stroke-width:0.5;"/><path d="M2186.28,541.0938 L2186.28,551.0938 L2196.28,551.0938 L2186.28,541.0938" fill="#F5F5F5" style="stroke:#C90000;stroke-width:0.5;"/><text fill="#000000" font-family="sans-serif" font-size="13" lengthAdjust="spacing" textLength="180.4893" x="2001.28" y="558.1606">Crear Operaci&#243;n Steffensen</text></g><!--link ECUACIONES_UNA_VARIABLE to HORNER--><g class="link" data-entity-1="ECUACIONES_UNA_VARIABLE" data-entity-2="HORNER" data-source-line="127" data-uid="lnk37" id="link_ECUACIONES_UNA_VARIABLE_HORNER"><path d="M1511.85,439.3038 C1738.24,450.7838 2227.32,475.5938 2227.32,475.5938 C2227.32,475.5938 2255.7071,501.6193 2280.3171,524.1793" fill="none" id="ECUACIONES_UNA_VARIABLE-to-HORNER" style="stroke:#218C00;stroke-width:1;"/><polygon fill="#218C00" points="2284.74,528.2338,2280.8087,519.2035,2281.0543,524.8551,2275.4028,525.1007,2284.74,528.2338" style="stroke:#218C00;stroke-width:1;"/><path d="M2269.32,480.5938 L2269.32,505.5938 L2422.32,505.5938 L2422.32,490.5938 L2412.32,480.5938 L2269.32,480.5938" fill="#F5F5F5" style="stroke:#C90000;stroke-width:0.5;"/><path d="M2412.32,480.5938 L2412.32,490.5938 L2422.32,490.5938 L2412.32,480.5938" fill="#F5F5F5" style="stroke:#C90000;stroke-width:0.5;"/><text fill="#000000" font-family="sans-serif" font-size="13" lengthAdjust="spacing" textLength="132.8374" x="2275.32" y="497.6606">Abrir M&#233;todo Horner</text></g><!--link HORNER to ECUACIONES_UNA_VARIABLE--><g class="link" data-entity-1="HORNER" data-entity-2="ECUACIONES_UNA_VARIABLE" data-source-line="132" data-uid="lnk38" id="link_HORNER_ECUACIONES_UNA_VARIABLE"><path d="M2351.95,538.3738 C2386.76,526.1938 2431.32,510.5938 2431.32,510.5938 C2431.32,510.5938 2431.32,475.5938 2431.32,475.5938 C2431.32,475.5938 1785.195,449.2978 1517.725,438.4078" fill="none" id="HORNER-to-ECUACIONES_UNA_VARIABLE" style="stroke:#218C00;stroke-width:1;"/><polygon fill="#218C00" points="1511.73,438.1638,1520.5598,442.5266,1516.7259,438.3672,1520.8853,434.5332,1511.73,438.1638" style="stroke:#218C00;stroke-width:1;"/><path d="M2436.32,480.5938 L2436.32,505.5938 L2578.32,505.5938 L2578.32,490.5938 L2568.32,480.5938 L2436.32,480.5938" fill="#F5F5F5" style="stroke:#C90000;stroke-width:0.5;"/><path d="M2568.32,480.5938 L2568.32,490.5938 L2578.32,490.5938 L2568.32,480.5938" fill="#F5F5F5" style="stroke:#C90000;stroke-width:0.5;"/><text fill="#000000" font-family="sans-serif" font-size="13" lengthAdjust="spacing" textLength="121.6846" x="2442.32" y="497.6606">Listar Operaciones</text></g><!--link HORNER to HORNER--><g class="link" data-entity-1="HORNER" data-entity-2="HORNER" data-source-line="137" data-uid="lnk39" id="link_HORNER_HORNER"><path d="M2351.82,542.4038 C2361.92,543.1838 2369.48,546.9137 2369.48,553.5938 C2369.48,560.2738 2367.9022,563.5418 2357.8022,564.3218" fill="none" id="HORNER-to-HORNER" style="stroke:#218C00;stroke-width:1;"/><polygon fill="#218C00" points="2351.82,564.7838,2361.1013,568.0789,2356.8052,564.3988,2360.4853,560.1026,2351.82,564.7838" style="stroke:#218C00;stroke-width:1;"/><path d="M2374.48,541.0938 L2374.48,566.0938 L2550.48,566.0938 L2550.48,551.0938 L2540.48,541.0938 L2374.48,541.0938" fill="#F5F5F5" style="stroke:#C90000;stroke-width:0.5;"/><path d="M2540.48,541.0938 L2540.48,551.0938 L2550.48,551.0938 L2540.48,541.0938" fill="#F5F5F5" style="stroke:#C90000;stroke-width:0.5;"/><text fill="#000000" font-family="sans-serif" font-size="13" lengthAdjust="spacing" textLength="155.397" x="2380.48" y="558.1606">Crear Operaci&#243;n Horner</text></g><!--link ECUACIONES_UNA_VARIABLE to M?LLER--><g class="link" data-entity-1="ECUACIONES_UNA_VARIABLE" data-entity-2="M&#220;LLER" data-source-line="142" data-uid="lnk41" id="link_ECUACIONES_UNA_VARIABLE_M&#220;LLER"><path d="M1512.15,437.5838 C1808.7,448.0638 2587.32,475.5938 2587.32,475.5938 C2587.32,475.5938 2643.32,510.5938 2643.32,510.5938 C2643.32,510.5938 2664.8027,520.6168 2689.1927,531.9968" fill="none" id="ECUACIONES_UNA_VARIABLE-to-M&#220;LLER" style="stroke:#218C00;stroke-width:1;"/><polygon fill="#218C00" points="2694.63,534.5338,2688.1654,527.1035,2690.0989,532.4196,2684.7828,534.3532,2694.63,534.5338" style="stroke:#218C00;stroke-width:1;"/><path d="M2648.32,480.5938 L2648.32,505.5938 L2797.32,505.5938 L2797.32,490.5938 L2787.32,480.5938 L2648.32,480.5938" fill="#F5F5F5" style="stroke:#C90000;stroke-width:0.5;"/><path d="M2787.32,480.5938 L2787.32,490.5938 L2797.32,490.5938 L2787.32,480.5938" fill="#F5F5F5" style="stroke:#C90000;stroke-width:0.5;"/><text fill="#000000" font-family="sans-serif" font-size="13" lengthAdjust="spacing" textLength="128.2036" x="2654.32" y="497.6606">Abrir M&#233;todo M&#252;ller</text></g><!--link M?LLER to ECUACIONES_UNA_VARIABLE--><g class="link" data-entity-1="M&#220;LLER" data-entity-2="ECUACIONES_UNA_VARIABLE" data-source-line="147" data-uid="lnk42" id="link_M&#220;LLER_ECUACIONES_UNA_VARIABLE"><path d="M2771.85,529.1338 C2787.66,519.5138 2802.32,510.5938 2802.32,510.5938 C2802.32,510.5938 2802.32,475.5938 2802.32,475.5938 C2802.32,475.5938 1851.2473,447.1234 1518.0573,437.1434" fill="none" id="M&#220;LLER-to-ECUACIONES_UNA_VARIABLE" style="stroke:#218C00;stroke-width:1;"/><polygon fill="#218C00" points="1512.06,436.9638,1520.9362,441.2314,1517.0578,437.1134,1521.1757,433.235,1512.06,436.9638" style="stroke:#218C00;stroke-width:1;"/><path d="M2807.32,480.5938 L2807.32,505.5938 L2949.32,505.5938 L2949.32,490.5938 L2939.32,480.5938 L2807.32,480.5938" fill="#F5F5F5" style="stroke:#C90000;stroke-width:0.5;"/><path d="M2939.32,480.5938 L2939.32,490.5938 L2949.32,490.5938 L2939.32,480.5938" fill="#F5F5F5" style="stroke:#C90000;stroke-width:0.5;"/><text fill="#000000" font-family="sans-serif" font-size="13" lengthAdjust="spacing" textLength="121.6846" x="2813.32" y="497.6606">Listar Operaciones</text></g><!--link M?LLER to M?LLER--><g class="link" data-entity-1="M&#220;LLER" data-entity-2="M&#220;LLER" data-source-line="152" data-uid="lnk43" id="link_M&#220;LLER_M&#220;LLER"><path d="M2771.97,542.3638 C2782,543.0538 2789.57,546.8038 2789.57,553.5938 C2789.57,560.3838 2787.9859,563.722 2777.9559,564.412" fill="none" id="M&#220;LLER-to-M&#220;LLER" style="stroke:#218C00;stroke-width:1;"/><polygon fill="#218C00" points="2771.97,564.8238,2781.2233,568.1966,2776.9582,564.4806,2780.6743,560.2155,2771.97,564.8238" style="stroke:#218C00;stroke-width:1;"/><path d="M2794.57,541.0938 L2794.57,566.0938 L2965.57,566.0938 L2965.57,551.0938 L2955.57,541.0938 L2794.57,541.0938" fill="#F5F5F5" style="stroke:#C90000;stroke-width:0.5;"/><path d="M2955.57,541.0938 L2955.57,551.0938 L2965.57,551.0938 L2955.57,541.0938" fill="#F5F5F5" style="stroke:#C90000;stroke-width:0.5;"/><text fill="#000000" font-family="sans-serif" font-size="13" lengthAdjust="spacing" textLength="150.7632" x="2800.57" y="558.1606">Crear Operaci&#243;n M&#252;ller</text></g><ellipse cx="1490.79" cy="53.2969" fill="#222222" rx="10" ry="10" style="stroke:#222222;stroke-width:1;"/><ellipse cx="1490.79" cy="694.5969" fill="none" rx="11" ry="11" style="stroke:#222222;stroke-width:1;"/><ellipse cx="1490.79" cy="694.5969" fill="#222222" rx="6" ry="6" style="stroke:#222222;stroke-width:1;"/><!--link *start* to WEB--><g class="link" data-entity-1="*start*" data-entity-2="WEB" data-source-line="11" data-uid="lnk3" id="link_*start*_WEB"><path d="M1490.79,63.4769 C1490.79,79.7269 1490.79,109.8369 1490.79,151.8569" fill="none" id="*start*-to-WEB" style="stroke:#218C00;stroke-width:1;"/><polygon fill="#218C00" points="1490.79,157.8569,1494.79,148.8569,1490.79,152.8569,1486.79,148.8569,1490.79,157.8569" style="stroke:#218C00;stroke-width:1;"/><path d="M1495.79,98.2969 L1495.79,123.2969 L1589.79,123.2969 L1589.79,108.2969 L1579.79,98.2969 L1495.79,98.2969" fill="#F5F5F5" style="stroke:#C90000;stroke-width:0.5;"/><path d="M1579.79,98.2969 L1579.79,108.2969 L1589.79,108.2969 L1579.79,98.2969" fill="#F5F5F5" style="stroke:#C90000;stroke-width:0.5;"/><text fill="#000000" font-family="sans-serif" font-size="13" lengthAdjust="spacing" textLength="65.5649" x="1501.79" y="115.3638">Abrir WEB</text></g><!--link WEB to *end*--><g class="link" data-entity-1="WEB" data-entity-2="*end*" data-source-line="158" data-uid="lnk45" id="link_WEB_*end*"><path d="M1490.79,589.0969 C1490.79,630.5869 1490.79,660.4169 1490.79,677.2969" fill="none" id="WEB-to-*end*" style="stroke:#218C00;stroke-width:1;"/><polygon fill="#218C00" points="1490.79,683.2969,1494.79,674.2969,1490.79,678.2969,1486.79,674.2969,1490.79,683.2969" style="stroke:#218C00;stroke-width:1;"/><path d="M1495.79,623.5969 L1495.79,648.5969 L1591.79,648.5969 L1591.79,633.5969 L1581.79,623.5969 L1495.79,623.5969" fill="#F5F5F5" style="stroke:#C90000;stroke-width:0.5;"/><path d="M1581.79,623.5969 L1581.79,633.5969 L1591.79,633.5969 L1581.79,623.5969" fill="#F5F5F5" style="stroke:#C90000;stroke-width:0.5;"/><text fill="#000000" font-family="sans-serif" font-size="13" lengthAdjust="spacing" textLength="75.1943" x="1501.79" y="640.6638">Cerrar WEB</text></g><!--SRC=[hPP1Zfim58RtFeMbxYf5wbHJgTrK8c0qL0GG9fr5LI47dAaRQaU6T3ggUfDUODQpxIuNAqv80Z4udOfabJo_pz__S2ANAyRNH99la8kAJacskfDYmtDR54B25yitwWtAxYeXSogR5TcxL_MhjO98AUwRukkhjrcdM5QaRnUol5vSQykCsnICq-fXJU5Q50_gmxb2yeLbAqxB4bu1KB6geD1XvAwk4vXJQ0jUqH-LWBFjKxuf14JPXcHCr1sglE44VYUIaKL10VZqyZESJDx3MpG5QW9GS2Mm0X1Q2ycaAa08ACzt0m80gm2xRtyUcn5EB2TCezWBR2-o_7EIp-hOyk1JTdZdlN0IryGmYKESpa9dxeTu01UkgJpaCXELeZstR2yC44xdWPL-j6BFclhekUX-oYH__X3-aJhrCB9LiV_fJ5b9iunjdtZB4m9mR8Dxj_zDtx8y8YUEoSkMz8HGNYt5jg4fT3GFaZ1rlGzXVsglEjAZ3QzFkik-YZRy11WjVWlf61Mr0VGhcl87w3OPUkApxMCbSW43Uby9tYRkkqOBtE2SGHyjgAva2bcV7oj8a3abfXcf_ytQpAPlj9m7dZFif2NjqJ95TIqVMsaKOc_ubtn8x9AY930I9TjjrTwYYnbj06TOvwAmDWw3i_449CXrKO3HXP7WYYwNb9UqGpvrZtSKJaZ7wASVY5v5K_YRC0vGR0v-8oIdiatSTuqMkC4vWpvQK5t957As_UtxbrBEjd-Aeiji-aRBUU0vmqvQKbth5m3gtgEk4_NDHmDGASdkldHi-Gi0]--></g></svg>